<?xml version="1.0" encoding="UTF-8" standalone="no"?>
<!DOCTYPE svg PUBLIC "-//W3C//DTD SVG 20010904//EN"
"http://www.w3.org/TR/2001/REC-SVG-20010904/DTD/svg10.dtd">
<!-- Created with Inkscape (http://www.inkscape.org/) -->
<svg
   id="svg1"
   sodipodi:version="0.32"
   inkscape:version="0.39cvs"
   width="215.90000mm"
   height="279.40000mm"
   sodipodi:docbase="/home/jonas/soma/developer/DSPboard/docs/FPGA/data buffer"
   sodipodi:docname="input FSM.svg"
   xmlns="http://www.w3.org/2000/svg"
   xmlns:inkscape="http://www.inkscape.org/namespaces/inkscape"
   xmlns:sodipodi="http://sodipodi.sourceforge.net/DTD/sodipodi-0.dtd"
   xmlns:xml="http://www.w3.org/XML/1998/namespace"
   xmlns:xlink="http://www.w3.org/1999/xlink">
  <defs
     id="defs3">
    <marker
       style="overflow:visible;"
       id="TriangleInM"
       refX="0.0"
       refY="0.0"
       orient="auto"
       inkscape:stockid="TriangleInM">
      <path
         transform="scale(-0.4)"
         style="fill-rule:evenodd;stroke:#000000;stroke-width:1.0pt;marker-start:none;"
         d="M 5.77,0.0 L -2.88,5.0 L -2.88,-5.0 L 5.77,0.0 z "
         id="path1545"
         sodipodi:nodetypes="cccc" />
    </marker>
    <marker
       style="overflow:visible;"
       id="Arrow1M"
       refX="0.0"
       refY="0.0"
       orient="auto"
       inkscape:stockid="Arrow1M">
      <path
         transform="scale(0.4)"
         style="fill-rule:evenodd;stroke:#000000;stroke-width:1.0pt;marker-start:none;"
         d="M 0.0,0.0 L 5.0,-5.0 L -12.5,0.0 L 5.0,5.0 L 0.0,0.0 z "
         id="path1591"
         sodipodi:nodetypes="ccccc" />
    </marker>
    <marker
       style="overflow:visible;"
       id="Arrow2L"
       refX="0.0"
       refY="0.0"
       orient="auto"
       inkscape:stockid="Arrow2L">
      <path
         transform="scale(1.1) translate(-5,0)"
         d="M 8.7185878,4.0337352 L -2.2072895,0.016013256 L 8.7185884,-4.0017078 C 6.9730900,-1.6296469 6.9831476,1.6157441 8.7185878,4.0337352 z "
         style="font-size:12.0;fill-rule:evenodd;stroke-width:0.62500000;stroke-linejoin:round;"
         id="path1587"
         sodipodi:nodetypes="cccc" />
    </marker>
    <marker
       style="overflow:visible;"
       id="Arrow1S"
       refX="0.0"
       refY="0.0"
       orient="auto"
       inkscape:stockid="Arrow1S">
      <path
         transform="scale(0.2)"
         style="fill-rule:evenodd;stroke:#000000;stroke-width:1.0pt;marker-start:none;"
         d="M 0.0,0.0 L 5.0,-5.0 L -12.5,0.0 L 5.0,5.0 L 0.0,0.0 z "
         id="path983"
         sodipodi:nodetypes="ccccc" />
    </marker>
    <marker
       style="overflow:visible;"
       id="Arrow2S"
       refX="0.0"
       refY="0.0"
       orient="auto"
       inkscape:stockid="Arrow2S">
      <path
         transform="scale(0.3) translate(-5,0)"
         d="M 8.7185878,4.0337352 L -2.2072895,0.016013256 L 8.7185884,-4.0017078 C 6.9730900,-1.6296469 6.9831476,1.6157441 8.7185878,4.0337352 z "
         style="font-size:12.0;fill-rule:evenodd;stroke-width:0.62500000;stroke-linejoin:round;"
         id="arrowMarkerPath2"
         sodipodi:nodetypes="cccc" />
    </marker>
    <marker
       style="overflow:visible;"
       id="Arrow2M"
       refX="0.0"
       refY="0.0"
       orient="auto"
       inkscape:stockid="Arrow2M">
      <path
         transform="scale(0.6) translate(-5,0)"
         d="M 8.7185878,4.0337352 L -2.2072895,0.016013256 L 8.7185884,-4.0017078 C 6.9730900,-1.6296469 6.9831476,1.6157441 8.7185878,4.0337352 z "
         style="font-size:12.0;fill-rule:evenodd;stroke-width:0.62500000;stroke-linejoin:round;"
         id="path1585"
         sodipodi:nodetypes="cccc" />
    </marker>
    <marker
       style="overflow:visible;"
       id="Torso"
       refX="0.0"
       refY="0.0"
       orient="auto"
       inkscape:stockid="Torso">
      <g
         transform="scale(0.7)"
         id="g2045">
        <path
           style="fill:none;fill-opacity:0.75000000;fill-rule:evenodd;stroke:#000000;stroke-width:1.2500000;marker-start:none;marker-mid:none;marker-end:none;"
           d="M -4.7792281,-3.2395420 C -2.4288541,-2.8736027 0.52103922,-1.3019943 0.25792722,0.38794346 C -0.0051877922,2.0778819 -2.2126741,2.6176539 -4.5630471,2.2517169 C -6.9134221,1.8857769 -8.5210350,0.75201414 -8.2579220,-0.93792336 C -7.9948090,-2.6278615 -7.1296041,-3.6054813 -4.7792281,-3.2395420 z "
           id="path1128"
           sodipodi:nodetypes="ccccc" />
        <path
           style="fill:none;fill-opacity:0.75000000;fill-rule:evenodd;stroke:#000000;stroke-width:1.0000000pt;marker-end:none;"
           d="M 4.4598789,0.088665736 C -2.5564571,-4.3783320 5.2248769,-3.9061806 -0.84829578,-8.7197331"
           id="path1909"
           sodipodi:nodetypes="cc" />
        <path
           style="fill:none;fill-opacity:0.75000000;fill-rule:evenodd;stroke:#000000;stroke-width:1.0000000pt;marker-start:none;marker-end:none;"
           d="M 4.9298719,0.057520736 C -1.3872731,1.7494689 1.8027579,5.4782079 -4.9448731,7.5462725"
           id="path1910"
           sodipodi:nodetypes="cc" />
        <rect
           style="fill-rule:evenodd;stroke-width:1.0000000pt;marker-end:none;"
           id="rect2035"
           width="2.6366582"
           height="2.7608147"
           x="-10.391706"
           y="-1.7408575"
           transform="matrix(0.527536,-0.849533,0.887668,0.460484,0.000000,0.000000)" />
        <rect
           style="fill-rule:evenodd;stroke-width:1.0000000pt;marker-end:none;"
           id="rect2036"
           width="2.7327356"
           height="2.8614161"
           x="4.9587269"
           y="-7.9629307"
           transform="matrix(0.671205,-0.741272,0.790802,0.612072,0.000000,0.000000)" />
        <path
           sodipodi:type="arc"
           style="fill:#ff0000;fill-opacity:0.75000000;fill-rule:evenodd;stroke:#000000;stroke-width:1.0000000pt;marker-start:none;marker-end:none;"
           id="path2037"
           sodipodi:cx="16.172634"
           sodipodi:cy="-28.685045"
           sodipodi:rx="0.60731727"
           sodipodi:ry="0.60731727"
           d="M 16.779951 -28.685045 A 0.60731727 0.60731727 0 1 0 15.565317,-28.685045 A 0.60731727 0.60731727 0 1 0 16.779951 -28.685045 z"
           transform="matrix(6.793608e-17,-1.109517,1.109517,6.793608e-17,25.96648,19.71619)" />
        <path
           sodipodi:type="arc"
           style="fill:#ff0000;fill-opacity:0.75000000;fill-rule:evenodd;stroke:#000000;stroke-width:1.0000000pt;marker-start:none;marker-end:none;"
           id="path2038"
           sodipodi:cx="16.172634"
           sodipodi:cy="-28.685045"
           sodipodi:rx="0.60731727"
           sodipodi:ry="0.60731727"
           d="M 16.779951 -28.685045 A 0.60731727 0.60731727 0 1 0 15.565317,-28.685045 A 0.60731727 0.60731727 0 1 0 16.779951 -28.685045 z"
           transform="matrix(6.793608e-17,-1.109517,1.109517,6.793608e-17,26.82450,16.99126)" />
      </g>
    </marker>
    <marker
       style="overflow:visible;"
       id="Arrow1L"
       refX="0.0"
       refY="0.0"
       orient="auto"
       inkscape:stockid="Arrow1L">
      <path
         transform="scale(0.8)"
         style="fill-rule:evenodd;stroke:#000000;stroke-width:1.0pt;marker-start:none;"
         d="M 0.0,0.0 L 5.0,-5.0 L -12.5,0.0 L 5.0,5.0 L 0.0,0.0 z "
         id="path1593"
         sodipodi:nodetypes="ccccc" />
    </marker>
    <marker
       style="overflow:visible;"
       id="TriangleOutL"
       refX="0.0"
       refY="0.0"
       orient="auto"
       inkscape:stockid="TriangleOutL">
      <path
         transform="scale(0.8)"
         style="fill-rule:evenodd;stroke:#000000;stroke-width:1.0pt;marker-start:none;"
         d="M 5.77,0.0 L -2.88,5.0 L -2.88,-5.0 L 5.77,0.0 z "
         id="path1541"
         sodipodi:nodetypes="cccc" />
    </marker>
  </defs>
  <sodipodi:namedview
     id="base"
     pagecolor="#ffffff"
     bordercolor="#666666"
     borderopacity="1.0"
     inkscape:pageopacity="0.0"
     inkscape:pageshadow="2"
     inkscape:zoom="2.8329700"
     inkscape:cx="194.28641"
     inkscape:cy="652.05162"
     inkscape:window-width="1596"
     inkscape:window-height="1159"
     showgrid="true"
     snaptogrid="true"
     inkscape:grid-points="true"
     gridspacingy="2.0000000mm"
     gridspacingx="2.0000000mm"
     gridoriginy="0.0000000mm"
     gridoriginx="0.0000000mm"
     gridtolerance="2.0000000mm"
     showguides="true"
     snaptoguides="true"
     inkscape:window-x="0"
     inkscape:window-y="0"
     inkscape:grid-bbox="false"
     guidetolerance="2.0000000mm" />
  <path
     style="fill:none;fill-rule:evenodd;stroke:black;stroke-opacity:1;stroke-width:1pt;stroke-linejoin:miter;stroke-linecap:butt;fill-opacity:0.75;"
     d="M 220.50000,351.00000 L 220.50000,351.00000"
     id="path2861" />
  <path
     style="fill:#ffffff;fill-rule:evenodd;stroke:#000000;stroke-width:0.77066112;stroke-linecap:round;"
     d="M 212.12500,342.60080 L 233.88074,342.60080 C 233.88074,342.60080 246.93420,342.60080 246.93420,355.48790 C 246.93420,368.37500 233.88074,368.37500 233.88074,368.37500 L 212.12500,368.37500 L 212.12500,342.60080 z "
     id="AND"
     sodipodi:nodetypes="cccccc"
     transform="matrix(1.613435,0.000000,0.000000,1.630575,-136.4065,-213.2718)" />
  <rect
     style="fill:#ffffff;fill-opacity:0.75000000;fill-rule:evenodd;stroke:#000000;stroke-width:1.1624987;"
     id="STATE"
     x="100.00703"
     y="121.26276"
     width="62.492977"
     height="37.487240"
     transform="matrix(1.020461,0.000000,0.000000,1.133020,-2.840716,-19.04675)"
     ry="9.8331308" />
  <text
     xml:space="preserve"
     style="font-size:9.0000000;stroke-width:1.0825320;font-family:Bitstream Vera Sans;text-anchor:middle;"
     x="117.53175"
     y="119.17977"
     id="text2864"
     sodipodi:linespacing="100%"
     transform="scale(1.111111,1.199999)"><tspan
       id="tspan2865">STATE A</tspan></text>
  <path
     style="fill:none;fill-rule:evenodd;stroke:black;stroke-opacity:1;stroke-width:1pt;stroke-linejoin:miter;stroke-linecap:butt;fill-opacity:0.75;marker-end:none;"
     d="M 162.50000,133.75000 L 162.50000,133.75000 C nan,nan 175.00000,133.75000 175.00000,133.75000"
     id="path2889" />
  <path
     sodipodi:type="arc"
     style="fill:none;fill-opacity:0.75000000;fill-rule:evenodd;stroke:#000000;stroke-width:1.2500000;marker-start:url(#TriangleInM);marker-end:none;"
     id="path3557"
     sodipodi:cx="168.75000"
     sodipodi:cy="102.50000"
     sodipodi:rx="12.500000"
     sodipodi:ry="12.500000"
     sodipodi:start="0.41009825"
     sodipodi:end="4.7027288"
     d="M 180.21352,107.48374 A 12.500000,12.500000 0 1 1 168.62925,90.000583"
     sodipodi:open="true"
     transform="matrix(-0.999935,1.145556e-2,-1.145556e-2,-0.999935,332.9054,219.9576)" />
  <text
     xml:space="preserve"
     style="font-size:9.0000000;stroke-width:1.2500000;font-family:Bitstream Vera Sans;text-anchor:middle;"
     x="177.39404"
     y="108.62256"
     id="text3558"
     transform="translate(1.328740,-4.576833)"><tspan
       id="tspan3559">else</tspan></text>
  <g
     id="REGISTER">
    <rect
       style="fill:#ffffff;fill-rule:evenodd;stroke:#000000;stroke-width:1.2149233;"
       id="rect2835"
       width="40.776981"
       height="62.744911"
       x="184.22302"
       y="360.36694"
       transform="matrix(1.041729,0.000000,0.000000,1.016170,-64.31036,-21.07619)" />
    <text
       xml:space="preserve"
       style="font-size:5.0000000;stroke-width:0.36937839;font-family:Bitstream Vera Sans;"
       x="55.359283"
       y="112.68551"
       id="text2836"
       sodipodi:linespacing="100%"
       transform="matrix(3.384064,0.000000,0.000000,3.384064,-56.22500,-14.87253)"><tspan
         id="tspan2837">D</tspan></text>
    <text
       xml:space="preserve"
       style="font-size:5.0000000;stroke-width:0.36937839;font-family:Bitstream Vera Sans;text-anchor:end;"
       x="65.158340"
       y="112.75143"
       id="text2839"
       sodipodi:linespacing="100%"
       transform="matrix(3.384064,0.000000,0.000000,3.384064,-55.08208,-15.36424)"><tspan
         id="tspan2840">Q</tspan></text>
    <path
       style="fill:none;fill-rule:evenodd;stroke:black;stroke-opacity:1;stroke-width:1pt;stroke-linejoin:miter;stroke-linecap:butt;fill-opacity:0.75;"
       d="M 127.55906,394.72435 L 134.64567,401.81096 L 127.55906,408.89758"
       id="path2568" />
  </g>
  <g
     id="REGISTER-CE"
     transform="translate(-63.77953,-42.51969)">
    <g
       id="g2578"
       transform="translate(-49.60630,-3.410605e-13)">
      <rect
         style="fill:#ffffff;fill-rule:evenodd;stroke:#000000;stroke-width:1.2149233;"
         id="rect2579"
         width="40.776981"
         height="62.744911"
         x="184.22302"
         y="360.36694"
         transform="matrix(1.041729,0.000000,0.000000,1.016170,-64.31036,-21.07619)" />
      <text
         xml:space="preserve"
         style="font-size:5.0000000;stroke-width:0.36937839;font-family:Bitstream Vera Sans;"
         x="55.359283"
         y="112.68551"
         id="text2580"
         sodipodi:linespacing="100%"
         transform="matrix(3.384064,0.000000,0.000000,3.384064,-56.22500,-14.87253)"><tspan
           id="tspan2581">D</tspan></text>
      <text
         xml:space="preserve"
         style="font-size:5.0000000;stroke-width:0.36937839;font-family:Bitstream Vera Sans;text-anchor:end;"
         x="65.158340"
         y="112.75143"
         id="text2583"
         sodipodi:linespacing="100%"
         transform="matrix(3.384064,0.000000,0.000000,3.384064,-55.08208,-15.36424)"><tspan
           id="tspan2584">Q</tspan></text>
      <path
         style="fill:none;fill-opacity:0.75000000;fill-rule:evenodd;stroke:#000000;stroke-width:1.0000000pt;"
         d="M 127.55906,394.72435 L 134.64567,401.81096 L 127.55906,408.89758"
         id="path2586" />
    </g>
    <text
       xml:space="preserve"
       style="font-size:11.000000;stroke-width:1.0000000pt;font-family:Bitstream Vera Sans;text-anchor:middle;"
       x="139.65025"
       y="332.78333"
       id="text2587"
       sodipodi:linespacing="100%"
       transform="translate(-34.18282,73.36661)"><tspan
         x="139.65025"
         y="332.78333"
         sodipodi:role="line"
         id="tspan2590">CE</tspan></text>
  </g>
  <path
     id="OR"
     style="fill:#ffffff;fill-opacity:1.0000000;fill-rule:evenodd;stroke:#000000;stroke-width:1.0000000pt;"
     d="M 205.51181,451.41726 C 205.51181,451.41726 248.03150,451.41726 262.20472,430.15742 C 248.03150,408.89758 205.51181,408.89758 205.51181,408.89758 C 205.51181,408.89758 205.51181,408.89758 205.51181,408.89758 C 205.51181,408.89758 219.68504,430.15741 205.51181,451.41726"
     sodipodi:nodetypes="ccccc" />
</svg>
