%FSLAX24Y24*%
%MOIN*%
G70*
G01*
G75*
G04 Layer_Physical_Order=6*
%ADD10R,0.0500X0.1181*%
%ADD11C,0.0241*%
%ADD12R,0.0433X0.0394*%
%ADD13R,0.0394X0.0433*%
%ADD14R,0.0420X0.1181*%
%ADD15R,0.5906X0.5906*%
%ADD16C,0.0200*%
%ADD17R,0.0866X0.0236*%
%ADD18R,0.0866X0.0236*%
%ADD19R,0.0118X0.0728*%
%ADD20R,0.0650X0.0118*%
%ADD21R,0.0709X0.0630*%
%ADD22R,0.0630X0.0709*%
%ADD23R,0.0787X0.0866*%
%ADD24R,0.1024X0.0945*%
%ADD25R,0.1063X0.0630*%
%ADD26R,0.0551X0.0787*%
%ADD27R,0.0591X0.0512*%
%ADD28R,0.0512X0.0591*%
%ADD29R,0.0807X0.0236*%
%ADD30R,0.0866X0.0787*%
%ADD31R,0.0728X0.0118*%
%ADD32R,0.0630X0.0118*%
%ADD33R,0.0118X0.0630*%
%ADD34R,0.0620X0.0775*%
%ADD35R,0.0360X0.2560*%
%ADD36R,0.0600X0.0150*%
%ADD37R,0.0620X0.1010*%
%ADD38C,0.0160*%
%ADD39C,0.0200*%
%ADD40C,0.0100*%
%ADD41C,0.0080*%
%ADD42C,0.0180*%
%ADD43C,0.0120*%
%ADD44C,0.0600*%
%ADD45C,0.0591*%
%ADD46R,0.0591X0.0591*%
%ADD47C,0.0460*%
%ADD48C,0.1732*%
%ADD49C,0.1732*%
%ADD50C,0.0500*%
%ADD51C,0.0420*%
%ADD52C,0.0320*%
D12*
X57265Y52800D02*
D03*
X57935D02*
D03*
X39665Y34400D02*
D03*
X40335D02*
D03*
X39665Y37000D02*
D03*
X40335D02*
D03*
X39665Y40200D02*
D03*
X40335D02*
D03*
X39665Y42800D02*
D03*
X40335D02*
D03*
X31135Y35000D02*
D03*
X30465D02*
D03*
X31135Y37000D02*
D03*
X30465D02*
D03*
X31135Y40400D02*
D03*
X30465D02*
D03*
X31135Y42800D02*
D03*
X30465D02*
D03*
X31135Y41600D02*
D03*
X30465D02*
D03*
X39665Y41800D02*
D03*
X40335D02*
D03*
X39665Y39200D02*
D03*
X40335D02*
D03*
X39665Y38000D02*
D03*
X40335D02*
D03*
X31135D02*
D03*
X30465D02*
D03*
X31535Y39000D02*
D03*
X30865D02*
D03*
X62665Y51600D02*
D03*
X63335D02*
D03*
X57935Y48800D02*
D03*
X57265D02*
D03*
X57935Y50800D02*
D03*
X57265D02*
D03*
X57935Y53800D02*
D03*
X57265D02*
D03*
X62865Y53200D02*
D03*
X63535D02*
D03*
X62865Y54200D02*
D03*
X63535D02*
D03*
X66335Y48400D02*
D03*
X65665D02*
D03*
X57935Y49800D02*
D03*
X57265D02*
D03*
X57935Y51800D02*
D03*
X57265D02*
D03*
X64465Y55400D02*
D03*
X65135D02*
D03*
X57935Y54800D02*
D03*
X57265D02*
D03*
Y35800D02*
D03*
X57935D02*
D03*
X57265Y41600D02*
D03*
X57935D02*
D03*
X57265Y37600D02*
D03*
X57935D02*
D03*
X57935Y57600D02*
D03*
X57265D02*
D03*
X63535Y41000D02*
D03*
X62865D02*
D03*
X63535Y40000D02*
D03*
X62865D02*
D03*
X63535Y37400D02*
D03*
X62865D02*
D03*
X57265Y36800D02*
D03*
X57935D02*
D03*
X57265Y38600D02*
D03*
X57935D02*
D03*
X57265Y39600D02*
D03*
X57935D02*
D03*
X57265Y40600D02*
D03*
X57935D02*
D03*
X38735Y34200D02*
D03*
X38065D02*
D03*
X57335Y47400D02*
D03*
X56665D02*
D03*
X63535Y42000D02*
D03*
X62865D02*
D03*
X55665Y34800D02*
D03*
X56335D02*
D03*
D13*
X59800Y56665D02*
D03*
Y57335D02*
D03*
X53200Y42335D02*
D03*
Y41665D02*
D03*
X74800Y35335D02*
D03*
Y34665D02*
D03*
X74600Y43465D02*
D03*
Y44135D02*
D03*
X47400Y41665D02*
D03*
Y42335D02*
D03*
X38200Y44265D02*
D03*
Y44935D02*
D03*
X32200Y35735D02*
D03*
Y35065D02*
D03*
X34800Y32465D02*
D03*
Y33135D02*
D03*
X33600Y44265D02*
D03*
Y44935D02*
D03*
X36200Y44265D02*
D03*
Y44935D02*
D03*
X37200Y44265D02*
D03*
Y44935D02*
D03*
X37000Y32465D02*
D03*
Y33135D02*
D03*
X36000Y32465D02*
D03*
Y33135D02*
D03*
X33200Y35735D02*
D03*
Y35065D02*
D03*
X62400Y57335D02*
D03*
Y56665D02*
D03*
X35200Y44265D02*
D03*
Y44935D02*
D03*
X61200Y45665D02*
D03*
Y46335D02*
D03*
X59200Y48935D02*
D03*
Y48265D02*
D03*
X47400Y45065D02*
D03*
Y45735D02*
D03*
X50200Y48335D02*
D03*
Y47665D02*
D03*
X47400Y48335D02*
D03*
Y47665D02*
D03*
X64600Y46465D02*
D03*
Y47135D02*
D03*
X59200Y45735D02*
D03*
Y45065D02*
D03*
X60200Y45735D02*
D03*
Y45065D02*
D03*
X62800Y48935D02*
D03*
Y48265D02*
D03*
X61400Y48935D02*
D03*
Y48265D02*
D03*
X60400Y48935D02*
D03*
Y48265D02*
D03*
X60800Y35665D02*
D03*
Y36335D02*
D03*
X50000Y36465D02*
D03*
Y37135D02*
D03*
Y34135D02*
D03*
Y33465D02*
D03*
X47200Y34135D02*
D03*
Y33465D02*
D03*
Y36465D02*
D03*
Y37135D02*
D03*
X59200Y41935D02*
D03*
Y41265D02*
D03*
X58800Y57865D02*
D03*
Y58535D02*
D03*
X63000Y35665D02*
D03*
Y36335D02*
D03*
X62000Y35665D02*
D03*
Y36335D02*
D03*
X59200Y35665D02*
D03*
Y36335D02*
D03*
X32600Y44265D02*
D03*
Y44935D02*
D03*
X50200Y45065D02*
D03*
Y45735D02*
D03*
X60400Y41265D02*
D03*
Y41935D02*
D03*
X61800D02*
D03*
Y41265D02*
D03*
D38*
X56335Y34800D02*
X56400D01*
X55200D02*
X55665D01*
X60600Y45000D02*
X60700Y44900D01*
X59200Y45065D02*
X60200D01*
X60265Y45000D02*
X60600D01*
X60200Y45065D02*
X60265Y45000D01*
X56700Y57600D02*
X57265D01*
X58165Y58535D02*
X58800D01*
X58365Y57865D02*
X59335D01*
X57935Y57600D02*
X58100D01*
X58365Y57865D01*
X59835Y57335D02*
X60200Y57700D01*
X59800Y57335D02*
X59835D01*
X74800Y34100D02*
Y34665D01*
Y35200D02*
X75100Y35500D01*
X75800D01*
X74600Y44135D02*
Y44800D01*
X59200Y48935D02*
X59635D01*
X53535Y42335D02*
X53550Y42350D01*
X53200Y42335D02*
X53535D01*
X52665Y41665D02*
X53200D01*
X52500Y41500D02*
X52665Y41665D01*
X47665D02*
X47800Y41800D01*
X47400Y41665D02*
X47665D01*
X47368Y42732D02*
X47400Y42700D01*
Y42335D02*
Y42700D01*
X49527Y45107D02*
X49568Y45065D01*
X50200D01*
X49517Y45717D02*
X49535Y45735D01*
X50200D01*
X49517Y47883D02*
X49735Y47665D01*
X50200D01*
X49673Y48473D02*
X49812Y48335D01*
X50200D01*
X47965Y45735D02*
X47983Y45717D01*
X47400Y45735D02*
X47965D01*
X47400Y45065D02*
X47885D01*
X47400Y47665D02*
X47865D01*
X48083Y47883D01*
X47400Y48335D02*
X47815D01*
X47973Y48493D01*
X57335Y47400D02*
X57500D01*
X56200D02*
X56665D01*
X57935Y54335D02*
Y54800D01*
X57123Y41457D02*
X57265Y41600D01*
X57935Y40600D02*
X58400D01*
X57935Y39600D02*
X58400D01*
X57165Y39700D02*
X57265Y39600D01*
X57200Y37600D02*
X57265D01*
X57100Y36800D02*
X57265D01*
X57935Y38600D02*
X58400D01*
X57935Y37600D02*
X58400D01*
X57935Y36800D02*
X58400D01*
X57265Y35800D02*
Y35935D01*
X57935Y35765D02*
Y35800D01*
X60800Y35600D02*
X61100Y35300D01*
X60800Y35600D02*
Y35665D01*
X61700Y35300D02*
X62000Y35600D01*
Y35665D01*
Y36335D02*
Y36800D01*
X60800Y36335D02*
Y36800D01*
X62400Y37400D02*
X62865D01*
X62400Y40000D02*
X62865D01*
X62400Y42000D02*
X62865D01*
X62135Y41265D02*
X62400Y41000D01*
X61800Y41265D02*
X62135D01*
X62400Y41000D02*
X62865D01*
X60400Y40800D02*
Y41265D01*
X59200Y40800D02*
Y41265D01*
Y41935D02*
Y42000D01*
X58800Y35400D02*
X59100Y35700D01*
X37000Y33135D02*
X37029D01*
X37300Y33406D01*
X35865Y33135D02*
X36000D01*
X37000Y32000D02*
Y32465D01*
X36000Y32000D02*
Y32465D01*
X34800Y32000D02*
Y32465D01*
Y33135D02*
X35035D01*
X35200Y33300D01*
X39200Y37500D02*
X39665Y37035D01*
Y37000D02*
Y37035D01*
X38065Y34200D02*
Y34335D01*
X37700Y34700D02*
X38065Y34335D01*
X38735Y34200D02*
Y34335D01*
X40335Y34400D02*
Y34635D01*
X40700Y35000D01*
X38735Y34335D02*
X39200Y34800D01*
X39600Y34400D01*
X39665D01*
X49300Y34300D02*
X49465Y34135D01*
X50000D01*
X47200D02*
X47635D01*
X47800Y34300D01*
X49300Y36330D02*
X49435Y36465D01*
X50000D01*
X49300Y37100D02*
X49335Y37135D01*
X50000D01*
X47200D02*
X47865D01*
X47900Y37100D01*
X47200Y36465D02*
X47665D01*
X47800Y36330D01*
X49300Y33300D02*
X49465Y33465D01*
X50000D01*
X47200D02*
X47735D01*
X47900Y33300D01*
X57935Y41135D02*
Y41600D01*
X59200Y36335D02*
Y36800D01*
X62800Y48935D02*
Y49400D01*
X61400Y48935D02*
Y49400D01*
X60400Y48935D02*
Y49400D01*
X63000Y36335D02*
X63435D01*
X35600Y33400D02*
X35865Y33135D01*
X74600Y42900D02*
Y43465D01*
X30200Y40000D02*
Y40300D01*
X30400Y40500D01*
X31135Y40400D02*
X31600D01*
X30800Y39000D02*
X30865D01*
X30500Y39300D02*
X30800Y39000D01*
X29500Y38900D02*
X30294Y39694D01*
X30894D01*
X30900Y39700D01*
X29500Y34300D02*
Y38900D01*
X57935Y53800D02*
X58400D01*
X57935Y52800D02*
X58400D01*
X57000Y54300D02*
X57265Y54035D01*
X56800Y53800D02*
X57265D01*
Y54035D01*
X56800Y54300D02*
X57000D01*
X56900Y54800D02*
X57200D01*
X59800Y56200D02*
Y56665D01*
X62300Y56200D02*
X62400Y56300D01*
Y56665D01*
Y57335D02*
X62835D01*
X64465Y55400D02*
Y55835D01*
X65135Y54865D02*
X65200Y54800D01*
X65135Y54865D02*
Y55400D01*
X62400Y54200D02*
X62865D01*
X63535D02*
X64000D01*
X63500Y53200D02*
X64000D01*
X62500D02*
X62865D01*
X62200Y51600D02*
X62665D01*
X63400D02*
X63692Y51892D01*
X66335Y48400D02*
X66800D01*
X65165D02*
X65565D01*
X64600Y47135D02*
Y47600D01*
Y46000D02*
Y46465D01*
X60200Y45735D02*
Y46200D01*
X61200Y45665D02*
X61665D01*
X62800Y47800D02*
Y48265D01*
X61400Y47900D02*
X61483Y47817D01*
X61400Y47900D02*
Y48265D01*
X60302Y47802D02*
X60400Y47900D01*
Y48265D01*
X58600Y47900D02*
X58835D01*
X59200Y48265D01*
X57935Y48800D02*
X58400D01*
X57935Y49800D02*
X58400D01*
X57265D02*
Y49935D01*
X56900Y50300D02*
X57265Y49935D01*
X56800Y50800D02*
X57100D01*
X57200Y50700D01*
X57935Y50800D02*
X58400D01*
X56900Y51400D02*
X57265Y51765D01*
X57935Y51800D02*
X58500D01*
X56900Y49100D02*
X57200Y48800D01*
X30100Y42400D02*
X30465Y42765D01*
X31135Y42800D02*
X31600D01*
X31135Y41600D02*
X31600D01*
X30333Y41732D02*
X30465Y41600D01*
X30333Y41732D02*
Y42067D01*
X31535Y39000D02*
X32100D01*
X31135Y38000D02*
X31600D01*
X30100Y37700D02*
X30400Y38000D01*
X30222Y37244D02*
X30465Y37000D01*
X30222Y37244D02*
Y37278D01*
X31135Y37000D02*
X31600D01*
X32200Y35735D02*
Y36200D01*
X32235Y35065D02*
X32600Y34700D01*
X31135Y35000D02*
Y35435D01*
X30080Y34980D02*
X30446D01*
X30465Y35000D01*
X33200Y35735D02*
Y36200D01*
X40335Y37035D02*
X40700Y37400D01*
X40600Y37900D02*
X40700D01*
X40500Y38000D02*
X40600Y37900D01*
X40335Y38000D02*
X40500D01*
X39200D02*
X39665D01*
X40400Y39200D02*
X40708Y39508D01*
X40500Y40200D02*
X40700Y40000D01*
X40335Y40200D02*
X40500D01*
X39200D02*
X39665D01*
X40400Y41800D02*
X40700Y42100D01*
X39200Y41800D02*
X39665D01*
X39200Y42800D02*
X39665D01*
X40500D02*
X40700Y42600D01*
X40335Y42800D02*
X40500D01*
X37800Y43900D02*
X38138Y44238D01*
X37200Y43900D02*
Y44265D01*
X37835Y44935D02*
X38100D01*
X37200Y45000D02*
X37500Y45300D01*
X35900Y45235D02*
X36200Y44935D01*
X35900Y45235D02*
Y45300D01*
X36200Y43800D02*
Y44265D01*
X35200Y43800D02*
Y44265D01*
Y44935D02*
Y45100D01*
X35400Y45300D01*
X33600Y43800D02*
Y44265D01*
X32600Y43800D02*
Y44265D01*
Y44935D02*
X32800Y45135D01*
Y45300D01*
X33235D02*
X33600Y44935D01*
X33200Y45300D02*
X33235D01*
X63535Y42000D02*
X63900D01*
X63535Y41000D02*
X63900D01*
X63535Y40000D02*
X63900D01*
X63535Y37400D02*
X63900D01*
X63976Y37324D01*
X62900Y35200D02*
X63000Y35300D01*
Y35665D01*
X58800Y35200D02*
Y35400D01*
X57935Y35765D02*
X58333Y35367D01*
X56400Y34800D02*
X56800Y35200D01*
X56700D02*
X56800D01*
X56861Y36339D02*
X57265Y35935D01*
X56773Y37127D02*
X57100Y36800D01*
X56800Y38000D02*
X57200Y37600D01*
X56798Y38702D02*
X56900Y38600D01*
X57265D01*
X56800Y39700D02*
X57165D01*
X56800Y40600D02*
X57265D01*
X56757Y41457D02*
X57123D01*
X59200Y42000D02*
X59500Y42300D01*
X57500Y47400D02*
X58100Y48000D01*
X39200Y39200D02*
X39665D01*
X60400Y41935D02*
X60435D01*
X60800Y42300D01*
X61800Y41935D02*
Y42400D01*
X40000Y31400D02*
X40100D01*
D40*
X64200Y31000D02*
X65400Y32200D01*
X38400Y31100D02*
X41200D01*
X42900Y31000D02*
X64200D01*
X42400Y31500D02*
X42900Y31000D01*
X41600Y31500D02*
X42400D01*
X41200Y31100D02*
X41600Y31500D01*
X38800Y32800D02*
X41900D01*
X43300Y31400D01*
X63300D01*
X66000Y34100D01*
X52100Y34400D02*
X53900D01*
X50400Y32700D02*
X52100Y34400D01*
X40735Y45935D02*
X40735Y45935D01*
X41200D01*
X40700Y44900D02*
X41065Y45265D01*
X41200D01*
X33000Y34700D02*
X33200Y34900D01*
Y35065D01*
X30077Y44823D02*
X30100Y44800D01*
X23250Y44250D02*
X23300Y44200D01*
X30300D01*
X24350Y45250D02*
X25100Y44500D01*
X23250Y45250D02*
X24350D01*
X25100Y44500D02*
X31000D01*
X24000Y45750D02*
X28050D01*
X28100Y45800D01*
X29400Y45200D02*
X31423D01*
X28350Y46250D02*
X29400Y45200D01*
X31423D02*
X31561Y45061D01*
X23250Y46250D02*
X28350D01*
X29700Y45500D02*
X31700D01*
X27450Y47750D02*
X29700Y45500D01*
X24000Y47750D02*
X27450D01*
X31700Y45500D02*
X31955Y45245D01*
X27350Y48250D02*
X28600Y47000D01*
X31700D01*
X23250Y48250D02*
X27350D01*
X29000Y47900D02*
X32000D01*
X27150Y49750D02*
X29000Y47900D01*
X24000Y49750D02*
X27150D01*
X32000Y47900D02*
X32546Y47354D01*
X56800Y52700D02*
X56900Y52800D01*
X57265D01*
X61200Y46335D02*
X61365Y46500D01*
X53300Y48300D02*
X57300D01*
X53000Y48600D02*
X53300Y48300D01*
X52200Y48600D02*
X53000D01*
X51800Y49000D02*
X52200Y48600D01*
X50600Y49000D02*
X51800D01*
X50200Y49400D02*
X50600Y49000D01*
X57300Y48300D02*
X57400Y48200D01*
X33800Y50200D02*
X35600Y48400D01*
X24000Y50200D02*
X33800D01*
X23400Y50800D02*
X24000Y50200D01*
X23100Y50800D02*
X23400D01*
X22650Y51250D02*
X23100Y50800D01*
X35600Y48400D02*
X39400D01*
X35700Y47900D02*
X39400D01*
X33900Y49700D02*
X35700Y47900D01*
X39400D02*
X40900Y46400D01*
X28100Y49700D02*
X33900D01*
X39400Y48400D02*
X41900Y45900D01*
X21750Y51250D02*
X22650D01*
X34000Y50500D02*
X35700Y48800D01*
X25200Y50500D02*
X34000D01*
X24400Y51300D02*
X25200Y50500D01*
X23800Y51300D02*
X24400D01*
X23400Y51700D02*
X23800Y51300D01*
X23100Y51700D02*
X23400D01*
X22550Y52250D02*
X23100Y51700D01*
X59900Y33900D02*
Y35900D01*
X59300Y33300D02*
X59900Y33900D01*
X55800Y33300D02*
X59300D01*
X54300Y34800D02*
X55800Y33300D01*
X49800Y34800D02*
X54300D01*
X49600Y34600D02*
X49800Y34800D01*
X43200Y34600D02*
X49600D01*
X41900Y35900D02*
X43200Y34600D01*
X39000Y35900D02*
X41900D01*
X37100Y37800D02*
X39000Y35900D01*
X36300Y35300D02*
X38800Y32800D01*
X34400Y35200D02*
X34500Y35300D01*
X36300D01*
X66000Y34100D02*
Y38400D01*
X34000Y36500D02*
X35300Y37800D01*
X59900Y35900D02*
X60000Y36000D01*
X35300Y37800D02*
X37100D01*
X34500Y45300D02*
X35300Y46100D01*
X38400D01*
X60800Y55500D02*
X61400Y56100D01*
X39400Y49800D02*
X40000Y49200D01*
X40700D01*
X43200Y46700D01*
Y44600D02*
Y46700D01*
X42200Y43600D02*
X43200Y44600D01*
X39400Y43600D02*
X42200D01*
X36700Y40900D02*
X39400Y43600D01*
X35000Y40900D02*
X36700D01*
X40900Y49800D02*
X43600Y47100D01*
Y43300D02*
Y47100D01*
X41200Y40900D02*
X43600Y43300D01*
X37500Y40900D02*
X41200D01*
X36900Y40300D02*
X37500Y40900D01*
X35100Y40300D02*
X36900D01*
X44000Y42500D02*
Y47500D01*
X42100Y40600D02*
X44000Y42500D01*
X38000Y40600D02*
X42100D01*
X37000Y39600D02*
X38000Y40600D01*
X35100Y39600D02*
X37000D01*
X32400Y38300D02*
X35000Y40900D01*
X38800Y49800D02*
X39400D01*
X32800Y38000D02*
X35100Y40300D01*
X40400Y49800D02*
X40900D01*
X33200Y37700D02*
X35100Y39600D01*
X41700Y49800D02*
X44000Y47500D01*
X35300Y39000D02*
X38400D01*
X38800Y38600D01*
X42300D01*
X44500Y40800D01*
Y48400D01*
X33900Y37600D02*
X35300Y39000D01*
X43100Y49800D02*
X44500Y48400D01*
X61365Y46500D02*
X61572D01*
X56855Y54845D02*
X56900Y54800D01*
X57200D02*
X57265D01*
X62400Y53200D02*
X62500D01*
X63335Y51600D02*
X63400D01*
X59200Y45735D02*
X60200D01*
X56902Y51302D02*
X56950Y51350D01*
X57265Y51765D02*
Y51800D01*
X57200Y48800D02*
X57265D01*
X30465Y42765D02*
Y42800D01*
X30400Y38000D02*
X30465D01*
Y37000D02*
Y37035D01*
X30200Y37300D02*
X30222Y37278D01*
X32200Y35065D02*
X32235D01*
X30080Y34980D02*
X30100Y35000D01*
X40335Y37000D02*
Y37035D01*
Y39200D02*
X40400D01*
X40335Y41800D02*
X40400D01*
X38138Y44238D02*
X38165Y44265D01*
X38200D01*
X37200Y43800D02*
Y43900D01*
X38100Y44935D02*
X38200D01*
X37200D02*
Y45000D01*
X36200Y44935D02*
Y45000D01*
X33565Y44935D02*
X33600D01*
X47800Y49700D02*
X53600Y55500D01*
X60800D01*
X23250Y47250D02*
X26550D01*
X26600Y47200D01*
X23250Y49250D02*
X26950D01*
X28600Y47600D02*
X31700D01*
X26950Y49250D02*
X28600Y47600D01*
X31700D02*
X32100Y47200D01*
X21750Y52250D02*
X22550D01*
X39400Y48800D02*
X42300Y45900D01*
X42400D01*
X35700Y48800D02*
X39400D01*
X34500Y44800D02*
Y45300D01*
X38400Y46100D02*
X39000Y46700D01*
X46100Y49700D02*
X47800D01*
X61400Y56100D02*
Y56300D01*
X82700Y34300D02*
Y33700D01*
X83100D01*
X83300D02*
Y34100D01*
X83500Y34300D01*
X83700Y34100D01*
Y33700D01*
Y34000D01*
X83300D01*
X83900Y34300D02*
Y34200D01*
X84100Y34000D01*
X84299Y34200D01*
Y34300D01*
X84100Y34000D02*
Y33700D01*
X84899Y34300D02*
X84499D01*
Y33700D01*
X84899D01*
X84499Y34000D02*
X84699D01*
X85099Y33700D02*
Y34300D01*
X85399D01*
X85499Y34200D01*
Y34000D01*
X85399Y33900D01*
X85099D01*
X85299D02*
X85499Y33700D01*
X86699Y34300D02*
X86499Y34200D01*
X86299Y34000D01*
Y33800D01*
X86399Y33700D01*
X86599D01*
X86699Y33800D01*
Y33900D01*
X86599Y34000D01*
X86299D01*
D44*
X75800Y40500D02*
D03*
Y41500D02*
D03*
Y39500D02*
D03*
Y38500D02*
D03*
X78800Y41500D02*
D03*
Y38500D02*
D03*
Y34500D02*
D03*
Y37500D02*
D03*
X75800Y34500D02*
D03*
Y35500D02*
D03*
Y37500D02*
D03*
Y36500D02*
D03*
D45*
X69600Y50800D02*
D03*
X68600D02*
D03*
X69600Y51800D02*
D03*
X68600D02*
D03*
X69600Y52800D02*
D03*
X68600D02*
D03*
X69600Y53800D02*
D03*
X68600D02*
D03*
X69600Y54800D02*
D03*
X68600D02*
D03*
X69600Y55800D02*
D03*
X68600D02*
D03*
X69600Y56800D02*
D03*
X69400Y39800D02*
D03*
X68400D02*
D03*
X69400Y40800D02*
D03*
X68400D02*
D03*
X69400Y41800D02*
D03*
X68400D02*
D03*
X69400Y42800D02*
D03*
X68400D02*
D03*
X69400Y43800D02*
D03*
X68400D02*
D03*
X69400Y44800D02*
D03*
X68400D02*
D03*
X69400Y45800D02*
D03*
D46*
X68600Y56800D02*
D03*
X68400Y45800D02*
D03*
D47*
X21750Y54710D02*
D03*
Y35290D02*
D03*
Y53250D02*
D03*
X22500Y52750D02*
D03*
X21750Y52250D02*
D03*
X22500Y51750D02*
D03*
X21750Y51250D02*
D03*
X22500Y50750D02*
D03*
X21750Y50250D02*
D03*
X22500Y49750D02*
D03*
X21750Y49250D02*
D03*
X22500Y48750D02*
D03*
X21750Y48250D02*
D03*
X22500Y47750D02*
D03*
X21750Y47250D02*
D03*
X22500Y46750D02*
D03*
X21750Y46250D02*
D03*
X22500Y45750D02*
D03*
X21750Y45250D02*
D03*
X22500Y44750D02*
D03*
X21750Y44250D02*
D03*
X22500Y43750D02*
D03*
X21750Y43250D02*
D03*
X22500Y42750D02*
D03*
X21750Y42250D02*
D03*
X22500Y41750D02*
D03*
X21750Y41250D02*
D03*
X22500Y40750D02*
D03*
X21750Y40250D02*
D03*
X22500Y39750D02*
D03*
X21750Y39250D02*
D03*
X22500Y38750D02*
D03*
X21750Y38250D02*
D03*
X22500Y37750D02*
D03*
X21750Y37250D02*
D03*
X22500Y36750D02*
D03*
X23250Y53250D02*
D03*
X24000Y52750D02*
D03*
X23250Y52250D02*
D03*
X24000Y51750D02*
D03*
X23250Y51250D02*
D03*
X24000Y50750D02*
D03*
X23250Y50250D02*
D03*
X24000Y49750D02*
D03*
X23250Y49250D02*
D03*
X24000Y48750D02*
D03*
X23250Y48250D02*
D03*
X24000Y47750D02*
D03*
X23250Y47250D02*
D03*
X24000Y46750D02*
D03*
X23250Y46250D02*
D03*
X24000Y45750D02*
D03*
X23250Y45250D02*
D03*
X24000Y44750D02*
D03*
X23250Y44250D02*
D03*
X24000Y43750D02*
D03*
X23250Y43250D02*
D03*
X24000Y42750D02*
D03*
X23250Y42250D02*
D03*
X24000Y41750D02*
D03*
X23250Y41250D02*
D03*
X24000Y40750D02*
D03*
X23250Y40250D02*
D03*
X24000Y39750D02*
D03*
X23250Y39250D02*
D03*
X24000Y38750D02*
D03*
X23250Y38250D02*
D03*
X24000Y37750D02*
D03*
X23250Y37250D02*
D03*
X24000Y36750D02*
D03*
D48*
X22500Y57500D02*
D03*
Y32500D02*
D03*
X77500D02*
D03*
D49*
Y57500D02*
D03*
D50*
X40900Y53600D02*
D03*
X39900D02*
D03*
X44300D02*
D03*
X43300D02*
D03*
X47500D02*
D03*
X46500D02*
D03*
X50700D02*
D03*
X49700D02*
D03*
D51*
X26000Y54700D02*
D03*
X31600Y52800D02*
D03*
X33100Y52100D02*
D03*
X33940Y51440D02*
D03*
X36214Y53286D02*
D03*
X35600Y55200D02*
D03*
X36900Y55300D02*
D03*
X35600Y52200D02*
D03*
X36460Y51340D02*
D03*
X37400Y52200D02*
D03*
X61700Y44700D02*
D03*
X71400Y56200D02*
D03*
X72200Y54200D02*
D03*
X74900Y56000D02*
D03*
X73392Y55108D02*
D03*
X77951Y53649D02*
D03*
X75400Y55200D02*
D03*
X76000Y54400D02*
D03*
X74061Y53261D02*
D03*
D52*
X37486Y54586D02*
D03*
X65400Y32200D02*
D03*
X38400Y31100D02*
D03*
X35300Y38100D02*
D03*
X36519Y38619D02*
D03*
X55600Y35400D02*
D03*
X55200Y34800D02*
D03*
X53900Y34400D02*
D03*
X52400Y38100D02*
D03*
X57800Y35200D02*
D03*
X57200Y35300D02*
D03*
X45889Y39311D02*
D03*
X66000Y38400D02*
D03*
X60700Y44900D02*
D03*
X58727Y56927D02*
D03*
X56700Y57600D02*
D03*
X58165Y58535D02*
D03*
X59335Y57865D02*
D03*
X60200Y57700D02*
D03*
X59200Y56200D02*
D03*
X33900Y31500D02*
D03*
X76350Y43750D02*
D03*
X73400Y33900D02*
D03*
X74800Y34100D02*
D03*
X74400Y37200D02*
D03*
X78500Y44000D02*
D03*
X72100Y41800D02*
D03*
X72800Y43200D02*
D03*
X72950Y44250D02*
D03*
X74600Y44800D02*
D03*
Y42900D02*
D03*
X57400Y56500D02*
D03*
X59635Y48935D02*
D03*
X58700Y52200D02*
D03*
X57000Y52300D02*
D03*
X54950Y42850D02*
D03*
X53550Y42350D02*
D03*
X52500Y41500D02*
D03*
X48232Y39268D02*
D03*
X49268D02*
D03*
X47800Y41800D02*
D03*
X47368Y42732D02*
D03*
X32800Y45300D02*
D03*
X33200D02*
D03*
X32900Y46600D02*
D03*
X35400Y45300D02*
D03*
X35200Y43800D02*
D03*
X36200D02*
D03*
X35900Y45300D02*
D03*
X33600Y43800D02*
D03*
X32600D02*
D03*
X37500Y45300D02*
D03*
X37200Y43800D02*
D03*
X40735Y45935D02*
D03*
X40700Y44900D02*
D03*
Y42600D02*
D03*
Y42100D02*
D03*
X39200Y41800D02*
D03*
Y42800D02*
D03*
X42000Y42500D02*
D03*
X40620Y41280D02*
D03*
X40708Y39508D02*
D03*
X40700Y40000D02*
D03*
X42000D02*
D03*
X39200Y40200D02*
D03*
Y39200D02*
D03*
X40700Y37400D02*
D03*
Y37900D02*
D03*
X39200Y38000D02*
D03*
X42000Y37600D02*
D03*
X40700Y35000D02*
D03*
X40400Y33420D02*
D03*
X37700Y34700D02*
D03*
X33000D02*
D03*
X32600D02*
D03*
X32800Y33400D02*
D03*
X30080Y34980D02*
D03*
X33200Y36200D02*
D03*
X32200D02*
D03*
X31135Y35435D02*
D03*
X30380Y33480D02*
D03*
X30200Y37300D02*
D03*
X30100Y37700D02*
D03*
X31600Y37000D02*
D03*
Y38000D02*
D03*
X28800Y37400D02*
D03*
Y39700D02*
D03*
X30083Y41083D02*
D03*
X30333Y42067D02*
D03*
X30100Y42400D02*
D03*
X31600Y42800D02*
D03*
Y41600D02*
D03*
X28800Y42300D02*
D03*
X30077Y44823D02*
D03*
X30035Y45935D02*
D03*
X25000Y36300D02*
D03*
X25300Y36700D02*
D03*
X25700Y37100D02*
D03*
X26100Y37600D02*
D03*
X26500Y38000D02*
D03*
X26900Y38300D02*
D03*
X27400Y38000D02*
D03*
X28000Y37800D02*
D03*
X28430Y38130D02*
D03*
X28700Y38600D02*
D03*
X30300Y38500D02*
D03*
X30100Y38900D02*
D03*
X32100Y39000D02*
D03*
X28500Y40000D02*
D03*
X30300Y44200D02*
D03*
X31000Y44500D02*
D03*
X28100Y45800D02*
D03*
X31561Y45061D02*
D03*
X26600Y47200D02*
D03*
X31955Y45245D02*
D03*
X31700Y47000D02*
D03*
X32100Y47200D02*
D03*
X32546Y47354D02*
D03*
X33000Y47200D02*
D03*
X33200Y47700D02*
D03*
X34120Y45220D02*
D03*
X33727Y47673D02*
D03*
X34200Y47400D02*
D03*
X56855Y54845D02*
D03*
X56800Y54300D02*
D03*
Y53800D02*
D03*
Y52700D02*
D03*
X55600Y53300D02*
D03*
X55500Y52500D02*
D03*
X56902Y51302D02*
D03*
X55600Y51300D02*
D03*
X56900Y50300D02*
D03*
X55600Y49630D02*
D03*
X56900Y49100D02*
D03*
X56800Y48600D02*
D03*
X58400Y48800D02*
D03*
Y49800D02*
D03*
Y50800D02*
D03*
X56800D02*
D03*
X58400Y51800D02*
D03*
Y52800D02*
D03*
Y53800D02*
D03*
X59800Y56200D02*
D03*
X58600Y47900D02*
D03*
X58100Y48000D02*
D03*
X60302Y47802D02*
D03*
X61483Y47817D02*
D03*
X61572Y46500D02*
D03*
X60600Y46600D02*
D03*
X62000Y46500D02*
D03*
X62800Y47800D02*
D03*
X63845Y47855D02*
D03*
X64600Y47600D02*
D03*
Y46000D02*
D03*
X61665Y45665D02*
D03*
X65200Y48400D02*
D03*
X66800D02*
D03*
X64054Y48546D02*
D03*
X65176Y49924D02*
D03*
X63900Y50200D02*
D03*
X65202Y51302D02*
D03*
X64000Y51600D02*
D03*
X65183Y52483D02*
D03*
X64000Y53200D02*
D03*
X65130Y53270D02*
D03*
X62400Y53200D02*
D03*
Y54200D02*
D03*
X65200Y54300D02*
D03*
X64000Y54200D02*
D03*
X65200Y54800D02*
D03*
X63000Y54900D02*
D03*
X62900Y56200D02*
D03*
X62300D02*
D03*
X62835Y57335D02*
D03*
X63648Y54752D02*
D03*
X61900Y56200D02*
D03*
X62100Y54800D02*
D03*
X64465Y55835D02*
D03*
X61089Y54811D02*
D03*
X60300Y56200D02*
D03*
X52400Y46600D02*
D03*
X51700Y46200D02*
D03*
Y45400D02*
D03*
Y44600D02*
D03*
Y43800D02*
D03*
Y47000D02*
D03*
X52400Y47400D02*
D03*
X51700Y47800D02*
D03*
X51600Y48600D02*
D03*
Y49400D02*
D03*
X52400Y44200D02*
D03*
Y45000D02*
D03*
Y45800D02*
D03*
Y48200D02*
D03*
Y49000D02*
D03*
X36680Y45120D02*
D03*
X35700Y47400D02*
D03*
X36100D02*
D03*
X36500D02*
D03*
X36900D02*
D03*
X37300D02*
D03*
X37700D02*
D03*
X38100D02*
D03*
X38200Y47000D02*
D03*
X37800Y43900D02*
D03*
X37835Y44935D02*
D03*
X38900Y43600D02*
D03*
X39200Y43900D02*
D03*
X39500Y44200D02*
D03*
X42000Y46600D02*
D03*
X37200Y42900D02*
D03*
X38200Y43300D02*
D03*
X40000Y45300D02*
D03*
Y44800D02*
D03*
X49517Y45717D02*
D03*
X49527Y45107D02*
D03*
X49517Y47883D02*
D03*
X49673Y48473D02*
D03*
X49400Y46800D02*
D03*
X48000D02*
D03*
X47983Y45717D02*
D03*
X47927Y45107D02*
D03*
X47973Y48493D02*
D03*
X48083Y47883D02*
D03*
X45400Y41100D02*
D03*
X57000Y48000D02*
D03*
X46500Y41500D02*
D03*
X55500Y47700D02*
D03*
X57400Y48200D02*
D03*
X52100Y50200D02*
D03*
X50200Y49400D02*
D03*
X56200Y47400D02*
D03*
X34700Y48300D02*
D03*
X34300Y48100D02*
D03*
X56955Y56155D02*
D03*
X58000Y56800D02*
D03*
X58200Y56400D02*
D03*
X57935Y54335D02*
D03*
X59800Y53400D02*
D03*
X59000Y53700D02*
D03*
X60700Y53300D02*
D03*
X56757Y41457D02*
D03*
X55600Y41400D02*
D03*
X55648Y42048D02*
D03*
X55600Y40700D02*
D03*
X56800Y40600D02*
D03*
X58400D02*
D03*
Y39600D02*
D03*
X55600Y39900D02*
D03*
X56800Y39700D02*
D03*
X55600Y38700D02*
D03*
X56798Y38702D02*
D03*
X56800Y38000D02*
D03*
X56773Y37127D02*
D03*
X58400Y38600D02*
D03*
Y37600D02*
D03*
Y36800D02*
D03*
X55600Y37020D02*
D03*
X56861Y36339D02*
D03*
X56800Y35200D02*
D03*
X58333Y35367D02*
D03*
X58420Y34000D02*
D03*
X60302Y35198D02*
D03*
X60498Y34002D02*
D03*
X61100Y35300D02*
D03*
X61700D02*
D03*
X62000Y36800D02*
D03*
X60800D02*
D03*
X61500Y34000D02*
D03*
X62900Y35200D02*
D03*
X63845Y35755D02*
D03*
X63100Y34000D02*
D03*
X65200Y35700D02*
D03*
X64573Y35027D02*
D03*
X63976Y37324D02*
D03*
X65100Y37600D02*
D03*
X62400Y37400D02*
D03*
X65098Y38702D02*
D03*
X64000Y39000D02*
D03*
X65192Y39292D02*
D03*
X65186Y39686D02*
D03*
X63900Y40000D02*
D03*
X62400D02*
D03*
X65200Y40900D02*
D03*
Y41700D02*
D03*
X63900Y41000D02*
D03*
X62400D02*
D03*
X63900Y42000D02*
D03*
X62400D02*
D03*
X63500Y42400D02*
D03*
X63700Y43600D02*
D03*
X62900D02*
D03*
X61800Y42400D02*
D03*
X62400D02*
D03*
X62100Y43600D02*
D03*
X60000Y42300D02*
D03*
X60800D02*
D03*
X60400Y40800D02*
D03*
X59200D02*
D03*
X59500Y42300D02*
D03*
X59200Y43600D02*
D03*
X60105Y43595D02*
D03*
X61089Y43589D02*
D03*
X56855Y42245D02*
D03*
X56627Y42973D02*
D03*
X57546Y42346D02*
D03*
X58800Y35200D02*
D03*
X59600D02*
D03*
X52600Y33300D02*
D03*
X52000Y33600D02*
D03*
Y33000D02*
D03*
X52600Y32600D02*
D03*
X52000Y32300D02*
D03*
X52600Y32000D02*
D03*
X52000Y31700D02*
D03*
X52600Y33900D02*
D03*
Y35300D02*
D03*
X52000Y35600D02*
D03*
X52600Y35900D02*
D03*
X52000Y36200D02*
D03*
X52600Y36500D02*
D03*
X52000Y36800D02*
D03*
X55300Y38200D02*
D03*
X52600Y37100D02*
D03*
X52000Y37400D02*
D03*
X40100Y31400D02*
D03*
X39600Y31600D02*
D03*
X39200Y31800D02*
D03*
X38700Y32000D02*
D03*
X38300Y32300D02*
D03*
X37900Y32600D02*
D03*
X35200Y33300D02*
D03*
X35600Y33400D02*
D03*
X35200Y34700D02*
D03*
X37300Y33406D02*
D03*
X37000Y32000D02*
D03*
X36000D02*
D03*
X34800D02*
D03*
X36483Y33417D02*
D03*
X37700Y33100D02*
D03*
X39200Y34800D02*
D03*
X36000Y37400D02*
D03*
X39200Y37500D02*
D03*
X36400Y37100D02*
D03*
X36700Y36800D02*
D03*
X37100Y36500D02*
D03*
X37400Y36200D02*
D03*
X37700Y35900D02*
D03*
X38100Y35600D02*
D03*
X38400Y35200D02*
D03*
X48000Y49400D02*
D03*
X47800Y34300D02*
D03*
X49300D02*
D03*
X47800Y34900D02*
D03*
X49300Y35000D02*
D03*
X47700Y37800D02*
D03*
X49300Y36330D02*
D03*
Y37100D02*
D03*
X47900D02*
D03*
X47800Y36330D02*
D03*
X41800Y31100D02*
D03*
X41000Y31500D02*
D03*
X49300Y33300D02*
D03*
X47900D02*
D03*
X57743Y43543D02*
D03*
X57939Y42161D02*
D03*
X58300Y43600D02*
D03*
X65700Y43700D02*
D03*
X57935Y41135D02*
D03*
X58500Y41200D02*
D03*
X58700Y41800D02*
D03*
X66200Y41200D02*
D03*
X50400Y32700D02*
D03*
X59200Y36800D02*
D03*
X31200Y54500D02*
D03*
X27646Y56754D02*
D03*
X27642Y56242D02*
D03*
X27630Y55730D02*
D03*
X26051Y55849D02*
D03*
X26800Y57500D02*
D03*
X25949Y56951D02*
D03*
X27700Y54100D02*
D03*
X29200Y57200D02*
D03*
X62800Y49400D02*
D03*
X61400D02*
D03*
X60400D02*
D03*
X63435Y36335D02*
D03*
X38057Y46557D02*
D03*
X40900Y46400D02*
D03*
X28100Y49700D02*
D03*
X41900Y45900D02*
D03*
X29300Y46500D02*
D03*
X33924Y33324D02*
D03*
X60000Y36000D02*
D03*
X34400Y35200D02*
D03*
X34000Y36500D02*
D03*
X34500Y44800D02*
D03*
X39000Y46700D02*
D03*
X46100Y49700D02*
D03*
X61400Y56300D02*
D03*
X26400Y34000D02*
D03*
X29000Y31600D02*
D03*
X27900D02*
D03*
X29500Y34300D02*
D03*
X30200Y40000D02*
D03*
X31600Y40400D02*
D03*
X30500Y39300D02*
D03*
X30900Y39700D02*
D03*
X38800Y49800D02*
D03*
X41700D02*
D03*
X43100D02*
D03*
X40400D02*
D03*
X32400Y38300D02*
D03*
X32800Y38000D02*
D03*
X33200Y37700D02*
D03*
X33900Y37600D02*
D03*
X55511Y50711D02*
D03*
X63600Y56200D02*
D03*
X60800Y56284D02*
D03*
X59600Y54800D02*
D03*
X55600Y54400D02*
D03*
X60200Y46200D02*
D03*
X63000Y46600D02*
D03*
X63692Y51892D02*
D03*
X62200Y51600D02*
D03*
X64000Y52200D02*
D03*
X55900Y46800D02*
D03*
X55600Y36250D02*
D03*
X35400Y46700D02*
D03*
X59000Y46600D02*
D03*
X60500Y32400D02*
D03*
X63000D02*
D03*
X62391Y33191D02*
D03*
X66600Y34700D02*
D03*
X67291Y35409D02*
D03*
X67391Y36591D02*
D03*
X66600Y37200D02*
D03*
X65809Y42009D02*
D03*
X65900Y42900D02*
D03*
X67391Y42009D02*
D03*
X65809Y45809D02*
D03*
X65909Y46991D02*
D03*
X66400Y54600D02*
D03*
X67500Y54900D02*
D03*
X66109Y56391D02*
D03*
X53700Y53200D02*
D03*
X55100Y53000D02*
D03*
X53709Y54391D02*
D03*
X54900Y39900D02*
D03*
X54708Y39292D02*
D03*
X53600Y38500D02*
D03*
X54391Y40391D02*
D03*
X52900Y40400D02*
D03*
X41200Y33300D02*
D03*
X44000Y32700D02*
D03*
X31009Y31709D02*
D03*
X30400Y32400D02*
D03*
X32900D02*
D03*
X50000Y50600D02*
D03*
X47600D02*
D03*
X49800Y31800D02*
D03*
X47400D02*
D03*
X29409Y47309D02*
D03*
X30591D02*
D03*
X42400Y45900D02*
D03*
X42700Y46800D02*
D03*
X40900Y48000D02*
D03*
M02*
