%FSLAX24Y24*%
%MOIN*%
G70*
G01*
G75*
G04 Layer_Physical_Order=1*
G04 Layer_Color=255*
%ADD10R,0.0276X0.0354*%
%ADD11R,0.0630X0.0118*%
%ADD12R,0.0118X0.0630*%
%ADD13R,0.0728X0.0118*%
%ADD14R,0.0118X0.0728*%
%ADD15R,0.0787X0.0866*%
%ADD16R,0.0807X0.0236*%
%ADD17R,0.0866X0.0787*%
%ADD18R,0.0354X0.0276*%
%ADD19R,0.0787X0.0551*%
%ADD20R,0.1500X0.0500*%
%ADD21R,0.3000X0.2900*%
%ADD22R,0.0630X0.0709*%
%ADD23R,0.0709X0.0630*%
%ADD24R,0.1024X0.0945*%
%ADD25R,0.0197X0.0748*%
%ADD26R,0.0748X0.0197*%
%ADD27R,0.0394X0.0433*%
%ADD28R,0.0433X0.0394*%
%ADD29R,0.0512X0.0630*%
%ADD30R,0.0827X0.0354*%
%ADD31R,0.0827X0.0354*%
%ADD32R,0.1732X0.1441*%
%ADD33C,0.0100*%
%ADD34C,0.0080*%
%ADD35C,0.0200*%
%ADD36C,0.0160*%
%ADD37C,0.0090*%
%ADD38C,0.0600*%
%ADD39R,0.0591X0.0591*%
%ADD40C,0.0591*%
%ADD41C,0.1732*%
%ADD42C,0.1732*%
%ADD43C,0.0500*%
%ADD44C,0.0800*%
%ADD45C,0.0250*%
%ADD46C,0.0350*%
G36*
X39681Y49854D02*
X39615Y49788D01*
X39589Y49748D01*
X39579Y49702D01*
Y48369D01*
X37586D01*
Y47935D01*
Y47501D01*
X38548D01*
X38570Y47468D01*
X38576Y47457D01*
X38534Y47393D01*
X38519Y47317D01*
X38534Y47241D01*
X38577Y47177D01*
X38641Y47134D01*
X38717Y47119D01*
X38793Y47134D01*
X38858Y47177D01*
X38901Y47241D01*
X38916Y47317D01*
X38901Y47393D01*
X38858Y47458D01*
X38840Y47470D01*
Y47501D01*
X38999D01*
Y47389D01*
X38999Y47389D01*
X39007Y47346D01*
X39010Y47343D01*
X39001Y47300D01*
X39016Y47224D01*
X39059Y47159D01*
X39124Y47116D01*
X39200Y47101D01*
X39276Y47116D01*
X39341Y47159D01*
X39353Y47178D01*
X39900D01*
X39947Y47187D01*
X39987Y47213D01*
X40172Y47399D01*
X40216Y47375D01*
X40201Y47300D01*
X40216Y47224D01*
X40259Y47159D01*
X40324Y47116D01*
X40400Y47101D01*
X40476Y47116D01*
X40541Y47159D01*
X40584Y47224D01*
X40599Y47300D01*
X40593Y47329D01*
X40602Y47342D01*
X40611Y47389D01*
Y47501D01*
X41620D01*
Y47935D01*
X41720D01*
Y47501D01*
X42964D01*
X42978Y47453D01*
X42959Y47441D01*
X42916Y47376D01*
X42901Y47300D01*
X42916Y47224D01*
X42959Y47159D01*
X43024Y47116D01*
X43100Y47101D01*
X43176Y47116D01*
X43241Y47159D01*
X43253Y47178D01*
X43300D01*
X43347Y47187D01*
X43387Y47213D01*
X43528Y47355D01*
X43555Y47395D01*
X43564Y47442D01*
Y47501D01*
X43658D01*
X43682Y47457D01*
X43652Y47412D01*
X43637Y47335D01*
X43652Y47259D01*
X43695Y47195D01*
X43759Y47152D01*
X43835Y47137D01*
X43912Y47152D01*
X43976Y47195D01*
X44019Y47259D01*
X44034Y47335D01*
X44019Y47412D01*
X43976Y47476D01*
X43958Y47488D01*
Y47501D01*
X44949D01*
Y47823D01*
X45035D01*
X45035Y47823D01*
X45078Y47831D01*
X45114Y47856D01*
X45166Y47908D01*
X45200Y47901D01*
X45276Y47916D01*
X45341Y47959D01*
X45384Y48024D01*
X45399Y48100D01*
X45384Y48176D01*
X45341Y48241D01*
X45276Y48284D01*
X45200Y48299D01*
X45124Y48284D01*
X45059Y48241D01*
X45016Y48176D01*
X45001Y48100D01*
X45001Y48099D01*
X44981Y48081D01*
X44949Y48093D01*
Y48369D01*
X44808D01*
X44788Y48415D01*
X44951Y48578D01*
X47300D01*
Y47768D01*
X47259Y47741D01*
X47216Y47676D01*
X47201Y47600D01*
X47216Y47524D01*
X47259Y47459D01*
X47300Y47432D01*
Y46748D01*
X46169D01*
Y46755D01*
Y46891D01*
Y47149D01*
X45852D01*
Y47209D01*
X45876Y47224D01*
X45919Y47289D01*
X45934Y47365D01*
X45919Y47441D01*
X45876Y47506D01*
X45811Y47549D01*
X45735Y47564D01*
X45659Y47549D01*
X45594Y47506D01*
X45551Y47441D01*
X45536Y47365D01*
X45551Y47289D01*
X45594Y47224D01*
X45618Y47209D01*
Y47149D01*
X45301D01*
Y47030D01*
X45255Y47011D01*
X45093Y47172D01*
X45099Y47200D01*
X45084Y47276D01*
X45041Y47341D01*
X44976Y47384D01*
X44900Y47399D01*
X44824Y47384D01*
X44759Y47341D01*
X44716Y47276D01*
X44701Y47200D01*
X44716Y47124D01*
X44759Y47059D01*
X44824Y47016D01*
X44900Y47001D01*
X44928Y47007D01*
X45194Y46740D01*
X45232Y46715D01*
X45277Y46706D01*
X45301D01*
Y46694D01*
Y46497D01*
Y46300D01*
Y46103D01*
Y46033D01*
X45257Y46009D01*
X45237Y46022D01*
X45161Y46037D01*
X45085Y46022D01*
X45021Y45979D01*
X44978Y45915D01*
X44963Y45839D01*
X44978Y45763D01*
X45021Y45698D01*
X45085Y45655D01*
X45161Y45640D01*
X45237Y45655D01*
X45257Y45668D01*
X45301Y45644D01*
Y45513D01*
Y45316D01*
Y45119D01*
Y44923D01*
X45255Y44904D01*
X44879Y45279D01*
X44843Y45304D01*
X44800Y45312D01*
X44800Y45312D01*
X42860D01*
X42841Y45341D01*
X42776Y45384D01*
X42700Y45399D01*
X42624Y45384D01*
X42559Y45341D01*
X42516Y45276D01*
X42501Y45200D01*
X42516Y45124D01*
X42559Y45059D01*
X42624Y45016D01*
X42700Y45001D01*
X42776Y45016D01*
X42841Y45059D01*
X42860Y45088D01*
X43528D01*
X43559Y45041D01*
X43516Y44976D01*
X43501Y44900D01*
X43516Y44824D01*
X43559Y44759D01*
X43624Y44716D01*
X43700Y44701D01*
X43776Y44716D01*
X43841Y44759D01*
X43884Y44824D01*
X43899Y44900D01*
X43884Y44976D01*
X43841Y45041D01*
X43776Y45084D01*
D01*
X43776D01*
Y45084D01*
D01*
D01*
Y45084D01*
X43776Y45084D01*
D01*
D01*
D01*
D01*
X43776Y45088D01*
X44754D01*
X45263Y44578D01*
X45263Y44578D01*
X45300Y44554D01*
X45301Y44554D01*
Y44528D01*
Y44332D01*
Y44135D01*
Y44117D01*
X45735D01*
Y44017D01*
X45301D01*
Y44043D01*
X45257Y44020D01*
X45206Y44054D01*
X45130Y44069D01*
X45054Y44054D01*
X44989Y44011D01*
X44946Y43946D01*
X44931Y43870D01*
X44946Y43794D01*
X44989Y43729D01*
X45054Y43686D01*
X45130Y43671D01*
X45206Y43686D01*
X45257Y43720D01*
X45301Y43697D01*
Y43544D01*
Y43347D01*
Y43212D01*
Y43205D01*
X45183D01*
X45136Y43196D01*
X45131Y43193D01*
X45100Y43199D01*
X45024Y43184D01*
X44959Y43141D01*
X44916Y43076D01*
X44901Y43000D01*
X44916Y42924D01*
X44959Y42859D01*
X45024Y42816D01*
X45100Y42801D01*
X45175Y42816D01*
X45199Y42772D01*
X45022Y42595D01*
X45000Y42599D01*
X44924Y42584D01*
X44859Y42541D01*
X44816Y42476D01*
X44801Y42400D01*
X44816Y42324D01*
X44859Y42259D01*
X44924Y42216D01*
X45000Y42201D01*
X45076Y42216D01*
X45141Y42259D01*
X45184Y42324D01*
X45199Y42400D01*
X45195Y42422D01*
X45255Y42482D01*
X45301Y42463D01*
Y42363D01*
Y42166D01*
Y41969D01*
Y41773D01*
Y41637D01*
X45253Y41622D01*
X45241Y41641D01*
X45176Y41684D01*
X45100Y41699D01*
X45024Y41684D01*
X44959Y41641D01*
X44916Y41576D01*
X44901Y41500D01*
X44916Y41424D01*
X44959Y41359D01*
X45024Y41316D01*
X45100Y41301D01*
X45122Y41305D01*
X45202Y41225D01*
X45242Y41198D01*
X45289Y41189D01*
X45301D01*
Y41182D01*
Y41124D01*
X45259Y41101D01*
X45183Y41116D01*
X45107Y41101D01*
X45042Y41058D01*
X44999Y40993D01*
X44984Y40917D01*
X44999Y40841D01*
X45042Y40777D01*
X45091Y40744D01*
X45081Y40695D01*
X45024Y40684D01*
X44959Y40641D01*
X44916Y40576D01*
X44901Y40500D01*
X44916Y40424D01*
X44959Y40359D01*
X45024Y40316D01*
X45100Y40301D01*
X45122Y40305D01*
X45187Y40240D01*
X45226Y40214D01*
X45273Y40204D01*
X45301D01*
Y40198D01*
Y40180D01*
X46169D01*
Y40198D01*
Y40395D01*
Y40411D01*
X46930D01*
X47121Y40221D01*
X47121Y40221D01*
X47157Y40196D01*
X47200Y40188D01*
X47300D01*
Y40045D01*
X46169D01*
Y40062D01*
Y40080D01*
X45301D01*
Y40001D01*
Y39804D01*
Y39719D01*
X45257Y39695D01*
X45215Y39723D01*
X45139Y39738D01*
X45063Y39723D01*
X44999Y39680D01*
X44956Y39615D01*
X44941Y39539D01*
X44956Y39463D01*
X44999Y39399D01*
X45063Y39356D01*
X45139Y39341D01*
X45215Y39356D01*
X45257Y39383D01*
X45301Y39360D01*
Y39213D01*
Y39017D01*
Y38820D01*
Y38623D01*
Y38537D01*
X45255Y38518D01*
X45195Y38578D01*
X45199Y38600D01*
X45184Y38676D01*
X45141Y38741D01*
X45076Y38784D01*
X45000Y38799D01*
X44924Y38784D01*
X44859Y38741D01*
X44816Y38676D01*
X44801Y38600D01*
X44816Y38524D01*
X44859Y38459D01*
X44924Y38416D01*
X45000Y38401D01*
X45022Y38405D01*
X45155Y38272D01*
X45155Y38272D01*
X45155D01*
X45175Y38248D01*
X45122Y38195D01*
X45100Y38199D01*
X45024Y38184D01*
X44959Y38141D01*
X44916Y38076D01*
X44901Y38000D01*
X44916Y37924D01*
X44959Y37859D01*
X45024Y37816D01*
X45100Y37801D01*
X45176Y37816D01*
X45241Y37859D01*
X45253Y37878D01*
X45301Y37864D01*
Y37836D01*
Y37700D01*
Y37693D01*
X45271D01*
X45224Y37684D01*
X45184Y37657D01*
X45122Y37595D01*
X45100Y37599D01*
X45024Y37584D01*
X44959Y37541D01*
X44916Y37476D01*
X44901Y37400D01*
X44916Y37324D01*
X44959Y37259D01*
X45024Y37216D01*
X45100Y37201D01*
X45122Y37205D01*
X45236Y37091D01*
X45276Y37064D01*
X45301Y37059D01*
Y37048D01*
Y36851D01*
X45564D01*
X45594Y36806D01*
X45551Y36741D01*
X45536Y36665D01*
X45551Y36589D01*
X45594Y36524D01*
X45659Y36481D01*
X45735Y36466D01*
X45811Y36481D01*
X45876Y36524D01*
X45919Y36589D01*
X45934Y36665D01*
X45919Y36741D01*
X45876Y36806D01*
X45847Y36825D01*
Y36851D01*
X46169D01*
Y37048D01*
Y37245D01*
Y37442D01*
Y37639D01*
Y37645D01*
X47300D01*
Y35274D01*
X45199D01*
X44942Y35531D01*
Y35631D01*
X44949D01*
Y36499D01*
X44402D01*
X44378Y36543D01*
X44413Y36595D01*
X44428Y36671D01*
X44413Y36747D01*
X44370Y36811D01*
X44305Y36855D01*
X44229Y36870D01*
X44153Y36855D01*
X44089Y36811D01*
X44045Y36747D01*
X44033Y36686D01*
X43984Y36676D01*
X43941Y36741D01*
X43876Y36784D01*
X43800Y36799D01*
X43724Y36784D01*
X43659Y36741D01*
X43616Y36676D01*
X43601Y36600D01*
X43614Y36538D01*
X43582Y36499D01*
X42838D01*
X42815Y36543D01*
X42838Y36578D01*
X42853Y36654D01*
X42838Y36730D01*
X42795Y36795D01*
X42730Y36838D01*
X42654Y36853D01*
X42578Y36838D01*
X42514Y36795D01*
X42471Y36730D01*
X42456Y36654D01*
X42471Y36578D01*
X42494Y36543D01*
X42470Y36499D01*
X42114D01*
Y36065D01*
Y35631D01*
X42335D01*
Y33643D01*
X42344Y33596D01*
X42371Y33556D01*
X44413Y31513D01*
X44453Y31487D01*
X44500Y31478D01*
X47300D01*
Y31122D01*
X46053D01*
X46041Y31141D01*
X45976Y31184D01*
X45900Y31199D01*
X45824Y31184D01*
X45759Y31141D01*
X45716Y31076D01*
X45701Y31000D01*
X45716Y30924D01*
X45759Y30859D01*
X45824Y30816D01*
X45900Y30801D01*
X45976Y30816D01*
X46041Y30859D01*
X46053Y30878D01*
X47300D01*
Y30622D01*
X29600D01*
Y32647D01*
X30078D01*
X30124Y32616D01*
X30200Y32601D01*
X30276Y32616D01*
X30322Y32647D01*
X31130D01*
Y32525D01*
X31130Y32525D01*
X31130D01*
X31130Y32520D01*
Y32490D01*
D01*
D01*
X31130D01*
Y31850D01*
X31130Y31850D01*
X31130Y31820D01*
X31130D01*
Y31180D01*
X32770D01*
Y31299D01*
X32814Y31323D01*
X32824Y31316D01*
X32900Y31301D01*
X32976Y31316D01*
X33022Y31347D01*
X33449D01*
X33507Y31359D01*
X33533Y31376D01*
X34134D01*
Y32224D01*
X33392D01*
X33338Y32278D01*
X33289Y32311D01*
X33230Y32323D01*
X33152D01*
X33141Y32341D01*
X33076Y32384D01*
X33000Y32399D01*
X32924Y32384D01*
X32859Y32341D01*
X32848Y32323D01*
X32770D01*
Y32485D01*
X32770Y32485D01*
D01*
D01*
X32770Y32490D01*
Y32496D01*
Y32505D01*
Y32509D01*
Y32520D01*
X32770Y32524D01*
X32770Y32525D01*
X32770D01*
D01*
Y32525D01*
X32770D01*
D01*
Y32687D01*
X32838D01*
X32884Y32656D01*
X32960Y32641D01*
X33036Y32656D01*
X33101Y32699D01*
X33144Y32764D01*
X33159Y32840D01*
X33144Y32916D01*
X33101Y32981D01*
X33036Y33024D01*
X32960Y33039D01*
X32884Y33024D01*
X32838Y32993D01*
X32770D01*
Y33160D01*
X31130D01*
Y32953D01*
X30322D01*
X30276Y32984D01*
X30200Y32999D01*
X30124Y32984D01*
X30078Y32953D01*
X29600D01*
Y36383D01*
X33385D01*
X33430Y36392D01*
X33468Y36417D01*
X33902Y36851D01*
X34299D01*
Y37048D01*
Y37245D01*
Y37442D01*
Y37639D01*
Y37836D01*
Y38032D01*
Y38229D01*
Y38308D01*
X33431D01*
Y38290D01*
Y38284D01*
X33012D01*
X32999Y38300D01*
X32984Y38376D01*
X32941Y38441D01*
X32876Y38484D01*
X32800Y38499D01*
X32724Y38484D01*
X32659Y38441D01*
X32616Y38376D01*
X32601Y38300D01*
X32616Y38224D01*
X32659Y38159D01*
X32712Y38125D01*
X32697Y38077D01*
X32282D01*
X32079Y38279D01*
X32043Y38304D01*
X32000Y38312D01*
X32000Y38312D01*
X31821D01*
Y38467D01*
X31248D01*
Y37933D01*
X31821D01*
Y38088D01*
X31954D01*
X32156Y37885D01*
X32156Y37885D01*
X32193Y37861D01*
X32235Y37852D01*
X32235Y37852D01*
X32528D01*
X32548Y37806D01*
X32054Y37312D01*
X31821D01*
Y37467D01*
X31248D01*
Y36933D01*
D01*
Y36933D01*
X31232Y36917D01*
X31152D01*
Y36917D01*
Y36933D01*
X31152Y36953D01*
X31152D01*
D01*
Y36953D01*
X31152D01*
D01*
Y37467D01*
X30579D01*
Y37312D01*
X30460D01*
X30441Y37341D01*
X30376Y37384D01*
X30300Y37399D01*
X30224Y37384D01*
X30159Y37341D01*
X30116Y37276D01*
X30101Y37200D01*
X30116Y37124D01*
X30159Y37059D01*
X30224Y37016D01*
X30300Y37001D01*
X30376Y37016D01*
X30441Y37059D01*
X30460Y37088D01*
X30579D01*
Y36953D01*
X30579Y36953D01*
X30579D01*
X30579Y36933D01*
X30563Y36917D01*
X29600D01*
Y39000D01*
X32800D01*
Y39123D01*
X32834Y39174D01*
X32849Y39250D01*
X32834Y39326D01*
X32800Y39376D01*
Y39404D01*
X32846Y39423D01*
X33013Y39256D01*
X33053Y39229D01*
X33100Y39220D01*
X33431D01*
Y39213D01*
Y39017D01*
Y38820D01*
Y38623D01*
Y38426D01*
Y38408D01*
X34299D01*
Y38426D01*
Y38623D01*
Y38820D01*
Y38877D01*
X34345Y38896D01*
X34408Y38834D01*
X34401Y38800D01*
X34416Y38724D01*
X34459Y38659D01*
X34524Y38616D01*
X34600Y38601D01*
X34676Y38616D01*
X34741Y38659D01*
X34784Y38724D01*
X34799Y38800D01*
X34784Y38876D01*
X34741Y38941D01*
X34676Y38984D01*
X34600Y38999D01*
X34566Y38992D01*
X34512Y39046D01*
Y39500D01*
X34512Y39500D01*
X34504Y39543D01*
X34479Y39579D01*
X34479Y39579D01*
X34440Y39619D01*
X34404Y39643D01*
X34361Y39652D01*
X34361Y39652D01*
X34299D01*
Y39668D01*
Y39804D01*
Y39883D01*
X33865D01*
Y39983D01*
X34299D01*
Y40001D01*
Y40008D01*
X34430D01*
X34449Y40011D01*
X34500Y40001D01*
X34576Y40016D01*
X34641Y40059D01*
X34684Y40124D01*
X34699Y40200D01*
X34684Y40276D01*
X34641Y40341D01*
X34576Y40384D01*
X34500Y40399D01*
X34424Y40384D01*
X34359Y40341D01*
X34347Y40322D01*
X34299Y40336D01*
Y40395D01*
Y40591D01*
Y40788D01*
Y40867D01*
X33431D01*
Y40788D01*
Y40653D01*
Y40646D01*
X33370D01*
X33308Y40708D01*
X33259Y40741D01*
X33200Y40753D01*
X32800D01*
Y42370D01*
X33431D01*
Y42363D01*
Y42166D01*
Y41969D01*
Y41773D01*
Y41576D01*
Y41440D01*
Y41423D01*
X33211D01*
X33211Y41423D01*
X33196Y41420D01*
X33176Y41434D01*
X33100Y41449D01*
X33024Y41434D01*
X32959Y41391D01*
X32916Y41326D01*
X32901Y41250D01*
X32916Y41174D01*
X32959Y41109D01*
X33024Y41066D01*
X33100Y41051D01*
X33176Y41066D01*
X33241Y41109D01*
X33284Y41174D01*
X33289Y41199D01*
X33431D01*
Y41182D01*
Y40985D01*
Y40967D01*
X34299D01*
Y40985D01*
Y41182D01*
Y41379D01*
Y41576D01*
Y41773D01*
Y41969D01*
Y42166D01*
Y42363D01*
Y42560D01*
Y42757D01*
Y42863D01*
X34347Y42878D01*
X34359Y42859D01*
X34424Y42816D01*
X34500Y42801D01*
X34576Y42816D01*
X34641Y42859D01*
X34684Y42924D01*
X34699Y43000D01*
X34684Y43076D01*
X34641Y43141D01*
X34576Y43184D01*
X34500Y43199D01*
X34449Y43189D01*
X34417Y43195D01*
X34417Y43195D01*
X34365D01*
X34364Y43196D01*
X34317Y43205D01*
X34299D01*
Y43212D01*
Y43347D01*
Y43363D01*
X34347Y43378D01*
X34359Y43359D01*
X34424Y43316D01*
X34500Y43301D01*
X34576Y43316D01*
X34641Y43359D01*
X34684Y43424D01*
X34699Y43500D01*
X34684Y43576D01*
X34641Y43641D01*
X34576Y43684D01*
X34500Y43699D01*
X34478Y43695D01*
X34413Y43760D01*
X34374Y43786D01*
X34327Y43796D01*
X34299D01*
Y43802D01*
Y43820D01*
X33431D01*
Y43741D01*
Y43544D01*
Y43347D01*
Y43150D01*
Y42954D01*
Y42818D01*
Y42801D01*
X33189D01*
X33184Y42826D01*
X33141Y42891D01*
X33076Y42934D01*
X33000Y42949D01*
X32924Y42934D01*
X32859Y42891D01*
X32848Y42873D01*
X32800Y42888D01*
Y43341D01*
X33179Y43721D01*
X33179Y43721D01*
X33204Y43757D01*
X33212Y43800D01*
X33212Y43800D01*
Y45140D01*
X33241Y45159D01*
X33284Y45224D01*
X33299Y45300D01*
X33284Y45376D01*
X33241Y45441D01*
X33176Y45484D01*
X33100Y45499D01*
X33024Y45484D01*
X32959Y45441D01*
X32916Y45376D01*
X32901Y45300D01*
X32916Y45224D01*
X32959Y45159D01*
X32988Y45140D01*
Y43846D01*
X32846Y43705D01*
X32800Y43724D01*
Y46312D01*
X33431D01*
Y46300D01*
Y46103D01*
Y45959D01*
X33392Y45952D01*
X33352Y45925D01*
X33322Y45895D01*
X33300Y45899D01*
X33224Y45884D01*
X33159Y45841D01*
X33116Y45776D01*
X33101Y45700D01*
X33116Y45624D01*
X33159Y45559D01*
X33224Y45516D01*
X33300Y45501D01*
X33376Y45516D01*
X33387Y45523D01*
X33431Y45500D01*
Y45316D01*
Y45119D01*
Y44922D01*
Y44725D01*
Y44528D01*
Y44332D01*
Y44135D01*
Y43938D01*
Y43920D01*
X34299D01*
Y43938D01*
Y44135D01*
Y44294D01*
X34343Y44318D01*
X34345Y44316D01*
X34421Y44301D01*
X34497Y44316D01*
X34562Y44359D01*
X34605Y44424D01*
X34620Y44500D01*
X34605Y44576D01*
X34562Y44641D01*
X34497Y44684D01*
X34421Y44699D01*
X34345Y44684D01*
X34343Y44682D01*
X34299Y44706D01*
Y44725D01*
Y44922D01*
Y45119D01*
Y45316D01*
Y45449D01*
X34343Y45473D01*
X34366Y45458D01*
X34442Y45443D01*
X34518Y45458D01*
X34582Y45501D01*
X34625Y45566D01*
X34641Y45642D01*
X34625Y45718D01*
X34582Y45782D01*
X34518Y45825D01*
X34442Y45841D01*
X34366Y45825D01*
X34343Y45810D01*
X34299Y45834D01*
Y45906D01*
Y46103D01*
Y46300D01*
Y46497D01*
Y46694D01*
Y46852D01*
X34308Y46858D01*
X34343Y46877D01*
X34404Y46836D01*
X34480Y46821D01*
X34556Y46836D01*
X34621Y46879D01*
X34664Y46944D01*
X34679Y47020D01*
X34664Y47096D01*
X34621Y47160D01*
X34556Y47203D01*
X34480Y47218D01*
X34404Y47203D01*
X34340Y47160D01*
X34328Y47142D01*
X34299D01*
Y47149D01*
X33431D01*
Y46952D01*
Y46940D01*
X33126D01*
X32800Y47266D01*
Y49900D01*
X39662D01*
X39681Y49854D01*
D02*
G37*
G36*
X44913Y34813D02*
X44953Y34787D01*
X45000Y34778D01*
X47300D01*
Y33522D01*
X45551D01*
X44548Y34525D01*
Y35113D01*
X44595Y35132D01*
X44913Y34813D01*
D02*
G37*
G36*
X44481Y49854D02*
X43552Y48925D01*
X43526Y48885D01*
X43516Y48839D01*
Y48369D01*
X43367D01*
Y49594D01*
X43673Y49900D01*
X44462D01*
X44481Y49854D01*
D02*
G37*
G36*
X43910Y34468D02*
X43919Y34421D01*
X43946Y34381D01*
X45213Y33113D01*
X45253Y33087D01*
X45300Y33078D01*
X47300D01*
Y33022D01*
X45151D01*
X43761Y34412D01*
Y35631D01*
X43910D01*
Y34468D01*
D02*
G37*
G36*
X33431Y37639D02*
Y37442D01*
Y37306D01*
Y37294D01*
X33077D01*
X33032Y37285D01*
X32994Y37260D01*
X32651Y36917D01*
X31821D01*
Y36933D01*
X31821D01*
Y37088D01*
X32100D01*
X32100Y37088D01*
X32143Y37096D01*
X32179Y37121D01*
X32714Y37656D01*
X33431D01*
Y37639D01*
D02*
G37*
G36*
X26217Y36717D02*
X26255Y36692D01*
X26300Y36683D01*
X29500D01*
Y36617D01*
X25349D01*
X24962Y37004D01*
X24981Y37050D01*
X25884D01*
X26217Y36717D01*
D02*
G37*
G36*
X33431Y37048D02*
Y36851D01*
X33505D01*
X33524Y36805D01*
X33336Y36617D01*
X29600D01*
Y36683D01*
X32700D01*
X32745Y36692D01*
X32783Y36717D01*
X33126Y37060D01*
X33431D01*
Y37048D01*
D02*
G37*
G36*
X29500Y36917D02*
X26349D01*
X26262Y37004D01*
X26281Y37050D01*
X29500D01*
Y36917D01*
D02*
G37*
G36*
X47300Y42614D02*
X46169D01*
Y42621D01*
Y42757D01*
Y42774D01*
X46226D01*
X46245Y42745D01*
X46310Y42702D01*
X46386Y42687D01*
X46462Y42702D01*
X46526Y42745D01*
X46570Y42810D01*
X46585Y42886D01*
X46570Y42962D01*
X46526Y43026D01*
X46462Y43070D01*
X46386Y43085D01*
X46310Y43070D01*
X46245Y43026D01*
X46226Y42998D01*
X46169D01*
Y43015D01*
Y43150D01*
Y43157D01*
X47300D01*
Y42614D01*
D02*
G37*
G36*
Y32322D02*
X45251D01*
X45042Y32531D01*
X45061Y32578D01*
X47300D01*
Y32322D01*
D02*
G37*
G36*
Y49640D02*
X45117D01*
X45071Y49630D01*
X45048Y49675D01*
X45273Y49900D01*
X47300D01*
Y49640D01*
D02*
G37*
G36*
Y38087D02*
X46169D01*
Y38094D01*
Y38229D01*
Y38426D01*
Y38433D01*
X47300D01*
Y38087D01*
D02*
G37*
G36*
X32800Y58373D02*
X32142D01*
Y58742D01*
X30978D01*
Y57658D01*
X31341D01*
X31373Y57619D01*
X31361Y57560D01*
X31376Y57484D01*
X31419Y57419D01*
X31484Y57376D01*
X31560Y57361D01*
X31636Y57376D01*
X31700Y57419D01*
X31744Y57484D01*
X31759Y57560D01*
X31744Y57636D01*
X31733Y57651D01*
Y57658D01*
X32142D01*
Y58027D01*
X32800D01*
Y52800D01*
X26700D01*
Y59300D01*
X32800D01*
Y58373D01*
D02*
G37*
G36*
X25217Y36417D02*
X25255Y36392D01*
X25300Y36383D01*
X29500D01*
Y30622D01*
X21600D01*
Y37050D01*
X24584D01*
X25217Y36417D01*
D02*
G37*
G36*
X47300Y49022D02*
X44861D01*
X44842Y49069D01*
X45168Y49395D01*
X47300D01*
Y49022D01*
D02*
G37*
G36*
X41388Y49654D02*
Y49159D01*
X41341Y49112D01*
X41294Y49127D01*
X41284Y49176D01*
X41241Y49241D01*
X41176Y49284D01*
X41100Y49299D01*
X41024Y49284D01*
X40959Y49241D01*
X40916Y49176D01*
X40901Y49100D01*
X40905Y49078D01*
X40599Y48772D01*
X40573Y48733D01*
X40563Y48686D01*
Y48369D01*
X40414D01*
Y48841D01*
X40878Y49305D01*
X40900Y49301D01*
X40976Y49316D01*
X41041Y49359D01*
X41084Y49424D01*
X41099Y49500D01*
X41084Y49576D01*
X41041Y49641D01*
X40976Y49684D01*
X40900Y49699D01*
X40824Y49684D01*
X40759Y49641D01*
X40716Y49576D01*
X40701Y49500D01*
X40705Y49478D01*
X40206Y48979D01*
X40179Y48939D01*
X40170Y48892D01*
Y48369D01*
X40021D01*
Y49148D01*
X40478Y49605D01*
X40500Y49601D01*
X40576Y49616D01*
X40641Y49659D01*
X40684Y49724D01*
X40699Y49800D01*
X40684Y49876D01*
X40696Y49900D01*
X41141D01*
X41388Y49654D01*
D02*
G37*
G36*
X42981Y49854D02*
X42962Y49835D01*
X42935Y49795D01*
X42926Y49748D01*
Y48904D01*
X42882Y48880D01*
X42876Y48884D01*
X42800Y48899D01*
X42724Y48884D01*
X42659Y48841D01*
X42628Y48793D01*
X42580Y48808D01*
Y49900D01*
X42962D01*
X42981Y49854D01*
D02*
G37*
%LPC*%
G36*
X42100Y38399D02*
X42024Y38384D01*
X41959Y38341D01*
X41916Y38276D01*
X41901Y38200D01*
X41916Y38124D01*
X41959Y38059D01*
X42024Y38016D01*
X42100Y38001D01*
X42176Y38016D01*
X42241Y38059D01*
X42284Y38124D01*
X42299Y38200D01*
X42284Y38276D01*
X42241Y38341D01*
X42176Y38384D01*
X42100Y38399D01*
D02*
G37*
G36*
X31152Y38150D02*
X30915D01*
Y37933D01*
X31152D01*
Y38150D01*
D02*
G37*
G36*
X39300Y38299D02*
X39224Y38284D01*
X39159Y38241D01*
X39116Y38176D01*
X39101Y38100D01*
X39116Y38024D01*
X39159Y37959D01*
X39224Y37916D01*
X39300Y37901D01*
X39376Y37916D01*
X39441Y37959D01*
X39484Y38024D01*
X39499Y38100D01*
X39484Y38176D01*
X39441Y38241D01*
X39376Y38284D01*
X39300Y38299D01*
D02*
G37*
G36*
X40700D02*
X40624Y38284D01*
X40559Y38241D01*
X40516Y38176D01*
X40501Y38100D01*
X40516Y38024D01*
X40559Y37959D01*
X40624Y37916D01*
X40700Y37901D01*
X40776Y37916D01*
X40841Y37959D01*
X40884Y38024D01*
X40899Y38100D01*
X40884Y38176D01*
X40841Y38241D01*
X40776Y38284D01*
X40700Y38299D01*
D02*
G37*
G36*
X30815Y38150D02*
X30579D01*
Y37933D01*
X30815D01*
Y38150D01*
D02*
G37*
G36*
X44435Y37933D02*
X44359Y37918D01*
X44294Y37875D01*
X44251Y37811D01*
X44236Y37735D01*
X44251Y37659D01*
X44294Y37594D01*
X44359Y37551D01*
X44435Y37536D01*
X44511Y37551D01*
X44575Y37594D01*
X44618Y37659D01*
X44633Y37735D01*
X44618Y37811D01*
X44575Y37875D01*
X44511Y37918D01*
X44435Y37933D01*
D02*
G37*
G36*
X37900Y38299D02*
X37824Y38284D01*
X37759Y38241D01*
X37716Y38176D01*
X37701Y38100D01*
X37716Y38024D01*
X37759Y37959D01*
X37824Y37916D01*
X37900Y37901D01*
X37976Y37916D01*
X38041Y37959D01*
X38084Y38024D01*
X38099Y38100D01*
X38084Y38176D01*
X38041Y38241D01*
X37976Y38284D01*
X37900Y38299D01*
D02*
G37*
G36*
X35236Y33824D02*
X34466D01*
Y32976D01*
X35236D01*
Y33222D01*
X35280Y33245D01*
X35324Y33216D01*
X35400Y33201D01*
X35476Y33216D01*
X35541Y33259D01*
X35584Y33324D01*
X35599Y33400D01*
X35584Y33476D01*
X35541Y33541D01*
X35476Y33584D01*
X35400Y33599D01*
X35324Y33584D01*
X35280Y33554D01*
X35236Y33578D01*
Y33824D01*
D02*
G37*
G36*
X33699D02*
X33364D01*
Y33450D01*
X33699D01*
Y33824D01*
D02*
G37*
G36*
X34134Y33350D02*
X33799D01*
Y32976D01*
X34134D01*
Y33350D01*
D02*
G37*
G36*
X35236Y32224D02*
X34466D01*
Y31376D01*
X35236D01*
Y31622D01*
X35280Y31646D01*
X35324Y31616D01*
X35400Y31601D01*
X35476Y31616D01*
X35541Y31659D01*
X35584Y31724D01*
X35599Y31800D01*
X35584Y31876D01*
X35541Y31941D01*
X35476Y31984D01*
X35400Y31999D01*
X35324Y31984D01*
X35280Y31955D01*
X35236Y31978D01*
Y32224D01*
D02*
G37*
G36*
X33699Y33350D02*
X33364D01*
Y32976D01*
X33699D01*
Y33350D01*
D02*
G37*
G36*
X34134Y33824D02*
X33799D01*
Y33450D01*
X34134D01*
Y33824D01*
D02*
G37*
G36*
X35765Y37063D02*
X35688Y37048D01*
X35624Y37005D01*
X35581Y36941D01*
X35566Y36865D01*
X35581Y36788D01*
X35624Y36724D01*
X35642Y36712D01*
Y36499D01*
X34651D01*
Y36499D01*
X34641Y36491D01*
X34600Y36499D01*
X34524Y36484D01*
X34459Y36441D01*
X34416Y36376D01*
X34401Y36300D01*
X34416Y36224D01*
X34459Y36159D01*
X34524Y36116D01*
X34600Y36101D01*
X34613Y36104D01*
X34651Y36072D01*
Y35631D01*
X37166D01*
X37189Y35587D01*
X37156Y35537D01*
X37141Y35461D01*
X37156Y35385D01*
X37199Y35320D01*
X37263Y35277D01*
X37339Y35262D01*
X37415Y35277D01*
X37480Y35320D01*
X37523Y35385D01*
X37538Y35461D01*
X37523Y35537D01*
X37480Y35601D01*
X37462Y35613D01*
Y35631D01*
X37880D01*
Y36065D01*
Y36499D01*
X36351D01*
X36327Y36543D01*
X36342Y36566D01*
X36357Y36642D01*
X36342Y36718D01*
X36299Y36782D01*
X36234Y36825D01*
X36158Y36841D01*
X36082Y36825D01*
X36018Y36782D01*
X35975Y36718D01*
X35959Y36642D01*
X35975Y36566D01*
X35990Y36543D01*
X35966Y36499D01*
X35887D01*
Y36712D01*
X35905Y36724D01*
X35948Y36788D01*
X35963Y36865D01*
X35948Y36941D01*
X35905Y37005D01*
X35841Y37048D01*
X35765Y37063D01*
D02*
G37*
G36*
X40700Y36899D02*
X40624Y36884D01*
X40559Y36841D01*
X40516Y36776D01*
X40501Y36700D01*
X40516Y36624D01*
X40559Y36559D01*
X40578Y36547D01*
X40564Y36499D01*
X39437D01*
X39422Y36547D01*
X39441Y36559D01*
X39484Y36624D01*
X39499Y36700D01*
X39484Y36776D01*
X39441Y36841D01*
X39376Y36884D01*
X39300Y36899D01*
X39224Y36884D01*
X39159Y36841D01*
X39116Y36776D01*
X39101Y36700D01*
X39105Y36678D01*
X39025Y36598D01*
X38998Y36558D01*
X38989Y36511D01*
Y36499D01*
X37980D01*
Y36065D01*
Y35631D01*
X38201D01*
Y34476D01*
X38211Y34430D01*
X38237Y34390D01*
X38905Y33722D01*
X38901Y33700D01*
X38916Y33624D01*
X38959Y33559D01*
X39024Y33516D01*
X39100Y33501D01*
X39176Y33516D01*
X39241Y33559D01*
X39284Y33624D01*
X39299Y33700D01*
X39284Y33776D01*
X39241Y33841D01*
X39176Y33884D01*
X39100Y33899D01*
X39078Y33895D01*
X38668Y34305D01*
X38692Y34349D01*
X38767Y34334D01*
X38843Y34349D01*
X38908Y34392D01*
X38951Y34457D01*
X38966Y34533D01*
X38951Y34609D01*
X38908Y34673D01*
X38843Y34716D01*
X38767Y34731D01*
X38746Y34727D01*
X38643Y34830D01*
Y35631D01*
X39200D01*
X39223Y35587D01*
X39216Y35576D01*
X39201Y35500D01*
X39216Y35424D01*
X39259Y35359D01*
X39324Y35316D01*
X39400Y35301D01*
X39476Y35316D01*
X39541Y35359D01*
X39584Y35424D01*
X39599Y35500D01*
X39594Y35525D01*
X39613Y35553D01*
X39622Y35600D01*
Y35631D01*
X40282D01*
X40305Y35587D01*
X40290Y35511D01*
X40297Y35479D01*
X40296Y35478D01*
X40287Y35431D01*
Y35003D01*
X39946D01*
Y33997D01*
X40873D01*
Y35003D01*
X40532D01*
Y35321D01*
X40565Y35327D01*
X40630Y35370D01*
X40673Y35435D01*
X40688Y35511D01*
X40673Y35587D01*
X40696Y35631D01*
X42014D01*
Y36065D01*
Y36499D01*
X41005D01*
Y36517D01*
X40996Y36564D01*
X40969Y36604D01*
X40895Y36678D01*
X40899Y36700D01*
X40884Y36776D01*
X40841Y36841D01*
X40776Y36884D01*
X40700Y36899D01*
D02*
G37*
G36*
X32900Y35099D02*
X32824Y35084D01*
X32759Y35041D01*
X32716Y34976D01*
X32701Y34900D01*
X32716Y34824D01*
X32759Y34759D01*
X32824Y34716D01*
X32900Y34701D01*
X32976Y34716D01*
X33041Y34759D01*
X33084Y34824D01*
X33099Y34900D01*
X33084Y34976D01*
X33041Y35041D01*
X32976Y35084D01*
X32900Y35099D01*
D02*
G37*
G36*
X42054Y35003D02*
X41127D01*
Y33997D01*
X41419D01*
X41450Y33950D01*
X41407Y33886D01*
X41392Y33809D01*
X41407Y33733D01*
X41450Y33669D01*
X41514Y33626D01*
X41591Y33611D01*
X41667Y33626D01*
X41731Y33669D01*
X41774Y33733D01*
X41789Y33809D01*
X41774Y33886D01*
X41731Y33950D01*
X41713Y33962D01*
Y33997D01*
X42054D01*
Y35003D01*
D02*
G37*
G36*
X31500Y34829D02*
X31424Y34814D01*
X31359Y34771D01*
X31316Y34706D01*
X31301Y34630D01*
X31316Y34554D01*
X31323Y34544D01*
X31299Y34500D01*
X31130D01*
Y33860D01*
X32770D01*
Y34500D01*
X31846D01*
X31694Y34652D01*
X31684Y34706D01*
X31641Y34771D01*
X31576Y34814D01*
X31500Y34829D01*
D02*
G37*
G36*
X41700Y45999D02*
X41624Y45984D01*
X41559Y45941D01*
X41516Y45876D01*
X41501Y45800D01*
X41516Y45724D01*
X41559Y45659D01*
X41624Y45616D01*
X41700Y45601D01*
X41776Y45616D01*
X41841Y45659D01*
X41884Y45724D01*
X41899Y45800D01*
X41884Y45876D01*
X41841Y45941D01*
X41776Y45984D01*
X41700Y45999D01*
D02*
G37*
G36*
X38700Y46099D02*
X38624Y46084D01*
X38559Y46041D01*
X38516Y45976D01*
X38501Y45900D01*
X38516Y45824D01*
X38559Y45759D01*
X38624Y45716D01*
X38700Y45701D01*
X38776Y45716D01*
X38841Y45759D01*
X38884Y45824D01*
X38899Y45900D01*
X38884Y45976D01*
X38841Y46041D01*
X38776Y46084D01*
X38700Y46099D01*
D02*
G37*
G36*
X40200D02*
X40124Y46084D01*
X40059Y46041D01*
X40016Y45976D01*
X40001Y45900D01*
X40016Y45824D01*
X40059Y45759D01*
X40124Y45716D01*
X40200Y45701D01*
X40276Y45716D01*
X40341Y45759D01*
X40384Y45824D01*
X40399Y45900D01*
X40384Y45976D01*
X40341Y46041D01*
X40276Y46084D01*
X40200Y46099D01*
D02*
G37*
G36*
X41000Y45399D02*
X40924Y45384D01*
X40859Y45341D01*
X40840Y45312D01*
X36060D01*
X36041Y45341D01*
X35976Y45384D01*
X35900Y45399D01*
X35824Y45384D01*
X35759Y45341D01*
X35716Y45276D01*
X35701Y45200D01*
X35716Y45124D01*
X35759Y45059D01*
X35824Y45016D01*
X35900Y45001D01*
X35976Y45016D01*
X36041Y45059D01*
X36060Y45088D01*
X40840D01*
X40859Y45059D01*
X40924Y45016D01*
X41000Y45001D01*
X41076Y45016D01*
X41141Y45059D01*
X41184Y45124D01*
X41199Y45200D01*
X41184Y45276D01*
X41141Y45341D01*
X41076Y45384D01*
X41000Y45399D01*
D02*
G37*
G36*
X36000Y45899D02*
X35924Y45884D01*
X35859Y45841D01*
X35816Y45776D01*
X35801Y45700D01*
X35816Y45624D01*
X35859Y45559D01*
X35924Y45516D01*
X36000Y45501D01*
X36076Y45516D01*
X36141Y45559D01*
X36184Y45624D01*
X36199Y45700D01*
X36184Y45776D01*
X36141Y45841D01*
X36076Y45884D01*
X36000Y45899D01*
D02*
G37*
G36*
X37900Y45999D02*
X37824Y45984D01*
X37759Y45941D01*
X37716Y45876D01*
X37701Y45800D01*
X37716Y45724D01*
X37759Y45659D01*
X37824Y45616D01*
X37900Y45601D01*
X37976Y45616D01*
X38041Y45659D01*
X38084Y45724D01*
X38099Y45800D01*
X38084Y45876D01*
X38041Y45941D01*
X37976Y45984D01*
X37900Y45999D01*
D02*
G37*
G36*
X43700Y46099D02*
X43624Y46084D01*
X43559Y46041D01*
X43516Y45976D01*
X43501Y45900D01*
X43516Y45824D01*
X43559Y45759D01*
X43624Y45716D01*
X43700Y45701D01*
X43776Y45716D01*
X43841Y45759D01*
X43884Y45824D01*
X43899Y45900D01*
X43884Y45976D01*
X43841Y46041D01*
X43776Y46084D01*
X43700Y46099D01*
D02*
G37*
G36*
X29622Y58150D02*
X29090D01*
Y57658D01*
X29622D01*
Y58150D01*
D02*
G37*
G36*
X28990Y58742D02*
X28458D01*
Y58250D01*
X28990D01*
Y58742D01*
D02*
G37*
G36*
X29622D02*
X29090D01*
Y58250D01*
X29622D01*
Y58742D01*
D02*
G37*
G36*
X35765Y48663D02*
X35688Y48648D01*
X35624Y48605D01*
X35581Y48541D01*
X35566Y48465D01*
X35577Y48408D01*
X35545Y48369D01*
X34651D01*
Y47501D01*
X34764D01*
X34778Y47453D01*
X34759Y47441D01*
X34716Y47376D01*
X34701Y47300D01*
X34716Y47224D01*
X34759Y47159D01*
X34824Y47116D01*
X34900Y47101D01*
X34976Y47116D01*
X35041Y47159D01*
X35060Y47188D01*
X35200D01*
X35200Y47188D01*
X35243Y47196D01*
X35279Y47221D01*
X35450Y47392D01*
X35474Y47428D01*
X35483Y47471D01*
X35483Y47471D01*
Y47501D01*
X37486D01*
Y47935D01*
Y48369D01*
X37169D01*
X37137Y48408D01*
X37144Y48446D01*
X37129Y48522D01*
X37086Y48586D01*
X37022Y48629D01*
X36946Y48644D01*
X36870Y48629D01*
X36805Y48586D01*
X36762Y48522D01*
X36747Y48446D01*
X36754Y48408D01*
X36723Y48369D01*
X35984D01*
X35952Y48408D01*
X35963Y48465D01*
X35948Y48541D01*
X35905Y48605D01*
X35841Y48648D01*
X35765Y48663D01*
D02*
G37*
G36*
X33700Y47899D02*
X33624Y47884D01*
X33559Y47841D01*
X33516Y47776D01*
X33501Y47700D01*
X33516Y47624D01*
X33559Y47559D01*
X33624Y47516D01*
X33700Y47501D01*
X33776Y47516D01*
X33841Y47559D01*
X33884Y47624D01*
X33899Y47700D01*
X33884Y47776D01*
X33841Y47841D01*
X33776Y47884D01*
X33700Y47899D01*
D02*
G37*
G36*
X28990Y58150D02*
X28458D01*
Y57658D01*
X28990D01*
Y58150D01*
D02*
G37*
G36*
X35900Y39499D02*
X35824Y39484D01*
X35759Y39441D01*
X35716Y39376D01*
X35701Y39300D01*
X35716Y39224D01*
X35759Y39159D01*
X35824Y39116D01*
X35900Y39101D01*
X35976Y39116D01*
X36041Y39159D01*
X36084Y39224D01*
X36099Y39300D01*
X36084Y39376D01*
X36041Y39441D01*
X35976Y39484D01*
X35900Y39499D01*
D02*
G37*
G36*
X43600Y39899D02*
X43524Y39884D01*
X43459Y39841D01*
X43416Y39776D01*
X43401Y39700D01*
X43416Y39624D01*
X43459Y39559D01*
X43524Y39516D01*
X43600Y39501D01*
X43676Y39516D01*
X43741Y39559D01*
X43784Y39624D01*
X43799Y39700D01*
X43784Y39776D01*
X43741Y39841D01*
X43676Y39884D01*
X43600Y39899D01*
D02*
G37*
G36*
X35900Y40499D02*
X35824Y40484D01*
X35759Y40441D01*
X35716Y40376D01*
X35701Y40300D01*
X35716Y40224D01*
X35759Y40159D01*
X35824Y40116D01*
X35900Y40101D01*
X35976Y40116D01*
X36041Y40159D01*
X36084Y40224D01*
X36099Y40300D01*
X36084Y40376D01*
X36041Y40441D01*
X35976Y40484D01*
X35900Y40499D01*
D02*
G37*
G36*
X30815Y38467D02*
X30579D01*
Y38250D01*
X30815D01*
Y38467D01*
D02*
G37*
G36*
X31152D02*
X30915D01*
Y38250D01*
X31152D01*
Y38467D01*
D02*
G37*
G36*
X43600Y38899D02*
X43524Y38884D01*
X43459Y38841D01*
X43416Y38776D01*
X43401Y38700D01*
X43416Y38624D01*
X43459Y38559D01*
X43524Y38516D01*
X43600Y38501D01*
X43676Y38516D01*
X43741Y38559D01*
X43784Y38624D01*
X43799Y38700D01*
X43784Y38776D01*
X43741Y38841D01*
X43676Y38884D01*
X43600Y38899D01*
D02*
G37*
G36*
Y40899D02*
X43524Y40884D01*
X43459Y40841D01*
X43416Y40776D01*
X43401Y40700D01*
X43416Y40624D01*
X43459Y40559D01*
X43524Y40516D01*
X43600Y40501D01*
X43676Y40516D01*
X43741Y40559D01*
X43784Y40624D01*
X43799Y40700D01*
X43784Y40776D01*
X43741Y40841D01*
X43676Y40884D01*
X43600Y40899D01*
D02*
G37*
G36*
X36000Y43699D02*
X35924Y43684D01*
X35859Y43641D01*
X35816Y43576D01*
X35801Y43500D01*
X35816Y43424D01*
X35859Y43359D01*
X35924Y43316D01*
X36000Y43301D01*
X36076Y43316D01*
X36141Y43359D01*
X36184Y43424D01*
X36199Y43500D01*
X36184Y43576D01*
X36141Y43641D01*
X36076Y43684D01*
X36000Y43699D01*
D02*
G37*
G36*
X43700Y44099D02*
X43624Y44084D01*
X43559Y44041D01*
X43516Y43976D01*
X43501Y43900D01*
X43516Y43824D01*
X43559Y43759D01*
X43624Y43716D01*
X43700Y43701D01*
X43776Y43716D01*
X43841Y43759D01*
X43884Y43824D01*
X43899Y43900D01*
X43884Y43976D01*
X43841Y44041D01*
X43776Y44084D01*
X43700Y44099D01*
D02*
G37*
G36*
X35900Y44699D02*
X35824Y44684D01*
X35759Y44641D01*
X35716Y44576D01*
X35701Y44500D01*
X35716Y44424D01*
X35759Y44359D01*
X35824Y44316D01*
X35900Y44301D01*
X35976Y44316D01*
X36041Y44359D01*
X36084Y44424D01*
X36099Y44500D01*
X36084Y44576D01*
X36041Y44641D01*
X35976Y44684D01*
X35900Y44699D01*
D02*
G37*
G36*
X38500Y42299D02*
X38424Y42284D01*
X38359Y42241D01*
X38340Y42212D01*
X36260D01*
X36241Y42241D01*
X36176Y42284D01*
X36100Y42299D01*
X36024Y42284D01*
X35959Y42241D01*
X35916Y42176D01*
X35901Y42100D01*
X35916Y42024D01*
X35959Y41959D01*
X36024Y41916D01*
X36100Y41901D01*
X36176Y41916D01*
X36241Y41959D01*
X36260Y41988D01*
X38340D01*
X38359Y41959D01*
X38424Y41916D01*
X38500Y41901D01*
X38576Y41916D01*
X38641Y41959D01*
X38684Y42024D01*
X38699Y42100D01*
X38684Y42176D01*
X38641Y42241D01*
X38576Y42284D01*
X38500Y42299D01*
D02*
G37*
G36*
X42700D02*
X42624Y42284D01*
X42559Y42241D01*
X42540Y42212D01*
X40960D01*
X40941Y42241D01*
X40876Y42284D01*
X40800Y42299D01*
X40724Y42284D01*
X40659Y42241D01*
X40616Y42176D01*
X40601Y42100D01*
X40616Y42024D01*
X40659Y41959D01*
X40724Y41916D01*
X40800Y41901D01*
X40876Y41916D01*
X40941Y41959D01*
X40960Y41988D01*
X42540D01*
X42559Y41959D01*
X42624Y41916D01*
X42700Y41901D01*
X42776Y41916D01*
X42841Y41959D01*
X42884Y42024D01*
X42899Y42100D01*
X42884Y42176D01*
X42841Y42241D01*
X42776Y42284D01*
X42700Y42299D01*
D02*
G37*
G36*
X43700Y43099D02*
X43624Y43084D01*
X43559Y43041D01*
X43516Y42976D01*
X43501Y42900D01*
X43516Y42824D01*
X43559Y42759D01*
X43624Y42716D01*
X43700Y42701D01*
X43776Y42716D01*
X43841Y42759D01*
X43884Y42824D01*
X43899Y42900D01*
X43884Y42976D01*
X43841Y43041D01*
X43776Y43084D01*
X43700Y43099D01*
D02*
G37*
%LPD*%
D10*
X60000Y57756D02*
D03*
Y57244D02*
D03*
X62600Y44144D02*
D03*
Y44656D02*
D03*
X61100Y57244D02*
D03*
Y57756D02*
D03*
X61300Y44144D02*
D03*
Y44656D02*
D03*
D11*
X55627Y41845D02*
D03*
Y41648D02*
D03*
Y41451D02*
D03*
Y41254D02*
D03*
Y41057D02*
D03*
Y40861D02*
D03*
Y40664D02*
D03*
Y40467D02*
D03*
Y40270D02*
D03*
Y40073D02*
D03*
Y39876D02*
D03*
Y39680D02*
D03*
Y39483D02*
D03*
Y39286D02*
D03*
Y39089D02*
D03*
Y38892D02*
D03*
Y38695D02*
D03*
Y38498D02*
D03*
Y38302D02*
D03*
Y38105D02*
D03*
Y37908D02*
D03*
Y37711D02*
D03*
Y37514D02*
D03*
Y37317D02*
D03*
Y37120D02*
D03*
Y36924D02*
D03*
Y36727D02*
D03*
Y36530D02*
D03*
Y36333D02*
D03*
Y36136D02*
D03*
Y35939D02*
D03*
Y35743D02*
D03*
Y35546D02*
D03*
Y35349D02*
D03*
Y35152D02*
D03*
Y34955D02*
D03*
X63973Y41845D02*
D03*
Y41648D02*
D03*
Y41451D02*
D03*
Y41254D02*
D03*
Y41057D02*
D03*
Y40861D02*
D03*
Y40664D02*
D03*
Y40467D02*
D03*
Y40270D02*
D03*
Y40073D02*
D03*
Y39876D02*
D03*
Y39680D02*
D03*
Y39483D02*
D03*
Y39286D02*
D03*
Y39089D02*
D03*
Y38892D02*
D03*
Y38695D02*
D03*
Y38498D02*
D03*
Y38302D02*
D03*
Y38105D02*
D03*
Y37908D02*
D03*
Y37711D02*
D03*
Y37514D02*
D03*
Y37317D02*
D03*
Y37120D02*
D03*
Y36924D02*
D03*
Y36727D02*
D03*
Y36530D02*
D03*
Y36333D02*
D03*
Y36136D02*
D03*
Y35939D02*
D03*
Y35743D02*
D03*
Y35546D02*
D03*
Y35349D02*
D03*
Y35152D02*
D03*
Y34955D02*
D03*
Y47155D02*
D03*
Y47352D02*
D03*
Y47549D02*
D03*
Y47746D02*
D03*
Y47943D02*
D03*
Y48139D02*
D03*
Y48336D02*
D03*
Y48533D02*
D03*
Y48730D02*
D03*
Y48927D02*
D03*
Y49124D02*
D03*
Y49320D02*
D03*
Y49517D02*
D03*
Y49714D02*
D03*
Y49911D02*
D03*
Y50108D02*
D03*
Y50305D02*
D03*
Y50502D02*
D03*
Y50698D02*
D03*
Y50895D02*
D03*
Y51092D02*
D03*
Y51289D02*
D03*
Y51486D02*
D03*
Y51683D02*
D03*
Y51880D02*
D03*
Y52076D02*
D03*
Y52273D02*
D03*
Y52470D02*
D03*
Y52667D02*
D03*
Y52864D02*
D03*
Y53061D02*
D03*
Y53257D02*
D03*
Y53454D02*
D03*
Y53651D02*
D03*
Y53848D02*
D03*
Y54045D02*
D03*
X55627Y47155D02*
D03*
Y47352D02*
D03*
Y47549D02*
D03*
Y47746D02*
D03*
Y47943D02*
D03*
Y48139D02*
D03*
Y48336D02*
D03*
Y48533D02*
D03*
Y48730D02*
D03*
Y48927D02*
D03*
Y49124D02*
D03*
Y49320D02*
D03*
Y49517D02*
D03*
Y49714D02*
D03*
Y49911D02*
D03*
Y50108D02*
D03*
Y50305D02*
D03*
Y50502D02*
D03*
Y50698D02*
D03*
Y50895D02*
D03*
Y51092D02*
D03*
Y51289D02*
D03*
Y51486D02*
D03*
Y51683D02*
D03*
Y51880D02*
D03*
Y52076D02*
D03*
Y52273D02*
D03*
Y52470D02*
D03*
Y52667D02*
D03*
Y52864D02*
D03*
Y53061D02*
D03*
Y53257D02*
D03*
Y53454D02*
D03*
Y53651D02*
D03*
Y53848D02*
D03*
Y54045D02*
D03*
D12*
X56355Y34227D02*
D03*
X56552D02*
D03*
X56749D02*
D03*
X56946D02*
D03*
X57143D02*
D03*
X57339D02*
D03*
X57536D02*
D03*
X57733D02*
D03*
X57930D02*
D03*
X58127D02*
D03*
X58324D02*
D03*
X58520D02*
D03*
X58717D02*
D03*
X58914D02*
D03*
X59111D02*
D03*
X59308D02*
D03*
X59505D02*
D03*
X59702D02*
D03*
X59898D02*
D03*
X60095D02*
D03*
X60292D02*
D03*
X60489D02*
D03*
X60686D02*
D03*
X60883D02*
D03*
X61080D02*
D03*
X61276D02*
D03*
X61473D02*
D03*
X61670D02*
D03*
X61867D02*
D03*
X62064D02*
D03*
X62261D02*
D03*
X62457D02*
D03*
X62654D02*
D03*
X62851D02*
D03*
X63048D02*
D03*
X63245D02*
D03*
X56355Y42573D02*
D03*
X56552D02*
D03*
X56749D02*
D03*
X56946D02*
D03*
X57143D02*
D03*
X57339D02*
D03*
X57536D02*
D03*
X57733D02*
D03*
X57930D02*
D03*
X58127D02*
D03*
X58324D02*
D03*
X58520D02*
D03*
X58717D02*
D03*
X58914D02*
D03*
X59111D02*
D03*
X59308D02*
D03*
X59505D02*
D03*
X59702D02*
D03*
X59898D02*
D03*
X60095D02*
D03*
X60292D02*
D03*
X60489D02*
D03*
X60686D02*
D03*
X60883D02*
D03*
X61080D02*
D03*
X61276D02*
D03*
X61473D02*
D03*
X61670D02*
D03*
X61867D02*
D03*
X62064D02*
D03*
X62261D02*
D03*
X62457D02*
D03*
X62654D02*
D03*
X62851D02*
D03*
X63048D02*
D03*
X63245D02*
D03*
Y54773D02*
D03*
X63048D02*
D03*
X62851D02*
D03*
X62654D02*
D03*
X62457D02*
D03*
X62261D02*
D03*
X62064D02*
D03*
X61867D02*
D03*
X61670D02*
D03*
X61473D02*
D03*
X61276D02*
D03*
X61080D02*
D03*
X60883D02*
D03*
X60686D02*
D03*
X60489D02*
D03*
X60292D02*
D03*
X60095D02*
D03*
X59898D02*
D03*
X59702D02*
D03*
X59505D02*
D03*
X59308D02*
D03*
X59111D02*
D03*
X58914D02*
D03*
X58717D02*
D03*
X58520D02*
D03*
X58324D02*
D03*
X58127D02*
D03*
X57930D02*
D03*
X57733D02*
D03*
X57536D02*
D03*
X57339D02*
D03*
X57143D02*
D03*
X56946D02*
D03*
X56749D02*
D03*
X56552D02*
D03*
X56355D02*
D03*
X63245Y46427D02*
D03*
X63048D02*
D03*
X62851D02*
D03*
X62654D02*
D03*
X62457D02*
D03*
X62261D02*
D03*
X62064D02*
D03*
X61867D02*
D03*
X61670D02*
D03*
X61473D02*
D03*
X61276D02*
D03*
X61080D02*
D03*
X60883D02*
D03*
X60686D02*
D03*
X60489D02*
D03*
X60292D02*
D03*
X60095D02*
D03*
X59898D02*
D03*
X59702D02*
D03*
X59505D02*
D03*
X59308D02*
D03*
X59111D02*
D03*
X58914D02*
D03*
X58717D02*
D03*
X58520D02*
D03*
X58324D02*
D03*
X58127D02*
D03*
X57930D02*
D03*
X57733D02*
D03*
X57536D02*
D03*
X57339D02*
D03*
X57143D02*
D03*
X56946D02*
D03*
X56749D02*
D03*
X56552D02*
D03*
X56355D02*
D03*
D13*
X33865Y47020D02*
D03*
Y45839D02*
D03*
Y45642D02*
D03*
Y44461D02*
D03*
Y43870D02*
D03*
Y43673D02*
D03*
Y43083D02*
D03*
Y42689D02*
D03*
Y41311D02*
D03*
Y40130D02*
D03*
Y39933D02*
D03*
Y39539D02*
D03*
Y38161D02*
D03*
Y37965D02*
D03*
Y37768D02*
D03*
Y37571D02*
D03*
Y37374D02*
D03*
X45735Y46626D02*
D03*
Y46429D02*
D03*
Y46232D02*
D03*
Y46035D02*
D03*
Y45839D02*
D03*
Y45642D02*
D03*
Y45445D02*
D03*
Y45248D02*
D03*
Y45051D02*
D03*
Y44854D02*
D03*
Y44461D02*
D03*
Y44264D02*
D03*
Y44067D02*
D03*
Y43870D02*
D03*
Y43673D02*
D03*
Y43476D02*
D03*
Y43280D02*
D03*
Y43083D02*
D03*
Y42689D02*
D03*
Y42492D02*
D03*
Y42295D02*
D03*
Y42098D02*
D03*
Y41902D02*
D03*
Y41705D02*
D03*
Y41508D02*
D03*
Y41311D02*
D03*
Y41114D02*
D03*
Y40917D02*
D03*
Y40720D02*
D03*
Y40524D02*
D03*
Y40327D02*
D03*
Y40130D02*
D03*
Y39933D02*
D03*
Y39736D02*
D03*
Y39539D02*
D03*
Y39343D02*
D03*
Y39146D02*
D03*
Y38949D02*
D03*
Y38752D02*
D03*
Y38555D02*
D03*
Y38358D02*
D03*
Y38161D02*
D03*
Y37965D02*
D03*
Y37768D02*
D03*
Y37571D02*
D03*
Y37374D02*
D03*
Y37177D02*
D03*
Y36980D02*
D03*
X33865Y40720D02*
D03*
Y39146D02*
D03*
Y38949D02*
D03*
Y38752D02*
D03*
Y38555D02*
D03*
Y40327D02*
D03*
Y40524D02*
D03*
Y41902D02*
D03*
Y45445D02*
D03*
Y45248D02*
D03*
Y45051D02*
D03*
Y44264D02*
D03*
Y44067D02*
D03*
Y43476D02*
D03*
Y43280D02*
D03*
Y42295D02*
D03*
Y42098D02*
D03*
Y41705D02*
D03*
Y44854D02*
D03*
Y44657D02*
D03*
Y42886D02*
D03*
Y41508D02*
D03*
Y41114D02*
D03*
Y39736D02*
D03*
Y39343D02*
D03*
Y46232D02*
D03*
Y46035D02*
D03*
X45735Y46823D02*
D03*
Y47020D02*
D03*
X33865Y46626D02*
D03*
Y40917D02*
D03*
Y38358D02*
D03*
Y36980D02*
D03*
Y42492D02*
D03*
Y46429D02*
D03*
Y37177D02*
D03*
X45735Y42886D02*
D03*
Y44657D02*
D03*
X33865Y46823D02*
D03*
D14*
X44820Y47935D02*
D03*
X44623D02*
D03*
X44426D02*
D03*
X44229D02*
D03*
X44032D02*
D03*
X43835D02*
D03*
X43639D02*
D03*
X43442D02*
D03*
X43245D02*
D03*
X43048D02*
D03*
X42851D02*
D03*
X42457D02*
D03*
X42261D02*
D03*
X42064D02*
D03*
X41867D02*
D03*
X41670D02*
D03*
X41473D02*
D03*
X41276D02*
D03*
X41080D02*
D03*
X40883D02*
D03*
X40686D02*
D03*
X40489D02*
D03*
X40292D02*
D03*
X40095D02*
D03*
X39898D02*
D03*
X39702D02*
D03*
X39111D02*
D03*
X38717D02*
D03*
X37536D02*
D03*
X36946D02*
D03*
X35765D02*
D03*
X35371D02*
D03*
X44820Y36065D02*
D03*
X44623D02*
D03*
X44426D02*
D03*
X44229D02*
D03*
X44032D02*
D03*
X43835D02*
D03*
X43639D02*
D03*
X43442D02*
D03*
X43245D02*
D03*
X43048D02*
D03*
X42851D02*
D03*
X42654D02*
D03*
X42457D02*
D03*
X42064D02*
D03*
X41867D02*
D03*
X41670D02*
D03*
X41473D02*
D03*
X41276D02*
D03*
X41080D02*
D03*
X40883D02*
D03*
X40686D02*
D03*
X40489D02*
D03*
X40292D02*
D03*
X40095D02*
D03*
X39898D02*
D03*
X39702D02*
D03*
X39505D02*
D03*
X39308D02*
D03*
X39111D02*
D03*
X38914D02*
D03*
X38717D02*
D03*
X38520D02*
D03*
X38324D02*
D03*
X38127D02*
D03*
X37930D02*
D03*
X37733D02*
D03*
X37536D02*
D03*
X37339D02*
D03*
X37143D02*
D03*
X36946D02*
D03*
X36749D02*
D03*
X36552D02*
D03*
X36355D02*
D03*
X36158D02*
D03*
X35765D02*
D03*
X35371D02*
D03*
X34780D02*
D03*
X42654Y47935D02*
D03*
X42261Y36065D02*
D03*
X39505Y47935D02*
D03*
X39308D02*
D03*
X38914D02*
D03*
X38520D02*
D03*
X38324D02*
D03*
X38127D02*
D03*
X37930D02*
D03*
X37733D02*
D03*
X35568D02*
D03*
X35961D02*
D03*
X36158D02*
D03*
X36355D02*
D03*
X36552D02*
D03*
X36749D02*
D03*
X37143D02*
D03*
X37339D02*
D03*
X34977D02*
D03*
X35174D02*
D03*
X34977Y36065D02*
D03*
X34780Y47935D02*
D03*
X35568Y36065D02*
D03*
X35961D02*
D03*
X35174D02*
D03*
D15*
X70209Y46800D02*
D03*
X71391D02*
D03*
X48009Y47600D02*
D03*
X49191D02*
D03*
X52509Y34100D02*
D03*
X53691D02*
D03*
X48909Y36500D02*
D03*
X50091D02*
D03*
X50709Y47600D02*
D03*
X51891D02*
D03*
X48909Y34100D02*
D03*
X50091D02*
D03*
X41591Y34500D02*
D03*
X40409D02*
D03*
D16*
X73153Y42750D02*
D03*
Y43250D02*
D03*
Y43750D02*
D03*
Y44250D02*
D03*
X71047Y42750D02*
D03*
Y43250D02*
D03*
Y43750D02*
D03*
Y44250D02*
D03*
D17*
X66200Y35991D02*
D03*
Y34809D02*
D03*
X66000Y49091D02*
D03*
Y47909D02*
D03*
D18*
X71056Y45400D02*
D03*
X70544D02*
D03*
X73656Y37600D02*
D03*
X73144D02*
D03*
D19*
X30754Y46700D02*
D03*
Y44700D02*
D03*
X29100D02*
D03*
Y46700D02*
D03*
D20*
X31950Y31500D02*
D03*
Y32170D02*
D03*
Y32840D02*
D03*
Y33510D02*
D03*
Y34180D02*
D03*
X25350Y53820D02*
D03*
Y54490D02*
D03*
Y55160D02*
D03*
Y55830D02*
D03*
Y56500D02*
D03*
D21*
X27100Y32750D02*
D03*
X30200Y55250D02*
D03*
D22*
X33749Y33400D02*
D03*
X34851D02*
D03*
X33749Y31800D02*
D03*
X34851D02*
D03*
X22749Y55300D02*
D03*
X23851D02*
D03*
X22749Y53800D02*
D03*
X23851D02*
D03*
D23*
X31600Y51149D02*
D03*
Y52251D02*
D03*
D24*
X31560Y58200D02*
D03*
X29040D02*
D03*
D25*
X23325Y43357D02*
D03*
X23640D02*
D03*
X23955D02*
D03*
X24270D02*
D03*
X24585D02*
D03*
X24900D02*
D03*
X25215D02*
D03*
X25530D02*
D03*
X25845D02*
D03*
X26160D02*
D03*
X26475D02*
D03*
X23325Y48043D02*
D03*
X23640D02*
D03*
X23955D02*
D03*
X24270D02*
D03*
X24585D02*
D03*
X24900D02*
D03*
X25215D02*
D03*
X25530D02*
D03*
X25845D02*
D03*
X26160D02*
D03*
X26475D02*
D03*
D26*
X22557Y47275D02*
D03*
Y46960D02*
D03*
Y46645D02*
D03*
Y46330D02*
D03*
Y46015D02*
D03*
Y45700D02*
D03*
Y45385D02*
D03*
Y45070D02*
D03*
Y44755D02*
D03*
Y44440D02*
D03*
Y44125D02*
D03*
X27243Y47275D02*
D03*
Y46960D02*
D03*
Y46645D02*
D03*
Y46330D02*
D03*
Y46015D02*
D03*
Y45700D02*
D03*
Y45385D02*
D03*
Y45070D02*
D03*
Y44755D02*
D03*
Y44440D02*
D03*
Y44125D02*
D03*
D27*
X58800Y57165D02*
D03*
Y57835D02*
D03*
X60000Y44065D02*
D03*
Y44735D02*
D03*
X27000Y49935D02*
D03*
Y49265D02*
D03*
X26100Y49265D02*
D03*
Y49935D02*
D03*
X23100Y41935D02*
D03*
Y41265D02*
D03*
X29100Y49265D02*
D03*
Y49935D02*
D03*
X28000Y49265D02*
D03*
Y49935D02*
D03*
X62800Y57835D02*
D03*
Y57165D02*
D03*
X24000Y41265D02*
D03*
Y41935D02*
D03*
X24800Y49265D02*
D03*
Y49935D02*
D03*
X26800Y41265D02*
D03*
Y41935D02*
D03*
X25900Y41265D02*
D03*
Y41935D02*
D03*
X24900Y41265D02*
D03*
Y41935D02*
D03*
D28*
X52065Y50200D02*
D03*
X52735D02*
D03*
X50265D02*
D03*
X50935D02*
D03*
X48465D02*
D03*
X49135D02*
D03*
X46665D02*
D03*
X47335D02*
D03*
X30865Y37200D02*
D03*
X31535D02*
D03*
X53035Y42800D02*
D03*
X52365D02*
D03*
X73635Y39200D02*
D03*
X72965D02*
D03*
X70765Y40300D02*
D03*
X71435D02*
D03*
X73535Y41500D02*
D03*
X72865D02*
D03*
X73835Y45400D02*
D03*
X73165D02*
D03*
X72365Y50600D02*
D03*
X73035D02*
D03*
X72265Y53600D02*
D03*
X72935D02*
D03*
X31535Y38200D02*
D03*
X30865D02*
D03*
D29*
X49474Y53900D02*
D03*
X48726D02*
D03*
X45874D02*
D03*
X45126D02*
D03*
X41774D02*
D03*
X41026D02*
D03*
X52126D02*
D03*
X52874D02*
D03*
D30*
X20472Y44250D02*
D03*
Y44750D02*
D03*
Y45250D02*
D03*
Y45750D02*
D03*
Y46250D02*
D03*
Y46750D02*
D03*
Y47250D02*
D03*
Y47750D02*
D03*
Y48250D02*
D03*
Y48750D02*
D03*
Y49250D02*
D03*
Y49750D02*
D03*
Y50250D02*
D03*
Y50750D02*
D03*
Y51250D02*
D03*
D31*
Y41750D02*
D03*
Y41250D02*
D03*
Y40750D02*
D03*
Y40250D02*
D03*
Y39750D02*
D03*
Y39250D02*
D03*
Y38750D02*
D03*
D32*
X18583Y54508D02*
D03*
Y35492D02*
D03*
D33*
X40095Y47495D02*
Y47935D01*
X39200Y47300D02*
X39900D01*
X40095Y47495D01*
X55000Y53600D02*
X55248Y53848D01*
X55627D01*
X55146Y53454D02*
X55627D01*
X55239Y53061D02*
X55627D01*
X55051Y53651D02*
X55627D01*
X55000Y53600D02*
X55146Y53454D01*
X55000Y53300D02*
Y53600D01*
Y53300D02*
X55239Y53061D01*
X55300Y42400D02*
X56400Y43500D01*
X49300Y42400D02*
X55300D01*
X58200Y43500D02*
X58300Y43400D01*
X60883Y42573D02*
Y42987D01*
X60370Y43500D02*
X60883Y42987D01*
X45735Y41902D02*
X48802D01*
X56400Y43500D02*
X58200D01*
X61670Y54773D02*
Y55130D01*
X61400Y55300D02*
X61500D01*
X61670Y55130D01*
Y42573D02*
Y43021D01*
X61300Y43300D02*
Y44065D01*
X61276Y42573D02*
Y42924D01*
X61100Y43100D02*
X61591D01*
X61100D02*
X61300Y43300D01*
X61100Y43100D02*
X61276Y42924D01*
X61591Y43100D02*
X61670Y43021D01*
X55000Y41400D02*
X55248Y41648D01*
X55627D01*
X55051Y41451D02*
X55627D01*
X55146Y41254D02*
X55627D01*
X55000Y41400D02*
X55146Y41254D01*
X55039Y40861D02*
X55627D01*
X55000Y40900D02*
Y41400D01*
Y40900D02*
X55039Y40861D01*
X59111Y54211D02*
Y54773D01*
X54700Y34700D02*
X56700D01*
X44623Y35277D02*
X45000Y34900D01*
X54500D02*
X54700Y34700D01*
X56749Y34227D02*
Y34651D01*
X44623Y35277D02*
Y36065D01*
X45000Y34900D02*
X54500D01*
X57536Y45336D02*
Y46427D01*
X47000Y44264D02*
X48164D01*
X60883Y54773D02*
Y55217D01*
X60400Y55700D02*
X60883Y55217D01*
X56900Y55600D02*
X57000Y55700D01*
X42251Y50351D02*
X44400Y52500D01*
X56300Y39500D02*
Y40000D01*
X56200Y39900D02*
X56300D01*
X56176Y39876D02*
X56200Y39900D01*
Y39400D02*
X56300Y39500D01*
X56117Y39483D02*
X56200Y39400D01*
X55627Y39876D02*
X56176D01*
X55627Y40270D02*
X56030D01*
X55627Y39483D02*
X56117D01*
X59111Y42011D02*
Y42573D01*
X56946D02*
Y43146D01*
X62900Y45700D02*
X65800D01*
X59900Y45300D02*
X62500D01*
X57900Y43200D02*
X57930Y43170D01*
Y42573D02*
Y43170D01*
X62500Y45300D02*
X62900Y45700D01*
X58127Y56027D02*
X58700Y56600D01*
X58127Y54773D02*
Y56027D01*
X59700Y56500D02*
X67600D01*
X57930Y56430D02*
X58000Y56500D01*
X57930Y54773D02*
Y56430D01*
X67100Y52400D02*
X67600D01*
X64800Y50100D02*
X67100Y52400D01*
X61800Y50100D02*
X63100D01*
X57143Y53357D02*
Y54773D01*
X59500Y52900D02*
X60900Y51500D01*
X57600Y52900D02*
X59500D01*
X57143Y53357D02*
X57600Y52900D01*
X56800Y54100D02*
X56946Y54246D01*
Y54773D01*
X66300Y53500D02*
X67600D01*
X64600Y53100D02*
X65900D01*
X57339Y53661D02*
Y54773D01*
X57900Y53100D02*
X62400D01*
X57339Y53661D02*
X57900Y53100D01*
X65900D02*
X66300Y53500D01*
X63800Y54500D02*
X67600D01*
X57536Y54205D02*
Y54773D01*
Y54205D02*
X57942Y53800D01*
X63100D01*
X63800Y54500D01*
X59700Y56100D02*
X66400D01*
X67000Y55500D02*
X67600D01*
X57600Y56100D02*
X57733Y55967D01*
Y54773D02*
Y55967D01*
X66400Y56100D02*
X67000Y55500D01*
X58800Y57835D02*
X61100D01*
X59165D02*
X59300Y57700D01*
Y56300D02*
Y57700D01*
X58914Y55914D02*
X59300Y56300D01*
X58914Y54773D02*
Y55914D01*
X58335Y57165D02*
X58800D01*
X60000D02*
X61100D01*
X59735Y44735D02*
X62600D01*
X58914Y42573D02*
Y43914D01*
X62600Y43400D02*
Y44065D01*
X62300Y43100D02*
X62600Y43400D01*
X62300Y43100D02*
X62457Y42943D01*
Y42573D02*
Y42943D01*
X62200Y43100D02*
X62300D01*
X62064Y42573D02*
Y42964D01*
X60292Y43092D02*
X60300Y43100D01*
X60292Y42573D02*
Y43092D01*
X60000Y43300D02*
Y44065D01*
X60200Y43100D02*
X60300D01*
X60000Y43300D02*
X60200Y43100D01*
X58914Y43914D02*
X59735Y44735D01*
X64593Y51880D02*
X65200Y51273D01*
X63973Y51880D02*
X64593D01*
X60200Y50400D02*
X62800D01*
X56600Y48700D02*
X58500D01*
X42800D02*
X42851Y48649D01*
Y47935D02*
Y48649D01*
X58500Y48700D02*
X60200Y50400D01*
X55627Y47155D02*
X56255D01*
X51700Y50200D02*
X52065D01*
X51400Y49900D02*
X51700Y50200D01*
X40686Y48686D02*
X41100Y49100D01*
X40686Y47935D02*
Y48686D01*
X49800Y50200D02*
X50265D01*
X40292Y48892D02*
X40900Y49500D01*
X40292Y47935D02*
Y48892D01*
X47900Y50200D02*
X48465D01*
X39898Y49198D02*
X40500Y49800D01*
X39898Y47935D02*
Y49198D01*
X45900Y50200D02*
X46665D01*
X39702Y49702D02*
X40200Y50200D01*
X39702Y47935D02*
Y49702D01*
X47335Y50200D02*
Y50635D01*
X49135Y50235D02*
X49500Y50600D01*
X49135Y50200D02*
Y50235D01*
X51000Y50200D02*
X51400Y50600D01*
X50935Y50200D02*
X51000D01*
X52735D02*
X53300D01*
X67900Y33000D02*
Y35000D01*
X38520Y34780D02*
Y35980D01*
X34367Y39933D02*
X34500Y39800D01*
X33865Y39933D02*
X34367D01*
X64676Y52076D02*
X64700Y52100D01*
X63973Y52076D02*
X64676D01*
X61900Y51600D02*
X62900D01*
X56600Y51000D02*
X61300D01*
X54200Y51500D02*
X54700Y52000D01*
X43048Y47935D02*
Y49748D01*
X61300Y51000D02*
X61900Y51600D01*
X44800Y51500D02*
X54200D01*
X43048Y49748D02*
X44800Y51500D01*
X61276Y54773D02*
Y55324D01*
X56749Y54773D02*
Y55151D01*
X42457Y47935D02*
Y49957D01*
X56500Y55400D02*
X56749Y55151D01*
X42457Y49957D02*
X44700Y52200D01*
X44889Y51289D02*
X55627D01*
X43245Y47935D02*
Y49645D01*
X44889Y51289D01*
X45892Y51092D02*
X55627D01*
X43639Y47935D02*
Y48839D01*
X45892Y51092D01*
X46095Y50895D02*
X55627D01*
X44032Y47935D02*
Y48832D01*
X46095Y50895D01*
X45117Y49517D02*
X55627D01*
X44229Y47935D02*
Y48629D01*
X45117Y49517D01*
X54120Y49320D02*
X55627D01*
X44426Y47935D02*
Y48526D01*
X44800Y48900D01*
X53700D01*
X54120Y49320D01*
X54224Y49124D02*
X55627D01*
X44623Y47935D02*
Y48423D01*
X53800Y48700D02*
X54224Y49124D01*
X44900Y48700D02*
X53800D01*
X44623Y48423D02*
X44900Y48700D01*
X54433Y48533D02*
X55627D01*
X45735Y46626D02*
X52526D01*
X54433Y48533D01*
X54536Y48336D02*
X55627D01*
X52629Y46429D02*
X54536Y48336D01*
X45735Y46429D02*
X52629D01*
X54546Y47746D02*
X55627D01*
X45735Y46232D02*
X53032D01*
X54546Y47746D01*
X54749Y47549D02*
X55627D01*
X45735Y45642D02*
X46742D01*
X53100Y45900D02*
X54749Y47549D01*
X47000Y45900D02*
X53100D01*
X46742Y45642D02*
X47000Y45900D01*
X55052Y47352D02*
X55627D01*
X45735Y45445D02*
X46945D01*
X47200Y45700D01*
X53400D01*
X55052Y47352D01*
X56749Y45749D02*
Y46427D01*
X45735Y45248D02*
X47748D01*
X56400Y45400D02*
X56749Y45749D01*
X47900Y45400D02*
X56400D01*
X47748Y45248D02*
X47900Y45400D01*
X57143Y45743D02*
Y46427D01*
X45735Y45051D02*
X47951D01*
X48100Y45200D01*
X56600D01*
X57143Y45743D01*
X57339Y45539D02*
Y46427D01*
X45735Y44854D02*
X48254D01*
X56800Y45000D02*
X57339Y45539D01*
X48400Y45000D02*
X56800D01*
X48254Y44854D02*
X48400Y45000D01*
X48164Y44264D02*
X48700Y44800D01*
X57000D01*
X57536Y45336D01*
X58127Y45327D02*
Y46427D01*
X45735Y43673D02*
X48473D01*
X57400Y44600D02*
X58127Y45327D01*
X49400Y44600D02*
X57400D01*
X48473Y43673D02*
X49400Y44600D01*
X58717Y45417D02*
Y46427D01*
X45735Y43476D02*
X48576D01*
X49500Y44400D01*
X57700D01*
X58717Y45417D01*
X58914Y45314D02*
Y46427D01*
X45735Y43280D02*
X48680D01*
X57800Y44200D02*
X58914Y45314D01*
X49600Y44200D02*
X57800D01*
X48680Y43280D02*
X49600Y44200D01*
X45289Y42689D02*
X45735D01*
X45000Y42400D02*
X45289Y42689D01*
X59111Y45111D02*
Y46427D01*
X45735Y42492D02*
X48292D01*
X49700Y43900D01*
X57900D01*
X59111Y45111D01*
X59308Y44908D02*
Y46427D01*
X49800Y43700D02*
X58100D01*
X45735Y42295D02*
X48395D01*
X58100Y43700D02*
X59308Y44908D01*
X48395Y42295D02*
X49800Y43700D01*
X59308Y32908D02*
Y34227D01*
X42457Y33643D02*
Y36065D01*
X58000Y31600D02*
X59308Y32908D01*
X44500Y31600D02*
X58000D01*
X42457Y33643D02*
X44500Y31600D01*
X59111Y33011D02*
Y34227D01*
X42851Y33649D02*
Y36065D01*
Y33649D02*
X44700Y31800D01*
X57900D01*
X59111Y33011D01*
X58914Y33114D02*
Y34227D01*
X43048Y33952D02*
Y36065D01*
X57800Y32000D02*
X58914Y33114D01*
X45000Y32000D02*
X57800D01*
X43048Y33952D02*
X45000Y32000D01*
X58717Y33417D02*
Y34227D01*
X43245Y34155D02*
Y36065D01*
Y34155D02*
X45200Y32200D01*
X57500D01*
X58717Y33417D01*
X58127Y33127D02*
Y34227D01*
X43442Y34258D02*
Y36065D01*
X57700Y32700D02*
X58127Y33127D01*
X45000Y32700D02*
X57700D01*
X43442Y34258D02*
X45000Y32700D01*
X57536Y33336D02*
Y34227D01*
X43639Y34361D02*
Y36065D01*
Y34361D02*
X45100Y32900D01*
X57100D01*
X57536Y33336D01*
X57339Y33439D02*
Y34227D01*
X44032Y34468D02*
Y36065D01*
X57100Y33200D02*
X57339Y33439D01*
X45300Y33200D02*
X57100D01*
X44032Y34468D02*
X45300Y33200D01*
X57143Y33543D02*
Y34227D01*
X44426Y34474D02*
Y36065D01*
Y34474D02*
X45500Y33400D01*
X57000D01*
X57143Y33543D01*
X45700Y41500D02*
X53400D01*
X56946Y34227D02*
Y38754D01*
X53400Y41500D02*
X54700Y40200D01*
X56155Y34955D02*
X56300Y35100D01*
X55627Y34955D02*
X56155D01*
X56127Y34227D02*
X56355D01*
X56700Y34700D02*
X56749Y34651D01*
X44820Y35480D02*
Y36065D01*
X45148Y35152D02*
X55627D01*
X44820Y35480D02*
X45148Y35152D01*
X52551Y35349D02*
X55627D01*
X45735Y37768D02*
X50132D01*
X52551Y35349D01*
X52954Y35546D02*
X55627D01*
X45735Y37965D02*
X50535D01*
X52954Y35546D01*
X53464Y36136D02*
X55627D01*
X45735Y38555D02*
X51045D01*
X53464Y36136D01*
X53867Y36333D02*
X55627D01*
X45735Y38752D02*
X51448D01*
X53867Y36333D01*
X53676Y36924D02*
X55627D01*
X45735Y38949D02*
X51651D01*
X53676Y36924D01*
X53880Y37120D02*
X55627D01*
X45735Y39146D02*
X51854D01*
X53880Y37120D01*
X54183Y37317D02*
X55627D01*
X45735Y39343D02*
X52157D01*
X54183Y37317D01*
X53805Y38695D02*
X55627D01*
X45735Y39736D02*
X52764D01*
X53805Y38695D01*
X54508Y38892D02*
X55627D01*
X45735Y40720D02*
X52680D01*
X54508Y38892D01*
X54700Y39100D02*
X55700D01*
X45735Y41114D02*
X52686D01*
X54700Y39100D01*
X48802Y41902D02*
X49300Y42400D01*
X56749Y42149D02*
Y42573D01*
X45735Y41705D02*
X49005D01*
X49400Y42100D01*
X56700D01*
X56749Y42149D01*
X55627Y41845D02*
X56055D01*
X56300Y41600D01*
X34430Y40130D02*
X34500Y40200D01*
X33865Y40130D02*
X34430D01*
X34600Y36300D02*
X34780Y36120D01*
X35765Y36065D02*
Y36865D01*
X36158Y36065D02*
Y36642D01*
X37900Y36700D02*
X37930Y36670D01*
Y36065D02*
Y36670D01*
X39500Y35600D02*
Y36100D01*
X39400Y35500D02*
X39500Y35600D01*
X39111Y36511D02*
X39300Y36700D01*
X39111Y36065D02*
Y36511D01*
X40700Y36700D02*
X40883Y36517D01*
Y36065D02*
Y36517D01*
X42064Y36065D02*
Y36636D01*
X42654Y36065D02*
Y36654D01*
X45261Y38161D02*
X45735D01*
X45100Y38000D02*
X45261Y38161D01*
X45100Y37400D02*
X45323Y37177D01*
X45271Y37571D02*
X45735D01*
X45323Y37177D02*
X45735D01*
X45100Y37400D02*
X45271Y37571D01*
X45126Y37374D02*
X45735D01*
X45242Y38358D02*
X45735D01*
X45000Y38600D02*
X45242Y38358D01*
X45230Y40130D02*
X45735D01*
X45100Y40000D02*
X45230Y40130D01*
X45273Y40327D02*
X45735D01*
X45100Y40500D02*
X45273Y40327D01*
X45289Y41311D02*
X45735D01*
X45100Y41500D02*
X45289Y41311D01*
X45183Y43083D02*
X45735D01*
X45100Y43000D02*
X45183Y43083D01*
X45130Y43870D02*
X45735D01*
X45333Y44067D02*
X45735D01*
X44900Y44500D02*
X45333Y44067D01*
X46165Y46035D02*
X46300Y45900D01*
X45735Y46035D02*
X46165D01*
X45161Y45839D02*
X45735D01*
X43442Y47442D02*
Y47935D01*
X43100Y47300D02*
X43300D01*
X43442Y47442D01*
X43835Y47335D02*
Y47935D01*
X41670Y47330D02*
Y47935D01*
X40489Y47389D02*
Y47935D01*
X40400Y47300D02*
X40489Y47389D01*
X38717Y47317D02*
Y47935D01*
X33865Y47020D02*
X34480D01*
X34370Y43870D02*
X34600Y44100D01*
X33865Y43870D02*
X34370D01*
X34327Y43673D02*
X34500Y43500D01*
X33865Y43673D02*
X34327D01*
X33865Y43083D02*
X34317D01*
X33865Y45642D02*
X34442D01*
X33439Y45839D02*
X33865D01*
X33300Y45700D02*
X33439Y45839D01*
X63245Y42145D02*
Y42573D01*
X63000Y41900D02*
X63245Y42145D01*
X62851Y42049D02*
X63000Y41900D01*
X62851Y42049D02*
Y42573D01*
X62900Y43200D02*
X63048Y43052D01*
Y42573D02*
Y43052D01*
X62654Y42954D02*
X62900Y43200D01*
X62654Y42573D02*
Y42954D01*
X62261Y41961D02*
Y42573D01*
X62239Y41961D02*
X62261D01*
X62064Y42964D02*
X62200Y43100D01*
X61867Y42573D02*
Y43167D01*
X61473Y42027D02*
Y42573D01*
Y42027D02*
X61600Y41900D01*
X61200D02*
X61600D01*
X61080Y42020D02*
Y42573D01*
Y42020D02*
X61200Y41900D01*
X60489Y41911D02*
Y42573D01*
Y41911D02*
X60500Y41900D01*
X59505Y42095D02*
Y42573D01*
Y42095D02*
X59600Y42000D01*
X59300Y43100D02*
X59308Y43092D01*
Y42573D02*
Y43092D01*
X58717Y42117D02*
Y42573D01*
X58600Y42000D02*
X58717Y42117D01*
X58520Y42080D02*
Y42573D01*
Y42080D02*
X58600Y42000D01*
X56027Y42573D02*
X56355D01*
X63345Y34955D02*
X63973D01*
X63300Y35000D02*
X63345Y34955D01*
X63451Y35349D02*
X63973D01*
X64500Y35300D02*
Y35400D01*
X64354Y35546D02*
X64500Y35400D01*
X64352Y35152D02*
X64500Y35300D01*
X63973Y35546D02*
X64354D01*
X63973Y35152D02*
X64352D01*
X63424Y36924D02*
X63973D01*
X64383Y37317D02*
X64500Y37200D01*
X63973Y37317D02*
X64383D01*
X64420Y37120D02*
X64500Y37200D01*
X63973Y37120D02*
X64420D01*
X63402Y38302D02*
X63973D01*
X63300Y38200D02*
X63402Y38302D01*
X63973Y38695D02*
X64405D01*
X64500Y38600D01*
X64398Y38498D02*
X64500Y38600D01*
X63973Y38498D02*
X64398D01*
X63408Y38892D02*
X63973D01*
Y39286D02*
X64586D01*
X64436Y40664D02*
X64600Y40500D01*
X63973Y40664D02*
X64436D01*
X64370Y40270D02*
X64600Y40500D01*
X63973Y40270D02*
X64370D01*
X63461Y40861D02*
X63973D01*
X63433Y40833D02*
X63461Y40861D01*
X63433Y40467D02*
X63973D01*
X63433D02*
Y40833D01*
X63443Y41057D02*
X63973D01*
X63351Y41451D02*
X63973D01*
X63200Y41300D02*
X63351Y41451D01*
X63200Y41300D02*
X63443Y41057D01*
X64455Y41845D02*
X64500Y41800D01*
X63973Y41845D02*
X64455D01*
X64452Y41648D02*
X64500Y41600D01*
X63973Y41648D02*
X64452D01*
X64500Y41400D02*
Y41800D01*
X64354Y41254D02*
X64500Y41400D01*
X63973Y41254D02*
X64354D01*
X63245Y34227D02*
X63527D01*
X62654Y33754D02*
Y34227D01*
X62600Y33700D02*
X62654Y33754D01*
X62400Y33700D02*
X62600D01*
X62261Y33839D02*
Y34227D01*
Y33839D02*
X62400Y33700D01*
X62300Y34800D02*
X62457Y34643D01*
X61900Y34800D02*
X62300D01*
X62457Y34227D02*
Y34643D01*
X61900Y34800D02*
X62064Y34636D01*
Y34227D02*
Y34636D01*
X61080Y33820D02*
Y34227D01*
Y33820D02*
X61300Y33600D01*
X60883Y33783D02*
Y34227D01*
X60800Y33700D02*
X60883Y33783D01*
X60686Y34586D02*
X60900Y34800D01*
X60686Y34227D02*
Y34586D01*
X60489Y33789D02*
Y34227D01*
X60400Y33700D02*
X60489Y33789D01*
X59898Y33798D02*
Y34227D01*
X59800Y33700D02*
X59898Y33798D01*
X59800Y33700D02*
X60400D01*
X59702Y34227D02*
Y34798D01*
X58520Y33820D02*
Y34227D01*
X58400Y33700D02*
X58520Y33820D01*
X58324Y34724D02*
X58400Y34800D01*
X58324Y34227D02*
Y34724D01*
X57930Y33830D02*
Y34227D01*
X57800Y33700D02*
X57930Y33830D01*
X57733Y34733D02*
X57900Y34900D01*
X57733Y34227D02*
Y34733D01*
X56552Y33852D02*
Y34227D01*
X56400Y33700D02*
X56552Y33852D01*
X55100Y35900D02*
X55257Y35743D01*
X55627D01*
Y35939D02*
X56139D01*
X55170Y36530D02*
X55627D01*
X55100Y36600D02*
X55170Y36530D01*
X55627Y36727D02*
X56173D01*
X56086Y37514D02*
X56200Y37400D01*
X55627Y37514D02*
X56086D01*
X55627Y37908D02*
X56092D01*
X56200Y37800D01*
Y38300D02*
X56300Y38200D01*
X56098Y38302D02*
X56200Y38200D01*
X55627Y38302D02*
X56098D01*
X55198Y38498D02*
X55627D01*
X55095Y38105D02*
X55627D01*
X55000Y38300D02*
X55198Y38498D01*
X55189Y37711D02*
X55627D01*
X55000Y37900D02*
X55189Y37711D01*
X55000Y37900D02*
Y38300D01*
Y38200D02*
X55095Y38105D01*
X55180Y39680D02*
X55627D01*
X55114Y39286D02*
X55627D01*
X55000Y39500D02*
X55180Y39680D01*
X55000Y39400D02*
X55114Y39286D01*
X56030Y40270D02*
X56300Y40000D01*
X55167Y40467D02*
X55627D01*
X55227Y40073D02*
X55627D01*
X55100Y40400D02*
X55167Y40467D01*
X55100Y40200D02*
X55227Y40073D01*
X55100Y40200D02*
Y40400D01*
X56143Y41057D02*
X56400Y40800D01*
X55627Y41057D02*
X56143D01*
X56225Y40664D02*
X56381Y40819D01*
X55627Y40664D02*
X56225D01*
X56027Y54773D02*
X56355D01*
X58717Y54317D02*
Y54773D01*
X58600Y54200D02*
X58717Y54317D01*
X58520Y54280D02*
X58600Y54200D01*
X58520Y54280D02*
Y54773D01*
X59300Y55300D02*
X59308Y55292D01*
Y54773D02*
Y55292D01*
X59505Y54295D02*
X59600Y54200D01*
X59505Y54295D02*
Y54773D01*
X60292Y55292D02*
X60300Y55300D01*
X60292Y54773D02*
Y55292D01*
X60489Y54111D02*
Y54773D01*
Y54111D02*
X60500Y54100D01*
X61473Y54227D02*
Y54773D01*
Y54227D02*
X61600Y54100D01*
X61080Y54220D02*
Y54773D01*
X61200Y54100D02*
X61600D01*
X61080Y54220D02*
X61200Y54100D01*
X62261Y54161D02*
Y54773D01*
X62239Y54161D02*
X62261D01*
X62300Y55300D02*
X62457Y55143D01*
Y54773D02*
Y55143D01*
X62200Y55300D02*
X62300D01*
X62064Y54773D02*
Y55164D01*
X62200Y55300D01*
X61867Y54773D02*
Y55367D01*
X63245Y54345D02*
Y54773D01*
X63000Y54100D02*
X63245Y54345D01*
X62851Y54249D02*
Y54773D01*
Y54249D02*
X63000Y54100D01*
X62900Y55400D02*
X63048Y55252D01*
Y54773D02*
Y55252D01*
X62654Y55154D02*
X62900Y55400D01*
X62654Y54773D02*
Y55154D01*
X64500Y53600D02*
Y54000D01*
X64452Y53848D02*
X64500Y53800D01*
X63973Y54045D02*
X64455D01*
X63973Y53848D02*
X64452D01*
X64354Y53454D02*
X64500Y53600D01*
X63973Y53454D02*
X64354D01*
X64455Y54045D02*
X64500Y54000D01*
X63351Y53651D02*
X63973D01*
X63443Y53257D02*
X63973D01*
X63200Y53500D02*
X63351Y53651D01*
X63200Y53500D02*
X63443Y53257D01*
X63461Y53061D02*
X63973D01*
X63433Y52667D02*
Y53033D01*
Y52667D02*
X63973D01*
X63573Y52273D02*
X63973D01*
X63417Y51683D02*
X63973D01*
X63200Y51900D02*
X63573Y52273D01*
X63200Y51900D02*
X63417Y51683D01*
X63433Y53033D02*
X63461Y53061D01*
X64436Y52864D02*
X64600Y52700D01*
X63973Y52864D02*
X64436D01*
X64370Y52470D02*
X64600Y52700D01*
X63973Y52470D02*
X64370D01*
X63973Y51486D02*
X64586D01*
X63408Y51092D02*
X63973D01*
X64405Y50895D02*
X64500Y50800D01*
X63973Y50895D02*
X64405D01*
X64398Y50698D02*
X64500Y50800D01*
X63973Y50698D02*
X64398D01*
X63402Y50502D02*
X63973D01*
X63300Y50400D02*
X63402Y50502D01*
X64383Y49517D02*
X64500Y49400D01*
X63973Y49517D02*
X64383D01*
X64420Y49320D02*
X64500Y49400D01*
X63973Y49320D02*
X64420D01*
X63424Y49124D02*
X63973D01*
X64500Y47500D02*
Y47600D01*
X64352Y47352D02*
X64500Y47500D01*
X63973Y47746D02*
X64354D01*
X63973Y47352D02*
X64352D01*
X64354Y47746D02*
X64500Y47600D01*
X63451Y47549D02*
X63973D01*
X63345Y47155D02*
X63973D01*
X63300Y47200D02*
X63345Y47155D01*
X63245Y46427D02*
X63527D01*
X62654Y45954D02*
Y46427D01*
X62400Y45900D02*
X62600D01*
X62261Y46039D02*
Y46427D01*
Y46039D02*
X62400Y45900D01*
X62600D02*
X62654Y45954D01*
X62457Y46427D02*
Y46843D01*
X62064Y46427D02*
Y46836D01*
X61900Y47000D02*
X62300D01*
X61900D02*
X62064Y46836D01*
X62300Y47000D02*
X62457Y46843D01*
X61080Y46020D02*
Y46427D01*
Y46020D02*
X61300Y45800D01*
X60883Y45983D02*
Y46427D01*
X60800Y45900D02*
X60883Y45983D01*
X60686Y46786D02*
X60900Y47000D01*
X60686Y46427D02*
Y46786D01*
X59898Y45998D02*
Y46427D01*
X60489Y45989D02*
Y46427D01*
X59800Y45900D02*
X60400D01*
X59800D02*
X59898Y45998D01*
X60400Y45900D02*
X60489Y45989D01*
X59702Y46427D02*
Y46998D01*
X58520Y46020D02*
Y46427D01*
X58400Y45900D02*
X58520Y46020D01*
X58324Y46924D02*
X58400Y47000D01*
X58324Y46427D02*
Y46924D01*
X57930Y46030D02*
Y46427D01*
X57800Y45900D02*
X57930Y46030D01*
X57733Y46933D02*
X57900Y47100D01*
X57733Y46427D02*
Y46933D01*
X56552Y46052D02*
Y46427D01*
X56400Y45900D02*
X56552Y46052D01*
X55257Y47943D02*
X55627D01*
X55100Y48100D02*
X55257Y47943D01*
X55170Y48730D02*
X55627D01*
X55100Y48800D02*
X55170Y48730D01*
X55627Y48139D02*
X56139D01*
X56086Y49714D02*
X56200Y49600D01*
X55627Y48927D02*
X56173D01*
X55627Y49714D02*
X56086D01*
X56092Y50108D02*
X56200Y50000D01*
X55627Y50108D02*
X56092D01*
X56200Y50500D02*
X56300Y50400D01*
X56098Y50502D02*
X56200Y50400D01*
X55627Y50502D02*
X56098D01*
X55000Y50100D02*
Y50500D01*
X55198Y50698D02*
X55627D01*
X55095Y50305D02*
X55627D01*
X55189Y49911D02*
X55627D01*
X55000Y50400D02*
X55095Y50305D01*
X55000Y50100D02*
X55189Y49911D01*
X55000Y50500D02*
X55198Y50698D01*
X56300Y51700D02*
Y52200D01*
X56200Y51600D02*
X56300Y51700D01*
X55627Y51683D02*
X56117D01*
X55627Y52470D02*
X56030D01*
X56117Y51683D02*
X56200Y51600D01*
X56176Y52076D02*
X56200Y52100D01*
X55627Y52076D02*
X56176D01*
X56030Y52470D02*
X56300Y52200D01*
X55167Y52667D02*
X55627D01*
X55227Y52273D02*
X55627D01*
X55100Y52600D02*
X55167Y52667D01*
X55100Y52400D02*
Y52600D01*
Y52400D02*
X55227Y52273D01*
X55180Y51880D02*
X55627D01*
X55000Y51700D02*
X55180Y51880D01*
X55114Y51486D02*
X55627D01*
X55000Y51600D02*
X55114Y51486D01*
X56143Y53257D02*
X56400Y53000D01*
X55627Y53257D02*
X56143D01*
X56225Y52864D02*
X56381Y53019D01*
X55627Y52864D02*
X56225D01*
X55627Y54045D02*
X56355D01*
X38324Y34476D02*
X39100Y33700D01*
X66100Y31200D02*
X67900Y33000D01*
Y35000D02*
X70600Y37700D01*
X45900Y31000D02*
X64200D01*
X38520Y34780D02*
X38767Y34533D01*
X27243Y44125D02*
X30125D01*
X29100Y44700D02*
Y45300D01*
X30800Y46700D02*
Y47200D01*
X30754Y43946D02*
Y44700D01*
Y43946D02*
X32208Y42492D01*
X30125Y44125D02*
X30800Y44800D01*
X32208Y42492D02*
X33865D01*
X52800Y52200D02*
X56000Y55400D01*
X44700Y52200D02*
X52800D01*
X56000Y55400D02*
X56500D01*
X44400Y52500D02*
X52500D01*
X55600Y55600D01*
X56900D01*
X37339Y35461D02*
Y36065D01*
X38324Y34476D02*
Y36065D01*
X70600Y37700D02*
Y40300D01*
X40409Y34500D02*
Y35431D01*
X40489Y35511D01*
X41591Y33809D02*
Y34500D01*
X33865Y40917D02*
X34429D01*
X34456Y40944D01*
X33865Y38358D02*
X34442D01*
X33276Y40524D02*
X33865D01*
X33200Y39736D02*
X33865D01*
X33164Y39700D02*
X33200Y39736D01*
X32700Y39700D02*
X32743D01*
X33100Y39343D01*
X33865D01*
X32800Y38300D02*
X32939Y38161D01*
X33865D01*
D34*
X39111Y47389D02*
X39200Y47300D01*
X39111Y47389D02*
Y47935D01*
X53035Y42800D02*
X53500D01*
X53900Y42400D01*
X33211Y41311D02*
X33865D01*
X33100Y41200D02*
X33211Y41311D01*
X33111Y42689D02*
X33865D01*
X33000Y42800D02*
X33111Y42689D01*
X46639Y44461D02*
X46700Y44400D01*
X45735Y44461D02*
X46639D01*
X46836Y44100D02*
X47000Y44264D01*
X45735D02*
X46336D01*
X46500Y44100D01*
X46836D01*
X45183Y40917D02*
X45735D01*
X45139Y39539D02*
X45735D01*
Y36665D02*
Y36980D01*
X43800Y36600D02*
X43835Y36565D01*
Y36065D02*
Y36565D01*
X44229Y36065D02*
Y36671D01*
X40489Y35511D02*
Y36065D01*
X62165Y57165D02*
X62800D01*
X41473Y47935D02*
Y48573D01*
X62935Y57835D02*
X63200Y58100D01*
X62800Y57835D02*
X62935D01*
X51800Y42800D02*
X52365D01*
X48498Y42098D02*
X49700Y43300D01*
X56946Y46427D02*
Y46854D01*
X55600Y46000D02*
X56000Y46400D01*
X49700Y43300D02*
X55100D01*
X45735Y42098D02*
X48498D01*
X45035Y47935D02*
X45200Y48100D01*
X44820Y47935D02*
X45035D01*
X42261D02*
Y48439D01*
X42100Y48600D02*
X42261Y48439D01*
X33865Y44461D02*
X34461D01*
X34421Y44500D02*
X34461Y44461D01*
X71300Y51626D02*
X72326Y50600D01*
X41300Y50900D02*
X43200Y52800D01*
X40800Y50400D02*
Y50500D01*
X41080Y47935D02*
Y48692D01*
X41500Y49112D01*
Y49700D01*
X40800Y50400D02*
X41500Y49700D01*
X43200Y52800D02*
X49200D01*
X52200Y55800D01*
X56400D01*
X57000Y56400D01*
Y57100D01*
X58600Y58700D01*
X68300D01*
X71300Y55700D01*
Y51626D02*
Y55700D01*
X39700Y52000D02*
X41800Y49900D01*
X72226Y53600D02*
Y55874D01*
X41276Y47935D02*
Y48676D01*
X41800Y49200D02*
Y49900D01*
X41276Y48676D02*
X41800Y49200D01*
X42251Y49351D02*
Y50351D01*
X41473Y48573D02*
X42251Y49351D01*
X39700Y52000D02*
Y58700D01*
X40300Y59300D01*
X68800D01*
X72226Y55874D01*
X73000Y50700D02*
X73100Y50600D01*
X77300D01*
X73522Y53052D02*
X77300D01*
X72974Y53600D02*
X73522Y53052D01*
X58200Y41400D02*
X60600D01*
X66500Y43500D02*
X67700D01*
X65700Y42700D02*
X66500Y43500D01*
X60700Y41300D02*
X62000D01*
X57339Y43039D02*
X57400Y43100D01*
X57339Y42573D02*
Y43039D01*
X58000Y41600D02*
X58200Y41400D01*
X57536Y41664D02*
Y42573D01*
X58000Y41200D02*
X60200D01*
X66900Y44500D02*
X67700D01*
X64700Y42300D02*
X66900Y44500D01*
X60400Y41000D02*
X62400D01*
X57536Y41664D02*
X58000Y41200D01*
X58700Y40300D02*
X59320Y39680D01*
X63973D01*
X45735Y40524D02*
X46976D01*
X47200Y40300D02*
X52200D01*
X59524Y39876D02*
X63973D01*
X59400Y40000D02*
X59524Y39876D01*
X52333Y39933D02*
X52700Y40300D01*
X45735Y39933D02*
X52333D01*
X60600Y41400D02*
X60700Y41300D01*
X60200Y41200D02*
X60400Y41000D01*
X60200Y41600D02*
X63100D01*
X67100Y45500D02*
X67700D01*
X63300Y41900D02*
X63700Y42300D01*
X63300Y41800D02*
Y41900D01*
X63100Y41600D02*
X63300Y41800D01*
X57733Y42167D02*
Y42573D01*
X66400Y40500D02*
X67700D01*
X60000Y40900D02*
X60600Y40300D01*
X61100D01*
X64900Y39000D02*
X66400Y40500D01*
X58500Y43200D02*
X58600D01*
X58127Y42573D02*
Y43027D01*
X58200Y43100D01*
X58400D01*
X58500Y43200D01*
X57733Y42167D02*
X58000Y41900D01*
X58300D01*
X58500Y41700D01*
X60100D01*
X60200Y41600D01*
X63700Y42300D02*
X63900D01*
X67100Y45500D01*
X57143Y41243D02*
Y42573D01*
X59600Y37900D02*
X62800D01*
X57000Y40500D02*
X59600Y37900D01*
X57000Y40500D02*
Y41100D01*
X57143Y41243D01*
X46976Y40524D02*
X47200Y40300D01*
X64427Y40073D02*
X64700Y39800D01*
X63973Y40073D02*
X64427D01*
X64383Y39483D02*
X64700Y39800D01*
X63973Y39483D02*
X64383D01*
X56327Y46427D02*
X56355D01*
X56000Y45900D02*
Y46100D01*
X56327Y46427D01*
X56000Y46700D02*
X56200Y46900D01*
X56000Y46400D02*
Y46700D01*
X56900Y46900D02*
X56946Y46854D01*
X56200Y46900D02*
X56900D01*
X55627Y46827D02*
Y47155D01*
X30300Y37200D02*
X30865D01*
X30300Y38200D02*
X30865D01*
X32668Y37768D02*
X33865D01*
X31535Y37200D02*
X32100D01*
X32668Y37768D01*
X32235Y37965D02*
X33865D01*
X32000Y38200D02*
X32235Y37965D01*
X31535Y38200D02*
X32000D01*
X35765Y47935D02*
Y48465D01*
X36946Y47935D02*
Y48446D01*
X35371Y47471D02*
Y47935D01*
X34900Y47300D02*
X35200D01*
X35371Y47471D01*
X37536Y47464D02*
Y47935D01*
Y47464D02*
X37700Y47300D01*
X33865Y39539D02*
X34361D01*
X34400Y39000D02*
X34600Y38800D01*
X34400Y39000D02*
Y39500D01*
X34361Y39539D02*
X34400Y39500D01*
X45343Y44657D02*
X45735D01*
X44800Y45200D02*
X45343Y44657D01*
X35900Y45200D02*
X41000D01*
X42700D02*
X44800D01*
X33100Y43800D02*
Y45300D01*
X32300Y43000D02*
X33100Y43800D01*
X28900Y42800D02*
X30500Y41200D01*
X45735Y42886D02*
X46386D01*
X40800Y42100D02*
X42700D01*
X36100D02*
X38500D01*
X30900Y40800D02*
X32200Y42100D01*
X30400Y40800D02*
X30900D01*
X25069Y42650D02*
X28550D01*
X24900Y42819D02*
X25069Y42650D01*
X24900Y42819D02*
Y43300D01*
X28550Y42650D02*
X30400Y40800D01*
X25215Y42885D02*
Y43357D01*
Y42885D02*
X25300Y42800D01*
X28900D01*
X25900Y53100D02*
Y53400D01*
X25300Y53900D02*
X25400D01*
X25900Y53400D01*
X41774Y53900D02*
X41900D01*
X42400Y53400D01*
X45874Y53900D02*
X45900D01*
X46516Y53284D01*
X52874Y53674D02*
Y53900D01*
X52500Y53300D02*
X52874Y53674D01*
X49474Y53474D02*
Y53900D01*
X49300Y53300D02*
X49474Y53474D01*
X33865Y43083D02*
X34417D01*
X34500Y43000D01*
X51500Y53900D02*
X52100D01*
X48000D02*
X48800D01*
X44400D02*
X45100D01*
X40300D02*
X41000D01*
X33100Y40300D02*
X33800D01*
D35*
X66000Y49091D02*
X66691D01*
X66000Y47200D02*
Y47909D01*
X66200Y35991D02*
Y36600D01*
Y34200D02*
Y34809D01*
X47400Y47600D02*
X48009D01*
X49191Y47009D02*
Y47600D01*
X50709Y47009D02*
Y47600D01*
X50100D02*
X50709D01*
X51891D02*
X52600D01*
X48909Y35809D02*
Y36500D01*
X50091D02*
X50800D01*
X50091Y35809D02*
Y36500D01*
X51900Y34100D02*
X52509D01*
X53691D02*
X54300D01*
X48300D02*
X48909D01*
X50000Y34000D02*
X50700D01*
X31550Y51150D02*
X34050D01*
X31600Y52251D02*
X33451D01*
X37800Y56600D01*
Y57400D01*
X31560Y58200D02*
X34500D01*
X35300Y57400D01*
X31560Y57560D02*
Y58200D01*
X28200D02*
X29000D01*
X23851Y55300D02*
Y55651D01*
X24030Y55830D01*
X20472Y49750D02*
X21150D01*
X20472Y48750D02*
X21150D01*
X20472Y45250D02*
X21150D01*
X20472Y46750D02*
X21150D01*
X20472Y45750D02*
X21150D01*
X20472Y46250D02*
X21150D01*
X20472Y47250D02*
X21150D01*
X20472Y47750D02*
X21150D01*
X20472Y48250D02*
X21150D01*
X20472Y44750D02*
X21150D01*
X20472Y44250D02*
X21150D01*
X23640Y42740D02*
Y43357D01*
X23851Y53151D02*
Y53800D01*
X23800Y53900D02*
X24300Y54400D01*
X25400D01*
X22200Y53800D02*
X22749D01*
X22200Y55300D02*
X22749D01*
X25350Y55160D02*
X26340D01*
X24400Y56500D02*
X25350D01*
X24200Y56300D02*
X24400Y56500D01*
X24200Y55830D02*
Y56300D01*
X24030Y55830D02*
X25350D01*
X26430Y55250D02*
X30200D01*
X20472Y41750D02*
X21150D01*
X20472Y40250D02*
X21150D01*
X20472Y38750D02*
X21150D01*
D36*
X64200Y31000D02*
X67000Y33800D01*
Y37000D01*
X71047Y42347D02*
Y42750D01*
X73574Y41500D02*
Y42274D01*
X75000Y43700D02*
X75800D01*
X71047Y43250D02*
X71550D01*
X72600Y42200D02*
X73574D01*
X71550Y43250D02*
X72600Y42200D01*
X73065Y37035D02*
Y37600D01*
X73600Y40700D02*
X75800D01*
X71474Y40300D02*
X73200D01*
X73600Y40700D01*
X73674Y39200D02*
Y40074D01*
X72926Y38474D02*
X73700Y37700D01*
X72926Y38474D02*
Y39200D01*
X74935Y38800D02*
X75800D01*
X73735Y37600D02*
X74935Y38800D01*
X69600Y46800D02*
X70209D01*
X70465Y44865D02*
Y45400D01*
X71391Y45656D02*
Y46800D01*
Y45900D02*
X71800D01*
X71135Y45400D02*
X71391Y45656D01*
X71135Y44338D02*
Y45400D01*
X71047Y44250D02*
X71135Y44338D01*
X75100Y45400D02*
X75800Y44700D01*
X73874Y45400D02*
X75100D01*
X73126Y44674D02*
X73153Y44647D01*
X73126Y44674D02*
Y45400D01*
X73153Y44250D02*
Y44647D01*
X72650Y43750D02*
X73153D01*
X72650Y43250D02*
X73153D01*
X72400Y43500D02*
X72650Y43750D01*
X72400Y43500D02*
X72650Y43250D01*
X72826Y40826D02*
Y41500D01*
X73574Y42274D02*
X75000Y43700D01*
X69900Y39900D02*
Y42950D01*
X70700Y43750D01*
X67000Y37000D02*
X69900Y39900D01*
X24900Y47300D02*
Y48043D01*
X25530Y47430D02*
Y48043D01*
X25400Y47300D02*
X25530Y47430D01*
X26600Y46000D02*
X26615Y46015D01*
X27243D01*
X26630Y45070D02*
X27243D01*
X22030Y46330D02*
X22557D01*
X22000Y46300D02*
X22030Y46330D01*
X21955Y46645D02*
X22557D01*
X24270Y46330D02*
X27243D01*
X21900Y48700D02*
X24270Y46330D01*
X20472Y50750D02*
X21250D01*
X20472Y51250D02*
X20950D01*
X20472Y50250D02*
X21150D01*
X21329Y50429D01*
X20950Y51250D02*
X21329Y50871D01*
X21900Y48700D02*
Y50100D01*
X21250Y50750D02*
X21900Y50100D01*
X21329Y50429D02*
Y50871D01*
X26100Y49935D02*
X27000D01*
X26100Y49935D02*
Y50475D01*
X26325Y50700D02*
Y51313D01*
X26100Y50475D02*
X26325Y50700D01*
X27113Y51187D02*
Y51313D01*
Y51187D02*
X28000Y50300D01*
Y49935D02*
Y50300D01*
Y49935D02*
X29100D01*
X24800D02*
Y51263D01*
X26135Y49265D02*
X26152Y49248D01*
X26100Y49265D02*
X26135D01*
X33639Y33510D02*
X33749Y33400D01*
X31950Y33510D02*
X33639D01*
X31500Y34630D02*
X31950Y34180D01*
X27100Y32750D02*
X27150Y32800D01*
X31950Y32840D02*
X32960D01*
X27150Y32800D02*
X32000D01*
X33449Y31500D02*
X33749Y31800D01*
X31950Y31500D02*
X33449D01*
X34800Y31800D02*
X35400D01*
X34800Y33400D02*
X35400D01*
X33230Y32170D02*
X33674Y31726D01*
X33000Y32170D02*
Y32200D01*
X31950Y32170D02*
X33230D01*
X22600Y41400D02*
X22735Y41265D01*
X23100D01*
X25265Y41265D02*
X25300Y41300D01*
X24900Y41265D02*
X25265D01*
X21750Y41250D02*
X22400Y40600D01*
X33200D02*
X33276Y40524D01*
X22400Y40600D02*
X33200D01*
X20472Y41250D02*
X21750D01*
X20472Y40750D02*
X21750D01*
X22240Y40280D01*
X33100D01*
X20472Y39750D02*
X32650D01*
X32700Y39700D01*
X32500Y39400D02*
X32650Y39250D01*
X21050Y39400D02*
X32500D01*
X20900Y39250D02*
X21050Y39400D01*
X20472Y39250D02*
X20900D01*
D37*
X21760Y46960D02*
X22557D01*
X21700Y46900D02*
X21760Y46960D01*
X21700Y43065D02*
Y46900D01*
X33385Y36500D02*
X33865Y36980D01*
X33077Y46823D02*
X33865D01*
X30300Y49600D02*
X33077Y46823D01*
X30300Y49600D02*
Y50100D01*
X29900Y50500D02*
X30300Y50100D01*
X32674Y46626D02*
X33865D01*
X27000Y49100D02*
X27400Y48700D01*
X27000Y49100D02*
Y49265D01*
X32271Y46429D02*
X33865D01*
X30600Y48100D02*
X32271Y46429D01*
X29800Y48600D02*
X30700D01*
X32674Y46626D01*
X29400Y48100D02*
X30600D01*
X29100Y48400D02*
X29400Y48100D01*
X29100Y48400D02*
Y49265D01*
X23640Y42360D02*
X24000Y42000D01*
X23640Y42360D02*
Y42740D01*
X24000Y41900D02*
Y42000D01*
Y41265D02*
X24165D01*
X24900Y42000D01*
X24865Y41935D02*
X24900D01*
X23955Y42845D02*
X24865Y41935D01*
X23955Y42845D02*
Y43357D01*
X24270Y42830D02*
Y43357D01*
X25535Y42300D02*
X25900Y41935D01*
X24800Y42300D02*
X25535D01*
X24270Y42830D02*
X24800Y42300D01*
X24585Y42915D02*
Y43357D01*
Y42915D02*
X25040Y42460D01*
X26275D01*
X26800Y41935D01*
X24500Y37300D02*
X25300Y36500D01*
X33385D01*
X25400Y37700D02*
X26300Y36800D01*
X32700D01*
X33077Y37177D01*
X33865D01*
X45735Y47020D02*
Y47365D01*
X26800Y41265D02*
X29265D01*
X45277Y46823D02*
X45735D01*
X44900Y47200D02*
X45277Y46823D01*
X25900Y41265D02*
X26365Y40800D01*
X22831Y41935D02*
X23100D01*
X21700Y43065D02*
X22831Y41935D01*
X27243Y46960D02*
X27860D01*
X28000Y47100D01*
Y49265D01*
X26655Y46645D02*
X27243D01*
X26500Y46800D02*
Y47300D01*
X26900Y47700D01*
X26500Y46800D02*
X26655Y46645D01*
X26770Y48830D02*
X27243Y48357D01*
X26536Y48830D02*
X26770D01*
X26135Y49231D02*
X26536Y48830D01*
X27243Y47275D02*
Y48357D01*
X26900Y47700D02*
Y48400D01*
X26630Y48670D02*
X26900Y48400D01*
X25330Y48670D02*
X26630D01*
X24800Y49200D02*
X25330Y48670D01*
X26365Y40800D02*
X29300D01*
X29600Y41100D01*
D38*
X78800Y41700D02*
D03*
Y44700D02*
D03*
X75800Y41700D02*
D03*
Y42700D02*
D03*
Y44700D02*
D03*
Y43700D02*
D03*
X78800Y37700D02*
D03*
Y40700D02*
D03*
X75800Y37700D02*
D03*
Y38700D02*
D03*
Y40700D02*
D03*
Y39700D02*
D03*
X20472Y52427D02*
D03*
Y37573D02*
D03*
D39*
X68700Y40500D02*
D03*
X68600Y50500D02*
D03*
D40*
X67700Y40500D02*
D03*
X68700Y41500D02*
D03*
X67700D02*
D03*
X68700Y42500D02*
D03*
X67700D02*
D03*
X68700Y43500D02*
D03*
X67700D02*
D03*
X68700Y44500D02*
D03*
X67700D02*
D03*
X68700Y45500D02*
D03*
X67700D02*
D03*
X68700Y46500D02*
D03*
X67700D02*
D03*
X67600Y50500D02*
D03*
X68600Y51500D02*
D03*
X67600D02*
D03*
X68600Y52500D02*
D03*
X67600D02*
D03*
X68600Y53500D02*
D03*
X67600D02*
D03*
X68600Y54500D02*
D03*
X67600D02*
D03*
X68600Y55500D02*
D03*
X67600D02*
D03*
X68600Y56500D02*
D03*
X67600D02*
D03*
X23176Y51313D02*
D03*
Y52100D02*
D03*
X23963Y51313D02*
D03*
Y52100D02*
D03*
X24750Y51313D02*
D03*
Y52100D02*
D03*
X25538Y51313D02*
D03*
Y52100D02*
D03*
X26325Y51313D02*
D03*
Y52100D02*
D03*
X27113Y51313D02*
D03*
Y52100D02*
D03*
X27900Y51313D02*
D03*
Y52100D02*
D03*
D41*
X20000Y57500D02*
D03*
Y32500D02*
D03*
X77500Y57500D02*
D03*
D42*
Y32500D02*
D03*
D43*
X77300Y50548D02*
D03*
Y51550D02*
D03*
Y54052D02*
D03*
Y53050D02*
D03*
D44*
X37800Y57400D02*
D03*
X35300D02*
D03*
X34050D02*
D03*
Y51150D02*
D03*
X37800Y51200D02*
D03*
D45*
X59100Y52600D02*
D03*
X66691Y49091D02*
D03*
X66000Y47200D02*
D03*
X66200Y36600D02*
D03*
Y34200D02*
D03*
X47400Y47600D02*
D03*
X49191Y47009D02*
D03*
X50709D02*
D03*
X50100Y47600D02*
D03*
X52600D02*
D03*
X48909Y35809D02*
D03*
X50091D02*
D03*
X50800Y36500D02*
D03*
X51900Y34100D02*
D03*
X54300D02*
D03*
X48300D02*
D03*
X50700Y34000D02*
D03*
X66100Y31200D02*
D03*
X39100Y33700D02*
D03*
X45900Y31000D02*
D03*
X38767Y34533D02*
D03*
X33100Y41250D02*
D03*
X33000Y42750D02*
D03*
X39200Y47300D02*
D03*
X46700Y44400D02*
D03*
X45183Y40917D02*
D03*
X45139Y39539D02*
D03*
X45735Y36665D02*
D03*
X43800Y36600D02*
D03*
X44229Y36671D02*
D03*
X40489Y35511D02*
D03*
X62165Y57165D02*
D03*
X63200Y58100D02*
D03*
X51800Y42800D02*
D03*
X55100Y43300D02*
D03*
X45200Y48100D02*
D03*
X42100Y48600D02*
D03*
X34421Y44500D02*
D03*
X40800Y50500D02*
D03*
X41300Y50900D02*
D03*
X57400Y43100D02*
D03*
X58000Y41600D02*
D03*
X62000Y41300D02*
D03*
X62400Y41000D02*
D03*
X65700Y42700D02*
D03*
X58600Y43200D02*
D03*
X60000Y40900D02*
D03*
X61100Y40300D02*
D03*
X64900Y39000D02*
D03*
X59400Y40000D02*
D03*
X64700Y42300D02*
D03*
X62800Y37900D02*
D03*
X59465Y40865D02*
D03*
X57369Y40900D02*
D03*
X56946Y43146D02*
D03*
X57900Y43200D02*
D03*
X59900Y45300D02*
D03*
X65800Y45700D02*
D03*
X58700Y56600D02*
D03*
X64800Y50100D02*
D03*
X63100D02*
D03*
X61800D02*
D03*
X60900Y51500D02*
D03*
X56800Y54100D02*
D03*
X62400Y53100D02*
D03*
X64600D02*
D03*
X57600Y56100D02*
D03*
X59700D02*
D03*
X58000Y56500D02*
D03*
X59700D02*
D03*
X58335Y57165D02*
D03*
X57000Y55700D02*
D03*
X60400D02*
D03*
X60565Y57165D02*
D03*
X58300Y43400D02*
D03*
X60370Y43500D02*
D03*
X42800Y48700D02*
D03*
X56600D02*
D03*
X62800Y50400D02*
D03*
X65200Y51273D02*
D03*
X52200Y40300D02*
D03*
X58700D02*
D03*
X64700Y39800D02*
D03*
X52700Y40300D02*
D03*
X56000Y45900D02*
D03*
X55600Y46000D02*
D03*
X55627Y46827D02*
D03*
X30300Y37200D02*
D03*
Y38200D02*
D03*
X41100Y49100D02*
D03*
X51400Y49900D02*
D03*
X40900Y49500D02*
D03*
X49800Y50200D02*
D03*
X40500Y49800D02*
D03*
X47900Y50200D02*
D03*
X40200D02*
D03*
X45900D02*
D03*
X47335Y50635D02*
D03*
X49500Y50600D02*
D03*
X51400D02*
D03*
X53300Y50200D02*
D03*
X71047Y42347D02*
D03*
X73065Y37035D02*
D03*
X73674Y40074D02*
D03*
X69600Y46800D02*
D03*
X70465Y44865D02*
D03*
X71800Y45900D02*
D03*
X73153Y44647D02*
D03*
X72400Y43500D02*
D03*
X72826Y40826D02*
D03*
X35765Y48465D02*
D03*
X36946Y48446D02*
D03*
X37900Y45800D02*
D03*
X33700Y47700D02*
D03*
X34900Y47300D02*
D03*
X37700D02*
D03*
X34600Y38800D02*
D03*
X64700Y52100D02*
D03*
X62900Y51600D02*
D03*
X56600Y51000D02*
D03*
X54700Y52000D02*
D03*
X61276Y55324D02*
D03*
X45000Y42400D02*
D03*
X54700Y40200D02*
D03*
X56946Y38754D02*
D03*
X56300Y35100D02*
D03*
X56127Y34227D02*
D03*
X55100Y35820D02*
D03*
X56300Y41600D02*
D03*
X35900Y39300D02*
D03*
X34500Y39800D02*
D03*
X35900Y40300D02*
D03*
X34500Y40200D02*
D03*
X32800Y38300D02*
D03*
X34600Y36300D02*
D03*
X35765Y36865D02*
D03*
X36158Y36642D02*
D03*
X37900Y36700D02*
D03*
Y38100D02*
D03*
X39300D02*
D03*
X39400Y35500D02*
D03*
X39300Y36700D02*
D03*
X40700Y38100D02*
D03*
Y36700D02*
D03*
X42100Y38200D02*
D03*
X42064Y36636D02*
D03*
X42654Y36654D02*
D03*
X44435Y37735D02*
D03*
X45100Y38000D02*
D03*
Y37400D02*
D03*
X43600Y38700D02*
D03*
X45000Y38600D02*
D03*
X43600Y39700D02*
D03*
X45100Y40000D02*
D03*
X43600Y40700D02*
D03*
X45100Y40500D02*
D03*
Y41500D02*
D03*
X43700Y42900D02*
D03*
X45100Y43000D02*
D03*
X45130Y43870D02*
D03*
X43700Y43900D02*
D03*
Y44900D02*
D03*
X44900Y44500D02*
D03*
X43700Y45900D02*
D03*
X46300D02*
D03*
X45161Y45839D02*
D03*
X43100Y47300D02*
D03*
X43835Y47335D02*
D03*
X41700Y45800D02*
D03*
X41670Y47330D02*
D03*
X40200Y45900D02*
D03*
X40400Y47300D02*
D03*
X38700Y45900D02*
D03*
X38717Y47317D02*
D03*
X34480Y47020D02*
D03*
X35900Y44500D02*
D03*
X36000Y43500D02*
D03*
X34600Y44100D02*
D03*
X34500Y43500D02*
D03*
X36000Y45700D02*
D03*
X34442Y45642D02*
D03*
X33300Y45700D02*
D03*
X57700Y39400D02*
D03*
X57800Y38200D02*
D03*
X57600Y37000D02*
D03*
Y36000D02*
D03*
X57700Y40400D02*
D03*
X60900Y36200D02*
D03*
X59700D02*
D03*
X62800D02*
D03*
X61800D02*
D03*
X62000Y38900D02*
D03*
Y37200D02*
D03*
X61900Y40200D02*
D03*
X65900Y41400D02*
D03*
X64000Y43600D02*
D03*
X63000Y41900D02*
D03*
X62900Y43200D02*
D03*
X62239Y41961D02*
D03*
X62300Y43100D02*
D03*
X61867Y43167D02*
D03*
X61100Y43100D02*
D03*
X61600Y41900D02*
D03*
X60500D02*
D03*
X60300Y43100D02*
D03*
X59600Y42000D02*
D03*
X59300Y43100D02*
D03*
X59111Y42011D02*
D03*
X58600Y42000D02*
D03*
X56027Y42573D02*
D03*
X63300Y35000D02*
D03*
X63451Y35349D02*
D03*
X64500Y35300D02*
D03*
X63424Y36924D02*
D03*
X64500Y37200D02*
D03*
X63300Y38200D02*
D03*
X64500Y38600D02*
D03*
X63408Y38892D02*
D03*
X64586Y39286D02*
D03*
X64600Y40500D02*
D03*
X63433Y40467D02*
D03*
X63200Y41300D02*
D03*
X64500Y41400D02*
D03*
X63527Y34227D02*
D03*
X62400Y33700D02*
D03*
X61900Y34800D02*
D03*
X61300Y33600D02*
D03*
X60800Y33700D02*
D03*
X60900Y34800D02*
D03*
X59800Y33700D02*
D03*
X59702Y34798D02*
D03*
X58400Y33700D02*
D03*
Y34800D02*
D03*
X57800Y33700D02*
D03*
X57900Y34900D02*
D03*
X56400Y33700D02*
D03*
X56139Y35939D02*
D03*
X55100Y36600D02*
D03*
X56173Y36727D02*
D03*
X56200Y37400D02*
D03*
Y37800D02*
D03*
Y38200D02*
D03*
X55000D02*
D03*
Y39400D02*
D03*
X56200D02*
D03*
X55100Y40400D02*
D03*
X56400Y40800D02*
D03*
X55000Y41400D02*
D03*
X56027Y54773D02*
D03*
X58600Y54200D02*
D03*
X59300Y55300D02*
D03*
X59111Y54211D02*
D03*
X59600Y54200D02*
D03*
X60300Y55300D02*
D03*
X60500Y54100D02*
D03*
X62239Y54161D02*
D03*
X61600Y54100D02*
D03*
X62300Y55300D02*
D03*
X61867Y55367D02*
D03*
X64000Y55800D02*
D03*
X63000Y54100D02*
D03*
X62900Y55400D02*
D03*
X57800Y53600D02*
D03*
X57700Y52600D02*
D03*
Y51600D02*
D03*
X57800Y50400D02*
D03*
X57600Y49200D02*
D03*
Y48200D02*
D03*
X59700Y48400D02*
D03*
X60900D02*
D03*
X61800D02*
D03*
X62800D02*
D03*
X62000Y49400D02*
D03*
X61900Y52400D02*
D03*
X65900Y53600D02*
D03*
X64500D02*
D03*
X63200Y53500D02*
D03*
X63433Y52667D02*
D03*
X64600Y52700D02*
D03*
X64586Y51486D02*
D03*
X63200Y51900D02*
D03*
X62000Y51100D02*
D03*
X63408Y51092D02*
D03*
X64500Y50800D02*
D03*
X63300Y50400D02*
D03*
X64500Y49400D02*
D03*
X63424Y49124D02*
D03*
X64500Y47500D02*
D03*
X63451Y47549D02*
D03*
X63300Y47200D02*
D03*
X63527Y46427D02*
D03*
X62400Y45900D02*
D03*
X61900Y47000D02*
D03*
X61300Y45800D02*
D03*
X60800Y45900D02*
D03*
X60900Y47000D02*
D03*
X59800Y45900D02*
D03*
X59702Y46998D02*
D03*
X58400Y45900D02*
D03*
Y47000D02*
D03*
X57800Y45900D02*
D03*
X57900Y47100D02*
D03*
X56400Y45900D02*
D03*
X56255Y47155D02*
D03*
X55100Y48050D02*
D03*
Y48800D02*
D03*
X56139Y48139D02*
D03*
X56173Y48927D02*
D03*
X56200Y49600D02*
D03*
Y50000D02*
D03*
Y50400D02*
D03*
X55000D02*
D03*
X56300Y52100D02*
D03*
X55100Y52600D02*
D03*
X55000Y51600D02*
D03*
X56200D02*
D03*
X56400Y53000D02*
D03*
X55000Y53600D02*
D03*
X56355Y54045D02*
D03*
X24900Y47300D02*
D03*
X25400D02*
D03*
X26600Y46000D02*
D03*
X26630Y45070D02*
D03*
X22000Y46300D02*
D03*
X21955Y46645D02*
D03*
X29100Y45300D02*
D03*
X30800Y47200D02*
D03*
X31560Y57560D02*
D03*
X28200Y58200D02*
D03*
X24030Y55830D02*
D03*
X21150Y49750D02*
D03*
Y48750D02*
D03*
Y45250D02*
D03*
Y46750D02*
D03*
Y45750D02*
D03*
Y46250D02*
D03*
Y47250D02*
D03*
Y47750D02*
D03*
Y48250D02*
D03*
Y44750D02*
D03*
Y44250D02*
D03*
X23640Y42740D02*
D03*
X23851Y53151D02*
D03*
X22200Y53800D02*
D03*
Y55300D02*
D03*
X26340Y55160D02*
D03*
X30200Y55250D02*
D03*
X21150Y41750D02*
D03*
Y40250D02*
D03*
Y38750D02*
D03*
X29900Y50500D02*
D03*
X27400Y48700D02*
D03*
X29800Y48600D02*
D03*
X24500Y37300D02*
D03*
X25400Y37700D02*
D03*
X45735Y47365D02*
D03*
X29265Y41265D02*
D03*
X44900Y47200D02*
D03*
X31500Y34630D02*
D03*
X32900Y34900D02*
D03*
X32960Y32840D02*
D03*
X30200Y32800D02*
D03*
X32900Y31500D02*
D03*
X35400Y31800D02*
D03*
Y33400D02*
D03*
X33000Y32200D02*
D03*
X42700Y45200D02*
D03*
X41000D02*
D03*
X35900D02*
D03*
X33100Y45300D02*
D03*
X32300Y43000D02*
D03*
X30500Y41200D02*
D03*
X46386Y42886D02*
D03*
X42700Y42100D02*
D03*
X40800D02*
D03*
X38500D02*
D03*
X36100D02*
D03*
X32200D02*
D03*
X25900Y53100D02*
D03*
X42400Y53400D02*
D03*
X46516Y53284D02*
D03*
X52500Y53300D02*
D03*
X49300D02*
D03*
X34500Y43000D02*
D03*
X51500Y53900D02*
D03*
X48000D02*
D03*
X44400D02*
D03*
X40300D02*
D03*
X37339Y35461D02*
D03*
X41591Y33809D02*
D03*
X34456Y40944D02*
D03*
X34473Y38327D02*
D03*
X22600Y41400D02*
D03*
X25300Y41300D02*
D03*
X29600Y41100D02*
D03*
X33164Y39700D02*
D03*
X32700D02*
D03*
X32650Y39250D02*
D03*
D46*
X29000Y34700D02*
D03*
Y31400D02*
D03*
Y32225D02*
D03*
Y33050D02*
D03*
Y33875D02*
D03*
X26000Y34700D02*
D03*
X27000D02*
D03*
X28000D02*
D03*
X25000Y31300D02*
D03*
Y32150D02*
D03*
Y33000D02*
D03*
Y33850D02*
D03*
Y34700D02*
D03*
X27100Y53100D02*
D03*
X27950D02*
D03*
X28800D02*
D03*
X29650D02*
D03*
X30500D02*
D03*
X27100Y56100D02*
D03*
Y55100D02*
D03*
Y54100D02*
D03*
X27925Y57100D02*
D03*
X28750D02*
D03*
X29575D02*
D03*
X30400D02*
D03*
X27100D02*
D03*
M02*
