%FSLAX24Y24*%
%MOIN*%
G70*
G01*
G75*
G04 Layer_Physical_Order=5*
%ADD10R,0.0420X0.1181*%
%ADD11R,0.5906X0.5906*%
%ADD12R,0.0620X0.1010*%
%ADD13R,0.0600X0.0150*%
%ADD14R,0.0360X0.2560*%
%ADD15R,0.0620X0.0775*%
%ADD16R,0.0709X0.0787*%
%ADD17R,0.0433X0.0394*%
%ADD18R,0.0630X0.0118*%
%ADD19C,0.0241*%
%ADD20R,0.0394X0.0433*%
%ADD21R,0.0866X0.0236*%
%ADD22R,0.0866X0.0236*%
%ADD23R,0.0118X0.0728*%
%ADD24R,0.0650X0.0118*%
%ADD25R,0.0709X0.0630*%
%ADD26R,0.0630X0.0709*%
%ADD27R,0.0787X0.0866*%
%ADD28R,0.1024X0.0945*%
%ADD29R,0.1063X0.0630*%
%ADD30R,0.0591X0.0512*%
%ADD31R,0.0512X0.0591*%
%ADD32R,0.0807X0.0236*%
%ADD33R,0.0866X0.0787*%
%ADD34R,0.0728X0.0118*%
%ADD35R,0.0118X0.0630*%
%ADD36C,0.0080*%
%ADD37C,0.0120*%
%ADD38C,0.0180*%
%ADD39C,0.0100*%
%ADD40C,0.0160*%
%ADD41C,0.0200*%
%ADD42C,0.0200*%
%ADD43C,0.0600*%
%ADD44C,0.0591*%
%ADD45R,0.0591X0.0591*%
%ADD46C,0.1732*%
%ADD47C,0.1732*%
%ADD48C,0.0500*%
%ADD49C,0.0520*%
%ADD50C,0.0460*%
%ADD51C,0.0320*%
%ADD52C,0.0420*%
%ADD53C,0.0098*%
%ADD54C,0.0079*%
%ADD55C,0.0060*%
%ADD56C,0.0070*%
%ADD57R,0.0197X0.0079*%
%ADD58R,0.0079X0.0197*%
%ADD59R,0.0079X0.0197*%
%ADD60R,0.0197X0.0079*%
%ADD61R,0.0200X0.1000*%
%ADD62R,0.0200X0.0500*%
%ADD63R,0.0500X0.0200*%
%ADD64R,0.0200X0.0700*%
%ADD65R,0.0200X0.0200*%
%ADD66R,0.0500X0.1261*%
%ADD67R,0.5986X0.5986*%
%ADD68R,0.0680X0.0230*%
%ADD69R,0.0789X0.0867*%
%ADD70R,0.0513X0.0474*%
%ADD71R,0.0710X0.0198*%
%ADD72R,0.0474X0.0513*%
%ADD73R,0.0946X0.0316*%
%ADD74R,0.0946X0.0316*%
%ADD75R,0.0198X0.0808*%
%ADD76R,0.0730X0.0198*%
%ADD77R,0.0789X0.0710*%
%ADD78R,0.0710X0.0789*%
%ADD79R,0.0867X0.0946*%
%ADD80R,0.1104X0.1025*%
%ADD81R,0.1143X0.0710*%
%ADD82R,0.0671X0.0592*%
%ADD83R,0.0592X0.0671*%
%ADD84R,0.0887X0.0316*%
%ADD85R,0.0946X0.0867*%
%ADD86R,0.0808X0.0198*%
%ADD87R,0.0198X0.0710*%
%ADD88C,0.0280*%
%ADD89C,0.0680*%
%ADD90C,0.0671*%
%ADD91R,0.0671X0.0671*%
%ADD92C,0.1812*%
%ADD93C,0.1812*%
%ADD94C,0.0580*%
%ADD95C,0.0540*%
%ADD96C,0.0400*%
%ADD97C,0.0400*%
%AMTHD98*
7,0,0,0.0695,0.0535,0.0120,45*
%
%ADD98THD98*%
%AMTHD99*
7,0,0,0.0740,0.0580,0.0120,45*
%
%ADD99THD99*%
%ADD100C,0.0800*%
%AMTHD101*
7,0,0,0.0960,0.0800,0.0120,45*
%
%ADD101THD101*%
%ADD102C,0.0754*%
%AMTHD103*
7,0,0,0.0914,0.0754,0.0120,45*
%
%ADD103THD103*%
%ADD104C,0.1896*%
%ADD105C,0.1896*%
%AMTHD106*
7,0,0,0.0840,0.0680,0.0120,45*
%
%ADD106THD106*%
%AMTHD107*
7,0,0,0.0910,0.0750,0.0120,45*
%
%ADD107THD107*%
%ADD108C,0.0750*%
%ADD109C,0.1500*%
%ADD110C,0.0535*%
%AMTHD111*
7,0,0,0.0760,0.0600,0.0120,45*
%
%ADD111THD111*%
D39*
X82700Y35200D02*
Y34600D01*
X83100D01*
X83300D02*
Y35000D01*
X83500Y35200D01*
X83700Y35000D01*
Y34600D01*
Y34900D01*
X83300D01*
X83900Y35200D02*
Y35100D01*
X84100Y34900D01*
X84299Y35100D01*
Y35200D01*
X84100Y34900D02*
Y34600D01*
X84899Y35200D02*
X84499D01*
Y34600D01*
X84899D01*
X84499Y34900D02*
X84699D01*
X85099Y34600D02*
Y35200D01*
X85399D01*
X85499Y35100D01*
Y34900D01*
X85399Y34800D01*
X85099D01*
X85299D02*
X85499Y34600D01*
X86699Y35200D02*
X86299D01*
Y34900D01*
X86499Y35000D01*
X86599D01*
X86699Y34900D01*
Y34700D01*
X86599Y34600D01*
X86399D01*
X86299Y34700D01*
D43*
X26000Y54700D02*
D03*
X33100Y52100D02*
D03*
X33940Y51440D02*
D03*
X36214Y53286D02*
D03*
X35600Y55200D02*
D03*
X36900Y55300D02*
D03*
X35600Y52200D02*
D03*
X36460Y51340D02*
D03*
X37400Y52200D02*
D03*
X71400Y56200D02*
D03*
X74900Y56000D02*
D03*
X73392Y55108D02*
D03*
X77951Y53649D02*
D03*
X75400Y55200D02*
D03*
X76000Y54400D02*
D03*
X74061Y53261D02*
D03*
D56*
X72700Y33600D02*
X79500D01*
X71200Y35100D02*
X72700Y33600D01*
X71200Y35100D02*
Y54700D01*
X68600Y57300D02*
X71200Y54700D01*
X26400Y57300D02*
X68600D01*
X23800Y54700D02*
X26400Y57300D01*
X23800Y53200D02*
Y54700D01*
X23400Y52800D02*
X23800Y53200D01*
X23000Y52800D02*
X23400D01*
X22000Y53800D02*
X23000Y52800D01*
X20500Y53800D02*
X22000D01*
X20500D02*
Y59500D01*
X79500D01*
Y33600D02*
Y59500D01*
D89*
X40900Y53600D02*
D03*
X39900D02*
D03*
X44300D02*
D03*
X43300D02*
D03*
X47500D02*
D03*
X46500D02*
D03*
X50700D02*
D03*
X49700D02*
D03*
D94*
X29800Y54550D02*
D03*
X29000D02*
D03*
X29800Y56600D02*
D03*
X29000D02*
D03*
D97*
X20000Y60000D02*
X80000D01*
Y30000D02*
Y60000D01*
X20000Y30000D02*
X80000D01*
X20000D02*
Y60000D01*
X80000D01*
Y30000D02*
Y60000D01*
X20000Y30000D02*
X80000D01*
X20000D02*
Y60000D01*
Y30000D02*
X80000D01*
Y60000D01*
X20000D02*
X80000D01*
X20000Y30000D02*
Y60000D01*
D98*
X47800Y42200D02*
D03*
X73400Y33900D02*
D03*
X78500Y44000D02*
D03*
X72100Y41800D02*
D03*
X72800Y43200D02*
D03*
X74600Y42900D02*
D03*
X53550Y42350D02*
D03*
X32800Y45300D02*
D03*
X35400D02*
D03*
X40735Y45935D02*
D03*
X40700Y42600D02*
D03*
Y40000D02*
D03*
Y37400D02*
D03*
Y35000D02*
D03*
X37700Y34700D02*
D03*
X32600D02*
D03*
X30080Y34980D02*
D03*
X30200Y37300D02*
D03*
X30100Y42400D02*
D03*
X30035Y45935D02*
D03*
X56800Y54300D02*
D03*
Y53800D02*
D03*
X56900Y49100D02*
D03*
X56800Y50800D02*
D03*
X59800Y56200D02*
D03*
X58600Y47900D02*
D03*
X61572Y46500D02*
D03*
X64600Y47600D02*
D03*
X62300Y56200D02*
D03*
X37835Y44935D02*
D03*
X49517Y45717D02*
D03*
Y47883D02*
D03*
X47983Y45717D02*
D03*
X48083Y47883D02*
D03*
X56955Y56155D02*
D03*
X56757Y41457D02*
D03*
X56800Y38000D02*
D03*
X56861Y36339D02*
D03*
X58420Y34000D02*
D03*
X61100Y35300D02*
D03*
X64573Y35027D02*
D03*
X65192Y39292D02*
D03*
X62400Y42400D02*
D03*
X59500Y42300D02*
D03*
X56627Y42973D02*
D03*
X35200Y33300D02*
D03*
X47800Y34300D02*
D03*
X49300D02*
D03*
Y36330D02*
D03*
X47800D02*
D03*
X27630Y55730D02*
D03*
X26051Y55849D02*
D03*
X27700Y54100D02*
D03*
X30200Y40000D02*
D03*
X63692Y51892D02*
D03*
X66600Y34700D02*
D03*
X67291Y35409D02*
D03*
X44000Y32700D02*
D03*
X50000Y50600D02*
D03*
X47400Y31800D02*
D03*
X30591Y47309D02*
D03*
X42700Y46800D02*
D03*
D100*
X75800Y40500D02*
D03*
Y41500D02*
D03*
Y39500D02*
D03*
Y38500D02*
D03*
X78800Y41500D02*
D03*
Y38500D02*
D03*
Y34500D02*
D03*
Y37500D02*
D03*
X75800Y34500D02*
D03*
Y35500D02*
D03*
Y37500D02*
D03*
Y36500D02*
D03*
D102*
X69600Y50800D02*
D03*
X68600D02*
D03*
X69600Y51800D02*
D03*
X68600D02*
D03*
X69600Y52800D02*
D03*
X68600D02*
D03*
X69600Y53800D02*
D03*
X68600D02*
D03*
X69600Y54800D02*
D03*
X68600D02*
D03*
X69600Y55800D02*
D03*
X68600D02*
D03*
X69600Y56800D02*
D03*
X68600D02*
D03*
X69400Y39800D02*
D03*
X68400D02*
D03*
X69400Y40800D02*
D03*
X68400D02*
D03*
X69400Y41800D02*
D03*
X68400D02*
D03*
X69400Y42800D02*
D03*
X68400D02*
D03*
X69400Y43800D02*
D03*
X68400D02*
D03*
X69400Y44800D02*
D03*
X68400D02*
D03*
X69400Y45800D02*
D03*
X68400D02*
D03*
D104*
X22500Y57500D02*
D03*
Y32500D02*
D03*
X77500D02*
D03*
D105*
Y57500D02*
D03*
D107*
X24000Y41750D02*
D03*
X23250Y42250D02*
D03*
Y53250D02*
D03*
X22500Y52750D02*
D03*
X21750Y53250D02*
D03*
D108*
X24000Y36750D02*
D03*
X23250Y37250D02*
D03*
X24000Y37750D02*
D03*
X23250Y38250D02*
D03*
X24000Y38750D02*
D03*
X23250Y39250D02*
D03*
X24000Y39750D02*
D03*
X23250Y40250D02*
D03*
X24000Y40750D02*
D03*
X23250Y41250D02*
D03*
X24000Y42750D02*
D03*
X23250Y43250D02*
D03*
X24000Y43750D02*
D03*
X23250Y44250D02*
D03*
X24000Y44750D02*
D03*
X23250Y45250D02*
D03*
X24000Y45750D02*
D03*
X23250Y46250D02*
D03*
X24000Y46750D02*
D03*
X23250Y47250D02*
D03*
X24000Y47750D02*
D03*
X23250Y48250D02*
D03*
X24000Y48750D02*
D03*
X23250Y49250D02*
D03*
X24000Y49750D02*
D03*
X23250Y50250D02*
D03*
X24000Y50750D02*
D03*
X23250Y51250D02*
D03*
X24000Y51750D02*
D03*
X23250Y52250D02*
D03*
X24000Y52750D02*
D03*
X22500Y36750D02*
D03*
X21750Y37250D02*
D03*
X22500Y37750D02*
D03*
X21750Y38250D02*
D03*
X22500Y38750D02*
D03*
X21750Y39250D02*
D03*
X22500Y39750D02*
D03*
X21750Y40250D02*
D03*
X22500Y40750D02*
D03*
X21750Y41250D02*
D03*
X22500Y41750D02*
D03*
X21750Y42250D02*
D03*
X22500Y42750D02*
D03*
X21750Y43250D02*
D03*
X22500Y43750D02*
D03*
X21750Y44250D02*
D03*
X22500Y44750D02*
D03*
X21750Y45250D02*
D03*
X22500Y45750D02*
D03*
X21750Y46250D02*
D03*
X22500Y46750D02*
D03*
X21750Y47250D02*
D03*
X22500Y47750D02*
D03*
X21750Y48250D02*
D03*
X22500Y48750D02*
D03*
X21750Y49250D02*
D03*
X22500Y49750D02*
D03*
X21750Y50250D02*
D03*
X22500Y50750D02*
D03*
X21750Y51250D02*
D03*
X22500Y51750D02*
D03*
X21750Y52250D02*
D03*
D109*
Y35290D02*
D03*
Y54710D02*
D03*
D110*
X76600Y50300D02*
D03*
Y51300D02*
D03*
Y52300D02*
D03*
X71500Y50300D02*
D03*
Y51300D02*
D03*
Y52300D02*
D03*
X75100Y47500D02*
D03*
X76100D02*
D03*
Y48500D02*
D03*
X75100D02*
D03*
Y49500D02*
D03*
X76100D02*
D03*
X72100Y47500D02*
D03*
X73100D02*
D03*
Y48500D02*
D03*
X72100D02*
D03*
Y49500D02*
D03*
X73100D02*
D03*
X29600Y55200D02*
D03*
X29200D02*
D03*
X29600Y55600D02*
D03*
X29200D02*
D03*
X29600Y56000D02*
D03*
X29200D02*
D03*
X49700Y42600D02*
D03*
X50300Y39500D02*
D03*
X37486Y54586D02*
D03*
X65400Y32200D02*
D03*
X38400Y31100D02*
D03*
X35300Y38100D02*
D03*
X36519Y38619D02*
D03*
X55600Y35400D02*
D03*
X55200Y34800D02*
D03*
X53900Y34400D02*
D03*
X52400Y38100D02*
D03*
X57800Y35200D02*
D03*
X57200Y35300D02*
D03*
X45889Y39311D02*
D03*
X66000Y38400D02*
D03*
X60700Y44900D02*
D03*
X58727Y56927D02*
D03*
X56700Y57600D02*
D03*
X58165Y58535D02*
D03*
X59335Y57865D02*
D03*
X60200Y57700D02*
D03*
X59200Y56200D02*
D03*
X33900Y31500D02*
D03*
X76350Y43750D02*
D03*
X74800Y34100D02*
D03*
X74400Y37200D02*
D03*
X72950Y44250D02*
D03*
X74600Y44800D02*
D03*
X57400Y56500D02*
D03*
X59635Y48935D02*
D03*
X58700Y52200D02*
D03*
X57000Y52300D02*
D03*
X54950Y42850D02*
D03*
X52500Y41500D02*
D03*
X33200Y45300D02*
D03*
X32900Y46600D02*
D03*
X35200Y43800D02*
D03*
X36200D02*
D03*
X35900Y45300D02*
D03*
X33600Y43800D02*
D03*
X32600D02*
D03*
X37500Y45300D02*
D03*
X37200Y43800D02*
D03*
X40700Y44900D02*
D03*
Y42100D02*
D03*
X39200Y41800D02*
D03*
Y42800D02*
D03*
X42000Y42500D02*
D03*
X40620Y41280D02*
D03*
X40708Y39508D02*
D03*
X42000Y40000D02*
D03*
X39200Y40200D02*
D03*
Y39200D02*
D03*
X40700Y37900D02*
D03*
X39200Y38000D02*
D03*
X42000Y37600D02*
D03*
X40400Y33420D02*
D03*
X33000Y34700D02*
D03*
X32800Y33400D02*
D03*
X33200Y36200D02*
D03*
X32200D02*
D03*
X31135Y35435D02*
D03*
X30380Y33480D02*
D03*
X30100Y37700D02*
D03*
X31600Y37000D02*
D03*
Y38000D02*
D03*
X28800Y37400D02*
D03*
Y39700D02*
D03*
X30083Y41083D02*
D03*
X30333Y42067D02*
D03*
X31600Y42800D02*
D03*
Y41600D02*
D03*
X28800Y42300D02*
D03*
X30077Y44823D02*
D03*
X25000Y36300D02*
D03*
X25300Y36700D02*
D03*
X25700Y37100D02*
D03*
X26100Y37600D02*
D03*
X26500Y38000D02*
D03*
X26900Y38300D02*
D03*
X27400Y38000D02*
D03*
X28000Y37800D02*
D03*
X28430Y38130D02*
D03*
X28700Y38600D02*
D03*
X30300Y38500D02*
D03*
X30100Y38900D02*
D03*
X32100Y39000D02*
D03*
X28500Y40000D02*
D03*
X30300Y44200D02*
D03*
X31000Y44500D02*
D03*
X28100Y45800D02*
D03*
X31561Y45061D02*
D03*
X26600Y47200D02*
D03*
X31955Y45245D02*
D03*
X31700Y47000D02*
D03*
X32100Y47200D02*
D03*
X32546Y47354D02*
D03*
X33000Y47200D02*
D03*
X33200Y47700D02*
D03*
X34120Y45220D02*
D03*
X33727Y47673D02*
D03*
X34200Y47400D02*
D03*
X56855Y54845D02*
D03*
X56800Y52700D02*
D03*
X55600Y53300D02*
D03*
X55500Y52500D02*
D03*
X56902Y51302D02*
D03*
X55600Y51300D02*
D03*
X56900Y50300D02*
D03*
X55600Y49630D02*
D03*
X56800Y48600D02*
D03*
X58400Y48800D02*
D03*
Y49800D02*
D03*
Y50800D02*
D03*
Y51800D02*
D03*
Y52800D02*
D03*
Y53800D02*
D03*
X58100Y48000D02*
D03*
X60302Y47802D02*
D03*
X61483Y47817D02*
D03*
X60600Y46600D02*
D03*
X62000Y46500D02*
D03*
X62800Y47800D02*
D03*
X63845Y47855D02*
D03*
X64600Y46000D02*
D03*
X61665Y45665D02*
D03*
X65200Y48400D02*
D03*
X66800D02*
D03*
X64054Y48546D02*
D03*
X65176Y49924D02*
D03*
X63900Y50200D02*
D03*
X65202Y51302D02*
D03*
X64000Y51600D02*
D03*
X65183Y52483D02*
D03*
X64000Y53200D02*
D03*
X65130Y53270D02*
D03*
X62400Y53200D02*
D03*
Y54200D02*
D03*
X65200Y54300D02*
D03*
X64000Y54200D02*
D03*
X65200Y54800D02*
D03*
X63000Y54900D02*
D03*
X62900Y56200D02*
D03*
X62835Y57335D02*
D03*
X63648Y54752D02*
D03*
X61900Y56200D02*
D03*
X62100Y54800D02*
D03*
X64465Y55835D02*
D03*
X61089Y54811D02*
D03*
X60300Y56200D02*
D03*
X52400Y46600D02*
D03*
X51700Y46200D02*
D03*
Y45400D02*
D03*
Y44600D02*
D03*
Y43800D02*
D03*
Y47000D02*
D03*
X52400Y47400D02*
D03*
X51700Y47800D02*
D03*
X51600Y48600D02*
D03*
Y49400D02*
D03*
X52400Y44200D02*
D03*
Y45000D02*
D03*
Y45800D02*
D03*
Y48200D02*
D03*
Y49000D02*
D03*
X36680Y45120D02*
D03*
X35700Y47400D02*
D03*
X36100D02*
D03*
X36500D02*
D03*
X36900D02*
D03*
X37300D02*
D03*
X37700D02*
D03*
X38100D02*
D03*
X38200Y47000D02*
D03*
X37800Y43900D02*
D03*
X38900Y43600D02*
D03*
X39200Y43900D02*
D03*
X39500Y44200D02*
D03*
X42000Y46600D02*
D03*
X37200Y42900D02*
D03*
X38200Y43300D02*
D03*
X40000Y45300D02*
D03*
Y44800D02*
D03*
X49527Y45107D02*
D03*
X49673Y48473D02*
D03*
X49400Y46800D02*
D03*
X48000D02*
D03*
X47927Y45107D02*
D03*
X47973Y48493D02*
D03*
X45400Y41100D02*
D03*
X57000Y48000D02*
D03*
X46500Y41500D02*
D03*
X55500Y47700D02*
D03*
X57400Y48200D02*
D03*
X52100Y50200D02*
D03*
X50200Y49400D02*
D03*
X56200Y47400D02*
D03*
X34700Y48300D02*
D03*
X34300Y48100D02*
D03*
X58000Y56800D02*
D03*
X58200Y56400D02*
D03*
X57935Y54335D02*
D03*
X59800Y53400D02*
D03*
X59000Y53700D02*
D03*
X60700Y53300D02*
D03*
X55600Y41400D02*
D03*
X55648Y42048D02*
D03*
X55600Y40700D02*
D03*
X56800Y40600D02*
D03*
X58400D02*
D03*
Y39600D02*
D03*
X55600Y39900D02*
D03*
X56800Y39700D02*
D03*
X55600Y38700D02*
D03*
X56798Y38702D02*
D03*
X56773Y37127D02*
D03*
X58400Y38600D02*
D03*
Y37600D02*
D03*
Y36800D02*
D03*
X55600Y37020D02*
D03*
X56800Y35200D02*
D03*
X58333Y35367D02*
D03*
X60302Y35198D02*
D03*
X60498Y34002D02*
D03*
X61700Y35300D02*
D03*
X62000Y36800D02*
D03*
X60800D02*
D03*
X61500Y34000D02*
D03*
X62900Y35200D02*
D03*
X63845Y35755D02*
D03*
X63100Y34000D02*
D03*
X65200Y35700D02*
D03*
X63976Y37324D02*
D03*
X65100Y37600D02*
D03*
X62400Y37400D02*
D03*
X65098Y38702D02*
D03*
X64000Y39000D02*
D03*
X65186Y39686D02*
D03*
X63900Y40000D02*
D03*
X62400D02*
D03*
X65200Y40900D02*
D03*
Y41700D02*
D03*
X63900Y41000D02*
D03*
X62400D02*
D03*
X63900Y42000D02*
D03*
X62400D02*
D03*
X63500Y42400D02*
D03*
X63700Y43600D02*
D03*
X62900D02*
D03*
X61800Y42400D02*
D03*
X62100Y43600D02*
D03*
X60000Y42300D02*
D03*
X60800D02*
D03*
X60400Y40800D02*
D03*
X59200D02*
D03*
Y43600D02*
D03*
X60105Y43595D02*
D03*
X61089Y43589D02*
D03*
X56855Y42245D02*
D03*
X57546Y42346D02*
D03*
X58800Y35200D02*
D03*
X59600D02*
D03*
X52600Y33300D02*
D03*
X52000Y33600D02*
D03*
Y33000D02*
D03*
X52600Y32600D02*
D03*
X52000Y32300D02*
D03*
X52600Y32000D02*
D03*
X52000Y31700D02*
D03*
X52600Y33900D02*
D03*
Y35300D02*
D03*
X52000Y35600D02*
D03*
X52600Y35900D02*
D03*
X52000Y36200D02*
D03*
X52600Y36500D02*
D03*
X52000Y36800D02*
D03*
X55300Y38200D02*
D03*
X52600Y37100D02*
D03*
X52000Y37400D02*
D03*
X40100Y31400D02*
D03*
X39600Y31600D02*
D03*
X39200Y31800D02*
D03*
X38700Y32000D02*
D03*
X38300Y32300D02*
D03*
X37900Y32600D02*
D03*
X35600Y33400D02*
D03*
X35200Y34700D02*
D03*
X37300Y33406D02*
D03*
X37000Y32000D02*
D03*
X36000D02*
D03*
X34800D02*
D03*
X36483Y33417D02*
D03*
X37700Y33100D02*
D03*
X39200Y34800D02*
D03*
X36000Y37400D02*
D03*
X39200Y37500D02*
D03*
X36400Y37100D02*
D03*
X36700Y36800D02*
D03*
X37100Y36500D02*
D03*
X37400Y36200D02*
D03*
X37700Y35900D02*
D03*
X38100Y35600D02*
D03*
X38400Y35200D02*
D03*
X48000Y49400D02*
D03*
X47800Y34900D02*
D03*
X49300Y35000D02*
D03*
X47700Y37800D02*
D03*
X49300Y37100D02*
D03*
X47900D02*
D03*
X41800Y31100D02*
D03*
X41000Y31500D02*
D03*
X49300Y33300D02*
D03*
X47900D02*
D03*
X57743Y43543D02*
D03*
X57939Y42161D02*
D03*
X58300Y43600D02*
D03*
X65700Y43700D02*
D03*
X57935Y41135D02*
D03*
X58500Y41200D02*
D03*
X58700Y41800D02*
D03*
X66200Y41200D02*
D03*
X50400Y32700D02*
D03*
X59200Y36800D02*
D03*
X31200Y54500D02*
D03*
X27646Y56754D02*
D03*
X27642Y56242D02*
D03*
X26800Y57500D02*
D03*
X25949Y56951D02*
D03*
X29200Y57200D02*
D03*
X62800Y49400D02*
D03*
X61400D02*
D03*
X60400D02*
D03*
X63435Y36335D02*
D03*
X38057Y46557D02*
D03*
X40900Y46400D02*
D03*
X28100Y49700D02*
D03*
X41900Y45900D02*
D03*
X29300Y46500D02*
D03*
X33924Y33324D02*
D03*
X60000Y36000D02*
D03*
X34400Y35200D02*
D03*
X34000Y36500D02*
D03*
X34500Y44800D02*
D03*
X39000Y46700D02*
D03*
X46100Y49700D02*
D03*
X61400Y56300D02*
D03*
X31600Y40400D02*
D03*
X30500Y39300D02*
D03*
X38800Y49800D02*
D03*
X41700D02*
D03*
X43100D02*
D03*
X40400D02*
D03*
X32400Y38300D02*
D03*
X32800Y38000D02*
D03*
X33200Y37700D02*
D03*
X33900Y37600D02*
D03*
X55511Y50711D02*
D03*
X63600Y56200D02*
D03*
X60800Y56284D02*
D03*
X59600Y54800D02*
D03*
X55600Y54400D02*
D03*
X60200Y46200D02*
D03*
X63000Y46600D02*
D03*
X62200Y51600D02*
D03*
X64000Y52200D02*
D03*
X55900Y46800D02*
D03*
X55600Y36250D02*
D03*
X35400Y46700D02*
D03*
X59000Y46600D02*
D03*
X60500Y32400D02*
D03*
X63000D02*
D03*
X62391Y33191D02*
D03*
X67391Y36591D02*
D03*
X66600Y37200D02*
D03*
X65809Y42009D02*
D03*
X65900Y42900D02*
D03*
X67391Y42009D02*
D03*
X65809Y45809D02*
D03*
X65909Y46991D02*
D03*
X66400Y54600D02*
D03*
X67500Y54900D02*
D03*
X66109Y56391D02*
D03*
X53700Y53200D02*
D03*
X55100Y53000D02*
D03*
X53709Y54391D02*
D03*
X54900Y39900D02*
D03*
X54708Y39292D02*
D03*
X53600Y38500D02*
D03*
X54391Y40391D02*
D03*
X52900Y40400D02*
D03*
X41200Y33300D02*
D03*
X31009Y31709D02*
D03*
X30400Y32400D02*
D03*
X32900D02*
D03*
X47600Y50600D02*
D03*
X49800Y31800D02*
D03*
X29409Y47309D02*
D03*
X42400Y45900D02*
D03*
X40900Y48000D02*
D03*
D111*
X31600Y52800D02*
D03*
X61700Y44700D02*
D03*
X72200Y54200D02*
D03*
M02*
