INCH,LZ
M48
T1F00S00C0.0135
T2F00S00C0.0180
T3F00S00C0.0200
T4F00S00C0.0280
T5F00S00C0.0350
T6F00S00C0.0354
T7F00S00C0.0400
T8F00S00C0.1100
T9F00S00C0.1496
%
T01
X0384Y0311
X0418
X031009Y031709
X0304Y0324
X03038Y03348
X03008Y03498
X031135Y035435
X0302Y0373
X0301Y0377
X0303Y0385
X0301Y0389
X0305Y0393
X0302Y04
X030083Y041083
X030333Y042067
X0301Y0424
X0288Y0423
X0285Y04
X0288Y0397
X0287Y0386
X02843Y03813
X028Y0378
X0274Y038
X0269Y0383
X0265Y038
X0261Y0376
X0257Y0371
X0253Y0367
X025Y0363
X0288Y0374
X0303Y0442
X030077Y044823
X030035Y045935
X0293Y0465
X0281Y0458
X031Y0445
X031561Y045061
X031955Y045245
X0328Y0453
X0332
X03412Y04522
X0345Y0448
X0354Y0453
X0359
X03668Y04512
X0375Y0453
X037835Y044935
X0378Y0439
X0372Y0438
Y0429
X0382Y0433
X0389Y0436
X0392Y0439
X0395Y0442
X04Y0448
Y0453
X0407Y0449
X040735Y045935
X0409Y0464
X042Y0466
X0419Y0459
X0424
X0427Y0468
X039Y0467
X038057Y046557
X0354Y0467
X0329Y0466
X0326Y0438
X0336
X0352
X0362
X0392Y0428
Y0418
Y0402
Y0392
Y038
Y0375
X0407Y0374
Y0379
X042Y0376
Y04
X0407
X040708Y039508
X04062Y04128
X0407Y0421
Y0426
X042Y0425
X0454Y0411
X0465Y0415
X045889Y039311
X044Y0327
X0412Y0333
X0404Y03342
X0407Y035
X0392Y0348
X0384Y0352
X0381Y0356
X0377Y0359
X0374Y0362
X0371Y0365
X0367Y0368
X0364Y0371
X036Y0374
X0353Y0381
X036519Y038619
X0339Y0376
X0332Y0377
X0328Y038
X0324Y0383
X0321Y039
X0316Y038
Y037
X0322Y0362
X0332
X034Y0365
X0344Y0352
X0352Y0347
Y0333
X0356Y0334
X036483Y033417
X0373Y033406
X0377Y0331
X0379Y0326
X0383Y0323
X0387Y032
X0392Y0318
X0396Y0316
X0401Y0314
X041Y0315
X037Y032
X036
X0348
X0339Y0315
X033924Y033324
X0328Y0334
X0329Y0324
X033Y0347
X0326
X0377
X0316Y0404
Y0416
Y0428
X0478Y0422
X0497Y0426
X049527Y045107
X049517Y045717
X0494Y0468
X048
X047983Y045717
X047927Y045107
X0517Y0454
Y0446
Y0438
X0524Y0442
Y045
Y0458
Y0466
X0517Y0462
X0559Y0468
X059Y0466
X0602Y0462
X0606Y0466
X061572Y0465
X062
X061665Y045665
X0607Y0449
X061089Y043589
X060105Y043595
X0592Y0436
X0583
X057743Y043543
X057546Y042346
X057939Y042161
X057935Y041135
X0585Y0412
X0584Y0406
X0592Y0408
X0604
X0608Y0423
X06
X0595
X0587Y0418
X056757Y041457
X056855Y042245
X056627Y042973
X05495Y04285
X055648Y042048
X0556Y0414
Y0407
Y0399
X0549
X054708Y039292
X054391Y040391
X0529Y0404
X0525Y0415
X05355Y04235
X0536Y0385
X0524Y0381
X052Y0374
Y0368
Y0362
Y0356
X0526Y0359
Y0365
Y0371
Y0353
Y0339
Y0333
Y0326
Y032
X052Y0317
Y0323
Y033
Y0336
X0504Y0327
X0498Y0318
X0493Y0333
Y0343
Y035
Y03633
Y0371
X0479
X0478Y03633
Y0349
Y0343
X0479Y0333
X0474Y0318
X0477Y0378
X0503Y0395
X0556Y0387
X0553Y0382
X0556Y03702
Y03625
Y0354
X0552Y0348
X0539Y0344
X0568Y0352
X0572Y0353
X0578Y0352
X058333Y035367
X0588Y0352
X0596
X060302Y035198
X0611Y0353
X0617
X0615Y034
X060498Y034002
X0605Y0324
X062391Y033191
X062Y0368
X0624Y0374
X0608Y0368
X06Y036
X0592Y0368
X0584
Y0376
Y0386
Y0396
X0568Y0397
Y0406
X056798Y038702
X0568Y038
X056773Y037127
X056861Y036339
X05842Y034
X0624Y04
Y041
Y042
Y0424
X0618
X0621Y0436
X0629
X0637
X0635Y0424
X0639Y042
Y041
Y04
X064Y039
X065098Y038702
X065192Y039292
X065186Y039686
X0652Y0409
Y0417
X065809Y042009
X0659Y0429
X0657Y0437
X065809Y045809
X0646Y046
X063Y0466
X0662Y0412
X067391Y042009
X0721Y0418
X0728Y0432
X07295Y04425
X0746Y0448
Y0429
X07635Y04375
X0744Y0372
X0748Y0341
X0734Y0339
X0666Y0347
X067291Y035409
X067391Y036591
X0666Y0372
X066Y0384
X0651Y0376
X063976Y037324
X063435Y036335
X063845Y035755
X0652Y0357
X064573Y035027
X0629Y0352
X0631Y034
X063Y0324
X0654Y0322
X0785Y044
X0761Y0475
X0751
Y0485
X0761
Y0495
X0751
X0731
Y0485
Y0475
X0721
Y0485
Y0495
X0715Y0503
Y0513
Y0523
X0766
Y0513
Y0503
X0668Y0484
X0652
X064054Y048546
X063845Y047855
X0646Y0476
X065909Y046991
X065176Y049924
X065202Y051302
X065183Y052483
X06513Y05327
X0652Y0543
Y0548
X0664Y0546
X0675Y0549
X066109Y056391
X064465Y055835
X0636Y0562
X0629
X062835Y057335
X063Y0549
X063648Y054752
X064Y0542
Y0532
Y0522
Y0516
X063692Y051892
X0639Y0502
X0628Y0494
Y0478
X061483Y047817
X060302Y047802
X0604Y0494
X0614
X059635Y048935
X0584Y0488
Y0498
Y0508
Y0518
X0587Y0522
X0584Y0528
Y0538
X059Y0537
X0598Y0534
X0607Y0533
X0624Y0532
Y0542
X0621Y0548
X061089Y054811
X0596Y0548
X0598Y0562
X0603
X0608Y056284
X0614Y0563
X0619Y0562
X0623
X0592
X0582Y0564
X058Y0568
X058727Y056927
X059335Y057865
X0602Y0577
X058165Y058535
X0567Y0576
X056955Y056155
X0574Y0565
X056855Y054845
X0568Y0543
Y0538
Y0527
X057Y0523
X056902Y051302
X0568Y0508
X0569Y0503
Y0491
X0568Y0486
X057Y048
X0574Y0482
X0581Y048
X0586Y0479
X0562Y0474
X0555Y0477
X0556Y04963
X055511Y050711
X0556Y0513
X0555Y0525
X0551Y053
X0556Y0533
Y0544
X053709Y054391
X0537Y0532
X0521Y0502
X0516Y0494
Y0486
X0517Y0478
Y047
X0524Y0474
Y0482
Y049
X0502Y0494
X05Y0506
X0476
X048Y0494
X047973Y048493
X048083Y047883
X049517
X049673Y048473
X057935Y054335
X0622Y0516
X0461Y0497
X0431Y0498
X0417
X0404
X0388
X0381Y0474
X0377
X0373
X0369
X0365
X0361
X0357
X0342
X033727Y047673
X0332Y0477
X033Y0472
X032546Y047354
X0321Y0472
X0317Y047
X0343Y0481
X0347Y0483
X0382Y047
X0409Y048
X037486Y054586
X0312Y0545
X0296Y0552
Y0556
Y056
X0292
Y0556
Y0552
Y0572
X027646Y056754
X027642Y056242
X02763Y05573
X026051Y055849
X025949Y056951
X0268Y0575
X0277Y0541
X0281Y0497
X029409Y047309
X030591
X0266Y0472
T02
X029Y05455
X0298
Y0566
X029
T03
X0617Y0447
X0722Y0542
X073392Y055108
X0754Y0552
X0749Y056
X076Y0544
X077951Y053649
X074061Y053261
X0714Y0562
X0369Y0553
X0356Y0552
X036214Y053286
X0356Y0522
X03646Y05134
X0374Y0522
X03394Y05144
X0331Y0521
X0316Y0528
X026Y0547
T04
X0475Y0536
X0497
X0507
X0465
X0443
X0433
X0409
X0399
T05
X02175Y03725
Y03825
Y03925
Y04025
Y04125
Y04225
Y04325
Y04425
Y04525
Y04625
X0225Y04675
Y04575
Y04475
Y04375
Y04275
Y04175
Y04075
Y03975
Y03875
Y03775
Y03675
X02325Y03725
Y03825
Y03925
Y04025
Y04125
Y04225
Y04325
Y04425
Y04525
Y04625
X024Y04675
Y04575
Y04475
Y04375
Y04275
Y04175
Y04075
Y03975
Y03875
Y03775
Y03675
Y04775
Y04875
Y04975
Y05075
Y05175
Y05275
X02325Y05325
Y05225
Y05125
Y05025
Y04925
Y04825
Y04725
X0225Y04775
Y04875
Y04975
Y05075
Y05175
Y05275
X02175Y05325
Y05225
Y05125
Y05025
Y04925
Y04825
Y04725
T06
X0684Y0398
Y0408
Y0418
Y0428
Y0438
Y0448
Y0458
X0694
Y0448
Y0438
Y0428
Y0418
Y0408
Y0398
X0696Y0508
Y0518
Y0528
Y0538
Y0548
Y0558
Y0568
X0686
Y0558
Y0548
Y0538
Y0528
Y0518
Y0508
T07
X0758Y0345
Y0355
Y0365
Y0375
Y0385
Y0395
Y0405
Y0415
X0788
Y0385
Y0375
Y0345
T08
X02175Y03529
Y05471
T09
X0225Y0325
X0775
Y0575
X0225
M30
