%FSLAX24Y24*%
%MOIN*%
G70*
G01*
G75*
G04 Layer_Color=16711935*
G04 Layer_Color=16711935*
%ADD10R,0.0276X0.0354*%
%ADD11R,0.0630X0.0118*%
%ADD12R,0.0118X0.0630*%
%ADD13R,0.0728X0.0118*%
%ADD14R,0.0118X0.0728*%
%ADD15R,0.0787X0.0866*%
%ADD16R,0.0807X0.0236*%
%ADD17R,0.0866X0.0787*%
%ADD18R,0.0354X0.0276*%
%ADD19R,0.0787X0.0551*%
%ADD20R,0.1500X0.0500*%
%ADD21R,0.3000X0.2900*%
%ADD22R,0.0630X0.0709*%
%ADD23R,0.0709X0.0630*%
%ADD24R,0.1024X0.0945*%
%ADD25R,0.0197X0.0748*%
%ADD26R,0.0748X0.0197*%
%ADD27R,0.0394X0.0433*%
%ADD28R,0.0433X0.0394*%
%ADD29R,0.0512X0.0630*%
%ADD30R,0.0827X0.0354*%
%ADD31R,0.0827X0.0354*%
%ADD32R,0.1732X0.1441*%
%ADD33C,0.0100*%
%ADD34C,0.0080*%
%ADD35C,0.0200*%
%ADD36C,0.0160*%
%ADD37C,0.0090*%
%ADD38C,0.0600*%
%ADD39R,0.0591X0.0591*%
%ADD40C,0.0591*%
%ADD41C,0.1732*%
%ADD42C,0.1732*%
%ADD43C,0.0500*%
%ADD44C,0.0800*%
%ADD45C,0.0250*%
%ADD46C,0.0350*%
%ADD47C,0.0098*%
%ADD48C,0.0079*%
%ADD49C,0.0070*%
%ADD50C,0.0120*%
%ADD51C,0.0050*%
%ADD52R,0.0356X0.0434*%
%ADD53R,0.0710X0.0198*%
%ADD54R,0.0198X0.0710*%
%ADD55R,0.0808X0.0198*%
%ADD56R,0.0198X0.0808*%
%ADD57R,0.0867X0.0946*%
%ADD58R,0.0887X0.0316*%
%ADD59R,0.0946X0.0867*%
%ADD60R,0.0434X0.0356*%
%ADD61R,0.0867X0.0631*%
%ADD62R,0.1580X0.0580*%
%ADD63R,0.3080X0.2980*%
%ADD64R,0.0710X0.0789*%
%ADD65R,0.0789X0.0710*%
%ADD66R,0.1104X0.1025*%
%ADD67R,0.0277X0.0828*%
%ADD68R,0.0828X0.0277*%
%ADD69R,0.0474X0.0513*%
%ADD70R,0.0513X0.0474*%
%ADD71R,0.0592X0.0710*%
%ADD72R,0.0907X0.0434*%
%ADD73R,0.0907X0.0434*%
%ADD74R,0.1812X0.1521*%
%ADD75C,0.0680*%
%ADD76R,0.0671X0.0671*%
%ADD77C,0.0671*%
%ADD78C,0.1812*%
%ADD79C,0.1812*%
%ADD80C,0.0580*%
%ADD81C,0.0880*%
%ADD82C,0.0330*%
%ADD83C,0.0430*%
D52*
X33900Y38838D02*
D03*
Y38327D02*
D03*
X60900Y47956D02*
D03*
Y47444D02*
D03*
X59700Y47956D02*
D03*
Y47444D02*
D03*
X62800Y47956D02*
D03*
Y47444D02*
D03*
X61800Y47956D02*
D03*
Y47444D02*
D03*
X59100Y53144D02*
D03*
Y53656D02*
D03*
X60900Y35756D02*
D03*
Y35244D02*
D03*
X59700Y35756D02*
D03*
Y35244D02*
D03*
X62800Y35756D02*
D03*
Y35244D02*
D03*
X61800Y35756D02*
D03*
Y35244D02*
D03*
X59100Y40944D02*
D03*
Y41456D02*
D03*
X37700Y46344D02*
D03*
Y46856D02*
D03*
X41700Y46244D02*
D03*
Y46756D02*
D03*
X42100Y37656D02*
D03*
Y37144D02*
D03*
X37900Y37656D02*
D03*
Y37144D02*
D03*
X38700Y46344D02*
D03*
Y46856D02*
D03*
X40200Y46344D02*
D03*
Y46856D02*
D03*
X39300Y37656D02*
D03*
Y37144D02*
D03*
X40700Y37656D02*
D03*
Y37144D02*
D03*
X44000Y37656D02*
D03*
Y37144D02*
D03*
X22500Y46227D02*
D03*
Y46738D02*
D03*
X27300Y45773D02*
D03*
Y45262D02*
D03*
X33900Y40944D02*
D03*
Y41456D02*
D03*
D60*
X56644Y37000D02*
D03*
X57156D02*
D03*
X57256Y53600D02*
D03*
X56744D02*
D03*
X57256Y51600D02*
D03*
X56744D02*
D03*
X57256Y50400D02*
D03*
X56744D02*
D03*
X57156Y49200D02*
D03*
X56644D02*
D03*
X57156Y48200D02*
D03*
X56644D02*
D03*
X57456Y47200D02*
D03*
X56944D02*
D03*
X62444Y51100D02*
D03*
X62956D02*
D03*
X62444Y49400D02*
D03*
X62956D02*
D03*
X62444Y52400D02*
D03*
X62956D02*
D03*
X65456Y53600D02*
D03*
X64944D02*
D03*
X61244Y55800D02*
D03*
X61756D02*
D03*
X63556D02*
D03*
X63044D02*
D03*
X57256Y41400D02*
D03*
X56744D02*
D03*
X57256Y39400D02*
D03*
X56744D02*
D03*
X57256Y38200D02*
D03*
X56744D02*
D03*
X57156Y36000D02*
D03*
X56644D02*
D03*
X57456Y35000D02*
D03*
X56944D02*
D03*
X57256Y40400D02*
D03*
X56744D02*
D03*
X62444Y38900D02*
D03*
X62956D02*
D03*
X62444Y37200D02*
D03*
X62956D02*
D03*
X62444Y40200D02*
D03*
X62956D02*
D03*
X65456Y41400D02*
D03*
X64944D02*
D03*
X61244Y43600D02*
D03*
X61756D02*
D03*
X63556D02*
D03*
X63044D02*
D03*
X35456Y43500D02*
D03*
X34944D02*
D03*
X35456Y40300D02*
D03*
X34944D02*
D03*
X44044Y40700D02*
D03*
X44556D02*
D03*
X44144Y43900D02*
D03*
X44656D02*
D03*
X35456Y39300D02*
D03*
X34944D02*
D03*
X35456Y44500D02*
D03*
X34944D02*
D03*
X44144Y44900D02*
D03*
X44656D02*
D03*
X44044Y39700D02*
D03*
X44556D02*
D03*
X44044Y38700D02*
D03*
X44556D02*
D03*
X44144Y42900D02*
D03*
X44656D02*
D03*
X44144Y45900D02*
D03*
X44656D02*
D03*
X43044Y46900D02*
D03*
X43556D02*
D03*
X34144Y47700D02*
D03*
X34656D02*
D03*
X36356Y37300D02*
D03*
X35844D02*
D03*
X56744Y52600D02*
D03*
X57256D02*
D03*
X25456Y47700D02*
D03*
X24944D02*
D03*
X32473Y34900D02*
D03*
X31962D02*
D03*
X24927Y53100D02*
D03*
X25438D02*
D03*
D75*
X78800Y41700D02*
D03*
Y44700D02*
D03*
X75800Y41700D02*
D03*
Y42700D02*
D03*
Y44700D02*
D03*
Y43700D02*
D03*
X78800Y37700D02*
D03*
Y40700D02*
D03*
X75800Y37700D02*
D03*
Y38700D02*
D03*
Y40700D02*
D03*
Y39700D02*
D03*
X20472Y52427D02*
D03*
Y37573D02*
D03*
D76*
X68700Y40500D02*
D03*
X68600Y50500D02*
D03*
D77*
X67700Y40500D02*
D03*
X68700Y41500D02*
D03*
X67700D02*
D03*
X68700Y42500D02*
D03*
X67700D02*
D03*
X68700Y43500D02*
D03*
X67700D02*
D03*
X68700Y44500D02*
D03*
X67700D02*
D03*
X68700Y45500D02*
D03*
X67700D02*
D03*
X68700Y46500D02*
D03*
X67700D02*
D03*
X67600Y50500D02*
D03*
X68600Y51500D02*
D03*
X67600D02*
D03*
X68600Y52500D02*
D03*
X67600D02*
D03*
X68600Y53500D02*
D03*
X67600D02*
D03*
X68600Y54500D02*
D03*
X67600D02*
D03*
X68600Y55500D02*
D03*
X67600D02*
D03*
X68600Y56500D02*
D03*
X67600D02*
D03*
X23176Y51313D02*
D03*
Y52100D02*
D03*
X23963Y51313D02*
D03*
Y52100D02*
D03*
X24750Y51313D02*
D03*
Y52100D02*
D03*
X25538Y51313D02*
D03*
Y52100D02*
D03*
X26325Y51313D02*
D03*
Y52100D02*
D03*
X27113Y51313D02*
D03*
Y52100D02*
D03*
X27900Y51313D02*
D03*
Y52100D02*
D03*
D78*
X20000Y57500D02*
D03*
Y32500D02*
D03*
X77500Y57500D02*
D03*
D79*
Y32500D02*
D03*
D80*
X77300Y50548D02*
D03*
Y51550D02*
D03*
Y54052D02*
D03*
Y53050D02*
D03*
D81*
X37800Y57400D02*
D03*
X35300D02*
D03*
X34050D02*
D03*
Y51150D02*
D03*
X37800Y51200D02*
D03*
D82*
X59100Y52600D02*
D03*
X66691Y49091D02*
D03*
X66000Y47200D02*
D03*
X66200Y36600D02*
D03*
Y34200D02*
D03*
X47400Y47600D02*
D03*
X49191Y47009D02*
D03*
X50709D02*
D03*
X50100Y47600D02*
D03*
X52600D02*
D03*
X48909Y35809D02*
D03*
X50091D02*
D03*
X50800Y36500D02*
D03*
X51900Y34100D02*
D03*
X54300D02*
D03*
X48300D02*
D03*
X50700Y34000D02*
D03*
X66100Y31200D02*
D03*
X39100Y33700D02*
D03*
X45900Y31000D02*
D03*
X38767Y34533D02*
D03*
X33100Y41250D02*
D03*
X33000Y42750D02*
D03*
X39200Y47300D02*
D03*
X46700Y44400D02*
D03*
X45183Y40917D02*
D03*
X45139Y39539D02*
D03*
X45735Y36665D02*
D03*
X43800Y36600D02*
D03*
X44229Y36671D02*
D03*
X40489Y35511D02*
D03*
X62165Y57165D02*
D03*
X63200Y58100D02*
D03*
X51800Y42800D02*
D03*
X55100Y43300D02*
D03*
X45200Y48100D02*
D03*
X42100Y48600D02*
D03*
X34421Y44500D02*
D03*
X40800Y50500D02*
D03*
X41300Y50900D02*
D03*
X57400Y43100D02*
D03*
X58000Y41600D02*
D03*
X62000Y41300D02*
D03*
X62400Y41000D02*
D03*
X65700Y42700D02*
D03*
X58600Y43200D02*
D03*
X60000Y40900D02*
D03*
X61100Y40300D02*
D03*
X64900Y39000D02*
D03*
X59400Y40000D02*
D03*
X64700Y42300D02*
D03*
X62800Y37900D02*
D03*
X59465Y40865D02*
D03*
X57369Y40900D02*
D03*
X56946Y43146D02*
D03*
X57900Y43200D02*
D03*
X59900Y45300D02*
D03*
X65800Y45700D02*
D03*
X58700Y56600D02*
D03*
X64800Y50100D02*
D03*
X63100D02*
D03*
X61800D02*
D03*
X60900Y51500D02*
D03*
X56800Y54100D02*
D03*
X62400Y53100D02*
D03*
X64600D02*
D03*
X57600Y56100D02*
D03*
X59700D02*
D03*
X58000Y56500D02*
D03*
X59700D02*
D03*
X58335Y57165D02*
D03*
X57000Y55700D02*
D03*
X60400D02*
D03*
X60565Y57165D02*
D03*
X58300Y43400D02*
D03*
X60370Y43500D02*
D03*
X42800Y48700D02*
D03*
X56600D02*
D03*
X62800Y50400D02*
D03*
X65200Y51273D02*
D03*
X52200Y40300D02*
D03*
X58700D02*
D03*
X64700Y39800D02*
D03*
X52700Y40300D02*
D03*
X56000Y45900D02*
D03*
X55600Y46000D02*
D03*
X55627Y46827D02*
D03*
X30300Y37200D02*
D03*
Y38200D02*
D03*
X41100Y49100D02*
D03*
X51400Y49900D02*
D03*
X40900Y49500D02*
D03*
X49800Y50200D02*
D03*
X40500Y49800D02*
D03*
X47900Y50200D02*
D03*
X40200D02*
D03*
X45900D02*
D03*
X47335Y50635D02*
D03*
X49500Y50600D02*
D03*
X51400D02*
D03*
X53300Y50200D02*
D03*
X71047Y42347D02*
D03*
X73065Y37035D02*
D03*
X73674Y40074D02*
D03*
X69600Y46800D02*
D03*
X70465Y44865D02*
D03*
X71800Y45900D02*
D03*
X73153Y44647D02*
D03*
X72400Y43500D02*
D03*
X72826Y40826D02*
D03*
X35765Y48465D02*
D03*
X36946Y48446D02*
D03*
X37900Y45800D02*
D03*
X33700Y47700D02*
D03*
X34900Y47300D02*
D03*
X37700D02*
D03*
X34600Y38800D02*
D03*
X64700Y52100D02*
D03*
X62900Y51600D02*
D03*
X56600Y51000D02*
D03*
X54700Y52000D02*
D03*
X61276Y55324D02*
D03*
X45000Y42400D02*
D03*
X54700Y40200D02*
D03*
X56946Y38754D02*
D03*
X56300Y35100D02*
D03*
X56127Y34227D02*
D03*
X55100Y35820D02*
D03*
X56300Y41600D02*
D03*
X35900Y39300D02*
D03*
X34500Y39800D02*
D03*
X35900Y40300D02*
D03*
X34500Y40200D02*
D03*
X32800Y38300D02*
D03*
X34600Y36300D02*
D03*
X35765Y36865D02*
D03*
X36158Y36642D02*
D03*
X37900Y36700D02*
D03*
Y38100D02*
D03*
X39300D02*
D03*
X39400Y35500D02*
D03*
X39300Y36700D02*
D03*
X40700Y38100D02*
D03*
Y36700D02*
D03*
X42100Y38200D02*
D03*
X42064Y36636D02*
D03*
X42654Y36654D02*
D03*
X44435Y37735D02*
D03*
X45100Y38000D02*
D03*
Y37400D02*
D03*
X43600Y38700D02*
D03*
X45000Y38600D02*
D03*
X43600Y39700D02*
D03*
X45100Y40000D02*
D03*
X43600Y40700D02*
D03*
X45100Y40500D02*
D03*
Y41500D02*
D03*
X43700Y42900D02*
D03*
X45100Y43000D02*
D03*
X45130Y43870D02*
D03*
X43700Y43900D02*
D03*
Y44900D02*
D03*
X44900Y44500D02*
D03*
X43700Y45900D02*
D03*
X46300D02*
D03*
X45161Y45839D02*
D03*
X43100Y47300D02*
D03*
X43835Y47335D02*
D03*
X41700Y45800D02*
D03*
X41670Y47330D02*
D03*
X40200Y45900D02*
D03*
X40400Y47300D02*
D03*
X38700Y45900D02*
D03*
X38717Y47317D02*
D03*
X34480Y47020D02*
D03*
X35900Y44500D02*
D03*
X36000Y43500D02*
D03*
X34600Y44100D02*
D03*
X34500Y43500D02*
D03*
X36000Y45700D02*
D03*
X34442Y45642D02*
D03*
X33300Y45700D02*
D03*
X57700Y39400D02*
D03*
X57800Y38200D02*
D03*
X57600Y37000D02*
D03*
Y36000D02*
D03*
X57700Y40400D02*
D03*
X60900Y36200D02*
D03*
X59700D02*
D03*
X62800D02*
D03*
X61800D02*
D03*
X62000Y38900D02*
D03*
Y37200D02*
D03*
X61900Y40200D02*
D03*
X65900Y41400D02*
D03*
X64000Y43600D02*
D03*
X63000Y41900D02*
D03*
X62900Y43200D02*
D03*
X62239Y41961D02*
D03*
X62300Y43100D02*
D03*
X61867Y43167D02*
D03*
X61100Y43100D02*
D03*
X61600Y41900D02*
D03*
X60500D02*
D03*
X60300Y43100D02*
D03*
X59600Y42000D02*
D03*
X59300Y43100D02*
D03*
X59111Y42011D02*
D03*
X58600Y42000D02*
D03*
X56027Y42573D02*
D03*
X63300Y35000D02*
D03*
X63451Y35349D02*
D03*
X64500Y35300D02*
D03*
X63424Y36924D02*
D03*
X64500Y37200D02*
D03*
X63300Y38200D02*
D03*
X64500Y38600D02*
D03*
X63408Y38892D02*
D03*
X64586Y39286D02*
D03*
X64600Y40500D02*
D03*
X63433Y40467D02*
D03*
X63200Y41300D02*
D03*
X64500Y41400D02*
D03*
X63527Y34227D02*
D03*
X62400Y33700D02*
D03*
X61900Y34800D02*
D03*
X61300Y33600D02*
D03*
X60800Y33700D02*
D03*
X60900Y34800D02*
D03*
X59800Y33700D02*
D03*
X59702Y34798D02*
D03*
X58400Y33700D02*
D03*
Y34800D02*
D03*
X57800Y33700D02*
D03*
X57900Y34900D02*
D03*
X56400Y33700D02*
D03*
X56139Y35939D02*
D03*
X55100Y36600D02*
D03*
X56173Y36727D02*
D03*
X56200Y37400D02*
D03*
Y37800D02*
D03*
Y38200D02*
D03*
X55000D02*
D03*
Y39400D02*
D03*
X56200D02*
D03*
X55100Y40400D02*
D03*
X56400Y40800D02*
D03*
X55000Y41400D02*
D03*
X56027Y54773D02*
D03*
X58600Y54200D02*
D03*
X59300Y55300D02*
D03*
X59111Y54211D02*
D03*
X59600Y54200D02*
D03*
X60300Y55300D02*
D03*
X60500Y54100D02*
D03*
X62239Y54161D02*
D03*
X61600Y54100D02*
D03*
X62300Y55300D02*
D03*
X61867Y55367D02*
D03*
X64000Y55800D02*
D03*
X63000Y54100D02*
D03*
X62900Y55400D02*
D03*
X57800Y53600D02*
D03*
X57700Y52600D02*
D03*
Y51600D02*
D03*
X57800Y50400D02*
D03*
X57600Y49200D02*
D03*
Y48200D02*
D03*
X59700Y48400D02*
D03*
X60900D02*
D03*
X61800D02*
D03*
X62800D02*
D03*
X62000Y49400D02*
D03*
X61900Y52400D02*
D03*
X65900Y53600D02*
D03*
X64500D02*
D03*
X63200Y53500D02*
D03*
X63433Y52667D02*
D03*
X64600Y52700D02*
D03*
X64586Y51486D02*
D03*
X63200Y51900D02*
D03*
X62000Y51100D02*
D03*
X63408Y51092D02*
D03*
X64500Y50800D02*
D03*
X63300Y50400D02*
D03*
X64500Y49400D02*
D03*
X63424Y49124D02*
D03*
X64500Y47500D02*
D03*
X63451Y47549D02*
D03*
X63300Y47200D02*
D03*
X63527Y46427D02*
D03*
X62400Y45900D02*
D03*
X61900Y47000D02*
D03*
X61300Y45800D02*
D03*
X60800Y45900D02*
D03*
X60900Y47000D02*
D03*
X59800Y45900D02*
D03*
X59702Y46998D02*
D03*
X58400Y45900D02*
D03*
Y47000D02*
D03*
X57800Y45900D02*
D03*
X57900Y47100D02*
D03*
X56400Y45900D02*
D03*
X56255Y47155D02*
D03*
X55100Y48050D02*
D03*
Y48800D02*
D03*
X56139Y48139D02*
D03*
X56173Y48927D02*
D03*
X56200Y49600D02*
D03*
Y50000D02*
D03*
Y50400D02*
D03*
X55000D02*
D03*
X56300Y52100D02*
D03*
X55100Y52600D02*
D03*
X55000Y51600D02*
D03*
X56200D02*
D03*
X56400Y53000D02*
D03*
X55000Y53600D02*
D03*
X56355Y54045D02*
D03*
X24900Y47300D02*
D03*
X25400D02*
D03*
X26600Y46000D02*
D03*
X26630Y45070D02*
D03*
X22000Y46300D02*
D03*
X21955Y46645D02*
D03*
X29100Y45300D02*
D03*
X30800Y47200D02*
D03*
X31560Y57560D02*
D03*
X28200Y58200D02*
D03*
X24030Y55830D02*
D03*
X21150Y49750D02*
D03*
Y48750D02*
D03*
Y45250D02*
D03*
Y46750D02*
D03*
Y45750D02*
D03*
Y46250D02*
D03*
Y47250D02*
D03*
Y47750D02*
D03*
Y48250D02*
D03*
Y44750D02*
D03*
Y44250D02*
D03*
X23640Y42740D02*
D03*
X23851Y53151D02*
D03*
X22200Y53800D02*
D03*
Y55300D02*
D03*
X26340Y55160D02*
D03*
X30200Y55250D02*
D03*
X21150Y41750D02*
D03*
Y40250D02*
D03*
Y38750D02*
D03*
X29900Y50500D02*
D03*
X27400Y48700D02*
D03*
X29800Y48600D02*
D03*
X24500Y37300D02*
D03*
X25400Y37700D02*
D03*
X45735Y47365D02*
D03*
X29265Y41265D02*
D03*
X44900Y47200D02*
D03*
X31500Y34630D02*
D03*
X32900Y34900D02*
D03*
X32960Y32840D02*
D03*
X30200Y32800D02*
D03*
X32900Y31500D02*
D03*
X35400Y31800D02*
D03*
Y33400D02*
D03*
X33000Y32200D02*
D03*
X42700Y45200D02*
D03*
X41000D02*
D03*
X35900D02*
D03*
X33100Y45300D02*
D03*
X32300Y43000D02*
D03*
X30500Y41200D02*
D03*
X46386Y42886D02*
D03*
X42700Y42100D02*
D03*
X40800D02*
D03*
X38500D02*
D03*
X36100D02*
D03*
X32200D02*
D03*
X25900Y53100D02*
D03*
X42400Y53400D02*
D03*
X46516Y53284D02*
D03*
X52500Y53300D02*
D03*
X49300D02*
D03*
X34500Y43000D02*
D03*
X51500Y53900D02*
D03*
X48000D02*
D03*
X44400D02*
D03*
X40300D02*
D03*
X37339Y35461D02*
D03*
X41591Y33809D02*
D03*
X34456Y40944D02*
D03*
X34473Y38327D02*
D03*
X22600Y41400D02*
D03*
X25300Y41300D02*
D03*
X29600Y41100D02*
D03*
X33164Y39700D02*
D03*
X32700D02*
D03*
X32650Y39250D02*
D03*
D83*
X29000Y34700D02*
D03*
Y31400D02*
D03*
Y32225D02*
D03*
Y33050D02*
D03*
Y33875D02*
D03*
X26000Y34700D02*
D03*
X27000D02*
D03*
X28000D02*
D03*
X25000Y31300D02*
D03*
Y32150D02*
D03*
Y33000D02*
D03*
Y33850D02*
D03*
Y34700D02*
D03*
X27100Y53100D02*
D03*
X27950D02*
D03*
X28800D02*
D03*
X29650D02*
D03*
X30500D02*
D03*
X27100Y56100D02*
D03*
Y55100D02*
D03*
Y54100D02*
D03*
X27925Y57100D02*
D03*
X28750D02*
D03*
X29575D02*
D03*
X30400D02*
D03*
X27100D02*
D03*
M02*
