%FSLAX24Y24*%
%MOIN*%
G70*
G01*
G75*
G04 Layer_Physical_Order=3*
%ADD10R,0.0866X0.0236*%
%ADD11R,0.0866X0.0787*%
%ADD12R,0.0787X0.0866*%
%ADD13R,0.0394X0.0433*%
%ADD14R,0.0630X0.0118*%
%ADD15R,0.0118X0.0630*%
%ADD16R,0.0650X0.0118*%
%ADD17R,0.0728X0.0118*%
%ADD18R,0.0118X0.0728*%
%ADD19R,0.0512X0.0591*%
%ADD20R,0.0807X0.0236*%
%ADD21R,0.0591X0.0512*%
%ADD22R,0.1063X0.0630*%
%ADD23R,0.1024X0.0945*%
%ADD24R,0.0630X0.0709*%
%ADD25R,0.0709X0.0630*%
%ADD26R,0.0433X0.0394*%
%ADD27R,0.0866X0.0236*%
%ADD28C,0.0200*%
%ADD29R,0.5906X0.5906*%
%ADD30R,0.0420X0.1181*%
%ADD31C,0.0241*%
%ADD32R,0.0709X0.0787*%
%ADD33R,0.0620X0.0775*%
%ADD34R,0.0360X0.2560*%
%ADD35R,0.0600X0.0150*%
%ADD36R,0.0620X0.1010*%
%ADD37C,0.0080*%
%ADD38C,0.0160*%
%ADD39C,0.0100*%
%ADD40C,0.0120*%
%ADD41C,0.0200*%
%ADD42C,0.0180*%
%ADD43C,0.0460*%
%ADD44C,0.0520*%
%ADD45C,0.0500*%
%ADD46C,0.1732*%
%ADD47C,0.1732*%
%ADD48C,0.0600*%
%ADD49R,0.0591X0.0591*%
%ADD50C,0.0591*%
%ADD51C,0.0320*%
%ADD52C,0.0420*%
D37*
X41400Y48200D02*
X49594D01*
X50000D02*
X52400D01*
X41300Y48300D02*
X41400Y48200D01*
X38100D02*
X40300D01*
X40400Y48300D01*
X37300Y47400D02*
X38100Y48200D01*
X40400Y48300D02*
X41300D01*
X41500Y47800D02*
X47500D01*
X49900D02*
X51700D01*
X38700Y47700D02*
X41400D01*
X38600Y47800D02*
X38700Y47700D01*
X38100Y47800D02*
X38600D01*
X37700Y47400D02*
X38100Y47800D01*
X41400Y47700D02*
X41500Y47800D01*
X49900Y45800D02*
X52400D01*
X42900D02*
X47600D01*
X41600Y44500D02*
X42900Y45800D01*
X52000Y45900D02*
X52100Y45800D01*
X40000Y44800D02*
X40300Y44500D01*
X41600D01*
X47100Y31500D02*
X50200D01*
X51700Y32300D02*
X52000D01*
X50200Y31500D02*
X50500Y31800D01*
X40500D02*
X46800D01*
X47100Y31500D01*
X40100Y31400D02*
X40500Y31800D01*
X46700Y31300D02*
X51100D01*
X51800Y32000D02*
X52600D01*
X41000Y31500D02*
X46500D01*
X46700Y31300D01*
X50500Y31800D02*
X51200D01*
X51100Y31300D02*
X51800Y32000D01*
X50900Y51100D02*
X52000Y52200D01*
X56900D02*
X57000Y52300D01*
X47200Y51100D02*
X50900D01*
X47000Y50900D02*
X47200Y51100D01*
X36700Y50900D02*
X47000D01*
X34300Y48100D02*
Y48500D01*
X50600Y50500D02*
X50900D01*
X58300Y52200D02*
X58700D01*
X50400Y50300D02*
X50600Y50500D01*
X36900D02*
X47000D01*
X47200Y50300D01*
X34700Y48300D02*
X36900Y50500D01*
X47200Y50300D02*
X50400D01*
X50700Y50200D02*
X52100D01*
X50500Y50000D02*
X50700Y50200D01*
X38500D02*
X46800D01*
X47000Y50000D01*
X35700Y47400D02*
X38500Y50200D01*
X47000Y50000D02*
X50500D01*
X65300Y44100D02*
X65700Y43700D01*
X58300Y43600D02*
X58800Y44100D01*
X51000Y46600D02*
X52500D01*
X42000D02*
X42100Y46500D01*
X51000Y38400D02*
X52000Y37400D01*
X36000D02*
X38100D01*
X50800Y32400D02*
X51400Y33000D01*
X52000D01*
X39800Y32400D02*
X50800D01*
X39200Y31800D02*
X39800Y32400D01*
X50900Y32100D02*
X51400Y32600D01*
X39600Y31600D02*
X40100Y32100D01*
X51400Y32600D02*
X52600D01*
X40100Y32100D02*
X50900D01*
X51200Y31800D02*
X51700Y32300D01*
X50200Y33300D02*
X52600D01*
X38700Y32000D02*
X39700Y33000D01*
X49900D01*
X50200Y33300D01*
X69400Y40800D02*
Y40900D01*
X69200Y40800D02*
X69400D01*
X58500Y41000D02*
Y41200D01*
Y41000D02*
X59200Y40300D01*
X68700D01*
X69200Y40800D01*
X65000Y41200D02*
X66200D01*
X58700Y41800D02*
X59000Y41500D01*
X64700D01*
X65000Y41200D01*
X58800Y44100D02*
X65300D01*
X68900Y43300D02*
X69400Y42800D01*
X57939Y42161D02*
Y42739D01*
X59100Y43900D01*
X64600D01*
X65200Y43300D01*
X68900D01*
X69400Y43800D02*
Y43900D01*
X57743Y43543D02*
X58500Y44300D01*
X69000D01*
X69400Y43900D01*
X51600Y43800D02*
X51700D01*
X37200Y42900D02*
X38800D01*
X41800Y31100D02*
X51400D01*
X52000Y31700D01*
X38100Y35580D02*
X52000D01*
X37400Y36200D02*
X47400D01*
X51700D02*
X52000D01*
X47400D02*
X47540Y36060D01*
X50400Y37100D02*
X52600D01*
X50100Y37400D02*
X50400Y37100D01*
X36400D02*
X47200D01*
X47500Y37400D01*
X50100D01*
X39100Y38400D02*
X51000D01*
X51500Y35900D02*
X52600D01*
X51400Y35800D02*
X51500Y35900D01*
X37700D02*
X46500D01*
X46600Y35800D01*
X51400D01*
X51560Y36060D02*
X51700Y36200D01*
X47540Y36060D02*
X51560D01*
X50200Y36500D02*
X52600D01*
X50100Y36600D02*
X50200Y36500D01*
X37100D02*
X46900D01*
X47000Y36600D01*
X50100D01*
X38500Y35300D02*
X52600D01*
X38400Y35200D02*
X38500Y35300D01*
X36700Y36800D02*
X52000D01*
X38100Y37400D02*
X39100Y38400D01*
X52300Y51900D02*
X58000D01*
X58300Y52200D01*
X34300Y48500D02*
X36700Y50900D01*
X50900Y50500D02*
X52300Y51900D01*
X47600Y49400D02*
X47900Y49700D01*
X51300D02*
X51600Y49400D01*
X47900Y49700D02*
X51300D01*
X36100Y47400D02*
X38100Y49400D01*
X47600D01*
X51400Y49000D02*
X52400D01*
X36500Y47400D02*
X38200Y49100D01*
X51400Y48800D02*
X51600Y48600D01*
X36900Y47400D02*
X38300Y48800D01*
X38100Y47400D02*
X52400D01*
X51600Y47100D02*
X51700Y47000D01*
X38200D02*
X38300Y47100D01*
X47700Y47600D02*
X49700D01*
X49900Y47800D01*
X47500D02*
X47700Y47600D01*
X47800Y46000D02*
X49700D01*
X47600Y45800D02*
X47800Y46000D01*
X49700D02*
X49900Y45800D01*
X51409Y43609D02*
X51600Y43800D01*
X44009Y43609D02*
X51409D01*
X43500Y43100D02*
X44009Y43609D01*
X51500Y44200D02*
X52400D01*
X51300Y44000D02*
X51500Y44200D01*
X43900Y44000D02*
X51300D01*
X43200Y43300D02*
X43900Y44000D01*
X38200Y43300D02*
X43200D01*
X42800Y43600D02*
X43600Y44400D01*
X51600Y44600D02*
X51700D01*
X51400Y44400D02*
X51600Y44600D01*
X43600Y44400D02*
X51400D01*
X38900Y43600D02*
X42800D01*
X51500Y45000D02*
X52400D01*
X51300Y44800D02*
X51500Y45000D01*
X43300Y44800D02*
X51300D01*
X42400Y43900D02*
X43300Y44800D01*
X39200Y43900D02*
X42400D01*
X38300Y47100D02*
X51600D01*
X42100Y46500D02*
X50900D01*
X51000Y46600D01*
X49900Y48100D02*
X50000Y48200D01*
X49594D02*
X49694Y48100D01*
X49900D01*
X51300Y49100D02*
X51400Y49000D01*
X38200Y49100D02*
X51300D01*
X38300Y48800D02*
X51400D01*
X39500Y44200D02*
X41700D01*
X42900Y45400D01*
X51600D01*
X41700Y46200D02*
X51700D01*
X40000Y45300D02*
X40800D01*
X41700Y46200D01*
X38800Y42900D02*
X39000Y43100D01*
X43500D01*
X34200Y47400D02*
Y47800D01*
X23250Y52250D02*
X24750D01*
X27700Y49300D01*
X32700D01*
X34200Y47800D01*
X32500Y48900D02*
X33727Y47673D01*
X24000Y51750D02*
X24050Y51700D01*
X24700D01*
X27500Y48900D01*
X32500D01*
X27150Y48600D02*
X32300D01*
X33200Y47700D01*
X23250Y51250D02*
X24500D01*
X27150Y48600D01*
X26250Y48300D02*
X32000D01*
X33000Y47200D02*
Y47300D01*
X23250Y50250D02*
X24300D01*
X26250Y48300D01*
X32000D02*
X33000Y47300D01*
X28500Y40000D02*
Y44400D01*
X21750Y49250D02*
X22550D01*
X23000Y48800D01*
X23400D01*
X24000Y48200D01*
X24700D01*
X28500Y44400D01*
X24000Y43750D02*
X24150D01*
X29000Y38900D02*
X30100D01*
X24150Y43750D02*
X29000Y38900D01*
X23250Y43250D02*
X24050D01*
X28700Y38600D01*
X28430Y38130D02*
Y38470D01*
X24000Y42750D02*
X24150D01*
X28430Y38470D01*
X28000Y37800D02*
Y38400D01*
X23250Y41250D02*
X25150D01*
X28000Y38400D01*
X24000Y40750D02*
X25150D01*
X27400Y38000D02*
Y38500D01*
X25150Y40750D02*
X27400Y38500D01*
X24950Y40250D02*
X26900Y38300D01*
X23250Y40250D02*
X24950D01*
X26500Y38000D02*
Y38100D01*
X24000Y39750D02*
X24850D01*
X26500Y38100D01*
X23250Y39250D02*
X24450D01*
X26100Y37600D01*
X25650Y37100D02*
X25700D01*
X24000Y38750D02*
X25650Y37100D01*
X25300Y36700D02*
Y37000D01*
X23250Y38250D02*
X24050D01*
X25300Y37000D01*
X25000Y36300D02*
Y36750D01*
X24000Y37750D02*
X25000Y36750D01*
X52000Y52200D02*
X56900D01*
X50300Y39500D02*
X50400D01*
D39*
X31000Y31700D02*
X31009Y31709D01*
X52308Y39292D02*
X54708D01*
X51500Y40100D02*
X52308Y39292D01*
X43100Y40100D02*
X51500D01*
X35300Y38100D02*
X37200D01*
X52000Y40500D02*
X52600Y39900D01*
X54900D01*
X38300Y40500D02*
X52000D01*
X36519Y38619D02*
Y38719D01*
X51135Y33900D02*
X52600D01*
X51100Y33865D02*
X51135Y33900D01*
X41400Y33865D02*
X51100D01*
X60100Y43600D02*
X60105Y43595D01*
X58900Y55500D02*
X67600D01*
X69100Y55300D02*
X69600Y54800D01*
X58000Y56800D02*
X58300D01*
X22400Y50500D02*
Y50800D01*
X28600Y46500D02*
X29300D01*
X22400Y50500D02*
X23100Y49800D01*
X23400D01*
X23900Y49300D01*
X24700D01*
X26100Y47900D01*
X27200D01*
X28600Y46500D01*
X41100Y33600D02*
X52000D01*
X38300Y32300D02*
X39800Y33800D01*
X37900Y32600D02*
X39400Y34100D01*
X41200D01*
X41400Y33900D01*
X39800Y33800D02*
X40900D01*
X41100Y33600D01*
X69600Y50800D02*
Y50900D01*
X60700Y53300D02*
X61500Y52500D01*
X64200D01*
X64700Y52000D01*
X65400D01*
X66100Y51300D01*
X69200D01*
X69600Y50900D01*
X66200Y53600D02*
X67500Y52300D01*
X69100D02*
X69600Y51800D01*
X59800Y53400D02*
X60000Y53600D01*
X66200D01*
X67200Y53800D02*
X67700Y53300D01*
X58900Y53800D02*
X67200D01*
X67700Y53300D02*
X69100D01*
X69600Y52800D01*
X67500Y52300D02*
X69100D01*
X67400Y54300D02*
X69100D01*
X55500Y46300D02*
Y47700D01*
X46500Y41500D02*
X50700D01*
X55500Y46300D01*
X57000Y47200D02*
Y48000D01*
X45400Y41100D02*
X50900D01*
X57000Y47200D01*
X58200Y55900D02*
X58800Y55300D01*
X58200Y55900D02*
Y56400D01*
X69100Y54300D02*
X69600Y53800D01*
X58800Y55300D02*
X66400D01*
X67400Y54300D01*
X58700Y55700D02*
X58900Y55500D01*
X58700Y55700D02*
Y56400D01*
X58300Y56800D02*
X58700Y56400D01*
X67800Y55300D02*
X69100D01*
X67600Y55500D02*
X67800Y55300D01*
X55400Y35800D02*
X57200D01*
X45889Y39311D02*
X46300Y38900D01*
X52300D02*
X55400Y35800D01*
X57200D02*
X57800Y35200D01*
X46300Y38900D02*
X52300D01*
X52400Y38100D02*
X55100Y35400D01*
X55600D01*
X36519Y38719D02*
X38300Y40500D01*
X41800Y38800D02*
X43100Y40100D01*
X37900Y38800D02*
X41800D01*
X37200Y38100D02*
X37900Y38800D01*
X82700Y37000D02*
Y36400D01*
X83100D01*
X83300D02*
Y36800D01*
X83500Y37000D01*
X83700Y36800D01*
Y36400D01*
Y36700D01*
X83300D01*
X83900Y37000D02*
Y36900D01*
X84100Y36700D01*
X84299Y36900D01*
Y37000D01*
X84100Y36700D02*
Y36400D01*
X84899Y37000D02*
X84499D01*
Y36400D01*
X84899D01*
X84499Y36700D02*
X84699D01*
X85099Y36400D02*
Y37000D01*
X85399D01*
X85499Y36900D01*
Y36700D01*
X85399Y36600D01*
X85099D01*
X85299D02*
X85499Y36400D01*
X86299Y36900D02*
X86399Y37000D01*
X86599D01*
X86699Y36900D01*
Y36800D01*
X86599Y36700D01*
X86499D01*
X86599D01*
X86699Y36600D01*
Y36500D01*
X86599Y36400D01*
X86399D01*
X86299Y36500D01*
D40*
X59100Y47400D02*
Y52600D01*
X57400Y54300D02*
Y56500D01*
X54950Y43250D02*
X59100Y47400D01*
X54950Y42850D02*
Y43250D01*
X57400Y54300D02*
X59100Y52600D01*
X71800Y33400D02*
Y39200D01*
X69200Y30800D02*
X71800Y33400D01*
X34600Y30800D02*
X69200D01*
X33900Y31500D02*
X34600Y30800D01*
X71800Y39200D02*
X76350Y43750D01*
X67500Y56300D02*
X69100D01*
X66800Y57000D02*
X67500Y56300D01*
X69100D02*
X69600Y56800D01*
X58727Y56927D02*
X58800Y57000D01*
X66800D01*
D44*
X22500Y50750D02*
D03*
X21750Y49250D02*
D03*
X23250Y52250D02*
D03*
X24000Y51750D02*
D03*
X23250Y51250D02*
D03*
Y50250D02*
D03*
X24000Y43750D02*
D03*
X23250Y43250D02*
D03*
X24000Y42750D02*
D03*
X23250Y41250D02*
D03*
X24000Y40750D02*
D03*
X23250Y40250D02*
D03*
X24000Y39750D02*
D03*
X23250Y39250D02*
D03*
X24000Y38750D02*
D03*
X23250Y38250D02*
D03*
X24000Y37750D02*
D03*
D50*
X69400Y43800D02*
D03*
Y42800D02*
D03*
Y40800D02*
D03*
X69600Y56800D02*
D03*
Y54800D02*
D03*
Y53800D02*
D03*
Y52800D02*
D03*
Y51800D02*
D03*
Y50800D02*
D03*
D51*
X31009Y31709D02*
D03*
X54708Y39292D02*
D03*
X54900Y39900D02*
D03*
X29300Y46500D02*
D03*
X66200Y41200D02*
D03*
X58700Y41800D02*
D03*
X58500Y41200D02*
D03*
X65700Y43700D02*
D03*
X58300Y43600D02*
D03*
X57939Y42161D02*
D03*
X57743Y43543D02*
D03*
X41000Y31500D02*
D03*
X41800Y31100D02*
D03*
X38400Y35200D02*
D03*
X38100Y35600D02*
D03*
X37700Y35900D02*
D03*
X37400Y36200D02*
D03*
X37100Y36500D02*
D03*
X36700Y36800D02*
D03*
X36400Y37100D02*
D03*
X36000Y37400D02*
D03*
X37900Y32600D02*
D03*
X38300Y32300D02*
D03*
X38700Y32000D02*
D03*
X39200Y31800D02*
D03*
X39600Y31600D02*
D03*
X40100Y31400D02*
D03*
X52000Y37400D02*
D03*
X52600Y37100D02*
D03*
X52000Y36800D02*
D03*
X52600Y36500D02*
D03*
X52000Y36200D02*
D03*
X52600Y35900D02*
D03*
X52000Y35600D02*
D03*
X52600Y35300D02*
D03*
Y33900D02*
D03*
X52000Y31700D02*
D03*
X52600Y32000D02*
D03*
X52000Y32300D02*
D03*
X52600Y32600D02*
D03*
X52000Y33000D02*
D03*
Y33600D02*
D03*
X52600Y33300D02*
D03*
X60105Y43595D02*
D03*
X60700Y53300D02*
D03*
X59000Y53700D02*
D03*
X59800Y53400D02*
D03*
X58200Y56400D02*
D03*
X58000Y56800D02*
D03*
X34300Y48100D02*
D03*
X34700Y48300D02*
D03*
X52100Y50200D02*
D03*
X55500Y47700D02*
D03*
X46500Y41500D02*
D03*
X57000Y48000D02*
D03*
X45400Y41100D02*
D03*
X40000Y44800D02*
D03*
Y45300D02*
D03*
X38200Y43300D02*
D03*
X37200Y42900D02*
D03*
X42000Y46600D02*
D03*
X39500Y44200D02*
D03*
X39200Y43900D02*
D03*
X38900Y43600D02*
D03*
X38200Y47000D02*
D03*
X38100Y47400D02*
D03*
X37700D02*
D03*
X37300D02*
D03*
X36900D02*
D03*
X36500D02*
D03*
X36100D02*
D03*
X35700D02*
D03*
X52400Y49000D02*
D03*
Y48200D02*
D03*
Y45800D02*
D03*
Y45000D02*
D03*
Y44200D02*
D03*
X51600Y49400D02*
D03*
Y48600D02*
D03*
X51700Y47800D02*
D03*
X52400Y47400D02*
D03*
X51700Y47000D02*
D03*
Y43800D02*
D03*
Y44600D02*
D03*
Y45400D02*
D03*
Y46200D02*
D03*
X52400Y46600D02*
D03*
X34200Y47400D02*
D03*
X33727Y47673D02*
D03*
X33200Y47700D02*
D03*
X33000Y47200D02*
D03*
X28500Y40000D02*
D03*
X30100Y38900D02*
D03*
X28700Y38600D02*
D03*
X28430Y38130D02*
D03*
X28000Y37800D02*
D03*
X27400Y38000D02*
D03*
X26900Y38300D02*
D03*
X26500Y38000D02*
D03*
X26100Y37600D02*
D03*
X25700Y37100D02*
D03*
X25300Y36700D02*
D03*
X25000Y36300D02*
D03*
X54950Y42850D02*
D03*
X57000Y52300D02*
D03*
X58700Y52200D02*
D03*
X57400Y56500D02*
D03*
X76350Y43750D02*
D03*
X33900Y31500D02*
D03*
X58727Y56927D02*
D03*
X45889Y39311D02*
D03*
X57800Y35200D02*
D03*
X52400Y38100D02*
D03*
X55600Y35400D02*
D03*
X36519Y38619D02*
D03*
X35300Y38100D02*
D03*
X50300Y39500D02*
D03*
M02*
