%FSLAX24Y24*%
%MOIN*%
G70*
G01*
G75*
G04 Layer_Physical_Order=1*
G04 Layer_Color=255*
%ADD10R,0.0472X0.0236*%
%ADD11R,0.0472X0.0236*%
%ADD12R,0.0620X0.1010*%
%ADD13R,0.0600X0.0150*%
%ADD14R,0.0360X0.2560*%
%ADD15R,0.0620X0.0775*%
%ADD16R,0.0630X0.0118*%
%ADD17R,0.0118X0.0630*%
%ADD18R,0.0433X0.0394*%
%ADD19R,0.0512X0.0591*%
%ADD20R,0.0728X0.0118*%
%ADD21R,0.0118X0.0728*%
%ADD22R,0.0787X0.0866*%
%ADD23R,0.0807X0.0236*%
%ADD24R,0.0394X0.0433*%
%ADD25R,0.1063X0.0630*%
%ADD26C,0.0241*%
%ADD27R,0.1024X0.0945*%
%ADD28R,0.0866X0.0787*%
%ADD29C,0.0080*%
%ADD30C,0.0100*%
%ADD31C,0.0200*%
%ADD32C,0.0160*%
%ADD33C,0.0200*%
%ADD34C,0.0460*%
%ADD35C,0.0520*%
%ADD36C,0.0600*%
%ADD37C,0.0500*%
%ADD38R,0.0591X0.0591*%
%ADD39C,0.0591*%
%ADD40C,0.1732*%
%ADD41C,0.1732*%
%ADD42C,0.0250*%
%ADD43C,0.0320*%
D10*
X34981Y33000D02*
D03*
D11*
X33800Y32626D02*
D03*
Y32252D02*
D03*
X34981D02*
D03*
X33800Y33000D02*
D03*
D12*
X30800Y56000D02*
D03*
D13*
X31950Y54850D02*
D03*
Y55106D02*
D03*
Y55362D02*
D03*
Y55618D02*
D03*
Y55874D02*
D03*
Y56130D02*
D03*
Y56386D02*
D03*
Y56642D02*
D03*
Y56898D02*
D03*
Y57154D02*
D03*
X29650Y54850D02*
D03*
Y55106D02*
D03*
Y55362D02*
D03*
Y55618D02*
D03*
Y55874D02*
D03*
Y56130D02*
D03*
Y56386D02*
D03*
Y56642D02*
D03*
Y56898D02*
D03*
Y57154D02*
D03*
D14*
X30310Y56000D02*
D03*
X31290D02*
D03*
D15*
X30800Y55110D02*
D03*
Y56890D02*
D03*
D16*
X55627Y41845D02*
D03*
Y41648D02*
D03*
Y41451D02*
D03*
Y41254D02*
D03*
Y41057D02*
D03*
Y40861D02*
D03*
Y40664D02*
D03*
Y40467D02*
D03*
Y40270D02*
D03*
Y40073D02*
D03*
Y39876D02*
D03*
Y39680D02*
D03*
Y39483D02*
D03*
Y39286D02*
D03*
Y39089D02*
D03*
Y38892D02*
D03*
Y38695D02*
D03*
Y38498D02*
D03*
Y38302D02*
D03*
Y38105D02*
D03*
Y37908D02*
D03*
Y37711D02*
D03*
Y37514D02*
D03*
Y37317D02*
D03*
Y37120D02*
D03*
Y36924D02*
D03*
Y36727D02*
D03*
Y36530D02*
D03*
Y36333D02*
D03*
Y36136D02*
D03*
Y35939D02*
D03*
Y35743D02*
D03*
Y35546D02*
D03*
Y35349D02*
D03*
Y35152D02*
D03*
Y34955D02*
D03*
X63973Y41845D02*
D03*
Y41648D02*
D03*
Y41451D02*
D03*
Y41254D02*
D03*
Y41057D02*
D03*
Y40861D02*
D03*
Y40664D02*
D03*
Y40467D02*
D03*
Y40270D02*
D03*
Y40073D02*
D03*
Y39876D02*
D03*
Y39680D02*
D03*
Y39483D02*
D03*
Y39286D02*
D03*
Y39089D02*
D03*
Y38892D02*
D03*
Y38695D02*
D03*
Y38498D02*
D03*
Y38302D02*
D03*
Y38105D02*
D03*
Y37908D02*
D03*
Y37711D02*
D03*
Y37514D02*
D03*
Y37317D02*
D03*
Y37120D02*
D03*
Y36924D02*
D03*
Y36727D02*
D03*
Y36530D02*
D03*
Y36333D02*
D03*
Y36136D02*
D03*
Y35939D02*
D03*
Y35743D02*
D03*
Y35546D02*
D03*
Y35349D02*
D03*
Y35152D02*
D03*
Y34955D02*
D03*
Y47155D02*
D03*
Y47352D02*
D03*
Y47549D02*
D03*
Y47746D02*
D03*
Y47943D02*
D03*
Y48139D02*
D03*
Y48336D02*
D03*
Y48533D02*
D03*
Y48730D02*
D03*
Y48927D02*
D03*
Y49124D02*
D03*
Y49320D02*
D03*
Y49517D02*
D03*
Y49714D02*
D03*
Y49911D02*
D03*
Y50108D02*
D03*
Y50305D02*
D03*
Y50502D02*
D03*
Y50698D02*
D03*
Y50895D02*
D03*
Y51092D02*
D03*
Y51289D02*
D03*
Y51486D02*
D03*
Y51683D02*
D03*
Y51880D02*
D03*
Y52076D02*
D03*
Y52273D02*
D03*
Y52470D02*
D03*
Y52667D02*
D03*
Y52864D02*
D03*
Y53061D02*
D03*
Y53257D02*
D03*
Y53454D02*
D03*
Y53651D02*
D03*
Y53848D02*
D03*
Y54045D02*
D03*
X55627Y47155D02*
D03*
Y47352D02*
D03*
Y47549D02*
D03*
Y47746D02*
D03*
Y47943D02*
D03*
Y48139D02*
D03*
Y48336D02*
D03*
Y48533D02*
D03*
Y48730D02*
D03*
Y48927D02*
D03*
Y49124D02*
D03*
Y49320D02*
D03*
Y49517D02*
D03*
Y49714D02*
D03*
Y49911D02*
D03*
Y50108D02*
D03*
Y50305D02*
D03*
Y50502D02*
D03*
Y50698D02*
D03*
Y50895D02*
D03*
Y51092D02*
D03*
Y51289D02*
D03*
Y51486D02*
D03*
Y51683D02*
D03*
Y51880D02*
D03*
Y52076D02*
D03*
Y52273D02*
D03*
Y52470D02*
D03*
Y52667D02*
D03*
Y52864D02*
D03*
Y53061D02*
D03*
Y53257D02*
D03*
Y53454D02*
D03*
Y53651D02*
D03*
Y53848D02*
D03*
Y54045D02*
D03*
D17*
X56355Y34227D02*
D03*
X56552D02*
D03*
X56749D02*
D03*
X56946D02*
D03*
X57143D02*
D03*
X57339D02*
D03*
X57536D02*
D03*
X57733D02*
D03*
X57930D02*
D03*
X58127D02*
D03*
X58324D02*
D03*
X58520D02*
D03*
X58717D02*
D03*
X58914D02*
D03*
X59111D02*
D03*
X59308D02*
D03*
X59505D02*
D03*
X59702D02*
D03*
X59898D02*
D03*
X60095D02*
D03*
X60292D02*
D03*
X60489D02*
D03*
X60686D02*
D03*
X60883D02*
D03*
X61080D02*
D03*
X61276D02*
D03*
X61473D02*
D03*
X61670D02*
D03*
X61867D02*
D03*
X62064D02*
D03*
X62261D02*
D03*
X62457D02*
D03*
X62654D02*
D03*
X62851D02*
D03*
X63048D02*
D03*
X63245D02*
D03*
X56355Y42573D02*
D03*
X56552D02*
D03*
X56749D02*
D03*
X56946D02*
D03*
X57143D02*
D03*
X57339D02*
D03*
X57536D02*
D03*
X57733D02*
D03*
X57930D02*
D03*
X58127D02*
D03*
X58324D02*
D03*
X58520D02*
D03*
X58717D02*
D03*
X58914D02*
D03*
X59111D02*
D03*
X59308D02*
D03*
X59505D02*
D03*
X59702D02*
D03*
X59898D02*
D03*
X60095D02*
D03*
X60292D02*
D03*
X60489D02*
D03*
X60686D02*
D03*
X60883D02*
D03*
X61080D02*
D03*
X61276D02*
D03*
X61473D02*
D03*
X61670D02*
D03*
X61867D02*
D03*
X62064D02*
D03*
X62261D02*
D03*
X62457D02*
D03*
X62654D02*
D03*
X62851D02*
D03*
X63048D02*
D03*
X63245D02*
D03*
Y54773D02*
D03*
X63048D02*
D03*
X62851D02*
D03*
X62654D02*
D03*
X62457D02*
D03*
X62261D02*
D03*
X62064D02*
D03*
X61867D02*
D03*
X61670D02*
D03*
X61473D02*
D03*
X61276D02*
D03*
X61080D02*
D03*
X60883D02*
D03*
X60686D02*
D03*
X60489D02*
D03*
X60292D02*
D03*
X60095D02*
D03*
X59898D02*
D03*
X59702D02*
D03*
X59505D02*
D03*
X59308D02*
D03*
X59111D02*
D03*
X58914D02*
D03*
X58717D02*
D03*
X58520D02*
D03*
X58324D02*
D03*
X58127D02*
D03*
X57930D02*
D03*
X57733D02*
D03*
X57536D02*
D03*
X57339D02*
D03*
X57143D02*
D03*
X56946D02*
D03*
X56749D02*
D03*
X56552D02*
D03*
X56355D02*
D03*
X63245Y46427D02*
D03*
X63048D02*
D03*
X62851D02*
D03*
X62654D02*
D03*
X62457D02*
D03*
X62261D02*
D03*
X62064D02*
D03*
X61867D02*
D03*
X61670D02*
D03*
X61473D02*
D03*
X61276D02*
D03*
X61080D02*
D03*
X60883D02*
D03*
X60686D02*
D03*
X60489D02*
D03*
X60292D02*
D03*
X60095D02*
D03*
X59898D02*
D03*
X59702D02*
D03*
X59505D02*
D03*
X59308D02*
D03*
X59111D02*
D03*
X58914D02*
D03*
X58717D02*
D03*
X58520D02*
D03*
X58324D02*
D03*
X58127D02*
D03*
X57930D02*
D03*
X57733D02*
D03*
X57536D02*
D03*
X57339D02*
D03*
X57143D02*
D03*
X56946D02*
D03*
X56749D02*
D03*
X56552D02*
D03*
X56355D02*
D03*
D18*
X52365Y42800D02*
D03*
X53035D02*
D03*
X70465Y45400D02*
D03*
X71135D02*
D03*
X73065Y37600D02*
D03*
X73735D02*
D03*
X27665Y54600D02*
D03*
X28335D02*
D03*
X47335Y50200D02*
D03*
X46665D02*
D03*
X49135D02*
D03*
X48465D02*
D03*
X50935D02*
D03*
X50265D02*
D03*
X52735D02*
D03*
X52065D02*
D03*
X32335Y48300D02*
D03*
X31665D02*
D03*
X32335Y47300D02*
D03*
X31665D02*
D03*
X30435Y46300D02*
D03*
X29765D02*
D03*
X31665Y46000D02*
D03*
X32335D02*
D03*
X30865Y52800D02*
D03*
X31535D02*
D03*
X32365Y50800D02*
D03*
X33035D02*
D03*
X26435Y58200D02*
D03*
X25765D02*
D03*
X31535Y38200D02*
D03*
X30865D02*
D03*
X31535Y37200D02*
D03*
X30865D02*
D03*
X33365Y34100D02*
D03*
X34035D02*
D03*
X35265D02*
D03*
X35935D02*
D03*
D19*
X72974Y53600D02*
D03*
X72226D02*
D03*
X73074Y50600D02*
D03*
X72326D02*
D03*
X73126Y45400D02*
D03*
X73874D02*
D03*
X72826Y41500D02*
D03*
X73574D02*
D03*
X71474Y40300D02*
D03*
X70726D02*
D03*
X72926Y39200D02*
D03*
X73674D02*
D03*
D20*
X33865Y47020D02*
D03*
Y46823D02*
D03*
Y46626D02*
D03*
Y46429D02*
D03*
Y46232D02*
D03*
Y46035D02*
D03*
Y45839D02*
D03*
Y45642D02*
D03*
Y45445D02*
D03*
Y45248D02*
D03*
Y45051D02*
D03*
Y44854D02*
D03*
Y44657D02*
D03*
Y44461D02*
D03*
Y44264D02*
D03*
Y44067D02*
D03*
Y43870D02*
D03*
Y43673D02*
D03*
Y43476D02*
D03*
Y43280D02*
D03*
Y43083D02*
D03*
Y42886D02*
D03*
Y42689D02*
D03*
Y42492D02*
D03*
Y42295D02*
D03*
Y42098D02*
D03*
Y41902D02*
D03*
Y41705D02*
D03*
Y41508D02*
D03*
Y41311D02*
D03*
Y41114D02*
D03*
Y40917D02*
D03*
Y40720D02*
D03*
Y40524D02*
D03*
Y40327D02*
D03*
Y40130D02*
D03*
Y39933D02*
D03*
Y39736D02*
D03*
Y39539D02*
D03*
Y39343D02*
D03*
Y39146D02*
D03*
Y38949D02*
D03*
Y38752D02*
D03*
Y38555D02*
D03*
Y38358D02*
D03*
Y38161D02*
D03*
Y37965D02*
D03*
Y37768D02*
D03*
Y37571D02*
D03*
Y37374D02*
D03*
Y37177D02*
D03*
Y36980D02*
D03*
X45735Y47020D02*
D03*
Y46823D02*
D03*
Y46626D02*
D03*
Y46429D02*
D03*
Y46232D02*
D03*
Y46035D02*
D03*
Y45839D02*
D03*
Y45642D02*
D03*
Y45445D02*
D03*
Y45248D02*
D03*
Y45051D02*
D03*
Y44854D02*
D03*
Y44657D02*
D03*
Y44461D02*
D03*
Y44264D02*
D03*
Y44067D02*
D03*
Y43870D02*
D03*
Y43673D02*
D03*
Y43476D02*
D03*
Y43280D02*
D03*
Y43083D02*
D03*
Y42886D02*
D03*
Y42689D02*
D03*
Y42492D02*
D03*
Y42295D02*
D03*
Y42098D02*
D03*
Y41902D02*
D03*
Y41705D02*
D03*
Y41508D02*
D03*
Y41311D02*
D03*
Y41114D02*
D03*
Y40917D02*
D03*
Y40720D02*
D03*
Y40524D02*
D03*
Y40327D02*
D03*
Y40130D02*
D03*
Y39933D02*
D03*
Y39736D02*
D03*
Y39539D02*
D03*
Y39343D02*
D03*
Y39146D02*
D03*
Y38949D02*
D03*
Y38752D02*
D03*
Y38555D02*
D03*
Y38358D02*
D03*
Y38161D02*
D03*
Y37965D02*
D03*
Y37768D02*
D03*
Y37571D02*
D03*
Y37374D02*
D03*
Y37177D02*
D03*
Y36980D02*
D03*
D21*
X44820Y47935D02*
D03*
X44623D02*
D03*
X44426D02*
D03*
X44229D02*
D03*
X44032D02*
D03*
X43835D02*
D03*
X43639D02*
D03*
X43442D02*
D03*
X43245D02*
D03*
X43048D02*
D03*
X42851D02*
D03*
X42654D02*
D03*
X42457D02*
D03*
X42261D02*
D03*
X42064D02*
D03*
X41867D02*
D03*
X41670D02*
D03*
X41473D02*
D03*
X41276D02*
D03*
X41080D02*
D03*
X40883D02*
D03*
X40686D02*
D03*
X40489D02*
D03*
X40292D02*
D03*
X40095D02*
D03*
X39898D02*
D03*
X39702D02*
D03*
X39505D02*
D03*
X39308D02*
D03*
X39111D02*
D03*
X38914D02*
D03*
X38717D02*
D03*
X38520D02*
D03*
X38324D02*
D03*
X38127D02*
D03*
X37930D02*
D03*
X37733D02*
D03*
X37536D02*
D03*
X37339D02*
D03*
X37143D02*
D03*
X36946D02*
D03*
X36749D02*
D03*
X36552D02*
D03*
X36355D02*
D03*
X36158D02*
D03*
X35961D02*
D03*
X35765D02*
D03*
X35568D02*
D03*
X35371D02*
D03*
X35174D02*
D03*
X34977D02*
D03*
X34780D02*
D03*
X44820Y36065D02*
D03*
X44623D02*
D03*
X44426D02*
D03*
X44229D02*
D03*
X44032D02*
D03*
X43835D02*
D03*
X43639D02*
D03*
X43442D02*
D03*
X43245D02*
D03*
X43048D02*
D03*
X42851D02*
D03*
X42654D02*
D03*
X42457D02*
D03*
X42261D02*
D03*
X42064D02*
D03*
X41867D02*
D03*
X41670D02*
D03*
X41473D02*
D03*
X41276D02*
D03*
X41080D02*
D03*
X40883D02*
D03*
X40686D02*
D03*
X40489D02*
D03*
X40292D02*
D03*
X40095D02*
D03*
X39898D02*
D03*
X39702D02*
D03*
X39505D02*
D03*
X39308D02*
D03*
X39111D02*
D03*
X38914D02*
D03*
X38717D02*
D03*
X38520D02*
D03*
X38324D02*
D03*
X38127D02*
D03*
X37930D02*
D03*
X37733D02*
D03*
X37536D02*
D03*
X37339D02*
D03*
X37143D02*
D03*
X36946D02*
D03*
X36749D02*
D03*
X36552D02*
D03*
X36355D02*
D03*
X36158D02*
D03*
X35961D02*
D03*
X35765D02*
D03*
X35568D02*
D03*
X35371D02*
D03*
X35174D02*
D03*
X34977D02*
D03*
X34780D02*
D03*
D22*
X70209Y46800D02*
D03*
X71391D02*
D03*
X48009Y47600D02*
D03*
X49191D02*
D03*
X30109Y34100D02*
D03*
X31291D02*
D03*
X52509D02*
D03*
X53691D02*
D03*
X27809Y47600D02*
D03*
X28991D02*
D03*
X48909Y36500D02*
D03*
X50091D02*
D03*
X37691Y32700D02*
D03*
X36509D02*
D03*
X50709Y47600D02*
D03*
X51891D02*
D03*
X48909Y34100D02*
D03*
X50091D02*
D03*
D23*
X73153Y42750D02*
D03*
Y43250D02*
D03*
Y43750D02*
D03*
Y44250D02*
D03*
X71047Y42750D02*
D03*
Y43250D02*
D03*
Y43750D02*
D03*
Y44250D02*
D03*
D24*
X33000Y53865D02*
D03*
Y54535D02*
D03*
Y56735D02*
D03*
Y56065D02*
D03*
X62800Y57165D02*
D03*
Y57835D02*
D03*
X60000Y44735D02*
D03*
Y44065D02*
D03*
X61300Y44735D02*
D03*
Y44065D02*
D03*
X62600Y44735D02*
D03*
Y44065D02*
D03*
X58800Y57835D02*
D03*
Y57165D02*
D03*
X61100Y57835D02*
D03*
Y57165D02*
D03*
X60000Y57835D02*
D03*
Y57165D02*
D03*
D25*
X28200Y55849D02*
D03*
Y56951D02*
D03*
D26*
X35062Y58402D02*
X35574Y57891D01*
X34909Y57226D01*
X34398Y57738D01*
X35062Y58402D01*
Y58118D02*
X35290Y57891D01*
X34909Y57510D01*
X34682Y57738D01*
X35062Y58118D01*
X35030Y57866D02*
X34941Y57763D01*
X37891Y55574D02*
X38402Y55062D01*
X37738Y54398D01*
X37226Y54909D01*
X37891Y55574D01*
Y55290D02*
X38118Y55062D01*
X37738Y54682D01*
X37510Y54909D01*
X37891Y55290D01*
X37859Y55037D02*
X37770Y54934D01*
D27*
X37060Y52600D02*
D03*
X34540D02*
D03*
D28*
X66200Y35991D02*
D03*
Y34809D02*
D03*
X66000Y49091D02*
D03*
Y47909D02*
D03*
D29*
X45210Y47320D02*
X45341Y47189D01*
X45261D02*
X45341D01*
X45280D02*
Y47250D01*
X45200Y46973D02*
Y47320D01*
X45261Y46992D02*
Y47189D01*
X45200Y46074D02*
Y46673D01*
X44913Y47040D02*
X45261D01*
X44980Y46973D02*
X45261D01*
X45083Y47320D02*
X45210D01*
X44980Y46673D02*
X45261D01*
X44947Y46640D02*
X45261D01*
Y46598D02*
Y46654D01*
Y46457D02*
Y46598D01*
Y46457D02*
Y46598D01*
Y46401D02*
Y46457D01*
Y46260D02*
Y46401D01*
Y46260D02*
Y46401D01*
Y46204D02*
Y46260D01*
Y46074D02*
Y46204D01*
Y46074D02*
Y46204D01*
X45044Y46074D02*
X45261D01*
X44792Y47461D02*
X44965D01*
Y47437D02*
X45083Y47320D01*
X44880Y47058D02*
Y47461D01*
X44960Y46993D02*
Y47461D01*
X44800Y47058D02*
Y47461D01*
X44720Y47058D02*
Y47461D01*
X44651D02*
X44792D01*
X44651D02*
X44792D01*
X44595D02*
X44651D01*
X44640Y47038D02*
Y47461D01*
X44560Y46958D02*
Y47461D01*
X45120Y46973D02*
Y47320D01*
Y46074D02*
Y46673D01*
X45040Y46973D02*
Y47362D01*
Y46070D02*
Y46673D01*
X44960Y45990D02*
Y46653D01*
X44895Y47058D02*
X44980Y46973D01*
X44660Y47058D02*
X44895D01*
X44542Y46940D02*
X44660Y47058D01*
X44895Y46588D02*
X44980Y46673D01*
X44660Y46588D02*
X44895D01*
X45261Y45473D02*
Y45604D01*
Y45473D02*
Y45604D01*
Y45417D02*
Y45473D01*
Y45276D02*
Y45417D01*
Y45276D02*
Y45417D01*
Y45220D02*
Y45276D01*
X45044Y45604D02*
X45261D01*
Y45079D02*
Y45220D01*
Y45079D02*
Y45220D01*
Y45023D02*
Y45079D01*
Y44882D02*
Y45023D01*
Y44882D02*
Y45023D01*
Y44827D02*
Y44882D01*
Y44685D02*
Y44827D01*
Y44685D02*
Y44827D01*
Y44630D02*
Y44685D01*
Y44488D02*
Y44630D01*
Y44488D02*
Y44630D01*
Y44433D02*
Y44488D01*
Y44292D02*
Y44433D01*
X45200Y44105D02*
Y45604D01*
X45261Y44292D02*
Y44433D01*
X45120Y44105D02*
Y45604D01*
X45040Y44105D02*
Y45608D01*
X44960Y44053D02*
Y45687D01*
X44926Y45956D02*
X45044Y46074D01*
X44926Y45721D02*
X45044Y45604D01*
X44926Y45721D02*
Y45956D01*
X44880Y43133D02*
Y46588D01*
X44800Y42552D02*
Y46588D01*
X45261Y44236D02*
Y44292D01*
Y44095D02*
Y44236D01*
Y44095D02*
Y44236D01*
Y43504D02*
Y43645D01*
Y43504D02*
Y43645D01*
X45012Y44105D02*
X45247D01*
X44895Y43988D02*
X45012Y44105D01*
X44895Y43753D02*
Y43988D01*
Y43753D02*
X45012Y43635D01*
X44960Y43212D02*
Y43688D01*
X44454Y47461D02*
X44595D01*
X44070Y47360D02*
X45042D01*
X44454Y47461D02*
X44595D01*
X44070Y47280D02*
X45250D01*
X44053Y47200D02*
X45330D01*
X44542Y46705D02*
X44660Y46588D01*
X43973Y47120D02*
X45261D01*
X37489Y47040D02*
X44642D01*
X37489Y46640D02*
X44608D01*
X37489Y46560D02*
X45261D01*
X37489Y46480D02*
X45261D01*
X43872Y46080D02*
X45261D01*
X43935Y46000D02*
X44970D01*
X43935Y45920D02*
X44926D01*
X43935Y45840D02*
X44926D01*
X43913Y45760D02*
X44926D01*
X37489Y46400D02*
X45261D01*
X37489Y46320D02*
X45261D01*
X37489Y46240D02*
X45261D01*
X37489Y46160D02*
X45261D01*
X43833Y45680D02*
X44967D01*
X44398Y47461D02*
X44454D01*
X44257D02*
X44398D01*
X44257D02*
X44398D01*
X44201D02*
X44257D01*
X44062D02*
X44201D01*
X44062D02*
X44201D01*
X44070Y47218D02*
Y47453D01*
X43953Y47100D02*
X44070Y47218D01*
X43718Y47100D02*
X43953D01*
X43920Y46033D02*
Y47100D01*
X43840Y46112D02*
Y47100D01*
X44542Y46705D02*
Y46940D01*
X43818Y46135D02*
X43935Y46017D01*
X43583Y46135D02*
X43818D01*
X43935Y45782D02*
Y46017D01*
X43818Y45665D02*
X43935Y45782D01*
X37489Y46960D02*
X44562D01*
X37489Y46880D02*
X44542D01*
X37489Y46800D02*
X44542D01*
X37489Y46720D02*
X44542D01*
X43583Y45665D02*
X43818D01*
X41852Y45600D02*
X45261D01*
X43833Y45120D02*
X45261D01*
X43913Y45040D02*
X45261D01*
X43935Y44960D02*
X45261D01*
X43935Y44880D02*
X45261D01*
X43935Y44800D02*
X45261D01*
X37489Y45520D02*
X45261D01*
X37489Y45440D02*
X45261D01*
X37489Y45360D02*
X45261D01*
X37489Y45280D02*
X45261D01*
X37489Y45200D02*
X45261D01*
X43872Y44720D02*
X45261D01*
X37489Y44640D02*
X45261D01*
X37489Y44560D02*
X45261D01*
X43872Y44080D02*
X44987D01*
X43833Y43680D02*
X44967D01*
X37489Y44480D02*
X45261D01*
X37489Y44400D02*
X45261D01*
X37489Y44320D02*
X45261D01*
X37489Y44240D02*
X45261D01*
X37489Y44160D02*
X45261D01*
X43920Y45033D02*
Y45767D01*
X43935Y44783D02*
Y45017D01*
X43840Y45113D02*
Y45687D01*
X43920Y44033D02*
Y44767D01*
X43840Y44113D02*
Y44688D01*
X43818Y45135D02*
X43935Y45017D01*
X43818Y44665D02*
X43935Y44783D01*
X43583Y45135D02*
X43818D01*
Y44135D02*
X43935Y44018D01*
X43583Y44665D02*
X43818D01*
X43935Y44000D02*
X44907D01*
X43935Y43920D02*
X44895D01*
X43935Y43840D02*
X44895D01*
X43935Y43783D02*
Y44018D01*
X43920Y43032D02*
Y43767D01*
X43818Y43665D02*
X43935Y43783D01*
X43913Y43760D02*
X44895D01*
X43583Y44135D02*
X43818D01*
X43840Y43113D02*
Y43688D01*
X43583Y43665D02*
X43818D01*
X45261Y43449D02*
Y43504D01*
Y43307D02*
Y43449D01*
Y43307D02*
Y43449D01*
Y43252D02*
Y43307D01*
Y42323D02*
Y42421D01*
Y42323D02*
Y42421D01*
X45012Y43635D02*
X45247D01*
X45103Y43243D02*
X45261D01*
X45103D02*
X45261D01*
X45235Y42395D02*
X45261Y42421D01*
Y42267D02*
Y42323D01*
Y42126D02*
Y42267D01*
Y42126D02*
Y42267D01*
Y42071D02*
Y42126D01*
Y41929D02*
Y42071D01*
Y41929D02*
Y42071D01*
X45192Y42240D02*
X45261D01*
Y41874D02*
Y41929D01*
Y41733D02*
Y41874D01*
Y41733D02*
Y41874D01*
Y41692D02*
Y41733D01*
X45200Y43243D02*
Y43635D01*
X45235Y42283D02*
Y42395D01*
X45120Y43243D02*
Y43635D01*
X45118Y42165D02*
X45235Y42283D01*
X45200Y41735D02*
Y42248D01*
X45120Y41735D02*
Y42168D01*
X44983Y43235D02*
X45095D01*
X44983Y42765D02*
X45125D01*
X45040Y43235D02*
Y43635D01*
X44995Y42635D02*
X45125Y42765D01*
X45040Y42680D02*
Y42765D01*
X45217Y41735D02*
X45261Y41692D01*
X45209Y41151D02*
X45261D01*
X45209D02*
X45261D01*
X45208Y41152D02*
X45261D01*
X45129Y41231D02*
X45208Y41152D01*
X44983Y41735D02*
X45217D01*
X44983Y41265D02*
X45095D01*
X45040Y41735D02*
Y42165D01*
X45129Y41231D02*
X45208Y41152D01*
X45095Y41265D02*
X45129Y41231D01*
X45261Y40102D02*
Y40158D01*
Y39961D02*
Y40102D01*
Y39961D02*
Y40102D01*
Y39905D02*
Y39961D01*
Y39770D02*
Y39905D01*
X45193Y40167D02*
X45261D01*
X45193D02*
X45261D01*
Y39770D02*
Y39905D01*
X45022Y39774D02*
X45257D01*
X45022Y39304D02*
X45257D01*
X45261Y39173D02*
Y39308D01*
Y39173D02*
Y39308D01*
Y39118D02*
Y39173D01*
Y38977D02*
Y39118D01*
Y38977D02*
Y39118D01*
Y38921D02*
Y38977D01*
Y38780D02*
Y38921D01*
Y38780D02*
Y38921D01*
X45153Y38800D02*
X45261D01*
Y38724D02*
Y38780D01*
X45113Y40247D02*
X45193Y40167D01*
X45113Y40247D02*
X45193Y40167D01*
X45120Y41152D02*
Y41240D01*
X45200Y39774D02*
Y40167D01*
Y38753D02*
Y39304D01*
X45065Y41152D02*
X45208D01*
X44983Y40265D02*
X45095D01*
X45040Y41127D02*
Y41265D01*
X45120Y39774D02*
Y40240D01*
X45040Y39774D02*
Y40265D01*
X45261Y38583D02*
Y38724D01*
Y38583D02*
Y38724D01*
X45120Y38832D02*
Y39304D01*
X45235Y38605D02*
X45261Y38579D01*
X45235Y38605D02*
Y38718D01*
X45118Y38835D02*
X45235Y38718D01*
X45082Y38278D02*
X45110Y38250D01*
X45040Y38835D02*
Y39304D01*
X45082Y38278D02*
X45110Y38250D01*
X45040Y38235D02*
Y38320D01*
X37489Y43600D02*
X45261D01*
X44865Y43117D02*
X44983Y43235D01*
X43935Y42800D02*
X44948D01*
X44865Y42882D02*
X44983Y42765D01*
X43872Y42720D02*
X45080D01*
X44960Y42635D02*
Y42787D01*
X37489Y43520D02*
X45261D01*
X37489Y43440D02*
X45261D01*
X37489Y43360D02*
X45261D01*
X37489Y43280D02*
X45261D01*
X37489Y43200D02*
X44948D01*
X44960Y41712D02*
Y42165D01*
X44948Y41035D02*
X45065Y41152D01*
X44960Y41047D02*
Y41287D01*
X44948Y40800D02*
X45012Y40735D01*
X44960Y40712D02*
Y40788D01*
X37489Y42640D02*
X45000D01*
X44882Y42165D02*
X45118D01*
X44882Y42635D02*
X44995D01*
X44865Y41617D02*
X44983Y41735D01*
X44865Y41382D02*
X44983Y41265D01*
X43913Y43040D02*
X44865D01*
X43935Y42960D02*
X44865D01*
Y42882D02*
Y43117D01*
X43935Y42880D02*
X44868D01*
X44880Y42632D02*
Y42867D01*
X43935Y42783D02*
Y43018D01*
X43833Y43120D02*
X44868D01*
X43818Y43135D02*
X43935Y43018D01*
X43583Y43135D02*
X43818D01*
Y42665D02*
X43935Y42783D01*
X43583Y42665D02*
X43818D01*
X44765Y42517D02*
X44882Y42635D01*
X44880Y41632D02*
Y42168D01*
X44765Y42283D02*
Y42517D01*
X44948Y40800D02*
Y41035D01*
X44865Y41382D02*
Y41617D01*
X44765Y42283D02*
X44882Y42165D01*
X43773Y40880D02*
X44948D01*
X37485Y42560D02*
X44808D01*
X43835Y40800D02*
X44948D01*
X43717Y40935D02*
X43835Y40817D01*
X44865Y40617D02*
X44983Y40735D01*
X43835Y40720D02*
X44967D01*
X43835Y40640D02*
X44887D01*
X44865Y40382D02*
X44983Y40265D01*
X44904Y39657D02*
X45022Y39774D01*
X44960Y39713D02*
Y40287D01*
X43733Y39920D02*
X45261D01*
X43812Y39840D02*
X45261D01*
X43835Y39760D02*
X45008D01*
X43835Y39680D02*
X44928D01*
X43835Y39600D02*
X44904D01*
Y39422D02*
X45022Y39304D01*
X44995Y38365D02*
X45082Y38278D01*
X44960Y38835D02*
Y39366D01*
X44983Y38235D02*
X45095D01*
X44960Y38212D02*
Y38365D01*
X43773Y38880D02*
X45261D01*
X44882Y38835D02*
X45118D01*
X44882Y38365D02*
X44995D01*
X42333Y38320D02*
X45040D01*
X44865Y38117D02*
X44983Y38235D01*
X44880Y40633D02*
Y41368D01*
X44904Y39422D02*
Y39657D01*
X44865Y40382D02*
Y40617D01*
X44880Y38832D02*
Y40367D01*
X44800Y38753D02*
Y42248D01*
X43812Y40560D02*
X44865D01*
X43773Y39520D02*
X44904D01*
X43733Y40480D02*
X44865D01*
X44765Y38718D02*
X44882Y38835D01*
X43835Y38800D02*
X44847D01*
X43835Y38720D02*
X44767D01*
X43835Y38640D02*
X44765D01*
Y38482D02*
Y38718D01*
Y38482D02*
X44882Y38365D01*
X44880Y38133D02*
Y38368D01*
X43812Y38560D02*
X44765D01*
X42252Y38400D02*
X44847D01*
X43733Y38480D02*
X44767D01*
X42335Y38160D02*
X44907D01*
X42333Y38080D02*
X44865D01*
X42823Y47461D02*
X42879D01*
X42682D02*
X42823D01*
X42682D02*
X42823D01*
X43602Y47362D02*
Y47454D01*
Y47362D02*
Y47454D01*
X42865Y47417D02*
X42908Y47461D01*
X42627D02*
X42682D01*
X42485D02*
X42627D01*
X42485D02*
X42627D01*
X42430D02*
X42485D01*
X42288D02*
X42430D01*
X42288D02*
X42430D01*
X42233D02*
X42288D01*
X42092D02*
X42233D01*
X42092D02*
X42233D01*
X42036D02*
X42092D01*
X41895D02*
X42036D01*
X41895D02*
X42036D01*
X41839D02*
X41895D01*
X40649Y47440D02*
X42888D01*
X40649Y47360D02*
X42865D01*
X41698Y47461D02*
X41839D01*
X41698D02*
X41839D01*
X41642D02*
X41698D01*
X41501D02*
X41642D01*
X41501D02*
X41642D01*
X41445D02*
X41501D01*
X41304D02*
X41445D01*
X41304D02*
X41445D01*
X41249D02*
X41304D01*
X41107D02*
X41249D01*
X41107D02*
X41249D01*
X41052D02*
X41107D01*
X40910D02*
X41052D01*
X40910D02*
X41052D01*
X40855D02*
X40910D01*
X40714D02*
X40855D01*
X40714D02*
X40855D01*
X40658D02*
X40714D01*
X40649Y47309D02*
Y47461D01*
Y47309D02*
Y47461D01*
X43522Y47282D02*
X43600Y47360D01*
X43522Y47282D02*
X43600Y47360D01*
X43520Y47280D02*
X43600D01*
Y47218D02*
Y47360D01*
Y47218D02*
X43718Y47100D01*
X43600Y46135D02*
Y47360D01*
X43460Y47220D02*
X43522Y47282D01*
X43440Y47200D02*
X43618D01*
X43380Y47140D02*
X43460Y47220D01*
X43520Y46073D02*
Y47280D01*
X43380Y47140D02*
X43460Y47220D01*
X43273Y47120D02*
X43698D01*
X43760Y46135D02*
Y47100D01*
X43680Y46135D02*
Y47138D01*
X43465Y46017D02*
X43583Y46135D01*
X43440Y40893D02*
Y47200D01*
X43292Y47140D02*
X43380D01*
X43292D02*
X43380D01*
X43218Y47065D02*
X43292Y47140D01*
X42983Y47065D02*
X43218D01*
X42865Y47182D02*
X42983Y47065D01*
X42240Y38412D02*
Y47461D01*
X42160Y38435D02*
Y47461D01*
X42080Y38435D02*
Y47461D01*
X42320Y38333D02*
Y47461D01*
X42000Y38435D02*
Y47461D01*
X41760Y46035D02*
Y47461D01*
X41680Y46035D02*
Y47461D01*
X41600Y46035D02*
Y47461D01*
X41920Y45932D02*
Y47461D01*
X41840Y46013D02*
Y47461D01*
X41520Y45972D02*
Y47461D01*
X42865Y47182D02*
Y47417D01*
X40800Y38335D02*
Y47461D01*
X40880Y38273D02*
Y47461D01*
X40720Y38335D02*
Y47461D01*
X40635Y47280D02*
X42865D01*
X40635Y47200D02*
X42865D01*
X40635Y47182D02*
Y47295D01*
X40573Y47120D02*
X42927D01*
X40560Y38312D02*
Y47108D01*
X40060Y47220D02*
X40165Y47325D01*
X40120Y47280D02*
X40165D01*
X38961Y47314D02*
Y47461D01*
X40165Y47182D02*
Y47325D01*
X39980Y47140D02*
X40060Y47220D01*
X39980Y47140D02*
X40060Y47220D01*
X38961Y47314D02*
Y47461D01*
X38926D02*
X38952Y47435D01*
X38482D02*
X38508Y47461D01*
X38965Y47182D02*
Y47310D01*
X38952Y47200D02*
Y47435D01*
X40518Y47065D02*
X40635Y47182D01*
X40040Y47200D02*
X40165D01*
X39820Y47140D02*
X39980D01*
X40283Y47065D02*
X40518D01*
X40165Y47182D02*
X40283Y47065D01*
X39372Y47120D02*
X40227D01*
X39820Y47140D02*
X39980D01*
X39392D02*
X39820D01*
X38872Y47120D02*
X39028D01*
X37489D02*
X38562D01*
X38351Y47461D02*
X38493D01*
X38351D02*
X38493D01*
X38296D02*
X38351D01*
X38155D02*
X38296D01*
X38155D02*
X38296D01*
X38099D02*
X38155D01*
X37958D02*
X38099D01*
X37958D02*
X38099D01*
X37902D02*
X37958D01*
X37761D02*
X37902D01*
X37761D02*
X37902D01*
X37705D02*
X37761D01*
X37564D02*
X37705D01*
X38482Y47200D02*
Y47435D01*
X37564Y47461D02*
X37705D01*
X37489Y47440D02*
X38488D01*
X37489Y47360D02*
X38482D01*
X37508Y47461D02*
X37564D01*
X37489Y47280D02*
X38482D01*
X37489Y47200D02*
X38482D01*
X40160Y46135D02*
Y47320D01*
X40240Y46135D02*
Y47108D01*
X40080Y46132D02*
Y47240D01*
X40480Y38233D02*
Y47065D01*
X40400Y46052D02*
Y47065D01*
X40000Y46052D02*
Y47160D01*
X39318Y47065D02*
X39392Y47140D01*
X39360Y38335D02*
Y47108D01*
X38965Y47182D02*
X39083Y47065D01*
X39520Y38233D02*
Y47140D01*
X39440Y38312D02*
Y47140D01*
X40320Y46132D02*
Y47065D01*
X40373Y46080D02*
X43527D01*
X40083Y46135D02*
X40318D01*
X40435Y46017D01*
X39965D02*
X40083Y46135D01*
X39083Y47065D02*
X39318D01*
X38872Y46080D02*
X40027D01*
X39280Y38335D02*
Y47065D01*
X39200Y38335D02*
Y47065D01*
X39120Y38273D02*
Y47065D01*
X38835Y47082D02*
X38952Y47200D01*
X38482D02*
X38600Y47082D01*
X38480Y46033D02*
Y47461D01*
X38080Y45972D02*
Y47461D01*
X38000Y46035D02*
Y47461D01*
X37920Y46035D02*
Y47461D01*
X37840Y46035D02*
Y47461D01*
X37760Y46013D02*
Y47461D01*
X37680Y45932D02*
Y47461D01*
X37489Y42714D02*
Y47461D01*
X38800Y46135D02*
Y47082D01*
X38720Y46135D02*
Y47082D01*
X38640Y46135D02*
Y47082D01*
X38818Y46135D02*
X38935Y46017D01*
X38880Y46073D02*
Y47127D01*
X38600Y47082D02*
X38835D01*
X38582Y46135D02*
X38818D01*
X38560Y46112D02*
Y47122D01*
X38465Y46017D02*
X38582Y46135D01*
X37489Y46080D02*
X38528D01*
X43760Y45135D02*
Y45665D01*
X43680Y45135D02*
Y45665D01*
X43600Y45135D02*
Y45665D01*
X43760Y44135D02*
Y44665D01*
X43680Y44135D02*
Y44665D01*
X43600Y44135D02*
Y44665D01*
X43465Y45782D02*
X43583Y45665D01*
X43465Y45017D02*
X43583Y45135D01*
X41933Y45680D02*
X43568D01*
X43465Y44783D02*
X43583Y44665D01*
X43465Y44018D02*
X43583Y44135D01*
X43760Y43135D02*
Y43665D01*
X43680Y43135D02*
Y43665D01*
X43600Y43135D02*
Y43665D01*
X43760Y40893D02*
Y42665D01*
X43680Y40935D02*
Y42665D01*
X43465Y43783D02*
X43583Y43665D01*
X43465Y43018D02*
X43583Y43135D01*
X43465Y42783D02*
X43583Y42665D01*
X43482Y40935D02*
X43717D01*
X43600D02*
Y42665D01*
X41933Y45920D02*
X43465D01*
X41935Y45840D02*
X43465D01*
Y45782D02*
Y46017D01*
X41935Y45760D02*
X43488D01*
X43520Y45072D02*
Y45728D01*
X41935Y45683D02*
Y45918D01*
X41817Y46035D02*
X41935Y45918D01*
X41852Y46000D02*
X43465D01*
X41582Y46035D02*
X41817D01*
X41465Y45918D02*
X41582Y46035D01*
X41465Y45683D02*
Y45918D01*
X43465Y44783D02*
Y45017D01*
X43520Y44072D02*
Y44728D01*
X43465Y43783D02*
Y44018D01*
X43520Y43073D02*
Y43727D01*
Y40935D02*
Y42727D01*
X41817Y45565D02*
X41935Y45683D01*
X41582Y45565D02*
X41817D01*
X41465Y45683D02*
X41582Y45565D01*
X43365Y40817D02*
X43482Y40935D01*
X43465Y42783D02*
Y43018D01*
X43835Y40582D02*
Y40817D01*
X43717Y40465D02*
X43835Y40582D01*
X43760Y39892D02*
Y40507D01*
X43717Y39935D02*
X43835Y39818D01*
Y39583D02*
Y39818D01*
X43717Y39465D02*
X43835Y39583D01*
X43482Y40465D02*
X43717D01*
X43680Y39935D02*
Y40465D01*
X43600Y39935D02*
Y40465D01*
X43482Y39935D02*
X43717D01*
X43520D02*
Y40465D01*
X43760Y38893D02*
Y39508D01*
X43717Y38935D02*
X43835Y38818D01*
X43680Y38935D02*
Y39465D01*
X43835Y38582D02*
Y38818D01*
X43717Y38465D02*
X43835Y38582D01*
X43482Y39465D02*
X43717D01*
X43600Y38935D02*
Y39465D01*
X43520Y38935D02*
Y39465D01*
X43482Y38935D02*
X43717D01*
X43482Y38465D02*
X43717D01*
X43365Y40582D02*
X43482Y40465D01*
X43440Y39892D02*
Y40507D01*
X43365Y40582D02*
Y40817D01*
Y39818D02*
X43482Y39935D01*
X43440Y38893D02*
Y39508D01*
X43365Y39583D02*
X43482Y39465D01*
X43365Y38818D02*
X43482Y38935D01*
X43365Y39583D02*
Y39818D01*
Y38582D02*
Y38818D01*
X41920Y38372D02*
Y45668D01*
X43365Y38582D02*
X43482Y38465D01*
X42217Y38435D02*
X42335Y38317D01*
X41982Y38435D02*
X42217D01*
X42335Y38082D02*
Y38317D01*
X41865D02*
X41982Y38435D01*
X40833Y38320D02*
X41867D01*
X40912Y38240D02*
X41865D01*
X40817Y38335D02*
X40935Y38217D01*
Y38160D02*
X41865D01*
Y38082D02*
Y38317D01*
X40435Y46000D02*
X41547D01*
X40435Y45920D02*
X41467D01*
X40435Y45840D02*
X41465D01*
X40435Y45782D02*
Y46017D01*
X40318Y45665D02*
X40435Y45782D01*
X39965D02*
Y46017D01*
X38935Y46000D02*
X39965D01*
X38935Y45920D02*
X39965D01*
X38935Y45840D02*
X39965D01*
Y45782D02*
X40083Y45665D01*
X38935Y45782D02*
Y46017D01*
X40413Y45760D02*
X41465D01*
X40332Y45680D02*
X41467D01*
X38912Y45760D02*
X39987D01*
X40083Y45665D02*
X40318D01*
X38818D02*
X38935Y45782D01*
X38832Y45680D02*
X40068D01*
X38582Y45665D02*
X38818D01*
X38465Y45782D02*
X38582Y45665D01*
X37489Y45120D02*
X43568D01*
X38052Y45600D02*
X41547D01*
X38052Y46000D02*
X38465D01*
X38133Y45920D02*
X38465D01*
X38017Y46035D02*
X38135Y45918D01*
X38465Y45782D02*
Y46017D01*
X38135Y45683D02*
Y45918D01*
X37782Y46035D02*
X38017D01*
X37665Y45918D02*
X37782Y46035D01*
X37489Y46000D02*
X37747D01*
X37489Y45920D02*
X37668D01*
X37665Y45683D02*
Y45918D01*
X38135Y45840D02*
X38465D01*
X38133Y45680D02*
X38568D01*
X38135Y45760D02*
X38488D01*
X38017Y45565D02*
X38135Y45683D01*
X37782Y45565D02*
X38017D01*
X37489Y45840D02*
X37665D01*
X37489Y45760D02*
X37665D01*
X37489Y45680D02*
X37668D01*
X37665Y45683D02*
X37782Y45565D01*
X37489Y45600D02*
X37747D01*
X37489Y45040D02*
X43488D01*
X37489Y44960D02*
X43465D01*
X37489Y44880D02*
X43465D01*
X37489Y44720D02*
X43527D01*
X37489Y44080D02*
X43527D01*
X37489Y44800D02*
X43465D01*
X37489Y44000D02*
X43465D01*
X37489Y43920D02*
X43465D01*
X37489Y43840D02*
X43465D01*
X37489Y43680D02*
X43568D01*
X37489Y43760D02*
X43488D01*
X37489Y43120D02*
X43568D01*
X40582Y38335D02*
X40817D01*
X39432Y38320D02*
X40567D01*
X40465Y38217D02*
X40582Y38335D01*
X39513Y38240D02*
X40487D01*
X37489Y43040D02*
X43488D01*
X37489Y42960D02*
X43465D01*
X37489Y42880D02*
X43465D01*
X37489Y42720D02*
X43527D01*
X37489Y42800D02*
X43465D01*
X38000Y38335D02*
Y45565D01*
X37920Y38335D02*
Y45565D01*
X37840Y38335D02*
Y45565D01*
X38080Y38273D02*
Y45627D01*
X37760Y38312D02*
Y45588D01*
X37489Y42564D02*
Y42714D01*
Y42564D02*
Y42714D01*
X37414Y42489D02*
X37489Y42564D01*
X37680Y38233D02*
Y45668D01*
X37414Y42489D02*
X37489Y42564D01*
X39418Y38335D02*
X39535Y38217D01*
X39183Y38335D02*
X39418D01*
X39065Y38217D02*
X39183Y38335D01*
X39535Y38160D02*
X40465D01*
X38135D02*
X39065D01*
X38033Y38320D02*
X39167D01*
X38112Y38240D02*
X39088D01*
X37782Y38335D02*
X38017D01*
X38135Y38217D01*
X37665D02*
X37782Y38335D01*
X45217Y37765D02*
X45261Y37808D01*
Y37740D02*
Y37796D01*
X45200Y37731D02*
Y37765D01*
X45191Y37731D02*
X45261D01*
X45191D02*
X45261D01*
X45120Y37660D02*
Y37765D01*
X44670Y37760D02*
X45261D01*
X44983Y37765D02*
X45217D01*
X44865Y37882D02*
X44983Y37765D01*
X45040Y37635D02*
Y37765D01*
X44960Y37613D02*
Y37787D01*
X45111Y37651D02*
X45191Y37731D01*
X45163Y37097D02*
X45243Y37017D01*
X45111Y37651D02*
X45191Y37731D01*
X45941Y36811D02*
X46100D01*
X45163Y37097D02*
X45243Y37017D01*
X44670Y37680D02*
X45140D01*
X44983Y37635D02*
X45095D01*
X44983Y37165D02*
X45095D01*
X44373Y36880D02*
X45261D01*
X45095Y37165D02*
X45163Y37097D01*
X44865Y37882D02*
Y38117D01*
X44602Y37920D02*
X44865D01*
X44560Y37962D02*
Y46687D01*
X44670Y37840D02*
X44907D01*
X44880Y37532D02*
Y37868D01*
X44640Y37882D02*
Y46607D01*
X44480Y37970D02*
Y47461D01*
X44400Y37970D02*
Y47461D01*
X44320Y37970D02*
Y47461D01*
X44552Y37970D02*
X44670Y37852D01*
X44317Y37970D02*
X44552D01*
X44865Y37517D02*
X44983Y37635D01*
X44653Y37600D02*
X44948D01*
X44670Y37617D02*
Y37852D01*
X44865Y37283D02*
X44983Y37165D01*
X44865Y37283D02*
Y37517D01*
X44552Y37500D02*
X44670Y37617D01*
X44573Y37520D02*
X44868D01*
X44317Y37500D02*
X44552D01*
X44400Y36853D02*
Y37500D01*
X44320Y36906D02*
Y37500D01*
X45953Y36800D02*
X46100D01*
X45941Y36811D02*
X45970Y36782D01*
X45500D02*
X45529Y36811D01*
X46100Y35312D02*
Y36811D01*
X46080Y35312D02*
Y36811D01*
X46000Y35312D02*
Y36811D01*
X45261D02*
X45529D01*
X44453Y36800D02*
X45518D01*
X45440Y35312D02*
Y36811D01*
X45360Y35312D02*
Y36811D01*
X45280Y35312D02*
Y36811D01*
X45970Y36720D02*
X46100D01*
X45970Y36640D02*
X46100D01*
X45970Y36547D02*
Y36782D01*
Y36560D02*
X46100D01*
X45853Y36430D02*
X45970Y36547D01*
X44464Y36720D02*
X45500D01*
X44464Y36640D02*
X45500D01*
Y36547D02*
Y36782D01*
Y36547D02*
X45618Y36430D01*
X44464Y36560D02*
X45500D01*
X44960Y36539D02*
Y37188D01*
X45040Y35500D02*
Y37165D01*
X44880Y36539D02*
Y37267D01*
X45200Y35340D02*
Y37060D01*
X45120Y35420D02*
Y37140D01*
X44720Y36539D02*
Y46588D01*
X44800Y36539D02*
Y38447D01*
X44640Y36539D02*
Y37587D01*
X44560Y36539D02*
Y37508D01*
X44480Y36539D02*
Y37500D01*
X45261Y36811D02*
Y37008D01*
X44792Y36539D02*
X44989D01*
X44651D02*
X44792D01*
X44989Y35591D02*
Y36539D01*
X44651D02*
X44792D01*
X44347Y36906D02*
X44464Y36788D01*
X44595Y36539D02*
X44651D01*
X44464Y36553D02*
Y36788D01*
X44454Y36539D02*
X44595D01*
X44454D02*
X44595D01*
X44240Y37892D02*
Y47461D01*
X44200Y37852D02*
X44317Y37970D01*
X44160Y36906D02*
Y47461D01*
X44080Y36874D02*
Y47461D01*
X44000Y36794D02*
Y47147D01*
X43920Y36832D02*
Y42768D01*
X42252Y38000D02*
X44865D01*
X40873Y37920D02*
X44268D01*
X43840Y36835D02*
Y42688D01*
X43760Y36835D02*
Y38507D01*
X43680Y36832D02*
Y38465D01*
X44200Y37617D02*
X44317Y37500D01*
X44240Y36906D02*
Y37577D01*
X44200Y37617D02*
Y37852D01*
X44112Y36906D02*
X44347D01*
X43994Y36788D02*
X44112Y36906D01*
X42781Y36880D02*
X44086D01*
X43952Y36800D02*
X44006D01*
X43682Y36835D02*
X43917D01*
X43994Y36758D01*
X43565Y36718D02*
X43682Y36835D01*
X42720Y36889D02*
Y47461D01*
X42640Y36889D02*
Y47461D01*
X42560Y36889D02*
Y47461D01*
X42880Y36781D02*
Y47168D01*
X43600Y36753D02*
Y38465D01*
X42800Y36861D02*
Y47461D01*
X42217Y37965D02*
X42335Y38082D01*
X40935Y38000D02*
X41947D01*
X40935Y38080D02*
X41867D01*
X42480Y36832D02*
Y47461D01*
X41865Y38082D02*
X41982Y37965D01*
X42772Y36889D02*
X42889Y36772D01*
X42861Y36800D02*
X43647D01*
X42537Y36889D02*
X42772D01*
X42889Y36720D02*
X43568D01*
X42889Y36640D02*
X43565D01*
X40873Y36880D02*
X42527D01*
X40935Y36800D02*
X42448D01*
X41982Y37965D02*
X42217D01*
X42419Y36772D02*
X42537Y36889D01*
X40935Y36720D02*
X42419D01*
X43565Y36539D02*
Y36718D01*
X43470Y36539D02*
X43565D01*
X43520D02*
Y38465D01*
X43360Y36539D02*
Y47140D01*
X43440Y36539D02*
Y38507D01*
X43280Y36539D02*
Y47127D01*
X43200Y36539D02*
Y47065D01*
X42889Y36560D02*
X43565D01*
X43120Y36539D02*
Y47065D01*
X43040Y36539D02*
Y47065D01*
X42960Y36539D02*
Y47087D01*
X43470Y36539D02*
X43565D01*
X43414D02*
X43470D01*
X43273D02*
X43414D01*
X43273D02*
X43414D01*
X43217D02*
X43273D01*
X43076D02*
X43217D01*
X43076D02*
X43217D01*
X43020D02*
X43076D01*
X42889D02*
X43020D01*
X42889D02*
X43020D01*
X42400D02*
Y47461D01*
X42889Y36539D02*
Y36772D01*
X42320Y36539D02*
Y38068D01*
X42240Y36539D02*
Y37987D01*
X42160Y36539D02*
Y37965D01*
X42080Y36539D02*
Y37965D01*
X42000Y36539D02*
Y37965D01*
X41920Y36539D02*
Y38028D01*
X41840Y36539D02*
Y45588D01*
X41760Y36539D02*
Y45565D01*
X42419Y36539D02*
Y36772D01*
X42288Y36539D02*
X42419D01*
X42288D02*
X42419D01*
X42233D02*
X42288D01*
X42092D02*
X42233D01*
X41000Y36640D02*
X42419D01*
X41043Y36560D02*
X42419D01*
X42092Y36539D02*
X42233D01*
X42036D02*
X42092D01*
X41895D02*
X42036D01*
X45920Y35312D02*
Y36497D01*
X45903Y36480D02*
X46100D01*
X45618Y36430D02*
X45853D01*
X45840Y35312D02*
Y36430D01*
X45760Y35312D02*
Y36430D01*
X45680Y35312D02*
Y36430D01*
X44989Y36400D02*
X46100D01*
X44989Y36320D02*
X46100D01*
X44989Y36240D02*
X46100D01*
X44989Y36160D02*
X46100D01*
X44989Y36080D02*
X46100D01*
X44989Y36000D02*
X46100D01*
X45020Y35520D02*
X46100D01*
X45100Y35440D02*
X46100D01*
X45180Y35360D02*
X46100D01*
X45228Y35312D02*
X46100D01*
X44989Y35920D02*
X46100D01*
X44989Y35840D02*
X46100D01*
X44989Y35760D02*
X46100D01*
X44989Y35680D02*
X46100D01*
X44989Y35600D02*
X46100D01*
X44989Y36480D02*
X45567D01*
X45600Y35312D02*
Y36448D01*
X44980Y35560D02*
Y35591D01*
X45520Y35312D02*
Y36528D01*
X44980Y35560D02*
X45228Y35312D01*
X43200Y31950D02*
Y32660D01*
X43040Y31950D02*
Y32820D01*
X43120Y31950D02*
Y32740D01*
X42960Y31950D02*
Y32900D01*
X42880Y31950D02*
Y32980D01*
X42800Y31950D02*
Y33060D01*
X43600Y32135D02*
Y32260D01*
X43680Y32135D02*
Y32180D01*
X43520Y32135D02*
Y32340D01*
X43717Y32135D02*
X43835Y32018D01*
X43482Y32135D02*
X43717D01*
X43440Y32092D02*
Y32420D01*
X43365Y32018D02*
X43482Y32135D01*
X43360Y31950D02*
Y32500D01*
X43365Y31950D02*
Y32018D01*
X43280Y31950D02*
Y32580D01*
X43835Y31920D02*
X43940D01*
X44080Y31632D02*
Y31780D01*
X43835Y31783D02*
Y32018D01*
X43920Y31550D02*
Y31940D01*
X44000Y31553D02*
Y31860D01*
X43840Y31550D02*
Y32020D01*
X43812Y31760D02*
X44100D01*
X43733Y31680D02*
X44180D01*
X43835Y31840D02*
X44020D01*
X42377Y33483D02*
X44225Y31635D01*
X43717Y31665D02*
X43835Y31783D01*
X44160Y31635D02*
Y31700D01*
X44082Y31635D02*
X44225D01*
X43998Y31550D02*
X44082Y31635D01*
X43760Y31550D02*
Y31707D01*
X43680Y31550D02*
Y31665D01*
X43590D02*
X43717D01*
X43425Y31650D02*
X43575D01*
X43425D02*
X43575D01*
X43600Y31550D02*
Y31665D01*
X43520Y31550D02*
Y31650D01*
X43440Y31550D02*
Y31650D01*
X43360Y31550D02*
Y31650D01*
X42720Y31950D02*
Y33140D01*
X43280Y31550D02*
Y31650D01*
X43200Y31550D02*
Y31650D01*
X42560Y31950D02*
Y33300D01*
X42640Y31950D02*
Y33220D01*
X42480Y31950D02*
Y33380D01*
X42400Y31950D02*
Y33460D01*
X42320Y31950D02*
Y33540D01*
X43120Y31550D02*
Y31650D01*
X43040Y31550D02*
Y31650D01*
X42960Y31550D02*
Y31650D01*
X42880Y31550D02*
Y31650D01*
X42800Y31550D02*
Y31650D01*
X42720Y31550D02*
Y31650D01*
X42640Y31550D02*
Y31650D01*
X42560Y31550D02*
Y31650D01*
X42480Y31550D02*
Y31650D01*
X42400Y31550D02*
Y31650D01*
X40724Y35520D02*
X42297D01*
X40724Y35440D02*
X42297D01*
X40690Y35360D02*
X42297D01*
X40610Y35280D02*
X42297D01*
X38740Y34800D02*
X42297D01*
X38932Y34720D02*
X42297D01*
X38680Y35200D02*
X42297D01*
X38680Y35120D02*
X42297D01*
X38680Y35040D02*
X42297D01*
X38680Y34960D02*
X42297D01*
X38680Y34880D02*
X42297D01*
X39002Y34640D02*
X42297D01*
X39002Y34560D02*
X42297D01*
X39002Y34480D02*
X42297D01*
X39040Y34000D02*
X42297D01*
X39232Y33920D02*
X42297D01*
X38987Y34400D02*
X42297D01*
X38907Y34320D02*
X42297D01*
X38800Y34240D02*
X42297D01*
X38880Y34160D02*
X42297D01*
X38960Y34080D02*
X42297D01*
X42233Y35591D02*
X42288D01*
X42092D02*
X42233D01*
X42297Y33723D02*
Y35591D01*
X42092D02*
X42233D01*
X41895Y36539D02*
X42036D01*
X41839D02*
X41895D01*
X41698D02*
X41839D01*
X41698D02*
X41839D01*
X42036Y35591D02*
X42092D01*
X41895D02*
X42036D01*
X41895D02*
X42036D01*
X41839D02*
X41895D01*
X41698D02*
X41839D01*
X39313Y33840D02*
X42297D01*
X39335Y33760D02*
X42297D01*
X41698Y35591D02*
X41839D01*
X39335Y33680D02*
X42297D01*
X39335Y33600D02*
X42297D01*
Y33563D02*
X42377Y33483D01*
X42297Y33563D02*
X42377Y33483D01*
X39272Y33520D02*
X42340D01*
X38635Y32720D02*
X43140D01*
X38635Y32640D02*
X43220D01*
X38635Y32800D02*
X43060D01*
X38194Y33120D02*
X42740D01*
X38194Y33040D02*
X42820D01*
X38194Y33200D02*
X42660D01*
X38572Y32880D02*
X42980D01*
X38194Y32960D02*
X42900D01*
X42075Y31950D02*
X43365D01*
X42075Y31650D02*
X43425D01*
X38612Y32560D02*
X43300D01*
X42025Y31600D02*
X44047D01*
X42075Y31550D02*
X43998D01*
X38194Y32400D02*
X43460D01*
X38194Y32320D02*
X43540D01*
X38533Y32480D02*
X43380D01*
X38194Y32160D02*
X43700D01*
X38194Y32240D02*
X43620D01*
X42297Y33563D02*
Y33723D01*
Y33563D02*
Y33723D01*
X42240Y31950D02*
Y35591D01*
X42160Y31950D02*
Y35591D01*
X42080Y31950D02*
Y35591D01*
X42000Y31950D02*
Y35591D01*
X41925Y31950D02*
X42075D01*
X41920Y31945D02*
Y35591D01*
X41925Y31950D02*
X42075D01*
X41840Y31865D02*
Y35591D01*
X42320Y31550D02*
Y31650D01*
X42240Y31550D02*
Y31650D01*
X42160Y31550D02*
Y31650D01*
X42080Y31550D02*
Y31650D01*
X41975Y31550D02*
X42075Y31650D01*
X41850Y31875D02*
X41925Y31950D01*
X41975Y31550D02*
X42075D01*
X41850Y31875D02*
X41925Y31950D01*
X41975Y31550D02*
X42075D01*
X41375Y31400D02*
X41850Y31875D01*
X41680Y36539D02*
Y45565D01*
X41600Y36539D02*
Y45565D01*
X41520Y36539D02*
Y45627D01*
X41440Y36539D02*
Y47461D01*
X41360Y36539D02*
Y47461D01*
X41280Y36539D02*
Y47461D01*
X41040Y36600D02*
Y47461D01*
X40963Y36677D02*
X41043Y36597D01*
X40963Y36677D02*
X41043Y36597D01*
X41200Y36539D02*
Y47461D01*
X41120Y36539D02*
Y47461D01*
X41642Y36539D02*
X41698D01*
X41501D02*
X41642D01*
X41501D02*
X41642D01*
X41445D02*
X41501D01*
X41304D02*
X41445D01*
X41304D02*
X41445D01*
X41249D02*
X41304D01*
X41107D02*
X41249D01*
X41107D02*
X41249D01*
X41043D02*
Y36597D01*
X40935Y37982D02*
Y38217D01*
X40817Y37865D02*
X40935Y37982D01*
X40582Y37865D02*
X40817D01*
X40960Y36680D02*
Y47461D01*
X40880Y36872D02*
Y37927D01*
X40560Y36913D02*
Y37887D01*
X40465Y37982D02*
Y38217D01*
X39535Y38080D02*
X40465D01*
X39535Y37982D02*
Y38217D01*
X40465Y37982D02*
X40582Y37865D01*
X40480Y36832D02*
Y37968D01*
X40817Y36935D02*
X40935Y36818D01*
Y36705D02*
Y36818D01*
X40800Y36935D02*
Y37865D01*
X41043Y36539D02*
Y36597D01*
X40935Y36705D02*
X40963Y36677D01*
X40720Y36935D02*
Y37865D01*
X40582Y36935D02*
X40817D01*
X40640D02*
Y37865D01*
X40465Y36818D02*
X40582Y36935D01*
X40465Y36583D02*
Y36818D01*
X41642Y35591D02*
X41698D01*
X41501D02*
X41642D01*
X41052Y36539D02*
X41107D01*
X41760Y31785D02*
Y35591D01*
X41680Y31705D02*
Y35591D01*
X41501D02*
X41642D01*
X40465Y36583D02*
X40508Y36539D01*
X40461D02*
X40508D01*
X40400D02*
Y45747D01*
X40320Y36539D02*
X40461D01*
X40320D02*
X40461D01*
X41600Y31625D02*
Y35591D01*
X41520Y31545D02*
Y35591D01*
X41445D02*
X41501D01*
X41440Y31465D02*
Y35591D01*
X41360Y31400D02*
Y35591D01*
X41304D02*
X41445D01*
X41304D02*
X41445D01*
X41249D02*
X41304D01*
X41107D02*
X41249D01*
X41107D02*
X41249D01*
X40320Y36539D02*
Y45668D01*
X40240Y36539D02*
Y45665D01*
X40160Y36539D02*
Y45665D01*
X40080Y36539D02*
Y45668D01*
X40000Y36539D02*
Y45747D01*
X39920Y36539D02*
Y47140D01*
X39840Y36539D02*
Y47140D01*
X39760Y36539D02*
Y47140D01*
X39680Y36539D02*
Y47140D01*
X39600Y36539D02*
Y47140D01*
X40264Y36539D02*
X40320D01*
X40123D02*
X40264D01*
X40123D02*
X40264D01*
X40067D02*
X40123D01*
X39926D02*
X40067D01*
X39926D02*
X40067D01*
X39871D02*
X39926D01*
X39729D02*
X39871D01*
X39729D02*
X39871D01*
X39674D02*
X39729D01*
X39535Y38000D02*
X40465D01*
X39472Y37920D02*
X40528D01*
X39418Y37865D02*
X39535Y37982D01*
X39520Y36832D02*
Y37968D01*
X39418Y36935D02*
X39535Y36818D01*
X39440Y36913D02*
Y37887D01*
X39183Y37865D02*
X39418D01*
X39360Y36935D02*
Y37865D01*
X39280Y36935D02*
Y37865D01*
X39183Y36935D02*
X39418D01*
X39200D02*
Y37865D01*
X39535Y36800D02*
X40465D01*
X39535Y36720D02*
X40465D01*
X39535Y36640D02*
X40465D01*
X39533Y36539D02*
X39674D01*
X39535Y36583D02*
Y36818D01*
X39472Y36880D02*
X40528D01*
X39513Y36560D02*
X40487D01*
X39533Y36539D02*
X39674D01*
X39492D02*
X39535Y36583D01*
X39492Y36539D02*
X39533D01*
X39065Y37982D02*
Y38217D01*
X38135Y38080D02*
X39065D01*
X38135Y37982D02*
Y38217D01*
X39040Y36680D02*
Y47108D01*
X39065Y37982D02*
X39183Y37865D01*
X38880Y36539D02*
Y45728D01*
X38135Y38000D02*
X39065D01*
X38073Y37920D02*
X39128D01*
X37665Y37982D02*
Y38217D01*
X38017Y37865D02*
X38135Y37982D01*
X37665D02*
X37782Y37865D01*
X39120Y36872D02*
Y37927D01*
X39065Y36818D02*
X39183Y36935D01*
X39065Y36705D02*
Y36818D01*
X39031Y36671D02*
X39065Y36705D01*
X38951Y36591D02*
X39031Y36671D01*
X38951Y36591D02*
X39031Y36671D01*
X38951Y36539D02*
Y36591D01*
X37782Y37865D02*
X38017D01*
X38951Y36539D02*
Y36591D01*
X38886Y36539D02*
X38942D01*
X38745D02*
X38886D01*
X38745D02*
X38886D01*
X38800D02*
Y45665D01*
X38720Y36539D02*
Y45665D01*
X38640Y36539D02*
Y45665D01*
X38560Y36539D02*
Y45687D01*
X38400Y36539D02*
Y47461D01*
X38480Y36539D02*
Y45767D01*
X38320Y36539D02*
Y47461D01*
X38240Y36539D02*
Y47461D01*
X38160Y36539D02*
Y47461D01*
X38690Y36539D02*
X38745D01*
X38548D02*
X38690D01*
X38548D02*
X38690D01*
X38493D02*
X38548D01*
X38351D02*
X38493D01*
X38351D02*
X38493D01*
X38296D02*
X38351D01*
X38155D02*
X38296D01*
X38155D02*
X38296D01*
X38099D02*
X38155D01*
X38080D02*
Y37927D01*
X37958Y36539D02*
X38099D01*
X38000D02*
Y37865D01*
X37920Y36539D02*
Y37865D01*
X37840Y36539D02*
Y37865D01*
X37680Y36539D02*
Y37968D01*
X37760Y36539D02*
Y37887D01*
X37600Y36539D02*
Y47461D01*
X37520Y36539D02*
Y47461D01*
X37440Y36539D02*
Y42515D01*
X37958Y36539D02*
X38099D01*
X37902D02*
X37958D01*
X37761D02*
X37902D01*
X37761D02*
X37902D01*
X37705D02*
X37761D01*
X37564D02*
X37705D01*
X37564D02*
X37705D01*
X37508D02*
X37564D01*
X41052Y35591D02*
X41107D01*
X40910D02*
X41052D01*
X40910D02*
X41052D01*
X40855D02*
X40910D01*
X40724D02*
X40855D01*
X40724D02*
X40855D01*
X40123D02*
X40254D01*
X40123D02*
X40254D01*
X40067D02*
X40123D01*
X40724Y35394D02*
Y35591D01*
X40254Y35394D02*
Y35591D01*
X39926D02*
X40067D01*
X40606Y35276D02*
X40724Y35394D01*
X39926Y35591D02*
X40067D01*
X40371Y35276D02*
X40606D01*
X40254Y35394D02*
X40371Y35276D01*
X39660Y35520D02*
X40254D01*
X39635Y35440D02*
X40254D01*
X39871Y35591D02*
X39926D01*
X39532Y35280D02*
X40367D01*
X39613Y35360D02*
X40287D01*
X39729Y35591D02*
X39871D01*
X39729D02*
X39871D01*
X39674D02*
X39729D01*
X39660Y35520D02*
Y35591D01*
Y35520D02*
Y35591D01*
X39165Y35382D02*
Y35591D01*
X39083D02*
X39139D01*
X38942D02*
X39083D01*
X38942D02*
X39083D01*
X38960Y34692D02*
Y35591D01*
X38886D02*
X38942D01*
X39635Y35495D02*
X39660Y35520D01*
X39635Y35495D02*
X39660Y35520D01*
X39635Y35382D02*
Y35495D01*
X39518Y35265D02*
X39635Y35382D01*
X39283Y35265D02*
X39518D01*
X39165Y35382D02*
X39283Y35265D01*
X38885Y34768D02*
X39002Y34650D01*
X38880Y34768D02*
Y35591D01*
X39002Y34415D02*
Y34650D01*
X38885Y34298D02*
X39002Y34415D01*
X41280Y31400D02*
Y35591D01*
X41200Y31400D02*
Y35591D01*
X41120Y31400D02*
Y35591D01*
X41040Y31400D02*
Y35591D01*
X40960Y31400D02*
Y35591D01*
X40880Y31400D02*
Y35591D01*
X40800Y31400D02*
Y35591D01*
X40240Y31400D02*
Y35591D01*
X40160Y31400D02*
Y35591D01*
X40080Y31400D02*
Y35591D01*
X40000Y31400D02*
Y35591D01*
X40720Y31400D02*
Y35390D01*
X40640Y31400D02*
Y35310D01*
X40560Y31400D02*
Y35276D01*
X40480Y31400D02*
Y35276D01*
X40400Y31400D02*
Y35276D01*
X39920Y31400D02*
Y35591D01*
X40320Y31400D02*
Y35327D01*
X39840Y31400D02*
Y35591D01*
X39760Y31400D02*
Y35591D01*
X39680Y31400D02*
Y35591D01*
X39600Y31400D02*
Y35347D01*
X39520Y31400D02*
Y35268D01*
X39280Y33872D02*
Y35268D01*
X39440Y31400D02*
Y35265D01*
X39360Y31400D02*
Y35265D01*
X39040Y34000D02*
Y35591D01*
X38960Y34080D02*
Y34373D01*
X38880Y34160D02*
Y34298D01*
X39200Y33935D02*
Y35347D01*
X39120Y33935D02*
Y35591D01*
X39218Y33935D02*
X39335Y33818D01*
Y33582D02*
Y33818D01*
X39218Y33465D02*
X39335Y33582D01*
X39280Y31400D02*
Y33528D01*
X39200Y31400D02*
Y33465D01*
X39105Y33935D02*
X39218D01*
X38983Y33465D02*
X39218D01*
X39120Y31400D02*
Y33465D01*
X39040Y31400D02*
Y33465D01*
X38960Y31400D02*
Y33488D01*
X38745Y35591D02*
X38886D01*
X38745D02*
X38886D01*
X38690D02*
X38745D01*
X38800Y34768D02*
Y35591D01*
X38720Y34820D02*
Y35591D01*
X38680Y34860D02*
Y35591D01*
Y35520D02*
X39165D01*
X38680Y35440D02*
X39165D01*
X38099Y35591D02*
X38155D01*
X38680Y35280D02*
X39267D01*
X38680Y35360D02*
X39188D01*
X38772Y34768D02*
X38885D01*
X38742Y34298D02*
X39105Y33935D01*
X38800Y34240D02*
Y34298D01*
X38865Y33582D02*
X38983Y33465D01*
X38865Y33582D02*
Y33695D01*
X38680Y34860D02*
X38772Y34768D01*
X38164Y34396D02*
X38244Y34316D01*
X38164Y34396D02*
X38244Y34316D01*
X38742Y34298D02*
X38885D01*
X38244Y34316D02*
X38865Y33695D01*
X38164Y34556D02*
Y35591D01*
X37958D02*
X38099D01*
X37958D02*
X38099D01*
X38080Y33243D02*
Y35591D01*
X38000Y33243D02*
Y35591D01*
X37902D02*
X37958D01*
X37761D02*
X37902D01*
X37761D02*
X37902D01*
X37920Y33243D02*
Y35591D01*
X37840Y33243D02*
Y35591D01*
X37705D02*
X37761D01*
X37574D02*
X37705D01*
X37574D02*
X37705D01*
X38164Y34396D02*
Y34556D01*
Y34396D02*
Y34556D01*
X37574Y35520D02*
X38164D01*
X37574Y35440D02*
X38164D01*
X37574Y35422D02*
Y35591D01*
X37513Y35360D02*
X38164D01*
X37457Y35304D02*
X37574Y35422D01*
X38880Y31400D02*
Y33568D01*
X38517Y32935D02*
X38635Y32817D01*
X38560Y32892D02*
Y34000D01*
X38720Y31400D02*
Y33840D01*
X38800Y31400D02*
Y33760D01*
X38640Y31400D02*
Y33920D01*
X38400Y32935D02*
Y34160D01*
X38480Y32935D02*
Y34080D01*
X38320Y32935D02*
Y34240D01*
X38282Y32935D02*
X38517D01*
X38240Y32892D02*
Y34320D01*
X38635Y32582D02*
Y32817D01*
X38517Y32465D02*
X38635Y32582D01*
X38560Y31400D02*
Y32508D01*
X38480Y31400D02*
Y32465D01*
X38400Y31400D02*
Y32465D01*
X38238Y32890D02*
X38282Y32935D01*
Y32465D02*
X38517D01*
X38238Y32510D02*
X38282Y32465D01*
X38320Y31400D02*
Y32465D01*
X38194Y32480D02*
X38268D01*
X38194Y32890D02*
X38238D01*
X38194Y32510D02*
X38238D01*
X38194Y32890D02*
Y33243D01*
X38240Y31400D02*
Y32508D01*
X38194Y32157D02*
Y32510D01*
X37760Y33243D02*
Y35591D01*
X37680Y33243D02*
Y35591D01*
X37600Y33243D02*
Y35591D01*
X37520Y33243D02*
Y35368D01*
X37440Y33243D02*
Y35304D01*
X38160Y31400D02*
Y32157D01*
X38080Y31400D02*
Y32157D01*
X38000Y31400D02*
Y32157D01*
X37920Y31400D02*
Y32157D01*
X37840Y31400D02*
Y32157D01*
X37760Y31400D02*
Y32157D01*
X37680Y31400D02*
Y32157D01*
X37600Y31400D02*
Y32157D01*
X37520Y31400D02*
Y32157D01*
X37440Y31400D02*
Y32157D01*
X36899Y47440D02*
X36993D01*
X36899Y47360D02*
X36993D01*
X36899Y47280D02*
X36993D01*
X36899Y47200D02*
X36993D01*
X36899Y47120D02*
X36993D01*
X36899Y47040D02*
X36993D01*
X36899Y46960D02*
X36993D01*
X36899Y46880D02*
X36993D01*
X36899Y46800D02*
X36993D01*
X36899Y46720D02*
X36993D01*
X36899Y46640D02*
X36993D01*
X36899Y46560D02*
X36993D01*
X36899Y46480D02*
X36993D01*
X36899Y46400D02*
X36993D01*
X36899Y46320D02*
X36993D01*
X36899Y46240D02*
X36993D01*
X36899Y46160D02*
X36993D01*
X36899Y46080D02*
X36993D01*
X36899Y46000D02*
X36993D01*
X36899Y45920D02*
X36993D01*
X36899Y45840D02*
X36993D01*
X36899Y45760D02*
X36993D01*
X36899Y45680D02*
X36993D01*
X36918Y47461D02*
X36973D01*
X36899Y45600D02*
X36993D01*
X36899Y45520D02*
X36993D01*
X36899Y45440D02*
X36993D01*
X36145Y46320D02*
X36205D01*
X36133Y45920D02*
X36205D01*
X36160Y45893D02*
Y46335D01*
X36899Y45360D02*
X36993D01*
X36205Y45847D02*
Y46380D01*
X36899Y45280D02*
X36993D01*
X36899Y45200D02*
X36993D01*
X36899Y45120D02*
X36993D01*
X36899Y45040D02*
X36993D01*
X36899Y44960D02*
X36993D01*
X36545Y45120D02*
X36599D01*
X36465Y45040D02*
X36599D01*
X36435Y45010D02*
X36599Y45174D01*
X36899Y44880D02*
X36993D01*
X36435Y44960D02*
X36599D01*
X36899Y44800D02*
X36993D01*
X36899Y44720D02*
X36993D01*
X36899Y44640D02*
X36993D01*
Y43118D02*
Y47461D01*
X36960Y43085D02*
Y47461D01*
X36899Y43424D02*
Y47461D01*
Y44560D02*
X36993D01*
X36899Y44480D02*
X36993D01*
X36899Y44400D02*
X36993D01*
X36899Y44320D02*
X36993D01*
X36899Y44240D02*
X36993D01*
X36899Y44160D02*
X36993D01*
X36899Y44080D02*
X36993D01*
X36899Y44000D02*
X36993D01*
X36899Y43920D02*
X36993D01*
X36899Y43840D02*
X36993D01*
X36899Y43760D02*
X36993D01*
X36899Y43680D02*
X36993D01*
X36899Y43600D02*
X36993D01*
X36899Y43520D02*
X36993D01*
X36899Y43440D02*
X36993D01*
X36599Y43424D02*
Y45174D01*
X36432Y44880D02*
X36599D01*
X36435Y44882D02*
Y45010D01*
X36560Y43385D02*
Y45135D01*
X36480Y43305D02*
Y45055D01*
X36318Y44765D02*
X36435Y44882D01*
X36353Y44800D02*
X36599D01*
X36400Y43235D02*
Y44847D01*
X36320Y43235D02*
Y44767D01*
X36240Y43193D02*
Y44765D01*
X36235Y43600D02*
X36599D01*
X36899Y43274D02*
Y43424D01*
X36235Y43383D02*
Y43618D01*
X36899Y43274D02*
Y43424D01*
X36410Y43235D02*
X36599Y43424D01*
X36160Y43692D02*
Y44765D01*
X36172Y43680D02*
X36599D01*
X36135Y44383D02*
Y44618D01*
X36235Y43520D02*
X36599D01*
X36235Y43440D02*
X36599D01*
X36035Y46210D02*
X36205Y46380D01*
X36065Y46240D02*
X36205D01*
X36035Y46160D02*
X36205D01*
X36080Y45935D02*
Y46255D01*
X36117Y45935D02*
X36205Y45847D01*
X36035Y46083D02*
Y46210D01*
X36033Y46080D02*
X36205D01*
X35952Y46000D02*
X36205D01*
X35917Y45965D02*
X36035Y46083D01*
X36000Y45935D02*
Y46048D01*
X35920Y45935D02*
Y45967D01*
X35882Y45935D02*
X36117D01*
X35882Y45465D02*
X35940D01*
X35765Y45817D02*
X35882Y45935D01*
X35910Y45435D02*
X35940Y45465D01*
X35765Y45582D02*
X35882Y45465D01*
X35682Y45965D02*
X35917D01*
X35782Y45435D02*
X35910D01*
X34339Y45920D02*
X35868D01*
X35782Y44965D02*
X35965D01*
X34592Y45440D02*
X35915D01*
X35718Y47440D02*
X35811D01*
X35718Y47360D02*
X35811D01*
X35737Y47461D02*
X35792D01*
X35811Y47036D02*
Y47461D01*
X35840Y45893D02*
Y45965D01*
X35760Y46985D02*
Y47461D01*
X35718Y47280D02*
X35811D01*
X35718Y47200D02*
X35811D01*
X35645Y47120D02*
X35811D01*
X35565Y47040D02*
X35811D01*
X35510Y46735D02*
X35811Y47036D01*
X35765Y45582D02*
Y45817D01*
X35840Y45435D02*
Y45507D01*
X35760Y45413D02*
Y45965D01*
X35665Y45318D02*
X35782Y45435D01*
X35665Y45083D02*
X35782Y44965D01*
X34596Y45840D02*
X35787D01*
X34676Y45760D02*
X35765D01*
X34677Y45680D02*
X35765D01*
X34673Y45520D02*
X35828D01*
X34677Y45600D02*
X35765D01*
X36082Y44765D02*
X36318D01*
X36112Y44640D02*
X36599D01*
X36080Y44672D02*
Y44767D01*
X36135Y44560D02*
X36599D01*
X36135Y44480D02*
X36599D01*
X36135Y44400D02*
X36599D01*
X35965Y44882D02*
X36082Y44765D01*
X36033Y44720D02*
X36599D01*
X34339Y44800D02*
X36047D01*
X36017Y44735D02*
X36135Y44618D01*
X35782Y44735D02*
X36017D01*
Y44265D02*
X36135Y44383D01*
X36072Y44320D02*
X36599D01*
X36080Y43735D02*
Y44328D01*
X36117Y43735D02*
X36235Y43618D01*
X35882Y43735D02*
X36117D01*
X34339Y44160D02*
X36599D01*
X34339Y44080D02*
X36599D01*
X34339Y44000D02*
X36599D01*
X34339Y43920D02*
X36599D01*
X34480Y43760D02*
X36599D01*
X35965Y44882D02*
Y44965D01*
X36000Y44735D02*
Y44847D01*
X35920Y44735D02*
Y44965D01*
X35840Y44735D02*
Y44965D01*
X35760Y44713D02*
Y44988D01*
X34339Y44960D02*
X35965D01*
X34339Y44880D02*
X35968D01*
X34554Y44720D02*
X35768D01*
X35665Y44618D02*
X35782Y44735D01*
X35665Y44383D02*
X35782Y44265D01*
X36017D01*
X36000Y43735D02*
Y44265D01*
X35920Y43735D02*
Y44265D01*
X35840Y43692D02*
Y44265D01*
X35760Y42712D02*
Y44288D01*
X35765Y43618D02*
X35882Y43735D01*
X34673Y43680D02*
X35828D01*
X34735Y43600D02*
X35765D01*
X34735Y43520D02*
X35765D01*
Y43383D02*
Y43618D01*
X36899Y43360D02*
X36993D01*
X36899Y43280D02*
X36993D01*
X36824Y43199D02*
X36899Y43274D01*
X36824Y43199D02*
X36899Y43274D01*
X36825Y43200D02*
X36993D01*
X36880Y43005D02*
Y43255D01*
X36635Y43010D02*
X36824Y43199D01*
X36745Y43120D02*
X36993D01*
X36800Y42925D02*
Y43175D01*
X36210Y42335D02*
X36993Y43118D01*
X36720Y42845D02*
Y43095D01*
X36665Y43040D02*
X36915D01*
X37405Y42480D02*
X44765D01*
X36635Y42882D02*
Y43010D01*
X37325Y42400D02*
X44765D01*
X37245Y42320D02*
X44765D01*
X36635Y42960D02*
X36835D01*
X36632Y42880D02*
X36755D01*
X36553Y42800D02*
X36675D01*
X36640Y42765D02*
Y43015D01*
X36518Y42765D02*
X36635Y42882D01*
X36212Y43360D02*
X36535D01*
X36282Y43235D02*
X36410D01*
X36165Y43117D02*
X36282Y43235D01*
X36560Y42685D02*
Y42807D01*
X36240Y42365D02*
Y42807D01*
X36160Y42335D02*
Y43307D01*
X36117Y43265D02*
X36235Y43383D01*
X36133Y43280D02*
X36455D01*
X36165Y42882D02*
Y43117D01*
Y42882D02*
X36282Y42765D01*
X36080Y42673D02*
Y43265D01*
X36282Y42765D02*
X36518D01*
X36480Y42605D02*
Y42765D01*
X36400Y42525D02*
Y42765D01*
X36320Y42445D02*
Y42765D01*
X36135Y42382D02*
Y42618D01*
X36033Y42720D02*
X36595D01*
X36112Y42640D02*
X36515D01*
X36135Y42560D02*
X36435D01*
X36135Y42480D02*
X36355D01*
X36135Y42400D02*
X36275D01*
X37085Y42160D02*
X45261D01*
X37005Y42080D02*
X45261D01*
X36925Y42000D02*
X45261D01*
X36845Y41920D02*
X45261D01*
X36765Y41840D02*
X45261D01*
X36735Y41760D02*
X45261D01*
X36732Y41680D02*
X44928D01*
X36653Y41600D02*
X44865D01*
X36033Y41520D02*
X44865D01*
X36135Y41280D02*
X44967D01*
X36135Y41360D02*
X44887D01*
X36135Y41200D02*
X45160D01*
X36135Y40240D02*
X45120D01*
X36135Y40320D02*
X44928D01*
X36135Y39280D02*
X45261D01*
X36135Y39360D02*
X44966D01*
X36072Y41120D02*
X45033D01*
X36033Y40080D02*
X45261D01*
X36112Y39440D02*
X44904D01*
X36135Y39200D02*
X45261D01*
X36072Y39120D02*
X45261D01*
X36735Y41810D02*
X37414Y42489D01*
X37165Y42240D02*
X44808D01*
X36735Y41683D02*
Y41810D01*
X36618Y41565D02*
X36735Y41683D01*
X36265D02*
Y41865D01*
X36088Y42335D02*
X36210D01*
X36082Y41865D02*
X36265D01*
X36088Y42335D02*
X36135Y42382D01*
X36265Y41683D02*
X36383Y41565D01*
X36080Y41473D02*
Y41867D01*
X36383Y41565D02*
X36618D01*
X36135Y40400D02*
X44865D01*
X36135Y41182D02*
Y41417D01*
Y40182D02*
Y40417D01*
Y39183D02*
Y39418D01*
X36112Y41440D02*
X44865D01*
X36072Y40480D02*
X43467D01*
X36080Y40472D02*
Y41128D01*
X36033Y39520D02*
X43428D01*
X36080Y39472D02*
Y40128D01*
X35882Y43265D02*
X36117D01*
X34713Y43040D02*
X36165D01*
X35782Y42735D02*
X36017D01*
X36135Y42618D01*
X36017Y42265D02*
X36088Y42335D01*
X36012Y42265D02*
X36082Y42335D01*
X34440Y43200D02*
X36247D01*
X34632Y43120D02*
X36168D01*
X34735Y42960D02*
X36165D01*
X34735Y42800D02*
X36247D01*
X34735Y42880D02*
X36168D01*
X35782Y42265D02*
X36012D01*
X35965Y41982D02*
X36082Y41865D01*
X35965Y42217D02*
X36012Y42265D01*
X36017Y41535D02*
X36135Y41417D01*
X35782Y41535D02*
X36017D01*
X34339Y41840D02*
X36265D01*
X34339Y41760D02*
X36265D01*
X34339Y41920D02*
X36028D01*
X34339Y41600D02*
X36347D01*
X34339Y41680D02*
X36267D01*
X36000Y42735D02*
Y43265D01*
X35920Y42735D02*
Y43265D01*
X35765Y43383D02*
X35882Y43265D01*
X35840Y42735D02*
Y43307D01*
X35665Y42618D02*
X35782Y42735D01*
X34713Y43360D02*
X35787D01*
X34632Y43280D02*
X35868D01*
X34735Y43440D02*
X35765D01*
X35665Y42382D02*
X35782Y42265D01*
X34673Y42720D02*
X35768D01*
X35965Y41982D02*
Y42217D01*
X36000Y41535D02*
Y41947D01*
X35920Y41535D02*
Y42265D01*
X35840Y41535D02*
Y42265D01*
X35760Y41512D02*
Y42288D01*
X34339Y42240D02*
X35988D01*
X34339Y42160D02*
X35965D01*
X34339Y42080D02*
X35965D01*
X34339Y42000D02*
X35965D01*
X34339Y41520D02*
X35768D01*
X34647Y41040D02*
X44953D01*
X34652Y40960D02*
X44948D01*
X36017Y41065D02*
X36135Y41182D01*
X34652Y40880D02*
X43428D01*
X36017Y40535D02*
X36135Y40417D01*
X36017Y40065D02*
X36135Y40182D01*
X34652Y40800D02*
X43365D01*
X34573Y40720D02*
X43365D01*
X34339Y40640D02*
X43365D01*
X34653Y40000D02*
X45261D01*
X34339Y40560D02*
X43387D01*
X34585Y39040D02*
X45261D01*
X34792Y38960D02*
X45261D01*
X34835Y38880D02*
X43428D01*
X34835Y38800D02*
X43365D01*
X34835Y38720D02*
X43365D01*
X34339Y39920D02*
X43467D01*
X34339Y39840D02*
X43387D01*
X34339Y39760D02*
X43365D01*
X34445Y39680D02*
X43365D01*
X34525Y39600D02*
X43365D01*
X35782Y41065D02*
X36017D01*
X36000Y40535D02*
Y41065D01*
X35920Y40535D02*
Y41065D01*
X35840Y40535D02*
Y41065D01*
X35760Y40512D02*
Y41087D01*
X35665Y41417D02*
X35782Y41535D01*
Y40535D02*
X36017D01*
X35665Y41182D02*
X35782Y41065D01*
X35665Y40417D02*
X35782Y40535D01*
X35665Y40182D02*
X35782Y40065D01*
X36000Y39535D02*
Y40065D01*
X35920Y39535D02*
Y40065D01*
X35840Y39535D02*
Y40065D01*
X36017Y39535D02*
X36135Y39418D01*
X36017Y39065D02*
X36135Y39183D01*
X35782Y40065D02*
X36017D01*
X35782Y39535D02*
X36017D01*
X35665Y39418D02*
X35782Y39535D01*
Y39065D02*
X36017D01*
X35665Y39183D02*
X35782Y39065D01*
X35718Y47343D02*
Y47461D01*
Y47193D02*
Y47343D01*
Y47193D02*
Y47343D01*
X35643Y47118D02*
X35718Y47193D01*
X35643Y47118D02*
X35718Y47193D01*
X35680Y46905D02*
Y47155D01*
X35125Y47150D02*
X35225D01*
X35125D02*
X35225D01*
X35017Y47065D02*
X35103Y47150D01*
X35335Y46810D02*
X35643Y47118D01*
X35110Y47035D02*
X35225Y47150D01*
X35485Y46960D02*
X35735D01*
X35405Y46880D02*
X35655D01*
X35600Y46825D02*
Y47075D01*
X35520Y46745D02*
Y46995D01*
X35440Y46735D02*
Y46915D01*
X35073Y47120D02*
X35195D01*
X34983Y47035D02*
X35110D01*
X35040D02*
Y47087D01*
X35335Y46800D02*
X35575D01*
X34715Y47040D02*
X35115D01*
X34611Y47461D02*
X34708D01*
X34665Y47417D02*
X34708Y47461D01*
X34611D02*
Y47686D01*
X34665Y47188D02*
X34715Y47137D01*
X34665Y47182D02*
X34715Y47132D01*
X34665Y47188D02*
Y47417D01*
X34560Y47255D02*
Y47635D01*
X34525Y47600D02*
X34611D01*
X34480Y47255D02*
Y47555D01*
X34598Y47255D02*
X34665Y47188D01*
X34640Y47213D02*
Y47461D01*
X34783Y47065D02*
X35017D01*
X34960Y47013D02*
Y47065D01*
X34715Y47132D02*
X34783Y47065D01*
X34865Y46918D02*
X34983Y47035D01*
X34880Y46933D02*
Y47065D01*
X34715Y46960D02*
X34908D01*
X34693Y46880D02*
X34865D01*
X34715Y46902D02*
Y47132D01*
X34613Y46800D02*
X34865D01*
X34598Y46785D02*
X34715Y46902D01*
X35360Y46712D02*
Y46835D01*
X35382Y46735D02*
X35510D01*
X35335Y46687D02*
Y46810D01*
X35382Y46265D02*
X35565D01*
Y46083D02*
X35682Y45965D01*
X35565Y46083D02*
Y46265D01*
X35335Y46687D02*
X35382Y46735D01*
X35335Y46720D02*
X35368D01*
X35265Y46617D02*
X35335Y46687D01*
X35265Y46382D02*
X35382Y46265D01*
X35265Y46613D02*
X35335Y46683D01*
X35680Y45332D02*
Y45967D01*
Y44633D02*
Y45068D01*
X35665Y45083D02*
Y45318D01*
X35680Y42632D02*
Y44367D01*
X35665Y44383D02*
Y44618D01*
X34634Y44640D02*
X35687D01*
X34656Y44560D02*
X35665D01*
X34656Y44480D02*
X35665D01*
X34594Y44320D02*
X35728D01*
X34656Y44400D02*
X35665D01*
X35217Y46565D02*
X35265Y46613D01*
X34983Y46565D02*
X35217D01*
X34865Y46683D02*
Y46918D01*
X35265Y46382D02*
Y46613D01*
X34865Y46683D02*
X34983Y46565D01*
X34640Y45796D02*
Y46827D01*
X34560Y45876D02*
Y46785D01*
X34480Y45877D02*
Y46785D01*
X34800Y38953D02*
Y47065D01*
X34720Y43632D02*
Y47127D01*
X34559Y45877D02*
X34677Y45759D01*
Y45524D02*
Y45759D01*
X34640Y44634D02*
Y45487D01*
X34656Y44383D02*
Y44618D01*
X34640Y43713D02*
Y44366D01*
X34559Y45407D02*
X34677Y45524D01*
X34539Y44735D02*
X34656Y44618D01*
X34560Y44714D02*
Y45408D01*
X34539Y44265D02*
X34656Y44383D01*
X34560Y43735D02*
Y44286D01*
X34445Y47520D02*
X34611D01*
X34365Y47440D02*
X34688D01*
X34400Y47255D02*
Y47475D01*
X34363Y47255D02*
X34598D01*
X34363Y46785D02*
X34598D01*
X34400Y45877D02*
Y46785D01*
X34285Y47360D02*
X34665D01*
X34205Y47280D02*
X34665D01*
X34150Y47225D02*
X34611Y47686D01*
X34297Y47189D02*
X34363Y47255D01*
X34339Y46808D02*
X34363Y46785D01*
X34339Y46640D02*
X34908D01*
X34339Y46560D02*
X35265D01*
X34339Y46720D02*
X34865D01*
X34339Y46480D02*
X35265D01*
X34339Y46400D02*
X35265D01*
X34339Y46240D02*
X35565D01*
X34339Y46160D02*
X35565D01*
X34339Y46320D02*
X35327D01*
X34339Y46000D02*
X35647D01*
X34339Y46080D02*
X35568D01*
X34320Y47212D02*
Y47395D01*
X34339Y46654D02*
Y46795D01*
X34240Y47189D02*
Y47315D01*
X34339Y46654D02*
Y46795D01*
Y46598D02*
Y46654D01*
Y46457D02*
Y46598D01*
X34160Y47189D02*
Y47235D01*
X34125Y47200D02*
X34308D01*
X34114Y47189D02*
X34150Y47225D01*
X34114Y47189D02*
X34297D01*
X34114D02*
X34150Y47225D01*
X34339Y46457D02*
Y46598D01*
Y46401D02*
Y46457D01*
Y46260D02*
Y46401D01*
Y46260D02*
Y46401D01*
Y46204D02*
Y46260D01*
Y46063D02*
Y46204D01*
Y46063D02*
Y46204D01*
Y46008D02*
Y46063D01*
Y45877D02*
Y46008D01*
Y45877D02*
Y46008D01*
Y45877D02*
X34559D01*
X34339Y45407D02*
X34559D01*
X34339Y45276D02*
Y45407D01*
X34480Y44735D02*
Y45407D01*
X34400Y44735D02*
Y45407D01*
X34339Y45276D02*
Y45407D01*
Y45360D02*
X35707D01*
X34339Y45280D02*
X35665D01*
X34339Y45220D02*
Y45276D01*
Y45079D02*
Y45220D01*
Y45079D02*
Y45220D01*
Y45200D02*
X35665D01*
X34339Y45120D02*
X35665D01*
X34339Y45023D02*
Y45079D01*
X34480Y43760D02*
Y44265D01*
X34400Y43833D02*
Y44265D01*
X34339Y45040D02*
X35707D01*
X34339Y44882D02*
Y45023D01*
Y44882D02*
Y45023D01*
Y44735D02*
X34539D01*
X34339Y44265D02*
X34539D01*
X34339Y44827D02*
Y44882D01*
Y44735D02*
Y44827D01*
Y44735D02*
Y44827D01*
Y44095D02*
Y44236D01*
Y44095D02*
Y44236D01*
Y44039D02*
Y44095D01*
Y43898D02*
Y44039D01*
X32935Y43917D02*
X33391D01*
X34339Y43898D02*
Y44039D01*
X33360Y43626D02*
Y43917D01*
X34339Y43842D02*
Y43898D01*
X33391Y43842D02*
Y43898D01*
X33280Y43626D02*
Y43917D01*
X33200Y43626D02*
Y43917D01*
X33120Y43626D02*
Y43917D01*
X32935Y43682D02*
Y43917D01*
X33040Y43626D02*
Y43917D01*
X32960Y43626D02*
Y43917D01*
X34618Y43735D02*
X34735Y43618D01*
Y43383D02*
Y43618D01*
X34618Y43265D02*
X34735Y43383D01*
X34720Y43032D02*
Y43368D01*
X34735Y42783D02*
Y43018D01*
X34640Y43113D02*
Y43288D01*
X34505Y43735D02*
X34618D01*
X34383Y43265D02*
X34618D01*
X34505Y43135D02*
X34618D01*
X34735Y43018D01*
X34618Y42665D02*
X34735Y42783D01*
X35665Y42382D02*
Y42618D01*
X35680Y41432D02*
Y42368D01*
X35665Y41182D02*
Y41417D01*
X35680Y40433D02*
Y41167D01*
X34652Y40800D02*
Y41035D01*
X34640Y41047D02*
Y42688D01*
X34567Y41120D02*
X35728D01*
X34535Y41152D02*
X34652Y41035D01*
X34535Y40682D02*
X34652Y40800D01*
X34640Y40413D02*
Y40788D01*
X34407Y43833D02*
X34487Y43753D01*
X34560Y43135D02*
Y43265D01*
X34407Y43833D02*
X34487Y43753D01*
X34480Y43160D02*
Y43265D01*
X34397Y43243D02*
X34477Y43163D01*
X34397Y43243D02*
X34477Y43163D01*
X34339Y43833D02*
X34407D01*
X34339D02*
X34407D01*
X34339Y43308D02*
X34383Y43265D01*
X34339Y43243D02*
X34397D01*
X34339Y43252D02*
Y43307D01*
X34477Y43163D02*
X34505Y43135D01*
X34560Y41127D02*
Y42665D01*
X34480Y41152D02*
Y42665D01*
X34560Y40435D02*
Y40708D01*
X34480Y40435D02*
Y40682D01*
X34339Y43243D02*
X34397D01*
X34383Y42665D02*
X34618D01*
X34339Y42708D02*
X34383Y42665D01*
X34400Y41152D02*
Y42665D01*
X34339Y42661D02*
Y42708D01*
X35665Y40182D02*
Y40417D01*
X34732Y40320D02*
X35665D01*
X34720Y40332D02*
Y42768D01*
X35680Y39432D02*
Y40167D01*
X35760Y39513D02*
Y40087D01*
X34735Y40083D02*
Y40318D01*
X34653Y40400D02*
X35665D01*
X34735Y40240D02*
X35665D01*
X34618Y40435D02*
X34735Y40318D01*
X34732Y40080D02*
X35768D01*
X34735Y40160D02*
X35687D01*
X34550Y39520D02*
X35768D01*
X35665Y39183D02*
Y39418D01*
X34618Y39965D02*
X34735Y40083D01*
X34718Y39035D02*
X34835Y38918D01*
Y38682D02*
Y38918D01*
X34550Y39440D02*
X35687D01*
X34550Y39360D02*
X35665D01*
X34550Y39280D02*
X35665D01*
X34550Y39120D02*
X35728D01*
X34550Y39200D02*
X35665D01*
X34640Y39035D02*
Y39987D01*
X34480Y39645D02*
Y39965D01*
X34436Y39689D02*
X34475Y39650D01*
X34720Y39032D02*
Y40068D01*
X34560Y39065D02*
Y39965D01*
X34383Y40435D02*
X34618D01*
X34383Y39965D02*
X34618D01*
X34400Y40435D02*
Y40682D01*
X34436Y39689D02*
X34475Y39650D01*
X34400Y39689D02*
Y39965D01*
X34550Y39425D02*
Y39575D01*
Y39425D02*
Y39575D01*
Y39075D02*
Y39425D01*
X34590Y39035D02*
X34718D01*
X34550Y39075D02*
X34590Y39035D01*
X34475Y39650D02*
X34511Y39614D01*
X34475Y39650D02*
X34511Y39614D01*
X34475Y39650D02*
X34511Y39614D01*
X34550Y39575D01*
X34511Y39614D02*
X34550Y39575D01*
X34339Y42640D02*
X35687D01*
X34339Y42560D02*
X35665D01*
X34339Y42520D02*
Y42661D01*
Y42520D02*
Y42661D01*
Y42480D02*
X35665D01*
X34339Y42464D02*
Y42520D01*
Y42323D02*
Y42464D01*
Y42400D02*
X35665D01*
X34339Y42323D02*
Y42464D01*
Y42320D02*
X35728D01*
X34339Y42267D02*
Y42323D01*
Y42126D02*
Y42267D01*
Y42126D02*
Y42267D01*
Y42071D02*
Y42126D01*
Y41929D02*
Y42071D01*
Y41929D02*
Y42071D01*
Y41440D02*
X35687D01*
X34339Y41360D02*
X35665D01*
X34339Y41280D02*
X35665D01*
X34339Y41200D02*
X35665D01*
X34339Y41152D02*
X34535D01*
X33391Y43701D02*
Y43842D01*
Y43701D02*
Y43842D01*
Y43645D02*
Y43701D01*
X34339Y41874D02*
Y41929D01*
Y41733D02*
Y41874D01*
X32935Y43840D02*
X33391D01*
X32935Y43760D02*
X33391D01*
X32933Y43680D02*
X33391D01*
X32879Y43626D02*
X33391D01*
X32879D02*
X32935Y43682D01*
X34339Y41733D02*
Y41874D01*
Y41677D02*
Y41733D01*
Y41536D02*
Y41677D01*
Y41536D02*
Y41677D01*
Y41480D02*
Y41536D01*
Y41339D02*
Y41480D01*
Y41339D02*
Y41480D01*
Y41283D02*
Y41339D01*
Y41152D02*
Y41283D01*
Y41152D02*
Y41283D01*
Y40682D02*
X34535D01*
X34339Y40551D02*
Y40682D01*
Y40551D02*
Y40682D01*
Y40496D02*
Y40551D01*
Y40392D02*
Y40496D01*
Y40392D02*
Y40496D01*
Y40480D02*
X35728D01*
X34339Y40392D02*
X34383Y40435D01*
X32500Y40177D02*
X33391D01*
X34339Y39905D02*
Y39961D01*
Y39764D02*
Y39905D01*
Y39764D02*
Y39905D01*
Y39708D02*
Y39764D01*
Y39689D02*
X34436D01*
X34339D02*
X34436D01*
X34339Y38836D02*
X34365Y38810D01*
X34339Y38780D02*
Y38836D01*
Y38780D02*
Y38836D01*
Y38724D02*
Y38780D01*
X33360Y39886D02*
Y40177D01*
X33280Y39886D02*
Y40177D01*
X33200Y39886D02*
Y40177D01*
X33120Y39886D02*
Y40177D01*
X33040Y39886D02*
Y40177D01*
X32960Y39886D02*
Y40177D01*
X32880Y39886D02*
Y40177D01*
X32800Y39886D02*
Y40177D01*
X32720Y39886D02*
Y40177D01*
X32640Y39886D02*
Y40177D01*
X33391Y40102D02*
Y40158D01*
Y39961D02*
Y40102D01*
Y39961D02*
Y40102D01*
Y39905D02*
Y39961D01*
X32560Y39886D02*
Y40177D01*
X32500Y40080D02*
X33391D01*
X32500Y40000D02*
X33391D01*
X32500Y39920D02*
X33391D01*
X32500Y39886D02*
X33391D01*
X32500D02*
Y40177D01*
X36135Y38400D02*
X41947D01*
X36353Y36800D02*
X39065D01*
X37360Y36539D02*
Y42435D01*
X37280Y36539D02*
Y42355D01*
X37200Y36539D02*
Y42275D01*
X37120Y36539D02*
Y42195D01*
X36072Y38480D02*
X43467D01*
X36135Y38320D02*
X37768D01*
X36135Y38240D02*
X37687D01*
X36112Y38160D02*
X37665D01*
X36033Y38080D02*
X37665D01*
X37367Y36539D02*
X37508D01*
X37367D02*
X37508D01*
X37312D02*
X37367D01*
X37170D02*
X37312D01*
X37170D02*
X37312D01*
X36393Y36720D02*
X39065D01*
X36393Y36640D02*
X39000D01*
X36393Y36560D02*
X38951D01*
X37115Y36539D02*
X37170D01*
X36973D02*
X37115D01*
X37040D02*
Y42115D01*
X36960Y36539D02*
Y42035D01*
X36880Y36539D02*
Y41955D01*
X36800Y36539D02*
Y41875D01*
X36720Y36539D02*
Y41667D01*
X36640Y36539D02*
Y41588D01*
X36240Y36877D02*
Y41865D01*
X36080Y38472D02*
Y39128D01*
X36000Y38535D02*
Y39065D01*
X36320Y36832D02*
Y41627D01*
X36160Y36877D02*
Y41865D01*
X36973Y36539D02*
X37115D01*
X36918D02*
X36973D01*
X36777D02*
X36918D01*
X36777D02*
X36918D01*
X36721D02*
X36777D01*
X36017Y38535D02*
X36135Y38417D01*
Y38182D02*
Y38417D01*
X36080Y36877D02*
Y38128D01*
X36276Y36877D02*
X36393Y36759D01*
X36041Y36877D02*
X36276D01*
X36973Y35591D02*
X37104D01*
X36973D02*
X37104D01*
X36918D02*
X36973D01*
X37104Y35422D02*
Y35591D01*
X37040Y31400D02*
Y35591D01*
X36960Y33243D02*
Y35591D01*
X36580Y36539D02*
X36721D01*
X36580D02*
X36721D01*
X36560D02*
Y41565D01*
X36777Y35591D02*
X36918D01*
X36524Y36539D02*
X36580D01*
X36777Y35591D02*
X36918D01*
X36880Y33243D02*
Y35591D01*
X36721D02*
X36777D01*
X36800Y33243D02*
Y35591D01*
X36720Y33243D02*
Y35591D01*
X36580D02*
X36721D01*
X36580D02*
X36721D01*
X36524D02*
X36580D01*
X36045Y35520D02*
X37104D01*
X36640Y33243D02*
Y35591D01*
X36480Y36539D02*
Y41565D01*
X36400Y36539D02*
Y41565D01*
X36393Y36539D02*
Y36759D01*
X36560Y33243D02*
Y35591D01*
X36480Y33243D02*
Y35591D01*
X36393Y36539D02*
X36524D01*
X36393D02*
X36524D01*
X36383Y35591D02*
X36524D01*
X36383D02*
X36524D01*
X36400Y33243D02*
Y35591D01*
X36327D02*
X36383D01*
X36186D02*
X36327D01*
X36186D02*
X36327D01*
X36320Y33243D02*
Y35591D01*
X36240Y34407D02*
Y35591D01*
X36130D02*
X36186D01*
X36036Y35511D02*
X36111Y35586D01*
X36036Y35511D02*
X36111Y35586D01*
X36160Y34662D02*
Y35591D01*
X36080Y34742D02*
Y35555D01*
X34792Y38640D02*
X43365D01*
X35782Y38535D02*
X36017D01*
X35920D02*
Y39065D01*
X36017Y38065D02*
X36135Y38182D01*
X35782Y38065D02*
X36017D01*
X35920Y37062D02*
Y38065D01*
X34339Y38560D02*
X43387D01*
X34339Y37920D02*
X37727D01*
X34339Y38000D02*
X37665D01*
X34339Y37840D02*
X44200D01*
X34339Y37760D02*
X44200D01*
X34339Y37680D02*
X44200D01*
X34339Y37520D02*
X44297D01*
X34339Y37600D02*
X44217D01*
X35942Y37040D02*
X45220D01*
X35647Y37100D02*
X35882D01*
X34339Y37440D02*
X44865D01*
X34339Y37360D02*
X44865D01*
X34339Y37280D02*
X44868D01*
X34339Y37120D02*
X45140D01*
X34339Y37200D02*
X44948D01*
X35760Y38512D02*
Y39088D01*
X35840Y38535D02*
Y39065D01*
X35680Y38433D02*
Y39167D01*
X35600Y37053D02*
Y46048D01*
X35665Y38417D02*
X35782Y38535D01*
X35280Y37109D02*
Y46368D01*
X34673Y38480D02*
X35728D01*
X34735Y38400D02*
X35665D01*
X35200Y37109D02*
Y46565D01*
X35120Y37109D02*
Y46565D01*
X35040Y37092D02*
Y46565D01*
X35665Y38182D02*
X35782Y38065D01*
X35840Y37100D02*
Y38065D01*
X35665Y38182D02*
Y38417D01*
X35760Y37100D02*
Y38087D01*
X35680Y37100D02*
Y38168D01*
X34735Y38320D02*
X35665D01*
X34713Y38160D02*
X35687D01*
X34735Y38240D02*
X35665D01*
X34632Y38080D02*
X35768D01*
X35057Y37109D02*
X35292D01*
X36000Y36960D02*
X45261D01*
X36000Y36880D02*
X39128D01*
X35882Y37100D02*
X36000Y36982D01*
X36000Y36836D02*
Y38065D01*
X36000Y36836D02*
X36041Y36877D01*
X36000Y36836D02*
Y36982D01*
X35530D02*
X35647Y37100D01*
X35361Y37040D02*
X35587D01*
X35409Y36960D02*
X35530D01*
Y36747D02*
Y36982D01*
X35520Y36539D02*
Y46265D01*
X35530Y36747D02*
X35605Y36672D01*
Y36539D02*
Y36672D01*
X35409Y36880D02*
X35530D01*
X35550Y35025D02*
X36036Y35511D01*
X35540Y36539D02*
X35596D01*
X35373Y36720D02*
X35557D01*
X35324Y36640D02*
X35605D01*
X35409Y36800D02*
X35530D01*
X35324Y36560D02*
X35605D01*
X35399Y36539D02*
X35540D01*
X35440D02*
Y46265D01*
X35409Y36757D02*
Y36992D01*
X35360Y37041D02*
Y46287D01*
X35399Y36539D02*
X35540D01*
X35360D02*
Y36707D01*
X35292Y37109D02*
X35409Y36992D01*
X35324Y36672D02*
X35409Y36757D01*
X34950Y37002D02*
X35057Y37109D01*
X35343Y36539D02*
X35399D01*
X35324D02*
Y36672D01*
X35325Y35550D02*
X35366Y35591D01*
X35202D02*
X35343D01*
X35202D02*
X35343D01*
X35280Y35550D02*
Y35591D01*
X35200Y35550D02*
Y35591D01*
X35146D02*
X35202D01*
X35005D02*
X35146D01*
X35005D02*
X35146D01*
X34002Y35550D02*
X35325D01*
X35120D02*
Y35591D01*
X37222Y35304D02*
X37457D01*
X36170Y34640D02*
X38164D01*
X37104Y35422D02*
X37222Y35304D01*
X37360Y33243D02*
Y35304D01*
X37280Y33243D02*
Y35304D01*
X37200Y33243D02*
Y35326D01*
X35805Y35280D02*
X38164D01*
X35725Y35200D02*
X38164D01*
X35645Y35120D02*
X38164D01*
X36102Y34720D02*
X38164D01*
X36170Y34560D02*
X38164D01*
X36261Y34320D02*
X38240D01*
X36261Y34240D02*
X38320D01*
X36261Y34400D02*
X38164D01*
X36261Y34160D02*
X38400D01*
X37187Y33243D02*
X38194D01*
X36261Y34080D02*
X38480D01*
X36261Y34000D02*
X38560D01*
X36170Y34480D02*
X38164D01*
X36261Y33840D02*
X38720D01*
X36261Y33920D02*
X38640D01*
X35965Y35440D02*
X37104D01*
X35885Y35360D02*
X37166D01*
X36000Y34770D02*
Y35475D01*
X36052Y34770D02*
X36170Y34652D01*
Y34417D02*
Y34652D01*
X35920Y34770D02*
Y35395D01*
X35840Y34770D02*
Y35315D01*
X35817Y34770D02*
X36052D01*
X35760Y34713D02*
Y35235D01*
X35700Y34652D02*
X35817Y34770D01*
X35680Y34407D02*
Y35155D01*
X36261Y33793D02*
Y34407D01*
X37013Y33200D02*
X37187D01*
X36240Y33243D02*
Y33793D01*
X37013Y33120D02*
X37187D01*
X37013Y33040D02*
X37187D01*
X36159Y34407D02*
X36261D01*
X36160Y33243D02*
Y33793D01*
X35700Y34417D02*
Y34652D01*
X36006Y33243D02*
X37013D01*
X36080D02*
Y33793D01*
X37013Y32960D02*
X37187D01*
X37013Y32880D02*
X37187D01*
X37013Y32800D02*
X37187D01*
X37120Y31400D02*
Y35406D01*
X37187Y32157D02*
Y33243D01*
X37013Y32157D02*
Y33243D01*
Y32720D02*
X37187D01*
X37013Y32640D02*
X37187D01*
X37013Y32560D02*
X37187D01*
X37013Y32480D02*
X37187D01*
Y32157D02*
X38194D01*
X37360Y31400D02*
Y32157D01*
X37013Y32400D02*
X37187D01*
X37280Y31400D02*
Y32157D01*
X37200Y31400D02*
Y32157D01*
X37013Y32320D02*
X37187D01*
X37013Y32240D02*
X37187D01*
X37013Y32160D02*
X37187D01*
X36006Y32157D02*
X37013D01*
X36960Y31400D02*
Y32157D01*
X36880Y31400D02*
Y32157D01*
X36000Y31400D02*
Y33793D01*
X35920Y31400D02*
Y33793D01*
X36006Y32157D02*
Y33243D01*
X35840Y31400D02*
Y33793D01*
X35760Y31400D02*
Y33793D01*
X35680Y31400D02*
Y33793D01*
X36800Y31400D02*
Y32157D01*
X36720Y31400D02*
Y32157D01*
X36640Y31400D02*
Y32157D01*
X36560Y31400D02*
Y32157D01*
X36480Y31400D02*
Y32157D01*
X36400Y31400D02*
Y32157D01*
X36320Y31400D02*
Y32157D01*
X36240Y31400D02*
Y32157D01*
X36160Y31400D02*
Y32157D01*
X36080Y31400D02*
Y32157D01*
X35565Y35040D02*
X38164D01*
X35485Y34960D02*
X38164D01*
X35475Y34950D02*
X35550Y35025D01*
X35435Y34800D02*
X38164D01*
X35608Y34407D02*
X35710D01*
X35608Y33793D02*
Y34407D01*
X35373Y34880D02*
X38164D01*
X35435Y34720D02*
X35768D01*
X35435Y34640D02*
X35700D01*
X35415Y34480D02*
X35700D01*
X35415Y34407D02*
X35592D01*
Y33793D02*
Y34407D01*
X35608Y33793D02*
X36261D01*
X34939D02*
X35592D01*
X32500Y33680D02*
X38865D01*
X32500Y33760D02*
X38800D01*
X32500Y33520D02*
X38928D01*
X32500Y33440D02*
X42420D01*
X32500Y33600D02*
X38865D01*
X32500Y33280D02*
X42580D01*
X32500Y33360D02*
X42500D01*
X35475Y34950D02*
X35550Y35025D01*
X35325Y34950D02*
X35475D01*
X35360Y34892D02*
Y34950D01*
X35520Y34407D02*
Y34995D01*
X35440Y34407D02*
Y34950D01*
X35325D02*
X35475D01*
X34802D02*
X35325D01*
X35082Y34935D02*
X35317D01*
X35435Y34818D01*
X34965D02*
X35082Y34935D01*
X35435Y34583D02*
Y34818D01*
X35415Y34407D02*
Y34560D01*
X35115Y34407D02*
Y34465D01*
X35280Y33228D02*
Y33793D01*
X35200Y33228D02*
Y33793D01*
X35082Y34465D02*
X35115D01*
X34505Y34480D02*
X35068D01*
X34965Y34583D02*
X35082Y34465D01*
X34939Y34407D02*
X35115D01*
X35120Y33228D02*
Y33793D01*
X35327Y33200D02*
X36006D01*
X35327Y33120D02*
X36006D01*
X35327Y33040D02*
X36006D01*
X35327Y32960D02*
X36006D01*
X35327Y32880D02*
X36006D01*
X35327Y32800D02*
X36006D01*
X34146Y32720D02*
X36006D01*
X34146Y32640D02*
X36006D01*
X34146Y32560D02*
X36006D01*
X35327Y32480D02*
X36006D01*
X35327Y32400D02*
X36006D01*
X35327Y32080D02*
X43428D01*
X32500Y32000D02*
X43365D01*
X32500Y31920D02*
X41895D01*
X32500Y31840D02*
X41815D01*
X32500Y31760D02*
X41735D01*
X32500Y31680D02*
X41655D01*
X32500Y31600D02*
X41575D01*
X32500Y31520D02*
X41495D01*
X32500Y31440D02*
X41415D01*
X32500Y31400D02*
X41375D01*
X35600D02*
Y35075D01*
X35520Y31400D02*
Y33793D01*
X35327Y32772D02*
Y33228D01*
X35440Y31400D02*
Y33793D01*
X35360Y31400D02*
Y33793D01*
X34635Y33228D02*
X35327D01*
X34635Y32772D02*
X35327D01*
X35280Y32480D02*
Y32772D01*
X35200Y32480D02*
Y32772D01*
X35327Y32320D02*
X36006D01*
X35327Y32240D02*
X36006D01*
X35327Y32160D02*
X36006D01*
X35327Y32024D02*
Y32480D01*
X35280Y31400D02*
Y32024D01*
X34635Y32480D02*
X35327D01*
X34635Y32024D02*
X35327D01*
X35120Y32480D02*
Y32772D01*
X35200Y31400D02*
Y32024D01*
X35120Y31400D02*
Y32024D01*
X34718Y38565D02*
X34835Y38682D01*
X34720Y38433D02*
Y38568D01*
X34640Y38512D02*
Y38565D01*
X34880Y37035D02*
Y46667D01*
X34960Y37013D02*
Y46588D01*
X34800Y37035D02*
Y38647D01*
X34365Y38682D02*
X34483Y38565D01*
X34718D01*
X34339Y38640D02*
X34407D01*
X34480Y38535D02*
Y38568D01*
X34400Y38535D02*
Y38647D01*
X34618Y38535D02*
X34735Y38417D01*
X34918Y37035D02*
X34950Y37002D01*
X34735Y38182D02*
Y38417D01*
X34683Y37035D02*
X34918D01*
X34720D02*
Y38168D01*
X34383Y38535D02*
X34618D01*
Y38065D02*
X34735Y38182D01*
X34383Y38065D02*
X34618D01*
X34339Y37040D02*
X34987D01*
X34339Y38108D02*
X34383Y38065D01*
X34365Y38682D02*
Y38810D01*
X34339Y38583D02*
Y38724D01*
Y38583D02*
Y38724D01*
Y38527D02*
Y38583D01*
Y37992D02*
Y38108D01*
Y37992D02*
Y38108D01*
Y37937D02*
Y37992D01*
Y37796D02*
Y37937D01*
Y37796D02*
Y37937D01*
Y37740D02*
Y37796D01*
Y37599D02*
Y37740D01*
Y37599D02*
Y37740D01*
Y37543D02*
Y37599D01*
Y37402D02*
Y37543D01*
Y37402D02*
Y37543D01*
Y37346D02*
Y37402D01*
Y37205D02*
Y37346D01*
Y37205D02*
Y37346D01*
Y37149D02*
Y37205D01*
Y37008D02*
Y37149D01*
Y37008D02*
Y37149D01*
X34949Y35591D02*
X35005D01*
X34808D02*
X34949D01*
X34683Y36565D02*
X34810D01*
X35040Y35550D02*
Y35591D01*
X34960Y35550D02*
Y35591D01*
X34808D02*
X34949D01*
X34565Y36918D02*
X34683Y37035D01*
X34565Y36683D02*
X34683Y36565D01*
X34640Y36992D02*
Y38087D01*
X34611Y36539D02*
X34808D01*
X34640D02*
Y36607D01*
X34880Y35550D02*
Y35591D01*
X35040Y34892D02*
Y34950D01*
X34835Y34683D02*
Y34918D01*
X34960Y34407D02*
Y34950D01*
X34880Y33228D02*
Y34950D01*
X34611Y35591D02*
X34808D01*
X34800Y35550D02*
Y35591D01*
X34720Y35550D02*
Y35591D01*
X34835Y34880D02*
X35027D01*
X34802Y34950D02*
X34835Y34918D01*
X34560Y36535D02*
Y38065D01*
X34565Y36683D02*
Y36918D01*
X34480Y36532D02*
Y38065D01*
X34483Y36535D02*
X34611D01*
X34400Y36453D02*
Y38065D01*
X34339Y36960D02*
X34608D01*
X34339Y36880D02*
X34565D01*
X34339Y36811D02*
Y37008D01*
X34365Y36418D02*
X34483Y36535D01*
X34365Y36182D02*
Y36418D01*
X34611Y35591D02*
Y36049D01*
X34640Y35550D02*
Y35591D01*
X34483Y36065D02*
X34595D01*
X34560Y35550D02*
Y36065D01*
X34480Y35550D02*
Y36068D01*
X34365Y36182D02*
X34483Y36065D01*
X34400Y35550D02*
Y36147D01*
X34365Y34913D02*
X34402Y34950D01*
X34365Y34918D02*
X34397Y34950D01*
X34365Y34790D02*
Y34913D01*
X33391Y36811D02*
X34339D01*
X34320Y35550D02*
Y36811D01*
X34240Y35550D02*
Y36811D01*
X34160Y35550D02*
Y36811D01*
X34080Y35550D02*
Y36811D01*
X34000Y35552D02*
Y36811D01*
X32825Y36800D02*
X34565D01*
X32665Y36640D02*
X34608D01*
X32745Y36720D02*
X34565D01*
X32505Y36480D02*
X34427D01*
X32500Y36400D02*
X34365D01*
X32500Y36320D02*
X34365D01*
X32500Y36160D02*
X34388D01*
X32500Y36240D02*
X34365D01*
X33953Y35600D02*
X34611D01*
X32500Y36080D02*
X34467D01*
X32500Y36000D02*
X34611D01*
X32500Y35920D02*
X34611D01*
X32500Y35840D02*
X34611D01*
X32500Y35760D02*
X34611D01*
X32500Y35680D02*
X34611D01*
X33920Y35633D02*
Y36811D01*
X33840Y35635D02*
Y36811D01*
X33391D02*
Y37008D01*
X33760Y35635D02*
Y36811D01*
X33680Y35633D02*
Y36811D01*
X33600Y35552D02*
Y36811D01*
X33052Y37027D02*
X33391D01*
X32985Y36960D02*
X33391D01*
X32905Y36880D02*
X33391D01*
X32500Y36475D02*
X33052Y37027D01*
X32500Y35252D02*
Y36475D01*
X33918Y35635D02*
X34002Y35550D01*
X33682Y35635D02*
X33918D01*
X33565Y35517D02*
X33682Y35635D01*
X33965Y35217D02*
X33997Y35250D01*
X33565Y35282D02*
Y35517D01*
X32500Y35600D02*
X33647D01*
X32500Y35520D02*
X33568D01*
X32500Y35440D02*
X33565D01*
X32500Y35360D02*
X33565D01*
X32500Y35280D02*
X33568D01*
X33965Y35213D02*
X34002Y35250D01*
X33918Y35165D02*
X33965Y35213D01*
Y34983D02*
Y35213D01*
X33920Y34407D02*
Y35168D01*
X33965Y34983D02*
X34083Y34865D01*
X33840Y34407D02*
Y35165D01*
X33682D02*
X33918D01*
X32535Y35120D02*
X33965D01*
X33565Y35282D02*
X33682Y35165D01*
X32535Y35040D02*
X33965D01*
X33760Y34407D02*
Y35165D01*
X34318Y34865D02*
X34365Y34913D01*
X34332Y34880D02*
X34365D01*
X34320Y34745D02*
Y34867D01*
X34240Y34665D02*
Y34865D01*
X34160Y34585D02*
Y34865D01*
X34083D02*
X34318D01*
X32500Y34880D02*
X34067D01*
X32513Y34960D02*
X33988D01*
X34080Y34505D02*
Y34867D01*
X34000Y34425D02*
Y34948D01*
X33360Y34800D02*
Y37027D01*
X33440Y34800D02*
Y36811D01*
X33280Y34800D02*
Y37027D01*
X33520Y34763D02*
Y36811D01*
X33200Y34753D02*
Y37027D01*
X33120Y34407D02*
Y37027D01*
X33040Y34407D02*
Y37015D01*
X32960Y31400D02*
Y36935D01*
X32880Y31400D02*
Y36855D01*
X32800Y31400D02*
Y36775D01*
X33600Y34683D02*
Y35247D01*
X33680Y34407D02*
Y35168D01*
X32720Y31400D02*
Y36695D01*
X32640Y31400D02*
Y36615D01*
X32560Y31400D02*
Y36535D01*
X32500Y35252D02*
X32535Y35217D01*
Y35200D02*
X33647D01*
X32535Y34983D02*
Y35217D01*
X32500Y34948D02*
X32535Y34983D01*
X32500Y31400D02*
Y34948D01*
X34835Y34800D02*
X34965D01*
X34835Y34720D02*
X34965D01*
X34792Y34640D02*
X34965D01*
Y34583D02*
Y34818D01*
X35040Y34407D02*
Y34508D01*
X34939Y33793D02*
Y34407D01*
X34585Y34560D02*
X34987D01*
X34425Y34400D02*
X34939D01*
X34718Y34565D02*
X34835Y34683D01*
X34361Y34320D02*
X34939D01*
X34800Y33228D02*
Y34648D01*
X35040Y33228D02*
Y33793D01*
X34960Y33228D02*
Y33793D01*
X34361Y34240D02*
X34939D01*
X34361Y34160D02*
X34939D01*
X34361Y34080D02*
X34939D01*
X34361Y34000D02*
X34939D01*
X34361Y33920D02*
X34939D01*
X34361Y33840D02*
X34939D01*
X34590Y34565D02*
X34718D01*
X34361Y34336D02*
X34590Y34565D01*
X34361Y33793D02*
Y34336D01*
X34720Y33228D02*
Y34567D01*
X34640Y33228D02*
Y34565D01*
X34080Y33228D02*
Y33793D01*
X33982Y34407D02*
X34365Y34790D01*
X33708Y34407D02*
X33982D01*
X33708Y33793D02*
Y34407D01*
Y33793D02*
X34361D01*
X33692D02*
Y34407D01*
X34146Y33200D02*
X34635D01*
X34146Y33120D02*
X34635D01*
X34146Y33040D02*
X34635D01*
X34146Y32960D02*
X34635D01*
X34146Y32880D02*
X34635D01*
X34000Y33228D02*
Y33793D01*
X33920Y33228D02*
Y33793D01*
X33840Y33228D02*
Y33793D01*
X33760Y33228D02*
Y33793D01*
X33680Y33228D02*
Y33793D01*
X35040Y32480D02*
Y32772D01*
X34960Y32480D02*
Y32772D01*
X34880Y32480D02*
Y32772D01*
X34800Y32480D02*
Y32772D01*
X34720Y32480D02*
Y32772D01*
X34635D02*
Y33228D01*
X34146Y32800D02*
X34635D01*
X34640Y32480D02*
Y32772D01*
X34146Y32480D02*
X34635D01*
Y32024D02*
Y32480D01*
X35040Y31400D02*
Y32024D01*
X34960Y31400D02*
Y32024D01*
X34880Y31400D02*
Y32024D01*
X34800Y31400D02*
Y32024D01*
X34720Y31400D02*
Y32024D01*
X34146Y32400D02*
X34635D01*
X34146Y32320D02*
X34635D01*
X34146Y32240D02*
X34635D01*
X34146Y32160D02*
X34635D01*
X34146Y32080D02*
X34635D01*
X34560Y31400D02*
Y34535D01*
X34480Y31400D02*
Y34455D01*
X34400Y31400D02*
Y34375D01*
X34320Y31400D02*
Y33793D01*
X34240Y31400D02*
Y33793D01*
X34146Y32854D02*
Y33228D01*
Y32772D02*
Y32854D01*
Y32772D02*
Y32854D01*
Y32480D02*
Y32772D01*
X34160Y31400D02*
Y33793D01*
X34146Y32398D02*
Y32480D01*
Y32398D02*
Y32480D01*
Y32024D02*
Y32398D01*
X34640Y31400D02*
Y32024D01*
X34080Y31400D02*
Y32024D01*
X34000Y31400D02*
Y32024D01*
X33920Y31400D02*
Y32024D01*
X33840Y31400D02*
Y32024D01*
X33760Y31400D02*
Y32024D01*
X33680Y31400D02*
Y32024D01*
X33563Y34720D02*
X34295D01*
X33600Y34640D02*
X34215D01*
X33600Y34560D02*
X34135D01*
X33600Y34448D02*
Y34683D01*
Y34480D02*
X34055D01*
X33600Y34407D02*
Y34448D01*
X33483Y34800D02*
X34365D01*
X33483Y34800D02*
X33600Y34683D01*
X33248Y34800D02*
X33483D01*
X33559Y34407D02*
X33692D01*
X33559D02*
X33600Y34448D01*
X33600Y33228D02*
Y33793D01*
X33454Y33228D02*
X34146D01*
X33520D02*
Y33793D01*
X33454Y33190D02*
Y33228D01*
X33440Y33190D02*
Y33793D01*
X33039D02*
X33692D01*
X33082Y33235D02*
X33317D01*
X33280D02*
Y33793D01*
X33352Y33200D02*
X33454D01*
X33360Y33193D02*
Y33793D01*
X32500Y34800D02*
X33247D01*
X33130Y34683D02*
X33248Y34800D01*
X33130Y34448D02*
Y34683D01*
Y34448D02*
X33171Y34407D01*
X33039D02*
X33171D01*
X32500Y34720D02*
X33168D01*
X32500Y34640D02*
X33130D01*
X32500Y34560D02*
X33130D01*
X32500Y34480D02*
X33130D01*
X32500Y34400D02*
X33039D01*
X32500Y34320D02*
X33039D01*
X32500Y34240D02*
X33039D01*
Y33793D02*
Y34407D01*
X33200Y33235D02*
Y33793D01*
X33120Y33235D02*
Y33793D01*
X32500Y34160D02*
X33039D01*
X32500Y34080D02*
X33039D01*
X32500Y34000D02*
X33039D01*
X32500Y33920D02*
X33039D01*
X32500Y33840D02*
X33039D01*
X33317Y33235D02*
X33363Y33190D01*
X33454D01*
X33040Y33193D02*
Y33793D01*
X33411Y32062D02*
X33454D01*
Y32024D02*
Y32062D01*
X33013Y32369D02*
X33072Y32428D01*
X32965Y33117D02*
X33082Y33235D01*
X32991Y32508D02*
X33072Y32428D01*
X32500Y33200D02*
X33047D01*
X33013Y32134D02*
X33131Y32017D01*
X32500Y32080D02*
X33068D01*
X33454Y32024D02*
X34146D01*
X33600Y31400D02*
Y32024D01*
X33366Y32017D02*
X33411Y32062D01*
X33520Y31400D02*
Y32024D01*
X33440Y31400D02*
Y32062D01*
X33131Y32017D02*
X33366D01*
X33360Y31400D02*
Y32017D01*
X33280Y31400D02*
Y32017D01*
X33200Y31400D02*
Y32017D01*
X33120Y31400D02*
Y32027D01*
X32500Y33120D02*
X32968D01*
X32965Y32882D02*
X33047Y32800D01*
X32965Y32882D02*
Y33117D01*
X32991Y32743D02*
X33047Y32800D01*
X32991Y32508D02*
Y32743D01*
X32500Y33040D02*
X32965D01*
X32500Y32960D02*
X32965D01*
X32500Y32880D02*
X32968D01*
X32500Y32800D02*
X33047D01*
X32500Y32720D02*
X32991D01*
X32500Y32640D02*
X32991D01*
X33040Y32396D02*
Y32459D01*
X32500Y32560D02*
X32991D01*
X33040Y31400D02*
Y32108D01*
X33013Y32134D02*
Y32369D01*
X32500Y32480D02*
X33019D01*
X32500Y32400D02*
X33044D01*
X32500Y32320D02*
X33013D01*
X32500Y32240D02*
X33013D01*
X32500Y32160D02*
X33013D01*
X39111Y47389D02*
X39200Y47300D01*
X39111Y47389D02*
Y47935D01*
X36552Y45352D02*
Y47935D01*
X36200Y45000D02*
X36552Y45352D01*
X53035Y42800D02*
X53500D01*
X53900Y42400D01*
X32977Y37177D02*
X33865D01*
X27700Y36600D02*
X28277Y37177D01*
X33800Y35400D02*
X35400D01*
X35568Y35568D02*
Y36065D01*
X23250Y38250D02*
X25050D01*
X27900Y35400D02*
X31900D01*
X34200Y35100D02*
X35400D01*
X35961Y35661D02*
Y36065D01*
X27200Y35100D02*
X32300D01*
X42000Y31800D02*
X43500D01*
X33211Y41311D02*
X33865D01*
X33100Y41200D02*
X33211Y41311D01*
X37339Y42639D02*
Y47935D01*
X36500Y41800D02*
X37339Y42639D01*
X33414Y41114D02*
X33865D01*
X28714D02*
X32700D01*
X33300Y41000D02*
X33414Y41114D01*
X32700D02*
X32814Y41000D01*
X27600Y40000D02*
X28714Y41114D01*
X32814Y41000D02*
X33300D01*
X33111Y42689D02*
X33865D01*
X33000Y42800D02*
X33111Y42689D01*
X37143Y43043D02*
Y47935D01*
X36200Y42100D02*
X37143Y43043D01*
X32714Y43000D02*
X33300D01*
X33414Y42886D02*
X33865D01*
X33300Y43000D02*
X33414Y42886D01*
X22500Y41750D02*
X23450D01*
X32600Y42886D02*
X32714Y43000D01*
X25386Y42886D02*
X32600D01*
X46639Y44461D02*
X46700Y44400D01*
X45735Y44461D02*
X46639D01*
X46836Y44100D02*
X47000Y44264D01*
X45735D02*
X46336D01*
X46500Y44100D01*
X46836D01*
X45183Y40917D02*
X45735D01*
X45139Y39539D02*
X45735D01*
Y36665D02*
Y36980D01*
X43800Y36600D02*
X43835Y36565D01*
Y36065D02*
Y36565D01*
X44229Y36065D02*
Y36671D01*
X40489Y35511D02*
Y36065D01*
X32400Y56400D02*
X32480Y56320D01*
X31950Y56130D02*
X32150D01*
X32480Y56280D02*
Y56320D01*
X32300Y56100D02*
X32480Y56280D01*
X32180Y56100D02*
X32300D01*
X32150Y56130D02*
X32180Y56100D01*
X62165Y57165D02*
X62800D01*
X41473Y47935D02*
Y48573D01*
X62935Y57835D02*
X63200Y58100D01*
X62800Y57835D02*
X62935D01*
X51800Y42800D02*
X52365D01*
X48498Y42098D02*
X49700Y43300D01*
X56946Y46427D02*
Y46854D01*
X55600Y46000D02*
X56000Y46400D01*
X49700Y43300D02*
X55100D01*
X45735Y42098D02*
X48498D01*
X45035Y47935D02*
X45200Y48100D01*
X44820Y47935D02*
X45035D01*
X42261D02*
Y48439D01*
X42100Y48600D02*
X42261Y48439D01*
X22450Y50700D02*
X22500Y50750D01*
X21400Y50700D02*
X22450D01*
X20800Y50100D02*
X21400Y50700D01*
X33865Y44461D02*
X34461D01*
X34421Y44500D02*
X34461Y44461D01*
X30400Y52800D02*
X30865D01*
X31700Y50800D02*
X32365D01*
X21750Y52250D02*
X22650D01*
X23200Y52800D01*
X23400D01*
X23800Y53200D01*
X24500D01*
X24800Y52900D01*
X29600D01*
X31700Y50800D01*
X31600Y52735D02*
Y52900D01*
X33800Y51000D02*
X37300D01*
X45200Y47555D02*
X45735Y47020D01*
X32300Y52500D02*
X33800Y51000D01*
X31835Y52500D02*
X32300D01*
X31600Y52735D02*
X31835Y52500D01*
X44777Y46823D02*
X45735D01*
X33335Y50500D02*
X37200D01*
X33035Y50800D02*
X33335Y50500D01*
X71300Y51626D02*
X72326Y50600D01*
X41300Y50900D02*
X43200Y52800D01*
X40800Y50400D02*
Y50500D01*
X41080Y47935D02*
Y48692D01*
X41500Y49112D01*
Y49700D01*
X40800Y50400D02*
X41500Y49700D01*
X43200Y52800D02*
X49200D01*
X52200Y55800D01*
X56400D01*
X57000Y56400D01*
Y57100D01*
X58600Y58700D01*
X68300D01*
X71300Y55700D01*
Y51626D02*
Y55700D01*
X39700Y52000D02*
X41800Y49900D01*
X72226Y53600D02*
Y55874D01*
X41276Y47935D02*
Y48676D01*
X41800Y49200D02*
Y49900D01*
X41276Y48676D02*
X41800Y49200D01*
X42251Y49351D02*
Y50351D01*
X41473Y48573D02*
X42251Y49351D01*
X39700Y52000D02*
Y58700D01*
X40300Y59300D01*
X68800D01*
X72226Y55874D01*
X73000Y50700D02*
X73100Y50600D01*
X77300D01*
X73522Y53052D02*
X77300D01*
X72974Y53600D02*
X73522Y53052D01*
X58200Y41400D02*
X60600D01*
X66500Y43500D02*
X67700D01*
X65700Y42700D02*
X66500Y43500D01*
X60700Y41300D02*
X62000D01*
X57339Y43039D02*
X57400Y43100D01*
X57339Y42573D02*
Y43039D01*
X58000Y41600D02*
X58200Y41400D01*
X57536Y41664D02*
Y42573D01*
X58000Y41200D02*
X60200D01*
X66900Y44500D02*
X67700D01*
X64700Y42300D02*
X66900Y44500D01*
X60400Y41000D02*
X62400D01*
X57536Y41664D02*
X58000Y41200D01*
X58700Y40300D02*
X59320Y39680D01*
X63973D01*
X45735Y40524D02*
X46976D01*
X47200Y40300D02*
X52200D01*
X59524Y39876D02*
X63973D01*
X59400Y40000D02*
X59524Y39876D01*
X52333Y39933D02*
X52700Y40300D01*
X45735Y39933D02*
X52333D01*
X60600Y41400D02*
X60700Y41300D01*
X60200Y41200D02*
X60400Y41000D01*
X60200Y41600D02*
X63100D01*
X67100Y45500D02*
X67700D01*
X63300Y41900D02*
X63700Y42300D01*
X63300Y41800D02*
Y41900D01*
X63100Y41600D02*
X63300Y41800D01*
X57733Y42167D02*
Y42573D01*
X66400Y40500D02*
X67700D01*
X60000Y40900D02*
X60600Y40300D01*
X61100D01*
X64900Y39000D02*
X66400Y40500D01*
X58500Y43200D02*
X58600D01*
X58127Y42573D02*
Y43027D01*
X58200Y43100D01*
X58400D01*
X58500Y43200D01*
X57733Y42167D02*
X58000Y41900D01*
X58300D01*
X58500Y41700D01*
X60100D01*
X60200Y41600D01*
X63700Y42300D02*
X63900D01*
X67100Y45500D01*
X57143Y41243D02*
Y42573D01*
X59600Y37900D02*
X62800D01*
X57000Y40500D02*
X59600Y37900D01*
X57000Y40500D02*
Y41100D01*
X57143Y41243D01*
X46976Y40524D02*
X47200Y40300D01*
X64427Y40073D02*
X64700Y39800D01*
X63973Y40073D02*
X64427D01*
X64383Y39483D02*
X64700Y39800D01*
X63973Y39483D02*
X64383D01*
X56327Y46427D02*
X56355D01*
X56000Y45900D02*
Y46100D01*
X56327Y46427D01*
X56000Y46700D02*
X56200Y46900D01*
X56000Y46400D02*
Y46700D01*
X56900Y46900D02*
X56946Y46854D01*
X56200Y46900D02*
X56900D01*
X55627Y46827D02*
Y47155D01*
X33365Y34100D02*
Y34565D01*
X35935Y34100D02*
Y34535D01*
X34800Y36800D02*
X34977Y36623D01*
Y36065D02*
Y36623D01*
X34035Y34235D02*
X34600Y34800D01*
X34035Y34100D02*
Y34235D01*
X35174Y36065D02*
Y36874D01*
X35200Y34700D02*
X35265Y34635D01*
Y34100D02*
Y34635D01*
X30300Y37200D02*
X30865D01*
X30300Y38200D02*
X30865D01*
X32668Y37768D02*
X33865D01*
X31535Y37200D02*
X32100D01*
X32668Y37768D01*
X28277Y37177D02*
X29200D01*
X32300Y36500D02*
X32977Y37177D01*
X29200D02*
X29877Y36500D01*
X32300D01*
X32235Y37965D02*
X33865D01*
X32000Y38200D02*
X32235Y37965D01*
X31535Y38200D02*
X32000D01*
X29765Y45865D02*
Y46300D01*
X31400Y46000D02*
X31665D01*
X31100Y45700D02*
X31400Y46000D01*
X30500Y46200D02*
X30800Y46500D01*
X33068Y46232D02*
X33865D01*
X30800Y46500D02*
X32800D01*
X33068Y46232D01*
X32370Y46035D02*
X33865D01*
X32335Y46000D02*
X32370Y46035D01*
X30700Y47300D02*
X31665D01*
X31600Y48300D02*
X31665D01*
X30700Y47800D02*
X31100D01*
X31600Y48300D01*
X34977Y47935D02*
Y48411D01*
X32335Y48300D02*
X32535Y48500D01*
X34888D01*
X34977Y48411D01*
X34635Y47935D02*
X34780D01*
X32335Y47300D02*
X34000D01*
X34635Y47935D01*
X37500Y48700D02*
X37733Y48467D01*
Y47935D02*
Y48467D01*
X25700Y48400D02*
X31100D01*
X24000Y47750D02*
X25050D01*
X30302Y41902D02*
X33865D01*
X30200Y41800D02*
X30302Y41902D01*
X32405Y41705D02*
X33865D01*
X32182Y41482D02*
X32405Y41705D01*
X27782Y41482D02*
X32182D01*
X26700Y40400D02*
X27782Y41482D01*
X27400Y40500D02*
X28200Y41300D01*
X32908Y41508D02*
X33865D01*
X32700Y41300D02*
X32908Y41508D01*
X28200Y41300D02*
X32700D01*
X35568Y47268D02*
Y47935D01*
X35100Y46800D02*
X35568Y47268D01*
X35961Y46961D02*
Y47935D01*
X35500Y46500D02*
X35961Y46961D01*
X35765Y47935D02*
Y48465D01*
X36158Y46558D02*
Y47935D01*
X35800Y46200D02*
X36158Y46558D01*
X36355Y45655D02*
Y47935D01*
X35900Y45200D02*
X36355Y45655D01*
X36749Y43349D02*
Y47935D01*
X36400Y43000D02*
X36749Y43349D01*
X24050Y43800D02*
X32700D01*
X24000Y43750D02*
X24050Y43800D01*
X36946Y47935D02*
Y48446D01*
X35371Y47471D02*
Y47935D01*
X34900Y47300D02*
X35200D01*
X35371Y47471D01*
X21700Y48200D02*
X22700D01*
X34900Y48700D02*
X35174Y48426D01*
Y47935D02*
Y48426D01*
X37536Y47464D02*
Y47935D01*
Y47464D02*
X37700Y47300D01*
X25050Y47750D02*
X25700Y48400D01*
X24900Y49000D02*
X37600D01*
X37930Y47935D02*
Y48670D01*
X24250Y48350D02*
X24900Y49000D01*
X23300Y48300D02*
X23350Y48350D01*
X24250D01*
X24800Y49200D02*
X37800D01*
X38127Y47935D02*
Y48873D01*
X24700Y49300D02*
X24800Y49200D01*
X23300Y49300D02*
X24700D01*
X37600Y49000D02*
X37930Y48670D01*
X37800Y49200D02*
X38127Y48873D01*
X38324Y47935D02*
Y48976D01*
X24000Y49750D02*
X29550D01*
X29900Y49400D01*
X37900D01*
X38324Y48976D01*
X38520Y47935D02*
Y49280D01*
X23250Y50250D02*
X30050D01*
X30700Y49600D01*
X38200D01*
X38520Y49280D01*
X38914Y47935D02*
Y49486D01*
X23250Y51250D02*
X29750D01*
X31200Y49800D01*
X38600D01*
X38914Y49486D01*
X39308Y47935D02*
Y49592D01*
X24000Y51750D02*
X29950D01*
X31700Y50000D01*
X38900D01*
X39308Y49592D01*
X39505Y47935D02*
Y49695D01*
X23300Y52300D02*
X29800D01*
X39000Y50200D02*
X39505Y49695D01*
X31900Y50200D02*
X39000D01*
X29800Y52300D02*
X31900Y50200D01*
X22700Y48200D02*
X23050Y47850D01*
X23450D01*
X23800Y48200D01*
X24500D01*
X25000Y48700D01*
X34900D01*
X30327Y40327D02*
X33865D01*
X30000Y40000D02*
X30327Y40327D01*
X29524Y40524D02*
X33865D01*
X29000Y40000D02*
X29524Y40524D01*
X28900Y40700D02*
X33900D01*
X28200Y40000D02*
X28900Y40700D01*
X24100Y37800D02*
X24500D01*
X27200Y35100D01*
X35400D02*
X35961Y35661D01*
X25050Y38250D02*
X27900Y35400D01*
X35400D02*
X35568Y35568D01*
X27198Y42098D02*
X33865D01*
X26200Y41100D02*
X27198Y42098D01*
X26495Y42295D02*
X33865D01*
X25700Y41500D02*
X26495Y42295D01*
X25892Y42492D02*
X33865D01*
X25200Y41800D02*
X25892Y42492D01*
X23450Y41750D02*
X23900Y42200D01*
X24700D01*
X25386Y42886D01*
X25280Y43280D02*
X33865D01*
X22500Y42750D02*
X23450D01*
X23850Y42350D02*
X24350D01*
X23450Y42750D02*
X23850Y42350D01*
X24350D02*
X25280Y43280D01*
X23400Y43700D02*
X23800Y43300D01*
X24476Y43476D02*
X33865D01*
X23800Y43300D02*
X24300D01*
X21750Y43250D02*
X22550D01*
X23000Y43700D01*
X23400D01*
X22730Y43750D02*
X22880Y43900D01*
X22500Y43750D02*
X22730D01*
X24300Y43300D02*
X24476Y43476D01*
X23750Y44150D02*
X24884D01*
X24967Y44067D02*
X33865D01*
X22500Y43850D02*
X23400D01*
X23750Y44150D01*
X24884D02*
X24967Y44067D01*
X25136Y44264D02*
X33865D01*
X25100Y44300D02*
X25136Y44264D01*
X23800Y44300D02*
X25100D01*
X23450Y44650D02*
X23800Y44300D01*
X22500Y44750D02*
X22600Y44650D01*
X23450D01*
X25343Y44657D02*
X33865D01*
X21750Y45250D02*
X22650D01*
X23100Y44800D01*
X23500D01*
X23850Y45150D01*
X24850D01*
X25343Y44657D01*
X22400Y45800D02*
X22500Y45700D01*
X25646Y44854D02*
X33865D01*
X22500Y45700D02*
X23500D01*
X23900Y45300D01*
X25200D01*
X25646Y44854D01*
X26449Y45051D02*
X33865D01*
X25350Y46150D02*
X26449Y45051D01*
X23044Y45856D02*
X23556D01*
X22600Y46300D02*
X23044Y45856D01*
X23556D02*
X23850Y46150D01*
X25350D01*
X22600Y46300D02*
Y46700D01*
X27052Y45248D02*
X33865D01*
X21750Y47250D02*
X22650D01*
X23200Y46700D01*
X23500D01*
X23900Y46300D01*
X26000D01*
X27052Y45248D01*
X22400Y47700D02*
X23500D01*
X27255Y45445D02*
X33865D01*
X23500Y47700D02*
X24000Y47200D01*
X25500D01*
X27255Y45445D01*
X26864Y39736D02*
X33865D01*
X23300Y41300D02*
X25300D01*
X26864Y39736D01*
X26657Y39343D02*
X33865D01*
X24000Y40750D02*
X25250D01*
X26657Y39343D01*
X33865Y39539D02*
X34361D01*
X34400Y39000D02*
X34600Y38800D01*
X34400Y39000D02*
Y39500D01*
X34361Y39539D02*
X34400Y39500D01*
X25754Y39146D02*
X33865D01*
X23250Y40250D02*
X24650D01*
X25754Y39146D01*
X23900Y39700D02*
X24500D01*
X25251Y38949D02*
X33865D01*
X24500Y39700D02*
X25251Y38949D01*
X24748Y38752D02*
X33865D01*
X23250Y39250D02*
X24250D01*
X24748Y38752D01*
X24195Y38555D02*
X33865D01*
X24000Y38750D02*
X24195Y38555D01*
X38351Y55440D02*
X39400D01*
X38431Y55360D02*
X39400D01*
X38511Y55280D02*
X39400D01*
X38591Y55200D02*
X39400D01*
X38671Y55120D02*
X39400D01*
X38706Y55040D02*
X39400D01*
X37991Y55800D02*
X39400D01*
X38031Y55760D02*
X39400D01*
X38111Y55680D02*
X39400D01*
X38191Y55600D02*
X39400D01*
X38271Y55520D02*
X39400D01*
X37991Y55800D02*
X38728Y55062D01*
X38626Y54960D02*
X39400D01*
X38546Y54880D02*
X39400D01*
X38466Y54800D02*
X39400D01*
X38386Y54720D02*
X39400D01*
X38306Y54640D02*
X39400D01*
X38226Y54560D02*
X39400D01*
X38146Y54480D02*
X39400D01*
X38066Y54400D02*
X39400D01*
X37986Y54320D02*
X39400D01*
X37906Y54240D02*
X39400D01*
X37826Y54160D02*
X39400D01*
X37746Y54080D02*
X39400D01*
X38480Y55311D02*
Y55800D01*
X38400Y55391D02*
Y55800D01*
X38320Y55471D02*
Y55800D01*
X38720Y55071D02*
Y55800D01*
X38640Y55151D02*
Y55800D01*
X38560Y55231D02*
Y55800D01*
X38080Y55711D02*
Y55800D01*
X37760Y55769D02*
Y55800D01*
X37680Y55689D02*
Y55800D01*
X38240Y55551D02*
Y55800D01*
X38160Y55631D02*
Y55800D01*
X37600Y55609D02*
Y55800D01*
X37520Y55529D02*
Y55800D01*
X37738Y54072D02*
X38728Y55062D01*
X37680Y53182D02*
Y54129D01*
X37600Y53182D02*
Y54209D01*
X37440Y55449D02*
Y55800D01*
X37360Y55369D02*
Y55800D01*
X37280Y55289D02*
Y55800D01*
X37200Y55209D02*
Y55800D01*
X39400Y51400D02*
Y55800D01*
X39360Y51400D02*
Y55800D01*
X39280Y51400D02*
Y55800D01*
X39200Y51400D02*
Y55800D01*
X39120Y51400D02*
Y55800D01*
X39040Y51400D02*
Y55800D01*
X37682Y53120D02*
X39400D01*
X37682Y53040D02*
X39400D01*
X38960Y51400D02*
Y55800D01*
X38880Y51400D02*
Y55800D01*
X38800Y51400D02*
Y55800D01*
X38720Y51400D02*
Y55054D01*
X37682Y52960D02*
X39400D01*
X37682Y52880D02*
X39400D01*
X37682Y52800D02*
X39400D01*
X37682Y52720D02*
X39400D01*
X37682Y52640D02*
X39400D01*
X37682Y52560D02*
X39400D01*
X37682Y52480D02*
X39400D01*
X37682Y52400D02*
X39400D01*
X37682Y52320D02*
X39400D01*
X37682Y52240D02*
X39400D01*
X37682Y52160D02*
X39400D01*
X37682Y52080D02*
X39400D01*
X38640Y51400D02*
Y54974D01*
X38560Y51400D02*
Y54894D01*
X38480Y51400D02*
Y54814D01*
X38400Y51400D02*
Y54734D01*
X38320Y51400D02*
Y54654D01*
X38240Y51400D02*
Y54574D01*
X37360Y53182D02*
Y54449D01*
X37440Y53182D02*
Y54369D01*
X37280Y53182D02*
Y54529D01*
X38160Y51400D02*
Y54494D01*
X38080Y51400D02*
Y54414D01*
X38000Y51400D02*
Y54334D01*
X37920Y51400D02*
Y54254D01*
X37840Y51400D02*
Y54174D01*
X37682Y52018D02*
Y53182D01*
X37760Y51400D02*
Y54094D01*
X37680Y51400D02*
Y52018D01*
X37600Y51400D02*
Y52018D01*
X37520Y53182D02*
Y54289D01*
Y51400D02*
Y52018D01*
X37440Y51400D02*
Y52018D01*
X37360Y51400D02*
Y52018D01*
X37280Y51400D02*
Y52018D01*
X37200Y51400D02*
Y52018D01*
X36000Y55800D02*
X37791D01*
X36000Y55760D02*
X37751D01*
X36000Y55680D02*
X37671D01*
X36900Y54909D02*
X37791Y55800D01*
X36900Y54909D02*
X37738Y54072D01*
X36000Y55600D02*
X37591D01*
X36000Y55520D02*
X37511D01*
X36000Y55440D02*
X37431D01*
X36000Y54400D02*
X37409D01*
X36000Y54240D02*
X37569D01*
X36000Y54160D02*
X37649D01*
X36000Y54320D02*
X37489D01*
X36000Y54000D02*
X39400D01*
X36000Y53920D02*
X39400D01*
X36000Y54080D02*
X37729D01*
X36000Y53840D02*
X39400D01*
X36000Y53760D02*
X39400D01*
X36000Y53680D02*
X39400D01*
X36000Y53600D02*
X39400D01*
X36000Y53520D02*
X39400D01*
X36000Y53440D02*
X39400D01*
X36000Y53360D02*
X39400D01*
X36000Y53280D02*
X39400D01*
X36000Y53200D02*
X39400D01*
X37120Y55129D02*
Y55800D01*
X37040Y55049D02*
Y55800D01*
X36960Y54969D02*
Y55800D01*
X36880Y53182D02*
Y55800D01*
X36800Y53182D02*
Y55800D01*
X36720Y53182D02*
Y55800D01*
X36000Y55360D02*
X37351D01*
X36000Y55280D02*
X37271D01*
X36000Y55200D02*
X37191D01*
X36640Y53182D02*
Y55800D01*
X36000Y55120D02*
X37111D01*
X36560Y53182D02*
Y55800D01*
X36000Y55040D02*
X37031D01*
X37200Y53182D02*
Y54609D01*
X36000Y54960D02*
X36951D01*
X37040Y53182D02*
Y54769D01*
X37120Y53182D02*
Y54689D01*
X36960Y53182D02*
Y54849D01*
X36000Y54800D02*
X37009D01*
X36000Y54720D02*
X37089D01*
X36000Y54880D02*
X36929D01*
X36000Y54560D02*
X37249D01*
X36000Y54480D02*
X37329D01*
X36000Y54640D02*
X37169D01*
X37120Y51400D02*
Y52018D01*
X37040Y51400D02*
Y52018D01*
X36960Y51400D02*
Y52018D01*
X36438Y53182D02*
X37682D01*
X36480D02*
Y55800D01*
X36000Y52000D02*
X39400D01*
X36438Y52018D02*
X37682D01*
X36880Y51400D02*
Y52018D01*
X36000Y51920D02*
X39400D01*
X36000Y51840D02*
X39400D01*
X36800Y51400D02*
Y52018D01*
X36720Y51400D02*
Y52018D01*
X36640Y51400D02*
Y52018D01*
X36560Y51400D02*
Y52018D01*
X36000Y51760D02*
X39400D01*
X36000Y51680D02*
X39400D01*
X36000Y51600D02*
X39400D01*
X36000Y51520D02*
X39400D01*
X36000Y51440D02*
X39400D01*
X36000Y51400D02*
X39400D01*
X36400D02*
Y55800D01*
X36438Y52018D02*
Y53182D01*
X36320Y51400D02*
Y55800D01*
X36240Y51400D02*
Y55800D01*
X36160Y51400D02*
Y55800D01*
X36080Y51400D02*
Y55800D01*
X36000Y53120D02*
X36438D01*
X36000Y53040D02*
X36438D01*
X36000Y52960D02*
X36438D01*
X36000Y51400D02*
Y55800D01*
Y52880D02*
X36438D01*
X36000Y51400D02*
Y55800D01*
Y52800D02*
X36438D01*
X36000Y52720D02*
X36438D01*
X36000Y52640D02*
X36438D01*
X36000Y52560D02*
X36438D01*
X36480Y51400D02*
Y52018D01*
X36000Y52480D02*
X36438D01*
X36000Y52400D02*
X36438D01*
X36000Y52320D02*
X36438D01*
X36000Y52240D02*
X36438D01*
X36000Y52160D02*
X36438D01*
X36000Y52080D02*
X36438D01*
X35600Y58191D02*
Y59000D01*
X35471Y58320D02*
X36200D01*
X35520Y58271D02*
Y59000D01*
X35840Y57951D02*
Y59000D01*
X35760Y58031D02*
Y59000D01*
X35680Y58111D02*
Y59000D01*
X35071Y58720D02*
X36200D01*
X35151Y58640D02*
X36200D01*
X35231Y58560D02*
X36200D01*
X35311Y58480D02*
X36200D01*
X35391Y58400D02*
X36200D01*
X35062Y58728D02*
X35900Y57891D01*
X35711Y58080D02*
X36200D01*
X35791Y58000D02*
X36200D01*
X35871Y57920D02*
X36200D01*
X35849Y57840D02*
X36200D01*
X35769Y57760D02*
X36200D01*
X35689Y57680D02*
X36200D01*
X35551Y58240D02*
X36200D01*
X35631Y58160D02*
X36200D01*
X35609Y57600D02*
X36200D01*
X35529Y57520D02*
X36200D01*
X35449Y57440D02*
X36200D01*
X35200Y58591D02*
Y59000D01*
X35120Y58671D02*
Y59000D01*
X35040Y58706D02*
Y59000D01*
X35440Y58351D02*
Y59000D01*
X35360Y58431D02*
Y59000D01*
X35280Y58511D02*
Y59000D01*
X34960Y58626D02*
Y59000D01*
X34880Y58546D02*
Y59000D01*
X34800Y58466D02*
Y59000D01*
X34720Y58386D02*
Y59000D01*
X34640Y58306D02*
Y59000D01*
X34560Y58226D02*
Y59000D01*
X34480Y58146D02*
Y59000D01*
X34400Y58066D02*
Y59000D01*
X34320Y57986D02*
Y59000D01*
X34240Y57906D02*
Y59000D01*
X34160Y57826D02*
Y59000D01*
X34072Y57738D02*
X35062Y58728D01*
X34080Y57746D02*
Y59000D01*
X36200Y56400D02*
Y59000D01*
X36160Y56400D02*
Y59000D01*
X36080Y56400D02*
Y59000D01*
X36000Y56400D02*
Y59000D01*
X35920Y56400D02*
Y59000D01*
X35840Y56400D02*
Y57831D01*
X34909Y56900D02*
X35900Y57891D01*
X35760Y56400D02*
Y57751D01*
X35680Y56400D02*
Y57671D01*
X35600Y56400D02*
Y57591D01*
X35520Y56400D02*
Y57511D01*
X35369Y57360D02*
X36200D01*
X35289Y57280D02*
X36200D01*
X35209Y57200D02*
X36200D01*
X35440Y56400D02*
Y57431D01*
X35360Y56400D02*
Y57351D01*
X35280Y56400D02*
Y57271D01*
X35129Y57120D02*
X36200D01*
X35049Y57040D02*
X36200D01*
X34969Y56960D02*
X36200D01*
X35200Y56400D02*
Y57191D01*
X35120Y56400D02*
Y57111D01*
X34072Y57738D02*
X34909Y56900D01*
X34160Y56400D02*
Y57649D01*
X34000Y56400D02*
Y59000D01*
X34080Y56400D02*
Y57729D01*
X33920Y56400D02*
Y59000D01*
X33840Y56400D02*
Y59000D01*
X33760Y56400D02*
Y59000D01*
X33680Y56400D02*
Y59000D01*
X33600Y56400D02*
Y59000D01*
X33520Y56400D02*
Y59000D01*
X35040Y56400D02*
Y57031D01*
X34960Y56400D02*
Y56951D01*
X34880Y56400D02*
Y56929D01*
X34720Y56400D02*
Y57089D01*
X34800Y56400D02*
Y57009D01*
X34640Y56400D02*
Y57169D01*
X34480Y56400D02*
Y57329D01*
X34560Y56400D02*
Y57249D01*
X34400Y56400D02*
Y57409D01*
X34320Y56400D02*
Y57489D01*
X34240Y56400D02*
Y57569D01*
X31800Y59000D02*
X36200D01*
X31800Y58960D02*
X36200D01*
X31800Y58880D02*
X36200D01*
X31800Y58800D02*
X36200D01*
X31800Y58720D02*
X35054D01*
X31800Y58640D02*
X34974D01*
X31800Y58560D02*
X34894D01*
X31800Y58480D02*
X34814D01*
X31800Y58400D02*
X34734D01*
X31800Y58320D02*
X34654D01*
X31800Y58240D02*
X34574D01*
X31800Y58160D02*
X34494D01*
X31800Y58080D02*
X34414D01*
X31800Y58000D02*
X34334D01*
X32360Y57200D02*
X34609D01*
X32360Y57120D02*
X34689D01*
X32360Y57280D02*
X34529D01*
X31800Y57920D02*
X34254D01*
X31800Y57520D02*
X34289D01*
X31800Y57600D02*
X34209D01*
X31800Y57360D02*
X34449D01*
X31800Y57440D02*
X34369D01*
X33280Y57061D02*
Y59000D01*
X33200Y57061D02*
Y59000D01*
X33120Y57061D02*
Y59000D01*
X33040Y57061D02*
Y59000D01*
X32960Y57061D02*
Y59000D01*
X32880Y57061D02*
Y59000D01*
X32320Y57339D02*
Y59000D01*
X32240Y57339D02*
Y59000D01*
X32160Y57339D02*
Y59000D01*
X32800Y57061D02*
Y59000D01*
X32720Y57061D02*
Y59000D01*
X32080Y57339D02*
Y59000D01*
X32000Y57339D02*
Y59000D01*
X31920Y57339D02*
Y59000D01*
X31840Y57339D02*
Y59000D01*
X31800Y57840D02*
X34174D01*
X31800Y57680D02*
X34129D01*
X31800Y57760D02*
X34094D01*
X31800Y57339D02*
X32360D01*
X31800D02*
Y59000D01*
X33307Y56960D02*
X34849D01*
X33307Y56880D02*
X36200D01*
X33307Y57040D02*
X34769D01*
X33440Y56400D02*
Y59000D01*
X33360Y56400D02*
Y59000D01*
X33307Y56408D02*
Y57061D01*
X32693D02*
X33307D01*
X32360Y57040D02*
X32693D01*
X32360Y56960D02*
X32693D01*
X32360Y56880D02*
X32693D01*
X33307Y56800D02*
X36200D01*
X33307Y56720D02*
X36200D01*
X33307Y56640D02*
X36200D01*
X33307Y56560D02*
X36200D01*
X33307Y56480D02*
X36200D01*
X32360Y56800D02*
X32693D01*
X32360Y56400D02*
X36200D01*
X32693Y56408D02*
X33307D01*
X32640Y56400D02*
Y59000D01*
X32693Y56408D02*
Y57061D01*
X32360Y57083D02*
Y57339D01*
X32560Y56400D02*
Y59000D01*
X32480Y56400D02*
Y59000D01*
X32400Y56400D02*
Y59000D01*
X32360Y56969D02*
Y57083D01*
Y56969D02*
Y57083D01*
Y56827D02*
Y56969D01*
Y56713D02*
Y56827D01*
Y56720D02*
X32693D01*
X32360Y56640D02*
X32693D01*
X32360Y56713D02*
Y56827D01*
Y56571D02*
Y56713D01*
Y56560D02*
X32693D01*
X32360Y56457D02*
Y56571D01*
Y56457D02*
Y56571D01*
Y56480D02*
X32693D01*
X32360Y56400D02*
Y56457D01*
X21700Y34200D02*
X23300D01*
X21000Y34900D02*
X21700Y34200D01*
X21000Y34900D02*
Y49500D01*
X23300Y34200D02*
X26500Y31000D01*
X41200D01*
X42000Y31800D01*
X21000Y49500D02*
X21750Y50250D01*
X43500Y31800D02*
X43600Y31900D01*
X47700Y35500D02*
Y37500D01*
X45735Y42886D02*
X47014D01*
X20800Y33493D02*
X21100Y33193D01*
X41400Y30800D02*
X42000Y31400D01*
X44200D01*
X48200Y35500D02*
Y37500D01*
X45735Y44657D02*
X47143D01*
X47200Y44600D01*
X20800Y33493D02*
Y50100D01*
D30*
X45301Y44067D02*
X45735D01*
X45301Y40130D02*
X45735D01*
X41670Y47501D02*
Y47935D01*
X37536Y47501D02*
Y47935D01*
X42064Y36065D02*
Y36499D01*
Y35631D02*
Y36065D01*
X37930D02*
Y36499D01*
Y35631D02*
Y36065D01*
X33865Y43870D02*
X34299D01*
X33431D02*
X33865D01*
Y39933D02*
X34299D01*
X33431D02*
X33865D01*
X36509Y32700D02*
X36973D01*
X36509D02*
Y33203D01*
X36046Y32700D02*
X36509D01*
Y32197D02*
Y32700D01*
X34981Y33000D02*
X35287D01*
X34981D02*
Y33188D01*
X34675Y33000D02*
X34981D01*
Y32812D02*
Y33000D01*
X40095Y47495D02*
Y47935D01*
X39200Y47300D02*
X39900D01*
X40095Y47495D01*
X55000Y53600D02*
X55248Y53848D01*
X55627D01*
X55146Y53454D02*
X55627D01*
X55239Y53061D02*
X55627D01*
X55051Y53651D02*
X55627D01*
X55000Y53600D02*
X55146Y53454D01*
X55000Y53300D02*
Y53600D01*
Y53300D02*
X55239Y53061D01*
X55300Y42400D02*
X56400Y43500D01*
X49300Y42400D02*
X55300D01*
X58200Y43500D02*
X58300Y43400D01*
X60883Y42573D02*
Y42987D01*
X60370Y43500D02*
X60883Y42987D01*
X45735Y41902D02*
X48802D01*
X56400Y43500D02*
X58200D01*
X61670Y54773D02*
Y55130D01*
X61400Y55300D02*
X61500D01*
X61670Y55130D01*
Y42573D02*
Y43021D01*
X61300Y43300D02*
Y44065D01*
X61276Y42573D02*
Y42924D01*
X61100Y43100D02*
X61591D01*
X61100D02*
X61300Y43300D01*
X61100Y43100D02*
X61276Y42924D01*
X61591Y43100D02*
X61670Y43021D01*
X55000Y41400D02*
X55248Y41648D01*
X55627D01*
X55051Y41451D02*
X55627D01*
X55146Y41254D02*
X55627D01*
X55000Y41400D02*
X55146Y41254D01*
X55039Y40861D02*
X55627D01*
X55000Y40900D02*
Y41400D01*
Y40900D02*
X55039Y40861D01*
X59111Y54211D02*
Y54773D01*
X31291Y34100D02*
X31900D01*
X31291Y33409D02*
Y34100D01*
X29500D02*
X30109D01*
X28991Y47600D02*
X29700D01*
X29300Y47100D02*
X29700D01*
X28991Y47409D02*
Y47600D01*
Y47409D02*
X29300Y47100D01*
X27200Y47600D02*
X27809D01*
X26435Y58200D02*
X27000D01*
X25765Y56265D02*
Y58200D01*
X21650Y51250D02*
X21750D01*
X23547Y54047D02*
X25765Y56265D01*
X21847Y54047D02*
X23547D01*
X21200Y53400D02*
X21847Y54047D01*
X21200Y51700D02*
Y53400D01*
Y51700D02*
X21650Y51250D01*
X54700Y34700D02*
X56700D01*
X44623Y35277D02*
X45000Y34900D01*
X54500D02*
X54700Y34700D01*
X56749Y34227D02*
Y34651D01*
X44623Y35277D02*
Y36065D01*
X45000Y34900D02*
X54500D01*
X57536Y45336D02*
Y46427D01*
X47000Y44264D02*
X48164D01*
X60883Y54773D02*
Y55217D01*
X60400Y55700D02*
X60883Y55217D01*
X56900Y55600D02*
X57000Y55700D01*
X42251Y50351D02*
X44400Y52500D01*
X56300Y39500D02*
Y40000D01*
X56200Y39900D02*
X56300D01*
X56176Y39876D02*
X56200Y39900D01*
Y39400D02*
X56300Y39500D01*
X56117Y39483D02*
X56200Y39400D01*
X55627Y39876D02*
X56176D01*
X55627Y40270D02*
X56030D01*
X55627Y39483D02*
X56117D01*
X59111Y42011D02*
Y42573D01*
X56946D02*
Y43146D01*
X62900Y45700D02*
X65800D01*
X59900Y45300D02*
X62500D01*
X57900Y43200D02*
X57930Y43170D01*
Y42573D02*
Y43170D01*
X62500Y45300D02*
X62900Y45700D01*
X58127Y56027D02*
X58700Y56600D01*
X58127Y54773D02*
Y56027D01*
X59700Y56500D02*
X67600D01*
X57930Y56430D02*
X58000Y56500D01*
X57930Y54773D02*
Y56430D01*
X67100Y52400D02*
X67600D01*
X64800Y50100D02*
X67100Y52400D01*
X61800Y50100D02*
X63100D01*
X57143Y53357D02*
Y54773D01*
X59500Y52900D02*
X60900Y51500D01*
X57600Y52900D02*
X59500D01*
X57143Y53357D02*
X57600Y52900D01*
X56800Y54100D02*
X56946Y54246D01*
Y54773D01*
X66300Y53500D02*
X67600D01*
X64600Y53100D02*
X65900D01*
X57339Y53661D02*
Y54773D01*
X57900Y53100D02*
X62400D01*
X57339Y53661D02*
X57900Y53100D01*
X65900D02*
X66300Y53500D01*
X63800Y54500D02*
X67600D01*
X57536Y54205D02*
Y54773D01*
Y54205D02*
X57942Y53800D01*
X63100D01*
X63800Y54500D01*
X59700Y56100D02*
X66400D01*
X67000Y55500D02*
X67600D01*
X57600Y56100D02*
X57733Y55967D01*
Y54773D02*
Y55967D01*
X66400Y56100D02*
X67000Y55500D01*
X58800Y57835D02*
X61100D01*
X59165D02*
X59300Y57700D01*
Y56300D02*
Y57700D01*
X58914Y55914D02*
X59300Y56300D01*
X58914Y54773D02*
Y55914D01*
X58335Y57165D02*
X58800D01*
X55200Y55600D02*
X56900D01*
X60000Y57165D02*
X61100D01*
X59735Y44735D02*
X62600D01*
X58914Y42573D02*
Y43914D01*
X62600Y43400D02*
Y44065D01*
X62300Y43100D02*
X62600Y43400D01*
X62300Y43100D02*
X62457Y42943D01*
Y42573D02*
Y42943D01*
X62200Y43100D02*
X62300D01*
X62064Y42573D02*
Y42964D01*
X60292Y43092D02*
X60300Y43100D01*
X60292Y42573D02*
Y43092D01*
X60000Y43300D02*
Y44065D01*
X60200Y43100D02*
X60300D01*
X60000Y43300D02*
X60200Y43100D01*
X58914Y43914D02*
X59735Y44735D01*
X64593Y51880D02*
X65200Y51273D01*
X63973Y51880D02*
X64593D01*
X60200Y50400D02*
X62800D01*
X56600Y48700D02*
X58500D01*
X42800D02*
X42851Y48649D01*
Y47935D02*
Y48649D01*
X58500Y48700D02*
X60200Y50400D01*
X55627Y47155D02*
X56255D01*
X51700Y50200D02*
X52065D01*
X51400Y49900D02*
X51700Y50200D01*
X40686Y48686D02*
X41100Y49100D01*
X40686Y47935D02*
Y48686D01*
X49800Y50200D02*
X50265D01*
X40292Y48892D02*
X40900Y49500D01*
X40292Y47935D02*
Y48892D01*
X47900Y50200D02*
X48465D01*
X39898Y49198D02*
X40500Y49800D01*
X39898Y47935D02*
Y49198D01*
X45900Y50200D02*
X46665D01*
X39702Y49702D02*
X40200Y50200D01*
X39702Y47935D02*
Y49702D01*
X47335Y50200D02*
Y50635D01*
X49135Y50235D02*
X49500Y50600D01*
X49135Y50200D02*
Y50235D01*
X51000Y50200D02*
X51400Y50600D01*
X50935Y50200D02*
X51000D01*
X52735D02*
X53300D01*
X67900Y33000D02*
Y35000D01*
X38520Y34780D02*
Y35980D01*
X34367Y39933D02*
X34500Y39800D01*
X33865Y39933D02*
X34367D01*
X64676Y52076D02*
X64700Y52100D01*
X63973Y52076D02*
X64676D01*
X61900Y51600D02*
X62900D01*
X56600Y51000D02*
X61300D01*
X54200Y51500D02*
X54700Y52000D01*
X43048Y47935D02*
Y49748D01*
X61300Y51000D02*
X61900Y51600D01*
X44800Y51500D02*
X54200D01*
X43048Y49748D02*
X44800Y51500D01*
X61276Y54773D02*
Y55324D01*
X52100Y52500D02*
X55200Y55600D01*
X44400Y52500D02*
X52100D01*
X56749Y54773D02*
Y55151D01*
X42457Y47935D02*
Y49957D01*
X56500Y55400D02*
X56749Y55151D01*
X55400Y55400D02*
X56500D01*
X52200Y52200D02*
X55400Y55400D01*
X44700Y52200D02*
X52200D01*
X42457Y49957D02*
X44700Y52200D01*
X44889Y51289D02*
X55627D01*
X43245Y47935D02*
Y49645D01*
X44889Y51289D01*
X45892Y51092D02*
X55627D01*
X43639Y47935D02*
Y48839D01*
X45892Y51092D01*
X46095Y50895D02*
X55627D01*
X44032Y47935D02*
Y48832D01*
X46095Y50895D01*
X45117Y49517D02*
X55627D01*
X44229Y47935D02*
Y48629D01*
X45117Y49517D01*
X54120Y49320D02*
X55627D01*
X44426Y47935D02*
Y48526D01*
X44800Y48900D01*
X53700D01*
X54120Y49320D01*
X54224Y49124D02*
X55627D01*
X44623Y47935D02*
Y48423D01*
X53800Y48700D02*
X54224Y49124D01*
X44900Y48700D02*
X53800D01*
X44623Y48423D02*
X44900Y48700D01*
X54433Y48533D02*
X55627D01*
X45735Y46626D02*
X52526D01*
X54433Y48533D01*
X54536Y48336D02*
X55627D01*
X52629Y46429D02*
X54536Y48336D01*
X45735Y46429D02*
X52629D01*
X54546Y47746D02*
X55627D01*
X45735Y46232D02*
X53032D01*
X54546Y47746D01*
X54749Y47549D02*
X55627D01*
X45735Y45642D02*
X46742D01*
X53100Y45900D02*
X54749Y47549D01*
X47000Y45900D02*
X53100D01*
X46742Y45642D02*
X47000Y45900D01*
X55052Y47352D02*
X55627D01*
X45735Y45445D02*
X46945D01*
X47200Y45700D01*
X53400D01*
X55052Y47352D01*
X56749Y45749D02*
Y46427D01*
X45735Y45248D02*
X47748D01*
X56400Y45400D02*
X56749Y45749D01*
X47900Y45400D02*
X56400D01*
X47748Y45248D02*
X47900Y45400D01*
X57143Y45743D02*
Y46427D01*
X45735Y45051D02*
X47951D01*
X48100Y45200D01*
X56600D01*
X57143Y45743D01*
X57339Y45539D02*
Y46427D01*
X45735Y44854D02*
X48254D01*
X56800Y45000D02*
X57339Y45539D01*
X48400Y45000D02*
X56800D01*
X48254Y44854D02*
X48400Y45000D01*
X48164Y44264D02*
X48700Y44800D01*
X57000D01*
X57536Y45336D01*
X58127Y45327D02*
Y46427D01*
X45735Y43673D02*
X48473D01*
X57400Y44600D02*
X58127Y45327D01*
X49400Y44600D02*
X57400D01*
X48473Y43673D02*
X49400Y44600D01*
X58717Y45417D02*
Y46427D01*
X45735Y43476D02*
X48576D01*
X49500Y44400D01*
X57700D01*
X58717Y45417D01*
X58914Y45314D02*
Y46427D01*
X45735Y43280D02*
X48680D01*
X57800Y44200D02*
X58914Y45314D01*
X49600Y44200D02*
X57800D01*
X48680Y43280D02*
X49600Y44200D01*
X45289Y42689D02*
X45735D01*
X45000Y42400D02*
X45289Y42689D01*
X59111Y45111D02*
Y46427D01*
X45735Y42492D02*
X48292D01*
X49700Y43900D01*
X57900D01*
X59111Y45111D01*
X59308Y44908D02*
Y46427D01*
X49800Y43700D02*
X58100D01*
X45735Y42295D02*
X48395D01*
X58100Y43700D02*
X59308Y44908D01*
X48395Y42295D02*
X49800Y43700D01*
X59308Y32908D02*
Y34227D01*
X42457Y33643D02*
Y36065D01*
X58000Y31600D02*
X59308Y32908D01*
X44500Y31600D02*
X58000D01*
X42457Y33643D02*
X44500Y31600D01*
X59111Y33011D02*
Y34227D01*
X42851Y33649D02*
Y36065D01*
Y33649D02*
X44700Y31800D01*
X57900D01*
X59111Y33011D01*
X58914Y33114D02*
Y34227D01*
X43048Y33952D02*
Y36065D01*
X57800Y32000D02*
X58914Y33114D01*
X45000Y32000D02*
X57800D01*
X43048Y33952D02*
X45000Y32000D01*
X58717Y33417D02*
Y34227D01*
X43245Y34155D02*
Y36065D01*
Y34155D02*
X45200Y32200D01*
X57500D01*
X58717Y33417D01*
X58127Y33127D02*
Y34227D01*
X43442Y34258D02*
Y36065D01*
X57700Y32700D02*
X58127Y33127D01*
X45000Y32700D02*
X57700D01*
X43442Y34258D02*
X45000Y32700D01*
X57536Y33336D02*
Y34227D01*
X43639Y34361D02*
Y36065D01*
Y34361D02*
X45100Y32900D01*
X57100D01*
X57536Y33336D01*
X57339Y33439D02*
Y34227D01*
X44032Y34468D02*
Y36065D01*
X57100Y33200D02*
X57339Y33439D01*
X45300Y33200D02*
X57100D01*
X44032Y34468D02*
X45300Y33200D01*
X57143Y33543D02*
Y34227D01*
X44426Y34474D02*
Y36065D01*
Y34474D02*
X45500Y33400D01*
X57000D01*
X57143Y33543D01*
X45700Y41500D02*
X53400D01*
X56946Y34227D02*
Y38754D01*
X53400Y41500D02*
X54700Y40200D01*
X56155Y34955D02*
X56300Y35100D01*
X55627Y34955D02*
X56155D01*
X56127Y34227D02*
X56355D01*
X56700Y34700D02*
X56749Y34651D01*
X44820Y35480D02*
Y36065D01*
X45148Y35152D02*
X55627D01*
X44820Y35480D02*
X45148Y35152D01*
X52551Y35349D02*
X55627D01*
X45735Y37768D02*
X50132D01*
X52551Y35349D01*
X52954Y35546D02*
X55627D01*
X45735Y37965D02*
X50535D01*
X52954Y35546D01*
X53464Y36136D02*
X55627D01*
X45735Y38555D02*
X51045D01*
X53464Y36136D01*
X53867Y36333D02*
X55627D01*
X45735Y38752D02*
X51448D01*
X53867Y36333D01*
X53676Y36924D02*
X55627D01*
X45735Y38949D02*
X51651D01*
X53676Y36924D01*
X53880Y37120D02*
X55627D01*
X45735Y39146D02*
X51854D01*
X53880Y37120D01*
X54183Y37317D02*
X55627D01*
X45735Y39343D02*
X52157D01*
X54183Y37317D01*
X53805Y38695D02*
X55627D01*
X45735Y39736D02*
X52764D01*
X53805Y38695D01*
X54508Y38892D02*
X55627D01*
X45735Y40720D02*
X52680D01*
X54508Y38892D01*
X54700Y39100D02*
X55700D01*
X45735Y41114D02*
X52686D01*
X54700Y39100D01*
X48802Y41902D02*
X49300Y42400D01*
X56749Y42149D02*
Y42573D01*
X45735Y41705D02*
X49005D01*
X49400Y42100D01*
X56700D01*
X56749Y42149D01*
X55627Y41845D02*
X56055D01*
X56300Y41600D01*
X34430Y40130D02*
X34500Y40200D01*
X33865Y40130D02*
X34430D01*
X33865Y40917D02*
X34417D01*
X33865Y38358D02*
X34442D01*
X34500Y38300D01*
X33439Y38161D02*
X33865D01*
X33300Y38300D02*
X33439Y38161D01*
X34780Y36065D02*
Y36120D01*
X34600Y36300D02*
X34780Y36120D01*
X35765Y36065D02*
Y36865D01*
X36158Y36065D02*
Y36642D01*
X37339Y35539D02*
Y36065D01*
X37900Y36700D02*
X37930Y36670D01*
Y36065D02*
Y36670D01*
X39500Y35600D02*
Y36100D01*
X39400Y35500D02*
X39500Y35600D01*
X39111Y36511D02*
X39300Y36700D01*
X39111Y36065D02*
Y36511D01*
X40700Y36700D02*
X40883Y36517D01*
Y36065D02*
Y36517D01*
X42064Y36065D02*
Y36636D01*
X42654Y36065D02*
Y36654D01*
X45261Y38161D02*
X45735D01*
X45100Y38000D02*
X45261Y38161D01*
X45100Y37400D02*
X45323Y37177D01*
X45271Y37571D02*
X45735D01*
X45323Y37177D02*
X45735D01*
X45100Y37400D02*
X45271Y37571D01*
X45126Y37374D02*
X45735D01*
X45242Y38358D02*
X45735D01*
X45000Y38600D02*
X45242Y38358D01*
X45230Y40130D02*
X45735D01*
X45100Y40000D02*
X45230Y40130D01*
X45273Y40327D02*
X45735D01*
X45100Y40500D02*
X45273Y40327D01*
X45289Y41311D02*
X45735D01*
X45100Y41500D02*
X45289Y41311D01*
X45183Y43083D02*
X45735D01*
X45100Y43000D02*
X45183Y43083D01*
X45130Y43870D02*
X45735D01*
X45333Y44067D02*
X45735D01*
X44900Y44500D02*
X45333Y44067D01*
X46165Y46035D02*
X46300Y45900D01*
X45735Y46035D02*
X46165D01*
X45161Y45839D02*
X45735D01*
X43442Y47442D02*
Y47935D01*
X43100Y47300D02*
X43300D01*
X43442Y47442D01*
X43835Y47335D02*
Y47935D01*
X41670Y47330D02*
Y47935D01*
X40489Y47389D02*
Y47935D01*
X40400Y47300D02*
X40489Y47389D01*
X38717Y47317D02*
Y47935D01*
X33865Y47020D02*
X34480D01*
X34370Y43870D02*
X34600Y44100D01*
X33865Y43870D02*
X34370D01*
X34327Y43673D02*
X34500Y43500D01*
X33865Y43673D02*
X34327D01*
X33865Y43083D02*
X34317D01*
X34500Y42900D01*
X33865Y45642D02*
X34442D01*
X33439Y45839D02*
X33865D01*
X33300Y45700D02*
X33439Y45839D01*
X63245Y42145D02*
Y42573D01*
X63000Y41900D02*
X63245Y42145D01*
X62851Y42049D02*
X63000Y41900D01*
X62851Y42049D02*
Y42573D01*
X62900Y43200D02*
X63048Y43052D01*
Y42573D02*
Y43052D01*
X62654Y42954D02*
X62900Y43200D01*
X62654Y42573D02*
Y42954D01*
X62261Y41961D02*
Y42573D01*
X62239Y41961D02*
X62261D01*
X62064Y42964D02*
X62200Y43100D01*
X61867Y42573D02*
Y43167D01*
X61473Y42027D02*
Y42573D01*
Y42027D02*
X61600Y41900D01*
X61200D02*
X61600D01*
X61080Y42020D02*
Y42573D01*
Y42020D02*
X61200Y41900D01*
X60489Y41911D02*
Y42573D01*
Y41911D02*
X60500Y41900D01*
X59505Y42095D02*
Y42573D01*
Y42095D02*
X59600Y42000D01*
X59300Y43100D02*
X59308Y43092D01*
Y42573D02*
Y43092D01*
X58717Y42117D02*
Y42573D01*
X58600Y42000D02*
X58717Y42117D01*
X58520Y42080D02*
Y42573D01*
Y42080D02*
X58600Y42000D01*
X56027Y42573D02*
X56355D01*
X63345Y34955D02*
X63973D01*
X63300Y35000D02*
X63345Y34955D01*
X63451Y35349D02*
X63973D01*
X64500Y35300D02*
Y35400D01*
X64354Y35546D02*
X64500Y35400D01*
X64352Y35152D02*
X64500Y35300D01*
X63973Y35546D02*
X64354D01*
X63973Y35152D02*
X64352D01*
X63424Y36924D02*
X63973D01*
X64383Y37317D02*
X64500Y37200D01*
X63973Y37317D02*
X64383D01*
X64420Y37120D02*
X64500Y37200D01*
X63973Y37120D02*
X64420D01*
X63402Y38302D02*
X63973D01*
X63300Y38200D02*
X63402Y38302D01*
X63973Y38695D02*
X64405D01*
X64500Y38600D01*
X64398Y38498D02*
X64500Y38600D01*
X63973Y38498D02*
X64398D01*
X63408Y38892D02*
X63973D01*
Y39286D02*
X64586D01*
X64436Y40664D02*
X64600Y40500D01*
X63973Y40664D02*
X64436D01*
X64370Y40270D02*
X64600Y40500D01*
X63973Y40270D02*
X64370D01*
X63461Y40861D02*
X63973D01*
X63433Y40833D02*
X63461Y40861D01*
X63433Y40467D02*
X63973D01*
X63433D02*
Y40833D01*
X63443Y41057D02*
X63973D01*
X63351Y41451D02*
X63973D01*
X63200Y41300D02*
X63351Y41451D01*
X63200Y41300D02*
X63443Y41057D01*
X64455Y41845D02*
X64500Y41800D01*
X63973Y41845D02*
X64455D01*
X64452Y41648D02*
X64500Y41600D01*
X63973Y41648D02*
X64452D01*
X64500Y41400D02*
Y41800D01*
X64354Y41254D02*
X64500Y41400D01*
X63973Y41254D02*
X64354D01*
X63245Y34227D02*
X63527D01*
X62654Y33754D02*
Y34227D01*
X62600Y33700D02*
X62654Y33754D01*
X62400Y33700D02*
X62600D01*
X62261Y33839D02*
Y34227D01*
Y33839D02*
X62400Y33700D01*
X62300Y34800D02*
X62457Y34643D01*
X61900Y34800D02*
X62300D01*
X62457Y34227D02*
Y34643D01*
X61900Y34800D02*
X62064Y34636D01*
Y34227D02*
Y34636D01*
X61080Y33820D02*
Y34227D01*
Y33820D02*
X61300Y33600D01*
X60883Y33783D02*
Y34227D01*
X60800Y33700D02*
X60883Y33783D01*
X60686Y34586D02*
X60900Y34800D01*
X60686Y34227D02*
Y34586D01*
X60489Y33789D02*
Y34227D01*
X60400Y33700D02*
X60489Y33789D01*
X59898Y33798D02*
Y34227D01*
X59800Y33700D02*
X59898Y33798D01*
X59800Y33700D02*
X60400D01*
X59702Y34227D02*
Y34798D01*
X58520Y33820D02*
Y34227D01*
X58400Y33700D02*
X58520Y33820D01*
X58324Y34724D02*
X58400Y34800D01*
X58324Y34227D02*
Y34724D01*
X57930Y33830D02*
Y34227D01*
X57800Y33700D02*
X57930Y33830D01*
X57733Y34733D02*
X57900Y34900D01*
X57733Y34227D02*
Y34733D01*
X56552Y33852D02*
Y34227D01*
X56400Y33700D02*
X56552Y33852D01*
X55100Y35900D02*
X55257Y35743D01*
X55627D01*
Y35939D02*
X56139D01*
X55170Y36530D02*
X55627D01*
X55100Y36600D02*
X55170Y36530D01*
X55627Y36727D02*
X56173D01*
X56086Y37514D02*
X56200Y37400D01*
X55627Y37514D02*
X56086D01*
X55627Y37908D02*
X56092D01*
X56200Y37800D01*
Y38300D02*
X56300Y38200D01*
X56098Y38302D02*
X56200Y38200D01*
X55627Y38302D02*
X56098D01*
X55198Y38498D02*
X55627D01*
X55095Y38105D02*
X55627D01*
X55000Y38300D02*
X55198Y38498D01*
X55189Y37711D02*
X55627D01*
X55000Y37900D02*
X55189Y37711D01*
X55000Y37900D02*
Y38300D01*
Y38200D02*
X55095Y38105D01*
X55180Y39680D02*
X55627D01*
X55114Y39286D02*
X55627D01*
X55000Y39500D02*
X55180Y39680D01*
X55000Y39400D02*
X55114Y39286D01*
X56030Y40270D02*
X56300Y40000D01*
X55167Y40467D02*
X55627D01*
X55227Y40073D02*
X55627D01*
X55100Y40400D02*
X55167Y40467D01*
X55100Y40200D02*
X55227Y40073D01*
X55100Y40200D02*
Y40400D01*
X56143Y41057D02*
X56400Y40800D01*
X55627Y41057D02*
X56143D01*
X56225Y40664D02*
X56381Y40819D01*
X55627Y40664D02*
X56225D01*
X56027Y54773D02*
X56355D01*
X58717Y54317D02*
Y54773D01*
X58600Y54200D02*
X58717Y54317D01*
X58520Y54280D02*
X58600Y54200D01*
X58520Y54280D02*
Y54773D01*
X59300Y55300D02*
X59308Y55292D01*
Y54773D02*
Y55292D01*
X59505Y54295D02*
X59600Y54200D01*
X59505Y54295D02*
Y54773D01*
X60292Y55292D02*
X60300Y55300D01*
X60292Y54773D02*
Y55292D01*
X60489Y54111D02*
Y54773D01*
Y54111D02*
X60500Y54100D01*
X61473Y54227D02*
Y54773D01*
Y54227D02*
X61600Y54100D01*
X61080Y54220D02*
Y54773D01*
X61200Y54100D02*
X61600D01*
X61080Y54220D02*
X61200Y54100D01*
X62261Y54161D02*
Y54773D01*
X62239Y54161D02*
X62261D01*
X62300Y55300D02*
X62457Y55143D01*
Y54773D02*
Y55143D01*
X62200Y55300D02*
X62300D01*
X62064Y54773D02*
Y55164D01*
X62200Y55300D01*
X61867Y54773D02*
Y55367D01*
X63245Y54345D02*
Y54773D01*
X63000Y54100D02*
X63245Y54345D01*
X62851Y54249D02*
Y54773D01*
Y54249D02*
X63000Y54100D01*
X62900Y55400D02*
X63048Y55252D01*
Y54773D02*
Y55252D01*
X62654Y55154D02*
X62900Y55400D01*
X62654Y54773D02*
Y55154D01*
X64500Y53600D02*
Y54000D01*
X64452Y53848D02*
X64500Y53800D01*
X63973Y54045D02*
X64455D01*
X63973Y53848D02*
X64452D01*
X64354Y53454D02*
X64500Y53600D01*
X63973Y53454D02*
X64354D01*
X64455Y54045D02*
X64500Y54000D01*
X63351Y53651D02*
X63973D01*
X63443Y53257D02*
X63973D01*
X63200Y53500D02*
X63351Y53651D01*
X63200Y53500D02*
X63443Y53257D01*
X63461Y53061D02*
X63973D01*
X63433Y52667D02*
Y53033D01*
Y52667D02*
X63973D01*
X63573Y52273D02*
X63973D01*
X63417Y51683D02*
X63973D01*
X63200Y51900D02*
X63573Y52273D01*
X63200Y51900D02*
X63417Y51683D01*
X63433Y53033D02*
X63461Y53061D01*
X64436Y52864D02*
X64600Y52700D01*
X63973Y52864D02*
X64436D01*
X64370Y52470D02*
X64600Y52700D01*
X63973Y52470D02*
X64370D01*
X63973Y51486D02*
X64586D01*
X63408Y51092D02*
X63973D01*
X64405Y50895D02*
X64500Y50800D01*
X63973Y50895D02*
X64405D01*
X64398Y50698D02*
X64500Y50800D01*
X63973Y50698D02*
X64398D01*
X63402Y50502D02*
X63973D01*
X63300Y50400D02*
X63402Y50502D01*
X64383Y49517D02*
X64500Y49400D01*
X63973Y49517D02*
X64383D01*
X64420Y49320D02*
X64500Y49400D01*
X63973Y49320D02*
X64420D01*
X63424Y49124D02*
X63973D01*
X64500Y47500D02*
Y47600D01*
X64352Y47352D02*
X64500Y47500D01*
X63973Y47746D02*
X64354D01*
X63973Y47352D02*
X64352D01*
X64354Y47746D02*
X64500Y47600D01*
X63451Y47549D02*
X63973D01*
X63345Y47155D02*
X63973D01*
X63300Y47200D02*
X63345Y47155D01*
X63245Y46427D02*
X63527D01*
X62654Y45954D02*
Y46427D01*
X62400Y45900D02*
X62600D01*
X62261Y46039D02*
Y46427D01*
Y46039D02*
X62400Y45900D01*
X62600D02*
X62654Y45954D01*
X62457Y46427D02*
Y46843D01*
X62064Y46427D02*
Y46836D01*
X61900Y47000D02*
X62300D01*
X61900D02*
X62064Y46836D01*
X62300Y47000D02*
X62457Y46843D01*
X61080Y46020D02*
Y46427D01*
Y46020D02*
X61300Y45800D01*
X60883Y45983D02*
Y46427D01*
X60800Y45900D02*
X60883Y45983D01*
X60686Y46786D02*
X60900Y47000D01*
X60686Y46427D02*
Y46786D01*
X59898Y45998D02*
Y46427D01*
X60489Y45989D02*
Y46427D01*
X59800Y45900D02*
X60400D01*
X59800D02*
X59898Y45998D01*
X60400Y45900D02*
X60489Y45989D01*
X59702Y46427D02*
Y46998D01*
X58520Y46020D02*
Y46427D01*
X58400Y45900D02*
X58520Y46020D01*
X58324Y46924D02*
X58400Y47000D01*
X58324Y46427D02*
Y46924D01*
X57930Y46030D02*
Y46427D01*
X57800Y45900D02*
X57930Y46030D01*
X57733Y46933D02*
X57900Y47100D01*
X57733Y46427D02*
Y46933D01*
X56552Y46052D02*
Y46427D01*
X56400Y45900D02*
X56552Y46052D01*
X55257Y47943D02*
X55627D01*
X55100Y48100D02*
X55257Y47943D01*
X55170Y48730D02*
X55627D01*
X55100Y48800D02*
X55170Y48730D01*
X55627Y48139D02*
X56139D01*
X56086Y49714D02*
X56200Y49600D01*
X55627Y48927D02*
X56173D01*
X55627Y49714D02*
X56086D01*
X56092Y50108D02*
X56200Y50000D01*
X55627Y50108D02*
X56092D01*
X56200Y50500D02*
X56300Y50400D01*
X56098Y50502D02*
X56200Y50400D01*
X55627Y50502D02*
X56098D01*
X55000Y50100D02*
Y50500D01*
X55198Y50698D02*
X55627D01*
X55095Y50305D02*
X55627D01*
X55189Y49911D02*
X55627D01*
X55000Y50400D02*
X55095Y50305D01*
X55000Y50100D02*
X55189Y49911D01*
X55000Y50500D02*
X55198Y50698D01*
X56300Y51700D02*
Y52200D01*
X56200Y51600D02*
X56300Y51700D01*
X55627Y51683D02*
X56117D01*
X55627Y52470D02*
X56030D01*
X56117Y51683D02*
X56200Y51600D01*
X56176Y52076D02*
X56200Y52100D01*
X55627Y52076D02*
X56176D01*
X56030Y52470D02*
X56300Y52200D01*
X55167Y52667D02*
X55627D01*
X55227Y52273D02*
X55627D01*
X55100Y52600D02*
X55167Y52667D01*
X55100Y52400D02*
Y52600D01*
Y52400D02*
X55227Y52273D01*
X55180Y51880D02*
X55627D01*
X55000Y51700D02*
X55180Y51880D01*
X55114Y51486D02*
X55627D01*
X55000Y51600D02*
X55114Y51486D01*
X56143Y53257D02*
X56400Y53000D01*
X55627Y53257D02*
X56143D01*
X56225Y52864D02*
X56381Y53019D01*
X55627Y52864D02*
X56225D01*
X55627Y54045D02*
X56355D01*
X37814Y54986D02*
X38281Y55453D01*
X37814Y54986D02*
X38205Y54595D01*
X37424Y55376D02*
X37814Y54986D01*
X37347Y54519D02*
X37814Y54986D01*
X37060Y52600D02*
Y53142D01*
Y52600D02*
X37642D01*
X37060Y52058D02*
Y52600D01*
X36478D02*
X37060D01*
X34986Y57814D02*
X35453Y58281D01*
X34986Y57814D02*
X35376Y57424D01*
X34595Y58205D02*
X34986Y57814D01*
X34519Y57347D02*
X34986Y57814D01*
X31950Y57154D02*
Y57299D01*
Y57154D02*
X32320D01*
X33000Y56735D02*
Y57021D01*
Y56735D02*
X33267D01*
X32733D02*
X33000D01*
Y56448D02*
Y56735D01*
X31950Y56898D02*
X32320D01*
X31950Y56642D02*
X32320D01*
X31950Y56386D02*
X32320D01*
X38324Y34476D02*
Y36065D01*
Y34476D02*
X39100Y33700D01*
X66100Y31200D02*
X67900Y33000D01*
X70600Y37700D02*
Y40300D01*
X67900Y35000D02*
X70600Y37700D01*
X45900Y31000D02*
X64200D01*
X38520Y34780D02*
X38767Y34533D01*
D31*
X66000Y49091D02*
X66691D01*
X66000Y47200D02*
Y47909D01*
X66200Y35991D02*
Y36600D01*
Y34200D02*
Y34809D01*
X47400Y47600D02*
X48009D01*
X49191Y47009D02*
Y47600D01*
X50709Y47009D02*
Y47600D01*
X50100D02*
X50709D01*
X51891D02*
X52600D01*
X48909Y35809D02*
Y36500D01*
X50091D02*
X50800D01*
X50091Y35809D02*
Y36500D01*
X51900Y34100D02*
X52509D01*
X53691D02*
X54300D01*
X48300D02*
X48909D01*
X50000Y34000D02*
X50700D01*
D32*
X37691Y32700D02*
X38400D01*
X33248Y32252D02*
X33800D01*
X33226Y32626D02*
X33800D01*
X33200Y33000D02*
X33800D01*
X35474Y32700D02*
X36509D01*
X35313Y33000D02*
X35474Y32700D01*
X34894Y33000D02*
X35313D01*
X64200Y31000D02*
X67000Y33800D01*
Y37000D01*
X71047Y42347D02*
Y42750D01*
X73574Y41500D02*
Y42274D01*
X75000Y43700D02*
X75800D01*
X71047Y43250D02*
X71550D01*
X72600Y42200D02*
X73574D01*
X71550Y43250D02*
X72600Y42200D01*
X73065Y37035D02*
Y37600D01*
X73600Y40700D02*
X75800D01*
X71474Y40300D02*
X73200D01*
X73600Y40700D01*
X73674Y39200D02*
Y40074D01*
X72926Y38474D02*
X73700Y37700D01*
X72926Y38474D02*
Y39200D01*
X74935Y38800D02*
X75800D01*
X73735Y37600D02*
X74935Y38800D01*
X69600Y46800D02*
X70209D01*
X70465Y44865D02*
Y45400D01*
X71391Y45656D02*
Y46800D01*
Y45900D02*
X71800D01*
X71135Y45400D02*
X71391Y45656D01*
X71135Y44338D02*
Y45400D01*
X71047Y44250D02*
X71135Y44338D01*
X75100Y45400D02*
X75800Y44700D01*
X73874Y45400D02*
X75100D01*
X73126Y44674D02*
X73153Y44647D01*
X73126Y44674D02*
Y45400D01*
X73153Y44250D02*
Y44647D01*
X72650Y43750D02*
X73153D01*
X72650Y43250D02*
X73153D01*
X72400Y43500D02*
X72650Y43750D01*
X72400Y43500D02*
X72650Y43250D01*
X72826Y40826D02*
Y41500D01*
X73574Y42274D02*
X75000Y43700D01*
X27200Y54600D02*
X27665D01*
X29218Y55618D02*
X29650D01*
X28600Y55000D02*
X29218Y55618D01*
X28600Y54865D02*
Y55000D01*
X28335Y54600D02*
X28600Y54865D01*
X34540Y51940D02*
Y53340D01*
X29074Y55874D02*
X29650D01*
X29000Y56200D02*
X29326Y55874D01*
X27449Y55849D02*
X29049D01*
X29186Y56386D02*
X29650D01*
X29070Y56130D02*
X29650D01*
X29000Y56200D02*
X29186Y56386D01*
X29306Y55106D02*
X29650D01*
X29000Y54800D02*
X29306Y55106D01*
X29049Y55849D02*
X29074Y55874D01*
X27249Y56951D02*
X28951D01*
X29260Y56642D01*
X29154Y57154D02*
X29650D01*
X28951Y56951D02*
X29154Y57154D01*
X29004Y56898D02*
X29650D01*
X29260Y56642D02*
X29650D01*
X28200Y56951D02*
Y57600D01*
X33000Y53865D02*
X33465D01*
X31950Y54450D02*
Y54850D01*
Y55106D02*
X32506D01*
X33000Y54535D02*
Y55200D01*
X31950Y55618D02*
X32582D01*
X33000Y55200D01*
X32809Y55874D02*
X33000Y56065D01*
X31950Y55874D02*
X32809D01*
X69900Y39900D02*
Y42950D01*
X70700Y43750D01*
X67000Y37000D02*
X69900Y39900D01*
D33*
X31200Y54950D02*
D03*
X30400D02*
D03*
X31000Y55600D02*
D03*
X30600D02*
D03*
X31000Y56000D02*
D03*
X30600D02*
D03*
X31000Y56400D02*
D03*
X30600D02*
D03*
X31200Y57000D02*
D03*
X30400D02*
D03*
D34*
X21750Y54710D02*
D03*
Y35290D02*
D03*
D35*
Y53250D02*
D03*
X22500Y52750D02*
D03*
X21750Y52250D02*
D03*
X22500Y51750D02*
D03*
X21750Y51250D02*
D03*
X22500Y50750D02*
D03*
X21750Y50250D02*
D03*
X22500Y49750D02*
D03*
X21750Y49250D02*
D03*
X22500Y48750D02*
D03*
X21750Y48250D02*
D03*
X22500Y47750D02*
D03*
X21750Y47250D02*
D03*
X22500Y46750D02*
D03*
X21750Y46250D02*
D03*
X22500Y45750D02*
D03*
X21750Y45250D02*
D03*
X22500Y44750D02*
D03*
X21750Y44250D02*
D03*
X22500Y43750D02*
D03*
X21750Y43250D02*
D03*
X22500Y42750D02*
D03*
X21750Y42250D02*
D03*
X22500Y41750D02*
D03*
X21750Y41250D02*
D03*
X22500Y40750D02*
D03*
X21750Y40250D02*
D03*
X22500Y39750D02*
D03*
X21750Y39250D02*
D03*
X22500Y38750D02*
D03*
X21750Y38250D02*
D03*
X22500Y37750D02*
D03*
X21750Y37250D02*
D03*
X22500Y36750D02*
D03*
X23250Y53250D02*
D03*
X24000Y52750D02*
D03*
X23250Y52250D02*
D03*
X24000Y51750D02*
D03*
X23250Y51250D02*
D03*
X24000Y50750D02*
D03*
X23250Y50250D02*
D03*
X24000Y49750D02*
D03*
X23250Y49250D02*
D03*
X24000Y48750D02*
D03*
X23250Y48250D02*
D03*
X24000Y47750D02*
D03*
X23250Y47250D02*
D03*
X24000Y46750D02*
D03*
X23250Y46250D02*
D03*
X24000Y45750D02*
D03*
X23250Y45250D02*
D03*
X24000Y44750D02*
D03*
X23250Y44250D02*
D03*
X24000Y43750D02*
D03*
X23250Y43250D02*
D03*
X24000Y42750D02*
D03*
X23250Y42250D02*
D03*
X24000Y41750D02*
D03*
X23250Y41250D02*
D03*
X24000Y40750D02*
D03*
X23250Y40250D02*
D03*
X24000Y39750D02*
D03*
X23250Y39250D02*
D03*
X24000Y38750D02*
D03*
X23250Y38250D02*
D03*
X24000Y37750D02*
D03*
X23250Y37250D02*
D03*
X24000Y36750D02*
D03*
D36*
X78800Y41700D02*
D03*
Y44700D02*
D03*
X75800Y41700D02*
D03*
Y42700D02*
D03*
Y44700D02*
D03*
Y43700D02*
D03*
X78800Y37700D02*
D03*
Y40700D02*
D03*
X75800Y37700D02*
D03*
Y38700D02*
D03*
Y40700D02*
D03*
Y39700D02*
D03*
D37*
X41900Y53900D02*
D03*
X40900D02*
D03*
X45900D02*
D03*
X44900D02*
D03*
X49500D02*
D03*
X48500D02*
D03*
X52900D02*
D03*
X51900D02*
D03*
X77300Y50548D02*
D03*
Y51550D02*
D03*
Y54052D02*
D03*
Y53050D02*
D03*
X38720Y52600D02*
D03*
X36480Y55400D02*
D03*
D38*
X68700Y40500D02*
D03*
X68600Y50500D02*
D03*
D39*
X67700Y40500D02*
D03*
X68700Y41500D02*
D03*
X67700D02*
D03*
X68700Y42500D02*
D03*
X67700D02*
D03*
X68700Y43500D02*
D03*
X67700D02*
D03*
X68700Y44500D02*
D03*
X67700D02*
D03*
X68700Y45500D02*
D03*
X67700D02*
D03*
X68700Y46500D02*
D03*
X67700D02*
D03*
X67600Y50500D02*
D03*
X68600Y51500D02*
D03*
X67600D02*
D03*
X68600Y52500D02*
D03*
X67600D02*
D03*
X68600Y53500D02*
D03*
X67600D02*
D03*
X68600Y54500D02*
D03*
X67600D02*
D03*
X68600Y55500D02*
D03*
X67600D02*
D03*
X68600Y56500D02*
D03*
X67600D02*
D03*
D40*
X22500Y57500D02*
D03*
X77500Y32500D02*
D03*
D41*
X22500D02*
D03*
X77500Y57500D02*
D03*
D42*
X59100Y52600D02*
D03*
X66691Y49091D02*
D03*
X66000Y47200D02*
D03*
X66200Y36600D02*
D03*
Y34200D02*
D03*
X47400Y47600D02*
D03*
X49191Y47009D02*
D03*
X50709D02*
D03*
X50100Y47600D02*
D03*
X52600D02*
D03*
X48909Y35809D02*
D03*
X50091D02*
D03*
X50800Y36500D02*
D03*
X51900Y34100D02*
D03*
X54300D02*
D03*
X48300D02*
D03*
X50700Y34000D02*
D03*
X31291Y33409D02*
D03*
X29500Y34100D02*
D03*
X31900D02*
D03*
X29700Y47100D02*
D03*
Y47600D02*
D03*
X27200D02*
D03*
X27000Y58200D02*
D03*
X31900Y35400D02*
D03*
X33800D02*
D03*
X32300Y35100D02*
D03*
X34200D02*
D03*
X41400Y30800D02*
D03*
X66100Y31200D02*
D03*
X39100Y33700D02*
D03*
X45900Y31000D02*
D03*
X38767Y34533D02*
D03*
X33100Y41250D02*
D03*
X33000Y42750D02*
D03*
X39200Y47300D02*
D03*
X46700Y44400D02*
D03*
X45183Y40917D02*
D03*
X45139Y39539D02*
D03*
X45735Y36665D02*
D03*
X43800Y36600D02*
D03*
X44229Y36671D02*
D03*
X40489Y35511D02*
D03*
X62165Y57165D02*
D03*
X63200Y58100D02*
D03*
X51800Y42800D02*
D03*
X55100Y43300D02*
D03*
X45200Y48100D02*
D03*
X42100Y48600D02*
D03*
X44200Y31400D02*
D03*
X48200Y35500D02*
D03*
Y37500D02*
D03*
X47200Y44600D02*
D03*
X43600Y31900D02*
D03*
X47700Y35500D02*
D03*
Y37500D02*
D03*
X47014Y42886D02*
D03*
X34421Y44500D02*
D03*
X30400Y52800D02*
D03*
X37300Y51000D02*
D03*
X45200Y47555D02*
D03*
X37200Y50500D02*
D03*
X44777Y46823D02*
D03*
X40800Y50500D02*
D03*
X41300Y50900D02*
D03*
X57400Y43100D02*
D03*
X58000Y41600D02*
D03*
X62000Y41300D02*
D03*
X62400Y41000D02*
D03*
X65700Y42700D02*
D03*
X58600Y43200D02*
D03*
X60000Y40900D02*
D03*
X61100Y40300D02*
D03*
X64900Y39000D02*
D03*
X59400Y40000D02*
D03*
X64700Y42300D02*
D03*
X62800Y37900D02*
D03*
X59465Y40865D02*
D03*
X57369Y40900D02*
D03*
X56946Y43146D02*
D03*
X57900Y43200D02*
D03*
X59900Y45300D02*
D03*
X65800Y45700D02*
D03*
X58700Y56600D02*
D03*
X64800Y50100D02*
D03*
X63100D02*
D03*
X61800D02*
D03*
X60900Y51500D02*
D03*
X56800Y54100D02*
D03*
X62400Y53100D02*
D03*
X64600D02*
D03*
X57600Y56100D02*
D03*
X59700D02*
D03*
X58000Y56500D02*
D03*
X59700D02*
D03*
X58335Y57165D02*
D03*
X57000Y55700D02*
D03*
X60400D02*
D03*
X60565Y57165D02*
D03*
X58300Y43400D02*
D03*
X60370Y43500D02*
D03*
X42800Y48700D02*
D03*
X56600D02*
D03*
X62800Y50400D02*
D03*
X65200Y51273D02*
D03*
X52200Y40300D02*
D03*
X58700D02*
D03*
X64700Y39800D02*
D03*
X52700Y40300D02*
D03*
X56000Y45900D02*
D03*
X55600Y46000D02*
D03*
X55627Y46827D02*
D03*
X33365Y34565D02*
D03*
X35935Y34535D02*
D03*
X34800Y36800D02*
D03*
X34600Y34800D02*
D03*
X35200Y34700D02*
D03*
X35174Y36874D02*
D03*
X30300Y37200D02*
D03*
Y38200D02*
D03*
X29765Y45865D02*
D03*
X31100Y45700D02*
D03*
X30700Y47300D02*
D03*
Y47800D02*
D03*
X31100Y48400D02*
D03*
X38400Y32700D02*
D03*
X33248Y32252D02*
D03*
X33226Y32626D02*
D03*
X33200Y33000D02*
D03*
X41100Y49100D02*
D03*
X51400Y49900D02*
D03*
X40900Y49500D02*
D03*
X49800Y50200D02*
D03*
X40500Y49800D02*
D03*
X47900Y50200D02*
D03*
X40200D02*
D03*
X45900D02*
D03*
X47335Y50635D02*
D03*
X49500Y50600D02*
D03*
X51400D02*
D03*
X53300Y50200D02*
D03*
X71047Y42347D02*
D03*
X73065Y37035D02*
D03*
X73674Y40074D02*
D03*
X69600Y46800D02*
D03*
X70465Y44865D02*
D03*
X71800Y45900D02*
D03*
X73153Y44647D02*
D03*
X72400Y43500D02*
D03*
X72826Y40826D02*
D03*
X27700Y36600D02*
D03*
X30200Y41800D02*
D03*
X35100Y46800D02*
D03*
X35500Y46500D02*
D03*
X35765Y48465D02*
D03*
X35800Y46200D02*
D03*
X35900Y45200D02*
D03*
X36200Y45000D02*
D03*
X32700Y43800D02*
D03*
X36400Y43000D02*
D03*
X36946Y48446D02*
D03*
X36200Y42100D02*
D03*
X36500Y41800D02*
D03*
X37900Y45800D02*
D03*
X33700Y47700D02*
D03*
X34900Y47300D02*
D03*
X37700D02*
D03*
X37500Y48700D02*
D03*
X30000Y40000D02*
D03*
X29000D02*
D03*
X28200D02*
D03*
X27600D02*
D03*
X27400Y40500D02*
D03*
X26700Y40400D02*
D03*
X26200Y41100D02*
D03*
X25700Y41500D02*
D03*
X25200Y41800D02*
D03*
X34600Y38800D02*
D03*
X64700Y52100D02*
D03*
X62900Y51600D02*
D03*
X56600Y51000D02*
D03*
X54700Y52000D02*
D03*
X61276Y55324D02*
D03*
X45000Y42400D02*
D03*
X54700Y40200D02*
D03*
X56946Y38754D02*
D03*
X56300Y35100D02*
D03*
X56127Y34227D02*
D03*
X55100Y35820D02*
D03*
X56300Y41600D02*
D03*
X35900Y39300D02*
D03*
X34500Y39800D02*
D03*
X35900Y40300D02*
D03*
X34500Y40200D02*
D03*
X35900Y41300D02*
D03*
X34417Y40917D02*
D03*
X35900Y38300D02*
D03*
X34500D02*
D03*
X33300D02*
D03*
X34600Y36300D02*
D03*
X35765Y36865D02*
D03*
X36158Y36642D02*
D03*
X37339Y35539D02*
D03*
X37900Y36700D02*
D03*
Y38100D02*
D03*
X39300D02*
D03*
X39400Y35500D02*
D03*
X39300Y36700D02*
D03*
X40700Y38100D02*
D03*
Y36700D02*
D03*
X42100Y38200D02*
D03*
X42064Y36636D02*
D03*
X42654Y36654D02*
D03*
X44435Y37735D02*
D03*
X45100Y38000D02*
D03*
Y37400D02*
D03*
X43600Y38700D02*
D03*
X45000Y38600D02*
D03*
X43600Y39700D02*
D03*
X45100Y40000D02*
D03*
X43600Y40700D02*
D03*
X45100Y40500D02*
D03*
Y41500D02*
D03*
X43700Y42900D02*
D03*
X45100Y43000D02*
D03*
X45130Y43870D02*
D03*
X43700Y43900D02*
D03*
Y44900D02*
D03*
X44900Y44500D02*
D03*
X43700Y45900D02*
D03*
X46300D02*
D03*
X45161Y45839D02*
D03*
X43100Y47300D02*
D03*
X43835Y47335D02*
D03*
X41700Y45800D02*
D03*
X41670Y47330D02*
D03*
X40200Y45900D02*
D03*
X40400Y47300D02*
D03*
X38700Y45900D02*
D03*
X38717Y47317D02*
D03*
X34480Y47020D02*
D03*
X35900Y44500D02*
D03*
X36000Y43500D02*
D03*
X34600Y44100D02*
D03*
X34500Y43500D02*
D03*
X35900Y42500D02*
D03*
X34500Y42900D02*
D03*
X36000Y45700D02*
D03*
X34442Y45642D02*
D03*
X33300Y45700D02*
D03*
X57700Y39400D02*
D03*
X57800Y38200D02*
D03*
X57600Y37000D02*
D03*
Y36000D02*
D03*
X57700Y40400D02*
D03*
X60900Y36200D02*
D03*
X59700D02*
D03*
X62800D02*
D03*
X61800D02*
D03*
X62000Y38900D02*
D03*
Y37200D02*
D03*
X61900Y40200D02*
D03*
X65900Y41400D02*
D03*
X64000Y43600D02*
D03*
X63000Y41900D02*
D03*
X62900Y43200D02*
D03*
X62239Y41961D02*
D03*
X62300Y43100D02*
D03*
X61867Y43167D02*
D03*
X61100Y43100D02*
D03*
X61600Y41900D02*
D03*
X60500D02*
D03*
X60300Y43100D02*
D03*
X59600Y42000D02*
D03*
X59300Y43100D02*
D03*
X59111Y42011D02*
D03*
X58600Y42000D02*
D03*
X56027Y42573D02*
D03*
X63300Y35000D02*
D03*
X63451Y35349D02*
D03*
X64500Y35300D02*
D03*
X63424Y36924D02*
D03*
X64500Y37200D02*
D03*
X63300Y38200D02*
D03*
X64500Y38600D02*
D03*
X63408Y38892D02*
D03*
X64586Y39286D02*
D03*
X64600Y40500D02*
D03*
X63433Y40467D02*
D03*
X63200Y41300D02*
D03*
X64500Y41400D02*
D03*
X63527Y34227D02*
D03*
X62400Y33700D02*
D03*
X61900Y34800D02*
D03*
X61300Y33600D02*
D03*
X60800Y33700D02*
D03*
X60900Y34800D02*
D03*
X59800Y33700D02*
D03*
X59702Y34798D02*
D03*
X58400Y33700D02*
D03*
Y34800D02*
D03*
X57800Y33700D02*
D03*
X57900Y34900D02*
D03*
X56400Y33700D02*
D03*
X56139Y35939D02*
D03*
X55100Y36600D02*
D03*
X56173Y36727D02*
D03*
X56200Y37400D02*
D03*
Y37800D02*
D03*
Y38200D02*
D03*
X55000D02*
D03*
Y39400D02*
D03*
X56200D02*
D03*
X55100Y40400D02*
D03*
X56400Y40800D02*
D03*
X55000Y41400D02*
D03*
X56027Y54773D02*
D03*
X58600Y54200D02*
D03*
X59300Y55300D02*
D03*
X59111Y54211D02*
D03*
X59600Y54200D02*
D03*
X60300Y55300D02*
D03*
X60500Y54100D02*
D03*
X62239Y54161D02*
D03*
X61600Y54100D02*
D03*
X62300Y55300D02*
D03*
X61867Y55367D02*
D03*
X64000Y55800D02*
D03*
X63000Y54100D02*
D03*
X62900Y55400D02*
D03*
X57800Y53600D02*
D03*
X57700Y52600D02*
D03*
Y51600D02*
D03*
X57800Y50400D02*
D03*
X57600Y49200D02*
D03*
Y48200D02*
D03*
X59700Y48400D02*
D03*
X60900D02*
D03*
X61800D02*
D03*
X62800D02*
D03*
X62000Y49400D02*
D03*
X61900Y52400D02*
D03*
X65900Y53600D02*
D03*
X64500D02*
D03*
X63200Y53500D02*
D03*
X63433Y52667D02*
D03*
X64600Y52700D02*
D03*
X64586Y51486D02*
D03*
X63200Y51900D02*
D03*
X62000Y51100D02*
D03*
X63408Y51092D02*
D03*
X64500Y50800D02*
D03*
X63300Y50400D02*
D03*
X64500Y49400D02*
D03*
X63424Y49124D02*
D03*
X64500Y47500D02*
D03*
X63451Y47549D02*
D03*
X63300Y47200D02*
D03*
X63527Y46427D02*
D03*
X62400Y45900D02*
D03*
X61900Y47000D02*
D03*
X61300Y45800D02*
D03*
X60800Y45900D02*
D03*
X60900Y47000D02*
D03*
X59800Y45900D02*
D03*
X59702Y46998D02*
D03*
X58400Y45900D02*
D03*
Y47000D02*
D03*
X57800Y45900D02*
D03*
X57900Y47100D02*
D03*
X56400Y45900D02*
D03*
X56255Y47155D02*
D03*
X55100Y48050D02*
D03*
Y48800D02*
D03*
X56139Y48139D02*
D03*
X56173Y48927D02*
D03*
X56200Y49600D02*
D03*
Y50000D02*
D03*
Y50400D02*
D03*
X55000D02*
D03*
X56300Y52100D02*
D03*
X55100Y52600D02*
D03*
X55000Y51600D02*
D03*
X56200D02*
D03*
X56400Y53000D02*
D03*
X55000Y53600D02*
D03*
X56355Y54045D02*
D03*
X21100Y33193D02*
D03*
D43*
X27200Y54600D02*
D03*
X34540Y51940D02*
D03*
Y53340D02*
D03*
X27449Y55849D02*
D03*
X29000Y54800D02*
D03*
Y56200D02*
D03*
X28951Y56951D02*
D03*
X28200Y57600D02*
D03*
X27249Y56951D02*
D03*
X33465Y53865D02*
D03*
X31950Y54450D02*
D03*
X32506Y55106D02*
D03*
M02*
