;Layer_Color=15461320
M48
;FILE_FORMAT=2:4
INCH,LZ
;TYPE=PLATED
T1F00S00C0.0135
T2F00S00C0.0180
T3F00S00C0.0280
T4F00S00C0.0350
T5F00S00C0.0354
T6F00S00C0.0400
T7F00S00C0.1100
T8F00S00C0.1496
%
T01
X0661Y0312
X0459Y031
X0414Y0308
X0295Y0341
X0303Y0372
Y0382
X03Y04
X029
X0282
X0276
X0274Y0405
X0267Y0404
X0262Y0411
X0257Y0415
X0252Y0418
X0302
X029765Y045865
X0311Y0457
X0277Y0366
X0211Y033193
X031291Y033409
X0319Y0341
Y0354
X0323Y0351
X033365Y034565
X0338Y0354
X0342Y0351
X0346Y0348
X0352Y0347
X035935Y034535
X036158Y036642
X035765Y036865
X035174Y036874
X0348Y0368
X0346Y0363
X0345Y0383
X0346Y0388
X0345Y0398
Y0402
X034417Y040917
X0331Y04125
X033Y04275
X0327Y0438
X0345Y0435
Y0429
X0346Y0441
X034421Y0445
X034442Y045642
X0333Y0457
X036
X0359Y0452
X0362Y045
X0359Y0445
X036Y0435
X0364Y043
X0359Y0425
X0362Y0421
X0365Y0418
X0359Y0413
Y0403
Y0393
Y0383
X0379Y0381
Y0367
X0393
X0394Y0355
X040489Y035511
X0407Y0367
Y0381
X0393
X0421Y0382
X042064Y036636
X042654Y036654
X0438Y0366
X044229Y036671
X044435Y037735
X0451Y038
Y0374
X045Y0386
X045139Y039539
X0451Y04
Y0405
X045183Y040917
X0451Y0415
X045Y0424
X0451Y043
X04513Y04387
X0449Y0445
X0437Y0449
Y0439
Y0429
X0436Y0407
Y0397
Y0387
X045735Y036665
X0442Y0314
X0436Y0319
X0384Y0327
X0391Y0337
X038767Y034533
X037339Y035539
X0332Y033
X033226Y032626
X033248Y032252
X0333Y0383
X0351Y0468
X0355Y0465
X0358Y0462
X0379Y0458
X0387Y0459
X0402
X0417Y0458
X0437Y0459
X045161Y045839
X0463Y0459
X0467Y0444
X044777Y046823
X0472Y0446
X047014Y042886
X0518Y0428
X0522Y0403
X0527
X0547Y0402
X0551Y0404
X055Y0394
Y0382
X0562
Y0378
Y0374
X056173Y036727
X056139Y035939
X0563Y0351
X056127Y034227
X0564Y0337
X0578
X0584
Y0348
X0579Y0349
X0576Y036
Y037
X0578Y0382
X0577Y0394
Y0404
X057369Y0409
X0564Y0408
X0563Y0416
X056027Y042573
X056946Y043146
X0574Y0431
X0579Y0432
X0583Y0434
X0586Y0432
X0593Y0431
X0603
X06037Y0435
X0611Y0431
X061867Y043167
X0623Y0431
X062239Y041961
X0616Y0419
X062Y0413
X0624Y041
X0619Y0402
X0611Y0403
X06Y0409
X059465Y040865
X0594Y04
X0587Y0403
X0586Y042
X059111Y042011
X0596Y042
X0605Y0419
X058Y0416
X055Y0414
X0551Y0433
X0556Y046
X056Y0459
X0564
X0578
X0584
X0598
X0599Y0453
X0608Y0459
X0613Y0458
X0624Y0459
X062Y0389
Y0372
X0618Y0362
X0609
X0597
X059702Y034798
X0598Y0337
X0608
X0613Y0336
X0624Y0337
X0619Y0348
X0609
X0551Y03582
Y0366
X0543Y0341
X0519
X0507Y034
X050091Y035809
X048909
X0482Y0355
X0477
X0483Y0341
X0482Y0375
X0477
X0508Y0365
X0562Y0394
X056946Y038754
X055627Y046827
X063527Y046427
X0658Y0457
X0657Y0427
X0647Y0423
X0645Y0414
X0646Y0405
X0647Y0398
X064586Y039286
X0649Y039
X0645Y0386
X063408Y038892
X0633Y0382
X0628Y0379
X063424Y036924
X0628Y0362
X063451Y035349
X0633Y035
X063527Y034227
X0645Y0353
Y0372
X0662Y0366
Y0342
X0659Y0414
X0632Y0413
X063Y0419
X0629Y0432
X064Y0436
X063433Y040467
X071047Y042347
X0724Y0435
X073153Y044647
X0718Y0459
X070465Y044865
X0696Y0468
X072826Y040826
X073674Y040074
X073065Y037035
X066Y0472
X0645Y0475
X063451Y047549
X0633Y0472
X0628Y0484
X063424Y049124
X0631Y0501
X0633Y0504
X0628
X0629Y0516
X0632Y0519
X063433Y052667
X0632Y0535
X063Y0541
X0629Y0554
X064Y0558
X0645Y0536
X0646Y0531
Y0527
X0647Y0521
X064586Y051486
X0645Y0508
X0648Y0501
X0645Y0494
X066691Y049091
X0652Y051273
X063408Y051092
X0659Y0536
X0632Y0581
X062165Y057165
X060565Y057165
X0597Y0565
Y0561
X0604Y0557
X0603Y0553
X061276Y055324
X061867Y055367
X0623Y0553
X062239Y054161
X0616Y0541
X0605
X0596Y0542
X059111Y054211
X0586Y0542
X0578Y0536
X0577Y0526
Y0516
X0578Y0504
X0576Y0492
Y0482
X0579Y0471
X0584Y047
X059702Y046998
X0609Y047
X0619
X0618Y0484
X0609
X0597
X062Y0494
X0618Y0501
X062Y0511
X0619Y0524
X0624Y0531
X0609Y0515
X0591Y0526
X0593Y0553
X0587Y0566
X058Y0565
X0576Y0561
X057Y0557
X0568Y0541
X056355Y054045
X056027Y054773
X0564Y053
X0563Y0521
X0562Y0516
X0566Y051
X0562Y0504
Y05
Y0496
X056173Y048927
X0566Y0487
X056139Y048139
X056255Y047155
X0551Y04805
Y0488
X055Y0504
Y0516
X0547Y052
X0551Y0526
X055Y0536
X0533Y0502
X0514Y0499
Y0506
X0495
X0498Y0502
X0479
X047335Y050635
X0474Y0476
X049191Y047009
X0501Y0476
X050709Y047009
X0526Y0476
X058335Y057165
X0459Y0502
X0452Y0481
Y047555
X043835Y047335
X0431Y0473
X04167Y04733
X0404Y0473
X0392
X038717Y047317
X0377Y0473
X0375Y0487
X036946Y048446
X035765Y048465
X0349Y0473
X03448Y04702
X0337Y0477
X03454Y05194
Y05334
X033465Y053865
X03195Y05445
X032506Y055106
X0373Y051
X0372Y0505
X0402Y0502
X0405Y0498
X0409Y0495
X0411Y0491
X0421Y0486
X0428Y0487
X0413Y0509
X0408Y0505
X0311Y0484
X0307Y0478
Y0473
X0297Y0471
Y0476
X0272
Y0546
X027449Y055849
X027249Y056951
X027Y0582
X0282Y0576
X028951Y056951
X029Y0562
Y0548
X0306Y0556
X031
Y056
X0306
Y0564
X031
X0304Y0528
T02
X0304Y05495
X0312
Y057
X0304
T03
X0485Y0539
X0495
X0519
X0529
X0459
X0449
X0419
X0409
X03872Y0526
X03648Y0554
T04
X02175Y03725
Y03825
Y03925
Y04025
Y04125
Y04225
Y04325
Y04425
Y04525
Y04625
X0225Y04675
Y04575
Y04475
Y04375
Y04275
Y04175
Y04075
Y03975
Y03875
Y03775
Y03675
X02325Y03725
Y03825
Y03925
Y04025
Y04125
Y04225
Y04325
Y04425
Y04525
Y04625
X024Y04675
Y04575
Y04475
Y04375
Y04275
Y04175
Y04075
Y03975
Y03875
Y03775
Y03675
X0773Y050548
Y05155
Y05305
Y054052
X024Y05275
Y05175
Y05075
Y04975
Y04875
Y04775
X02325Y04825
Y04925
Y05025
Y05125
Y05225
Y05325
X0225Y05275
Y05175
Y05075
Y04975
Y04875
Y04775
X02175Y04825
Y04925
Y05025
Y05125
Y05225
Y05325
Y04725
X02325
T05
X0677Y0405
X0687
Y0415
X0677
Y0425
X0687
Y0435
X0677
Y0445
X0687
Y0455
X0677
Y0465
X0687
X0686Y0505
X0676
Y0515
X0686
Y0525
X0676
Y0535
X0686
Y0545
X0676
Y0555
X0686
Y0565
X0676
T06
X0758Y0377
Y0387
Y0397
Y0407
Y0417
Y0427
Y0437
Y0447
X0788
Y0417
Y0407
Y0377
T07
X02175Y03529
Y05471
T08
X0225Y0325
X0775
Y0575
X0225
M30
