%FSLAX24Y24*%
%MOIN*%
G70*
G01*
G75*
G04 Layer_Physical_Order=5*
G04 Layer_Color=128*
G04 Layer_Color=128*
%ADD10R,0.0394X0.0433*%
%ADD11C,0.0197*%
%ADD12C,0.0177*%
%ADD13R,0.0433X0.0394*%
%ADD14R,0.0669X0.0177*%
%ADD15R,0.0669X0.0177*%
%ADD16R,0.0197X0.0591*%
%ADD17R,0.0630X0.0512*%
%ADD18R,0.3000X0.2900*%
%ADD19R,0.1500X0.0500*%
%ADD20R,0.0630X0.0709*%
%ADD21R,0.0866X0.0787*%
%ADD22R,0.0787X0.0866*%
%ADD23R,0.0945X0.1024*%
%ADD24R,0.0709X0.0630*%
%ADD25R,0.0748X0.0197*%
%ADD26R,0.0197X0.0748*%
%ADD27R,0.0551X0.0787*%
%ADD28R,0.1732X0.1441*%
%ADD29R,0.0827X0.0354*%
%ADD30R,0.0827X0.0354*%
%ADD31R,0.0276X0.0354*%
%ADD32R,0.0512X0.0630*%
%ADD33R,0.0807X0.0236*%
%ADD34R,0.0157X0.0846*%
%ADD35C,0.0090*%
%ADD36C,0.0070*%
%ADD37C,0.0060*%
%ADD38C,0.0160*%
%ADD39C,0.0120*%
%ADD40C,0.0100*%
%ADD41C,0.0080*%
%ADD42C,0.0300*%
%ADD43C,0.0250*%
%ADD44R,0.0591X0.0591*%
%ADD45C,0.0591*%
%ADD46C,0.0800*%
%ADD47C,0.0600*%
%ADD48C,0.1732*%
%ADD49C,0.1732*%
%ADD50C,0.0200*%
%ADD51C,0.0400*%
%ADD52C,0.0212*%
%ADD53C,0.0240*%
%ADD54C,0.0350*%
%ADD55R,0.0354X0.0276*%
%ADD56C,0.0140*%
%ADD57C,0.0098*%
%ADD58C,0.0079*%
%ADD59C,0.0200*%
%ADD60C,0.0050*%
%ADD61R,0.0474X0.0513*%
%ADD62C,0.0277*%
%ADD63C,0.0217*%
%ADD64R,0.0513X0.0474*%
%ADD65R,0.0749X0.0257*%
%ADD66R,0.0749X0.0257*%
%ADD67R,0.0277X0.0671*%
%ADD68R,0.0710X0.0592*%
%ADD69R,0.3080X0.2980*%
%ADD70R,0.1580X0.0580*%
%ADD71R,0.0710X0.0789*%
%ADD72R,0.0946X0.0867*%
%ADD73R,0.0867X0.0946*%
%ADD74R,0.1025X0.1104*%
%ADD75R,0.0789X0.0710*%
%ADD76R,0.0828X0.0277*%
%ADD77R,0.0277X0.0828*%
%ADD78R,0.0631X0.0867*%
%ADD79R,0.1812X0.1521*%
%ADD80R,0.0907X0.0434*%
%ADD81R,0.0907X0.0434*%
%ADD82R,0.0356X0.0434*%
%ADD83R,0.0592X0.0710*%
%ADD84R,0.0887X0.0316*%
%ADD85R,0.0237X0.0926*%
%ADD86R,0.0671X0.0671*%
%ADD87C,0.0671*%
%ADD88C,0.0880*%
%ADD89C,0.0680*%
%ADD90C,0.1812*%
%ADD91C,0.1812*%
%ADD92C,0.0280*%
%ADD93C,0.0480*%
%ADD94C,0.0292*%
%ADD95C,0.0320*%
%ADD96C,0.0430*%
%ADD97R,0.0434X0.0356*%
%ADD98C,0.0400*%
%ADD99C,0.0754*%
%AMTHD100*
7,0,0,0.0774,0.0634,0.0100,45*
%
%ADD100THD100*%
%AMTHD101*
7,0,0,0.1020,0.0880,0.0100,45*
%
%ADD101THD101*%
%ADD102C,0.1000*%
%ADD103C,0.0794*%
%AMTHD104*
7,0,0,0.0814,0.0674,0.0100,45*
%
%ADD104THD104*%
%ADD105C,0.0930*%
%ADD106C,0.1896*%
%AMTHD107*
7,0,0,0.1916,0.1776,0.0100,45*
%
%ADD107THD107*%
%ADD108C,0.1896*%
%AMTHD109*
7,0,0,0.0820,0.0680,0.0100,45*
%
%ADD109THD109*%
%ADD110C,0.0500*%
%AMTHD111*
7,0,0,0.0670,0.0530,0.0100,45*
%
%ADD111THD111*%
%AMTHD112*
7,0,0,0.0520,0.0380,0.0100,45*
%
%ADD112THD112*%
%AMTHD113*
7,0,0,0.0620,0.0480,0.0100,45*
%
%ADD113THD113*%
%ADD114C,0.0650*%
D46*
X81500Y36500D02*
D03*
Y39500D02*
D03*
X78500Y36500D02*
D03*
Y37500D02*
D03*
Y39500D02*
D03*
Y38500D02*
D03*
X81500Y46500D02*
D03*
Y49500D02*
D03*
X78500Y46500D02*
D03*
Y47500D02*
D03*
Y49500D02*
D03*
Y48500D02*
D03*
X81500Y40500D02*
D03*
Y43500D02*
D03*
X78500Y40500D02*
D03*
Y41500D02*
D03*
Y43500D02*
D03*
Y42500D02*
D03*
X81500Y50500D02*
D03*
Y53500D02*
D03*
X78500Y50500D02*
D03*
Y51500D02*
D03*
Y53500D02*
D03*
Y52500D02*
D03*
D47*
X30531Y43169D02*
D03*
X36870Y48366D02*
D03*
X64016Y48209D02*
D03*
X74449Y45256D02*
D03*
D98*
X21949Y36431D02*
G03*
X22343Y36825I0J394D01*
G01*
Y53175D02*
G03*
X21949Y53569I-394J0D01*
G01*
X20000Y30000D02*
Y36431D01*
X21949D01*
X22343Y36825D02*
Y53175D01*
X20000Y53569D02*
X21949D01*
X20000D02*
Y60000D01*
X82500D01*
Y30000D02*
Y60000D01*
X20000Y30000D02*
X82500D01*
D99*
X73978Y50200D02*
D03*
Y51200D02*
D03*
Y52200D02*
D03*
X61852Y50200D02*
D03*
Y51200D02*
D03*
Y52200D02*
D03*
X37600Y50200D02*
D03*
Y51200D02*
D03*
Y52200D02*
D03*
X49726D02*
D03*
Y51200D02*
D03*
Y50200D02*
D03*
X25295Y58465D02*
D03*
X26295D02*
D03*
X25295Y57465D02*
D03*
X26295D02*
D03*
X25295Y56465D02*
D03*
X26295D02*
D03*
X25295Y55465D02*
D03*
X26295D02*
D03*
X25295Y54465D02*
D03*
X26295D02*
D03*
X25295Y53465D02*
D03*
X26295D02*
D03*
X25295Y52465D02*
D03*
X26295D02*
D03*
D101*
X73819Y34390D02*
D03*
D102*
Y31890D02*
D03*
Y35640D02*
D03*
X67569D02*
D03*
X67619Y31890D02*
D03*
D103*
X55906Y32382D02*
D03*
Y31594D02*
D03*
X55118Y32382D02*
D03*
Y31594D02*
D03*
X54331Y32382D02*
D03*
Y31594D02*
D03*
X53543Y32382D02*
D03*
Y31594D02*
D03*
X52756Y32382D02*
D03*
Y31594D02*
D03*
X51968Y32382D02*
D03*
Y31594D02*
D03*
X51181D02*
D03*
D104*
Y32382D02*
D03*
D105*
X22972Y37573D02*
D03*
Y52427D02*
D03*
D106*
X80000Y32500D02*
D03*
D108*
Y57500D02*
D03*
X22500Y32500D02*
D03*
Y57500D02*
D03*
D110*
X33563Y40551D02*
D03*
X31811Y42835D02*
D03*
X31457Y41201D02*
D03*
X23740Y49744D02*
D03*
X23711Y48750D02*
D03*
X23719Y48250D02*
D03*
X23720Y47776D02*
D03*
X23740Y45748D02*
D03*
X23701Y46240D02*
D03*
Y46772D02*
D03*
X23624Y41750D02*
D03*
X23589Y40250D02*
D03*
X23563Y38740D02*
D03*
X33563Y37795D02*
D03*
X33091Y36811D02*
D03*
X35138Y36220D02*
D03*
X28041Y38258D02*
D03*
X28976Y35630D02*
D03*
X35138Y35433D02*
D03*
X28839Y35236D02*
D03*
X35138Y36614D02*
D03*
X34744Y36220D02*
D03*
X34350Y35827D02*
D03*
X33169Y35039D02*
D03*
X33563D02*
D03*
X30049Y37234D02*
D03*
X30118Y36752D02*
D03*
X26280Y38760D02*
D03*
X27392Y35955D02*
D03*
X26201Y35689D02*
D03*
X25807Y37933D02*
D03*
X26250Y37490D02*
D03*
X25492Y39488D02*
D03*
X32677Y42087D02*
D03*
X32913Y42323D02*
D03*
X33150Y42559D02*
D03*
X33386Y42795D02*
D03*
X33622Y43032D02*
D03*
X33858Y43268D02*
D03*
X34094Y43504D02*
D03*
X34331Y43740D02*
D03*
X31890Y44843D02*
D03*
X27441Y47165D02*
D03*
X37992Y47205D02*
D03*
X38071Y55669D02*
D03*
X37323Y58701D02*
D03*
X33976Y49213D02*
D03*
X31181Y46850D02*
D03*
X30197Y46732D02*
D03*
X30709Y46260D02*
D03*
X33150Y49213D02*
D03*
X32559Y49724D02*
D03*
X32480Y47835D02*
D03*
X31260Y47874D02*
D03*
X31181Y46457D02*
D03*
X31220Y46063D02*
D03*
X31890Y45748D02*
D03*
X32677Y48740D02*
D03*
X32283Y48740D02*
D03*
X31890D02*
D03*
X31496Y48701D02*
D03*
X31102Y47480D02*
D03*
X32480Y47441D02*
D03*
X33268Y46654D02*
D03*
X32874Y47047D02*
D03*
X32087Y46654D02*
D03*
X32480D02*
D03*
X32874D02*
D03*
X32087Y47047D02*
D03*
X32480D02*
D03*
X33268D02*
D03*
X32087Y47441D02*
D03*
X32874D02*
D03*
X33268D02*
D03*
Y47835D02*
D03*
X32874D02*
D03*
X32087D02*
D03*
X30197Y49016D02*
D03*
X29291Y51457D02*
D03*
X28898Y52441D02*
D03*
X30197Y48701D02*
D03*
X28622Y52835D02*
D03*
X30197Y48307D02*
D03*
X29134Y57165D02*
D03*
Y55276D02*
D03*
X29765Y56419D02*
D03*
X28189Y55197D02*
D03*
X30197Y47874D02*
D03*
Y47480D02*
D03*
X28819Y56968D02*
D03*
X30197Y49331D02*
D03*
X30394Y54016D02*
D03*
X35728Y57185D02*
D03*
X34843Y57087D02*
D03*
X33858Y57244D02*
D03*
X33543Y57126D02*
D03*
X32915Y57124D02*
D03*
X32283Y57165D02*
D03*
X31970Y55592D02*
D03*
X30709Y49016D02*
D03*
X29213Y44488D02*
D03*
X30433Y55236D02*
D03*
X30315Y54331D02*
D03*
X30079Y56811D02*
D03*
X30197Y44764D02*
D03*
X31339Y57087D02*
D03*
X30787Y56063D02*
D03*
Y51890D02*
D03*
X31181Y54094D02*
D03*
X31063Y52323D02*
D03*
X30217Y49705D02*
D03*
X29134Y46850D02*
D03*
X30807Y51280D02*
D03*
X36380Y57049D02*
D03*
X31299Y51378D02*
D03*
X30413Y57087D02*
D03*
X30709Y49606D02*
D03*
X34252Y52854D02*
D03*
X33563Y56201D02*
D03*
X31299Y50689D02*
D03*
X34646Y54232D02*
D03*
X31496Y49508D02*
D03*
X31791Y49705D02*
D03*
X32185Y52657D02*
D03*
X32579D02*
D03*
X32677Y52264D02*
D03*
X37000Y53500D02*
D03*
X28506Y53944D02*
D03*
X32600Y53950D02*
D03*
X35900Y54000D02*
D03*
X33200Y58300D02*
D03*
X35120Y58320D02*
D03*
X32441Y41850D02*
D03*
X28622Y44744D02*
D03*
X32480Y44823D02*
D03*
X29193Y45472D02*
D03*
X28209Y44094D02*
D03*
X31024Y44783D02*
D03*
X31339Y45197D02*
D03*
X30512Y45079D02*
D03*
X39567Y47165D02*
D03*
X50197Y55669D02*
D03*
X49449Y58701D02*
D03*
X40335Y44094D02*
D03*
X46535Y44724D02*
D03*
X50118Y47205D02*
D03*
X44016Y45748D02*
D03*
X43346Y46063D02*
D03*
X43307Y46457D02*
D03*
Y46850D02*
D03*
X43386Y47874D02*
D03*
X44606Y47835D02*
D03*
X44213D02*
D03*
X44803Y48740D02*
D03*
X44409Y48740D02*
D03*
X44016D02*
D03*
X43622Y48701D02*
D03*
X42913Y51890D02*
D03*
Y56063D02*
D03*
X43425Y51378D02*
D03*
X48506Y57049D02*
D03*
X43425Y50689D02*
D03*
X46772Y54232D02*
D03*
X43622Y49508D02*
D03*
X45689Y56201D02*
D03*
X44311Y52657D02*
D03*
X45984Y57244D02*
D03*
X44803Y52264D02*
D03*
X45041Y57124D02*
D03*
X42343Y49705D02*
D03*
X42539Y57087D02*
D03*
X42835Y49606D02*
D03*
X43917Y49705D02*
D03*
X47854Y57185D02*
D03*
X44705Y52657D02*
D03*
X46968Y57087D02*
D03*
X44685Y49724D02*
D03*
X45669Y57126D02*
D03*
X42323Y49331D02*
D03*
X42520Y54016D02*
D03*
X41417Y51457D02*
D03*
X42323Y49016D02*
D03*
X41024Y52441D02*
D03*
X42323Y48701D02*
D03*
X40748Y52835D02*
D03*
X42323Y48307D02*
D03*
X40315Y55197D02*
D03*
X40945Y56968D02*
D03*
X41260Y57165D02*
D03*
X42323Y47874D02*
D03*
X41260Y55276D02*
D03*
X41891Y56419D02*
D03*
X42323Y47480D02*
D03*
X41260Y46850D02*
D03*
X42933Y51280D02*
D03*
X43228Y47480D02*
D03*
X44409Y57165D02*
D03*
X42835Y46260D02*
D03*
X43189Y52323D02*
D03*
X41339Y44488D02*
D03*
X42835Y49016D02*
D03*
X44096Y55592D02*
D03*
X42323Y44764D02*
D03*
X42205Y56811D02*
D03*
X42638Y45079D02*
D03*
X43307Y54094D02*
D03*
X43465Y45197D02*
D03*
X44016Y44843D02*
D03*
X44567Y41850D02*
D03*
X45039Y42323D02*
D03*
X45512Y42795D02*
D03*
X45984Y43268D02*
D03*
X46457Y43740D02*
D03*
X40748Y44744D02*
D03*
X42559Y55236D02*
D03*
X41319Y45472D02*
D03*
X42441Y54331D02*
D03*
X43150Y44783D02*
D03*
X43465Y57087D02*
D03*
X44606Y44823D02*
D03*
X44803Y42087D02*
D03*
X45276Y42559D02*
D03*
X45748Y43032D02*
D03*
X46220Y43504D02*
D03*
X47246Y58320D02*
D03*
X45326Y58300D02*
D03*
X49126Y53500D02*
D03*
X48026Y54000D02*
D03*
X46378Y52854D02*
D03*
X44726Y53950D02*
D03*
X40631Y53944D02*
D03*
X45276Y49213D02*
D03*
X42323Y46732D02*
D03*
X46102Y49213D02*
D03*
X45394Y47047D02*
D03*
X45000Y46654D02*
D03*
X55551Y51378D02*
D03*
X56043Y49705D02*
D03*
X59980Y57185D02*
D03*
X55551Y50689D02*
D03*
X58898Y54232D02*
D03*
X59372Y58320D02*
D03*
X56831Y52657D02*
D03*
X59094Y57087D02*
D03*
X55748Y49508D02*
D03*
X57815Y56201D02*
D03*
X56437Y52657D02*
D03*
X58110Y57244D02*
D03*
X56811Y49724D02*
D03*
X57795Y57126D02*
D03*
X57452Y58300D02*
D03*
X56929Y52264D02*
D03*
X57167Y57124D02*
D03*
X55354Y47480D02*
D03*
X56535Y57165D02*
D03*
X53465Y44488D02*
D03*
X54961Y49016D02*
D03*
X56222Y55592D02*
D03*
X53445Y45472D02*
D03*
X54567Y54331D02*
D03*
X55276Y44783D02*
D03*
X55591Y57087D02*
D03*
X52874Y44744D02*
D03*
X54685Y55236D02*
D03*
X55039Y51890D02*
D03*
Y56063D02*
D03*
X54665Y57087D02*
D03*
X54961Y49606D02*
D03*
X54331Y56811D02*
D03*
X54764Y45079D02*
D03*
X54017Y56419D02*
D03*
X54449Y47480D02*
D03*
X53386Y57165D02*
D03*
X54449Y47874D02*
D03*
X53386Y55276D02*
D03*
X52441Y55197D02*
D03*
X53071Y56968D02*
D03*
X61252Y53500D02*
D03*
X60152Y54000D02*
D03*
X58504Y52854D02*
D03*
X56852Y53950D02*
D03*
X53386Y46850D02*
D03*
X55059Y51280D02*
D03*
X54961Y46260D02*
D03*
X55315Y52323D02*
D03*
X55433Y54094D02*
D03*
X55591Y45197D02*
D03*
X54449Y49331D02*
D03*
X54646Y54016D02*
D03*
X53543Y51457D02*
D03*
X54449Y49016D02*
D03*
X53150Y52441D02*
D03*
X54449Y48701D02*
D03*
X52874Y52835D02*
D03*
X54449Y48307D02*
D03*
X52757Y53944D02*
D03*
X56142Y45748D02*
D03*
X55472Y46063D02*
D03*
X55433Y46457D02*
D03*
Y46850D02*
D03*
X55512Y47874D02*
D03*
X56732Y47835D02*
D03*
X56339D02*
D03*
X56929Y48740D02*
D03*
X56535Y48740D02*
D03*
X56142D02*
D03*
X55748Y48701D02*
D03*
X54468Y49705D02*
D03*
X54449Y44764D02*
D03*
X56142Y44843D02*
D03*
X56693Y41850D02*
D03*
X57165Y42323D02*
D03*
X57638Y42795D02*
D03*
X58110Y43268D02*
D03*
X58583Y43740D02*
D03*
X52461Y44094D02*
D03*
X58661Y44724D02*
D03*
X56732Y44823D02*
D03*
X56929Y42087D02*
D03*
X57402Y42559D02*
D03*
X57874Y43032D02*
D03*
X58346Y43504D02*
D03*
X62244Y47205D02*
D03*
X61575Y58701D02*
D03*
X62323Y55669D02*
D03*
X51693Y47165D02*
D03*
X57126Y46654D02*
D03*
X57520Y47047D02*
D03*
X58228Y49213D02*
D03*
X54449Y46732D02*
D03*
X57402Y49213D02*
D03*
X67677Y51378D02*
D03*
X72757Y57049D02*
D03*
X68169Y49705D02*
D03*
X72106Y57185D02*
D03*
X67677Y50689D02*
D03*
X71024Y54232D02*
D03*
X71498Y58320D02*
D03*
X68957Y52657D02*
D03*
X71220Y57087D02*
D03*
X67874Y49508D02*
D03*
X69941Y56201D02*
D03*
X68563Y52657D02*
D03*
X70236Y57244D02*
D03*
X68937Y49724D02*
D03*
X69921Y57126D02*
D03*
X69578Y58300D02*
D03*
X69055Y52264D02*
D03*
X69293Y57124D02*
D03*
X67480Y47480D02*
D03*
X68661Y57165D02*
D03*
X65591Y44488D02*
D03*
X67087Y49016D02*
D03*
X68348Y55592D02*
D03*
X65571Y45472D02*
D03*
X66693Y54331D02*
D03*
X67402Y44783D02*
D03*
X67717Y57087D02*
D03*
X65000Y44744D02*
D03*
X66811Y55236D02*
D03*
X67165Y51890D02*
D03*
Y56063D02*
D03*
X66791Y57087D02*
D03*
X67087Y49606D02*
D03*
X66457Y56811D02*
D03*
X66890Y45079D02*
D03*
X66143Y56419D02*
D03*
X66575Y47480D02*
D03*
X65512Y57165D02*
D03*
X66575Y47874D02*
D03*
X65512Y55276D02*
D03*
X64567Y55197D02*
D03*
X65197Y56968D02*
D03*
X73378Y53500D02*
D03*
X72278Y54000D02*
D03*
X70630Y52854D02*
D03*
X68978Y53950D02*
D03*
X65512Y46850D02*
D03*
X67185Y51280D02*
D03*
X67087Y46260D02*
D03*
X67441Y52323D02*
D03*
X67559Y54094D02*
D03*
X67717Y45197D02*
D03*
X66575Y49331D02*
D03*
X66772Y54016D02*
D03*
X65669Y51457D02*
D03*
X66575Y49016D02*
D03*
X65276Y52441D02*
D03*
X66575Y48701D02*
D03*
X65000Y52835D02*
D03*
X66575Y48307D02*
D03*
X64883Y53944D02*
D03*
X68268Y45748D02*
D03*
X67598Y46063D02*
D03*
X67559Y46457D02*
D03*
Y46850D02*
D03*
X67638Y47874D02*
D03*
X68858Y47835D02*
D03*
X68465D02*
D03*
X69055Y48740D02*
D03*
X68661Y48740D02*
D03*
X68268D02*
D03*
X67874Y48701D02*
D03*
X66594Y49705D02*
D03*
X66575Y44764D02*
D03*
X68268Y44843D02*
D03*
X68819Y41850D02*
D03*
X69291Y42323D02*
D03*
X69764Y42795D02*
D03*
X70236Y43268D02*
D03*
X70709Y43740D02*
D03*
X64587Y44094D02*
D03*
X70787Y44724D02*
D03*
X68858Y44823D02*
D03*
X69055Y42087D02*
D03*
X69528Y42559D02*
D03*
X70000Y43032D02*
D03*
X70472Y43504D02*
D03*
X74370Y47205D02*
D03*
X73701Y58701D02*
D03*
X74449Y55669D02*
D03*
X63819Y47165D02*
D03*
X69646Y47047D02*
D03*
X70354Y49213D02*
D03*
X66575Y46732D02*
D03*
X69528Y49213D02*
D03*
X33130Y40984D02*
D03*
X34744Y40157D02*
D03*
X35138D02*
D03*
X35531D02*
D03*
X36083Y44665D02*
D03*
X35925Y40157D02*
D03*
X33839Y44862D02*
D03*
X34350Y40157D02*
D03*
X33957D02*
D03*
X36220Y45669D02*
D03*
X33563Y39764D02*
D03*
X36339Y45374D02*
D03*
X33051Y39685D02*
D03*
X34961Y47028D02*
D03*
X34350Y39764D02*
D03*
X34744Y39370D02*
D03*
X32874Y39035D02*
D03*
X32795Y39370D02*
D03*
X35200Y47858D02*
D03*
X36063Y47815D02*
D03*
X34350Y38976D02*
D03*
X33957D02*
D03*
X33563Y38583D02*
D03*
X33051Y38386D02*
D03*
X34764Y46496D02*
D03*
X34823Y47618D02*
D03*
X36201Y48406D02*
D03*
X35157Y48268D02*
D03*
X35630Y48228D02*
D03*
X33091Y38780D02*
D03*
X47165Y45669D02*
D03*
X48327Y45669D02*
D03*
X36909Y41083D02*
D03*
X37106Y40551D02*
D03*
X37461Y41063D02*
D03*
X37736Y41260D02*
D03*
X37500Y40551D02*
D03*
X37894D02*
D03*
X38287D02*
D03*
X38681D02*
D03*
X48366Y47638D02*
D03*
X48268Y48031D02*
D03*
X48346Y45276D02*
D03*
X48366Y44882D02*
D03*
X48386Y44488D02*
D03*
X48346Y44094D02*
D03*
X48307Y48425D02*
D03*
X48307Y48819D02*
D03*
X47244D02*
D03*
X47224Y48425D02*
D03*
X47146Y45295D02*
D03*
X47165Y48031D02*
D03*
Y47638D02*
D03*
X36713Y40157D02*
D03*
X36319D02*
D03*
X35925Y39764D02*
D03*
X36319D02*
D03*
X37500Y40157D02*
D03*
X60669Y47382D02*
D03*
X60472Y48031D02*
D03*
Y48425D02*
D03*
X60472Y48819D02*
D03*
X59409D02*
D03*
X59390Y48425D02*
D03*
X59370Y48031D02*
D03*
X59370Y47638D02*
D03*
X36713Y39764D02*
D03*
X39488Y40846D02*
D03*
X39075Y40551D02*
D03*
X37500Y39764D02*
D03*
X37106D02*
D03*
X37894Y39370D02*
D03*
X37500Y38976D02*
D03*
X37106Y38583D02*
D03*
X36713Y39370D02*
D03*
X38287D02*
D03*
X37894Y38976D02*
D03*
X38287D02*
D03*
X37894Y38583D02*
D03*
X38287D02*
D03*
Y38189D02*
D03*
X72500Y47343D02*
D03*
X72500Y47756D02*
D03*
X72421Y48209D02*
D03*
X72382Y48642D02*
D03*
X71535Y48150D02*
D03*
X71496Y46476D02*
D03*
X71201Y45453D02*
D03*
X71102Y48327D02*
D03*
X38681Y38189D02*
D03*
X40433Y38012D02*
D03*
X39744Y37992D02*
D03*
X38681Y37795D02*
D03*
X39705Y37008D02*
D03*
X38287Y37402D02*
D03*
X37894D02*
D03*
X37106Y37008D02*
D03*
X37500Y36614D02*
D03*
X37894Y36220D02*
D03*
X38287Y35827D02*
D03*
X39469Y34646D02*
D03*
X37894Y37008D02*
D03*
Y36614D02*
D03*
X38287Y36220D02*
D03*
X71476Y45709D02*
D03*
X39665Y37638D02*
D03*
X73071Y45669D02*
D03*
X38287Y37008D02*
D03*
X71614Y45079D02*
D03*
X39075Y37008D02*
D03*
X35335Y34587D02*
D03*
X31219Y32442D02*
D03*
X29193Y33130D02*
D03*
X76181Y46398D02*
D03*
X76043Y52402D02*
D03*
X76083Y42343D02*
D03*
Y36181D02*
D03*
X74282Y40285D02*
D03*
X74862Y38917D02*
D03*
X72872Y38423D02*
D03*
X71535Y39921D02*
D03*
X33740Y32382D02*
D03*
X33760Y31299D02*
D03*
X27047Y32362D02*
D03*
X45433Y31909D02*
D03*
X52717Y33110D02*
D03*
X45276Y32205D02*
D03*
X50728Y33327D02*
D03*
X45138Y32520D02*
D03*
X55098Y33543D02*
D03*
X46220Y31772D02*
D03*
X46850Y31752D02*
D03*
X48543Y32520D02*
D03*
X38287Y39764D02*
D03*
X38681D02*
D03*
X38287Y40157D02*
D03*
X51181Y41280D02*
D03*
X51378Y40984D02*
D03*
X39075Y40157D02*
D03*
X59390Y45512D02*
D03*
X60925Y45669D02*
D03*
X35335Y41024D02*
D03*
X35925Y41457D02*
D03*
X35138Y39764D02*
D03*
X37106Y39370D02*
D03*
X46968Y40984D02*
D03*
X39390Y32126D02*
D03*
Y31673D02*
D03*
X59488Y45079D02*
D03*
X40039Y37008D02*
D03*
X59685Y41516D02*
D03*
X71459Y38423D02*
D03*
X74980Y37598D02*
D03*
X76752Y48209D02*
D03*
X37106Y35827D02*
D03*
X36713Y35433D02*
D03*
X74961Y39429D02*
D03*
X37500Y35433D02*
D03*
X71510Y39423D02*
D03*
X37500Y35827D02*
D03*
X43150Y34921D02*
D03*
X47480D02*
D03*
X47165Y34665D02*
D03*
X41693Y34488D02*
D03*
X32559Y41280D02*
D03*
X32264Y38976D02*
D03*
X32756Y36457D02*
D03*
X49744Y40925D02*
D03*
Y35866D02*
D03*
X45098Y34094D02*
D03*
X37106Y36220D02*
D03*
X37303Y33740D02*
D03*
X36713Y35827D02*
D03*
X36909Y33504D02*
D03*
X43780Y32776D02*
D03*
X43760Y33169D02*
D03*
X46201Y34685D02*
D03*
X46535Y35118D02*
D03*
X50295Y35315D02*
D03*
X38917Y33071D02*
D03*
X36831Y31614D02*
D03*
X57815Y34665D02*
D03*
X57461Y33524D02*
D03*
X58169Y31929D02*
D03*
X62520Y33386D02*
D03*
X29094Y33760D02*
D03*
X28071Y33977D02*
D03*
X60433Y31555D02*
D03*
X61162Y32165D02*
D03*
X60396Y32242D02*
D03*
X51201Y35256D02*
D03*
X51988Y33852D02*
D03*
X24134Y42461D02*
D03*
X26299Y46339D02*
D03*
X28248Y59075D02*
D03*
X62421D02*
D03*
X50295D02*
D03*
X38110D02*
D03*
X26654Y51161D02*
D03*
X26398Y48858D02*
D03*
X25630Y51339D02*
D03*
X25610Y51752D02*
D03*
X36240Y51201D02*
D03*
X48366D02*
D03*
X60492D02*
D03*
X72618D02*
D03*
X74350Y59075D02*
D03*
X26811Y49488D02*
D03*
X24852Y50305D02*
D03*
X72480Y51654D02*
D03*
X59724Y51161D02*
D03*
X60551Y51654D02*
D03*
X49094Y52028D02*
D03*
X47776Y51004D02*
D03*
X35748Y51496D02*
D03*
X35098Y49213D02*
D03*
X34941Y50689D02*
D03*
X25374Y43819D02*
D03*
X26555Y43445D02*
D03*
X71378Y49016D02*
D03*
X71220Y50591D02*
D03*
X35315Y50669D02*
D03*
X34764Y48917D02*
D03*
X27402Y48091D02*
D03*
X24980Y48406D02*
D03*
X60098Y56004D02*
D03*
X62323Y58287D02*
D03*
X29016Y58622D02*
D03*
X25709Y46949D02*
D03*
X48307Y51890D02*
D03*
X43760Y45374D02*
D03*
X36339Y45079D02*
D03*
X35098Y45276D02*
D03*
X31378Y44843D02*
D03*
X26142Y47047D02*
D03*
X64213Y57736D02*
D03*
X25787Y45433D02*
D03*
X25020Y43976D02*
D03*
X50610Y41398D02*
D03*
X64291Y41594D02*
D03*
X38268Y44016D02*
D03*
X27854Y42047D02*
D03*
X36516Y34311D02*
D03*
X35000Y32795D02*
D03*
X28839Y34626D02*
D03*
X28563Y41634D02*
D03*
X38583Y34350D02*
D03*
X38327Y34193D02*
D03*
X38543Y33268D02*
D03*
X35531Y32736D02*
D03*
X36732Y32047D02*
D03*
X62795Y35669D02*
D03*
X65020Y41398D02*
D03*
X52323Y41516D02*
D03*
X48583Y41083D02*
D03*
X49016Y35669D02*
D03*
X39252Y33228D02*
D03*
X37598Y31024D02*
D03*
X39980Y34744D02*
D03*
X36378Y33780D02*
D03*
X36319Y35039D02*
D03*
X41594Y35531D02*
D03*
X35925Y35827D02*
D03*
X32264Y41516D02*
D03*
X76181Y57815D02*
D03*
X36319Y37795D02*
D03*
X36713D02*
D03*
X35925D02*
D03*
Y38189D02*
D03*
X36713D02*
D03*
X36319D02*
D03*
Y37795D02*
D03*
X35925Y37402D02*
D03*
X36713D02*
D03*
X36319D02*
D03*
X35138Y38976D02*
D03*
X34744Y37402D02*
D03*
X35138Y37795D02*
D03*
Y37008D02*
D03*
X39823Y38780D02*
D03*
X35531Y35827D02*
D03*
X36319Y38976D02*
D03*
X77598Y31772D02*
D03*
X35531Y39764D02*
D03*
X40728Y44370D02*
D03*
X48976Y45079D02*
D03*
X48189Y41240D02*
D03*
X48465Y34567D02*
D03*
X40492Y32441D02*
D03*
X37165Y31634D02*
D03*
X69252Y46654D02*
D03*
X35866Y33681D02*
D03*
X38681Y35433D02*
D03*
X38937Y34331D02*
D03*
X38287Y35039D02*
D03*
X37303Y34232D02*
D03*
X72774Y39923D02*
D03*
X35531Y35433D02*
D03*
X33957Y35039D02*
D03*
X33150Y35827D02*
D03*
X39075Y36614D02*
D03*
X41280Y31339D02*
D03*
X33957Y36614D02*
D03*
D112*
X22402Y56043D02*
D03*
X23583Y45236D02*
D03*
X23622Y44744D02*
D03*
X23583Y44232D02*
D03*
X28868Y37490D02*
D03*
X28927Y36978D02*
D03*
X27362Y38504D02*
D03*
X26220Y38091D02*
D03*
X27382Y37106D02*
D03*
X26289Y36211D02*
D03*
X25492Y35866D02*
D03*
X35079Y44843D02*
D03*
X37362Y47244D02*
D03*
X37677Y53071D02*
D03*
X38110Y56457D02*
D03*
X35118Y49685D02*
D03*
X32283Y45748D02*
D03*
X32677Y45748D02*
D03*
X33071Y45748D02*
D03*
X33465Y45748D02*
D03*
X34213Y46063D02*
D03*
Y46457D02*
D03*
Y46850D02*
D03*
X34213Y47244D02*
D03*
Y47638D02*
D03*
X34213Y48031D02*
D03*
X33858Y48740D02*
D03*
X33465Y48740D02*
D03*
X33071D02*
D03*
X34175Y58348D02*
D03*
X29213Y44882D02*
D03*
X37000Y57750D02*
D03*
X28500Y57300D02*
D03*
X33250Y53950D02*
D03*
X35250Y54000D02*
D03*
X32500Y58300D02*
D03*
X36000Y58350D02*
D03*
X49488Y47244D02*
D03*
X49803Y53071D02*
D03*
X50236Y56457D02*
D03*
X46339Y46063D02*
D03*
X45591Y45748D02*
D03*
X45197Y45748D02*
D03*
X44803Y45748D02*
D03*
X44409Y45748D02*
D03*
X46339Y46457D02*
D03*
Y46850D02*
D03*
X46339Y47244D02*
D03*
Y47638D02*
D03*
X46339Y48031D02*
D03*
X45984Y48740D02*
D03*
X45591Y48740D02*
D03*
X45197D02*
D03*
X47244Y49685D02*
D03*
X41339Y44882D02*
D03*
X49126Y57750D02*
D03*
X48126Y58350D02*
D03*
X46301Y58348D02*
D03*
X44626Y58300D02*
D03*
X40626Y57300D02*
D03*
X47376Y54000D02*
D03*
X45376Y53950D02*
D03*
X61252Y57750D02*
D03*
X60252Y58350D02*
D03*
X58427Y58348D02*
D03*
X56752Y58300D02*
D03*
X52752Y57300D02*
D03*
X59502Y54000D02*
D03*
X57502Y53950D02*
D03*
X58465Y46063D02*
D03*
X57717Y45748D02*
D03*
X57323Y45748D02*
D03*
X56929Y45748D02*
D03*
X56535Y45748D02*
D03*
X58465Y46457D02*
D03*
Y46850D02*
D03*
X58465Y47244D02*
D03*
Y47638D02*
D03*
X58465Y48031D02*
D03*
X58110Y48740D02*
D03*
X57717Y48740D02*
D03*
X57323D02*
D03*
X59370Y49685D02*
D03*
X53465Y44882D02*
D03*
X59331Y44843D02*
D03*
X62362Y56457D02*
D03*
X61929Y53071D02*
D03*
X61614Y47244D02*
D03*
X73378Y57750D02*
D03*
X72378Y58350D02*
D03*
X70553Y58348D02*
D03*
X68878Y58300D02*
D03*
X64878Y57300D02*
D03*
X71628Y54000D02*
D03*
X69628Y53950D02*
D03*
X70591Y46063D02*
D03*
X69843Y45748D02*
D03*
X69449Y45748D02*
D03*
X69055Y45748D02*
D03*
X68661Y45748D02*
D03*
X70591Y46457D02*
D03*
Y46850D02*
D03*
X70591Y47244D02*
D03*
Y47638D02*
D03*
X70591Y48031D02*
D03*
X70236Y48740D02*
D03*
X69843Y48740D02*
D03*
X69449D02*
D03*
X71496Y49685D02*
D03*
X65591Y44882D02*
D03*
X74488Y56457D02*
D03*
X74055Y53071D02*
D03*
X73740Y47244D02*
D03*
X47185Y44862D02*
D03*
X37500Y38583D02*
D03*
Y38189D02*
D03*
X71614Y43819D02*
D03*
X31161Y31102D02*
D03*
X29154Y31752D02*
D03*
X49764Y32835D02*
D03*
X48110Y35177D02*
D03*
X40354Y32854D02*
D03*
X59488Y35256D02*
D03*
X59409Y34756D02*
D03*
X58367Y33582D02*
D03*
X26890Y47697D02*
D03*
X26555Y42717D02*
D03*
X76102Y56102D02*
D03*
X34744Y38189D02*
D03*
X35138Y38583D02*
D03*
Y38189D02*
D03*
X35925Y36614D02*
D03*
X35925Y37008D02*
D03*
X36319D02*
D03*
X36713D02*
D03*
X36319Y36614D02*
D03*
X36713Y38583D02*
D03*
X36319Y38583D02*
D03*
X35925D02*
D03*
X35925Y38976D02*
D03*
X35925Y39370D02*
D03*
X36319D02*
D03*
X37500Y37795D02*
D03*
X37106Y37402D02*
D03*
X77579Y34370D02*
D03*
X43917Y33425D02*
D03*
D113*
X30551Y40650D02*
D03*
X39390Y48386D02*
D03*
X61575Y48287D02*
D03*
X74094Y42756D02*
D03*
D114*
X65354Y31969D02*
D03*
X65374Y34173D02*
D03*
X64606Y34154D02*
D03*
X64587Y31949D02*
D03*
X24980Y33406D02*
D03*
X24961Y31201D02*
D03*
X24193Y31181D02*
D03*
X24213Y33386D02*
D03*
M02*
