%FSLAX24Y24*%
%MOIN*%
G70*
G01*
G75*
G04 Layer_Physical_Order=4*
G04 Layer_Color=32768*
%ADD10R,0.0394X0.0433*%
%ADD11C,0.0197*%
%ADD12C,0.0177*%
%ADD13R,0.0433X0.0394*%
%ADD14R,0.0669X0.0177*%
%ADD15R,0.0669X0.0177*%
%ADD16R,0.0197X0.0591*%
%ADD17R,0.0630X0.0512*%
%ADD18R,0.3000X0.2900*%
%ADD19R,0.1500X0.0500*%
%ADD20R,0.0630X0.0709*%
%ADD21R,0.0866X0.0787*%
%ADD22R,0.0787X0.0866*%
%ADD23R,0.0945X0.1024*%
%ADD24R,0.0709X0.0630*%
%ADD25R,0.0748X0.0197*%
%ADD26R,0.0197X0.0748*%
%ADD27R,0.0551X0.0787*%
%ADD28R,0.1732X0.1441*%
%ADD29R,0.0827X0.0354*%
%ADD30R,0.0827X0.0354*%
%ADD31R,0.0276X0.0354*%
%ADD32R,0.0512X0.0630*%
%ADD33R,0.0807X0.0236*%
%ADD34R,0.0157X0.0846*%
%ADD35C,0.0090*%
%ADD36C,0.0070*%
%ADD37C,0.0060*%
%ADD38C,0.0160*%
%ADD39C,0.0120*%
%ADD40C,0.0100*%
%ADD41C,0.0080*%
%ADD42C,0.0300*%
%ADD43C,0.0250*%
%ADD44R,0.0591X0.0591*%
%ADD45C,0.0591*%
%ADD46C,0.0800*%
%ADD47C,0.0600*%
%ADD48C,0.1732*%
%ADD49C,0.1732*%
%ADD50C,0.0200*%
%ADD51C,0.0400*%
%ADD52C,0.0212*%
%ADD53C,0.0240*%
%ADD54C,0.0350*%
G36*
X34493Y41670D02*
X34490Y41654D01*
Y41221D01*
X33771Y40503D01*
X33727Y40526D01*
X33732Y40551D01*
X33719Y40616D01*
X33683Y40671D01*
X33628Y40708D01*
X33563Y40720D01*
X33538Y40716D01*
X33515Y40760D01*
X34449Y41694D01*
X34493Y41670D01*
D02*
G37*
G36*
X37948Y42552D02*
X37943Y42549D01*
X36841Y41446D01*
X36820Y41415D01*
X36813Y41378D01*
Y41210D01*
X36794Y41198D01*
X36759Y41145D01*
X36746Y41083D01*
X36759Y41020D01*
X36794Y40967D01*
X36847Y40932D01*
X36909Y40920D01*
X36971Y40932D01*
X37009Y40900D01*
Y40686D01*
X36987Y40671D01*
X36950Y40616D01*
X36937Y40551D01*
X36950Y40486D01*
X36987Y40431D01*
X37042Y40395D01*
X37106Y40382D01*
X37140Y40389D01*
X37164Y40345D01*
X36919Y40100D01*
X36875Y40124D01*
X36882Y40157D01*
X36869Y40222D01*
X36832Y40277D01*
X36777Y40314D01*
X36713Y40327D01*
X36686Y40321D01*
X36613Y40394D01*
Y41358D01*
X37855Y42600D01*
X37934D01*
X37948Y42552D01*
D02*
G37*
G36*
X44350Y43105D02*
Y42991D01*
X43680Y42321D01*
X38307D01*
X38270Y42314D01*
X38239Y42293D01*
X37100Y41155D01*
X37051Y41160D01*
X37025Y41198D01*
X37006Y41210D01*
Y41338D01*
X38052Y42383D01*
X43524D01*
X43561Y42391D01*
X43592Y42412D01*
X44304Y43124D01*
X44350Y43105D01*
D02*
G37*
G36*
Y40786D02*
X39685D01*
X39653Y40824D01*
X39657Y40846D01*
X39645Y40911D01*
X39608Y40966D01*
X39553Y41003D01*
X39488Y41016D01*
Y41029D01*
X39524Y41065D01*
X44350D01*
Y40786D01*
D02*
G37*
G36*
Y37853D02*
X41201D01*
X41164Y37845D01*
X41132Y37824D01*
X41043Y37735D01*
X40850D01*
X40831Y37781D01*
X41024Y37974D01*
X44350D01*
Y37853D01*
D02*
G37*
G36*
Y38561D02*
X40594D01*
X40575Y38608D01*
X40768Y38801D01*
X44350D01*
Y38561D01*
D02*
G37*
G36*
Y38995D02*
X40728D01*
X40691Y38987D01*
X40660Y38966D01*
X40171Y38478D01*
X40117D01*
X40098Y38524D01*
X40729Y39155D01*
X44350D01*
Y38995D01*
D02*
G37*
G36*
X40571Y36714D02*
X44350D01*
Y36514D01*
X40354D01*
X40329Y36509D01*
X39253D01*
X39231Y36549D01*
X39244Y36614D01*
X39231Y36679D01*
X39253Y36719D01*
X40545D01*
X40571Y36714D01*
D02*
G37*
G36*
X41102Y39470D02*
X44350Y39465D01*
Y39349D01*
X40689D01*
X40652Y39341D01*
X40620Y39320D01*
X39980Y38680D01*
X39571D01*
X39552Y38726D01*
X40296Y39470D01*
X41100D01*
X41102Y39470D01*
D02*
G37*
G36*
X34470Y43995D02*
Y43917D01*
X34426Y43893D01*
X34401Y43910D01*
X34331Y43924D01*
X34260Y43910D01*
X34201Y43870D01*
X34161Y43810D01*
X34147Y43740D01*
X34151Y43719D01*
X34116Y43683D01*
X34094Y43687D01*
X34024Y43673D01*
X33965Y43634D01*
X33925Y43574D01*
X33911Y43504D01*
X33915Y43482D01*
X33880Y43447D01*
X33858Y43451D01*
X33788Y43437D01*
X33728Y43397D01*
X33689Y43338D01*
X33675Y43268D01*
X33679Y43246D01*
X33644Y43211D01*
X33622Y43215D01*
X33552Y43201D01*
X33492Y43161D01*
X33452Y43102D01*
X33439Y43032D01*
X33443Y43010D01*
X33407Y42975D01*
X33386Y42979D01*
X33316Y42965D01*
X33256Y42925D01*
X33216Y42866D01*
X33202Y42795D01*
X33207Y42774D01*
X33171Y42738D01*
X33150Y42743D01*
X33079Y42729D01*
X33020Y42689D01*
X32980Y42629D01*
X32966Y42559D01*
X32970Y42537D01*
X32935Y42502D01*
X32913Y42506D01*
X32843Y42492D01*
X32784Y42453D01*
X32744Y42393D01*
X32730Y42323D01*
X32734Y42301D01*
X32699Y42266D01*
X32677Y42270D01*
X32607Y42256D01*
X32547Y42216D01*
X32508Y42157D01*
X32494Y42087D01*
X32498Y42065D01*
X32463Y42030D01*
X32441Y42034D01*
X32371Y42020D01*
X32311Y41980D01*
X32271Y41921D01*
X32257Y41850D01*
X32271Y41780D01*
X32311Y41721D01*
X32314Y41719D01*
X32295Y41673D01*
X32264Y41679D01*
X32201Y41666D01*
X32148Y41631D01*
X32113Y41578D01*
X32101Y41516D01*
X32113Y41453D01*
X32148Y41400D01*
X32201Y41365D01*
X32264Y41353D01*
X32326Y41365D01*
X32379Y41400D01*
X32415Y41453D01*
X32427Y41516D01*
X32415Y41578D01*
X32379Y41631D01*
X32407Y41674D01*
X32441Y41667D01*
X32511Y41681D01*
X32571Y41721D01*
X32610Y41780D01*
X32624Y41850D01*
X32620Y41872D01*
X32656Y41907D01*
X32677Y41903D01*
X32747Y41917D01*
X32807Y41957D01*
X32847Y42016D01*
X32861Y42087D01*
X32856Y42108D01*
X32892Y42144D01*
X32913Y42139D01*
X32984Y42153D01*
X33043Y42193D01*
X33083Y42253D01*
X33097Y42323D01*
X33093Y42344D01*
X33128Y42380D01*
X33150Y42376D01*
X33220Y42389D01*
X33279Y42429D01*
X33319Y42489D01*
X33333Y42559D01*
X33329Y42581D01*
X33364Y42616D01*
X33386Y42612D01*
X33456Y42626D01*
X33516Y42666D01*
X33555Y42725D01*
X33569Y42795D01*
X33565Y42817D01*
X33600Y42852D01*
X33622Y42848D01*
X33692Y42862D01*
X33752Y42902D01*
X33792Y42961D01*
X33806Y43032D01*
X33801Y43053D01*
X33837Y43088D01*
X33858Y43084D01*
X33928Y43098D01*
X33988Y43138D01*
X34028Y43197D01*
X34042Y43268D01*
X34037Y43289D01*
X34073Y43325D01*
X34094Y43320D01*
X34165Y43334D01*
X34224Y43374D01*
X34264Y43434D01*
X34278Y43504D01*
X34274Y43526D01*
X34309Y43561D01*
X34331Y43557D01*
X34401Y43571D01*
X34426Y43587D01*
X34470Y43564D01*
Y42934D01*
X32760Y41224D01*
X32716Y41247D01*
X32722Y41280D01*
X32710Y41342D01*
X32674Y41395D01*
X32621Y41430D01*
X32559Y41443D01*
X32497Y41430D01*
X32444Y41395D01*
X32408Y41342D01*
X32396Y41280D01*
X32400Y41258D01*
X32195Y41053D01*
X32174Y41021D01*
X32167Y40984D01*
Y39104D01*
X32148Y39092D01*
X32113Y39039D01*
X32101Y38976D01*
X32113Y38914D01*
X32148Y38861D01*
X32201Y38826D01*
X32264Y38813D01*
X32326Y38826D01*
X32379Y38861D01*
X32414Y38914D01*
X32462Y38899D01*
Y38878D01*
X32470Y38841D01*
X32491Y38809D01*
X32887Y38413D01*
X32882Y38386D01*
X32895Y38321D01*
X32931Y38266D01*
X32986Y38229D01*
X33051Y38217D01*
X33116Y38229D01*
X33171Y38266D01*
X33208Y38321D01*
X33220Y38386D01*
X33208Y38451D01*
X33171Y38506D01*
X33116Y38542D01*
X33051Y38555D01*
X33024Y38550D01*
X32656Y38918D01*
Y39218D01*
X32700Y39241D01*
X32733Y39219D01*
X32768Y39212D01*
X32778Y39163D01*
X32759Y39151D01*
X32723Y39098D01*
X32711Y39035D01*
X32723Y38973D01*
X32759Y38920D01*
X32812Y38885D01*
X32874Y38872D01*
X32936Y38885D01*
X32989Y38920D01*
X33025Y38973D01*
X33037Y39035D01*
X33025Y39098D01*
X32989Y39151D01*
X32936Y39186D01*
X32902Y39193D01*
X32892Y39242D01*
X32911Y39255D01*
X32946Y39308D01*
X32958Y39370D01*
X32946Y39433D01*
X32911Y39485D01*
X32858Y39521D01*
X32795Y39533D01*
X32733Y39521D01*
X32700Y39499D01*
X32656Y39522D01*
Y40846D01*
X34581Y42771D01*
X34628Y42752D01*
Y42146D01*
X32983Y40502D01*
X32962Y40470D01*
X32954Y40433D01*
Y39820D01*
X32931Y39805D01*
X32895Y39750D01*
X32882Y39685D01*
X32895Y39620D01*
X32931Y39565D01*
X32986Y39529D01*
X33051Y39516D01*
X33116Y39529D01*
X33171Y39565D01*
X33208Y39620D01*
X33220Y39685D01*
X33208Y39750D01*
X33171Y39805D01*
X33148Y39820D01*
Y40393D01*
X33355Y40599D01*
X33399Y40576D01*
X33394Y40551D01*
X33407Y40486D01*
X33443Y40431D01*
X33498Y40395D01*
X33563Y40382D01*
X33588Y40387D01*
X33611Y40343D01*
X33495Y40226D01*
X33473Y40195D01*
X33466Y40157D01*
Y39899D01*
X33443Y39883D01*
X33407Y39829D01*
X33394Y39764D01*
X33407Y39699D01*
X33443Y39644D01*
X33498Y39607D01*
X33563Y39595D01*
X33628Y39607D01*
X33683Y39644D01*
X33719Y39699D01*
X33732Y39764D01*
X33719Y39829D01*
X33683Y39883D01*
X33660Y39899D01*
Y40117D01*
X33748Y40206D01*
X33792Y40182D01*
X33787Y40157D01*
X33800Y40093D01*
X33837Y40038D01*
X33892Y40001D01*
X33957Y39988D01*
X34021Y40001D01*
X34076Y40038D01*
X34113Y40093D01*
X34126Y40157D01*
X34119Y40194D01*
X34159Y40224D01*
X34191Y40207D01*
X34181Y40157D01*
X34194Y40093D01*
X34231Y40038D01*
X34286Y40001D01*
X34350Y39988D01*
X34415Y40001D01*
X34470Y40038D01*
X34507Y40093D01*
X34520Y40157D01*
X34518Y40164D01*
X34559Y40194D01*
X34580Y40182D01*
X34575Y40157D01*
X34588Y40093D01*
X34624Y40038D01*
X34679Y40001D01*
X34744Y39988D01*
X34809Y40001D01*
X34864Y40038D01*
X34900Y40093D01*
X34913Y40157D01*
X34900Y40222D01*
X34864Y40277D01*
X34809Y40314D01*
X34744Y40327D01*
X34719Y40322D01*
X34696Y40366D01*
X34949Y40619D01*
X34949Y40619D01*
X35135Y40805D01*
X35156Y40837D01*
X35164Y40874D01*
Y41326D01*
X35388Y41551D01*
X35435Y41532D01*
Y40591D01*
X35165Y40321D01*
X35138Y40327D01*
X35073Y40314D01*
X35018Y40277D01*
X34981Y40222D01*
X34969Y40157D01*
X34981Y40093D01*
X35018Y40038D01*
X35073Y40001D01*
X35138Y39988D01*
X35203Y40001D01*
X35257Y40038D01*
X35294Y40093D01*
X35307Y40157D01*
X35306Y40164D01*
X35346Y40194D01*
X35367Y40182D01*
X35362Y40157D01*
X35375Y40093D01*
X35412Y40038D01*
X35467Y40001D01*
X35531Y39988D01*
X35596Y40001D01*
X35651Y40038D01*
X35688Y40093D01*
X35701Y40157D01*
X35700Y40164D01*
X35740Y40194D01*
X35761Y40182D01*
X35756Y40157D01*
X35769Y40093D01*
X35806Y40038D01*
X35860Y40001D01*
X35925Y39988D01*
X35990Y40001D01*
X36045Y40038D01*
X36082Y40093D01*
X36094Y40157D01*
X36093Y40164D01*
X36133Y40194D01*
X36155Y40182D01*
X36150Y40157D01*
X36163Y40093D01*
X36199Y40038D01*
X36254Y40001D01*
X36319Y39988D01*
X36384Y40001D01*
X36439Y40038D01*
X36475Y40093D01*
X36488Y40157D01*
X36483Y40182D01*
X36504Y40194D01*
X36545Y40164D01*
X36543Y40157D01*
X36556Y40093D01*
X36593Y40038D01*
X36648Y40001D01*
X36713Y39988D01*
X36777Y40001D01*
X36779Y40002D01*
X36806Y39984D01*
X36803Y39934D01*
X36777Y39920D01*
X36713Y39933D01*
X36648Y39920D01*
X36593Y39883D01*
X36556Y39829D01*
X36543Y39764D01*
X36556Y39699D01*
X36593Y39644D01*
X36648Y39607D01*
X36713Y39595D01*
X36746Y39601D01*
X36760Y39576D01*
X36730Y39536D01*
X36713Y39539D01*
X36648Y39526D01*
X36593Y39490D01*
X36556Y39435D01*
X36543Y39370D01*
X36556Y39305D01*
X36593Y39250D01*
X36648Y39214D01*
X36713Y39201D01*
X36777Y39214D01*
X36832Y39250D01*
X36869Y39305D01*
X36882Y39370D01*
X36878Y39387D01*
X36919Y39417D01*
X36944Y39404D01*
X36937Y39370D01*
X36950Y39305D01*
X36987Y39250D01*
X37042Y39214D01*
X37106Y39201D01*
X37171Y39214D01*
X37226Y39250D01*
X37263Y39305D01*
X37276Y39370D01*
X37263Y39435D01*
X37226Y39490D01*
X37171Y39526D01*
X37106Y39539D01*
X37042Y39526D01*
X37040Y39525D01*
X36998Y39553D01*
X37001Y39567D01*
Y39586D01*
X37042Y39607D01*
X37106Y39595D01*
X37171Y39607D01*
X37226Y39644D01*
X37263Y39699D01*
X37276Y39764D01*
X37263Y39829D01*
X37226Y39883D01*
X37171Y39920D01*
X37106Y39933D01*
X37073Y39926D01*
X37049Y39970D01*
X37293Y40215D01*
X37337Y40191D01*
X37331Y40157D01*
X37344Y40093D01*
X37380Y40038D01*
X37435Y40001D01*
X37500Y39988D01*
X37565Y40001D01*
X37620Y40038D01*
X37656Y40093D01*
X37669Y40157D01*
X37656Y40222D01*
X37678Y40263D01*
X38109D01*
X38131Y40222D01*
X38118Y40157D01*
X38131Y40093D01*
X38168Y40038D01*
X38223Y40001D01*
X38287Y39988D01*
X38352Y40001D01*
X38407Y40038D01*
X38444Y40093D01*
X38457Y40157D01*
X38444Y40222D01*
X38465Y40263D01*
X38897D01*
X38918Y40222D01*
X38906Y40157D01*
X38918Y40093D01*
X38955Y40038D01*
X39010Y40001D01*
X39075Y39988D01*
X39102Y39994D01*
X39203Y39892D01*
X39235Y39871D01*
X39272Y39864D01*
X39288Y39867D01*
X39312Y39823D01*
X38956Y39467D01*
X38422D01*
X38407Y39490D01*
X38352Y39526D01*
X38287Y39539D01*
X38223Y39526D01*
X38168Y39490D01*
X38131Y39435D01*
X38118Y39370D01*
X38131Y39305D01*
X38117Y39279D01*
X38067Y39277D01*
X38049Y39304D01*
X38050Y39305D01*
X38063Y39370D01*
X38050Y39435D01*
X38013Y39490D01*
X37958Y39526D01*
X37894Y39539D01*
X37829Y39526D01*
X37774Y39490D01*
X37737Y39435D01*
X37724Y39370D01*
X37737Y39305D01*
X37774Y39250D01*
X37829Y39214D01*
X37894Y39201D01*
X37927Y39208D01*
X37941Y39182D01*
X37911Y39142D01*
X37894Y39146D01*
X37829Y39133D01*
X37774Y39096D01*
X37737Y39041D01*
X37724Y38976D01*
X37737Y38912D01*
X37774Y38857D01*
X37829Y38820D01*
X37894Y38807D01*
X37927Y38814D01*
X37941Y38789D01*
X37911Y38748D01*
X37894Y38752D01*
X37829Y38739D01*
X37774Y38702D01*
X37737Y38647D01*
X37724Y38583D01*
X37737Y38518D01*
X37774Y38463D01*
X37829Y38426D01*
X37894Y38413D01*
X37958Y38426D01*
X38013Y38463D01*
X38050Y38518D01*
X38063Y38583D01*
X38059Y38600D01*
X38100Y38630D01*
X38125Y38616D01*
X38118Y38583D01*
X38131Y38518D01*
X38168Y38463D01*
X38223Y38426D01*
X38287Y38413D01*
X38321Y38420D01*
X38335Y38395D01*
X38305Y38355D01*
X38287Y38358D01*
X38223Y38345D01*
X38168Y38309D01*
X38131Y38254D01*
X38118Y38189D01*
X38131Y38124D01*
X38168Y38069D01*
X38223Y38033D01*
X38287Y38020D01*
X38352Y38033D01*
X38407Y38069D01*
X38444Y38124D01*
X38457Y38189D01*
X38453Y38206D01*
X38493Y38236D01*
X38519Y38223D01*
X38512Y38189D01*
X38525Y38124D01*
X38561Y38069D01*
X38616Y38033D01*
X38681Y38020D01*
X38746Y38033D01*
X38801Y38069D01*
X38816Y38092D01*
X39561D01*
X39593Y38053D01*
X39581Y37992D01*
X39593Y37930D01*
X39629Y37877D01*
X39670Y37849D01*
X39661Y37800D01*
X39603Y37789D01*
X39550Y37753D01*
X39515Y37700D01*
X39502Y37638D01*
X39515Y37575D01*
X39537Y37543D01*
X39513Y37498D01*
X38422D01*
X38407Y37521D01*
X38352Y37558D01*
X38287Y37571D01*
X38223Y37558D01*
X38168Y37521D01*
X38131Y37466D01*
X38118Y37402D01*
X38125Y37368D01*
X38100Y37354D01*
X38059Y37384D01*
X38063Y37402D01*
X38050Y37466D01*
X38013Y37521D01*
X37958Y37558D01*
X37894Y37571D01*
X37829Y37558D01*
X37774Y37521D01*
X37737Y37466D01*
X37724Y37402D01*
X37737Y37337D01*
X37774Y37282D01*
X37829Y37245D01*
X37894Y37232D01*
X37911Y37236D01*
X37941Y37196D01*
X37927Y37170D01*
X37894Y37177D01*
X37829Y37164D01*
X37774Y37128D01*
X37737Y37073D01*
X37724Y37008D01*
X37737Y36943D01*
X37774Y36888D01*
X37829Y36852D01*
X37894Y36839D01*
X37911Y36842D01*
X37941Y36802D01*
X37927Y36777D01*
X37894Y36783D01*
X37829Y36771D01*
X37774Y36734D01*
X37737Y36679D01*
X37724Y36614D01*
X37737Y36549D01*
X37774Y36494D01*
X37829Y36458D01*
X37894Y36445D01*
X37911Y36448D01*
X37941Y36408D01*
X37927Y36383D01*
X37894Y36390D01*
X37829Y36377D01*
X37774Y36340D01*
X37737Y36285D01*
X37724Y36220D01*
X37737Y36156D01*
X37774Y36101D01*
X37829Y36064D01*
X37894Y36051D01*
X37958Y36064D01*
X38013Y36101D01*
X38050Y36156D01*
X38063Y36220D01*
X38050Y36285D01*
X38049Y36287D01*
X38067Y36314D01*
X38117Y36311D01*
X38131Y36285D01*
X38118Y36220D01*
X38131Y36156D01*
X38168Y36101D01*
X38223Y36064D01*
X38287Y36051D01*
X38352Y36064D01*
X38407Y36101D01*
X38422Y36124D01*
X44350D01*
Y33266D01*
X44062D01*
X44035Y33306D01*
X44033Y33310D01*
X44068Y33363D01*
X44080Y33425D01*
X44068Y33488D01*
X44033Y33541D01*
X43980Y33576D01*
X43917Y33588D01*
X43855Y33576D01*
X43802Y33541D01*
X43767Y33488D01*
X43754Y33425D01*
X43767Y33363D01*
X43705Y33321D01*
X43697Y33320D01*
X43644Y33285D01*
X43609Y33232D01*
X43597Y33169D01*
X43609Y33107D01*
X43644Y33054D01*
X43697Y33019D01*
X43760Y33006D01*
X43822Y33019D01*
X43875Y33054D01*
X43888Y33072D01*
X44350D01*
Y32872D01*
X43907D01*
X43895Y32891D01*
X43842Y32926D01*
X43780Y32939D01*
X43717Y32926D01*
X43664Y32891D01*
X43629Y32838D01*
X43616Y32776D01*
X43629Y32713D01*
X43664Y32660D01*
X43717Y32625D01*
X43780Y32612D01*
X43842Y32625D01*
X43895Y32660D01*
X43907Y32679D01*
X44350D01*
Y31007D01*
X43861D01*
X42671Y32198D01*
X42637Y32220D01*
X42598Y32228D01*
X39514D01*
X39505Y32241D01*
X39452Y32277D01*
X39390Y32289D01*
X39327Y32277D01*
X39274Y32241D01*
X39239Y32188D01*
X39227Y32126D01*
X39239Y32064D01*
X39274Y32011D01*
X39327Y31975D01*
X39390Y31963D01*
X39452Y31975D01*
X39505Y32011D01*
X39514Y32024D01*
X42556D01*
X43747Y30833D01*
X43780Y30811D01*
X43819Y30804D01*
X44350D01*
Y30752D01*
X43703D01*
X42710Y31745D01*
X42677Y31767D01*
X42638Y31775D01*
X39514D01*
X39505Y31789D01*
X39452Y31824D01*
X39390Y31836D01*
X39327Y31824D01*
X39274Y31789D01*
X39239Y31736D01*
X39227Y31673D01*
X39239Y31611D01*
X39274Y31558D01*
X39327Y31523D01*
X39390Y31510D01*
X39452Y31523D01*
X39505Y31558D01*
X39514Y31571D01*
X42596D01*
X43508Y30658D01*
X43489Y30612D01*
X23996D01*
Y30948D01*
X24041Y30970D01*
X24062Y30954D01*
X24125Y30928D01*
X24193Y30919D01*
X24261Y30928D01*
X24324Y30954D01*
X24378Y30996D01*
X24420Y31050D01*
X24446Y31113D01*
X24455Y31181D01*
X24446Y31249D01*
X24420Y31312D01*
X24378Y31367D01*
X24324Y31408D01*
X24261Y31434D01*
X24193Y31443D01*
X24125Y31434D01*
X24062Y31408D01*
X24041Y31392D01*
X23996Y31414D01*
Y33168D01*
X24041Y33190D01*
X24081Y33159D01*
X24145Y33133D01*
X24213Y33124D01*
X24280Y33133D01*
X24344Y33159D01*
X24398Y33200D01*
X24440Y33255D01*
X24466Y33318D01*
X24475Y33386D01*
X24466Y33454D01*
X24440Y33517D01*
X24398Y33571D01*
X24344Y33613D01*
X24280Y33639D01*
X24213Y33648D01*
X24145Y33639D01*
X24081Y33613D01*
X24041Y33582D01*
X23996Y33604D01*
Y42307D01*
X24040Y42331D01*
X24071Y42310D01*
X24134Y42297D01*
X24196Y42310D01*
X24249Y42345D01*
X24285Y42398D01*
X24297Y42461D01*
X24285Y42523D01*
X24249Y42576D01*
X24196Y42611D01*
X24134Y42624D01*
X24071Y42611D01*
X24040Y42590D01*
X23996Y42614D01*
Y43996D01*
X24840D01*
X24857Y43976D01*
X24869Y43914D01*
X24904Y43861D01*
X24957Y43826D01*
X25020Y43813D01*
X25082Y43826D01*
X25135Y43861D01*
X25170Y43914D01*
X25183Y43976D01*
X25199Y43996D01*
X25265D01*
X25280Y43948D01*
X25259Y43934D01*
X25223Y43881D01*
X25211Y43819D01*
X25223Y43756D01*
X25259Y43704D01*
X25312Y43668D01*
X25374Y43656D01*
X25436Y43668D01*
X25489Y43704D01*
X25525Y43756D01*
X25537Y43819D01*
X25525Y43881D01*
X25489Y43934D01*
X25468Y43948D01*
X25483Y43996D01*
X28058D01*
X28079Y43965D01*
X28138Y43925D01*
X28209Y43911D01*
X28279Y43925D01*
X28338Y43965D01*
X28359Y43996D01*
X34469D01*
X34470Y43995D01*
D02*
G37*
G36*
X40492Y37108D02*
X44350D01*
Y36908D01*
X40571D01*
X40545Y36903D01*
X40213D01*
X40190Y36945D01*
X40203Y37008D01*
X40190Y37070D01*
X40213Y37113D01*
X40466D01*
X40492Y37108D01*
D02*
G37*
G36*
X36222Y42322D02*
Y40591D01*
X35952Y40321D01*
X35925Y40327D01*
X35860Y40314D01*
X35860Y40314D01*
X35860Y40314D01*
X35818Y40317D01*
D01*
X35818Y40317D01*
X35825Y40354D01*
Y41274D01*
X35864Y41306D01*
X35925Y41294D01*
X35988Y41306D01*
X36041Y41341D01*
X36076Y41394D01*
X36088Y41457D01*
X36076Y41519D01*
X36041Y41572D01*
X35988Y41607D01*
X35925Y41620D01*
X35864Y41608D01*
X35825Y41639D01*
Y42654D01*
X35871Y42673D01*
X36222Y42322D01*
D02*
G37*
G36*
X44350Y43779D02*
X43365Y42794D01*
X37815D01*
X37778Y42786D01*
X37746Y42765D01*
X36462Y41481D01*
X36416Y41500D01*
Y42362D01*
X36408Y42399D01*
X36387Y42431D01*
X36022Y42796D01*
Y43996D01*
X38108D01*
X38117Y43953D01*
X38152Y43900D01*
X38205Y43865D01*
X38268Y43853D01*
X38330Y43865D01*
X38383Y43900D01*
X38418Y43953D01*
X38427Y43996D01*
X40184D01*
X40205Y43965D01*
X40264Y43925D01*
X40335Y43911D01*
X40405Y43925D01*
X40464Y43965D01*
X40485Y43996D01*
X44350D01*
Y43779D01*
D02*
G37*
%LPC*%
G36*
X27392Y36118D02*
X27329Y36105D01*
X27276Y36070D01*
X27241Y36017D01*
X27229Y35955D01*
X27241Y35892D01*
X27276Y35839D01*
X27329Y35804D01*
X27392Y35792D01*
X27454Y35804D01*
X27507Y35839D01*
X27542Y35892D01*
X27555Y35955D01*
X27542Y36017D01*
X27507Y36070D01*
X27454Y36105D01*
X27392Y36118D01*
D02*
G37*
G36*
X35531Y35996D02*
X35467Y35983D01*
X35412Y35946D01*
X35375Y35892D01*
X35362Y35827D01*
X35375Y35762D01*
X35376Y35761D01*
X35348Y35719D01*
X35335Y35722D01*
X34528D01*
X34507Y35762D01*
X34520Y35827D01*
X34507Y35892D01*
X34470Y35946D01*
X34415Y35983D01*
X34350Y35996D01*
X34286Y35983D01*
X34231Y35946D01*
X34194Y35892D01*
X34181Y35827D01*
X34194Y35762D01*
X34172Y35722D01*
X33392D01*
X33314Y35800D01*
X33319Y35827D01*
X33306Y35892D01*
X33269Y35946D01*
X33214Y35983D01*
X33150Y35996D01*
X33085Y35983D01*
X33030Y35946D01*
X32993Y35892D01*
X32980Y35827D01*
X32993Y35762D01*
X33030Y35707D01*
X33085Y35670D01*
X33150Y35658D01*
X33177Y35663D01*
X33278Y35561D01*
X33309Y35540D01*
X33346Y35533D01*
X33372Y35538D01*
X34960D01*
X34981Y35498D01*
X34969Y35433D01*
X34974Y35406D01*
X34704Y35136D01*
X34092D01*
X34076Y35159D01*
X34021Y35196D01*
X33957Y35209D01*
X33892Y35196D01*
X33837Y35159D01*
X33800Y35104D01*
X33787Y35039D01*
X33800Y34975D01*
X33837Y34920D01*
X33892Y34883D01*
X33957Y34870D01*
X34021Y34883D01*
X34076Y34920D01*
X34092Y34943D01*
X34744D01*
X34781Y34950D01*
X34813Y34971D01*
X35111Y35269D01*
X35138Y35264D01*
X35203Y35277D01*
X35257Y35313D01*
X35294Y35368D01*
X35307Y35433D01*
X35300Y35467D01*
X35326Y35480D01*
X35366Y35450D01*
X35362Y35433D01*
X35375Y35368D01*
X35412Y35313D01*
X35467Y35277D01*
X35531Y35264D01*
X35596Y35277D01*
X35651Y35313D01*
X35688Y35368D01*
X35701Y35433D01*
X35688Y35498D01*
X35651Y35553D01*
X35596Y35589D01*
X35531Y35602D01*
X35514Y35599D01*
X35484Y35639D01*
X35498Y35664D01*
X35531Y35658D01*
X35596Y35670D01*
X35651Y35707D01*
X35688Y35762D01*
X35701Y35827D01*
X35688Y35892D01*
X35651Y35946D01*
X35596Y35983D01*
X35531Y35996D01*
D02*
G37*
G36*
X34744Y36390D02*
X34679Y36377D01*
X34624Y36340D01*
X34588Y36285D01*
X34575Y36220D01*
X34588Y36156D01*
X34624Y36101D01*
X34679Y36064D01*
X34744Y36051D01*
X34809Y36064D01*
X34864Y36101D01*
X34900Y36156D01*
X34913Y36220D01*
X34900Y36285D01*
X34864Y36340D01*
X34809Y36377D01*
X34744Y36390D01*
D02*
G37*
G36*
X37106Y36390D02*
X37042Y36377D01*
X36987Y36340D01*
X36950Y36285D01*
X36937Y36220D01*
X36950Y36156D01*
X36987Y36101D01*
X37042Y36064D01*
X37106Y36051D01*
X37171Y36064D01*
X37226Y36101D01*
X37263Y36156D01*
X37276Y36220D01*
X37263Y36285D01*
X37226Y36340D01*
X37171Y36377D01*
X37106Y36390D01*
D02*
G37*
G36*
X26289Y36374D02*
X26227Y36361D01*
X26174Y36326D01*
X26139Y36273D01*
X26126Y36211D01*
X26139Y36148D01*
X26174Y36095D01*
X26227Y36060D01*
X26289Y36047D01*
X26352Y36060D01*
X26405Y36095D01*
X26440Y36148D01*
X26453Y36211D01*
X26440Y36273D01*
X26405Y36326D01*
X26352Y36361D01*
X26289Y36374D01*
D02*
G37*
G36*
X25492Y36029D02*
X25430Y36017D01*
X25377Y35982D01*
X25341Y35929D01*
X25329Y35866D01*
X25341Y35804D01*
X25377Y35751D01*
X25430Y35715D01*
X25492Y35703D01*
X25555Y35715D01*
X25607Y35751D01*
X25643Y35804D01*
X25655Y35866D01*
X25643Y35929D01*
X25607Y35982D01*
X25555Y36017D01*
X25492Y36029D01*
D02*
G37*
G36*
X35925Y37571D02*
X35860Y37558D01*
X35806Y37521D01*
X35769Y37466D01*
X35756Y37402D01*
X35769Y37337D01*
X35806Y37282D01*
X35860Y37245D01*
X35925Y37232D01*
X35990Y37245D01*
X36045Y37282D01*
X36082Y37337D01*
X36094Y37402D01*
X36082Y37466D01*
X36045Y37521D01*
X35990Y37558D01*
X35925Y37571D01*
D02*
G37*
G36*
X36713Y35996D02*
X36648Y35983D01*
X36593Y35946D01*
X36556Y35892D01*
X36543Y35827D01*
X36556Y35762D01*
X36593Y35707D01*
X36648Y35670D01*
X36713Y35658D01*
X36777Y35670D01*
X36832Y35707D01*
X36869Y35762D01*
X36882Y35827D01*
X36869Y35892D01*
X36832Y35946D01*
X36777Y35983D01*
X36713Y35996D01*
D02*
G37*
G36*
X37106D02*
X37042Y35983D01*
X36987Y35946D01*
X36950Y35892D01*
X36937Y35827D01*
X36950Y35762D01*
X36987Y35707D01*
X37042Y35670D01*
X37106Y35658D01*
X37171Y35670D01*
X37226Y35707D01*
X37263Y35762D01*
X37276Y35827D01*
X37263Y35892D01*
X37226Y35946D01*
X37171Y35983D01*
X37106Y35996D01*
D02*
G37*
G36*
X38287D02*
X38223Y35983D01*
X38168Y35946D01*
X38131Y35892D01*
X38118Y35827D01*
X38131Y35762D01*
X38168Y35707D01*
X38223Y35670D01*
X38287Y35658D01*
X38352Y35670D01*
X38407Y35707D01*
X38444Y35762D01*
X38457Y35827D01*
X38444Y35892D01*
X38407Y35946D01*
X38352Y35983D01*
X38287Y35996D01*
D02*
G37*
G36*
X37500D02*
X37435Y35983D01*
X37380Y35946D01*
X37344Y35892D01*
X37331Y35827D01*
X37344Y35762D01*
X37380Y35707D01*
X37435Y35670D01*
X37500Y35658D01*
X37565Y35670D01*
X37620Y35707D01*
X37656Y35762D01*
X37669Y35827D01*
X37656Y35892D01*
X37620Y35946D01*
X37565Y35983D01*
X37500Y35996D01*
D02*
G37*
G36*
X35138Y36390D02*
X35073Y36377D01*
X35018Y36340D01*
X34981Y36285D01*
X34969Y36220D01*
X34981Y36156D01*
X35018Y36101D01*
X35073Y36064D01*
X35138Y36051D01*
X35203Y36064D01*
X35257Y36101D01*
X35294Y36156D01*
X35307Y36220D01*
X35294Y36285D01*
X35257Y36340D01*
X35203Y36377D01*
X35138Y36390D01*
D02*
G37*
G36*
X37106Y37177D02*
X37042Y37164D01*
X36987Y37128D01*
X36950Y37073D01*
X36937Y37008D01*
X36950Y36943D01*
X36987Y36888D01*
X37042Y36852D01*
X37106Y36839D01*
X37171Y36852D01*
X37226Y36888D01*
X37263Y36943D01*
X37276Y37008D01*
X37263Y37073D01*
X37226Y37128D01*
X37171Y37164D01*
X37106Y37177D01*
D02*
G37*
G36*
X28927Y37141D02*
X28865Y37129D01*
X28812Y37094D01*
X28776Y37041D01*
X28764Y36978D01*
X28776Y36916D01*
X28812Y36863D01*
X28865Y36828D01*
X28927Y36815D01*
X28990Y36828D01*
X29043Y36863D01*
X29078Y36916D01*
X29090Y36978D01*
X29078Y37041D01*
X29043Y37094D01*
X28990Y37129D01*
X28927Y37141D01*
D02*
G37*
G36*
X30118Y36915D02*
X30056Y36903D01*
X30003Y36867D01*
X29967Y36814D01*
X29955Y36752D01*
X29967Y36690D01*
X30003Y36637D01*
X30056Y36601D01*
X30118Y36589D01*
X30181Y36601D01*
X30233Y36637D01*
X30269Y36690D01*
X30281Y36752D01*
X30269Y36814D01*
X30233Y36867D01*
X30181Y36903D01*
X30118Y36915D01*
D02*
G37*
G36*
X36319Y37177D02*
X36254Y37164D01*
X36199Y37128D01*
X36163Y37073D01*
X36150Y37008D01*
X36163Y36943D01*
X36199Y36888D01*
X36254Y36852D01*
X36319Y36839D01*
X36384Y36852D01*
X36439Y36888D01*
X36475Y36943D01*
X36488Y37008D01*
X36475Y37073D01*
X36439Y37128D01*
X36384Y37164D01*
X36319Y37177D01*
D02*
G37*
G36*
X35925D02*
X35860Y37164D01*
X35806Y37128D01*
X35769Y37073D01*
X35756Y37008D01*
X35769Y36943D01*
X35806Y36888D01*
X35860Y36852D01*
X35925Y36839D01*
X35990Y36852D01*
X36045Y36888D01*
X36082Y36943D01*
X36094Y37008D01*
X36082Y37073D01*
X36045Y37128D01*
X35990Y37164D01*
X35925Y37177D01*
D02*
G37*
G36*
X36713D02*
X36648Y37164D01*
X36593Y37128D01*
X36556Y37073D01*
X36543Y37008D01*
X36556Y36943D01*
X36593Y36888D01*
X36648Y36852D01*
X36713Y36839D01*
X36777Y36852D01*
X36832Y36888D01*
X36869Y36943D01*
X36882Y37008D01*
X36869Y37073D01*
X36832Y37128D01*
X36777Y37164D01*
X36713Y37177D01*
D02*
G37*
G36*
X27382Y37269D02*
X27319Y37257D01*
X27267Y37222D01*
X27231Y37169D01*
X27219Y37106D01*
X27231Y37044D01*
X27267Y36991D01*
X27319Y36956D01*
X27382Y36943D01*
X27444Y36956D01*
X27497Y36991D01*
X27533Y37044D01*
X27545Y37106D01*
X27533Y37169D01*
X27497Y37222D01*
X27444Y37257D01*
X27382Y37269D01*
D02*
G37*
G36*
X37500Y36783D02*
X37435Y36771D01*
X37380Y36734D01*
X37344Y36679D01*
X37331Y36614D01*
X37344Y36549D01*
X37380Y36494D01*
X37435Y36458D01*
X37500Y36445D01*
X37565Y36458D01*
X37620Y36494D01*
X37656Y36549D01*
X37669Y36614D01*
X37656Y36679D01*
X37620Y36734D01*
X37565Y36771D01*
X37500Y36783D01*
D02*
G37*
G36*
X35138D02*
X35073Y36771D01*
X35018Y36734D01*
X34981Y36679D01*
X34969Y36614D01*
X34981Y36549D01*
X35018Y36494D01*
X35073Y36458D01*
X35138Y36445D01*
X35203Y36458D01*
X35257Y36494D01*
X35294Y36549D01*
X35307Y36614D01*
X35294Y36679D01*
X35257Y36734D01*
X35203Y36771D01*
X35138Y36783D01*
D02*
G37*
G36*
X33957D02*
X33892Y36771D01*
X33837Y36734D01*
X33800Y36679D01*
X33787Y36614D01*
X33800Y36549D01*
X33837Y36494D01*
X33892Y36458D01*
X33957Y36445D01*
X34021Y36458D01*
X34076Y36494D01*
X34113Y36549D01*
X34126Y36614D01*
X34113Y36679D01*
X34076Y36734D01*
X34021Y36771D01*
X33957Y36783D01*
D02*
G37*
G36*
X30049Y37397D02*
X29987Y37385D01*
X29934Y37350D01*
X29898Y37297D01*
X29886Y37234D01*
X29898Y37172D01*
X29934Y37119D01*
X29987Y37084D01*
X30049Y37071D01*
X30112Y37084D01*
X30165Y37119D01*
X30200Y37172D01*
X30212Y37234D01*
X30200Y37297D01*
X30165Y37350D01*
X30112Y37385D01*
X30049Y37397D01*
D02*
G37*
G36*
X36319Y36783D02*
X36254Y36771D01*
X36199Y36734D01*
X36163Y36679D01*
X36150Y36614D01*
X36163Y36549D01*
X36199Y36495D01*
X36254Y36458D01*
X36319Y36445D01*
X36384Y36458D01*
X36439Y36495D01*
X36475Y36549D01*
X36488Y36614D01*
X36475Y36679D01*
X36439Y36734D01*
X36384Y36771D01*
X36319Y36783D01*
D02*
G37*
G36*
X35925D02*
X35860Y36771D01*
X35806Y36734D01*
X35769Y36679D01*
X35756Y36614D01*
X35769Y36549D01*
X35806Y36495D01*
X35860Y36458D01*
X35925Y36445D01*
X35990Y36458D01*
X36045Y36495D01*
X36082Y36549D01*
X36094Y36614D01*
X36082Y36679D01*
X36045Y36734D01*
X35990Y36771D01*
X35925Y36783D01*
D02*
G37*
G36*
X33740Y32545D02*
X33678Y32533D01*
X33625Y32497D01*
X33589Y32444D01*
X33577Y32382D01*
X33589Y32319D01*
X33625Y32267D01*
X33678Y32231D01*
X33740Y32219D01*
X33803Y32231D01*
X33856Y32267D01*
X33891Y32319D01*
X33903Y32382D01*
X33891Y32444D01*
X33856Y32497D01*
X33803Y32533D01*
X33740Y32545D01*
D02*
G37*
G36*
X27047Y32525D02*
X26985Y32513D01*
X26932Y32478D01*
X26897Y32425D01*
X26884Y32362D01*
X26897Y32300D01*
X26932Y32247D01*
X26985Y32211D01*
X27047Y32199D01*
X27110Y32211D01*
X27163Y32247D01*
X27198Y32300D01*
X27210Y32362D01*
X27198Y32425D01*
X27163Y32478D01*
X27110Y32513D01*
X27047Y32525D01*
D02*
G37*
G36*
X36732Y32210D02*
X36670Y32198D01*
X36617Y32163D01*
X36582Y32110D01*
X36569Y32047D01*
X36582Y31985D01*
X36617Y31932D01*
X36670Y31897D01*
X36732Y31884D01*
X36795Y31897D01*
X36848Y31932D01*
X36883Y31985D01*
X36895Y32047D01*
X36883Y32110D01*
X36848Y32163D01*
X36795Y32198D01*
X36732Y32210D01*
D02*
G37*
G36*
X40492Y32604D02*
X40430Y32592D01*
X40377Y32556D01*
X40341Y32503D01*
X40329Y32441D01*
X40341Y32379D01*
X40377Y32326D01*
X40430Y32290D01*
X40492Y32278D01*
X40555Y32290D01*
X40607Y32326D01*
X40643Y32379D01*
X40655Y32441D01*
X40643Y32503D01*
X40607Y32556D01*
X40555Y32592D01*
X40492Y32604D01*
D02*
G37*
G36*
X40354Y33017D02*
X40292Y33005D01*
X40239Y32970D01*
X40204Y32917D01*
X40191Y32854D01*
X40204Y32792D01*
X40239Y32739D01*
X40292Y32704D01*
X40354Y32691D01*
X40417Y32704D01*
X40470Y32739D01*
X40505Y32792D01*
X40517Y32854D01*
X40505Y32917D01*
X40470Y32970D01*
X40417Y33005D01*
X40354Y33017D01*
D02*
G37*
G36*
X35531Y32899D02*
X35469Y32887D01*
X35416Y32852D01*
X35381Y32799D01*
X35368Y32736D01*
X35381Y32674D01*
X35416Y32621D01*
X35469Y32585D01*
X35531Y32573D01*
X35594Y32585D01*
X35647Y32621D01*
X35682Y32674D01*
X35695Y32736D01*
X35682Y32799D01*
X35647Y32852D01*
X35594Y32887D01*
X35531Y32899D01*
D02*
G37*
G36*
X31219Y32606D02*
X31157Y32593D01*
X31104Y32558D01*
X31068Y32505D01*
X31056Y32442D01*
X31068Y32380D01*
X31104Y32327D01*
X31157Y32292D01*
X31219Y32279D01*
X31281Y32292D01*
X31334Y32327D01*
X31370Y32380D01*
X31382Y32442D01*
X31370Y32505D01*
X31334Y32558D01*
X31281Y32593D01*
X31219Y32606D01*
D02*
G37*
G36*
X33760Y31462D02*
X33697Y31450D01*
X33644Y31415D01*
X33609Y31362D01*
X33597Y31299D01*
X33609Y31237D01*
X33644Y31184D01*
X33697Y31149D01*
X33760Y31136D01*
X33822Y31149D01*
X33875Y31184D01*
X33911Y31237D01*
X33923Y31299D01*
X33911Y31362D01*
X33875Y31415D01*
X33822Y31450D01*
X33760Y31462D01*
D02*
G37*
G36*
X31161Y31265D02*
X31099Y31253D01*
X31046Y31218D01*
X31011Y31165D01*
X30998Y31102D01*
X31011Y31040D01*
X31046Y30987D01*
X31099Y30952D01*
X31161Y30939D01*
X31224Y30952D01*
X31277Y30987D01*
X31312Y31040D01*
X31325Y31102D01*
X31312Y31165D01*
X31277Y31218D01*
X31224Y31253D01*
X31161Y31265D01*
D02*
G37*
G36*
X24961Y31463D02*
X24893Y31454D01*
X24830Y31428D01*
X24775Y31386D01*
X24734Y31332D01*
X24707Y31269D01*
X24698Y31201D01*
X24707Y31133D01*
X24734Y31070D01*
X24775Y31015D01*
X24830Y30974D01*
X24893Y30947D01*
X24961Y30939D01*
X25029Y30947D01*
X25092Y30974D01*
X25146Y31015D01*
X25188Y31070D01*
X25214Y31133D01*
X25223Y31201D01*
X25214Y31269D01*
X25188Y31332D01*
X25146Y31386D01*
X25092Y31428D01*
X25029Y31454D01*
X24961Y31463D01*
D02*
G37*
G36*
X41280Y31502D02*
X41217Y31489D01*
X41164Y31454D01*
X41129Y31401D01*
X41116Y31339D01*
X41129Y31276D01*
X41164Y31223D01*
X41217Y31188D01*
X41280Y31175D01*
X41342Y31188D01*
X41395Y31223D01*
X41430Y31276D01*
X41443Y31339D01*
X41430Y31401D01*
X41395Y31454D01*
X41342Y31489D01*
X41280Y31502D01*
D02*
G37*
G36*
X37165Y31797D02*
X37103Y31785D01*
X37050Y31749D01*
X37016Y31699D01*
X37001D01*
X36961Y31707D01*
X36946Y31730D01*
X36893Y31765D01*
X36831Y31777D01*
X36768Y31765D01*
X36715Y31730D01*
X36680Y31677D01*
X36668Y31614D01*
X36680Y31552D01*
X36715Y31499D01*
X36768Y31463D01*
X36831Y31451D01*
X36893Y31463D01*
X36946Y31499D01*
X36980Y31549D01*
X36995D01*
X37035Y31541D01*
X37050Y31518D01*
X37103Y31483D01*
X37165Y31471D01*
X37228Y31483D01*
X37281Y31518D01*
X37316Y31571D01*
X37328Y31634D01*
X37316Y31696D01*
X37281Y31749D01*
X37228Y31785D01*
X37165Y31797D01*
D02*
G37*
G36*
X29154Y31915D02*
X29091Y31903D01*
X29038Y31867D01*
X29003Y31814D01*
X28990Y31752D01*
X29003Y31690D01*
X29038Y31637D01*
X29091Y31601D01*
X29154Y31589D01*
X29216Y31601D01*
X29269Y31637D01*
X29304Y31690D01*
X29317Y31752D01*
X29304Y31814D01*
X29269Y31867D01*
X29216Y31903D01*
X29154Y31915D01*
D02*
G37*
G36*
X32756Y36620D02*
X32693Y36607D01*
X32641Y36572D01*
X32605Y36519D01*
X32593Y36457D01*
X32605Y36394D01*
X32641Y36341D01*
X32659Y36329D01*
Y34843D01*
X32666Y34805D01*
X32687Y34774D01*
X34459Y33002D01*
X34490Y32981D01*
X34528Y32974D01*
X34893D01*
X34908Y32926D01*
X34885Y32911D01*
X34849Y32858D01*
X34837Y32795D01*
X34849Y32733D01*
X34885Y32680D01*
X34938Y32645D01*
X35000Y32632D01*
X35062Y32645D01*
X35115Y32680D01*
X35151Y32733D01*
X35163Y32795D01*
X35151Y32858D01*
X35115Y32911D01*
X35092Y32926D01*
X35107Y32974D01*
X38790D01*
X38802Y32956D01*
X38855Y32920D01*
X38917Y32908D01*
X38980Y32920D01*
X39033Y32956D01*
X39068Y33008D01*
X39080Y33071D01*
X39070Y33125D01*
X39113Y33143D01*
D01*
X39116Y33144D01*
X39137Y33113D01*
X39150Y33104D01*
Y32719D01*
X37614Y31184D01*
X37598Y31187D01*
X37536Y31174D01*
X37483Y31139D01*
X37448Y31086D01*
X37435Y31024D01*
X37448Y30961D01*
X37483Y30908D01*
X37536Y30873D01*
X37598Y30860D01*
X37661Y30873D01*
X37714Y30908D01*
X37749Y30961D01*
X37762Y31024D01*
X37758Y31039D01*
X39324Y32605D01*
X39346Y32638D01*
X39354Y32677D01*
Y33104D01*
X39367Y33113D01*
X39403Y33166D01*
X39415Y33228D01*
X39403Y33291D01*
X39367Y33344D01*
X39314Y33379D01*
X39252Y33391D01*
X39190Y33379D01*
X39137Y33344D01*
X39101Y33291D01*
X39089Y33228D01*
X39100Y33174D01*
X39057Y33157D01*
D01*
X39053Y33155D01*
X39033Y33186D01*
X38980Y33222D01*
X38917Y33234D01*
X38855Y33222D01*
X38802Y33186D01*
X38790Y33168D01*
X38726D01*
X38694Y33206D01*
X38706Y33268D01*
X38694Y33330D01*
X38659Y33383D01*
X38606Y33418D01*
X38543Y33431D01*
X38481Y33418D01*
X38428Y33383D01*
X38393Y33330D01*
X38380Y33268D01*
X38392Y33206D01*
X38361Y33168D01*
X34568D01*
X32853Y34883D01*
Y36329D01*
X32871Y36341D01*
X32907Y36394D01*
X32919Y36457D01*
X32907Y36519D01*
X32871Y36572D01*
X32818Y36607D01*
X32756Y36620D01*
D02*
G37*
G36*
X33563Y35209D02*
X33498Y35196D01*
X33443Y35159D01*
X33407Y35104D01*
X33394Y35039D01*
X33407Y34975D01*
X33443Y34920D01*
X33498Y34883D01*
X33563Y34870D01*
X33628Y34883D01*
X33683Y34920D01*
X33719Y34975D01*
X33732Y35039D01*
X33719Y35104D01*
X33683Y35159D01*
X33628Y35196D01*
X33563Y35209D01*
D02*
G37*
G36*
X33169D02*
X33105Y35196D01*
X33050Y35159D01*
X33013Y35104D01*
X33000Y35039D01*
X33013Y34975D01*
X33050Y34920D01*
X33105Y34883D01*
X33169Y34870D01*
X33234Y34883D01*
X33289Y34920D01*
X33326Y34975D01*
X33339Y35039D01*
X33326Y35104D01*
X33289Y35159D01*
X33234Y35196D01*
X33169Y35209D01*
D02*
G37*
G36*
X43150Y35084D02*
X43087Y35072D01*
X43034Y35037D01*
X42999Y34984D01*
X42986Y34921D01*
X42999Y34859D01*
X43034Y34806D01*
X43087Y34771D01*
X43150Y34758D01*
X43212Y34771D01*
X43265Y34806D01*
X43300Y34859D01*
X43313Y34921D01*
X43300Y34984D01*
X43265Y35037D01*
X43212Y35072D01*
X43150Y35084D01*
D02*
G37*
G36*
X28839Y35399D02*
X28776Y35387D01*
X28723Y35352D01*
X28688Y35299D01*
X28675Y35236D01*
X28688Y35174D01*
X28723Y35121D01*
X28776Y35085D01*
X28839Y35073D01*
X28901Y35085D01*
X28954Y35121D01*
X28989Y35174D01*
X29002Y35236D01*
X28989Y35299D01*
X28954Y35352D01*
X28901Y35387D01*
X28839Y35399D01*
D02*
G37*
G36*
X26201Y35852D02*
X26138Y35840D01*
X26085Y35804D01*
X26050Y35751D01*
X26038Y35689D01*
X26050Y35627D01*
X26085Y35574D01*
X26138Y35538D01*
X26201Y35526D01*
X26263Y35538D01*
X26316Y35574D01*
X26351Y35627D01*
X26364Y35689D01*
X26351Y35751D01*
X26316Y35804D01*
X26263Y35840D01*
X26201Y35852D01*
D02*
G37*
G36*
X28976Y35793D02*
X28914Y35781D01*
X28861Y35745D01*
X28826Y35692D01*
X28813Y35630D01*
X28826Y35567D01*
X28861Y35515D01*
X28914Y35479D01*
X28976Y35467D01*
X29039Y35479D01*
X29092Y35515D01*
X29127Y35567D01*
X29140Y35630D01*
X29127Y35692D01*
X29092Y35745D01*
X29039Y35781D01*
X28976Y35793D01*
D02*
G37*
G36*
X35925Y35996D02*
X35860Y35983D01*
X35806Y35946D01*
X35769Y35892D01*
X35756Y35827D01*
X35769Y35762D01*
X35806Y35707D01*
X35860Y35670D01*
X35925Y35658D01*
X35958Y35664D01*
X36376Y35246D01*
X36353Y35202D01*
X36319Y35209D01*
X36254Y35196D01*
X36199Y35159D01*
X36163Y35104D01*
X36150Y35039D01*
X36163Y34975D01*
X36199Y34920D01*
X36254Y34883D01*
X36319Y34870D01*
X36384Y34883D01*
X36439Y34920D01*
X36475Y34975D01*
X36488Y35039D01*
X36475Y35104D01*
X36474Y35106D01*
X36502Y35147D01*
X36516Y35144D01*
X38109D01*
X38131Y35104D01*
X38118Y35039D01*
X38131Y34975D01*
X38168Y34920D01*
X38223Y34883D01*
X38287Y34870D01*
X38352Y34883D01*
X38407Y34920D01*
X38444Y34975D01*
X38457Y35039D01*
X38444Y35104D01*
X38465Y35144D01*
X38931D01*
X38957Y35139D01*
X41299D01*
X41336Y35147D01*
X41368Y35168D01*
X41573Y35373D01*
X41594Y35368D01*
X41657Y35381D01*
X41710Y35416D01*
X41745Y35469D01*
X41758Y35531D01*
X41745Y35594D01*
X41710Y35647D01*
X41657Y35682D01*
X41594Y35695D01*
X41532Y35682D01*
X41479Y35647D01*
X41444Y35594D01*
X41431Y35531D01*
X41436Y35510D01*
X41259Y35333D01*
X38957D01*
X38931Y35328D01*
X38859D01*
X38837Y35368D01*
X38850Y35433D01*
X38837Y35498D01*
X38801Y35553D01*
X38746Y35589D01*
X38681Y35602D01*
X38616Y35589D01*
X38561Y35553D01*
X38525Y35498D01*
X38512Y35433D01*
X38525Y35368D01*
X38503Y35328D01*
X37678D01*
X37656Y35368D01*
X37669Y35433D01*
X37656Y35498D01*
X37620Y35553D01*
X37565Y35589D01*
X37500Y35602D01*
X37435Y35589D01*
X37380Y35553D01*
X37344Y35498D01*
X37331Y35433D01*
X37344Y35368D01*
X37322Y35328D01*
X36891D01*
X36869Y35368D01*
X36882Y35433D01*
X36869Y35498D01*
X36832Y35553D01*
X36777Y35589D01*
X36713Y35602D01*
X36648Y35589D01*
X36593Y35553D01*
X36556Y35498D01*
X36543Y35433D01*
X36550Y35399D01*
X36506Y35376D01*
X36088Y35794D01*
X36094Y35827D01*
X36082Y35892D01*
X36045Y35946D01*
X35990Y35983D01*
X35925Y35996D01*
D02*
G37*
G36*
X29094Y33923D02*
X29032Y33911D01*
X28979Y33875D01*
X28944Y33822D01*
X28931Y33760D01*
X28944Y33697D01*
X28979Y33644D01*
X29032Y33609D01*
X29094Y33597D01*
X29157Y33609D01*
X29210Y33644D01*
X29245Y33697D01*
X29258Y33760D01*
X29245Y33822D01*
X29210Y33875D01*
X29157Y33911D01*
X29094Y33923D01*
D02*
G37*
G36*
X36909Y33667D02*
X36847Y33655D01*
X36794Y33619D01*
X36759Y33566D01*
X36746Y33504D01*
X36759Y33442D01*
X36794Y33389D01*
X36847Y33353D01*
X36909Y33341D01*
X36972Y33353D01*
X37025Y33389D01*
X37060Y33442D01*
X37073Y33504D01*
X37060Y33566D01*
X37025Y33619D01*
X36972Y33655D01*
X36909Y33667D01*
D02*
G37*
G36*
X24980Y33668D02*
X24912Y33659D01*
X24849Y33633D01*
X24795Y33591D01*
X24753Y33537D01*
X24727Y33473D01*
X24718Y33406D01*
X24727Y33338D01*
X24753Y33274D01*
X24795Y33220D01*
X24849Y33178D01*
X24912Y33152D01*
X24980Y33143D01*
X25048Y33152D01*
X25111Y33178D01*
X25166Y33220D01*
X25207Y33274D01*
X25234Y33338D01*
X25243Y33406D01*
X25234Y33473D01*
X25207Y33537D01*
X25166Y33591D01*
X25111Y33633D01*
X25048Y33659D01*
X24980Y33668D01*
D02*
G37*
G36*
X28071Y34140D02*
X28009Y34128D01*
X27956Y34092D01*
X27921Y34039D01*
X27908Y33977D01*
X27921Y33915D01*
X27956Y33862D01*
X28009Y33826D01*
X28071Y33814D01*
X28134Y33826D01*
X28187Y33862D01*
X28222Y33915D01*
X28235Y33977D01*
X28222Y34039D01*
X28187Y34092D01*
X28134Y34128D01*
X28071Y34140D01*
D02*
G37*
G36*
X39980Y34907D02*
X39918Y34895D01*
X39865Y34859D01*
X39830Y34807D01*
X39817Y34744D01*
X39820Y34728D01*
X39674Y34582D01*
X39630Y34605D01*
X39638Y34646D01*
X39625Y34710D01*
X39588Y34765D01*
X39533Y34802D01*
X39469Y34815D01*
X39404Y34802D01*
X39349Y34765D01*
X39312Y34710D01*
X39299Y34646D01*
X39312Y34581D01*
X39349Y34526D01*
X39404Y34489D01*
X39469Y34476D01*
X39509Y34484D01*
X39532Y34440D01*
X39092Y34000D01*
X38412D01*
X38397Y34047D01*
X38442Y34078D01*
X38477Y34130D01*
X38479Y34138D01*
X38520Y34200D01*
X38583Y34187D01*
X38645Y34200D01*
X38698Y34235D01*
X38733Y34288D01*
X38784Y34278D01*
X38786Y34268D01*
X38822Y34215D01*
X38875Y34180D01*
X38937Y34168D01*
X38999Y34180D01*
X39052Y34215D01*
X39088Y34268D01*
X39100Y34331D01*
X39088Y34393D01*
X39052Y34446D01*
X38999Y34481D01*
X38937Y34494D01*
X38875Y34481D01*
X38822Y34446D01*
X38786Y34393D01*
X38735Y34403D01*
X38733Y34413D01*
X38698Y34466D01*
X38645Y34501D01*
X38583Y34514D01*
X38520Y34501D01*
X38467Y34466D01*
X38432Y34413D01*
X38430Y34405D01*
X38389Y34344D01*
X38327Y34356D01*
X38264Y34344D01*
X38211Y34308D01*
X38176Y34255D01*
X38164Y34193D01*
X38176Y34130D01*
X38211Y34078D01*
X38256Y34047D01*
X38242Y34000D01*
X37850D01*
X37805Y34045D01*
X37773Y34066D01*
X37736Y34073D01*
X36575D01*
X36538Y34066D01*
X36506Y34045D01*
X36400Y33938D01*
X36378Y33943D01*
X36321Y33931D01*
X36297Y33975D01*
X36478Y34155D01*
X36516Y34148D01*
X36578Y34160D01*
X36631Y34196D01*
X36666Y34249D01*
X36679Y34311D01*
X36666Y34373D01*
X36631Y34426D01*
X36578Y34462D01*
X36516Y34474D01*
X36453Y34462D01*
X36400Y34426D01*
X36365Y34373D01*
X36353Y34311D01*
X36354Y34306D01*
X35888Y33840D01*
X35866Y33844D01*
X35804Y33832D01*
X35751Y33796D01*
X35715Y33744D01*
X35703Y33681D01*
X35715Y33619D01*
X35751Y33566D01*
X35804Y33530D01*
X35866Y33518D01*
X35929Y33530D01*
X35982Y33566D01*
X36017Y33619D01*
X36029Y33681D01*
X36025Y33703D01*
X36182Y33860D01*
X36226Y33836D01*
X36215Y33780D01*
X36227Y33717D01*
X36263Y33664D01*
X36316Y33629D01*
X36378Y33616D01*
X36440Y33629D01*
X36493Y33664D01*
X36529Y33717D01*
X36541Y33780D01*
X36537Y33801D01*
X36615Y33880D01*
X37151D01*
X37174Y33835D01*
X37152Y33803D01*
X37140Y33740D01*
X37152Y33678D01*
X37188Y33625D01*
X37241Y33589D01*
X37303Y33577D01*
X37366Y33589D01*
X37418Y33625D01*
X37454Y33678D01*
X37466Y33740D01*
X37454Y33803D01*
X37418Y33856D01*
X37426Y33880D01*
X37696D01*
X37728Y33847D01*
X37743Y33826D01*
X37776Y33803D01*
X37815Y33796D01*
X39134D01*
X39173Y33803D01*
X39206Y33826D01*
X39965Y34584D01*
X39980Y34581D01*
X40043Y34593D01*
X40096Y34629D01*
X40131Y34682D01*
X40143Y34744D01*
X40131Y34807D01*
X40096Y34859D01*
X40043Y34895D01*
X39980Y34907D01*
D02*
G37*
G36*
X28839Y34789D02*
X28776Y34777D01*
X28723Y34741D01*
X28688Y34688D01*
X28675Y34626D01*
X28688Y34564D01*
X28723Y34511D01*
X28776Y34475D01*
X28839Y34463D01*
X28901Y34475D01*
X28954Y34511D01*
X28989Y34564D01*
X29002Y34626D01*
X28989Y34688D01*
X28954Y34741D01*
X28901Y34777D01*
X28839Y34789D01*
D02*
G37*
G36*
X41693Y34651D02*
X41630Y34639D01*
X41578Y34604D01*
X41542Y34551D01*
X41530Y34488D01*
X41542Y34426D01*
X41578Y34373D01*
X41630Y34337D01*
X41693Y34325D01*
X41755Y34337D01*
X41808Y34373D01*
X41844Y34426D01*
X41856Y34488D01*
X41844Y34551D01*
X41808Y34604D01*
X41755Y34639D01*
X41693Y34651D01*
D02*
G37*
G36*
X36319Y37571D02*
X36254Y37558D01*
X36199Y37521D01*
X36163Y37466D01*
X36150Y37402D01*
X36163Y37337D01*
X36199Y37282D01*
X36254Y37245D01*
X36319Y37232D01*
X36384Y37245D01*
X36439Y37282D01*
X36475Y37337D01*
X36488Y37402D01*
X36475Y37466D01*
X36439Y37521D01*
X36384Y37558D01*
X36319Y37571D01*
D02*
G37*
G36*
X25492Y39651D02*
X25430Y39639D01*
X25377Y39604D01*
X25341Y39551D01*
X25329Y39488D01*
X25341Y39426D01*
X25377Y39373D01*
X25430Y39337D01*
X25492Y39325D01*
X25555Y39337D01*
X25607Y39373D01*
X25643Y39426D01*
X25655Y39488D01*
X25643Y39551D01*
X25607Y39604D01*
X25555Y39639D01*
X25492Y39651D01*
D02*
G37*
G36*
X34744Y39539D02*
X34679Y39526D01*
X34624Y39490D01*
X34588Y39435D01*
X34575Y39370D01*
X34588Y39305D01*
X34624Y39250D01*
X34679Y39214D01*
X34744Y39201D01*
X34809Y39214D01*
X34864Y39250D01*
X34900Y39305D01*
X34913Y39370D01*
X34900Y39435D01*
X34864Y39490D01*
X34809Y39526D01*
X34744Y39539D01*
D02*
G37*
G36*
X36319Y39539D02*
X36254Y39526D01*
X36199Y39490D01*
X36163Y39435D01*
X36150Y39370D01*
X36163Y39305D01*
X36199Y39250D01*
X36254Y39214D01*
X36319Y39201D01*
X36384Y39214D01*
X36439Y39250D01*
X36475Y39305D01*
X36488Y39370D01*
X36475Y39435D01*
X36439Y39490D01*
X36384Y39526D01*
X36319Y39539D01*
D02*
G37*
G36*
X35925Y39933D02*
X35860Y39920D01*
X35806Y39883D01*
X35769Y39829D01*
X35756Y39764D01*
X35769Y39699D01*
X35806Y39644D01*
X35860Y39607D01*
X35925Y39595D01*
X35990Y39607D01*
X36045Y39644D01*
X36082Y39699D01*
X36094Y39764D01*
X36082Y39829D01*
X36045Y39883D01*
X35990Y39920D01*
X35925Y39933D01*
D02*
G37*
G36*
X35531D02*
X35467Y39920D01*
X35412Y39883D01*
X35375Y39829D01*
X35362Y39764D01*
X35375Y39699D01*
X35412Y39644D01*
X35467Y39607D01*
X35531Y39595D01*
X35596Y39607D01*
X35651Y39644D01*
X35688Y39699D01*
X35701Y39764D01*
X35688Y39829D01*
X35651Y39883D01*
X35596Y39920D01*
X35531Y39933D01*
D02*
G37*
G36*
X35138D02*
X35073Y39920D01*
X35018Y39883D01*
X34981Y39829D01*
X34969Y39764D01*
X34981Y39699D01*
X35018Y39644D01*
X35073Y39607D01*
X35138Y39595D01*
X35203Y39607D01*
X35257Y39644D01*
X35294Y39699D01*
X35307Y39764D01*
X35294Y39829D01*
X35257Y39883D01*
X35203Y39920D01*
X35138Y39933D01*
D02*
G37*
G36*
X35925Y39539D02*
X35860Y39526D01*
X35806Y39490D01*
X35769Y39435D01*
X35756Y39370D01*
X35769Y39305D01*
X35806Y39250D01*
X35860Y39214D01*
X35925Y39201D01*
X35990Y39214D01*
X36045Y39250D01*
X36082Y39305D01*
X36094Y39370D01*
X36082Y39435D01*
X36045Y39490D01*
X35990Y39526D01*
X35925Y39539D01*
D02*
G37*
G36*
X36319Y39146D02*
X36254Y39133D01*
X36199Y39096D01*
X36163Y39041D01*
X36150Y38976D01*
X36163Y38912D01*
X36199Y38857D01*
X36254Y38820D01*
X36319Y38807D01*
X36384Y38820D01*
X36439Y38857D01*
X36475Y38912D01*
X36488Y38976D01*
X36475Y39041D01*
X36439Y39096D01*
X36384Y39133D01*
X36319Y39146D01*
D02*
G37*
G36*
X35925D02*
X35860Y39133D01*
X35806Y39096D01*
X35769Y39041D01*
X35756Y38976D01*
X35769Y38912D01*
X35806Y38857D01*
X35860Y38820D01*
X35925Y38807D01*
X35990Y38820D01*
X36045Y38857D01*
X36082Y38912D01*
X36094Y38976D01*
X36082Y39041D01*
X36045Y39096D01*
X35990Y39133D01*
X35925Y39146D01*
D02*
G37*
G36*
X35138D02*
X35073Y39133D01*
X35018Y39096D01*
X34981Y39041D01*
X34969Y38976D01*
X34981Y38912D01*
X35018Y38857D01*
X35073Y38820D01*
X35138Y38807D01*
X35203Y38820D01*
X35257Y38857D01*
X35294Y38912D01*
X35307Y38976D01*
X35294Y39041D01*
X35257Y39096D01*
X35203Y39133D01*
X35138Y39146D01*
D02*
G37*
G36*
X34350Y39146D02*
X34286Y39133D01*
X34231Y39096D01*
X34194Y39041D01*
X34181Y38976D01*
X34194Y38912D01*
X34231Y38857D01*
X34286Y38820D01*
X34350Y38807D01*
X34415Y38820D01*
X34470Y38857D01*
X34507Y38912D01*
X34520Y38976D01*
X34507Y39041D01*
X34470Y39096D01*
X34415Y39133D01*
X34350Y39146D01*
D02*
G37*
G36*
X33957D02*
X33892Y39133D01*
X33837Y39096D01*
X33800Y39041D01*
X33787Y38976D01*
X33800Y38912D01*
X33837Y38857D01*
X33892Y38820D01*
X33957Y38807D01*
X34021Y38820D01*
X34076Y38857D01*
X34113Y38912D01*
X34126Y38976D01*
X34113Y39041D01*
X34076Y39096D01*
X34021Y39133D01*
X33957Y39146D01*
D02*
G37*
G36*
X37500Y39146D02*
X37435Y39133D01*
X37380Y39096D01*
X37344Y39041D01*
X37331Y38976D01*
X37344Y38912D01*
X37380Y38857D01*
X37435Y38820D01*
X37500Y38807D01*
X37565Y38820D01*
X37620Y38857D01*
X37656Y38912D01*
X37669Y38976D01*
X37656Y39041D01*
X37620Y39096D01*
X37565Y39133D01*
X37500Y39146D01*
D02*
G37*
G36*
X36319Y39933D02*
X36254Y39920D01*
X36199Y39883D01*
X36163Y39829D01*
X36150Y39764D01*
X36163Y39699D01*
X36199Y39644D01*
X36254Y39607D01*
X36319Y39595D01*
X36384Y39607D01*
X36439Y39644D01*
X36475Y39699D01*
X36488Y39764D01*
X36475Y39829D01*
X36439Y39883D01*
X36384Y39920D01*
X36319Y39933D01*
D02*
G37*
G36*
X26555Y42880D02*
X26493Y42867D01*
X26440Y42832D01*
X26404Y42779D01*
X26392Y42717D01*
X26404Y42654D01*
X26440Y42601D01*
X26493Y42566D01*
X26555Y42553D01*
X26618Y42566D01*
X26670Y42601D01*
X26706Y42654D01*
X26718Y42717D01*
X26706Y42779D01*
X26670Y42832D01*
X26618Y42867D01*
X26555Y42880D01*
D02*
G37*
G36*
X27854Y42210D02*
X27792Y42198D01*
X27739Y42163D01*
X27704Y42110D01*
X27691Y42047D01*
X27704Y41985D01*
X27739Y41932D01*
X27792Y41897D01*
X27854Y41884D01*
X27917Y41897D01*
X27970Y41932D01*
X28005Y41985D01*
X28017Y42047D01*
X28005Y42110D01*
X27970Y42163D01*
X27917Y42198D01*
X27854Y42210D01*
D02*
G37*
G36*
X28563Y41797D02*
X28501Y41785D01*
X28448Y41749D01*
X28412Y41696D01*
X28400Y41634D01*
X28412Y41571D01*
X28448Y41519D01*
X28501Y41483D01*
X28563Y41471D01*
X28625Y41483D01*
X28678Y41519D01*
X28714Y41571D01*
X28726Y41634D01*
X28714Y41696D01*
X28678Y41749D01*
X28625Y41785D01*
X28563Y41797D01*
D02*
G37*
G36*
X26555Y43608D02*
X26493Y43596D01*
X26440Y43560D01*
X26404Y43507D01*
X26392Y43445D01*
X26404Y43382D01*
X26440Y43330D01*
X26493Y43294D01*
X26555Y43282D01*
X26618Y43294D01*
X26670Y43330D01*
X26706Y43382D01*
X26718Y43445D01*
X26706Y43507D01*
X26670Y43560D01*
X26618Y43596D01*
X26555Y43608D01*
D02*
G37*
G36*
X30531Y43409D02*
X30440Y43391D01*
X30362Y43339D01*
X30310Y43261D01*
X30292Y43169D01*
X30310Y43078D01*
X30362Y43000D01*
X30440Y42948D01*
X30531Y42930D01*
X30623Y42948D01*
X30701Y43000D01*
X30753Y43078D01*
X30771Y43169D01*
X30753Y43261D01*
X30701Y43339D01*
X30623Y43391D01*
X30531Y43409D01*
D02*
G37*
G36*
X31811Y42998D02*
X31749Y42985D01*
X31696Y42950D01*
X31660Y42897D01*
X31648Y42835D01*
X31660Y42772D01*
X31696Y42719D01*
X31749Y42684D01*
X31811Y42672D01*
X31873Y42684D01*
X31926Y42719D01*
X31962Y42772D01*
X31974Y42835D01*
X31962Y42897D01*
X31926Y42950D01*
X31873Y42985D01*
X31811Y42998D01*
D02*
G37*
G36*
X31457Y41364D02*
X31394Y41351D01*
X31341Y41316D01*
X31306Y41263D01*
X31294Y41201D01*
X31306Y41138D01*
X31341Y41085D01*
X31394Y41050D01*
X31457Y41038D01*
X31519Y41050D01*
X31572Y41085D01*
X31607Y41138D01*
X31620Y41201D01*
X31607Y41263D01*
X31572Y41316D01*
X31519Y41351D01*
X31457Y41364D01*
D02*
G37*
G36*
X38681Y39933D02*
X38616Y39920D01*
X38561Y39883D01*
X38525Y39829D01*
X38512Y39764D01*
X38525Y39699D01*
X38561Y39644D01*
X38616Y39607D01*
X38681Y39595D01*
X38746Y39607D01*
X38801Y39644D01*
X38837Y39699D01*
X38850Y39764D01*
X38837Y39829D01*
X38801Y39883D01*
X38746Y39920D01*
X38681Y39933D01*
D02*
G37*
G36*
X38287D02*
X38223Y39920D01*
X38168Y39883D01*
X38131Y39829D01*
X38118Y39764D01*
X38131Y39699D01*
X38168Y39644D01*
X38223Y39607D01*
X38287Y39595D01*
X38352Y39607D01*
X38407Y39644D01*
X38444Y39699D01*
X38457Y39764D01*
X38444Y39829D01*
X38407Y39883D01*
X38352Y39920D01*
X38287Y39933D01*
D02*
G37*
G36*
X37500D02*
X37435Y39920D01*
X37380Y39883D01*
X37344Y39829D01*
X37331Y39764D01*
X37344Y39699D01*
X37380Y39644D01*
X37435Y39607D01*
X37500Y39595D01*
X37565Y39607D01*
X37620Y39644D01*
X37656Y39699D01*
X37669Y39764D01*
X37656Y39829D01*
X37620Y39883D01*
X37565Y39920D01*
X37500Y39933D01*
D02*
G37*
G36*
X33130Y41154D02*
X33065Y41141D01*
X33010Y41104D01*
X32974Y41049D01*
X32961Y40984D01*
X32974Y40919D01*
X33010Y40865D01*
X33065Y40828D01*
X33130Y40815D01*
X33195Y40828D01*
X33250Y40865D01*
X33286Y40919D01*
X33299Y40984D01*
X33286Y41049D01*
X33250Y41104D01*
X33195Y41141D01*
X33130Y41154D01*
D02*
G37*
G36*
X30551Y40889D02*
X30459Y40871D01*
X30382Y40819D01*
X30330Y40741D01*
X30312Y40650D01*
X30330Y40558D01*
X30382Y40480D01*
X30459Y40428D01*
X30551Y40410D01*
X30643Y40428D01*
X30721Y40480D01*
X30773Y40558D01*
X30791Y40650D01*
X30773Y40741D01*
X30721Y40819D01*
X30643Y40871D01*
X30551Y40889D01*
D02*
G37*
G36*
X34350Y39933D02*
X34286Y39920D01*
X34231Y39883D01*
X34194Y39829D01*
X34181Y39764D01*
X34194Y39699D01*
X34231Y39644D01*
X34286Y39607D01*
X34350Y39595D01*
X34415Y39607D01*
X34470Y39644D01*
X34507Y39699D01*
X34520Y39764D01*
X34507Y39829D01*
X34470Y39883D01*
X34415Y39920D01*
X34350Y39933D01*
D02*
G37*
G36*
X26280Y38923D02*
X26217Y38911D01*
X26164Y38875D01*
X26129Y38822D01*
X26116Y38760D01*
X26129Y38697D01*
X26164Y38644D01*
X26217Y38609D01*
X26280Y38597D01*
X26342Y38609D01*
X26395Y38644D01*
X26430Y38697D01*
X26443Y38760D01*
X26430Y38822D01*
X26395Y38875D01*
X26342Y38911D01*
X26280Y38923D01*
D02*
G37*
G36*
X33563Y37965D02*
X33498Y37952D01*
X33443Y37915D01*
X33407Y37860D01*
X33394Y37795D01*
X33407Y37731D01*
X33443Y37676D01*
X33498Y37639D01*
X33563Y37626D01*
X33628Y37639D01*
X33683Y37676D01*
X33719Y37731D01*
X33732Y37795D01*
X33719Y37860D01*
X33683Y37915D01*
X33628Y37952D01*
X33563Y37965D01*
D02*
G37*
G36*
X38681Y37965D02*
X38616Y37952D01*
X38561Y37915D01*
X38525Y37860D01*
X38512Y37795D01*
X38525Y37731D01*
X38561Y37676D01*
X38616Y37639D01*
X38681Y37626D01*
X38746Y37639D01*
X38801Y37676D01*
X38837Y37731D01*
X38850Y37795D01*
X38837Y37860D01*
X38801Y37915D01*
X38746Y37952D01*
X38681Y37965D01*
D02*
G37*
G36*
X37500D02*
X37435Y37952D01*
X37380Y37915D01*
X37344Y37860D01*
X37331Y37795D01*
X37344Y37731D01*
X37380Y37676D01*
X37435Y37639D01*
X37500Y37626D01*
X37565Y37639D01*
X37620Y37676D01*
X37656Y37731D01*
X37669Y37795D01*
X37656Y37860D01*
X37620Y37915D01*
X37565Y37952D01*
X37500Y37965D01*
D02*
G37*
G36*
X34744Y38358D02*
X34679Y38345D01*
X34624Y38309D01*
X34588Y38254D01*
X34575Y38189D01*
X34588Y38124D01*
X34624Y38069D01*
X34679Y38033D01*
X34744Y38020D01*
X34809Y38033D01*
X34864Y38069D01*
X34900Y38124D01*
X34913Y38189D01*
X34900Y38254D01*
X34864Y38309D01*
X34809Y38345D01*
X34744Y38358D01*
D02*
G37*
G36*
X26220Y38254D02*
X26158Y38241D01*
X26105Y38206D01*
X26070Y38153D01*
X26057Y38091D01*
X26070Y38028D01*
X26105Y37975D01*
X26158Y37940D01*
X26220Y37927D01*
X26283Y37940D01*
X26336Y37975D01*
X26371Y38028D01*
X26384Y38091D01*
X26371Y38153D01*
X26336Y38206D01*
X26283Y38241D01*
X26220Y38254D01*
D02*
G37*
G36*
X25807Y38096D02*
X25745Y38084D01*
X25692Y38048D01*
X25656Y37996D01*
X25644Y37933D01*
X25656Y37871D01*
X25692Y37818D01*
X25745Y37782D01*
X25807Y37770D01*
X25870Y37782D01*
X25922Y37818D01*
X25958Y37871D01*
X25970Y37933D01*
X25958Y37996D01*
X25922Y38048D01*
X25870Y38084D01*
X25807Y38096D01*
D02*
G37*
G36*
X36713Y37965D02*
X36648Y37952D01*
X36593Y37915D01*
X36556Y37860D01*
X36543Y37795D01*
X36556Y37731D01*
X36593Y37676D01*
X36648Y37639D01*
X36713Y37626D01*
X36777Y37639D01*
X36832Y37676D01*
X36869Y37731D01*
X36882Y37795D01*
X36869Y37860D01*
X36832Y37915D01*
X36777Y37952D01*
X36713Y37965D01*
D02*
G37*
G36*
X26250Y37653D02*
X26188Y37641D01*
X26135Y37606D01*
X26099Y37553D01*
X26087Y37490D01*
X26099Y37428D01*
X26135Y37375D01*
X26188Y37339D01*
X26250Y37327D01*
X26312Y37339D01*
X26365Y37375D01*
X26401Y37428D01*
X26413Y37490D01*
X26401Y37553D01*
X26365Y37606D01*
X26312Y37641D01*
X26250Y37653D01*
D02*
G37*
G36*
X37106Y37571D02*
X37042Y37558D01*
X36987Y37521D01*
X36950Y37466D01*
X36937Y37402D01*
X36950Y37337D01*
X36987Y37282D01*
X37042Y37245D01*
X37106Y37232D01*
X37171Y37245D01*
X37226Y37282D01*
X37263Y37337D01*
X37276Y37402D01*
X37263Y37466D01*
X37226Y37521D01*
X37171Y37558D01*
X37106Y37571D01*
D02*
G37*
G36*
X36713D02*
X36648Y37558D01*
X36593Y37521D01*
X36556Y37466D01*
X36543Y37402D01*
X36556Y37337D01*
X36593Y37282D01*
X36648Y37245D01*
X36713Y37232D01*
X36777Y37245D01*
X36832Y37282D01*
X36869Y37337D01*
X36882Y37402D01*
X36869Y37466D01*
X36832Y37521D01*
X36777Y37558D01*
X36713Y37571D01*
D02*
G37*
G36*
X36319Y37965D02*
X36254Y37952D01*
X36199Y37915D01*
X36163Y37860D01*
X36150Y37795D01*
X36163Y37731D01*
X36199Y37676D01*
X36254Y37639D01*
X36319Y37626D01*
X36384Y37639D01*
X36439Y37676D01*
X36475Y37731D01*
X36488Y37795D01*
X36475Y37860D01*
X36439Y37915D01*
X36384Y37952D01*
X36319Y37965D01*
D02*
G37*
G36*
X35925D02*
X35860Y37952D01*
X35806Y37915D01*
X35769Y37860D01*
X35756Y37795D01*
X35769Y37731D01*
X35806Y37676D01*
X35860Y37639D01*
X35925Y37626D01*
X35990Y37639D01*
X36045Y37676D01*
X36082Y37731D01*
X36094Y37795D01*
X36082Y37860D01*
X36045Y37915D01*
X35990Y37952D01*
X35925Y37965D01*
D02*
G37*
G36*
X28868Y37653D02*
X28806Y37641D01*
X28753Y37606D01*
X28717Y37553D01*
X28705Y37490D01*
X28717Y37428D01*
X28753Y37375D01*
X28806Y37339D01*
X28868Y37327D01*
X28931Y37339D01*
X28983Y37375D01*
X29019Y37428D01*
X29031Y37490D01*
X29019Y37553D01*
X28983Y37606D01*
X28931Y37641D01*
X28868Y37653D01*
D02*
G37*
G36*
X35138Y38358D02*
X35073Y38345D01*
X35018Y38309D01*
X34981Y38254D01*
X34969Y38189D01*
X34981Y38124D01*
X35018Y38069D01*
X35073Y38033D01*
X35138Y38020D01*
X35203Y38033D01*
X35257Y38069D01*
X35294Y38124D01*
X35307Y38189D01*
X35294Y38254D01*
X35257Y38309D01*
X35203Y38345D01*
X35138Y38358D01*
D02*
G37*
G36*
X33563Y38752D02*
X33498Y38739D01*
X33443Y38702D01*
X33407Y38647D01*
X33394Y38583D01*
X33407Y38518D01*
X33443Y38463D01*
X33498Y38426D01*
X33563Y38413D01*
X33628Y38426D01*
X33683Y38463D01*
X33719Y38518D01*
X33732Y38583D01*
X33719Y38647D01*
X33683Y38702D01*
X33628Y38739D01*
X33563Y38752D01*
D02*
G37*
G36*
X37500Y38752D02*
X37435Y38739D01*
X37380Y38702D01*
X37344Y38647D01*
X37331Y38583D01*
X37344Y38518D01*
X37380Y38463D01*
X37435Y38426D01*
X37500Y38413D01*
X37565Y38426D01*
X37620Y38463D01*
X37656Y38518D01*
X37669Y38583D01*
X37656Y38647D01*
X37620Y38702D01*
X37565Y38739D01*
X37500Y38752D01*
D02*
G37*
G36*
X37106D02*
X37042Y38739D01*
X36987Y38702D01*
X36950Y38647D01*
X36937Y38583D01*
X36950Y38518D01*
X36987Y38463D01*
X37042Y38426D01*
X37106Y38413D01*
X37171Y38426D01*
X37226Y38463D01*
X37263Y38518D01*
X37276Y38583D01*
X37263Y38647D01*
X37226Y38702D01*
X37171Y38739D01*
X37106Y38752D01*
D02*
G37*
G36*
X36319Y38752D02*
X36254Y38739D01*
X36199Y38702D01*
X36163Y38647D01*
X36150Y38583D01*
X36163Y38518D01*
X36199Y38463D01*
X36254Y38426D01*
X36319Y38413D01*
X36384Y38426D01*
X36439Y38463D01*
X36475Y38518D01*
X36488Y38583D01*
X36475Y38647D01*
X36439Y38702D01*
X36384Y38739D01*
X36319Y38752D01*
D02*
G37*
G36*
X35925D02*
X35860Y38739D01*
X35806Y38702D01*
X35769Y38647D01*
X35756Y38583D01*
X35769Y38518D01*
X35806Y38463D01*
X35860Y38426D01*
X35925Y38413D01*
X35990Y38426D01*
X36045Y38463D01*
X36082Y38518D01*
X36094Y38583D01*
X36082Y38647D01*
X36045Y38702D01*
X35990Y38739D01*
X35925Y38752D01*
D02*
G37*
G36*
X36713Y38752D02*
X36648Y38739D01*
X36593Y38702D01*
X36556Y38647D01*
X36543Y38583D01*
X36556Y38518D01*
X36593Y38463D01*
X36648Y38426D01*
X36713Y38413D01*
X36777Y38426D01*
X36832Y38463D01*
X36869Y38518D01*
X36882Y38583D01*
X36869Y38647D01*
X36832Y38702D01*
X36777Y38739D01*
X36713Y38752D01*
D02*
G37*
G36*
X35138Y38752D02*
X35073Y38739D01*
X35018Y38702D01*
X34981Y38647D01*
X34969Y38583D01*
X34981Y38518D01*
X35018Y38463D01*
X35073Y38426D01*
X35138Y38413D01*
X35203Y38426D01*
X35257Y38463D01*
X35294Y38518D01*
X35307Y38583D01*
X35294Y38647D01*
X35257Y38702D01*
X35203Y38739D01*
X35138Y38752D01*
D02*
G37*
G36*
X36713Y38358D02*
X36648Y38345D01*
X36593Y38309D01*
X36556Y38254D01*
X36543Y38189D01*
X36556Y38124D01*
X36593Y38069D01*
X36648Y38033D01*
X36713Y38020D01*
X36777Y38033D01*
X36832Y38069D01*
X36869Y38124D01*
X36882Y38189D01*
X36869Y38254D01*
X36832Y38309D01*
X36777Y38345D01*
X36713Y38358D01*
D02*
G37*
G36*
X36319D02*
X36254Y38345D01*
X36199Y38309D01*
X36163Y38254D01*
X36150Y38189D01*
X36163Y38124D01*
X36199Y38069D01*
X36254Y38033D01*
X36319Y38020D01*
X36384Y38033D01*
X36439Y38069D01*
X36475Y38124D01*
X36488Y38189D01*
X36475Y38254D01*
X36439Y38309D01*
X36384Y38345D01*
X36319Y38358D01*
D02*
G37*
G36*
X35925D02*
X35860Y38345D01*
X35806Y38309D01*
X35769Y38254D01*
X35756Y38189D01*
X35769Y38124D01*
X35806Y38069D01*
X35860Y38033D01*
X35925Y38020D01*
X35990Y38033D01*
X36045Y38069D01*
X36082Y38124D01*
X36094Y38189D01*
X36082Y38254D01*
X36045Y38309D01*
X35990Y38345D01*
X35925Y38358D01*
D02*
G37*
G36*
X27362Y38667D02*
X27300Y38655D01*
X27247Y38619D01*
X27211Y38566D01*
X27199Y38504D01*
X27211Y38442D01*
X27247Y38389D01*
X27300Y38353D01*
X27362Y38341D01*
X27425Y38353D01*
X27478Y38389D01*
X27513Y38442D01*
X27525Y38504D01*
X27513Y38566D01*
X27478Y38619D01*
X27425Y38655D01*
X27362Y38667D01*
D02*
G37*
G36*
X28041Y38421D02*
X27979Y38409D01*
X27926Y38373D01*
X27891Y38320D01*
X27878Y38258D01*
X27891Y38195D01*
X27926Y38143D01*
X27979Y38107D01*
X28041Y38095D01*
X28104Y38107D01*
X28157Y38143D01*
X28192Y38195D01*
X28204Y38258D01*
X28192Y38320D01*
X28157Y38373D01*
X28104Y38409D01*
X28041Y38421D01*
D02*
G37*
G36*
X37500Y38358D02*
X37435Y38345D01*
X37380Y38309D01*
X37344Y38254D01*
X37331Y38189D01*
X37344Y38124D01*
X37380Y38069D01*
X37435Y38033D01*
X37500Y38020D01*
X37565Y38033D01*
X37620Y38069D01*
X37656Y38124D01*
X37669Y38189D01*
X37656Y38254D01*
X37620Y38309D01*
X37565Y38345D01*
X37500Y38358D01*
D02*
G37*
%LPD*%
D36*
X39665Y40689D02*
X53602D01*
X38957Y35236D02*
X41299D01*
X40354Y36417D02*
X66732D01*
X40571Y36811D02*
X66732D01*
X40492Y37205D02*
X66772D01*
X30709Y46260D02*
Y48425D01*
X30866Y46457D02*
X30984Y46339D01*
X30866Y46457D02*
Y48189D01*
X31260Y48583D01*
Y49961D01*
X31063Y48780D02*
Y52323D01*
X30709Y48425D02*
X31063Y48780D01*
X35728Y57087D02*
Y57185D01*
X34843Y54921D02*
Y57087D01*
X33858Y55118D02*
Y57244D01*
X30079Y56339D02*
Y56811D01*
Y56339D02*
X30669Y55748D01*
Y52953D02*
Y55748D01*
X30236Y52520D02*
X30669Y52953D01*
X30236Y50315D02*
Y52520D01*
X29921Y50000D02*
X30236Y50315D01*
X31339Y55787D02*
Y57087D01*
X30906Y55354D02*
X31339Y55787D01*
X30906Y52913D02*
Y55354D01*
X30433Y52441D02*
X30906Y52913D01*
X31260Y49961D02*
X31575Y50276D01*
Y53701D01*
X31181Y54094D02*
X31575Y53701D01*
X35630Y56988D02*
X35728Y57087D01*
X35630Y53543D02*
Y56988D01*
X31791Y49705D02*
X35630Y53543D01*
X32874Y54134D02*
X33858Y55118D01*
X32874Y53346D02*
Y54134D01*
X32185Y52657D02*
X32874Y53346D01*
X32579Y52657D02*
X34843Y54921D01*
X30984Y44783D02*
X31024D01*
X31181Y45197D02*
X31339D01*
X30984Y45394D02*
X31181Y45197D01*
X30984Y45394D02*
Y46339D01*
X31329Y45187D02*
X31358Y45157D01*
X31024Y44783D02*
Y44961D01*
X30433Y45551D02*
X31024Y44961D01*
X30433Y45551D02*
Y52441D01*
X29921Y45669D02*
X30512Y45079D01*
X29921Y45669D02*
Y50000D01*
X44311Y52657D02*
X45000Y53346D01*
Y54134D01*
X45984Y55118D01*
Y57244D01*
X43917Y49705D02*
X47756Y53543D01*
Y56988D01*
X47854Y57087D01*
Y57185D01*
X44705Y52657D02*
X46968Y54921D01*
Y57087D01*
X42835Y46260D02*
Y48425D01*
X43189Y48780D01*
Y52323D01*
X42047Y45669D02*
Y50000D01*
X42205Y56339D02*
Y56811D01*
X42047Y45669D02*
X42638Y45079D01*
X42047Y50000D02*
X42362Y50315D01*
Y52520D01*
X42795Y52953D01*
Y55748D01*
X42205Y56339D02*
X42795Y55748D01*
X43110Y45394D02*
X43307Y45197D01*
X43110Y45394D02*
Y46339D01*
X42992Y46457D02*
Y48189D01*
Y46457D02*
X43110Y46339D01*
X42992Y48189D02*
X43386Y48583D01*
X43307Y45197D02*
X43465D01*
X43386Y48583D02*
Y49961D01*
X43455Y45187D02*
X43484Y45157D01*
X43386Y49961D02*
X43701Y50276D01*
Y53701D01*
X43307Y54094D02*
X43701Y53701D01*
X42559Y45551D02*
Y52441D01*
Y45551D02*
X43150Y44961D01*
X42559Y52441D02*
X43032Y52913D01*
X43110Y44783D02*
X43150D01*
X43032Y52913D02*
Y55354D01*
X43150Y44783D02*
Y44961D01*
X43032Y55354D02*
X43465Y55787D01*
Y57087D01*
X56043Y49705D02*
X59882Y53543D01*
Y56988D01*
X59980Y57087D01*
Y57185D01*
X56831Y52657D02*
X59094Y54921D01*
Y57087D01*
X56437Y52657D02*
X57126Y53346D01*
Y54134D01*
X58110Y55118D01*
Y57244D01*
X54685Y45551D02*
Y52441D01*
Y45551D02*
X55276Y44961D01*
X54685Y52441D02*
X55157Y52913D01*
X55236Y44783D02*
X55276D01*
X55157Y52913D02*
Y55354D01*
X55276Y44783D02*
Y44961D01*
X55157Y55354D02*
X55591Y55787D01*
Y57087D01*
X54173Y45669D02*
Y50000D01*
X54331Y56339D02*
Y56811D01*
X54173Y45669D02*
X54764Y45079D01*
X54173Y50000D02*
X54488Y50315D01*
Y52520D01*
X54921Y52953D01*
Y55748D01*
X54331Y56339D02*
X54921Y55748D01*
X54961Y46260D02*
Y48425D01*
X55315Y48780D01*
Y52323D01*
X55236Y45394D02*
X55433Y45197D01*
X55236Y45394D02*
Y46339D01*
X55118Y46457D02*
Y48189D01*
Y46457D02*
X55236Y46339D01*
X55118Y48189D02*
X55512Y48583D01*
X55433Y45197D02*
X55591D01*
X55512Y48583D02*
Y49961D01*
X55581Y45187D02*
X55610Y45157D01*
X55512Y49961D02*
X55827Y50276D01*
Y53701D01*
X55433Y54094D02*
X55827Y53701D01*
X68169Y49705D02*
X72008Y53543D01*
Y56988D01*
X72106Y57087D01*
Y57185D01*
X68957Y52657D02*
X71220Y54921D01*
Y57087D01*
X68563Y52657D02*
X69252Y53346D01*
Y54134D01*
X70236Y55118D01*
Y57244D01*
X66811Y45551D02*
Y52441D01*
Y45551D02*
X67402Y44961D01*
X66811Y52441D02*
X67283Y52913D01*
X67362Y44783D02*
X67402D01*
X67283Y52913D02*
Y55354D01*
X67402Y44783D02*
Y44961D01*
X67283Y55354D02*
X67717Y55787D01*
Y57087D01*
X66299Y45669D02*
Y50000D01*
X66457Y56339D02*
Y56811D01*
X66299Y45669D02*
X66890Y45079D01*
X66299Y50000D02*
X66614Y50315D01*
Y52520D01*
X67047Y52953D01*
Y55748D01*
X66457Y56339D02*
X67047Y55748D01*
X67087Y46260D02*
Y48425D01*
X67441Y48780D01*
Y52323D01*
X67362Y45394D02*
X67559Y45197D01*
X67362Y45394D02*
Y46339D01*
X67244Y46457D02*
Y48189D01*
Y46457D02*
X67362Y46339D01*
X67244Y48189D02*
X67638Y48583D01*
X67559Y45197D02*
X67717D01*
X67638Y48583D02*
Y49961D01*
X67707Y45187D02*
X67736Y45157D01*
X67638Y49961D02*
X67953Y50276D01*
Y53701D01*
X67559Y54094D02*
X67953Y53701D01*
X35925Y44134D02*
X36378Y44587D01*
X35531Y40157D02*
X35728Y40354D01*
Y44311D02*
X36083Y44665D01*
X35728Y40354D02*
Y44311D01*
X35138Y40157D02*
X35531Y40551D01*
Y45000D02*
X35906Y45374D01*
X36339D01*
X34350Y40157D02*
X34880Y40687D01*
X34862Y45335D02*
X35197Y45669D01*
X36220D01*
X33051Y39685D02*
Y40433D01*
X32559Y38878D02*
X33051Y38386D01*
X32559Y38878D02*
Y40886D01*
X34862Y44705D02*
Y45335D01*
Y44705D02*
X35039Y44528D01*
X34705Y44626D02*
X34882Y44449D01*
X33051Y40433D02*
X34724Y42106D01*
X32559Y40886D02*
X34567Y42894D01*
Y44035D01*
X34390Y44213D02*
X34567Y44035D01*
X34724Y42106D02*
Y44272D01*
X34575Y44421D02*
X34724Y44272D01*
X34705Y45591D02*
X34961Y45846D01*
X34705Y44626D02*
Y45591D01*
X34764Y45945D02*
Y46496D01*
X34575Y45756D02*
X34764Y45945D01*
X34575Y44421D02*
Y45756D01*
X34390Y45827D02*
X34508Y45945D01*
Y47303D01*
X34823Y47618D01*
X34390Y44213D02*
Y45827D01*
X46673Y44370D02*
X46890Y44587D01*
X46299Y44370D02*
X46673D01*
X43937Y42008D02*
X46299Y44370D01*
X38484Y42008D02*
X43937D01*
X43720Y42224D02*
X47165Y45669D01*
X47559Y45669D02*
X48327D01*
X47283Y45945D02*
X47559Y45669D01*
X46988Y45945D02*
X47283D01*
X43524Y42480D02*
X46988Y45945D01*
X37106Y41024D02*
X38307Y42224D01*
X37106Y40551D02*
Y41024D01*
X38307Y42224D02*
X43720D01*
X37736Y41260D02*
X38484Y42008D01*
X36909Y41378D02*
X38012Y42480D01*
X36909Y41083D02*
Y41378D01*
X38012Y42480D02*
X43524D01*
X37480Y40650D02*
X38681Y41850D01*
X37480Y40551D02*
Y40650D01*
X38681Y41850D02*
X44134D01*
X38287Y40551D02*
X39134Y41398D01*
X45197D01*
X37894Y40650D02*
X38878Y41634D01*
X37894Y40551D02*
Y40650D01*
X45354Y41161D02*
X45549Y41357D01*
X38681Y40551D02*
X39291Y41161D01*
X45354D01*
X48307Y44882D02*
X48366D01*
X48287Y44488D02*
X48386D01*
X45197Y41398D02*
X48287Y44488D01*
X48080Y43888D02*
X48287Y44094D01*
X45549Y41357D02*
X48080Y43888D01*
X48287Y44094D02*
X48346D01*
X46890Y45039D02*
X47146Y45295D01*
X46890Y44587D02*
Y45039D01*
X46811Y47283D02*
X47165Y47638D01*
X46811Y46102D02*
Y47283D01*
X43406Y42697D02*
X46811Y46102D01*
X37815Y42697D02*
X43406D01*
X36516Y41398D02*
X37815Y42697D01*
X36516Y40354D02*
Y41398D01*
Y40354D02*
X36713Y40157D01*
X60236Y48189D02*
X60472Y48425D01*
X60039Y48386D02*
X60472Y48819D01*
X59409D02*
X59862Y48366D01*
X59390Y48425D02*
X59685Y48130D01*
X58898Y47559D02*
X59370Y48031D01*
X59094Y47362D02*
X59370Y47638D01*
X53602Y40689D02*
X58898Y45984D01*
Y47559D01*
X53760Y40472D02*
X59094Y45807D01*
Y47362D01*
X53819Y40236D02*
X59685Y46102D01*
Y48130D01*
X55413Y40020D02*
X59862Y44468D01*
Y48366D01*
X55689Y39783D02*
X60039Y44134D01*
Y48386D01*
X55925Y39547D02*
X60236Y43858D01*
Y48189D01*
X60472Y43760D02*
Y48031D01*
X60669Y43543D02*
Y47382D01*
X39272Y39961D02*
X39783Y40472D01*
X53760D01*
X40157Y39783D02*
X55689D01*
X41102Y39566D02*
X55925Y39547D01*
X55965Y39252D02*
X56413Y39701D01*
X56413D02*
X60472Y43760D01*
X72500Y42185D02*
Y47343D01*
X72500Y47756D02*
X72776Y47480D01*
Y42047D02*
Y47480D01*
X72205Y47992D02*
X72421Y48209D01*
X72205Y42283D02*
Y47992D01*
X72008Y48268D02*
X72382Y48642D01*
X72008Y42441D02*
Y48268D01*
X40217Y38386D02*
X40728Y38898D01*
X56024D01*
X60669Y43543D01*
X71496Y46476D02*
X71811Y46161D01*
X71201Y45453D02*
X71220Y45433D01*
X71201Y42598D02*
Y45453D01*
X66673Y38071D02*
X71201Y42598D01*
X71142Y47756D02*
X71535Y48150D01*
X71142Y45768D02*
Y47756D01*
X63622Y38248D02*
X71142Y45768D01*
X70925Y48150D02*
X71102Y48327D01*
X70925Y45906D02*
Y48150D01*
X63484Y38465D02*
X70925Y45906D01*
X40236Y38189D02*
X40512Y38465D01*
X38681Y38189D02*
X40236D01*
X40512Y38465D02*
X63484D01*
X40433Y38012D02*
X40669Y38248D01*
X63622D01*
X40984Y38071D02*
X66673D01*
X71398Y45630D02*
X71476Y45709D01*
X68085Y37770D02*
X72500Y42185D01*
X66732Y36811D02*
X72205Y42283D01*
X66772Y37205D02*
X72008Y42441D01*
X66752Y37480D02*
X71811Y42539D01*
X41417Y37480D02*
X66752D01*
X41339Y37402D02*
X41417Y37480D01*
X38287Y37402D02*
X41339D01*
X71811Y42539D02*
Y46161D01*
X66673Y37756D02*
X71398Y42480D01*
X41201Y37756D02*
X66673D01*
X71398Y42480D02*
Y45630D01*
X39744Y37992D02*
X40000D01*
X40214Y37778D01*
X40692D01*
X40984Y38071D01*
X41083Y37638D02*
X41201Y37756D01*
X39665Y37638D02*
X41083D01*
X38287Y38976D02*
X39350D01*
X40157Y39783D01*
X39134Y39173D02*
X39980Y40020D01*
X55413D01*
X38268Y39370D02*
X38996D01*
X39862Y40236D01*
X39862D02*
X53819D01*
X39075Y40157D02*
X39272Y39961D01*
X33563Y39764D02*
Y40157D01*
X34587Y41181D01*
Y41654D01*
X34882Y41949D01*
Y44449D01*
X34961Y45846D02*
Y47185D01*
X34843Y41063D02*
Y41535D01*
X35039Y41732D02*
Y44528D01*
X34843Y41535D02*
X35039Y41732D01*
X33957Y40177D02*
X34843Y41063D01*
X34880Y40687D02*
X35067Y40874D01*
Y41366D01*
X35354Y41654D01*
X35925Y40157D02*
X36319Y40551D01*
Y42362D01*
X35925Y42756D02*
Y44134D01*
Y42756D02*
X36319Y42362D01*
X47165Y44094D02*
X48346Y45276D01*
X46378Y44094D02*
X47165D01*
X44134Y41850D02*
X46378Y44094D01*
X47972Y44488D02*
X48366Y44882D01*
X47953Y44488D02*
X47972D01*
X45098Y41634D02*
X47953Y44488D01*
X38878Y41634D02*
X45098D01*
X38287Y36220D02*
X66949D01*
X72776Y42047D01*
X66732Y36417D02*
X67323Y37008D01*
X67323D02*
X68085Y37770D01*
X32264Y40984D02*
X32559Y41280D01*
X32264Y38976D02*
Y40984D01*
X32756Y34843D02*
Y36457D01*
X49744Y35866D02*
X51220D01*
X53543Y33543D01*
Y32382D02*
Y33543D01*
X43780Y32776D02*
X45000D01*
X46516Y34291D01*
X43760Y33169D02*
X44961D01*
X46201Y34409D01*
Y34685D01*
X46535Y34350D02*
Y35118D01*
X34528Y33071D02*
X38917D01*
X32756Y34843D02*
X34528Y33071D01*
X35354Y41654D02*
Y44862D01*
X41299Y35236D02*
X41594Y35531D01*
X40020Y38583D02*
X40689Y39252D01*
X38287Y38583D02*
X40020D01*
X40689Y39252D02*
X55965D01*
X39469Y38780D02*
X40256Y39567D01*
X41102D01*
X35531Y40551D02*
Y45000D01*
X48976Y42028D02*
Y45079D01*
X48189Y41240D02*
X48976Y42028D01*
X36496Y34311D02*
X36516D01*
X35866Y33681D02*
X36496Y34311D01*
X46516Y34331D02*
X46535Y34350D01*
X46516Y34291D02*
Y34331D01*
X36378Y33780D02*
X36575Y33976D01*
X37736D02*
X37815Y33898D01*
X36575Y33976D02*
X37736D01*
X34744Y35039D02*
X35138Y35433D01*
X33957Y35039D02*
X34744D01*
X33150Y35827D02*
X33346Y35630D01*
D37*
X37303Y40354D02*
X39331D01*
X39665Y40689D01*
X33346Y35630D02*
X35335D01*
X35531Y35433D01*
X36516Y35236D02*
X38957D01*
X35925Y35827D02*
X36516Y35236D01*
X38091Y36417D02*
X40354D01*
X37894Y36614D02*
X38091Y36417D01*
Y36811D02*
X40571D01*
X37894Y37008D02*
X38091Y36811D01*
X38091Y37205D02*
X40492D01*
X37894Y37402D02*
X38091Y37205D01*
X38484Y38386D02*
X40217D01*
X38287Y38189D02*
X38484Y38386D01*
X38091Y38780D02*
X39469D01*
X37894Y38583D02*
X38091Y38780D01*
X37894Y38976D02*
X38091Y39173D01*
X39134D01*
X36909Y39567D02*
Y39961D01*
X37303Y40354D01*
X36713Y39370D02*
X36909Y39567D01*
D41*
X39390Y31673D02*
X42638D01*
X43661Y30650D01*
X48819D01*
X50256Y34311D02*
X51201Y35256D01*
X50256Y32480D02*
Y34311D01*
X48681Y30906D02*
X50256Y32480D01*
X43819Y30906D02*
X48681D01*
X42598Y32126D02*
X43819Y30906D01*
X39390Y32126D02*
X42598D01*
X51988Y33852D02*
X52005Y33835D01*
X48819Y30650D02*
X51988Y33852D01*
X26654Y51161D02*
X26831Y51339D01*
Y55929D01*
X26295Y56465D02*
X26831Y55929D01*
X25846Y55016D02*
X26295Y55465D01*
X25846Y49409D02*
Y55016D01*
Y49409D02*
X26398Y48858D01*
X26240Y58465D02*
X26295D01*
X25748Y57972D02*
X26240Y58465D01*
X25079Y57972D02*
X25748D01*
X24469Y57362D02*
X25079Y57972D01*
X24469Y52008D02*
Y57362D01*
Y52008D02*
X24724Y51752D01*
X25610D01*
X36240Y51201D02*
X36732Y51693D01*
X37992D01*
X38622Y52323D01*
X50118Y51693D02*
X50748Y52323D01*
X48858Y51693D02*
X50118D01*
X48366Y51201D02*
X48858Y51693D01*
X62244D02*
X62874Y52323D01*
X60984Y51693D02*
X62244D01*
X60492Y51201D02*
X60984Y51693D01*
X74370D02*
X75000Y52323D01*
X73110Y51693D02*
X74370D01*
X72618Y51201D02*
X73110Y51693D01*
X27776Y57913D02*
X29173Y59311D01*
X73602D02*
X75000Y57913D01*
Y52323D02*
Y57913D01*
X38622Y52323D02*
Y58976D01*
X62874Y52323D02*
Y58189D01*
X50748Y52323D02*
Y58110D01*
X27776Y50453D02*
Y57913D01*
X26811Y49488D02*
X27776Y50453D01*
X38287Y59311D02*
X38622Y58976D01*
X49547Y59311D02*
X50748Y58110D01*
X61752Y59311D02*
X62874Y58189D01*
X29173Y59311D02*
X73602D01*
X35748Y49862D02*
Y51496D01*
X35098Y49213D02*
X35748Y49862D01*
X25295Y48091D02*
X27402D01*
X24980Y48406D02*
X25295Y48091D01*
X36339Y45079D02*
X36378Y45039D01*
Y44587D02*
Y45039D01*
X35098Y45276D02*
X35354Y45020D01*
Y44862D02*
Y45020D01*
X31378Y44646D02*
Y44843D01*
X31043Y44311D02*
X31378Y44646D01*
X30138Y44311D02*
X31043D01*
X29272Y45177D02*
X30138Y44311D01*
X28012Y45177D02*
X29272D01*
X26142Y47047D02*
X28012Y45177D01*
X71220Y50591D02*
Y51831D01*
X73189Y53799D01*
Y57165D01*
X72618Y57736D02*
X73189Y57165D01*
X64213Y57736D02*
X72618D01*
X39252Y32677D02*
Y33228D01*
X37598Y31024D02*
X39252Y32677D01*
X37815Y33898D02*
X39134D01*
X39980Y34744D01*
D45*
X53543Y32382D02*
D03*
X26295Y58465D02*
D03*
Y56465D02*
D03*
Y55465D02*
D03*
D50*
X36083Y44665D02*
D03*
X36220Y45669D02*
D03*
X36339Y45374D02*
D03*
X34961Y47028D02*
D03*
X34764Y46496D02*
D03*
X34823Y47618D02*
D03*
X47165Y45669D02*
D03*
X48327Y45669D02*
D03*
X36909Y41083D02*
D03*
X37736Y41260D02*
D03*
X48346Y45276D02*
D03*
X48366Y44882D02*
D03*
X48386Y44488D02*
D03*
X48346Y44094D02*
D03*
X47146Y45295D02*
D03*
X47165Y47638D02*
D03*
X60669Y47382D02*
D03*
X60472Y48031D02*
D03*
Y48425D02*
D03*
X60472Y48819D02*
D03*
X59409D02*
D03*
X59390Y48425D02*
D03*
X59370Y48031D02*
D03*
X59370Y47638D02*
D03*
X72500Y47343D02*
D03*
X72500Y47756D02*
D03*
X72421Y48209D02*
D03*
X72382Y48642D02*
D03*
X71535Y48150D02*
D03*
X71496Y46476D02*
D03*
X71201Y45453D02*
D03*
X71102Y48327D02*
D03*
X40433Y38012D02*
D03*
X39744Y37992D02*
D03*
X71476Y45709D02*
D03*
X39665Y37638D02*
D03*
X29193Y33130D02*
D03*
X35335Y41024D02*
D03*
X39390Y32126D02*
D03*
Y31673D02*
D03*
X32559Y41280D02*
D03*
X32264Y38976D02*
D03*
X32756Y36457D02*
D03*
X49744Y35866D02*
D03*
X43780Y32776D02*
D03*
X43760Y33169D02*
D03*
X46201Y34685D02*
D03*
X46535Y35118D02*
D03*
X38917Y33071D02*
D03*
X51201Y35256D02*
D03*
X51988Y33852D02*
D03*
X26654Y51161D02*
D03*
X26398Y48858D02*
D03*
X25610Y51752D02*
D03*
X36240Y51201D02*
D03*
X48366D02*
D03*
X60492D02*
D03*
X72618D02*
D03*
X26811Y49488D02*
D03*
X35748Y51496D02*
D03*
X35098Y49213D02*
D03*
X71220Y50591D02*
D03*
X27402Y48091D02*
D03*
X24980Y48406D02*
D03*
X36339Y45079D02*
D03*
X35098Y45276D02*
D03*
X31378Y44843D02*
D03*
X26142Y47047D02*
D03*
X64213Y57736D02*
D03*
X36516Y34311D02*
D03*
X39252Y33228D02*
D03*
X37598Y31024D02*
D03*
X39980Y34744D02*
D03*
X36378Y33780D02*
D03*
X41594Y35531D02*
D03*
X39823Y38780D02*
D03*
X48976Y45079D02*
D03*
X48189Y41240D02*
D03*
X35866Y33681D02*
D03*
X37303Y34232D02*
D03*
D52*
X33091Y36811D02*
D03*
X35138Y35433D02*
D03*
Y40157D02*
D03*
X35531D02*
D03*
X35925D02*
D03*
X34350D02*
D03*
X33957D02*
D03*
X33563Y39764D02*
D03*
X33051Y39685D02*
D03*
X33051Y38386D02*
D03*
X33091Y38780D02*
D03*
X37106Y40551D02*
D03*
X37500D02*
D03*
X37894D02*
D03*
X38287D02*
D03*
X38681D02*
D03*
X36713Y40157D02*
D03*
Y39370D02*
D03*
X38287D02*
D03*
X37894Y38976D02*
D03*
X38287D02*
D03*
X37894Y38583D02*
D03*
X38287D02*
D03*
Y38189D02*
D03*
X38681Y38189D02*
D03*
X38287Y37402D02*
D03*
X37894D02*
D03*
Y37008D02*
D03*
Y36614D02*
D03*
X38287Y36220D02*
D03*
X35335Y34587D02*
D03*
X39075Y40157D02*
D03*
X35925Y35827D02*
D03*
X34744Y37402D02*
D03*
X35138Y37795D02*
D03*
Y37008D02*
D03*
X35531Y35433D02*
D03*
X33957Y35039D02*
D03*
X33150Y35827D02*
D03*
D53*
X30709Y46260D02*
D03*
X35728Y57185D02*
D03*
X34843Y57087D02*
D03*
X33858Y57244D02*
D03*
X30079Y56811D02*
D03*
X31339Y57087D02*
D03*
X31181Y54094D02*
D03*
X31063Y52323D02*
D03*
X31791Y49705D02*
D03*
X32185Y52657D02*
D03*
X32579D02*
D03*
X31024Y44783D02*
D03*
X31339Y45197D02*
D03*
X30512Y45079D02*
D03*
X44311Y52657D02*
D03*
X45984Y57244D02*
D03*
X43917Y49705D02*
D03*
X47854Y57185D02*
D03*
X44705Y52657D02*
D03*
X46968Y57087D02*
D03*
X42835Y46260D02*
D03*
X43189Y52323D02*
D03*
X42205Y56811D02*
D03*
X42638Y45079D02*
D03*
X43307Y54094D02*
D03*
X43465Y45197D02*
D03*
X43150Y44783D02*
D03*
X43465Y57087D02*
D03*
X56043Y49705D02*
D03*
X59980Y57185D02*
D03*
X56831Y52657D02*
D03*
X59094Y57087D02*
D03*
X56437Y52657D02*
D03*
X58110Y57244D02*
D03*
X55276Y44783D02*
D03*
X55591Y57087D02*
D03*
X54331Y56811D02*
D03*
X54764Y45079D02*
D03*
X54961Y46260D02*
D03*
X55315Y52323D02*
D03*
X55433Y54094D02*
D03*
X55591Y45197D02*
D03*
X68169Y49705D02*
D03*
X72106Y57185D02*
D03*
X68957Y52657D02*
D03*
X71220Y57087D02*
D03*
X68563Y52657D02*
D03*
X70236Y57244D02*
D03*
X67402Y44783D02*
D03*
X67717Y57087D02*
D03*
X66457Y56811D02*
D03*
X66890Y45079D02*
D03*
X67087Y46260D02*
D03*
X67441Y52323D02*
D03*
X67559Y54094D02*
D03*
X67717Y45197D02*
D03*
M02*
