<?xml version="1.0" encoding="UTF-8" standalone="no"?>
<!DOCTYPE svg PUBLIC "-//W3C//DTD SVG 20010904//EN"
"http://www.w3.org/TR/2001/REC-SVG-20010904/DTD/svg10.dtd">
<!-- Created with Inkscape (http://www.inkscape.org/) -->
<svg
   id="svg1"
   sodipodi:version="0.32"
   inkscape:version="0.39cvs"
   width="612.00000pt"
   height="792.00000pt"
   sodipodi:docname="eventmux.svg"
   xmlns="http://www.w3.org/2000/svg"
   xmlns:inkscape="http://www.inkscape.org/namespaces/inkscape"
   xmlns:sodipodi="http://sodipodi.sourceforge.net/DTD/sodipodi-0.dtd"
   xmlns:xml="http://www.w3.org/XML/1998/namespace"
   xmlns:xlink="http://www.w3.org/1999/xlink"
   sodipodi:docbase="/home/jonas/soma/developer/DSPboard/docs/FPGA">
  <defs
     id="defs3">
    <marker
       style="overflow:visible;"
       id="TriangleOutM"
       refX="0.0"
       refY="0.0"
       orient="auto"
       inkscape:stockid="TriangleOutM">
      <path
         transform="scale(0.4)"
         style="fill-rule:evenodd;stroke:#000000;stroke-width:1.0pt;marker-start:none;"
         d="M 5.77,0.0 L -2.88,5.0 L -2.88,-5.0 L 5.77,0.0 z "
         id="path1698"
         sodipodi:nodetypes="cccc" />
    </marker>
    <marker
       style="overflow:visible;"
       id="TriangleInM"
       refX="0.0"
       refY="0.0"
       orient="auto"
       inkscape:stockid="TriangleInM">
      <path
         transform="scale(-0.4)"
         style="fill-rule:evenodd;stroke:#000000;stroke-width:1.0pt;marker-start:none;"
         d="M 5.77,0.0 L -2.88,5.0 L -2.88,-5.0 L 5.77,0.0 z "
         id="path1545"
         sodipodi:nodetypes="cccc" />
    </marker>
    <marker
       style="overflow:visible;"
       id="Arrow1M"
       refX="0.0"
       refY="0.0"
       orient="auto"
       inkscape:stockid="Arrow1M">
      <path
         transform="scale(0.4)"
         style="fill-rule:evenodd;stroke:#000000;stroke-width:1.0pt;marker-start:none;"
         d="M 0.0,0.0 L 5.0,-5.0 L -12.5,0.0 L 5.0,5.0 L 0.0,0.0 z "
         id="path1591"
         sodipodi:nodetypes="ccccc" />
    </marker>
    <marker
       style="overflow:visible;"
       id="Arrow2L"
       refX="0.0"
       refY="0.0"
       orient="auto"
       inkscape:stockid="Arrow2L">
      <path
         transform="scale(1.1) translate(-5,0)"
         d="M 8.7185878,4.0337352 L -2.2072895,0.016013256 L 8.7185884,-4.0017078 C 6.9730900,-1.6296469 6.9831476,1.6157441 8.7185878,4.0337352 z "
         style="font-size:12.0;fill-rule:evenodd;stroke-width:0.62500000;stroke-linejoin:round;"
         id="path1587"
         sodipodi:nodetypes="cccc" />
    </marker>
    <marker
       style="overflow:visible;"
       id="Arrow1S"
       refX="0.0"
       refY="0.0"
       orient="auto"
       inkscape:stockid="Arrow1S">
      <path
         transform="scale(0.2)"
         style="fill-rule:evenodd;stroke:#000000;stroke-width:1.0pt;marker-start:none;"
         d="M 0.0,0.0 L 5.0,-5.0 L -12.5,0.0 L 5.0,5.0 L 0.0,0.0 z "
         id="path983"
         sodipodi:nodetypes="ccccc" />
    </marker>
    <marker
       style="overflow:visible;"
       id="Arrow2S"
       refX="0.0"
       refY="0.0"
       orient="auto"
       inkscape:stockid="Arrow2S">
      <path
         transform="scale(0.3) translate(-5,0)"
         d="M 8.7185878,4.0337352 L -2.2072895,0.016013256 L 8.7185884,-4.0017078 C 6.9730900,-1.6296469 6.9831476,1.6157441 8.7185878,4.0337352 z "
         style="font-size:12.0;fill-rule:evenodd;stroke-width:0.62500000;stroke-linejoin:round;"
         id="arrowMarkerPath2"
         sodipodi:nodetypes="cccc" />
    </marker>
    <marker
       style="overflow:visible;"
       id="Arrow2M"
       refX="0.0"
       refY="0.0"
       orient="auto"
       inkscape:stockid="Arrow2M">
      <path
         transform="scale(0.6) translate(-5,0)"
         d="M 8.7185878,4.0337352 L -2.2072895,0.016013256 L 8.7185884,-4.0017078 C 6.9730900,-1.6296469 6.9831476,1.6157441 8.7185878,4.0337352 z "
         style="font-size:12.0;fill-rule:evenodd;stroke-width:0.62500000;stroke-linejoin:round;"
         id="path1585"
         sodipodi:nodetypes="cccc" />
    </marker>
    <marker
       style="overflow:visible;"
       id="Torso"
       refX="0.0"
       refY="0.0"
       orient="auto"
       inkscape:stockid="Torso">
      <g
         transform="scale(0.7)"
         id="g2045">
        <path
           style="fill:none;fill-opacity:0.75000000;fill-rule:evenodd;stroke:#000000;stroke-width:1.2500000;marker-start:none;marker-mid:none;marker-end:none;"
           d="M -4.7792281,-3.2395420 C -2.4288541,-2.8736027 0.52103922,-1.3019943 0.25792722,0.38794346 C -0.0051877922,2.0778819 -2.2126741,2.6176539 -4.5630471,2.2517169 C -6.9134221,1.8857769 -8.5210350,0.75201414 -8.2579220,-0.93792336 C -7.9948090,-2.6278615 -7.1296041,-3.6054813 -4.7792281,-3.2395420 z "
           id="path1128"
           sodipodi:nodetypes="ccccc" />
        <path
           style="fill:none;fill-opacity:0.75000000;fill-rule:evenodd;stroke:#000000;stroke-width:1.0000000pt;marker-end:none;"
           d="M 4.4598789,0.088665736 C -2.5564571,-4.3783320 5.2248769,-3.9061806 -0.84829578,-8.7197331"
           id="path1909"
           sodipodi:nodetypes="cc" />
        <path
           style="fill:none;fill-opacity:0.75000000;fill-rule:evenodd;stroke:#000000;stroke-width:1.0000000pt;marker-start:none;marker-end:none;"
           d="M 4.9298719,0.057520736 C -1.3872731,1.7494689 1.8027579,5.4782079 -4.9448731,7.5462725"
           id="path1910"
           sodipodi:nodetypes="cc" />
        <rect
           style="fill-rule:evenodd;stroke-width:1.0000000pt;marker-end:none;"
           id="rect2035"
           width="2.6366582"
           height="2.7608147"
           x="-10.391706"
           y="-1.7408575"
           transform="matrix(0.527536,-0.849533,0.887668,0.460484,0.000000,0.000000)" />
        <rect
           style="fill-rule:evenodd;stroke-width:1.0000000pt;marker-end:none;"
           id="rect2036"
           width="2.7327356"
           height="2.8614161"
           x="4.9587269"
           y="-7.9629307"
           transform="matrix(0.671205,-0.741272,0.790802,0.612072,0.000000,0.000000)" />
        <path
           sodipodi:type="arc"
           style="fill:#ff0000;fill-opacity:0.75000000;fill-rule:evenodd;stroke:#000000;stroke-width:1.0000000pt;marker-start:none;marker-end:none;"
           id="path2037"
           sodipodi:cx="16.172634"
           sodipodi:cy="-28.685045"
           sodipodi:rx="0.60731727"
           sodipodi:ry="0.60731727"
           d="M 16.779951 -28.685045 A 0.60731727 0.60731727 0 1 0 15.565317,-28.685045 A 0.60731727 0.60731727 0 1 0 16.779951 -28.685045 z"
           transform="matrix(6.793608e-17,-1.109517,1.109517,6.793608e-17,25.96648,19.71619)" />
        <path
           sodipodi:type="arc"
           style="fill:#ff0000;fill-opacity:0.75000000;fill-rule:evenodd;stroke:#000000;stroke-width:1.0000000pt;marker-start:none;marker-end:none;"
           id="path2038"
           sodipodi:cx="16.172634"
           sodipodi:cy="-28.685045"
           sodipodi:rx="0.60731727"
           sodipodi:ry="0.60731727"
           d="M 16.779951 -28.685045 A 0.60731727 0.60731727 0 1 0 15.565317,-28.685045 A 0.60731727 0.60731727 0 1 0 16.779951 -28.685045 z"
           transform="matrix(6.793608e-17,-1.109517,1.109517,6.793608e-17,26.82450,16.99126)" />
      </g>
    </marker>
    <marker
       style="overflow:visible;"
       id="Arrow1L"
       refX="0.0"
       refY="0.0"
       orient="auto"
       inkscape:stockid="Arrow1L">
      <path
         transform="scale(0.8)"
         style="fill-rule:evenodd;stroke:#000000;stroke-width:1.0pt;marker-start:none;"
         d="M 0.0,0.0 L 5.0,-5.0 L -12.5,0.0 L 5.0,5.0 L 0.0,0.0 z "
         id="path1593"
         sodipodi:nodetypes="ccccc" />
    </marker>
    <marker
       style="overflow:visible;"
       id="TriangleOutL"
       refX="0.0"
       refY="0.0"
       orient="auto"
       inkscape:stockid="TriangleOutL">
      <path
         transform="scale(0.8)"
         style="fill-rule:evenodd;stroke:#000000;stroke-width:1.0pt;marker-start:none;"
         d="M 5.77,0.0 L -2.88,5.0 L -2.88,-5.0 L 5.77,0.0 z "
         id="path1541"
         sodipodi:nodetypes="cccc" />
    </marker>
  </defs>
  <sodipodi:namedview
     id="base"
     pagecolor="#ffffff"
     bordercolor="#666666"
     borderopacity="1.0"
     inkscape:pageopacity="0.0"
     inkscape:pageshadow="2"
     inkscape:zoom="1.1934844"
     inkscape:cx="371.34262"
     inkscape:cy="197.39902"
     inkscape:window-width="1596"
     inkscape:window-height="1159"
     showgrid="true"
     snaptogrid="true"
     inkscape:grid-points="true"
     gridspacingy="2.5000000pt"
     gridspacingx="2.5000000pt"
     gridoriginy="0.0000000pt"
     gridoriginx="0.0000000pt"
     gridtolerance="2.5000000pt"
     showguides="true"
     snaptoguides="true"
     inkscape:window-x="0"
     inkscape:window-y="0"
     inkscape:grid-bbox="false"
     guidetolerance="5.0000000pt" />
  <path
     style="fill:none;fill-opacity:0.75000000;fill-rule:evenodd;stroke:#000000;stroke-width:1.0000000pt;"
     d="M 193.75000,411.87500 L 193.75000,427.50000 L 193.75000,430.62500 L 184.37500,430.62500"
     id="path999" />
  <path
     style="fill:none;fill-opacity:0.75000000;fill-rule:evenodd;stroke:#000000;stroke-width:1.0000000pt;"
     d="M 196.87500,471.25000 L 225.00000,471.25000 L 225.00000,402.50000"
     id="path1107"
     sodipodi:nodetypes="ccc" />
  <g
     id="g1663"
     transform="translate(12.50000,-71.87500)">
    <path
       style="fill:#ffffff;fill-rule:evenodd;stroke:#000000;stroke-width:1.0000000pt;"
       d="M 175.00000,455.62500 L 175.00000,486.87500 L 184.37500,483.75000 L 184.37500,458.75000 L 175.00000,455.62500 z "
       id="path1742"
       sodipodi:nodetypes="ccccc" />
    <text
       xml:space="preserve"
       style="font-size:9.0000000;stroke-width:1.0000000pt;font-family:Bitstream Vera Sans;"
       x="176.70674"
       y="481.35648"
       id="text1731"
       sodipodi:linespacing="100%"><tspan
         id="tspan1732">1</tspan></text>
    <text
       xml:space="preserve"
       style="font-size:9.0000000;stroke-width:1.0000000pt;font-family:Bitstream Vera Sans;"
       x="176.70674"
       y="468.85648"
       id="text1737"
       sodipodi:linespacing="100%"><tspan
         x="176.70674"
         y="468.85648"
         sodipodi:role="line"
         id="tspan1740">0</tspan></text>
  </g>
  <text
     xml:space="preserve"
     style="font-size:12.000000;stroke-width:1.0000000pt;font-family:Bitstream Vera Sans;text-anchor:end;"
     x="155.37439"
     y="398.12280"
     id="text991"
     sodipodi:linespacing="100%"><tspan
       id="tspan992">AOA[7:0]</tspan></text>
  <text
     xml:space="preserve"
     style="font-size:12.000000;stroke-width:1.0000000pt;font-family:Bitstream Vera Sans;text-anchor:end;"
     x="155.37439"
     y="410.62280"
     id="text994"
     sodipodi:linespacing="100%"><tspan
       id="tspan995">AOB[7:0]</tspan></text>
  <path
     style="fill:none;fill-opacity:0.75000000;fill-rule:evenodd;stroke:#000000;stroke-width:1.0000000pt;"
     d="M 159.37500,393.12500 L 187.50000,393.12500"
     id="path997" />
  <path
     style="fill:none;fill-opacity:0.75000000;fill-rule:evenodd;stroke:#000000;stroke-width:1.0000000pt;"
     d="M 187.50000,405.62500 L 159.37500,405.62500"
     id="path998" />
  <text
     xml:space="preserve"
     style="font-size:8.0000000;stroke-width:1.0000000pt;font-family:Bitstream Vera Sans;text-anchor:end;"
     x="183.71953"
     y="433.69922"
     id="text1000"
     sodipodi:linespacing="100%"><tspan
       id="tspan1001">ESEL</tspan></text>
  <path
     style="fill:none;fill-opacity:0.75000000;fill-rule:evenodd;stroke:#000000;stroke-width:1.0000000pt;"
     d="M 196.87500,399.37500 L 225.00000,399.37500"
     id="path1003" />
  <path
     style="fill:#ffffff;fill-rule:evenodd;stroke:#000000;stroke-width:1.0000000pt;"
     d="M 215.97137,390.12233 L 215.97137,408.62766 L 231.25000,399.37500 L 215.97137,390.12233"
     id="path1004" />
  <path
     style="fill:none;fill-opacity:0.75000000;fill-rule:evenodd;stroke:#000000;stroke-width:1.0000000pt;"
     d="M 231.25000,399.37500 L 256.42361,399.37500"
     id="path1005"
     sodipodi:nodetypes="cc" />
  <text
     xml:space="preserve"
     style="font-size:12.000000;stroke-width:1.0000000pt;font-family:Bitstream Vera Sans;"
     x="258.95923"
     y="404.23853"
     id="text1006"
     sodipodi:linespacing="100%"><tspan
       id="tspan1007">EADDR[15:0]</tspan></text>
  <path
     style="fill:none;fill-opacity:0.75000000;fill-rule:evenodd;stroke:#000000;stroke-width:1.0000000pt;"
     d="M 193.75000,568.12500 L 193.75000,583.75000 L 193.75000,586.87500 L 184.37500,586.87500"
     id="path1009" />
  <g
     id="g1010"
     transform="translate(12.50000,84.37500)">
    <path
       style="fill:#ffffff;fill-rule:evenodd;stroke:#000000;stroke-width:1.0000000pt;"
       d="M 175.00000,455.62500 L 175.00000,486.87500 L 184.37500,483.75000 L 184.37500,458.75000 L 175.00000,455.62500 z "
       id="path1011"
       sodipodi:nodetypes="ccccc" />
    <text
       xml:space="preserve"
       style="font-size:9.0000000;stroke-width:1.0000000pt;font-family:Bitstream Vera Sans;"
       x="176.70674"
       y="481.35648"
       id="text1012"
       sodipodi:linespacing="100%"><tspan
         id="tspan1013">1</tspan></text>
    <text
       xml:space="preserve"
       style="font-size:9.0000000;stroke-width:1.0000000pt;font-family:Bitstream Vera Sans;"
       x="176.70674"
       y="468.85648"
       id="text1015"
       sodipodi:linespacing="100%"><tspan
         x="176.70674"
         y="468.85648"
         sodipodi:role="line"
         id="tspan1016">0</tspan></text>
  </g>
  <text
     xml:space="preserve"
     style="font-size:12.000000;stroke-width:1.0000000pt;font-family:Bitstream Vera Sans;text-anchor:end;"
     x="155.37439"
     y="554.37280"
     id="text1018"
     sodipodi:linespacing="100%"><tspan
       id="tspan1019">DOA[15:0]</tspan></text>
  <text
     xml:space="preserve"
     style="font-size:12.000000;stroke-width:1.0000000pt;font-family:Bitstream Vera Sans;text-anchor:end;"
     x="155.37439"
     y="566.87280"
     id="text1021"
     sodipodi:linespacing="100%"><tspan
       id="tspan1022">DOB[15:0]</tspan></text>
  <path
     style="fill:none;fill-opacity:0.75000000;fill-rule:evenodd;stroke:#000000;stroke-width:1.0000000pt;"
     d="M 159.37500,549.37500 L 187.50000,549.37500"
     id="path1024" />
  <path
     style="fill:none;fill-opacity:0.75000000;fill-rule:evenodd;stroke:#000000;stroke-width:1.0000000pt;"
     d="M 187.50000,561.87500 L 159.37500,561.87500"
     id="path1025" />
  <text
     xml:space="preserve"
     style="font-size:8.0000000;stroke-width:1.0000000pt;font-family:Bitstream Vera Sans;text-anchor:end;"
     x="183.71954"
     y="589.94922"
     id="text1026"
     sodipodi:linespacing="100%"><tspan
       id="tspan1027">ESEL</tspan></text>
  <path
     style="fill:none;fill-opacity:0.75000000;fill-rule:evenodd;stroke:#000000;stroke-width:1.0000000pt;"
     d="M 196.87500,555.62500 L 225.00000,555.62500"
     id="path1029" />
  <path
     style="fill:none;fill-opacity:0.75000000;fill-rule:evenodd;stroke:#000000;stroke-width:1.0000000pt;"
     d="M 231.25000,555.62500 L 256.42361,555.62500"
     id="path1031"
     sodipodi:nodetypes="cc" />
  <text
     xml:space="preserve"
     style="font-size:12.000000;stroke-width:1.0000000pt;font-family:Bitstream Vera Sans;"
     x="258.95923"
     y="560.48853"
     id="text1032"
     sodipodi:linespacing="100%"><tspan
       id="tspan1033">EDATA[15:0]</tspan></text>
  <path
     style="fill:none;fill-rule:evenodd;stroke:black;stroke-opacity:1;stroke-width:1pt;stroke-linejoin:miter;stroke-linecap:butt;fill-opacity:0.75;"
     d="M 225.00000,552.50000 L 225.00000,471.25000"
     id="path1108"
     sodipodi:nodetypes="cc" />
  <path
     style="fill:#ffffff;fill-rule:evenodd;stroke:#000000;stroke-width:1.0000000pt;"
     d="M 215.97137,546.37233 L 215.97137,564.87766 L 231.25000,555.62500 L 215.97137,546.37233"
     id="path1038" />
  <path
     style="fill:none;fill-opacity:0.75000000;fill-rule:evenodd;stroke:#000000;stroke-width:1.0000000pt;"
     d="M 193.75000,483.75000 L 193.75000,499.37500 L 193.75000,502.50000 L 184.37500,502.50000"
     id="path1087" />
  <g
     id="g1088"
     transform="translate(12.50000,0.000000)">
    <path
       style="fill:#ffffff;fill-rule:evenodd;stroke:#000000;stroke-width:1.0000000pt;"
       d="M 175.00000,455.62500 L 175.00000,486.87500 L 184.37500,483.75000 L 184.37500,458.75000 L 175.00000,455.62500 z "
       id="path1089"
       sodipodi:nodetypes="ccccc" />
    <text
       xml:space="preserve"
       style="font-size:9.0000000;stroke-width:1.0000000pt;font-family:Bitstream Vera Sans;"
       x="176.70674"
       y="481.35648"
       id="text1090"
       sodipodi:linespacing="100%"><tspan
         id="tspan1091">1</tspan></text>
    <text
       xml:space="preserve"
       style="font-size:9.0000000;stroke-width:1.0000000pt;font-family:Bitstream Vera Sans;"
       x="176.70674"
       y="468.85648"
       id="text1093"
       sodipodi:linespacing="100%"><tspan
         x="176.70674"
         y="468.85648"
         sodipodi:role="line"
         id="tspan1094">0</tspan></text>
  </g>
  <text
     xml:space="preserve"
     style="font-size:12.000000;stroke-width:1.0000000pt;font-family:Bitstream Vera Sans;text-anchor:end;"
     x="155.37439"
     y="469.99780"
     id="text1096"
     sodipodi:linespacing="100%"><tspan
       id="tspan1097">OEA</tspan></text>
  <text
     xml:space="preserve"
     style="font-size:12.000000;stroke-width:1.0000000pt;font-family:Bitstream Vera Sans;text-anchor:end;"
     x="155.37439"
     y="482.49780"
     id="text1099"
     sodipodi:linespacing="100%"><tspan
       id="tspan1100">OEB</tspan></text>
  <path
     style="fill:none;fill-opacity:0.75000000;fill-rule:evenodd;stroke:#000000;stroke-width:1.0000000pt;"
     d="M 159.37500,465.00000 L 187.50000,465.00000"
     id="path1102" />
  <path
     style="fill:none;fill-opacity:0.75000000;fill-rule:evenodd;stroke:#000000;stroke-width:1.0000000pt;"
     d="M 187.50000,477.50000 L 159.37500,477.50000"
     id="path1103" />
  <text
     xml:space="preserve"
     style="font-size:8.0000000;stroke-width:1.0000000pt;font-family:Bitstream Vera Sans;text-anchor:end;"
     x="183.71953"
     y="505.57422"
     id="text1104"
     sodipodi:linespacing="100%"><tspan
       id="tspan1105">ESEL</tspan></text>
  <path
     style="fill:none;fill-rule:evenodd;stroke:black;stroke-opacity:1;stroke-width:1pt;stroke-linejoin:miter;stroke-linecap:butt;fill-opacity:0.75;"
     d="M 243.75000,399.37500 L 243.75000,365.00000 L 159.37500,365.00000 L 162.50000,365.00000 L 159.37500,365.00000"
     id="path1109" />
  <path
     style="fill:none;fill-rule:evenodd;stroke:black;stroke-opacity:1;stroke-width:1pt;stroke-linejoin:miter;stroke-linecap:butt;fill-opacity:0.75;"
     d="M 243.75000,365.00000 C 243.75000,361.87500 243.75000,343.12500 243.75000,343.12500 L 159.37500,343.12500"
     id="path1110" />
  <text
     xml:space="preserve"
     style="font-size:12.000000;stroke-width:1.0000000pt;font-family:Bitstream Vera Sans;text-anchor:end;"
     x="155.37439"
     y="348.12280"
     id="text1111"
     sodipodi:linespacing="100%"><tspan
       id="tspan1112">AIA[7:0]</tspan></text>
  <text
     xml:space="preserve"
     style="font-size:12.000000;stroke-width:1.0000000pt;font-family:Bitstream Vera Sans;text-anchor:end;"
     x="155.37439"
     y="369.99780"
     id="text1114"
     sodipodi:linespacing="100%"><tspan
       id="tspan1115">AIB[7:0]</tspan></text>
  <text
     xml:space="preserve"
     style="font-size:12.000000;stroke-width:1.0000000pt;font-family:Bitstream Vera Sans;text-anchor:end;"
     x="152.24939"
     y="616.87280"
     id="text1117"
     sodipodi:linespacing="100%"><tspan
       id="tspan1118">DIA[15:0]</tspan></text>
  <text
     xml:space="preserve"
     style="font-size:12.000000;stroke-width:1.0000000pt;font-family:Bitstream Vera Sans;text-anchor:end;"
     x="152.24939"
     y="638.74780"
     id="text1120"
     sodipodi:linespacing="100%"><tspan
       id="tspan1121">DIB[15:0]</tspan></text>
  <path
     style="fill:none;fill-rule:evenodd;stroke:black;stroke-opacity:1;stroke-width:1pt;stroke-linejoin:miter;stroke-linecap:butt;fill-opacity:0.75;"
     d="M 156.25000,611.87500 L 243.75000,611.87500 L 243.75000,555.62500"
     id="path1126" />
  <path
     style="fill:none;fill-rule:evenodd;stroke:black;stroke-opacity:1;stroke-width:1pt;stroke-linejoin:miter;stroke-linecap:butt;fill-opacity:0.75;"
     d="M 156.25000,636.87500 L 240.62500,636.87500 L 243.75000,636.87500 L 243.75000,611.87500"
     id="path1127" />
  <path
     style="fill:#ffffff;fill-rule:evenodd;stroke:#000000;stroke-width:1.2499998;stroke-linecap:round;"
     d="M 490.62500,458.75000 L 506.25000,458.75000 C 506.25000,458.75000 515.62500,458.56170 515.62500,468.12500 C 515.62500,477.68830 506.25000,477.50000 506.25000,477.50000 L 490.62500,477.50000 L 490.62500,458.75000 z "
     id="path1130"
     sodipodi:nodetypes="cccccc" />
  <path
     style="fill:#ffffff;fill-rule:evenodd;stroke:#000000;stroke-width:1.2499998;stroke-linecap:round;"
     d="M 490.62500,490.00000 L 506.25000,490.00000 C 506.25000,490.00000 515.62500,489.81170 515.62500,499.37500 C 515.62500,508.93830 506.25000,508.75000 506.25000,508.75000 L 490.62500,508.75000 L 490.62500,490.00000 z "
     id="path1131"
     sodipodi:nodetypes="cccccc" />
  <path
     style="fill:none;fill-opacity:0.75000000;fill-rule:evenodd;stroke:#000000;stroke-width:1.0000000pt;"
     d="M 437.50000,483.75000 L 468.75000,483.75000 L 468.75000,474.37500 L 490.62500,474.37500"
     id="path1132" />
  <path
     style="fill:none;fill-opacity:0.75000000;fill-rule:evenodd;stroke:#000000;stroke-width:1.0000000pt;"
     d="M 490.62500,493.12500 C 487.50000,493.12500 468.75000,493.12500 468.75000,493.12500 L 468.75000,483.75000"
     id="path1133" />
  <path
     sodipodi:type="arc"
     style="fill:#ffffff;fill-rule:evenodd;stroke:#000000;stroke-width:1.0000000pt;"
     id="path1134"
     sodipodi:cx="210.93750"
     sodipodi:cy="663.43750"
     sodipodi:rx="1.5625000"
     sodipodi:ry="1.5625000"
     d="M 212.50000 663.43750 A 1.5625000 1.5625000 0 1 0 209.37500,663.43750 A 1.5625000 1.5625000 0 1 0 212.50000 663.43750 z"
     transform="translate(278.1250,-157.8750)" />
  <path
     style="fill:none;fill-opacity:0.75000000;fill-rule:evenodd;stroke:#000000;stroke-width:1.0000000pt;"
     d="M 468.75000,505.62500 L 487.50000,505.62500"
     id="path1135" />
  <path
     style="fill:none;fill-opacity:0.75000000;fill-rule:evenodd;stroke:#000000;stroke-width:1.0000000pt;"
     d="M 468.75000,461.87500 L 490.62500,461.87500"
     id="path1136" />
  <text
     xml:space="preserve"
     style="font-size:8.0000000;stroke-width:1.0000000pt;font-family:Bitstream Vera Sans;text-anchor:end;"
     x="468.44464"
     y="465.03735"
     id="text1137"
     sodipodi:linespacing="100%"><tspan
       id="tspan1138">ESEL</tspan></text>
  <text
     xml:space="preserve"
     style="font-size:8.0000000;stroke-width:1.0000000pt;font-family:Bitstream Vera Sans;text-anchor:end;"
     x="468.44464"
     y="508.78735"
     id="text1140"
     sodipodi:linespacing="100%"><tspan
       id="tspan1141">ESEL</tspan></text>
  <path
     style="fill:none;fill-opacity:0.75000000;fill-rule:evenodd;stroke:#000000;stroke-width:1.0000000pt;"
     d="M 515.62500,468.12500 L 537.50000,468.12500"
     id="path1143" />
  <path
     style="fill:none;fill-opacity:0.75000000;fill-rule:evenodd;stroke:#000000;stroke-width:1.0000000pt;"
     d="M 515.62500,499.37500 L 537.50000,499.37500"
     id="path1144" />
  <text
     xml:space="preserve"
     style="font-size:12.000000;stroke-width:1.0000000pt;font-family:Bitstream Vera Sans;"
     x="540.20923"
     y="472.98853"
     id="text1145"
     sodipodi:linespacing="100%"><tspan
       id="tspan1146">CEA</tspan></text>
  <text
     xml:space="preserve"
     style="font-size:12.000000;stroke-width:1.0000000pt;font-family:Bitstream Vera Sans;"
     x="540.20923"
     y="504.23853"
     id="text1148"
     sodipodi:linespacing="100%"><tspan
       id="tspan1149">CEB</tspan></text>
  <g
     id="g1151"
     transform="translate(328.1250,34.37500)">
    <rect
       style="fill:#ffffff;fill-rule:evenodd;stroke:#000000;stroke-width:1.1744328;"
       id="rect1152"
       width="28.350792"
       height="50.096931"
       x="77.899200"
       y="343.12500" />
    <text
       xml:space="preserve"
       style="font-size:10.000000;stroke-width:1.0000000pt;font-family:Bitstream Vera Sans;text-anchor:middle;"
       x="96.335358"
       y="390.89999"
       id="text1153"
       sodipodi:linespacing="100%"><tspan
         id="tspan1154">EN</tspan></text>
    <text
       xml:space="preserve"
       style="font-size:4.0000000;stroke-width:0.36937839;font-family:Bitstream Vera Sans;"
       x="23.410166"
       y="106.56478"
       id="text1156"
       sodipodi:linespacing="100%"
       transform="scale(3.384064,3.384064)"><tspan
         id="tspan1157">D</tspan></text>
    <text
       xml:space="preserve"
       style="font-size:4.0000000;stroke-width:0.36937839;font-family:Bitstream Vera Sans;text-anchor:end;"
       x="30.771975"
       y="106.58192"
       id="text1159"
       sodipodi:linespacing="100%"
       transform="scale(3.384064,3.384064)"><tspan
         id="tspan1160">Q</tspan></text>
    <path
       style="fill:none;fill-opacity:0.75000000;fill-rule:evenodd;stroke:#000000;stroke-width:1.0000000pt;"
       d="M 78.125000,393.12500 L 84.375000,386.87500 L 78.125000,380.62500"
       id="path1162" />
  </g>
  <path
     style="fill:#ffffff;fill-rule:evenodd;stroke:#000000;stroke-width:1.0000000pt;"
     d="M 428.12500,346.37233 L 428.12500,364.87766 L 412.84637,355.62500 L 428.12500,346.37233"
     id="path1163" />
  <path
     sodipodi:type="arc"
     style="fill:#ffffff;fill-rule:evenodd;stroke:#000000;stroke-width:1.0000000pt;"
     id="path1164"
     sodipodi:cx="210.93750"
     sodipodi:cy="663.43750"
     sodipodi:rx="1.5625000"
     sodipodi:ry="1.5625000"
     d="M 212.50000 663.43750 A 1.5625000 1.5625000 0 1 0 209.37500,663.43750 A 1.5625000 1.5625000 0 1 0 212.50000 663.43750 z"
     transform="matrix(-1.000000,0.000000,0.000000,1.000000,622.2214,-307.8750)" />
  <path
     style="fill:none;fill-opacity:0.75000000;fill-rule:evenodd;stroke:#000000;stroke-width:1.0000000pt;"
     d="M 434.37500,390.00000 C 437.50000,390.00000 453.12500,390.00000 453.12500,390.00000 L 453.12500,355.62500 L 428.12500,355.62500"
     id="path1165" />
  <path
     style="fill:none;fill-opacity:0.75000000;fill-rule:evenodd;stroke:#000000;stroke-width:1.0000000pt;"
     d="M 409.37500,355.62500 L 393.75000,355.62500 L 393.75000,390.00000 L 406.25000,390.00000"
     id="path1166" />
  <text
     xml:space="preserve"
     style="font-size:8.0000000;stroke-width:1.0000000pt;font-family:Bitstream Vera Sans;"
     x="363.81805"
     y="-455.10077"
     id="text1167"
     transform="matrix(2.318783e-15,1.000000,-1.000000,2.318783e-15,0.000000,0.000000)"><tspan
       id="tspan1168">ESEL</tspan></text>
  <path
     style="fill:#ffffff;fill-rule:evenodd;stroke:#000000;stroke-width:1.0000000pt;"
     d="M 353.47137,443.24733 L 353.47137,461.75266 L 368.75000,452.50000 L 353.47137,443.24733"
     id="path1170" />
  <path
     sodipodi:type="arc"
     style="fill:#ffffff;fill-rule:evenodd;stroke:#000000;stroke-width:1.0000000pt;"
     id="path1171"
     sodipodi:cx="210.93750"
     sodipodi:cy="663.43750"
     sodipodi:rx="1.5625000"
     sodipodi:ry="1.5625000"
     d="M 212.50000 663.43750 A 1.5625000 1.5625000 0 1 0 209.37500,663.43750 A 1.5625000 1.5625000 0 1 0 212.50000 663.43750 z"
     transform="translate(159.3750,-211.0000)" />
  <text
     xml:space="preserve"
     style="font-size:12.000000;stroke-width:1.0000000pt;font-family:Bitstream Vera Sans;text-anchor:end;"
     x="330.37439"
     y="457.49780"
     id="text1172"
     sodipodi:linespacing="100%"><tspan
       id="tspan1173">ECE</tspan></text>
  <path
     style="fill:none;fill-opacity:0.75000000;fill-rule:evenodd;stroke:#000000;stroke-width:1.0000000pt;"
     d="M 334.37500,452.50000 L 334.37500,452.50000 C 337.50000,452.50000 353.12500,452.50000 353.12500,452.50000"
     id="path1175" />
  <path
     style="fill:none;fill-opacity:0.75000000;fill-rule:evenodd;stroke:#000000;stroke-width:1.0000000pt;"
     d="M 371.87500,452.50000 L 425.00000,452.50000 L 425.00000,427.50000"
     id="path1176"
     sodipodi:nodetypes="ccc" />
  <path
     style="fill:none;fill-rule:evenodd;stroke:black;stroke-opacity:1;stroke-width:1pt;stroke-linejoin:miter;stroke-linecap:butt;fill-opacity:0.75;"
     d="M 437.50000,483.75000 L 425.00000,483.75000 L 425.00000,452.50000 L 425.00000,452.50000"
     id="path1177" />
  <g
     id="g1178"
     transform="translate(471.8750,215.6250)">
    <rect
       style="fill:#ffffff;fill-rule:evenodd;stroke:#000000;stroke-width:1.1744328;"
       id="rect1179"
       width="28.350792"
       height="50.096931"
       x="77.899200"
       y="343.12500" />
    <text
       xml:space="preserve"
       style="font-size:10.000000;stroke-width:1.0000000pt;font-family:Bitstream Vera Sans;text-anchor:middle;"
       x="96.335358"
       y="390.89999"
       id="text1180"
       sodipodi:linespacing="100%"><tspan
         id="tspan1181">EN</tspan></text>
    <text
       xml:space="preserve"
       style="font-size:4.0000000;stroke-width:0.36937839;font-family:Bitstream Vera Sans;"
       x="23.410166"
       y="106.56478"
       id="text1183"
       sodipodi:linespacing="100%"
       transform="scale(3.384064,3.384064)"><tspan
         id="tspan1184">D</tspan></text>
    <text
       xml:space="preserve"
       style="font-size:4.0000000;stroke-width:0.36937839;font-family:Bitstream Vera Sans;text-anchor:end;"
       x="30.771975"
       y="106.58192"
       id="text1186"
       sodipodi:linespacing="100%"
       transform="scale(3.384064,3.384064)"><tspan
         id="tspan1187">Q</tspan></text>
    <path
       style="fill:none;fill-opacity:0.75000000;fill-rule:evenodd;stroke:#000000;stroke-width:1.0000000pt;"
       d="M 78.125000,393.12500 L 84.375000,386.87500 L 78.125000,380.62500"
       id="path1189" />
  </g>
  <path
     style="fill:#ffffff;fill-rule:evenodd;stroke:#000000;stroke-width:1.2499998;stroke-linecap:round;"
     d="M 484.37500,615.00000 L 500.00000,615.00000 C 500.00000,615.00000 509.37500,614.81170 509.37500,624.37500 C 509.37500,633.93830 500.00000,633.75000 500.00000,633.75000 L 484.37500,633.75000 L 484.37500,615.00000 z "
     id="path1190"
     sodipodi:nodetypes="cccccc" />
  <path
     sodipodi:type="arc"
     style="fill:#ffffff;fill-rule:evenodd;stroke:#000000;stroke-width:1.0000000pt;"
     id="path1191"
     sodipodi:cx="210.93750"
     sodipodi:cy="663.43750"
     sodipodi:rx="1.5625000"
     sodipodi:ry="1.5625000"
     d="M 212.50000 663.43750 A 1.5625000 1.5625000 0 1 0 209.37500,663.43750 A 1.5625000 1.5625000 0 1 0 212.50000 663.43750 z"
     transform="translate(271.8750,-32.87500)" />
  <path
     style="fill:none;fill-rule:evenodd;stroke:black;stroke-opacity:1;stroke-width:1pt;stroke-linejoin:miter;stroke-linecap:butt;fill-opacity:0.75;"
     d="M 243.75000,571.25000 L 550.00000,571.25000"
     id="path1192" />
  <path
     style="fill:none;fill-rule:evenodd;stroke:black;stroke-opacity:1;stroke-width:1pt;stroke-linejoin:miter;stroke-linecap:butt;fill-opacity:0.75;"
     d="M 425.00000,483.75000 L 425.00000,568.12500"
     id="path1193" />
  <path
     style="fill:none;fill-rule:evenodd;stroke:black;stroke-opacity:1;stroke-width:1pt;stroke-linejoin:miter;stroke-linecap:butt;fill-opacity:0.75;"
     d="M 425.00000,574.37500 L 425.00000,618.12500 L 484.37500,618.12500"
     id="path1194" />
  <path
     style="fill:none;fill-rule:evenodd;stroke:black;stroke-opacity:1;stroke-width:1pt;stroke-linejoin:miter;stroke-linecap:butt;fill-opacity:0.75;"
     d="M 509.37500,624.37500 L 568.75000,624.37500 L 568.75000,608.75000"
     id="path1195" />
  <g
     id="g1197"
     transform="translate(521.8750,268.7500)">
    <rect
       style="fill:#ffffff;fill-rule:evenodd;stroke:#000000;stroke-width:1.1744328;"
       id="rect1198"
       width="28.350792"
       height="50.096931"
       x="77.899200"
       y="343.12500" />
    <text
       xml:space="preserve"
       style="font-size:4.0000000;stroke-width:0.36937839;font-family:Bitstream Vera Sans;"
       x="23.410166"
       y="106.56478"
       id="text1202"
       sodipodi:linespacing="100%"
       transform="scale(3.384064,3.384064)"><tspan
         id="tspan1203">S</tspan></text>
    <text
       xml:space="preserve"
       style="font-size:4.0000000;stroke-width:0.36937839;font-family:Bitstream Vera Sans;text-anchor:end;"
       x="30.771975"
       y="106.58192"
       id="text1205"
       sodipodi:linespacing="100%"
       transform="scale(3.384064,3.384064)"><tspan
         id="tspan1206">Q</tspan></text>
    <path
       style="fill:none;fill-opacity:0.75000000;fill-rule:evenodd;stroke:#000000;stroke-width:1.0000000pt;"
       d="M 78.125000,393.12500 L 84.375000,386.87500 L 78.125000,380.62500"
       id="path1208" />
  </g>
  <path
     style="fill:#ffffff;fill-rule:evenodd;stroke:#000000;stroke-width:1.2499998;stroke-linecap:round;"
     d="M 353.12500,608.75000 L 368.75000,608.75000 C 368.75000,608.75000 378.12500,608.56170 378.12500,618.12500 C 378.12500,627.68830 368.75000,627.50000 368.75000,627.50000 L 353.12500,627.50000 L 353.12500,608.75000 z "
     id="path1210"
     sodipodi:nodetypes="cccccc" />
  <path
     style="fill:#ffffff;fill-rule:evenodd;stroke:#000000;stroke-width:1.0000000pt;"
     d="M 306.59637,602.62233 L 306.59637,621.12766 L 321.87500,611.87500 L 306.59637,602.62233"
     id="path1211" />
  <path
     sodipodi:type="arc"
     style="fill:#ffffff;fill-rule:evenodd;stroke:#000000;stroke-width:1.0000000pt;"
     id="path1212"
     sodipodi:cx="210.93750"
     sodipodi:cy="663.43750"
     sodipodi:rx="1.5625000"
     sodipodi:ry="1.5625000"
     d="M 212.50000 663.43750 A 1.5625000 1.5625000 0 1 0 209.37500,663.43750 A 1.5625000 1.5625000 0 1 0 212.50000 663.43750 z"
     transform="translate(112.5000,-51.62500)" />
  <text
     xml:space="preserve"
     style="font-size:12.000000;stroke-width:1.0000000pt;font-family:Bitstream Vera Sans;"
     x="252.70923"
     y="616.73853"
     id="text1213"
     sodipodi:linespacing="100%"><tspan
       id="tspan1214">NEXTA</tspan></text>
  <path
     style="fill:none;fill-opacity:0.75000000;fill-rule:evenodd;stroke:#000000;stroke-width:1.0000000pt;"
     d="M 293.75000,611.87500 L 306.25000,611.87500"
     id="path1216" />
  <path
     style="fill:none;fill-opacity:0.75000000;fill-rule:evenodd;stroke:#000000;stroke-width:1.0000000pt;"
     d="M 325.00000,611.87500 L 353.12500,611.87500"
     id="path1217" />
  <path
     style="fill:none;fill-opacity:0.75000000;fill-rule:evenodd;stroke:#000000;stroke-width:1.0000000pt;"
     d="M 378.12500,618.12500 L 384.37500,618.12500 L 384.37500,596.25000 L 393.75000,596.25000"
     id="path1218" />
  <path
     style="fill:none;fill-opacity:0.75000000;fill-rule:evenodd;stroke:#000000;stroke-width:1.0000000pt;"
     d="M 384.37500,618.12500 L 384.37500,630.62500 L 393.75000,630.62500 L 393.75000,630.62500"
     id="path1219" />
  <text
     xml:space="preserve"
     style="font-size:12.000000;stroke-width:1.0000000pt;font-family:Bitstream Vera Sans;"
     x="395.64722"
     y="636.73694"
     id="text1220"
     sodipodi:linespacing="100%"><tspan
       id="tspan1221">EA</tspan></text>
  <text
     xml:space="preserve"
     style="font-size:12.000000;stroke-width:1.0000000pt;font-family:Bitstream Vera Sans;"
     x="396.19116"
     y="600.33661"
     id="text1223"
     sodipodi:linespacing="100%"><tspan
       id="tspan1224">EB</tspan></text>
  <path
     style="fill:none;fill-opacity:0.75000000;fill-rule:evenodd;stroke:#000000;stroke-width:1.0000000pt;"
     d="M 628.12500,624.37500 L 650.00000,624.37500 L 650.00000,674.37500 L 343.75000,674.37500 L 343.75000,624.37500 L 353.12500,624.37500"
     id="path1226"
     sodipodi:nodetypes="cccccc" />
  <path
     style="fill:none;fill-rule:evenodd;stroke:black;stroke-opacity:1;stroke-width:1pt;stroke-linejoin:miter;stroke-linecap:butt;fill-opacity:0.75;"
     d="M 568.75000,624.37500 L 600.00000,624.37500"
     id="path1227" />
  <path
     style="fill:none;fill-rule:evenodd;stroke:black;stroke-opacity:1;stroke-width:1pt;stroke-linejoin:miter;stroke-linecap:butt;fill-opacity:0.75;"
     d="M 481.25000,630.62500 L 471.87500,630.62500 L 471.87500,674.37500"
     id="path1228"
     sodipodi:nodetypes="ccc" />
  <text
     xml:space="preserve"
     style="font-size:8.0000000;stroke-width:1.0000000pt;font-family:Bitstream Vera Sans;"
     x="522.56854"
     y="658.77368"
     id="text1229"><tspan
       id="tspan1230">MADDRSET</tspan></text>
  <text
     xml:space="preserve"
     style="font-size:12.000000;stroke-width:1.0000000pt;font-family:Bitstream Vera Sans;"
     x="598.64343"
     y="574.88556"
     id="text1235"
     sodipodi:linespacing="100%"><tspan
       id="tspan1236">MADDR[7:0]</tspan></text>
  <path
     style="fill:none;fill-rule:evenodd;stroke:black;stroke-opacity:1;stroke-width:1pt;stroke-linejoin:miter;stroke-linecap:butt;fill-opacity:0.75;"
     d="M 578.12500,571.25000 L 596.87500,571.25000"
     id="path1238" />
  <g
     id="g1393"
     style="stroke-width:2.0000000;"
     transform="matrix(0.500000,0.000000,0.000000,0.500000,-90.63490,223.1283)">
    <path
       sodipodi:type="arc"
       style="fill-rule:evenodd;stroke-width:2.5000000;"
       id="path1394"
       sodipodi:cx="668.75000"
       sodipodi:cy="283.75000"
       sodipodi:rx="3.1250000"
       sodipodi:ry="3.1250000"
       d="M 671.87500 283.75000 A 3.1250000 3.1250000 0 1 0 665.62500,283.75000 A 3.1250000 3.1250000 0 1 0 671.87500 283.75000 z" />
    <rect
       style="fill:none;fill-opacity:0.75000000;fill-rule:evenodd;stroke-width:2.5000000;"
       id="rect1395"
       width="12.500000"
       height="12.500000"
       x="662.50000"
       y="277.50000" />
  </g>
  <g
     id="g1622"
     style="stroke-width:2.0000000;"
     transform="matrix(0.500000,0.000000,0.000000,0.500000,-109.3849,329.3783)">
    <path
       sodipodi:type="arc"
       style="fill-rule:evenodd;stroke-width:2.5000000;"
       id="path1623"
       sodipodi:cx="668.75000"
       sodipodi:cy="283.75000"
       sodipodi:rx="3.1250000"
       sodipodi:ry="3.1250000"
       d="M 671.87500 283.75000 A 3.1250000 3.1250000 0 1 0 665.62500,283.75000 A 3.1250000 3.1250000 0 1 0 671.87500 283.75000 z" />
    <rect
       style="fill:none;fill-opacity:0.75000000;fill-rule:evenodd;stroke-width:2.5000000;"
       id="rect1624"
       width="12.500000"
       height="12.500000"
       x="662.50000"
       y="277.50000" />
  </g>
  <g
     id="g1625"
     style="stroke-width:2.0000000;"
     transform="matrix(0.500000,0.000000,0.000000,0.500000,-90.63490,413.7533)">
    <path
       sodipodi:type="arc"
       style="fill-rule:evenodd;stroke-width:2.5000000;"
       id="path1626"
       sodipodi:cx="668.75000"
       sodipodi:cy="283.75000"
       sodipodi:rx="3.1250000"
       sodipodi:ry="3.1250000"
       d="M 671.87500 283.75000 A 3.1250000 3.1250000 0 1 0 665.62500,283.75000 A 3.1250000 3.1250000 0 1 0 671.87500 283.75000 z" />
    <rect
       style="fill:none;fill-opacity:0.75000000;fill-rule:evenodd;stroke-width:2.5000000;"
       id="rect1627"
       width="12.500000"
       height="12.500000"
       x="662.50000"
       y="277.50000" />
  </g>
  <g
     id="g1628"
     style="stroke-width:2.0000000;"
     transform="matrix(0.500000,0.000000,0.000000,0.500000,-90.63490,429.3783)">
    <path
       sodipodi:type="arc"
       style="fill-rule:evenodd;stroke-width:2.5000000;"
       id="path1629"
       sodipodi:cx="668.75000"
       sodipodi:cy="283.75000"
       sodipodi:rx="3.1250000"
       sodipodi:ry="3.1250000"
       d="M 671.87500 283.75000 A 3.1250000 3.1250000 0 1 0 665.62500,283.75000 A 3.1250000 3.1250000 0 1 0 671.87500 283.75000 z" />
    <rect
       style="fill:none;fill-opacity:0.75000000;fill-rule:evenodd;stroke-width:2.5000000;"
       id="rect1630"
       width="12.500000"
       height="12.500000"
       x="662.50000"
       y="277.50000" />
  </g>
  <g
     id="g1631"
     style="stroke-width:2.0000000;"
     transform="matrix(0.500000,0.000000,0.000000,0.500000,-90.63490,470.0033)">
    <path
       sodipodi:type="arc"
       style="fill-rule:evenodd;stroke-width:2.5000000;"
       id="path1632"
       sodipodi:cx="668.75000"
       sodipodi:cy="283.75000"
       sodipodi:rx="3.1250000"
       sodipodi:ry="3.1250000"
       d="M 671.87500 283.75000 A 3.1250000 3.1250000 0 1 0 665.62500,283.75000 A 3.1250000 3.1250000 0 1 0 671.87500 283.75000 z" />
    <rect
       style="fill:none;fill-opacity:0.75000000;fill-rule:evenodd;stroke-width:2.5000000;"
       id="rect1633"
       width="12.500000"
       height="12.500000"
       x="662.50000"
       y="277.50000" />
  </g>
  <g
     id="g1634"
     style="stroke-width:2.0000000;"
     transform="matrix(0.500000,0.000000,0.000000,0.500000,49.99010,476.2533)">
    <path
       sodipodi:type="arc"
       style="fill-rule:evenodd;stroke-width:2.5000000;"
       id="path1635"
       sodipodi:cx="668.75000"
       sodipodi:cy="283.75000"
       sodipodi:rx="3.1250000"
       sodipodi:ry="3.1250000"
       d="M 671.87500 283.75000 A 3.1250000 3.1250000 0 1 0 665.62500,283.75000 A 3.1250000 3.1250000 0 1 0 671.87500 283.75000 z" />
    <rect
       style="fill:none;fill-opacity:0.75000000;fill-rule:evenodd;stroke-width:2.5000000;"
       id="rect1636"
       width="12.500000"
       height="12.500000"
       x="662.50000"
       y="277.50000" />
  </g>
  <g
     id="g1637"
     style="stroke-width:2.0000000;"
     transform="matrix(0.500000,0.000000,0.000000,0.500000,137.4901,532.5033)">
    <path
       sodipodi:type="arc"
       style="fill-rule:evenodd;stroke-width:2.5000000;"
       id="path1638"
       sodipodi:cx="668.75000"
       sodipodi:cy="283.75000"
       sodipodi:rx="3.1250000"
       sodipodi:ry="3.1250000"
       d="M 671.87500 283.75000 A 3.1250000 3.1250000 0 1 0 665.62500,283.75000 A 3.1250000 3.1250000 0 1 0 671.87500 283.75000 z" />
    <rect
       style="fill:none;fill-opacity:0.75000000;fill-rule:evenodd;stroke-width:2.5000000;"
       id="rect1639"
       width="12.500000"
       height="12.500000"
       x="662.50000"
       y="277.50000" />
  </g>
  <g
     id="g1640"
     style="stroke-width:2.0000000;"
     transform="matrix(0.500000,0.000000,0.000000,0.500000,234.3651,482.5033)">
    <path
       sodipodi:type="arc"
       style="fill-rule:evenodd;stroke-width:2.5000000;"
       id="path1641"
       sodipodi:cx="668.75000"
       sodipodi:cy="283.75000"
       sodipodi:rx="3.1250000"
       sodipodi:ry="3.1250000"
       d="M 671.87500 283.75000 A 3.1250000 3.1250000 0 1 0 665.62500,283.75000 A 3.1250000 3.1250000 0 1 0 671.87500 283.75000 z" />
    <rect
       style="fill:none;fill-opacity:0.75000000;fill-rule:evenodd;stroke-width:2.5000000;"
       id="rect1642"
       width="12.500000"
       height="12.500000"
       x="662.50000"
       y="277.50000" />
  </g>
  <g
     id="g1643"
     style="stroke-width:2.0000000;"
     transform="matrix(0.500000,0.000000,0.000000,0.500000,134.3651,341.8783)">
    <path
       sodipodi:type="arc"
       style="fill-rule:evenodd;stroke-width:2.5000000;"
       id="path1644"
       sodipodi:cx="668.75000"
       sodipodi:cy="283.75000"
       sodipodi:rx="3.1250000"
       sodipodi:ry="3.1250000"
       d="M 671.87500 283.75000 A 3.1250000 3.1250000 0 1 0 665.62500,283.75000 A 3.1250000 3.1250000 0 1 0 671.87500 283.75000 z" />
    <rect
       style="fill:none;fill-opacity:0.75000000;fill-rule:evenodd;stroke-width:2.5000000;"
       id="rect1645"
       width="12.500000"
       height="12.500000"
       x="662.50000"
       y="277.50000" />
  </g>
  <g
     id="g1646"
     style="stroke-width:2.0000000;"
     transform="matrix(0.500000,0.000000,0.000000,0.500000,90.61510,341.8783)">
    <path
       sodipodi:type="arc"
       style="fill-rule:evenodd;stroke-width:2.5000000;"
       id="path1647"
       sodipodi:cx="668.75000"
       sodipodi:cy="283.75000"
       sodipodi:rx="3.1250000"
       sodipodi:ry="3.1250000"
       d="M 671.87500 283.75000 A 3.1250000 3.1250000 0 1 0 665.62500,283.75000 A 3.1250000 3.1250000 0 1 0 671.87500 283.75000 z" />
    <rect
       style="fill:none;fill-opacity:0.75000000;fill-rule:evenodd;stroke-width:2.5000000;"
       id="rect1648"
       width="12.500000"
       height="12.500000"
       x="662.50000"
       y="277.50000" />
  </g>
  <g
     id="g1649"
     style="stroke-width:2.0000000;"
     transform="matrix(0.500000,0.000000,0.000000,0.500000,90.61510,310.6283)">
    <path
       sodipodi:type="arc"
       style="fill-rule:evenodd;stroke-width:2.5000000;"
       id="path1650"
       sodipodi:cx="668.75000"
       sodipodi:cy="283.75000"
       sodipodi:rx="3.1250000"
       sodipodi:ry="3.1250000"
       d="M 671.87500 283.75000 A 3.1250000 3.1250000 0 1 0 665.62500,283.75000 A 3.1250000 3.1250000 0 1 0 671.87500 283.75000 z" />
    <rect
       style="fill:none;fill-opacity:0.75000000;fill-rule:evenodd;stroke-width:2.5000000;"
       id="rect1651"
       width="12.500000"
       height="12.500000"
       x="662.50000"
       y="277.50000" />
  </g>
  <g
     id="g1652"
     style="stroke-width:2.0000000;"
     transform="matrix(0.500000,0.000000,0.000000,0.500000,-90.63490,257.5033)">
    <path
       sodipodi:type="arc"
       style="fill-rule:evenodd;stroke-width:2.5000000;"
       id="path1653"
       sodipodi:cx="668.75000"
       sodipodi:cy="283.75000"
       sodipodi:rx="3.1250000"
       sodipodi:ry="3.1250000"
       d="M 671.87500 283.75000 A 3.1250000 3.1250000 0 1 0 665.62500,283.75000 A 3.1250000 3.1250000 0 1 0 671.87500 283.75000 z" />
    <rect
       style="fill:none;fill-opacity:0.75000000;fill-rule:evenodd;stroke-width:2.5000000;"
       id="rect1654"
       width="12.500000"
       height="12.500000"
       x="662.50000"
       y="277.50000" />
  </g>
</svg>
