<svg height="522" width="852"><g><line stroke="grey" stroke-width="0.5" x1="110.0" x2="110.0" y1="0" y2="520" /><line stroke="grey" stroke-width="0.5" x1="150.0" x2="150.0" y1="0" y2="520" /><line stroke="grey" stroke-width="0.5" x1="190.0" x2="190.0" y1="0" y2="520" /><line stroke="grey" stroke-width="0.5" x1="230.0" x2="230.0" y1="0" y2="520" /><line stroke="grey" stroke-width="0.5" x1="270.0" x2="270.0" y1="0" y2="520" /><line stroke="grey" stroke-width="0.5" x1="310.0" x2="310.0" y1="0" y2="520" /><line stroke="grey" stroke-width="0.5" x1="350.0" x2="350.0" y1="0" y2="520" /><line stroke="grey" stroke-width="0.5" x1="390.0" x2="390.0" y1="0" y2="520" /><line stroke="grey" stroke-width="0.5" x1="430.0" x2="430.0" y1="0" y2="520" /><line stroke="grey" stroke-width="0.5" x1="470.0" x2="470.0" y1="0" y2="520" /><line stroke="grey" stroke-width="0.5" x1="510.0" x2="510.0" y1="0" y2="520" /><line stroke="grey" stroke-width="0.5" x1="550.0" x2="550.0" y1="0" y2="520" /><line stroke="grey" stroke-width="0.5" x1="590.0" x2="590.0" y1="0" y2="520" /><line stroke="grey" stroke-width="0.5" x1="630.0" x2="630.0" y1="0" y2="520" /><line stroke="grey" stroke-width="0.5" x1="670.0" x2="670.0" y1="0" y2="520" /><line stroke="grey" stroke-width="0.5" x1="710.0" x2="710.0" y1="0" y2="520" /><line stroke="grey" stroke-width="0.5" x1="750.0" x2="750.0" y1="0" y2="520" /><line stroke="grey" stroke-width="0.5" x1="790.0" x2="790.0" y1="0" y2="520" /><line stroke="grey" stroke-width="0.5" x1="830.0" x2="830.0" y1="0" y2="520" /></g><g><g><text font-family="Helvetica" font-size="14.285714" text-anchor="end" x="86.000000" y="26.000000">SYSCLK</text><path d="M90.000000,30.000000 h20.000000 v-20.000000 h20.000000 v20.000000" fill="none" stroke="black" stroke-linecap="square" /><path d="M130.000000,30.000000 h20.000000 v-20.000000 h20.000000 v20.000000" fill="none" stroke="black" stroke-linecap="square" /><path d="M170.000000,30.000000 h20.000000 v-20.000000 h20.000000 v20.000000" fill="none" stroke="black" stroke-linecap="square" /><path d="M210.000000,30.000000 h20.000000 v-20.000000 h20.000000 v20.000000" fill="none" stroke="black" stroke-linecap="square" /><path d="M250.000000,30.000000 h20.000000 v-20.000000 h20.000000 v20.000000" fill="none" stroke="black" stroke-linecap="square" /><path d="M290.000000,30.000000 h20.000000 v-20.000000 h20.000000 v20.000000" fill="none" stroke="black" stroke-linecap="square" /><path d="M330.000000,30.000000 h20.000000 v-20.000000 h20.000000 v20.000000" fill="none" stroke="black" stroke-linecap="square" /><path d="M370.000000,30.000000 h20.000000 v-20.000000 h20.000000 v20.000000" fill="none" stroke="black" stroke-linecap="square" /><path d="M410.000000,30.000000 h20.000000 v-20.000000 h20.000000 v20.000000" fill="none" stroke="black" stroke-linecap="square" /><path d="M450.000000,30.000000 h20.000000 v-20.000000 h20.000000 v20.000000" fill="none" stroke="black" stroke-linecap="square" /><path d="M490.000000,30.000000 h20.000000 v-20.000000 h20.000000 v20.000000" fill="none" stroke="black" stroke-linecap="square" /><path d="M530.000000,30.000000 h20.000000 v-20.000000 h20.000000 v20.000000" fill="none" stroke="black" stroke-linecap="square" /><path d="M570.000000,30.000000 h20.000000 v-20.000000 h20.000000 v20.000000" fill="none" stroke="black" stroke-linecap="square" /><path d="M610.000000,30.000000 h20.000000 v-20.000000 h20.000000 v20.000000" fill="none" stroke="black" stroke-linecap="square" /><path d="M650.000000,30.000000 h20.000000 v-20.000000 h20.000000 v20.000000" fill="none" stroke="black" stroke-linecap="square" /><path d="M690.000000,30.000000 h20.000000 v-20.000000 h20.000000 v20.000000" fill="none" stroke="black" stroke-linecap="square" /><path d="M730.000000,30.000000 h20.000000 v-20.000000 h20.000000 v20.000000" fill="none" stroke="black" stroke-linecap="square" /><path d="M770.000000,30.000000 h20.000000 v-20.000000 h20.000000 v20.000000" fill="none" stroke="black" stroke-linecap="square" /><path d="M810.000000,30.000000 h20.000000 v-20.000000 h20.000000 v20.000000" fill="none" stroke="black" stroke-linecap="square" /></g><g><text font-family="Helvetica" font-size="14.285714" text-anchor="end" x="86.000000" y="56.000000">EEVENT</text><path d="M90.000000,60.000000  l5.000000, 0.000000 h35.000000" fill="none" stroke="black" stroke-linecap="square" /><path d="M130.000000,60.000000  l5.000000, -20.000000 h35.000000" fill="none" stroke="black" stroke-linecap="square" /><path d="M170.000000,40.000000  l5.000000, 20.000000 h35.000000" fill="none" stroke="black" stroke-linecap="square" /><path d="M210.000000,60.000000  l5.000000, 0.000000 h35.000000" fill="none" stroke="black" stroke-linecap="square" /><path d="M250.000000,60.000000  l5.000000, 0.000000 h35.000000" fill="none" stroke="black" stroke-linecap="square" /><path d="M290.000000,60.000000  l5.000000, 0.000000 h35.000000" fill="none" stroke="black" stroke-linecap="square" /><path d="M330.000000,60.000000  l5.000000, 0.000000 h35.000000" fill="none" stroke="black" stroke-linecap="square" /><path d="M370.000000,60.000000  l5.000000, -20.000000 h35.000000" fill="none" stroke="black" stroke-linecap="square" /><path d="M410.000000,40.000000  l5.000000, 20.000000 h35.000000" fill="none" stroke="black" stroke-linecap="square" /><path d="M450.000000,60.000000  l5.000000, 0.000000 h35.000000" fill="none" stroke="black" stroke-linecap="square" /><path d="M490.000000,60.000000  l5.000000, 0.000000 h35.000000" fill="none" stroke="black" stroke-linecap="square" /><path d="M530.000000,60.000000  l5.000000, 0.000000 h35.000000" fill="none" stroke="black" stroke-linecap="square" /><path d="M570.000000,60.000000  l5.000000, 0.000000 h35.000000" fill="none" stroke="black" stroke-linecap="square" /><path d="M610.000000,60.000000  l5.000000, -20.000000 h35.000000" fill="none" stroke="black" stroke-linecap="square" /><path d="M650.000000,40.000000  l5.000000, 20.000000 h35.000000" fill="none" stroke="black" stroke-linecap="square" /><path d="M690.000000,60.000000  l5.000000, 0.000000 h35.000000" fill="none" stroke="black" stroke-linecap="square" /><path d="M730.000000,60.000000  l5.000000, 0.000000 h35.000000" fill="none" stroke="black" stroke-linecap="square" /><path d="M770.000000,60.000000  l5.000000, 0.000000 h35.000000" fill="none" stroke="black" stroke-linecap="square" /><path d="M810.000000,60.000000  l5.000000, 0.000000 h35.000000" fill="none" stroke="black" stroke-linecap="square" /></g><g><text font-family="Helvetica" font-size="14.285714" text-anchor="end" x="86.000000" y="86.000000">EADDR</text><g><path d="M90.000000,80.000000 l5.000000,-10.000000 h30.000000 l5.000000,10.000000 l-5.000000,10.000000 h-30.000000 Z" fill="powderblue" stroke="black" stroke-linecap="square" /><text font-family="Helvetica" font-size="10.526316" text-anchor="middle" x="110.000000" y="84.700000">A4</text></g><g><path d="M130.000000,80.000000 l5.000000,-10.000000 h30.000000 l5.000000,10.000000 l-5.000000,10.000000 h-30.000000 Z" fill="powderblue" stroke="black" stroke-linecap="square" /><text font-family="Helvetica" font-size="10.526316" text-anchor="middle" x="150.000000" y="84.700000">A5</text></g><g><path d="M170.000000,80.000000 l5.000000,-10.000000 h30.000000 l5.000000,10.000000 l-5.000000,10.000000 h-30.000000 Z" fill="palegreen" stroke="black" stroke-linecap="square" /><text font-family="Helvetica" font-size="10.526316" text-anchor="middle" x="190.000000" y="84.700000">A0</text></g><g><path d="M210.000000,80.000000 l5.000000,-10.000000 h30.000000 l5.000000,10.000000 l-5.000000,10.000000 h-30.000000 Z" fill="palegreen" stroke="black" stroke-linecap="square" /><text font-family="Helvetica" font-size="10.526316" text-anchor="middle" x="230.000000" y="84.700000">A1</text></g><g><path d="M250.000000,80.000000 l5.000000,-10.000000 h30.000000 l5.000000,10.000000 l-5.000000,10.000000 h-30.000000 Z" fill="palegreen" stroke="black" stroke-linecap="square" /><text font-family="Helvetica" font-size="10.526316" text-anchor="middle" x="270.000000" y="84.700000">A2</text></g><g><path d="M290.000000,80.000000 l5.000000,-10.000000 h30.000000 l5.000000,10.000000 l-5.000000,10.000000 h-30.000000 Z" fill="palegreen" stroke="black" stroke-linecap="square" /><text font-family="Helvetica" font-size="10.526316" text-anchor="middle" x="310.000000" y="84.700000">A3</text></g><g><path d="M330.000000,80.000000 l5.000000,-10.000000 h30.000000 l5.000000,10.000000 l-5.000000,10.000000 h-30.000000 Z" fill="palegreen" stroke="black" stroke-linecap="square" /><text font-family="Helvetica" font-size="10.526316" text-anchor="middle" x="350.000000" y="84.700000">A4</text></g><g><path d="M370.000000,80.000000 l5.000000,-10.000000 h30.000000 l5.000000,10.000000 l-5.000000,10.000000 h-30.000000 Z" fill="palegreen" stroke="black" stroke-linecap="square" /><text font-family="Helvetica" font-size="10.526316" text-anchor="middle" x="390.000000" y="84.700000">A5</text></g><g><path d="M410.000000,80.000000 l5.000000,-10.000000 h30.000000 l5.000000,10.000000 l-5.000000,10.000000 h-30.000000 Z" fill="lightpink" stroke="black" stroke-linecap="square" /><text font-family="Helvetica" font-size="10.526316" text-anchor="middle" x="430.000000" y="84.700000">A0</text></g><g><path d="M450.000000,80.000000 l5.000000,-10.000000 h30.000000 l5.000000,10.000000 l-5.000000,10.000000 h-30.000000 Z" fill="lightpink" stroke="black" stroke-linecap="square" /><text font-family="Helvetica" font-size="10.526316" text-anchor="middle" x="470.000000" y="84.700000">A1</text></g><g><path d="M490.000000,80.000000 l5.000000,-10.000000 h30.000000 l5.000000,10.000000 l-5.000000,10.000000 h-30.000000 Z" fill="lightpink" stroke="black" stroke-linecap="square" /><text font-family="Helvetica" font-size="10.526316" text-anchor="middle" x="510.000000" y="84.700000">A2</text></g><g><path d="M530.000000,80.000000 l5.000000,-10.000000 h30.000000 l5.000000,10.000000 l-5.000000,10.000000 h-30.000000 Z" fill="lightpink" stroke="black" stroke-linecap="square" /><text font-family="Helvetica" font-size="10.526316" text-anchor="middle" x="550.000000" y="84.700000">A3</text></g><g><path d="M570.000000,80.000000 l5.000000,-10.000000 h30.000000 l5.000000,10.000000 l-5.000000,10.000000 h-30.000000 Z" fill="lightpink" stroke="black" stroke-linecap="square" /><text font-family="Helvetica" font-size="10.526316" text-anchor="middle" x="590.000000" y="84.700000">A4</text></g><g><path d="M610.000000,80.000000 l5.000000,-10.000000 h30.000000 l5.000000,10.000000 l-5.000000,10.000000 h-30.000000 Z" fill="lightpink" stroke="black" stroke-linecap="square" /><text font-family="Helvetica" font-size="10.526316" text-anchor="middle" x="630.000000" y="84.700000">A5</text></g><g><path d="M650.000000,80.000000 l5.000000,-10.000000 h30.000000 l5.000000,10.000000 l-5.000000,10.000000 h-30.000000 Z" fill="lightsalmon" stroke="black" stroke-linecap="square" /><text font-family="Helvetica" font-size="10.526316" text-anchor="middle" x="670.000000" y="84.700000">A0</text></g><g><path d="M690.000000,80.000000 l5.000000,-10.000000 h30.000000 l5.000000,10.000000 l-5.000000,10.000000 h-30.000000 Z" fill="lightsalmon" stroke="black" stroke-linecap="square" /><text font-family="Helvetica" font-size="10.526316" text-anchor="middle" x="710.000000" y="84.700000">A1</text></g><g><path d="M730.000000,80.000000 l5.000000,-10.000000 h30.000000 l5.000000,10.000000 l-5.000000,10.000000 h-30.000000 Z" fill="lightsalmon" stroke="black" stroke-linecap="square" /><text font-family="Helvetica" font-size="10.526316" text-anchor="middle" x="750.000000" y="84.700000">A2</text></g><g><path d="M770.000000,80.000000 l5.000000,-10.000000 h30.000000 l5.000000,10.000000 l-5.000000,10.000000 h-30.000000 Z" fill="lightsalmon" stroke="black" stroke-linecap="square" /><text font-family="Helvetica" font-size="10.526316" text-anchor="middle" x="790.000000" y="84.700000">A3</text></g><g><path d="M810.000000,80.000000 l5.000000,-10.000000 h30.000000 l5.000000,10.000000 l-5.000000,10.000000 h-30.000000 Z" fill="lightsalmon" stroke="black" stroke-linecap="square" /><text font-family="Helvetica" font-size="10.526316" text-anchor="middle" x="830.000000" y="84.700000">A4</text></g></g><g><text font-family="Helvetica" font-size="14.285714" text-anchor="end" x="86.000000" y="116.000000">EDATA</text><g><path d="M90.000000,110.000000 l5.000000,-10.000000 h30.000000 l5.000000,10.000000 l-5.000000,10.000000 h-30.000000 Z" fill="powderblue" stroke="black" stroke-linecap="square" /><text font-family="Helvetica" font-size="10.526316" text-anchor="middle" x="110.000000" y="114.700000">D4</text></g><g><path d="M130.000000,110.000000 l5.000000,-10.000000 h30.000000 l5.000000,10.000000 l-5.000000,10.000000 h-30.000000 Z" fill="powderblue" stroke="black" stroke-linecap="square" /><text font-family="Helvetica" font-size="10.526316" text-anchor="middle" x="150.000000" y="114.700000">D5</text></g><g><path d="M170.000000,110.000000 l5.000000,-10.000000 h30.000000 l5.000000,10.000000 l-5.000000,10.000000 h-30.000000 Z" fill="palegreen" stroke="black" stroke-linecap="square" /><text font-family="Helvetica" font-size="10.526316" text-anchor="middle" x="190.000000" y="114.700000">D0</text></g><g><path d="M210.000000,110.000000 l5.000000,-10.000000 h30.000000 l5.000000,10.000000 l-5.000000,10.000000 h-30.000000 Z" fill="palegreen" stroke="black" stroke-linecap="square" /><text font-family="Helvetica" font-size="10.526316" text-anchor="middle" x="230.000000" y="114.700000">D1</text></g><g><path d="M250.000000,110.000000 l5.000000,-10.000000 h30.000000 l5.000000,10.000000 l-5.000000,10.000000 h-30.000000 Z" fill="palegreen" stroke="black" stroke-linecap="square" /><text font-family="Helvetica" font-size="10.526316" text-anchor="middle" x="270.000000" y="114.700000">D2</text></g><g><path d="M290.000000,110.000000 l5.000000,-10.000000 h30.000000 l5.000000,10.000000 l-5.000000,10.000000 h-30.000000 Z" fill="palegreen" stroke="black" stroke-linecap="square" /><text font-family="Helvetica" font-size="10.526316" text-anchor="middle" x="310.000000" y="114.700000">D3</text></g><g><path d="M330.000000,110.000000 l5.000000,-10.000000 h30.000000 l5.000000,10.000000 l-5.000000,10.000000 h-30.000000 Z" fill="palegreen" stroke="black" stroke-linecap="square" /><text font-family="Helvetica" font-size="10.526316" text-anchor="middle" x="350.000000" y="114.700000">D4</text></g><g><path d="M370.000000,110.000000 l5.000000,-10.000000 h30.000000 l5.000000,10.000000 l-5.000000,10.000000 h-30.000000 Z" fill="palegreen" stroke="black" stroke-linecap="square" /><text font-family="Helvetica" font-size="10.526316" text-anchor="middle" x="390.000000" y="114.700000">D5</text></g><g><path d="M410.000000,110.000000 l5.000000,-10.000000 h30.000000 l5.000000,10.000000 l-5.000000,10.000000 h-30.000000 Z" fill="lightpink" stroke="black" stroke-linecap="square" /><text font-family="Helvetica" font-size="10.526316" text-anchor="middle" x="430.000000" y="114.700000">D0</text></g><g><path d="M450.000000,110.000000 l5.000000,-10.000000 h30.000000 l5.000000,10.000000 l-5.000000,10.000000 h-30.000000 Z" fill="lightpink" stroke="black" stroke-linecap="square" /><text font-family="Helvetica" font-size="10.526316" text-anchor="middle" x="470.000000" y="114.700000">D1</text></g><g><path d="M490.000000,110.000000 l5.000000,-10.000000 h30.000000 l5.000000,10.000000 l-5.000000,10.000000 h-30.000000 Z" fill="lightpink" stroke="black" stroke-linecap="square" /><text font-family="Helvetica" font-size="10.526316" text-anchor="middle" x="510.000000" y="114.700000">D2</text></g><g><path d="M530.000000,110.000000 l5.000000,-10.000000 h30.000000 l5.000000,10.000000 l-5.000000,10.000000 h-30.000000 Z" fill="lightpink" stroke="black" stroke-linecap="square" /><text font-family="Helvetica" font-size="10.526316" text-anchor="middle" x="550.000000" y="114.700000">D3</text></g><g><path d="M570.000000,110.000000 l5.000000,-10.000000 h30.000000 l5.000000,10.000000 l-5.000000,10.000000 h-30.000000 Z" fill="lightpink" stroke="black" stroke-linecap="square" /><text font-family="Helvetica" font-size="10.526316" text-anchor="middle" x="590.000000" y="114.700000">D4</text></g><g><path d="M610.000000,110.000000 l5.000000,-10.000000 h30.000000 l5.000000,10.000000 l-5.000000,10.000000 h-30.000000 Z" fill="lightpink" stroke="black" stroke-linecap="square" /><text font-family="Helvetica" font-size="10.526316" text-anchor="middle" x="630.000000" y="114.700000">D5</text></g><g><path d="M650.000000,110.000000 l5.000000,-10.000000 h30.000000 l5.000000,10.000000 l-5.000000,10.000000 h-30.000000 Z" fill="lightsalmon" stroke="black" stroke-linecap="square" /><text font-family="Helvetica" font-size="10.526316" text-anchor="middle" x="670.000000" y="114.700000">D0</text></g><g><path d="M690.000000,110.000000 l5.000000,-10.000000 h30.000000 l5.000000,10.000000 l-5.000000,10.000000 h-30.000000 Z" fill="lightsalmon" stroke="black" stroke-linecap="square" /><text font-family="Helvetica" font-size="10.526316" text-anchor="middle" x="710.000000" y="114.700000">D1</text></g><g><path d="M730.000000,110.000000 l5.000000,-10.000000 h30.000000 l5.000000,10.000000 l-5.000000,10.000000 h-30.000000 Z" fill="lightsalmon" stroke="black" stroke-linecap="square" /><text font-family="Helvetica" font-size="10.526316" text-anchor="middle" x="750.000000" y="114.700000">D2</text></g><g><path d="M770.000000,110.000000 l5.000000,-10.000000 h30.000000 l5.000000,10.000000 l-5.000000,10.000000 h-30.000000 Z" fill="lightsalmon" stroke="black" stroke-linecap="square" /><text font-family="Helvetica" font-size="10.526316" text-anchor="middle" x="790.000000" y="114.700000">D3</text></g><g><path d="M810.000000,110.000000 l5.000000,-10.000000 h30.000000 l5.000000,10.000000 l-5.000000,10.000000 h-30.000000 Z" fill="lightsalmon" stroke="black" stroke-linecap="square" /><text font-family="Helvetica" font-size="10.526316" text-anchor="middle" x="830.000000" y="114.700000">D4</text></g></g><g><text font-family="Helvetica" font-size="14.285714" text-anchor="end" x="86.000000" y="146.000000">EEVENTL</text><path d="M90.000000,150.000000  l5.000000, 0.000000 h35.000000" fill="none" stroke="black" stroke-linecap="square" /><path d="M130.000000,150.000000  l5.000000, 0.000000 h35.000000" fill="none" stroke="black" stroke-linecap="square" /><path d="M170.000000,150.000000  l5.000000, -20.000000 h35.000000" fill="none" stroke="black" stroke-linecap="square" /><path d="M210.000000,130.000000  l5.000000, 20.000000 h35.000000" fill="none" stroke="black" stroke-linecap="square" /><path d="M250.000000,150.000000  l5.000000, 0.000000 h35.000000" fill="none" stroke="black" stroke-linecap="square" /><path d="M290.000000,150.000000  l5.000000, 0.000000 h35.000000" fill="none" stroke="black" stroke-linecap="square" /><path d="M330.000000,150.000000  l5.000000, 0.000000 h35.000000" fill="none" stroke="black" stroke-linecap="square" /><path d="M370.000000,150.000000  l5.000000, 0.000000 h35.000000" fill="none" stroke="black" stroke-linecap="square" /><path d="M410.000000,150.000000  l5.000000, -20.000000 h35.000000" fill="none" stroke="black" stroke-linecap="square" /><path d="M450.000000,130.000000  l5.000000, 20.000000 h35.000000" fill="none" stroke="black" stroke-linecap="square" /><path d="M490.000000,150.000000  l5.000000, 0.000000 h35.000000" fill="none" stroke="black" stroke-linecap="square" /><path d="M530.000000,150.000000  l5.000000, 0.000000 h35.000000" fill="none" stroke="black" stroke-linecap="square" /><path d="M570.000000,150.000000  l5.000000, 0.000000 h35.000000" fill="none" stroke="black" stroke-linecap="square" /><path d="M610.000000,150.000000  l5.000000, 0.000000 h35.000000" fill="none" stroke="black" stroke-linecap="square" /><path d="M650.000000,150.000000  l5.000000, -20.000000 h35.000000" fill="none" stroke="black" stroke-linecap="square" /><path d="M690.000000,130.000000  l5.000000, 20.000000 h35.000000" fill="none" stroke="black" stroke-linecap="square" /><path d="M730.000000,150.000000  l5.000000, 0.000000 h35.000000" fill="none" stroke="black" stroke-linecap="square" /><path d="M770.000000,150.000000  l5.000000, 0.000000 h35.000000" fill="none" stroke="black" stroke-linecap="square" /><path d="M810.000000,150.000000  l5.000000, 0.000000 h35.000000" fill="none" stroke="black" stroke-linecap="square" /></g><g><text font-family="Helvetica" font-size="14.285714" text-anchor="end" x="86.000000" y="176.000000">CNT</text><g><path d="M90.000000,170.000000 l5.000000,-10.000000 h30.000000 l5.000000,10.000000 l-5.000000,10.000000 h-30.000000 Z" fill="lightgrey" stroke="black" stroke-linecap="square" /><text font-family="Helvetica" font-size="10.526316" text-anchor="middle" x="110.000000" y="174.700000">3</text></g><g><path d="M130.000000,170.000000 l5.000000,-10.000000 h30.000000 l5.000000,10.000000 l-5.000000,10.000000 h-30.000000 Z" fill="lightgrey" stroke="black" stroke-linecap="square" /><text font-family="Helvetica" font-size="10.526316" text-anchor="middle" x="150.000000" y="174.700000">4</text></g><g><path d="M170.000000,170.000000 l5.000000,-10.000000 h30.000000 l5.000000,10.000000 l-5.000000,10.000000 h-30.000000 Z" fill="lightgrey" stroke="black" stroke-linecap="square" /><text font-family="Helvetica" font-size="10.526316" text-anchor="middle" x="190.000000" y="174.700000">5</text></g><g><path d="M210.000000,170.000000 l5.000000,-10.000000 h30.000000 l5.000000,10.000000 l-5.000000,10.000000 h-30.000000 Z" fill="lightgrey" stroke="black" stroke-linecap="square" /><text font-family="Helvetica" font-size="10.526316" text-anchor="middle" x="230.000000" y="174.700000">0</text></g><g><path d="M250.000000,170.000000 l5.000000,-10.000000 h30.000000 l5.000000,10.000000 l-5.000000,10.000000 h-30.000000 Z" fill="lightgrey" stroke="black" stroke-linecap="square" /><text font-family="Helvetica" font-size="10.526316" text-anchor="middle" x="270.000000" y="174.700000">1</text></g><g><path d="M290.000000,170.000000 l5.000000,-10.000000 h30.000000 l5.000000,10.000000 l-5.000000,10.000000 h-30.000000 Z" fill="lightgrey" stroke="black" stroke-linecap="square" /><text font-family="Helvetica" font-size="10.526316" text-anchor="middle" x="310.000000" y="174.700000">2</text></g><g><path d="M330.000000,170.000000 l5.000000,-10.000000 h30.000000 l5.000000,10.000000 l-5.000000,10.000000 h-30.000000 Z" fill="lightgrey" stroke="black" stroke-linecap="square" /><text font-family="Helvetica" font-size="10.526316" text-anchor="middle" x="350.000000" y="174.700000">3</text></g><g><path d="M370.000000,170.000000 l5.000000,-10.000000 h30.000000 l5.000000,10.000000 l-5.000000,10.000000 h-30.000000 Z" fill="lightgrey" stroke="black" stroke-linecap="square" /><text font-family="Helvetica" font-size="10.526316" text-anchor="middle" x="390.000000" y="174.700000">4</text></g><g><path d="M410.000000,170.000000 l5.000000,-10.000000 h30.000000 l5.000000,10.000000 l-5.000000,10.000000 h-30.000000 Z" fill="lightgrey" stroke="black" stroke-linecap="square" /><text font-family="Helvetica" font-size="10.526316" text-anchor="middle" x="430.000000" y="174.700000">5</text></g><g><path d="M450.000000,170.000000 l5.000000,-10.000000 h30.000000 l5.000000,10.000000 l-5.000000,10.000000 h-30.000000 Z" fill="lightgrey" stroke="black" stroke-linecap="square" /><text font-family="Helvetica" font-size="10.526316" text-anchor="middle" x="470.000000" y="174.700000">0</text></g><g><path d="M490.000000,170.000000 l5.000000,-10.000000 h30.000000 l5.000000,10.000000 l-5.000000,10.000000 h-30.000000 Z" fill="lightgrey" stroke="black" stroke-linecap="square" /><text font-family="Helvetica" font-size="10.526316" text-anchor="middle" x="510.000000" y="174.700000">1</text></g><g><path d="M530.000000,170.000000 l5.000000,-10.000000 h30.000000 l5.000000,10.000000 l-5.000000,10.000000 h-30.000000 Z" fill="lightgrey" stroke="black" stroke-linecap="square" /><text font-family="Helvetica" font-size="10.526316" text-anchor="middle" x="550.000000" y="174.700000">2</text></g><g><path d="M570.000000,170.000000 l5.000000,-10.000000 h30.000000 l5.000000,10.000000 l-5.000000,10.000000 h-30.000000 Z" fill="lightgrey" stroke="black" stroke-linecap="square" /><text font-family="Helvetica" font-size="10.526316" text-anchor="middle" x="590.000000" y="174.700000">3</text></g><g><path d="M610.000000,170.000000 l5.000000,-10.000000 h30.000000 l5.000000,10.000000 l-5.000000,10.000000 h-30.000000 Z" fill="lightgrey" stroke="black" stroke-linecap="square" /><text font-family="Helvetica" font-size="10.526316" text-anchor="middle" x="630.000000" y="174.700000">4</text></g><g><path d="M650.000000,170.000000 l5.000000,-10.000000 h30.000000 l5.000000,10.000000 l-5.000000,10.000000 h-30.000000 Z" fill="lightgrey" stroke="black" stroke-linecap="square" /><text font-family="Helvetica" font-size="10.526316" text-anchor="middle" x="670.000000" y="174.700000">5</text></g><g><path d="M690.000000,170.000000 l5.000000,-10.000000 h30.000000 l5.000000,10.000000 l-5.000000,10.000000 h-30.000000 Z" fill="lightgrey" stroke="black" stroke-linecap="square" /><text font-family="Helvetica" font-size="10.526316" text-anchor="middle" x="710.000000" y="174.700000">0</text></g><g><path d="M730.000000,170.000000 l5.000000,-10.000000 h30.000000 l5.000000,10.000000 l-5.000000,10.000000 h-30.000000 Z" fill="lightgrey" stroke="black" stroke-linecap="square" /><text font-family="Helvetica" font-size="10.526316" text-anchor="middle" x="750.000000" y="174.700000">1</text></g><g><path d="M770.000000,170.000000 l5.000000,-10.000000 h30.000000 l5.000000,10.000000 l-5.000000,10.000000 h-30.000000 Z" fill="lightgrey" stroke="black" stroke-linecap="square" /><text font-family="Helvetica" font-size="10.526316" text-anchor="middle" x="790.000000" y="174.700000">2</text></g><g><path d="M810.000000,170.000000 l5.000000,-10.000000 h30.000000 l5.000000,10.000000 l-5.000000,10.000000 h-30.000000 Z" fill="lightgrey" stroke="black" stroke-linecap="square" /><text font-family="Helvetica" font-size="10.526316" text-anchor="middle" x="830.000000" y="174.700000">3</text></g></g><g><text font-family="Helvetica" font-size="14.285714" text-anchor="end" x="86.000000" y="206.000000">DATAL</text><path d="M90.000000,200.000000  l5.000000, 0.000000 h35.000000" fill="none" stroke="black" stroke-linecap="square" /><g><path d="M130.000000,200.000000 l5.000000,-10.000000 h30.000000 l5.000000,10.000000 l-5.000000,10.000000 h-30.000000 Z" fill="powderblue" stroke="black" stroke-linecap="square" /><text font-family="Helvetica" font-size="10.526316" text-anchor="middle" x="150.000000" y="204.700000">D4</text></g><g><path d="M170.000000,200.000000 l5.000000,-10.000000 h30.000000 l5.000000,10.000000 l-5.000000,10.000000 h-30.000000 Z" fill="powderblue" stroke="black" stroke-linecap="square" /><text font-family="Helvetica" font-size="10.526316" text-anchor="middle" x="190.000000" y="204.700000">D5</text></g><g><path d="M210.000000,200.000000 l5.000000,-10.000000 h30.000000 l5.000000,10.000000 l-5.000000,10.000000 h-30.000000 Z" fill="palegreen" stroke="black" stroke-linecap="square" /><text font-family="Helvetica" font-size="10.526316" text-anchor="middle" x="230.000000" y="204.700000">D0</text></g><g><path d="M250.000000,200.000000 l5.000000,-10.000000 h30.000000 l5.000000,10.000000 l-5.000000,10.000000 h-30.000000 Z" fill="palegreen" stroke="black" stroke-linecap="square" /><text font-family="Helvetica" font-size="10.526316" text-anchor="middle" x="270.000000" y="204.700000">D1</text></g><g><path d="M290.000000,200.000000 l5.000000,-10.000000 h30.000000 l5.000000,10.000000 l-5.000000,10.000000 h-30.000000 Z" fill="palegreen" stroke="black" stroke-linecap="square" /><text font-family="Helvetica" font-size="10.526316" text-anchor="middle" x="310.000000" y="204.700000">D2</text></g><g><path d="M330.000000,200.000000 l5.000000,-10.000000 h30.000000 l5.000000,10.000000 l-5.000000,10.000000 h-30.000000 Z" fill="palegreen" stroke="black" stroke-linecap="square" /><text font-family="Helvetica" font-size="10.526316" text-anchor="middle" x="350.000000" y="204.700000">D3</text></g><g><path d="M370.000000,200.000000 l5.000000,-10.000000 h30.000000 l5.000000,10.000000 l-5.000000,10.000000 h-30.000000 Z" fill="palegreen" stroke="black" stroke-linecap="square" /><text font-family="Helvetica" font-size="10.526316" text-anchor="middle" x="390.000000" y="204.700000">D4</text></g><g><path d="M410.000000,200.000000 l5.000000,-10.000000 h30.000000 l5.000000,10.000000 l-5.000000,10.000000 h-30.000000 Z" fill="palegreen" stroke="black" stroke-linecap="square" /><text font-family="Helvetica" font-size="10.526316" text-anchor="middle" x="430.000000" y="204.700000">D5</text></g><g><path d="M450.000000,200.000000 l5.000000,-10.000000 h30.000000 l5.000000,10.000000 l-5.000000,10.000000 h-30.000000 Z" fill="lightpink" stroke="black" stroke-linecap="square" /><text font-family="Helvetica" font-size="10.526316" text-anchor="middle" x="470.000000" y="204.700000">D0</text></g><g><path d="M490.000000,200.000000 l5.000000,-10.000000 h30.000000 l5.000000,10.000000 l-5.000000,10.000000 h-30.000000 Z" fill="lightpink" stroke="black" stroke-linecap="square" /><text font-family="Helvetica" font-size="10.526316" text-anchor="middle" x="510.000000" y="204.700000">D1</text></g><g><path d="M530.000000,200.000000 l5.000000,-10.000000 h30.000000 l5.000000,10.000000 l-5.000000,10.000000 h-30.000000 Z" fill="lightpink" stroke="black" stroke-linecap="square" /><text font-family="Helvetica" font-size="10.526316" text-anchor="middle" x="550.000000" y="204.700000">D2</text></g><g><path d="M570.000000,200.000000 l5.000000,-10.000000 h30.000000 l5.000000,10.000000 l-5.000000,10.000000 h-30.000000 Z" fill="lightpink" stroke="black" stroke-linecap="square" /><text font-family="Helvetica" font-size="10.526316" text-anchor="middle" x="590.000000" y="204.700000">D3</text></g><g><path d="M610.000000,200.000000 l5.000000,-10.000000 h30.000000 l5.000000,10.000000 l-5.000000,10.000000 h-30.000000 Z" fill="lightpink" stroke="black" stroke-linecap="square" /><text font-family="Helvetica" font-size="10.526316" text-anchor="middle" x="630.000000" y="204.700000">D4</text></g><g><path d="M650.000000,200.000000 l5.000000,-10.000000 h30.000000 l5.000000,10.000000 l-5.000000,10.000000 h-30.000000 Z" fill="lightpink" stroke="black" stroke-linecap="square" /><text font-family="Helvetica" font-size="10.526316" text-anchor="middle" x="670.000000" y="204.700000">D5</text></g><g><path d="M690.000000,200.000000 l5.000000,-10.000000 h30.000000 l5.000000,10.000000 l-5.000000,10.000000 h-30.000000 Z" fill="lightsalmon" stroke="black" stroke-linecap="square" /><text font-family="Helvetica" font-size="10.526316" text-anchor="middle" x="710.000000" y="204.700000">D0</text></g><g><path d="M730.000000,200.000000 l5.000000,-10.000000 h30.000000 l5.000000,10.000000 l-5.000000,10.000000 h-30.000000 Z" fill="lightsalmon" stroke="black" stroke-linecap="square" /><text font-family="Helvetica" font-size="10.526316" text-anchor="middle" x="750.000000" y="204.700000">D1</text></g><g><path d="M770.000000,200.000000 l5.000000,-10.000000 h30.000000 l5.000000,10.000000 l-5.000000,10.000000 h-30.000000 Z" fill="lightsalmon" stroke="black" stroke-linecap="square" /><text font-family="Helvetica" font-size="10.526316" text-anchor="middle" x="790.000000" y="204.700000">D2</text></g><g><path d="M810.000000,200.000000 l5.000000,-10.000000 h30.000000 l5.000000,10.000000 l-5.000000,10.000000 h-30.000000 Z" fill="lightsalmon" stroke="black" stroke-linecap="square" /><text font-family="Helvetica" font-size="10.526316" text-anchor="middle" x="830.000000" y="204.700000">D3</text></g></g><g><text font-family="Helvetica" font-size="14.285714" text-anchor="end" x="86.000000" y="236.000000">D0</text><g><path d="M90.000000,230.000000 l5.000000,-10.000000 h30.000000 l5.000000,10.000000 l-5.000000,10.000000 h-30.000000 Z" fill="powderblue" stroke="black" stroke-linecap="square" /><text font-family="Helvetica" font-size="10.526316" text-anchor="middle" x="110.000000" y="234.700000">D0</text></g><g><path d="M130.000000,230.000000 l5.000000,-10.000000 h30.000000 l5.000000,10.000000 l-5.000000,10.000000 h-30.000000 Z" fill="powderblue" stroke="black" stroke-linecap="square" /><text font-family="Helvetica" font-size="10.526316" text-anchor="middle" x="150.000000" y="234.700000">D0</text></g><g><path d="M170.000000,230.000000 l5.000000,-10.000000 h30.000000 l5.000000,10.000000 l-5.000000,10.000000 h-30.000000 Z" fill="powderblue" stroke="black" stroke-linecap="square" /><text font-family="Helvetica" font-size="10.526316" text-anchor="middle" x="190.000000" y="234.700000">D0</text></g><g><path d="M210.000000,230.000000 l5.000000,-10.000000 h30.000000 l5.000000,10.000000 l-5.000000,10.000000 h-30.000000 Z" fill="powderblue" stroke="black" stroke-linecap="square" /><text font-family="Helvetica" font-size="10.526316" text-anchor="middle" x="230.000000" y="234.700000">D0</text></g><g><path d="M250.000000,230.000000 l5.000000,-10.000000 h30.000000 l5.000000,10.000000 l-5.000000,10.000000 h-30.000000 Z" fill="palegreen" stroke="black" stroke-linecap="square" /><text font-family="Helvetica" font-size="10.526316" text-anchor="middle" x="270.000000" y="234.700000">D0</text></g><g><path d="M290.000000,230.000000 l5.000000,-10.000000 h30.000000 l5.000000,10.000000 l-5.000000,10.000000 h-30.000000 Z" fill="palegreen" stroke="black" stroke-linecap="square" /><text font-family="Helvetica" font-size="10.526316" text-anchor="middle" x="310.000000" y="234.700000">D0</text></g><g><path d="M330.000000,230.000000 l5.000000,-10.000000 h30.000000 l5.000000,10.000000 l-5.000000,10.000000 h-30.000000 Z" fill="palegreen" stroke="black" stroke-linecap="square" /><text font-family="Helvetica" font-size="10.526316" text-anchor="middle" x="350.000000" y="234.700000">D0</text></g><g><path d="M370.000000,230.000000 l5.000000,-10.000000 h30.000000 l5.000000,10.000000 l-5.000000,10.000000 h-30.000000 Z" fill="palegreen" stroke="black" stroke-linecap="square" /><text font-family="Helvetica" font-size="10.526316" text-anchor="middle" x="390.000000" y="234.700000">D0</text></g><g><path d="M410.000000,230.000000 l5.000000,-10.000000 h30.000000 l5.000000,10.000000 l-5.000000,10.000000 h-30.000000 Z" fill="palegreen" stroke="black" stroke-linecap="square" /><text font-family="Helvetica" font-size="10.526316" text-anchor="middle" x="430.000000" y="234.700000">D0</text></g><g><path d="M450.000000,230.000000 l5.000000,-10.000000 h30.000000 l5.000000,10.000000 l-5.000000,10.000000 h-30.000000 Z" fill="palegreen" stroke="black" stroke-linecap="square" /><text font-family="Helvetica" font-size="10.526316" text-anchor="middle" x="470.000000" y="234.700000">D0</text></g><g><path d="M490.000000,230.000000 l5.000000,-10.000000 h30.000000 l5.000000,10.000000 l-5.000000,10.000000 h-30.000000 Z" fill="lightpink" stroke="black" stroke-linecap="square" /><text font-family="Helvetica" font-size="10.526316" text-anchor="middle" x="510.000000" y="234.700000">D0</text></g><g><path d="M530.000000,230.000000 l5.000000,-10.000000 h30.000000 l5.000000,10.000000 l-5.000000,10.000000 h-30.000000 Z" fill="lightpink" stroke="black" stroke-linecap="square" /><text font-family="Helvetica" font-size="10.526316" text-anchor="middle" x="550.000000" y="234.700000">D0</text></g><g><path d="M570.000000,230.000000 l5.000000,-10.000000 h30.000000 l5.000000,10.000000 l-5.000000,10.000000 h-30.000000 Z" fill="lightpink" stroke="black" stroke-linecap="square" /><text font-family="Helvetica" font-size="10.526316" text-anchor="middle" x="590.000000" y="234.700000">D0</text></g><g><path d="M610.000000,230.000000 l5.000000,-10.000000 h30.000000 l5.000000,10.000000 l-5.000000,10.000000 h-30.000000 Z" fill="lightpink" stroke="black" stroke-linecap="square" /><text font-family="Helvetica" font-size="10.526316" text-anchor="middle" x="630.000000" y="234.700000">D0</text></g><g><path d="M650.000000,230.000000 l5.000000,-10.000000 h30.000000 l5.000000,10.000000 l-5.000000,10.000000 h-30.000000 Z" fill="lightpink" stroke="black" stroke-linecap="square" /><text font-family="Helvetica" font-size="10.526316" text-anchor="middle" x="670.000000" y="234.700000">D0</text></g><g><path d="M690.000000,230.000000 l5.000000,-10.000000 h30.000000 l5.000000,10.000000 l-5.000000,10.000000 h-30.000000 Z" fill="lightpink" stroke="black" stroke-linecap="square" /><text font-family="Helvetica" font-size="10.526316" text-anchor="middle" x="710.000000" y="234.700000">D0</text></g><g><path d="M730.000000,230.000000 l5.000000,-10.000000 h30.000000 l5.000000,10.000000 l-5.000000,10.000000 h-30.000000 Z" fill="lightsalmon" stroke="black" stroke-linecap="square" /><text font-family="Helvetica" font-size="10.526316" text-anchor="middle" x="750.000000" y="234.700000">D0</text></g><g><path d="M770.000000,230.000000 l5.000000,-10.000000 h30.000000 l5.000000,10.000000 l-5.000000,10.000000 h-30.000000 Z" fill="lightsalmon" stroke="black" stroke-linecap="square" /><text font-family="Helvetica" font-size="10.526316" text-anchor="middle" x="790.000000" y="234.700000">D0</text></g><g><path d="M810.000000,230.000000 l5.000000,-10.000000 h30.000000 l5.000000,10.000000 l-5.000000,10.000000 h-30.000000 Z" fill="lightsalmon" stroke="black" stroke-linecap="square" /><text font-family="Helvetica" font-size="10.526316" text-anchor="middle" x="830.000000" y="234.700000">D0</text></g></g><g><text font-family="Helvetica" font-size="14.285714" text-anchor="end" x="86.000000" y="266.000000">D5</text><g><path d="M90.000000,260.000000 l5.000000,-10.000000 h30.000000 l5.000000,10.000000 l-5.000000,10.000000 h-30.000000 Z" fill="powderblue" stroke="black" stroke-linecap="square" /><text font-family="Helvetica" font-size="10.526316" text-anchor="middle" x="110.000000" y="264.700000">D5</text></g><g><path d="M130.000000,260.000000 l5.000000,-10.000000 h30.000000 l5.000000,10.000000 l-5.000000,10.000000 h-30.000000 Z" fill="powderblue" stroke="black" stroke-linecap="square" /><text font-family="Helvetica" font-size="10.526316" text-anchor="middle" x="150.000000" y="264.700000">D5</text></g><g><path d="M170.000000,260.000000 l5.000000,-10.000000 h30.000000 l5.000000,10.000000 l-5.000000,10.000000 h-30.000000 Z" fill="powderblue" stroke="black" stroke-linecap="square" /><text font-family="Helvetica" font-size="10.526316" text-anchor="middle" x="190.000000" y="264.700000">D5</text></g><g><path d="M210.000000,260.000000 l5.000000,-10.000000 h30.000000 l5.000000,10.000000 l-5.000000,10.000000 h-30.000000 Z" fill="powderblue" stroke="black" stroke-linecap="square" /><text font-family="Helvetica" font-size="10.526316" text-anchor="middle" x="230.000000" y="264.700000">D5</text></g><g><path d="M250.000000,260.000000 l5.000000,-10.000000 h30.000000 l5.000000,10.000000 l-5.000000,10.000000 h-30.000000 Z" fill="powderblue" stroke="black" stroke-linecap="square" /><text font-family="Helvetica" font-size="10.526316" text-anchor="middle" x="270.000000" y="264.700000">D5</text></g><g><path d="M290.000000,260.000000 l5.000000,-10.000000 h30.000000 l5.000000,10.000000 l-5.000000,10.000000 h-30.000000 Z" fill="powderblue" stroke="black" stroke-linecap="square" /><text font-family="Helvetica" font-size="10.526316" text-anchor="middle" x="310.000000" y="264.700000">D5</text></g><g><path d="M330.000000,260.000000 l5.000000,-10.000000 h30.000000 l5.000000,10.000000 l-5.000000,10.000000 h-30.000000 Z" fill="powderblue" stroke="black" stroke-linecap="square" /><text font-family="Helvetica" font-size="10.526316" text-anchor="middle" x="350.000000" y="264.700000">D5</text></g><g><path d="M370.000000,260.000000 l5.000000,-10.000000 h30.000000 l5.000000,10.000000 l-5.000000,10.000000 h-30.000000 Z" fill="powderblue" stroke="black" stroke-linecap="square" /><text font-family="Helvetica" font-size="10.526316" text-anchor="middle" x="390.000000" y="264.700000">D5</text></g><g><path d="M410.000000,260.000000 l5.000000,-10.000000 h30.000000 l5.000000,10.000000 l-5.000000,10.000000 h-30.000000 Z" fill="powderblue" stroke="black" stroke-linecap="square" /><text font-family="Helvetica" font-size="10.526316" text-anchor="middle" x="430.000000" y="264.700000">D5</text></g><g><path d="M450.000000,260.000000 l5.000000,-10.000000 h30.000000 l5.000000,10.000000 l-5.000000,10.000000 h-30.000000 Z" fill="palegreen" stroke="black" stroke-linecap="square" /><text font-family="Helvetica" font-size="10.526316" text-anchor="middle" x="470.000000" y="264.700000">D5</text></g><g><path d="M490.000000,260.000000 l5.000000,-10.000000 h30.000000 l5.000000,10.000000 l-5.000000,10.000000 h-30.000000 Z" fill="palegreen" stroke="black" stroke-linecap="square" /><text font-family="Helvetica" font-size="10.526316" text-anchor="middle" x="510.000000" y="264.700000">D5</text></g><g><path d="M530.000000,260.000000 l5.000000,-10.000000 h30.000000 l5.000000,10.000000 l-5.000000,10.000000 h-30.000000 Z" fill="palegreen" stroke="black" stroke-linecap="square" /><text font-family="Helvetica" font-size="10.526316" text-anchor="middle" x="550.000000" y="264.700000">D5</text></g><g><path d="M570.000000,260.000000 l5.000000,-10.000000 h30.000000 l5.000000,10.000000 l-5.000000,10.000000 h-30.000000 Z" fill="palegreen" stroke="black" stroke-linecap="square" /><text font-family="Helvetica" font-size="10.526316" text-anchor="middle" x="590.000000" y="264.700000">D5</text></g><g><path d="M610.000000,260.000000 l5.000000,-10.000000 h30.000000 l5.000000,10.000000 l-5.000000,10.000000 h-30.000000 Z" fill="palegreen" stroke="black" stroke-linecap="square" /><text font-family="Helvetica" font-size="10.526316" text-anchor="middle" x="630.000000" y="264.700000">D5</text></g><g><path d="M650.000000,260.000000 l5.000000,-10.000000 h30.000000 l5.000000,10.000000 l-5.000000,10.000000 h-30.000000 Z" fill="palegreen" stroke="black" stroke-linecap="square" /><text font-family="Helvetica" font-size="10.526316" text-anchor="middle" x="670.000000" y="264.700000">D5</text></g><g><path d="M690.000000,260.000000 l5.000000,-10.000000 h30.000000 l5.000000,10.000000 l-5.000000,10.000000 h-30.000000 Z" fill="lightpink" stroke="black" stroke-linecap="square" /><text font-family="Helvetica" font-size="10.526316" text-anchor="middle" x="710.000000" y="264.700000">D5</text></g><g><path d="M730.000000,260.000000 l5.000000,-10.000000 h30.000000 l5.000000,10.000000 l-5.000000,10.000000 h-30.000000 Z" fill="lightpink" stroke="black" stroke-linecap="square" /><text font-family="Helvetica" font-size="10.526316" text-anchor="middle" x="750.000000" y="264.700000">D5</text></g><g><path d="M770.000000,260.000000 l5.000000,-10.000000 h30.000000 l5.000000,10.000000 l-5.000000,10.000000 h-30.000000 Z" fill="lightpink" stroke="black" stroke-linecap="square" /><text font-family="Helvetica" font-size="10.526316" text-anchor="middle" x="790.000000" y="264.700000">D5</text></g><g><path d="M810.000000,260.000000 l5.000000,-10.000000 h30.000000 l5.000000,10.000000 l-5.000000,10.000000 h-30.000000 Z" fill="lightpink" stroke="black" stroke-linecap="square" /><text font-family="Helvetica" font-size="10.526316" text-anchor="middle" x="830.000000" y="264.700000">D5</text></g></g><g><text font-family="Helvetica" font-size="14.285714" text-anchor="end" x="86.000000" y="296.000000">ADDRSEL</text><path d="M90.000000,300.000000  l5.000000, 0.000000 h35.000000" fill="none" stroke="black" stroke-linecap="square" /><path d="M130.000000,300.000000  l5.000000, 0.000000 h35.000000" fill="none" stroke="black" stroke-linecap="square" /><path d="M170.000000,300.000000  l5.000000, 0.000000 h35.000000" fill="none" stroke="black" stroke-linecap="square" /><path d="M210.000000,300.000000  l5.000000, 0.000000 h35.000000" fill="none" stroke="black" stroke-linecap="square" /><path d="M250.000000,300.000000  l5.000000, 0.000000 h35.000000" fill="none" stroke="black" stroke-linecap="square" /><path d="M290.000000,300.000000  l5.000000, -20.000000 h35.000000" fill="none" stroke="black" stroke-linecap="square" /><path d="M330.000000,280.000000  l5.000000, 20.000000 h35.000000" fill="none" stroke="black" stroke-linecap="square" /><path d="M370.000000,300.000000  l5.000000, 0.000000 h35.000000" fill="none" stroke="black" stroke-linecap="square" /><path d="M410.000000,300.000000  l5.000000, 0.000000 h35.000000" fill="none" stroke="black" stroke-linecap="square" /><path d="M450.000000,300.000000  l5.000000, 0.000000 h35.000000" fill="none" stroke="black" stroke-linecap="square" /><path d="M490.000000,300.000000  l5.000000, 0.000000 h35.000000" fill="none" stroke="black" stroke-linecap="square" /><path d="M530.000000,300.000000  l5.000000, 0.000000 h35.000000" fill="none" stroke="black" stroke-linecap="square" /><path d="M570.000000,300.000000  l5.000000, 0.000000 h35.000000" fill="none" stroke="black" stroke-linecap="square" /><path d="M610.000000,300.000000  l5.000000, 0.000000 h35.000000" fill="none" stroke="black" stroke-linecap="square" /><path d="M650.000000,300.000000  l5.000000, 0.000000 h35.000000" fill="none" stroke="black" stroke-linecap="square" /><path d="M690.000000,300.000000  l5.000000, 0.000000 h35.000000" fill="none" stroke="black" stroke-linecap="square" /><path d="M730.000000,300.000000  l5.000000, 0.000000 h35.000000" fill="none" stroke="black" stroke-linecap="square" /><path d="M770.000000,300.000000  l5.000000, 0.000000 h35.000000" fill="none" stroke="black" stroke-linecap="square" /><path d="M810.000000,300.000000  l5.000000, 0.000000 h35.000000" fill="none" stroke="black" stroke-linecap="square" /></g><g><text font-family="Helvetica" font-size="14.285714" text-anchor="end" x="86.000000" y="326.000000">SMINE</text><path d="M90.000000,330.000000  l5.000000, 0.000000 h35.000000" fill="none" stroke="black" stroke-linecap="square" /><path d="M130.000000,330.000000  l5.000000, 0.000000 h35.000000" fill="none" stroke="black" stroke-linecap="square" /><path d="M170.000000,330.000000  l5.000000, 0.000000 h35.000000" fill="none" stroke="black" stroke-linecap="square" /><path d="M210.000000,330.000000  l5.000000, 0.000000 h35.000000" fill="none" stroke="black" stroke-linecap="square" /><path d="M250.000000,330.000000  l5.000000, 0.000000 h35.000000" fill="none" stroke="black" stroke-linecap="square" /><path d="M290.000000,330.000000  l5.000000, 0.000000 h35.000000" fill="none" stroke="black" stroke-linecap="square" /><path d="M330.000000,330.000000  l5.000000, -20.000000 h35.000000" fill="none" stroke="black" stroke-linecap="square" /><path d="M370.000000,310.000000  l5.000000, 0.000000 h35.000000" fill="none" stroke="black" stroke-linecap="square" /><path d="M410.000000,310.000000  l5.000000, 0.000000 h35.000000" fill="none" stroke="black" stroke-linecap="square" /><path d="M450.000000,310.000000  l5.000000, 0.000000 h35.000000" fill="none" stroke="black" stroke-linecap="square" /><path d="M490.000000,310.000000  l5.000000, 20.000000 h35.000000" fill="none" stroke="black" stroke-linecap="square" /><path d="M530.000000,330.000000  l5.000000, 0.000000 h35.000000" fill="none" stroke="black" stroke-linecap="square" /><path d="M570.000000,330.000000  l5.000000, 0.000000 h35.000000" fill="none" stroke="black" stroke-linecap="square" /><path d="M610.000000,330.000000  l5.000000, 0.000000 h35.000000" fill="none" stroke="black" stroke-linecap="square" /><path d="M650.000000,330.000000  l5.000000, 0.000000 h35.000000" fill="none" stroke="black" stroke-linecap="square" /><path d="M690.000000,330.000000  l5.000000, 0.000000 h35.000000" fill="none" stroke="black" stroke-linecap="square" /><path d="M730.000000,330.000000  l5.000000, 0.000000 h35.000000" fill="none" stroke="black" stroke-linecap="square" /><path d="M770.000000,330.000000  l5.000000, 0.000000 h35.000000" fill="none" stroke="black" stroke-linecap="square" /><path d="M810.000000,330.000000  l5.000000, 0.000000 h35.000000" fill="none" stroke="black" stroke-linecap="square" /></g><g><text font-family="Helvetica" font-size="14.285714" text-anchor="end" x="86.000000" y="356.000000">LMINE</text><path d="M90.000000,360.000000  l5.000000, 0.000000 h35.000000" fill="none" stroke="black" stroke-linecap="square" /><path d="M130.000000,360.000000  l5.000000, 0.000000 h35.000000" fill="none" stroke="black" stroke-linecap="square" /><path d="M170.000000,360.000000  l5.000000, 0.000000 h35.000000" fill="none" stroke="black" stroke-linecap="square" /><path d="M210.000000,360.000000  l5.000000, 0.000000 h35.000000" fill="none" stroke="black" stroke-linecap="square" /><path d="M250.000000,360.000000  l5.000000, 0.000000 h35.000000" fill="none" stroke="black" stroke-linecap="square" /><path d="M290.000000,360.000000  l5.000000, 0.000000 h35.000000" fill="none" stroke="black" stroke-linecap="square" /><path d="M330.000000,360.000000  l5.000000, 0.000000 h35.000000" fill="none" stroke="black" stroke-linecap="square" /><path d="M370.000000,360.000000  l5.000000, 0.000000 h35.000000" fill="none" stroke="black" stroke-linecap="square" /><path d="M410.000000,360.000000  l5.000000, 0.000000 h35.000000" fill="none" stroke="black" stroke-linecap="square" /><path d="M450.000000,360.000000  l5.000000, -20.000000 h35.000000" fill="none" stroke="black" stroke-linecap="square" /><path d="M490.000000,340.000000  l5.000000, 20.000000 h35.000000" fill="none" stroke="black" stroke-linecap="square" /><path d="M530.000000,360.000000  l5.000000, 0.000000 h35.000000" fill="none" stroke="black" stroke-linecap="square" /><path d="M570.000000,360.000000  l5.000000, 0.000000 h35.000000" fill="none" stroke="black" stroke-linecap="square" /><path d="M610.000000,360.000000  l5.000000, 0.000000 h35.000000" fill="none" stroke="black" stroke-linecap="square" /><path d="M650.000000,360.000000  l5.000000, 0.000000 h35.000000" fill="none" stroke="black" stroke-linecap="square" /><path d="M690.000000,360.000000  l5.000000, 0.000000 h35.000000" fill="none" stroke="black" stroke-linecap="square" /><path d="M730.000000,360.000000  l5.000000, 0.000000 h35.000000" fill="none" stroke="black" stroke-linecap="square" /><path d="M770.000000,360.000000  l5.000000, 0.000000 h35.000000" fill="none" stroke="black" stroke-linecap="square" /><path d="M810.000000,360.000000  l5.000000, 0.000000 h35.000000" fill="none" stroke="black" stroke-linecap="square" /></g><g><text font-family="Helvetica" font-size="14.285714" text-anchor="end" x="86.000000" y="386.000000">D0L</text><g><path d="M90.000000,380.000000 l5.000000,-10.000000 h30.000000 l5.000000,10.000000 l-5.000000,10.000000 h-30.000000 Z" fill="powderblue" stroke="black" stroke-linecap="square" /><text font-family="Helvetica" font-size="10.526316" text-anchor="middle" x="110.000000" y="384.700000">D0</text></g><g><path d="M130.000000,380.000000 l5.000000,-10.000000 h30.000000 l5.000000,10.000000 l-5.000000,10.000000 h-30.000000 Z" fill="powderblue" stroke="black" stroke-linecap="square" /><text font-family="Helvetica" font-size="10.526316" text-anchor="middle" x="150.000000" y="384.700000">D0</text></g><g><path d="M170.000000,380.000000 l5.000000,-10.000000 h30.000000 l5.000000,10.000000 l-5.000000,10.000000 h-30.000000 Z" fill="powderblue" stroke="black" stroke-linecap="square" /><text font-family="Helvetica" font-size="10.526316" text-anchor="middle" x="190.000000" y="384.700000">D0</text></g><g><path d="M210.000000,380.000000 l5.000000,-10.000000 h30.000000 l5.000000,10.000000 l-5.000000,10.000000 h-30.000000 Z" fill="powderblue" stroke="black" stroke-linecap="square" /><text font-family="Helvetica" font-size="10.526316" text-anchor="middle" x="230.000000" y="384.700000">D0</text></g><g><path d="M250.000000,380.000000 l5.000000,-10.000000 h30.000000 l5.000000,10.000000 l-5.000000,10.000000 h-30.000000 Z" fill="powderblue" stroke="black" stroke-linecap="square" /><text font-family="Helvetica" font-size="10.526316" text-anchor="middle" x="270.000000" y="384.700000">D0</text></g><g><path d="M290.000000,380.000000 l5.000000,-10.000000 h30.000000 l5.000000,10.000000 l-5.000000,10.000000 h-30.000000 Z" fill="powderblue" stroke="black" stroke-linecap="square" /><text font-family="Helvetica" font-size="10.526316" text-anchor="middle" x="310.000000" y="384.700000">D0</text></g><g><path d="M330.000000,380.000000 l5.000000,-10.000000 h30.000000 l5.000000,10.000000 l-5.000000,10.000000 h-30.000000 Z" fill="powderblue" stroke="black" stroke-linecap="square" /><text font-family="Helvetica" font-size="10.526316" text-anchor="middle" x="350.000000" y="384.700000">D0</text></g><g><path d="M370.000000,380.000000 l5.000000,-10.000000 h30.000000 l5.000000,10.000000 l-5.000000,10.000000 h-30.000000 Z" fill="powderblue" stroke="black" stroke-linecap="square" /><text font-family="Helvetica" font-size="10.526316" text-anchor="middle" x="390.000000" y="384.700000">D0</text></g><g><path d="M410.000000,380.000000 l5.000000,-10.000000 h30.000000 l5.000000,10.000000 l-5.000000,10.000000 h-30.000000 Z" fill="powderblue" stroke="black" stroke-linecap="square" /><text font-family="Helvetica" font-size="10.526316" text-anchor="middle" x="430.000000" y="384.700000">D0</text></g><g><path d="M450.000000,380.000000 l5.000000,-10.000000 h30.000000 l5.000000,10.000000 l-5.000000,10.000000 h-30.000000 Z" fill="powderblue" stroke="black" stroke-linecap="square" /><text font-family="Helvetica" font-size="10.526316" text-anchor="middle" x="470.000000" y="384.700000">D0</text></g><g><path d="M490.000000,380.000000 l5.000000,-10.000000 h30.000000 l5.000000,10.000000 l-5.000000,10.000000 h-30.000000 Z" fill="palegreen" stroke="black" stroke-linecap="square" /><text font-family="Helvetica" font-size="10.526316" text-anchor="middle" x="510.000000" y="384.700000">D0</text></g><g><path d="M530.000000,380.000000 l5.000000,-10.000000 h30.000000 l5.000000,10.000000 l-5.000000,10.000000 h-30.000000 Z" fill="palegreen" stroke="black" stroke-linecap="square" /><text font-family="Helvetica" font-size="10.526316" text-anchor="middle" x="550.000000" y="384.700000">D0</text></g><g><path d="M570.000000,380.000000 l5.000000,-10.000000 h30.000000 l5.000000,10.000000 l-5.000000,10.000000 h-30.000000 Z" fill="palegreen" stroke="black" stroke-linecap="square" /><text font-family="Helvetica" font-size="10.526316" text-anchor="middle" x="590.000000" y="384.700000">D0</text></g><g><path d="M610.000000,380.000000 l5.000000,-10.000000 h30.000000 l5.000000,10.000000 l-5.000000,10.000000 h-30.000000 Z" fill="palegreen" stroke="black" stroke-linecap="square" /><text font-family="Helvetica" font-size="10.526316" text-anchor="middle" x="630.000000" y="384.700000">D0</text></g><g><path d="M650.000000,380.000000 l5.000000,-10.000000 h30.000000 l5.000000,10.000000 l-5.000000,10.000000 h-30.000000 Z" fill="palegreen" stroke="black" stroke-linecap="square" /><text font-family="Helvetica" font-size="10.526316" text-anchor="middle" x="670.000000" y="384.700000">D0</text></g><g><path d="M690.000000,380.000000 l5.000000,-10.000000 h30.000000 l5.000000,10.000000 l-5.000000,10.000000 h-30.000000 Z" fill="palegreen" stroke="black" stroke-linecap="square" /><text font-family="Helvetica" font-size="10.526316" text-anchor="middle" x="710.000000" y="384.700000">D0</text></g><g><path d="M730.000000,380.000000 l5.000000,-10.000000 h30.000000 l5.000000,10.000000 l-5.000000,10.000000 h-30.000000 Z" fill="lightpink" stroke="black" stroke-linecap="square" /><text font-family="Helvetica" font-size="10.526316" text-anchor="middle" x="750.000000" y="384.700000">D0</text></g><g><path d="M770.000000,380.000000 l5.000000,-10.000000 h30.000000 l5.000000,10.000000 l-5.000000,10.000000 h-30.000000 Z" fill="lightpink" stroke="black" stroke-linecap="square" /><text font-family="Helvetica" font-size="10.526316" text-anchor="middle" x="790.000000" y="384.700000">D0</text></g><g><path d="M810.000000,380.000000 l5.000000,-10.000000 h30.000000 l5.000000,10.000000 l-5.000000,10.000000 h-30.000000 Z" fill="lightpink" stroke="black" stroke-linecap="square" /><text font-family="Helvetica" font-size="10.526316" text-anchor="middle" x="830.000000" y="384.700000">D0</text></g></g><g><text font-family="Helvetica" font-size="14.285714" text-anchor="end" x="86.000000" y="416.000000">D5L</text><g><path d="M90.000000,410.000000 l5.000000,-10.000000 h30.000000 l5.000000,10.000000 l-5.000000,10.000000 h-30.000000 Z" fill="powderblue" stroke="black" stroke-linecap="square" /><text font-family="Helvetica" font-size="10.526316" text-anchor="middle" x="110.000000" y="414.700000">D5</text></g><g><path d="M130.000000,410.000000 l5.000000,-10.000000 h30.000000 l5.000000,10.000000 l-5.000000,10.000000 h-30.000000 Z" fill="powderblue" stroke="black" stroke-linecap="square" /><text font-family="Helvetica" font-size="10.526316" text-anchor="middle" x="150.000000" y="414.700000">D5</text></g><g><path d="M170.000000,410.000000 l5.000000,-10.000000 h30.000000 l5.000000,10.000000 l-5.000000,10.000000 h-30.000000 Z" fill="powderblue" stroke="black" stroke-linecap="square" /><text font-family="Helvetica" font-size="10.526316" text-anchor="middle" x="190.000000" y="414.700000">D5</text></g><g><path d="M210.000000,410.000000 l5.000000,-10.000000 h30.000000 l5.000000,10.000000 l-5.000000,10.000000 h-30.000000 Z" fill="powderblue" stroke="black" stroke-linecap="square" /><text font-family="Helvetica" font-size="10.526316" text-anchor="middle" x="230.000000" y="414.700000">D5</text></g><g><path d="M250.000000,410.000000 l5.000000,-10.000000 h30.000000 l5.000000,10.000000 l-5.000000,10.000000 h-30.000000 Z" fill="powderblue" stroke="black" stroke-linecap="square" /><text font-family="Helvetica" font-size="10.526316" text-anchor="middle" x="270.000000" y="414.700000">D5</text></g><g><path d="M290.000000,410.000000 l5.000000,-10.000000 h30.000000 l5.000000,10.000000 l-5.000000,10.000000 h-30.000000 Z" fill="powderblue" stroke="black" stroke-linecap="square" /><text font-family="Helvetica" font-size="10.526316" text-anchor="middle" x="310.000000" y="414.700000">D5</text></g><g><path d="M330.000000,410.000000 l5.000000,-10.000000 h30.000000 l5.000000,10.000000 l-5.000000,10.000000 h-30.000000 Z" fill="powderblue" stroke="black" stroke-linecap="square" /><text font-family="Helvetica" font-size="10.526316" text-anchor="middle" x="350.000000" y="414.700000">D5</text></g><g><path d="M370.000000,410.000000 l5.000000,-10.000000 h30.000000 l5.000000,10.000000 l-5.000000,10.000000 h-30.000000 Z" fill="powderblue" stroke="black" stroke-linecap="square" /><text font-family="Helvetica" font-size="10.526316" text-anchor="middle" x="390.000000" y="414.700000">D5</text></g><g><path d="M410.000000,410.000000 l5.000000,-10.000000 h30.000000 l5.000000,10.000000 l-5.000000,10.000000 h-30.000000 Z" fill="powderblue" stroke="black" stroke-linecap="square" /><text font-family="Helvetica" font-size="10.526316" text-anchor="middle" x="430.000000" y="414.700000">D5</text></g><g><path d="M450.000000,410.000000 l5.000000,-10.000000 h30.000000 l5.000000,10.000000 l-5.000000,10.000000 h-30.000000 Z" fill="powderblue" stroke="black" stroke-linecap="square" /><text font-family="Helvetica" font-size="10.526316" text-anchor="middle" x="470.000000" y="414.700000">D5</text></g><g><path d="M490.000000,410.000000 l5.000000,-10.000000 h30.000000 l5.000000,10.000000 l-5.000000,10.000000 h-30.000000 Z" fill="palegreen" stroke="black" stroke-linecap="square" /><text font-family="Helvetica" font-size="10.526316" text-anchor="middle" x="510.000000" y="414.700000">D5</text></g><g><path d="M530.000000,410.000000 l5.000000,-10.000000 h30.000000 l5.000000,10.000000 l-5.000000,10.000000 h-30.000000 Z" fill="palegreen" stroke="black" stroke-linecap="square" /><text font-family="Helvetica" font-size="10.526316" text-anchor="middle" x="550.000000" y="414.700000">D5</text></g><g><path d="M570.000000,410.000000 l5.000000,-10.000000 h30.000000 l5.000000,10.000000 l-5.000000,10.000000 h-30.000000 Z" fill="palegreen" stroke="black" stroke-linecap="square" /><text font-family="Helvetica" font-size="10.526316" text-anchor="middle" x="590.000000" y="414.700000">D5</text></g><g><path d="M610.000000,410.000000 l5.000000,-10.000000 h30.000000 l5.000000,10.000000 l-5.000000,10.000000 h-30.000000 Z" fill="palegreen" stroke="black" stroke-linecap="square" /><text font-family="Helvetica" font-size="10.526316" text-anchor="middle" x="630.000000" y="414.700000">D5</text></g><g><path d="M650.000000,410.000000 l5.000000,-10.000000 h30.000000 l5.000000,10.000000 l-5.000000,10.000000 h-30.000000 Z" fill="palegreen" stroke="black" stroke-linecap="square" /><text font-family="Helvetica" font-size="10.526316" text-anchor="middle" x="670.000000" y="414.700000">D5</text></g><g><path d="M690.000000,410.000000 l5.000000,-10.000000 h30.000000 l5.000000,10.000000 l-5.000000,10.000000 h-30.000000 Z" fill="palegreen" stroke="black" stroke-linecap="square" /><text font-family="Helvetica" font-size="10.526316" text-anchor="middle" x="710.000000" y="414.700000">D5</text></g><g><path d="M730.000000,410.000000 l5.000000,-10.000000 h30.000000 l5.000000,10.000000 l-5.000000,10.000000 h-30.000000 Z" fill="lightpink" stroke="black" stroke-linecap="square" /><text font-family="Helvetica" font-size="10.526316" text-anchor="middle" x="750.000000" y="414.700000">D5</text></g><g><path d="M770.000000,410.000000 l5.000000,-10.000000 h30.000000 l5.000000,10.000000 l-5.000000,10.000000 h-30.000000 Z" fill="lightpink" stroke="black" stroke-linecap="square" /><text font-family="Helvetica" font-size="10.526316" text-anchor="middle" x="790.000000" y="414.700000">D5</text></g><g><path d="M810.000000,410.000000 l5.000000,-10.000000 h30.000000 l5.000000,10.000000 l-5.000000,10.000000 h-30.000000 Z" fill="lightpink" stroke="black" stroke-linecap="square" /><text font-family="Helvetica" font-size="10.526316" text-anchor="middle" x="830.000000" y="414.700000">D5</text></g></g><g><text font-family="Helvetica" font-size="14.285714" text-anchor="end" x="86.000000" y="446.000000">EVENTL8</text><path d="M90.000000,450.000000  l5.000000, 0.000000 h35.000000" fill="none" stroke="black" stroke-linecap="square" /><path d="M130.000000,450.000000  l5.000000, 0.000000 h35.000000" fill="none" stroke="black" stroke-linecap="square" /><path d="M170.000000,450.000000  l5.000000, 0.000000 h35.000000" fill="none" stroke="black" stroke-linecap="square" /><path d="M210.000000,450.000000  l5.000000, -20.000000 h35.000000" fill="none" stroke="black" stroke-linecap="square" /><path d="M250.000000,430.000000  l5.000000, 20.000000 h35.000000" fill="none" stroke="black" stroke-linecap="square" /><path d="M290.000000,450.000000  l5.000000, 0.000000 h35.000000" fill="none" stroke="black" stroke-linecap="square" /><path d="M330.000000,450.000000  l5.000000, 0.000000 h35.000000" fill="none" stroke="black" stroke-linecap="square" /><path d="M370.000000,450.000000  l5.000000, 0.000000 h35.000000" fill="none" stroke="black" stroke-linecap="square" /><path d="M410.000000,450.000000  l5.000000, 0.000000 h35.000000" fill="none" stroke="black" stroke-linecap="square" /><path d="M450.000000,450.000000  l5.000000, -20.000000 h35.000000" fill="none" stroke="black" stroke-linecap="square" /><path d="M490.000000,430.000000  l5.000000, 20.000000 h35.000000" fill="none" stroke="black" stroke-linecap="square" /><path d="M530.000000,450.000000  l5.000000, 0.000000 h35.000000" fill="none" stroke="black" stroke-linecap="square" /><path d="M570.000000,450.000000  l5.000000, 0.000000 h35.000000" fill="none" stroke="black" stroke-linecap="square" /><path d="M610.000000,450.000000  l5.000000, 0.000000 h35.000000" fill="none" stroke="black" stroke-linecap="square" /><path d="M650.000000,450.000000  l5.000000, 0.000000 h35.000000" fill="none" stroke="black" stroke-linecap="square" /><path d="M690.000000,450.000000  l5.000000, -20.000000 h35.000000" fill="none" stroke="black" stroke-linecap="square" /><path d="M730.000000,430.000000  l5.000000, 20.000000 h35.000000" fill="none" stroke="black" stroke-linecap="square" /><path d="M770.000000,450.000000  l5.000000, 0.000000 h35.000000" fill="none" stroke="black" stroke-linecap="square" /><path d="M810.000000,450.000000  l5.000000, 0.000000 h35.000000" fill="none" stroke="black" stroke-linecap="square" /></g><g><text font-family="Helvetica" font-size="14.285714" text-anchor="end" x="86.000000" y="476.000000">EVENT</text><path d="M90.000000,480.000000  l5.000000, 0.000000 h35.000000" fill="none" stroke="black" stroke-linecap="square" /><path d="M130.000000,480.000000  l5.000000, 0.000000 h35.000000" fill="none" stroke="black" stroke-linecap="square" /><path d="M170.000000,480.000000  l5.000000, 0.000000 h35.000000" fill="none" stroke="black" stroke-linecap="square" /><path d="M210.000000,480.000000  l5.000000, 0.000000 h35.000000" fill="none" stroke="black" stroke-linecap="square" /><path d="M250.000000,480.000000  l5.000000, -20.000000 h35.000000" fill="none" stroke="black" stroke-linecap="square" /><path d="M290.000000,460.000000  l5.000000, 20.000000 h35.000000" fill="none" stroke="black" stroke-linecap="square" /><path d="M330.000000,480.000000  l5.000000, 0.000000 h35.000000" fill="none" stroke="black" stroke-linecap="square" /><path d="M370.000000,480.000000  l5.000000, 0.000000 h35.000000" fill="none" stroke="black" stroke-linecap="square" /><path d="M410.000000,480.000000  l5.000000, 0.000000 h35.000000" fill="none" stroke="black" stroke-linecap="square" /><path d="M450.000000,480.000000  l5.000000, 0.000000 h35.000000" fill="none" stroke="black" stroke-linecap="square" /><path d="M490.000000,480.000000  l5.000000, -20.000000 h35.000000" fill="none" stroke="black" stroke-linecap="square" /><path d="M530.000000,460.000000  l5.000000, 20.000000 h35.000000" fill="none" stroke="black" stroke-linecap="square" /><path d="M570.000000,480.000000  l5.000000, 0.000000 h35.000000" fill="none" stroke="black" stroke-linecap="square" /><path d="M610.000000,480.000000  l5.000000, 0.000000 h35.000000" fill="none" stroke="black" stroke-linecap="square" /><path d="M650.000000,480.000000  l5.000000, 0.000000 h35.000000" fill="none" stroke="black" stroke-linecap="square" /><path d="M690.000000,480.000000  l5.000000, 0.000000 h35.000000" fill="none" stroke="black" stroke-linecap="square" /><path d="M730.000000,480.000000  l5.000000, -20.000000 h35.000000" fill="none" stroke="black" stroke-linecap="square" /><path d="M770.000000,460.000000  l5.000000, 20.000000 h35.000000" fill="none" stroke="black" stroke-linecap="square" /><path d="M810.000000,480.000000  l5.000000, 0.000000 h35.000000" fill="none" stroke="black" stroke-linecap="square" /></g><g><text font-family="Helvetica" font-size="14.285714" text-anchor="end" x="86.000000" y="506.000000">MINE</text><path d="M90.000000,510.000000  l5.000000, 0.000000 h35.000000" fill="none" stroke="black" stroke-linecap="square" /><path d="M130.000000,510.000000  l5.000000, 0.000000 h35.000000" fill="none" stroke="black" stroke-linecap="square" /><path d="M170.000000,510.000000  l5.000000, 0.000000 h35.000000" fill="none" stroke="black" stroke-linecap="square" /><path d="M210.000000,510.000000  l5.000000, 0.000000 h35.000000" fill="none" stroke="black" stroke-linecap="square" /><path d="M250.000000,510.000000  l5.000000, 0.000000 h35.000000" fill="none" stroke="black" stroke-linecap="square" /><path d="M290.000000,510.000000  l5.000000, 0.000000 h35.000000" fill="none" stroke="black" stroke-linecap="square" /><path d="M330.000000,510.000000  l5.000000, 0.000000 h35.000000" fill="none" stroke="black" stroke-linecap="square" /><path d="M370.000000,510.000000  l5.000000, 0.000000 h35.000000" fill="none" stroke="black" stroke-linecap="square" /><path d="M410.000000,510.000000  l5.000000, 0.000000 h35.000000" fill="none" stroke="black" stroke-linecap="square" /><path d="M450.000000,510.000000  l5.000000, 0.000000 h35.000000" fill="none" stroke="black" stroke-linecap="square" /><path d="M490.000000,510.000000  l5.000000, -20.000000 h35.000000" fill="none" stroke="black" stroke-linecap="square" /><path d="M530.000000,490.000000  l5.000000, 0.000000 h35.000000" fill="none" stroke="black" stroke-linecap="square" /><path d="M570.000000,490.000000  l5.000000, 0.000000 h35.000000" fill="none" stroke="black" stroke-linecap="square" /><path d="M610.000000,490.000000  l5.000000, 0.000000 h35.000000" fill="none" stroke="black" stroke-linecap="square" /><path d="M650.000000,490.000000  l5.000000, 0.000000 h35.000000" fill="none" stroke="black" stroke-linecap="square" /><path d="M690.000000,490.000000  l5.000000, 0.000000 h35.000000" fill="none" stroke="black" stroke-linecap="square" /><path d="M730.000000,490.000000  l5.000000, 20.000000 h35.000000" fill="none" stroke="black" stroke-linecap="square" /><path d="M770.000000,510.000000  l5.000000, 0.000000 h35.000000" fill="none" stroke="black" stroke-linecap="square" /><path d="M810.000000,510.000000  l5.000000, 0.000000 h35.000000" fill="none" stroke="black" stroke-linecap="square" /></g></g></svg>