<svg height="342" width="572"><g><line stroke="grey" stroke-width="0.5" x1="110.0" x2="110.0" y1="0" y2="340" /><line stroke="grey" stroke-width="0.5" x1="150.0" x2="150.0" y1="0" y2="340" /><line stroke="grey" stroke-width="0.5" x1="190.0" x2="190.0" y1="0" y2="340" /><line stroke="grey" stroke-width="0.5" x1="230.0" x2="230.0" y1="0" y2="340" /><line stroke="grey" stroke-width="0.5" x1="270.0" x2="270.0" y1="0" y2="340" /><line stroke="grey" stroke-width="0.5" x1="310.0" x2="310.0" y1="0" y2="340" /><line stroke="grey" stroke-width="0.5" x1="350.0" x2="350.0" y1="0" y2="340" /><line stroke="grey" stroke-width="0.5" x1="390.0" x2="390.0" y1="0" y2="340" /><line stroke="grey" stroke-width="0.5" x1="430.0" x2="430.0" y1="0" y2="340" /><line stroke="grey" stroke-width="0.5" x1="470.0" x2="470.0" y1="0" y2="340" /><line stroke="grey" stroke-width="0.5" x1="510.0" x2="510.0" y1="0" y2="340" /><line stroke="grey" stroke-width="0.5" x1="550.0" x2="550.0" y1="0" y2="340" /></g><g><g><text font-family="Helvetica" font-size="14.285714" text-anchor="end" x="86.000000" y="26.000000">SYSCLK</text><path d="M90.000000,30.000000 h20.000000 v-20.000000 h20.000000 v20.000000" fill="none" stroke="black" stroke-linecap="square" /><path d="M130.000000,30.000000 h20.000000 v-20.000000 h20.000000 v20.000000" fill="none" stroke="black" stroke-linecap="square" /><path d="M170.000000,30.000000 h20.000000 v-20.000000 h20.000000 v20.000000" fill="none" stroke="black" stroke-linecap="square" /><path d="M210.000000,30.000000 h20.000000 v-20.000000 h20.000000 v20.000000" fill="none" stroke="black" stroke-linecap="square" /><path d="M250.000000,30.000000 h20.000000 v-20.000000 h20.000000 v20.000000" fill="none" stroke="black" stroke-linecap="square" /><path d="M290.000000,30.000000 h20.000000 v-20.000000 h20.000000 v20.000000" fill="none" stroke="black" stroke-linecap="square" /><path d="M330.000000,30.000000 h20.000000 v-20.000000 h20.000000 v20.000000" fill="none" stroke="black" stroke-linecap="square" /><path d="M370.000000,30.000000 h20.000000 v-20.000000 h20.000000 v20.000000" fill="none" stroke="black" stroke-linecap="square" /><path d="M410.000000,30.000000 h20.000000 v-20.000000 h20.000000 v20.000000" fill="none" stroke="black" stroke-linecap="square" /><path d="M450.000000,30.000000 h20.000000 v-20.000000 h20.000000 v20.000000" fill="none" stroke="black" stroke-linecap="square" /><path d="M490.000000,30.000000 h20.000000 v-20.000000 h20.000000 v20.000000" fill="none" stroke="black" stroke-linecap="square" /><path d="M530.000000,30.000000 h20.000000 v-20.000000 h20.000000 v20.000000" fill="none" stroke="black" stroke-linecap="square" /></g><g><text font-family="Helvetica" font-size="14.285714" text-anchor="end" x="86.000000" y="56.000000">ECE</text><path d="M90.000000,60.000000  l5.000000, 0.000000 h35.000000" fill="none" stroke="black" stroke-linecap="square" /><path d="M130.000000,60.000000  l5.000000, 0.000000 h35.000000" fill="none" stroke="black" stroke-linecap="square" /><path d="M170.000000,60.000000  l5.000000, 0.000000 h35.000000" fill="none" stroke="black" stroke-linecap="square" /><path d="M210.000000,60.000000  l5.000000, -20.000000 h35.000000" fill="none" stroke="black" stroke-linecap="square" /><path d="M250.000000,40.000000  l5.000000, 20.000000 h35.000000" fill="none" stroke="black" stroke-linecap="square" /><path d="M290.000000,60.000000  l5.000000, 0.000000 h35.000000" fill="none" stroke="black" stroke-linecap="square" /><path d="M330.000000,60.000000  l5.000000, 0.000000 h35.000000" fill="none" stroke="black" stroke-linecap="square" /><path d="M370.000000,60.000000  l5.000000, 0.000000 h35.000000" fill="none" stroke="black" stroke-linecap="square" /><path d="M410.000000,60.000000  l5.000000, 0.000000 h35.000000" fill="none" stroke="black" stroke-linecap="square" /><path d="M450.000000,60.000000  l5.000000, 0.000000 h35.000000" fill="none" stroke="black" stroke-linecap="square" /><path d="M490.000000,60.000000  l5.000000, 0.000000 h35.000000" fill="none" stroke="black" stroke-linecap="square" /><path d="M530.000000,60.000000  l5.000000, 0.000000 h35.000000" fill="none" stroke="black" stroke-linecap="square" /></g><g><text font-family="Helvetica" font-size="14.285714" text-anchor="end" x="86.000000" y="86.000000">EEVENT</text><path d="M90.000000,90.000000  l5.000000, 0.000000 h35.000000" fill="none" stroke="black" stroke-linecap="square" /><path d="M130.000000,90.000000  l5.000000, 0.000000 h35.000000" fill="none" stroke="black" stroke-linecap="square" /><path d="M170.000000,90.000000  l5.000000, 0.000000 h35.000000" fill="none" stroke="black" stroke-linecap="square" /><path d="M210.000000,90.000000  l5.000000, -20.000000 h35.000000" fill="none" stroke="black" stroke-linecap="square" /><path d="M250.000000,70.000000  l5.000000, 20.000000 h35.000000" fill="none" stroke="black" stroke-linecap="square" /><path d="M290.000000,90.000000  l5.000000, 0.000000 h35.000000" fill="none" stroke="black" stroke-linecap="square" /><path d="M330.000000,90.000000  l5.000000, 0.000000 h35.000000" fill="none" stroke="black" stroke-linecap="square" /><path d="M370.000000,90.000000  l5.000000, 0.000000 h35.000000" fill="none" stroke="black" stroke-linecap="square" /><path d="M410.000000,90.000000  l5.000000, 0.000000 h35.000000" fill="none" stroke="black" stroke-linecap="square" /><path d="M450.000000,90.000000  l5.000000, -20.000000 h35.000000" fill="none" stroke="black" stroke-linecap="square" /><path d="M490.000000,70.000000  l5.000000, 20.000000 h35.000000" fill="none" stroke="black" stroke-linecap="square" /><path d="M530.000000,90.000000  l5.000000, 0.000000 h35.000000" fill="none" stroke="black" stroke-linecap="square" /></g><g><text font-family="Helvetica" font-size="14.285714" text-anchor="end" x="86.000000" y="116.000000">ECNTINL</text><g><path d="M90.000000,110.000000 l5.000000,-10.000000 h30.000000 l5.000000,10.000000 l-5.000000,10.000000 h-30.000000 Z" fill="powderblue" stroke="black" stroke-linecap="square" /><text font-family="Helvetica" font-size="10.526316" text-anchor="middle" x="110.000000" y="114.700000">n+1</text></g><g><path d="M130.000000,110.000000 l5.000000,-10.000000 h30.000000 l5.000000,10.000000 l-5.000000,10.000000 h-30.000000 Z" fill="powderblue" stroke="black" stroke-linecap="square" /><text font-family="Helvetica" font-size="10.526316" text-anchor="middle" x="150.000000" y="114.700000">n+1</text></g><g><path d="M170.000000,110.000000 l5.000000,-10.000000 h30.000000 l5.000000,10.000000 l-5.000000,10.000000 h-30.000000 Z" fill="powderblue" stroke="black" stroke-linecap="square" /><text font-family="Helvetica" font-size="10.526316" text-anchor="middle" x="190.000000" y="114.700000">n+1</text></g><g><path d="M210.000000,110.000000 l5.000000,-10.000000 h30.000000 l5.000000,10.000000 l-5.000000,10.000000 h-30.000000 Z" fill="powderblue" stroke="black" stroke-linecap="square" /><text font-family="Helvetica" font-size="10.526316" text-anchor="middle" x="230.000000" y="114.700000">n+1</text></g><g><path d="M250.000000,110.000000 l5.000000,-10.000000 h30.000000 l5.000000,10.000000 l-5.000000,10.000000 h-30.000000 Z" fill="powderblue" stroke="black" stroke-linecap="square" /><text font-family="Helvetica" font-size="10.526316" text-anchor="middle" x="270.000000" y="114.700000">n+1</text></g><g><path d="M290.000000,110.000000 l5.000000,-10.000000 h30.000000 l5.000000,10.000000 l-5.000000,10.000000 h-30.000000 Z" fill="powderblue" stroke="black" stroke-linecap="square" /><text font-family="Helvetica" font-size="10.526316" text-anchor="middle" x="310.000000" y="114.700000">n+1</text></g><g><path d="M330.000000,110.000000 l5.000000,-10.000000 h30.000000 l5.000000,10.000000 l-5.000000,10.000000 h-30.000000 Z" fill="powderblue" stroke="black" stroke-linecap="square" /><text font-family="Helvetica" font-size="10.526316" text-anchor="middle" x="350.000000" y="114.700000">n+1</text></g><g><path d="M370.000000,110.000000 l5.000000,-10.000000 h30.000000 l5.000000,10.000000 l-5.000000,10.000000 h-30.000000 Z" fill="powderblue" stroke="black" stroke-linecap="square" /><text font-family="Helvetica" font-size="10.526316" text-anchor="middle" x="390.000000" y="114.700000">n+1</text></g><g><path d="M410.000000,110.000000 l5.000000,-10.000000 h30.000000 l5.000000,10.000000 l-5.000000,10.000000 h-30.000000 Z" fill="powderblue" stroke="black" stroke-linecap="square" /><text font-family="Helvetica" font-size="10.526316" text-anchor="middle" x="430.000000" y="114.700000">n+1</text></g><g><path d="M450.000000,110.000000 l5.000000,-10.000000 h30.000000 l5.000000,10.000000 l-5.000000,10.000000 h-30.000000 Z" fill="powderblue" stroke="black" stroke-linecap="square" /><text font-family="Helvetica" font-size="10.526316" text-anchor="middle" x="470.000000" y="114.700000">n+1</text></g><g><path d="M490.000000,110.000000 l5.000000,-10.000000 h30.000000 l5.000000,10.000000 l-5.000000,10.000000 h-30.000000 Z" fill="powderblue" stroke="black" stroke-linecap="square" /><text font-family="Helvetica" font-size="10.526316" text-anchor="middle" x="510.000000" y="114.700000">n+1</text></g><g><path d="M530.000000,110.000000 l5.000000,-10.000000 h30.000000 l5.000000,10.000000 l-5.000000,10.000000 h-30.000000 Z" fill="powderblue" stroke="black" stroke-linecap="square" /><text font-family="Helvetica" font-size="10.526316" text-anchor="middle" x="550.000000" y="114.700000">n+1</text></g></g><g><text font-family="Helvetica" font-size="14.285714" text-anchor="end" x="86.000000" y="146.000000">ECNTOUT</text><g><path d="M90.000000,140.000000 l5.000000,-10.000000 h30.000000 l5.000000,10.000000 l-5.000000,10.000000 h-30.000000 Z" fill="powderblue" stroke="black" stroke-linecap="square" /><text font-family="Helvetica" font-size="10.526316" text-anchor="middle" x="110.000000" y="144.700000">n</text></g><g><path d="M130.000000,140.000000 l5.000000,-10.000000 h30.000000 l5.000000,10.000000 l-5.000000,10.000000 h-30.000000 Z" fill="powderblue" stroke="black" stroke-linecap="square" /><text font-family="Helvetica" font-size="10.526316" text-anchor="middle" x="150.000000" y="144.700000">n</text></g><g><path d="M170.000000,140.000000 l5.000000,-10.000000 h30.000000 l5.000000,10.000000 l-5.000000,10.000000 h-30.000000 Z" fill="powderblue" stroke="black" stroke-linecap="square" /><text font-family="Helvetica" font-size="10.526316" text-anchor="middle" x="190.000000" y="144.700000">n</text></g><g><path d="M210.000000,140.000000 l5.000000,-10.000000 h30.000000 l5.000000,10.000000 l-5.000000,10.000000 h-30.000000 Z" fill="powderblue" stroke="black" stroke-linecap="square" /><text font-family="Helvetica" font-size="10.526316" text-anchor="middle" x="230.000000" y="144.700000">n</text></g><g><path d="M250.000000,140.000000 l5.000000,-10.000000 h30.000000 l5.000000,10.000000 l-5.000000,10.000000 h-30.000000 Z" fill="powderblue" stroke="black" stroke-linecap="square" /><text font-family="Helvetica" font-size="10.526316" text-anchor="middle" x="270.000000" y="144.700000">n</text></g><g><path d="M290.000000,140.000000 l5.000000,-10.000000 h30.000000 l5.000000,10.000000 l-5.000000,10.000000 h-30.000000 Z" fill="powderblue" stroke="black" stroke-linecap="square" /><text font-family="Helvetica" font-size="10.526316" text-anchor="middle" x="310.000000" y="144.700000">n</text></g><g><path d="M330.000000,140.000000 l5.000000,-10.000000 h30.000000 l5.000000,10.000000 l-5.000000,10.000000 h-30.000000 Z" fill="powderblue" stroke="black" stroke-linecap="square" /><text font-family="Helvetica" font-size="10.526316" text-anchor="middle" x="350.000000" y="144.700000">n</text></g><g><path d="M370.000000,140.000000 l5.000000,-10.000000 h30.000000 l5.000000,10.000000 l-5.000000,10.000000 h-30.000000 Z" fill="powderblue" stroke="black" stroke-linecap="square" /><text font-family="Helvetica" font-size="10.526316" text-anchor="middle" x="390.000000" y="144.700000">n</text></g><g><path d="M410.000000,140.000000 l5.000000,-10.000000 h30.000000 l5.000000,10.000000 l-5.000000,10.000000 h-30.000000 Z" fill="powderblue" stroke="black" stroke-linecap="square" /><text font-family="Helvetica" font-size="10.526316" text-anchor="middle" x="430.000000" y="144.700000">n</text></g><g><path d="M450.000000,140.000000 l5.000000,-10.000000 h30.000000 l5.000000,10.000000 l-5.000000,10.000000 h-30.000000 Z" fill="powderblue" stroke="black" stroke-linecap="square" /><text font-family="Helvetica" font-size="10.526316" text-anchor="middle" x="470.000000" y="144.700000">n</text></g><g><path d="M490.000000,140.000000 l5.000000,-10.000000 h30.000000 l5.000000,10.000000 l-5.000000,10.000000 h-30.000000 Z" fill="powderblue" stroke="black" stroke-linecap="square" /><text font-family="Helvetica" font-size="10.526316" text-anchor="middle" x="510.000000" y="144.700000">n+1</text></g><g><path d="M530.000000,140.000000 l5.000000,-10.000000 h30.000000 l5.000000,10.000000 l-5.000000,10.000000 h-30.000000 Z" fill="powderblue" stroke="black" stroke-linecap="square" /><text font-family="Helvetica" font-size="10.526316" text-anchor="middle" x="550.000000" y="144.700000">n+1</text></g></g><g><text font-family="Helvetica" font-size="14.285714" text-anchor="end" x="86.000000" y="176.000000">ENOUT</text><path d="M90.000000,180.000000  l5.000000, 0.000000 h35.000000" fill="none" stroke="black" stroke-linecap="square" /><path d="M130.000000,180.000000  l5.000000, 0.000000 h35.000000" fill="none" stroke="black" stroke-linecap="square" /><path d="M170.000000,180.000000  l5.000000, 0.000000 h35.000000" fill="none" stroke="black" stroke-linecap="square" /><path d="M210.000000,180.000000  l5.000000, 0.000000 h35.000000" fill="none" stroke="black" stroke-linecap="square" /><path d="M250.000000,180.000000  l5.000000, -20.000000 h35.000000" fill="none" stroke="black" stroke-linecap="square" /><path d="M290.000000,160.000000  l5.000000, 0.000000 h35.000000" fill="none" stroke="black" stroke-linecap="square" /><path d="M330.000000,160.000000  l5.000000, 0.000000 h35.000000" fill="none" stroke="black" stroke-linecap="square" /><path d="M370.000000,160.000000  l5.000000, 0.000000 h35.000000" fill="none" stroke="black" stroke-linecap="square" /><path d="M410.000000,160.000000  l5.000000, 0.000000 h35.000000" fill="none" stroke="black" stroke-linecap="square" /><path d="M450.000000,160.000000  l5.000000, 0.000000 h35.000000" fill="none" stroke="black" stroke-linecap="square" /><path d="M490.000000,160.000000  l5.000000, 20.000000 h35.000000" fill="none" stroke="black" stroke-linecap="square" /><path d="M530.000000,180.000000  l5.000000, 0.000000 h35.000000" fill="none" stroke="black" stroke-linecap="square" /></g><g><text font-family="Helvetica" font-size="14.285714" text-anchor="end" x="86.000000" y="206.000000">WEN</text><path d="M90.000000,210.000000  l5.000000, 0.000000 h35.000000" fill="none" stroke="black" stroke-linecap="square" /><path d="M130.000000,210.000000  l5.000000, 0.000000 h35.000000" fill="none" stroke="black" stroke-linecap="square" /><path d="M170.000000,210.000000  l5.000000, 0.000000 h35.000000" fill="none" stroke="black" stroke-linecap="square" /><path d="M210.000000,210.000000  l5.000000, -20.000000 h35.000000" fill="none" stroke="black" stroke-linecap="square" /><path d="M250.000000,190.000000  l5.000000, 0.000000 h35.000000" fill="none" stroke="black" stroke-linecap="square" /><path d="M290.000000,190.000000  l5.000000, 0.000000 h35.000000" fill="none" stroke="black" stroke-linecap="square" /><path d="M330.000000,190.000000  l5.000000, 0.000000 h35.000000" fill="none" stroke="black" stroke-linecap="square" /><path d="M370.000000,190.000000  l5.000000, 0.000000 h35.000000" fill="none" stroke="black" stroke-linecap="square" /><path d="M410.000000,190.000000  l5.000000, 0.000000 h35.000000" fill="none" stroke="black" stroke-linecap="square" /><path d="M450.000000,190.000000  l5.000000, 0.000000 h35.000000" fill="none" stroke="black" stroke-linecap="square" /><path d="M490.000000,190.000000  l5.000000, 20.000000 h35.000000" fill="none" stroke="black" stroke-linecap="square" /><path d="M530.000000,210.000000  l5.000000, 0.000000 h35.000000" fill="none" stroke="black" stroke-linecap="square" /></g><g><text font-family="Helvetica" font-size="14.285714" text-anchor="end" x="86.000000" y="236.000000">WCNT</text><g><path d="M90.000000,230.000000 l5.000000,-10.000000 h30.000000 l5.000000,10.000000 l-5.000000,10.000000 h-30.000000 Z" fill="powderblue" stroke="black" stroke-linecap="square" /><text font-family="Helvetica" font-size="10.526316" text-anchor="middle" x="110.000000" y="234.700000">0</text></g><g><path d="M130.000000,230.000000 l5.000000,-10.000000 h30.000000 l5.000000,10.000000 l-5.000000,10.000000 h-30.000000 Z" fill="powderblue" stroke="black" stroke-linecap="square" /><text font-family="Helvetica" font-size="10.526316" text-anchor="middle" x="150.000000" y="234.700000">0</text></g><g><path d="M170.000000,230.000000 l5.000000,-10.000000 h30.000000 l5.000000,10.000000 l-5.000000,10.000000 h-30.000000 Z" fill="powderblue" stroke="black" stroke-linecap="square" /><text font-family="Helvetica" font-size="10.526316" text-anchor="middle" x="190.000000" y="234.700000">0</text></g><g><path d="M210.000000,230.000000 l5.000000,-10.000000 h30.000000 l5.000000,10.000000 l-5.000000,10.000000 h-30.000000 Z" fill="powderblue" stroke="black" stroke-linecap="square" /><text font-family="Helvetica" font-size="10.526316" text-anchor="middle" x="230.000000" y="234.700000">0</text></g><g><path d="M250.000000,230.000000 l5.000000,-10.000000 h30.000000 l5.000000,10.000000 l-5.000000,10.000000 h-30.000000 Z" fill="powderblue" stroke="black" stroke-linecap="square" /><text font-family="Helvetica" font-size="10.526316" text-anchor="middle" x="270.000000" y="234.700000">1</text></g><g><path d="M290.000000,230.000000 l5.000000,-10.000000 h30.000000 l5.000000,10.000000 l-5.000000,10.000000 h-30.000000 Z" fill="powderblue" stroke="black" stroke-linecap="square" /><text font-family="Helvetica" font-size="10.526316" text-anchor="middle" x="310.000000" y="234.700000">2</text></g><g><path d="M330.000000,230.000000 l5.000000,-10.000000 h30.000000 l5.000000,10.000000 l-5.000000,10.000000 h-30.000000 Z" fill="powderblue" stroke="black" stroke-linecap="square" /><text font-family="Helvetica" font-size="10.526316" text-anchor="middle" x="350.000000" y="234.700000">3</text></g><g><path d="M370.000000,230.000000 l5.000000,-10.000000 h30.000000 l5.000000,10.000000 l-5.000000,10.000000 h-30.000000 Z" fill="powderblue" stroke="black" stroke-linecap="square" /><text font-family="Helvetica" font-size="10.526316" text-anchor="middle" x="390.000000" y="234.700000">4</text></g><g><path d="M410.000000,230.000000 l5.000000,-10.000000 h30.000000 l5.000000,10.000000 l-5.000000,10.000000 h-30.000000 Z" fill="powderblue" stroke="black" stroke-linecap="square" /><text font-family="Helvetica" font-size="10.526316" text-anchor="middle" x="430.000000" y="234.700000">5</text></g><g><path d="M450.000000,230.000000 l5.000000,-10.000000 h30.000000 l5.000000,10.000000 l-5.000000,10.000000 h-30.000000 Z" fill="powderblue" stroke="black" stroke-linecap="square" /><text font-family="Helvetica" font-size="10.526316" text-anchor="middle" x="470.000000" y="234.700000">6</text></g><g><path d="M490.000000,230.000000 l5.000000,-10.000000 h30.000000 l5.000000,10.000000 l-5.000000,10.000000 h-30.000000 Z" fill="powderblue" stroke="black" stroke-linecap="square" /><text font-family="Helvetica" font-size="10.526316" text-anchor="middle" x="510.000000" y="234.700000">0</text></g><g><path d="M530.000000,230.000000 l5.000000,-10.000000 h30.000000 l5.000000,10.000000 l-5.000000,10.000000 h-30.000000 Z" fill="powderblue" stroke="black" stroke-linecap="square" /><text font-family="Helvetica" font-size="10.526316" text-anchor="middle" x="550.000000" y="234.700000">0</text></g></g><g><text font-family="Helvetica" font-size="14.285714" text-anchor="end" x="86.000000" y="266.000000">EEND</text><path d="M90.000000,270.000000  l5.000000, 0.000000 h35.000000" fill="none" stroke="black" stroke-linecap="square" /><path d="M130.000000,270.000000  l5.000000, 0.000000 h35.000000" fill="none" stroke="black" stroke-linecap="square" /><path d="M170.000000,270.000000  l5.000000, 0.000000 h35.000000" fill="none" stroke="black" stroke-linecap="square" /><path d="M210.000000,270.000000  l5.000000, 0.000000 h35.000000" fill="none" stroke="black" stroke-linecap="square" /><path d="M250.000000,270.000000  l5.000000, 0.000000 h35.000000" fill="none" stroke="black" stroke-linecap="square" /><path d="M290.000000,270.000000  l5.000000, 0.000000 h35.000000" fill="none" stroke="black" stroke-linecap="square" /><path d="M330.000000,270.000000  l5.000000, 0.000000 h35.000000" fill="none" stroke="black" stroke-linecap="square" /><path d="M370.000000,270.000000  l5.000000, 0.000000 h35.000000" fill="none" stroke="black" stroke-linecap="square" /><path d="M410.000000,270.000000  l5.000000, 0.000000 h35.000000" fill="none" stroke="black" stroke-linecap="square" /><path d="M450.000000,270.000000  l5.000000, -20.000000 h35.000000" fill="none" stroke="black" stroke-linecap="square" /><path d="M490.000000,250.000000  l5.000000, 20.000000 h35.000000" fill="none" stroke="black" stroke-linecap="square" /><path d="M530.000000,270.000000  l5.000000, 0.000000 h35.000000" fill="none" stroke="black" stroke-linecap="square" /></g><g><text font-family="Helvetica" font-size="14.285714" text-anchor="end" x="86.000000" y="296.000000">EDATA</text><g><path d="M90.000000,290.000000 l5.000000,-10.000000 h30.000000 l5.000000,10.000000 l-5.000000,10.000000 h-30.000000 Z" fill="palegreen" stroke="black" stroke-linecap="square" /><text font-family="Helvetica" font-size="10.526316" text-anchor="middle" x="110.000000" y="294.700000">0</text></g><g><path d="M130.000000,290.000000 l5.000000,-10.000000 h30.000000 l5.000000,10.000000 l-5.000000,10.000000 h-30.000000 Z" fill="palegreen" stroke="black" stroke-linecap="square" /><text font-family="Helvetica" font-size="10.526316" text-anchor="middle" x="150.000000" y="294.700000">0</text></g><g><path d="M170.000000,290.000000 l5.000000,-10.000000 h30.000000 l5.000000,10.000000 l-5.000000,10.000000 h-30.000000 Z" fill="palegreen" stroke="black" stroke-linecap="square" /><text font-family="Helvetica" font-size="10.526316" text-anchor="middle" x="190.000000" y="294.700000">0</text></g><g><path d="M210.000000,290.000000 l5.000000,-10.000000 h30.000000 l5.000000,10.000000 l-5.000000,10.000000 h-30.000000 Z" fill="palegreen" stroke="black" stroke-linecap="square" /><text font-family="Helvetica" font-size="10.526316" text-anchor="middle" x="230.000000" y="294.700000">0</text></g><g><path d="M250.000000,290.000000 l5.000000,-10.000000 h30.000000 l5.000000,10.000000 l-5.000000,10.000000 h-30.000000 Z" fill="lightpink" stroke="black" stroke-linecap="square" /><text font-family="Helvetica" font-size="10.526316" text-anchor="middle" x="270.000000" y="294.700000">D0</text></g><g><path d="M290.000000,290.000000 l5.000000,-10.000000 h30.000000 l5.000000,10.000000 l-5.000000,10.000000 h-30.000000 Z" fill="lightpink" stroke="black" stroke-linecap="square" /><text font-family="Helvetica" font-size="10.526316" text-anchor="middle" x="310.000000" y="294.700000">D1</text></g><g><path d="M330.000000,290.000000 l5.000000,-10.000000 h30.000000 l5.000000,10.000000 l-5.000000,10.000000 h-30.000000 Z" fill="lightpink" stroke="black" stroke-linecap="square" /><text font-family="Helvetica" font-size="10.526316" text-anchor="middle" x="350.000000" y="294.700000">D2</text></g><g><path d="M370.000000,290.000000 l5.000000,-10.000000 h30.000000 l5.000000,10.000000 l-5.000000,10.000000 h-30.000000 Z" fill="lightpink" stroke="black" stroke-linecap="square" /><text font-family="Helvetica" font-size="10.526316" text-anchor="middle" x="390.000000" y="294.700000">D3</text></g><g><path d="M410.000000,290.000000 l5.000000,-10.000000 h30.000000 l5.000000,10.000000 l-5.000000,10.000000 h-30.000000 Z" fill="lightpink" stroke="black" stroke-linecap="square" /><text font-family="Helvetica" font-size="10.526316" text-anchor="middle" x="430.000000" y="294.700000">D4</text></g><g><path d="M450.000000,290.000000 l5.000000,-10.000000 h30.000000 l5.000000,10.000000 l-5.000000,10.000000 h-30.000000 Z" fill="lightpink" stroke="black" stroke-linecap="square" /><text font-family="Helvetica" font-size="10.526316" text-anchor="middle" x="470.000000" y="294.700000">D5</text></g><g><path d="M490.000000,290.000000 l5.000000,-10.000000 h30.000000 l5.000000,10.000000 l-5.000000,10.000000 h-30.000000 Z" fill="palegreen" stroke="black" stroke-linecap="square" /><text font-family="Helvetica" font-size="10.526316" text-anchor="middle" x="510.000000" y="294.700000">0</text></g><g><path d="M530.000000,290.000000 l5.000000,-10.000000 h30.000000 l5.000000,10.000000 l-5.000000,10.000000 h-30.000000 Z" fill="palegreen" stroke="black" stroke-linecap="square" /><text font-family="Helvetica" font-size="10.526316" text-anchor="middle" x="550.000000" y="294.700000">0</text></g></g><g><text font-family="Helvetica" font-size="14.285714" text-anchor="end" x="86.000000" y="326.000000">EADDR</text><g><path d="M90.000000,320.000000 l5.000000,-10.000000 h30.000000 l5.000000,10.000000 l-5.000000,10.000000 h-30.000000 Z" fill="palegreen" stroke="black" stroke-linecap="square" /><text font-family="Helvetica" font-size="10.526316" text-anchor="middle" x="110.000000" y="324.700000">0</text></g><g><path d="M130.000000,320.000000 l5.000000,-10.000000 h30.000000 l5.000000,10.000000 l-5.000000,10.000000 h-30.000000 Z" fill="palegreen" stroke="black" stroke-linecap="square" /><text font-family="Helvetica" font-size="10.526316" text-anchor="middle" x="150.000000" y="324.700000">0</text></g><g><path d="M170.000000,320.000000 l5.000000,-10.000000 h30.000000 l5.000000,10.000000 l-5.000000,10.000000 h-30.000000 Z" fill="palegreen" stroke="black" stroke-linecap="square" /><text font-family="Helvetica" font-size="10.526316" text-anchor="middle" x="190.000000" y="324.700000">0</text></g><g><path d="M210.000000,320.000000 l5.000000,-10.000000 h30.000000 l5.000000,10.000000 l-5.000000,10.000000 h-30.000000 Z" fill="palegreen" stroke="black" stroke-linecap="square" /><text font-family="Helvetica" font-size="10.526316" text-anchor="middle" x="230.000000" y="324.700000">0</text></g><g><path d="M250.000000,320.000000 l5.000000,-10.000000 h30.000000 l5.000000,10.000000 l-5.000000,10.000000 h-30.000000 Z" fill="lightpink" stroke="black" stroke-linecap="square" /><text font-family="Helvetica" font-size="10.526316" text-anchor="middle" x="270.000000" y="324.700000">A0</text></g><g><path d="M290.000000,320.000000 l5.000000,-10.000000 h30.000000 l5.000000,10.000000 l-5.000000,10.000000 h-30.000000 Z" fill="lightpink" stroke="black" stroke-linecap="square" /><text font-family="Helvetica" font-size="10.526316" text-anchor="middle" x="310.000000" y="324.700000">A1</text></g><g><path d="M330.000000,320.000000 l5.000000,-10.000000 h30.000000 l5.000000,10.000000 l-5.000000,10.000000 h-30.000000 Z" fill="lightpink" stroke="black" stroke-linecap="square" /><text font-family="Helvetica" font-size="10.526316" text-anchor="middle" x="350.000000" y="324.700000">A2</text></g><g><path d="M370.000000,320.000000 l5.000000,-10.000000 h30.000000 l5.000000,10.000000 l-5.000000,10.000000 h-30.000000 Z" fill="lightpink" stroke="black" stroke-linecap="square" /><text font-family="Helvetica" font-size="10.526316" text-anchor="middle" x="390.000000" y="324.700000">A3</text></g><g><path d="M410.000000,320.000000 l5.000000,-10.000000 h30.000000 l5.000000,10.000000 l-5.000000,10.000000 h-30.000000 Z" fill="lightpink" stroke="black" stroke-linecap="square" /><text font-family="Helvetica" font-size="10.526316" text-anchor="middle" x="430.000000" y="324.700000">A4</text></g><g><path d="M450.000000,320.000000 l5.000000,-10.000000 h30.000000 l5.000000,10.000000 l-5.000000,10.000000 h-30.000000 Z" fill="lightpink" stroke="black" stroke-linecap="square" /><text font-family="Helvetica" font-size="10.526316" text-anchor="middle" x="470.000000" y="324.700000">A5</text></g><g><path d="M490.000000,320.000000 l5.000000,-10.000000 h30.000000 l5.000000,10.000000 l-5.000000,10.000000 h-30.000000 Z" fill="palegreen" stroke="black" stroke-linecap="square" /><text font-family="Helvetica" font-size="10.526316" text-anchor="middle" x="510.000000" y="324.700000">0</text></g><g><path d="M530.000000,320.000000 l5.000000,-10.000000 h30.000000 l5.000000,10.000000 l-5.000000,10.000000 h-30.000000 Z" fill="palegreen" stroke="black" stroke-linecap="square" /><text font-family="Helvetica" font-size="10.526316" text-anchor="middle" x="550.000000" y="324.700000">0</text></g></g></g></svg>