M48
;Layer_Color=15461320
;FILE_FORMAT=2:4
INCH,LZ
;TYPE=PLATED
T1F00S00C0.0135
T2F00S00C0.0200
T3F00S00C0.0350
T4F00S00C0.0354
T5F00S00C0.0394
T6F00S00C0.0400
T7F00S00C0.0530
T8F00S00C0.0600
T9F00S00C0.1496
%
T01
X0661Y0312
X0459Y031
X0302Y0328
X0303Y0372
Y0382
X0305Y0412
X0296Y0411
X029265Y041265
X0253Y0413
X0226Y0414
X02115Y04175
Y04025
Y03875
X0245Y0373
X0254Y0377
X02364Y04274
X02115Y04425
Y04475
Y04525
Y04575
Y04625
Y04675
X021955Y046645
X022Y0463
X0266Y046
X02663Y04507
X0291Y0453
X0331
X0333Y0457
X034442Y045642
X034421Y0445
X0346Y0441
X0345Y0435
Y043
X033Y04275
X0323Y043
X0322Y0421
X0331Y04125
X033164Y0397
X0327
X03265Y03925
X0328Y0383
X034473Y038327
X0346Y0388
X0345Y0398
Y0402
X034456Y040944
X0359Y0403
Y0393
X035765Y036865
X036158Y036642
X0379Y0367
Y0381
X0393
Y0367
X0394Y0355
X040489Y035511
X0407Y0367
Y0381
X0421Y0382
X042064Y036636
X042654Y036654
X0438Y0366
X044229Y036671
X044435Y037735
X0451Y038
Y0374
X045Y0386
X045139Y039539
X0451Y04
Y0405
X045183Y040917
X0451Y0415
X045Y0424
X0451Y043
X04513Y04387
X0449Y0445
X0437Y0449
Y0439
Y0429
X0427Y0421
X0408
X0385
X0361
X036Y0435
X0359Y0445
Y0452
X036Y0457
X0379Y0458
X0387Y0459
X0402
X041Y0452
X0417Y0458
X0427Y0452
X0437Y0459
X045161Y045839
X0463Y0459
X0467Y0444
X046386Y042886
X0436Y0407
Y0397
Y0387
X045735Y036665
X041591Y033809
X0391Y0337
X038767Y034533
X037339Y035461
X0346Y0363
X0329Y0349
X0315Y03463
X03296Y03284
X033Y0322
X0329Y0315
X0354Y0318
Y0334
X0483Y0341
X048909Y035809
X050091
X0508Y0365
X0507Y034
X0519Y0341
X0543
X056127Y034227
X0564Y0337
X0578
X0584
Y0348
X0579Y0349
X0576Y036
Y037
X0578Y0382
X0577Y0394
Y0404
X057369Y0409
X0564Y0408
X0563Y0416
X056027Y042573
X056946Y043146
X0574Y0431
X0579Y0432
X0583Y0434
X0586Y0432
X0593Y0431
X0603
X06037Y0435
X0611Y0431
X061867Y043167
X0623Y0431
X062239Y041961
X0616Y0419
X062Y0413
X0624Y041
X0619Y0402
X0611Y0403
X06Y0409
X059465Y040865
X0594Y04
X0587Y0403
X0586Y042
X059111Y042011
X0596Y042
X0605Y0419
X058Y0416
X055Y0414
X0551Y0404
X0547Y0402
X055Y0394
Y0382
X0562
Y0378
Y0374
X056173Y036727
X056139Y035939
X0563Y0351
X0551Y03582
Y0366
X0562Y0394
X056946Y038754
X062Y0389
Y0372
X0618Y0362
X0609
X0597
X059702Y034798
X0598Y0337
X0608
X0613Y0336
X0624Y0337
X0619Y0348
X0609
X0608Y0459
X0613Y0458
X0624Y0459
X0598
X0599Y0453
X0584Y0459
X0578
X0564
X056
X0556Y046
X055627Y046827
X0551Y0433
X0518Y0428
X0522Y0403
X0527
X063433Y040467
X0632Y0413
X063Y0419
X0629Y0432
X064Y0436
X0647Y0423
X0645Y0414
X0646Y0405
X0647Y0398
X064586Y039286
X0649Y039
X0645Y0386
X063408Y038892
X0633Y0382
X0628Y0379
X063424Y036924
X0628Y0362
X063451Y035349
X0633Y035
X063527Y034227
X0645Y0353
Y0372
X0662Y0366
Y0342
X0659Y0414
X0657Y0427
X0658Y0457
X063527Y046427
X0696Y0468
X070465Y044865
X0718Y0459
X073153Y044647
X0724Y0435
X071047Y042347
X072826Y040826
X073674Y040074
X073065Y037035
X066Y0472
X0645Y0475
X063451Y047549
X0633Y0472
X0628Y0484
X063424Y049124
X0631Y0501
X0633Y0504
X0628
X0629Y0516
X0632Y0519
X063433Y052667
X0632Y0535
X063Y0541
X0629Y0554
X064Y0558
X0645Y0536
X0646Y0531
Y0527
X0647Y0521
X064586Y051486
X0645Y0508
X0648Y0501
X0645Y0494
X066691Y049091
X0652Y051273
X063408Y051092
X0659Y0536
X0632Y0581
X062165Y057165
X060565Y057165
X0597Y0565
Y0561
X0604Y0557
X0603Y0553
X061276Y055324
X061867Y055367
X0623Y0553
X062239Y054161
X0616Y0541
X0605
X0596Y0542
X059111Y054211
X0586Y0542
X0578Y0536
X0577Y0526
Y0516
X0578Y0504
X0576Y0492
Y0482
X0579Y0471
X0584Y047
X059702Y046998
X0609Y047
X0619
X0618Y0484
X0609
X0597
X062Y0494
X0618Y0501
X062Y0511
X0619Y0524
X0624Y0531
X0609Y0515
X0591Y0526
X0593Y0553
X0587Y0566
X058Y0565
X0576Y0561
X057Y0557
X0568Y0541
X056355Y054045
X056027Y054773
X0564Y053
X0563Y0521
X0562Y0516
X0566Y051
X0562Y0504
Y05
Y0496
X056173Y048927
X0566Y0487
X056139Y048139
X056255Y047155
X0551Y04805
Y0488
X055Y0504
Y0516
X0547Y052
X0551Y0526
X055Y0536
X0525Y0533
X0515Y0539
X0493Y0533
X048Y0539
X0479Y0502
X047335Y050635
X0495Y0506
X0498Y0502
X0514Y0499
Y0506
X0533Y0502
X0526Y0476
X050709Y047009
X0501Y0476
X049191Y047009
X0474Y0476
X058335Y057165
X046516Y053284
X0444Y0539
X0424Y0534
X0403Y0539
X0402Y0502
X0405Y0498
X0409Y0495
X0411Y0491
X0421Y0486
X0428Y0487
X0431Y0473
X043835Y047335
X0449Y0472
X045735Y047365
X0452Y0481
X0459Y0502
X0413Y0509
X0408Y0505
X0404Y0473
X0392
X038717Y047317
X0377Y0473
X036946Y048446
X035765Y048465
X0349Y0473
X03448Y04702
X0337Y0477
X04167Y04733
X03156Y05756
X0302Y05525
X02634Y05516
X0259Y0531
X023851Y053151
X0222Y0538
Y0553
X02403Y05583
X0282Y0582
X0299Y0505
X0298Y0486
X0308Y0472
X0274Y0487
X0254Y0473
X0249
X02115Y04725
Y04775
Y04825
Y04875
Y04975
T02
X025Y0313
Y03215
Y033
Y03385
Y0347
X026
X027
X028
X029
Y033875
Y03305
Y032225
Y0314
X0288Y0531
X02795
X0271
Y0541
Y0551
Y0561
Y0571
X027925
X02875
X029575
X0304
X0305Y0531
X02965
T03
X0773Y050548
Y05155
Y05305
Y054052
T04
X0677Y0405
X0687
Y0415
X0677
Y0425
X0687
Y0435
X0677
Y0445
X0687
Y0455
X0677
Y0465
X0687
X0686Y0505
X0676
Y0515
X0686
Y0525
X0676
Y0535
X0686
Y0545
X0676
Y0555
X0686
Y0565
X0676
T05
X023176Y051313
X023963
Y0521
X023176
X02475
X025538
Y051313
X02475
X026325
X027113
Y0521
X026325
X0279
Y051313
T06
X0758Y0377
Y0387
Y0397
Y0407
Y0417
Y0427
Y0437
Y0447
X0788
Y0417
Y0407
Y0377
T07
X020472Y037573
Y052427
T08
X03405Y05115
X0378Y0512
Y0574
X0353
X03405
T09
X02Y0325
X0775
Y0575
X02
M30
