%FSLAX24Y24*%
%MOIN*%
G70*
G01*
G75*
G04 Layer_Color=65535*
%ADD10R,0.0276X0.0354*%
%ADD11R,0.0630X0.0118*%
%ADD12R,0.0118X0.0630*%
%ADD13R,0.0728X0.0118*%
%ADD14R,0.0118X0.0728*%
%ADD15R,0.0787X0.0866*%
%ADD16R,0.0807X0.0236*%
%ADD17R,0.0866X0.0787*%
%ADD18R,0.0354X0.0276*%
%ADD19R,0.0787X0.0551*%
%ADD20R,0.1500X0.0500*%
%ADD21R,0.3000X0.2900*%
%ADD22R,0.0630X0.0709*%
%ADD23R,0.0709X0.0630*%
%ADD24R,0.1024X0.0945*%
%ADD25R,0.0197X0.0748*%
%ADD26R,0.0748X0.0197*%
%ADD27R,0.0394X0.0433*%
%ADD28R,0.0433X0.0394*%
%ADD29R,0.0512X0.0630*%
%ADD30R,0.0827X0.0354*%
%ADD31R,0.0827X0.0354*%
%ADD32R,0.1732X0.1441*%
%ADD33C,0.0100*%
%ADD34C,0.0080*%
%ADD35C,0.0200*%
%ADD36C,0.0160*%
%ADD37C,0.0090*%
%ADD38C,0.0600*%
%ADD39R,0.0591X0.0591*%
%ADD40C,0.0591*%
%ADD41C,0.1732*%
%ADD42C,0.1732*%
%ADD43C,0.0500*%
%ADD44C,0.0800*%
%ADD45C,0.0250*%
%ADD46C,0.0350*%
%ADD47C,0.0098*%
%ADD48C,0.0079*%
%ADD49C,0.0070*%
%ADD50C,0.0120*%
%ADD51C,0.0050*%
D33*
X79100Y45200D02*
X79500Y44800D01*
X79100Y41200D02*
X79500Y41600D01*
X79200Y45200D02*
X79500D01*
Y41200D02*
Y45200D01*
X78800Y41200D02*
X79500D01*
X74800D02*
X75900D01*
X74800Y45200D02*
X75800D01*
X74800Y45000D02*
Y45200D01*
Y45000D02*
X75000D01*
Y44400D02*
Y45000D01*
X74800Y44400D02*
X75000D01*
X74800Y43700D02*
Y44400D01*
Y43700D02*
X75000D01*
Y42700D02*
Y43700D01*
X74800Y42700D02*
X75000D01*
X74800Y42000D02*
Y42700D01*
Y42000D02*
X75000D01*
Y41400D02*
Y42000D01*
X74800Y41400D02*
X75000D01*
X74800Y41200D02*
Y41400D01*
X75800Y45200D02*
X79200D01*
X75800Y41200D02*
X79200D01*
X79100D02*
X79500Y40800D01*
X79100Y37200D02*
X79500Y37600D01*
X79200Y41200D02*
X79500D01*
Y37200D02*
Y41200D01*
X78800Y37200D02*
X79500D01*
X74800D02*
X75900D01*
X74800Y41200D02*
X75800D01*
X74800Y41000D02*
Y41200D01*
Y41000D02*
X75000D01*
Y40400D02*
Y41000D01*
X74800Y40400D02*
X75000D01*
X74800Y39700D02*
Y40400D01*
Y39700D02*
X75000D01*
Y38700D02*
Y39700D01*
X74800Y38700D02*
X75000D01*
X74800Y38000D02*
Y38700D01*
Y38000D02*
X75000D01*
Y37400D02*
Y38000D01*
X74800Y37400D02*
X75000D01*
X74800Y37200D02*
Y37400D01*
X75800Y41200D02*
X79200D01*
X75800Y37200D02*
X79200D01*
X28509Y47094D02*
X28903Y47487D01*
X31462Y43747D02*
Y47487D01*
X28509Y43747D02*
X31462D01*
X28509D02*
Y47487D01*
X31462D01*
X25750Y34400D02*
X29550D01*
X25800Y31100D02*
X29600D01*
X32800Y58400D02*
X38800D01*
X32800Y50400D02*
Y58400D01*
Y50400D02*
X38800D01*
Y58400D01*
X27700Y56900D02*
X31500D01*
X27750Y53600D02*
X31550D01*
X17722Y55450D02*
X20472D01*
Y54000D02*
Y55450D01*
Y54000D02*
X21472D01*
Y45000D02*
Y54000D01*
Y36000D02*
Y45000D01*
X20472Y36000D02*
X21472D01*
X20472Y34550D02*
Y36000D01*
X17722Y34550D02*
X20472D01*
X40450Y57025D02*
X40375Y57100D01*
X40225D01*
X40150Y57025D01*
Y56725D01*
X40225Y56650D01*
X40375D01*
X40450Y56725D01*
X40675Y56650D02*
X40825D01*
X40900Y56725D01*
Y56875D01*
X40825Y56950D01*
X40675D01*
X40600Y56875D01*
Y56725D01*
X40675Y56650D01*
X41050Y56500D02*
Y56950D01*
X41275D01*
X41350Y56875D01*
Y56725D01*
X41275Y56650D01*
X41050D01*
X41500Y56950D02*
Y56725D01*
X41575Y56650D01*
X41799D01*
Y56575D01*
X41724Y56500D01*
X41650D01*
X41799Y56650D02*
Y56950D01*
X41949D02*
Y56650D01*
Y56800D01*
X42024Y56875D01*
X42099Y56950D01*
X42174D01*
X42399Y56650D02*
X42549D01*
X42474D01*
Y56950D01*
X42399D01*
X42924Y56500D02*
X42999D01*
X43074Y56575D01*
Y56950D01*
X42849D01*
X42774Y56875D01*
Y56725D01*
X42849Y56650D01*
X43074D01*
X43224Y57100D02*
Y56650D01*
Y56875D01*
X43299Y56950D01*
X43449D01*
X43524Y56875D01*
Y56650D01*
X43749Y57025D02*
Y56950D01*
X43674D01*
X43824D01*
X43749D01*
Y56725D01*
X43824Y56650D01*
X44798Y57100D02*
X44499D01*
Y56650D01*
X44798D01*
X44499Y56875D02*
X44649D01*
X44948Y56950D02*
Y56650D01*
Y56800D01*
X45023Y56875D01*
X45098Y56950D01*
X45173D01*
X45398Y56650D02*
X45548D01*
X45473D01*
Y56950D01*
X45398D01*
X46073D02*
X45848D01*
X45773Y56875D01*
Y56725D01*
X45848Y56650D01*
X46073D01*
X46973Y57100D02*
X46823D01*
X46898D01*
Y56725D01*
X46823Y56650D01*
X46748D01*
X46673Y56725D01*
X47198Y56650D02*
X47348D01*
X47423Y56725D01*
Y56875D01*
X47348Y56950D01*
X47198D01*
X47123Y56875D01*
Y56725D01*
X47198Y56650D01*
X47573D02*
Y56950D01*
X47798D01*
X47873Y56875D01*
Y56650D01*
X48097Y56950D02*
X48247D01*
X48322Y56875D01*
Y56650D01*
X48097D01*
X48022Y56725D01*
X48097Y56800D01*
X48322D01*
X48472Y56650D02*
X48697D01*
X48772Y56725D01*
X48697Y56800D01*
X48547D01*
X48472Y56875D01*
X48547Y56950D01*
X48772D01*
D34*
X76700Y49839D02*
Y54761D01*
X75804Y49839D02*
X79465D01*
X75804Y54761D02*
X79465D01*
Y49839D02*
Y54761D01*
X75804Y49839D02*
Y54761D01*
X40400Y52838D02*
X40614D01*
X40686Y52862D01*
X40709Y52886D01*
X40733Y52933D01*
Y53005D01*
X40709Y53052D01*
X40686Y53076D01*
X40614Y53100D01*
X40400D01*
Y52600D01*
X40988Y53100D02*
X40940Y53076D01*
X40893Y53028D01*
X40869Y52981D01*
X40845Y52909D01*
Y52790D01*
X40869Y52719D01*
X40893Y52671D01*
X40940Y52624D01*
X40988Y52600D01*
X41083D01*
X41131Y52624D01*
X41178Y52671D01*
X41202Y52719D01*
X41226Y52790D01*
Y52909D01*
X41202Y52981D01*
X41178Y53028D01*
X41131Y53076D01*
X41083Y53100D01*
X40988D01*
X41343D02*
X41462Y52600D01*
X41581Y53100D02*
X41462Y52600D01*
X41581Y53100D02*
X41700Y52600D01*
X41819Y53100D02*
X41700Y52600D01*
X42228Y53100D02*
X41919D01*
Y52600D01*
X42228D01*
X41919Y52862D02*
X42109D01*
X42312Y53100D02*
Y52600D01*
Y53100D02*
X42526D01*
X42597Y53076D01*
X42621Y53052D01*
X42645Y53005D01*
Y52957D01*
X42621Y52909D01*
X42597Y52886D01*
X42526Y52862D01*
X42312D01*
X42478D02*
X42645Y52600D01*
X44500Y53100D02*
Y52600D01*
Y53100D02*
X44667D01*
X44738Y53076D01*
X44786Y53028D01*
X44809Y52981D01*
X44833Y52909D01*
Y52790D01*
X44809Y52719D01*
X44786Y52671D01*
X44738Y52624D01*
X44667Y52600D01*
X44500D01*
X45278Y53028D02*
X45231Y53076D01*
X45159Y53100D01*
X45064D01*
X44993Y53076D01*
X44945Y53028D01*
Y52981D01*
X44969Y52933D01*
X44993Y52909D01*
X45040Y52886D01*
X45183Y52838D01*
X45231Y52814D01*
X45255Y52790D01*
X45278Y52743D01*
Y52671D01*
X45231Y52624D01*
X45159Y52600D01*
X45064D01*
X44993Y52624D01*
X44945Y52671D01*
X45390Y52838D02*
X45605D01*
X45676Y52862D01*
X45700Y52886D01*
X45724Y52933D01*
Y53005D01*
X45700Y53052D01*
X45676Y53076D01*
X45605Y53100D01*
X45390D01*
Y52600D01*
X46609D02*
X46419Y53100D01*
X46228Y52600D01*
X46300Y52767D02*
X46538D01*
X48100Y53100D02*
Y52600D01*
Y53100D02*
X48267D01*
X48338Y53076D01*
X48386Y53028D01*
X48409Y52981D01*
X48433Y52909D01*
Y52790D01*
X48409Y52719D01*
X48386Y52671D01*
X48338Y52624D01*
X48267Y52600D01*
X48100D01*
X48878Y53028D02*
X48831Y53076D01*
X48759Y53100D01*
X48664D01*
X48593Y53076D01*
X48545Y53028D01*
Y52981D01*
X48569Y52933D01*
X48593Y52909D01*
X48640Y52886D01*
X48783Y52838D01*
X48831Y52814D01*
X48855Y52790D01*
X48878Y52743D01*
Y52671D01*
X48831Y52624D01*
X48759Y52600D01*
X48664D01*
X48593Y52624D01*
X48545Y52671D01*
X48990Y52838D02*
X49205D01*
X49276Y52862D01*
X49300Y52886D01*
X49324Y52933D01*
Y53005D01*
X49300Y53052D01*
X49276Y53076D01*
X49205Y53100D01*
X48990D01*
Y52600D01*
X49828Y53100D02*
Y52600D01*
Y53100D02*
X50042D01*
X50114Y53076D01*
X50138Y53052D01*
X50161Y53005D01*
Y52957D01*
X50138Y52909D01*
X50114Y52886D01*
X50042Y52862D01*
X49828D02*
X50042D01*
X50114Y52838D01*
X50138Y52814D01*
X50161Y52767D01*
Y52695D01*
X50138Y52648D01*
X50114Y52624D01*
X50042Y52600D01*
X49828D01*
X51909Y53100D02*
X51600D01*
Y52600D01*
X51909D01*
X51600Y52862D02*
X51790D01*
X51993Y53100D02*
X52183Y52600D01*
X52374Y53100D02*
X52183Y52600D01*
X52747Y53100D02*
X52438D01*
Y52600D01*
X52747D01*
X52438Y52862D02*
X52628D01*
X52831Y53100D02*
Y52600D01*
Y53100D02*
X53164Y52600D01*
Y53100D02*
Y52600D01*
X53469Y53100D02*
Y52600D01*
X53302Y53100D02*
X53635D01*
X67900Y39633D02*
Y39300D01*
X67567Y39633D01*
X67483D01*
X67400Y39550D01*
Y39383D01*
X67483Y39300D01*
X68900D02*
Y39467D01*
Y39383D01*
X68400D01*
X68483Y39300D01*
X67900Y47300D02*
Y47467D01*
Y47383D01*
X67400D01*
X67483Y47300D01*
X67900Y47966D02*
X67400D01*
X67650Y47717D01*
Y48050D01*
X68900Y47300D02*
Y47467D01*
Y47383D01*
X68400D01*
X68483Y47300D01*
Y47717D02*
X68400Y47800D01*
Y47966D01*
X68483Y48050D01*
X68567D01*
X68650Y47966D01*
Y47883D01*
Y47966D01*
X68733Y48050D01*
X68817D01*
X68900Y47966D01*
Y47800D01*
X68817Y47717D01*
X67800Y49633D02*
Y49300D01*
X67467Y49633D01*
X67383D01*
X67300Y49550D01*
Y49383D01*
X67383Y49300D01*
X68800D02*
Y49467D01*
Y49383D01*
X68300D01*
X68383Y49300D01*
X67800Y57300D02*
Y57467D01*
Y57383D01*
X67300D01*
X67383Y57300D01*
X67800Y57966D02*
X67300D01*
X67550Y57717D01*
Y58050D01*
X68800Y57300D02*
Y57467D01*
Y57383D01*
X68300D01*
X68383Y57300D01*
Y57717D02*
X68300Y57800D01*
Y57966D01*
X68383Y58050D01*
X68467D01*
X68550Y57966D01*
Y57883D01*
Y57966D01*
X68633Y58050D01*
X68717D01*
X68800Y57966D01*
Y57800D01*
X68717Y57717D01*
X51300Y56000D02*
X51450D01*
X51500Y56050D01*
X51450Y56100D01*
X51350D01*
X51300Y56150D01*
X51350Y56200D01*
X51500D01*
X51650Y56000D02*
X51750D01*
X51800Y56050D01*
Y56150D01*
X51750Y56200D01*
X51650D01*
X51600Y56150D01*
Y56050D01*
X51650Y56000D01*
X51900D02*
Y56200D01*
X51950D01*
X52000Y56150D01*
Y56000D01*
Y56150D01*
X52050Y56200D01*
X52100Y56150D01*
Y56000D01*
X52250Y56200D02*
X52350D01*
X52400Y56150D01*
Y56000D01*
X52250D01*
X52200Y56050D01*
X52250Y56100D01*
X52400D01*
X52500Y56000D02*
Y56050D01*
X52550D01*
Y56000D01*
X52500D01*
X52750D02*
Y56200D01*
X52800D01*
X52849Y56150D01*
Y56000D01*
Y56150D01*
X52899Y56200D01*
X52949Y56150D01*
Y56000D01*
X53049D02*
X53149D01*
X53099D01*
Y56200D01*
X53049D01*
X53349Y56250D02*
Y56200D01*
X53299D01*
X53399D01*
X53349D01*
Y56050D01*
X53399Y56000D01*
X53549D02*
Y56050D01*
X53599D01*
Y56000D01*
X53549D01*
X53949D02*
X53849D01*
X53799Y56050D01*
Y56150D01*
X53849Y56200D01*
X53949D01*
X53999Y56150D01*
Y56100D01*
X53799D01*
X54299Y56300D02*
Y56000D01*
X54149D01*
X54099Y56050D01*
Y56150D01*
X54149Y56200D01*
X54299D01*
X54399D02*
Y56050D01*
X54449Y56000D01*
X54599D01*
Y56200D01*
D35*
X41050Y58650D02*
X40850Y58850D01*
X40450D01*
X40250Y58650D01*
Y58450D01*
X40450Y58250D01*
X40850D01*
X41050Y58050D01*
Y57850D01*
X40850Y57650D01*
X40450D01*
X40250Y57850D01*
X41650Y57650D02*
X42049D01*
X42249Y57850D01*
Y58250D01*
X42049Y58450D01*
X41650D01*
X41450Y58250D01*
Y57850D01*
X41650Y57650D01*
X42649D02*
Y58450D01*
X42849D01*
X43049Y58250D01*
Y57650D01*
Y58250D01*
X43249Y58450D01*
X43449Y58250D01*
Y57650D01*
X44049Y58450D02*
X44449D01*
X44649Y58250D01*
Y57650D01*
X44049D01*
X43849Y57850D01*
X44049Y58050D01*
X44649D01*
X46248Y58850D02*
Y57650D01*
X46848D01*
X47048Y57850D01*
Y58650D01*
X46848Y58850D01*
X46248D01*
X48247Y58650D02*
X48047Y58850D01*
X47648D01*
X47448Y58650D01*
Y58450D01*
X47648Y58250D01*
X48047D01*
X48247Y58050D01*
Y57850D01*
X48047Y57650D01*
X47648D01*
X47448Y57850D01*
X48647Y57650D02*
Y58850D01*
X49247D01*
X49447Y58650D01*
Y58250D01*
X49247Y58050D01*
X48647D01*
X51047Y58850D02*
Y57650D01*
X51646D01*
X51846Y57850D01*
Y58050D01*
X51646Y58250D01*
X51047D01*
X51646D01*
X51846Y58450D01*
Y58650D01*
X51646Y58850D01*
X51047D01*
X52446Y57650D02*
X52846D01*
X53046Y57850D01*
Y58250D01*
X52846Y58450D01*
X52446D01*
X52246Y58250D01*
Y57850D01*
X52446Y57650D01*
X53646Y58450D02*
X54046D01*
X54245Y58250D01*
Y57650D01*
X53646D01*
X53446Y57850D01*
X53646Y58050D01*
X54245D01*
X54645Y58450D02*
Y57650D01*
Y58050D01*
X54845Y58250D01*
X55045Y58450D01*
X55245D01*
X56645Y58850D02*
Y57650D01*
X56045D01*
X55845Y57850D01*
Y58250D01*
X56045Y58450D01*
X56645D01*
D47*
X55676Y42120D02*
G03*
X55676Y42120I-49J0D01*
G01*
X34554Y36065D02*
G03*
X34554Y36065I-49J0D01*
G01*
X55676Y54320D02*
G03*
X55676Y54320I-49J0D01*
G01*
X71096Y44585D02*
G03*
X71096Y44585I-49J0D01*
G01*
X32101Y57294D02*
G03*
X32101Y57294I-49J0D01*
G01*
X27292Y43810D02*
G03*
X27292Y43810I-49J0D01*
G01*
D48*
X71936Y44484D02*
G03*
X72264Y44484I164J0D01*
G01*
X59902Y56949D02*
X60098D01*
X56099Y34699D02*
X63501D01*
X56099Y42101D02*
X63501D01*
X56099Y34699D02*
Y42101D01*
X63501Y34699D02*
Y42101D01*
X34387Y47413D02*
X45213D01*
X34387Y36587D02*
X45213D01*
X34387D02*
Y47413D01*
X45213Y36587D02*
Y47413D01*
X63501Y46899D02*
Y54301D01*
X56099Y46899D02*
Y54301D01*
X63501D01*
X56099Y46899D02*
X63501D01*
X71942Y46209D02*
Y47391D01*
X69855D02*
X71942D01*
X69855Y46209D02*
X71942D01*
X72592Y42516D02*
Y44484D01*
X71608Y42516D02*
Y44484D01*
Y42516D02*
X72592D01*
X72264Y44484D02*
X72592D01*
X71608D02*
X71936D01*
X49742Y47009D02*
Y48191D01*
X47655D02*
X49742D01*
X47655Y47009D02*
X49742D01*
X54242Y33509D02*
Y34691D01*
X52155D02*
X54242D01*
X52155Y33509D02*
X54242D01*
X50642Y35909D02*
Y37091D01*
X48555D02*
X50642D01*
X48555Y35909D02*
X50642D01*
X65609Y34258D02*
X66791D01*
Y36345D01*
X65609Y34258D02*
Y36345D01*
X65409Y47358D02*
X66591D01*
Y49445D01*
X65409Y47358D02*
Y49445D01*
X52442Y47009D02*
Y48191D01*
X50355D02*
X52442D01*
X50355Y47009D02*
X52442D01*
X50642Y33509D02*
Y34691D01*
X48555D02*
X50642D01*
X48555Y33509D02*
X50642D01*
X67200Y47000D02*
X69200D01*
X67200Y40000D02*
X69200D01*
X67200D02*
Y47000D01*
X69200Y40000D02*
Y47000D01*
X67100Y57000D02*
X69100D01*
X67100Y50000D02*
X69100D01*
X67100D02*
Y57000D01*
X69100Y50000D02*
Y57000D01*
X62502Y43849D02*
X62698D01*
X71351Y45302D02*
Y45498D01*
X73951Y37502D02*
Y37698D01*
X28491Y50722D02*
Y52691D01*
X22585D02*
X28491D01*
X22585Y50722D02*
X28491D01*
X22585D02*
Y52691D01*
X34343Y33085D02*
Y33715D01*
X34418Y33085D02*
Y33715D01*
X34182D02*
X34418D01*
X34182Y33085D02*
X34418D01*
X34343Y31485D02*
Y32115D01*
X34418Y31485D02*
Y32115D01*
X34182D02*
X34418D01*
X34182Y31485D02*
X34418D01*
X31285Y51582D02*
Y51818D01*
X31915Y51582D02*
Y51818D01*
X30891Y57294D02*
Y59106D01*
X31796Y57294D02*
Y57314D01*
Y59086D02*
Y59106D01*
X28804Y57294D02*
X31796D01*
X28804Y59106D02*
X31796D01*
X28804Y59086D02*
Y59106D01*
Y57294D02*
Y57314D01*
X61002Y56949D02*
X61198D01*
X61202Y43849D02*
X61398D01*
X23089Y43889D02*
Y47511D01*
X26711Y43889D02*
Y47511D01*
X23089Y43889D02*
X26711D01*
X23089Y47511D02*
X26711D01*
X23182Y55615D02*
X23418D01*
X23182Y54985D02*
X23418D01*
X23182D02*
Y55615D01*
X23257Y54985D02*
Y55615D01*
X23182Y54115D02*
X23418D01*
X23182Y53485D02*
X23418D01*
X23182D02*
Y54115D01*
X23257Y53485D02*
Y54115D01*
X48261Y54353D02*
X48943D01*
X48261Y53447D02*
X48943D01*
X48261D02*
Y54353D01*
X49887Y53447D02*
Y54353D01*
X49257D02*
X49887D01*
X49257Y53447D02*
X49887D01*
X48399D02*
Y54353D01*
X44661D02*
X45343D01*
X44661Y53447D02*
X45343D01*
X44661D02*
Y54353D01*
X46287Y53447D02*
Y54353D01*
X45657D02*
X46287D01*
X45657Y53447D02*
X46287D01*
X44799D02*
Y54353D01*
X40561D02*
X41243D01*
X40561Y53447D02*
X41243D01*
X40561D02*
Y54353D01*
X42187Y53447D02*
Y54353D01*
X41557D02*
X42187D01*
X41557Y53447D02*
X42187D01*
X40699D02*
Y54353D01*
X51799Y53447D02*
Y54353D01*
X52657Y53447D02*
X53287D01*
X52657Y54353D02*
X53287D01*
Y53447D02*
Y54353D01*
X51661Y53447D02*
Y54353D01*
Y53447D02*
X52343D01*
X51661Y54353D02*
X52343D01*
X40055Y33909D02*
X42142D01*
X40055Y35091D02*
X42142D01*
Y33909D02*
Y35091D01*
D49*
X72100Y54000D02*
Y54300D01*
X72250D01*
X72300Y54250D01*
Y54150D01*
X72250Y54100D01*
X72100D01*
X72200D02*
X72300Y54000D01*
X72600D02*
X72400D01*
X72600Y54200D01*
Y54250D01*
X72550Y54300D01*
X72450D01*
X72400Y54250D01*
X72900Y54300D02*
X72800Y54250D01*
X72700Y54150D01*
Y54050D01*
X72750Y54000D01*
X72850D01*
X72900Y54050D01*
Y54100D01*
X72850Y54150D01*
X72700D01*
X72100Y50900D02*
Y51200D01*
X72250D01*
X72300Y51150D01*
Y51050D01*
X72250Y51000D01*
X72100D01*
X72200D02*
X72300Y50900D01*
X72600D02*
X72400D01*
X72600Y51100D01*
Y51150D01*
X72550Y51200D01*
X72450D01*
X72400Y51150D01*
X72900Y51200D02*
X72700D01*
Y51050D01*
X72800Y51100D01*
X72850D01*
X72900Y51050D01*
Y50950D01*
X72850Y50900D01*
X72750D01*
X72700Y50950D01*
X75800Y55300D02*
Y55000D01*
X76000D01*
X76300D02*
X76100D01*
X76300Y55200D01*
Y55250D01*
X76250Y55300D01*
X76150D01*
X76100Y55250D01*
X55340Y43500D02*
Y43250D01*
X55390Y43200D01*
X55490D01*
X55540Y43250D01*
Y43500D01*
X55840Y43200D02*
X55640D01*
X55840Y43400D01*
Y43450D01*
X55790Y43500D01*
X55690D01*
X55640Y43450D01*
X33530Y48910D02*
Y48660D01*
X33580Y48610D01*
X33680D01*
X33730Y48660D01*
Y48910D01*
X34030D02*
X33930Y48860D01*
X33830Y48760D01*
Y48660D01*
X33880Y48610D01*
X33980D01*
X34030Y48660D01*
Y48710D01*
X33980Y48760D01*
X33830D01*
X71600Y44900D02*
Y44650D01*
X71650Y44600D01*
X71750D01*
X71800Y44650D01*
Y44900D01*
X72100D02*
X71900D01*
Y44750D01*
X72000Y44800D01*
X72050D01*
X72100Y44750D01*
Y44650D01*
X72050Y44600D01*
X71950D01*
X71900Y44650D01*
X55340Y55700D02*
Y55450D01*
X55390Y55400D01*
X55490D01*
X55540Y55450D01*
Y55700D01*
X55640Y55400D02*
X55740D01*
X55690D01*
Y55700D01*
X55640Y55650D01*
X72900Y45700D02*
Y46000D01*
X73050D01*
X73100Y45950D01*
Y45850D01*
X73050Y45800D01*
X72900D01*
X73000D02*
X73100Y45700D01*
X73400D02*
X73200D01*
X73400Y45900D01*
Y45950D01*
X73350Y46000D01*
X73250D01*
X73200Y45950D01*
X73650Y45700D02*
Y46000D01*
X73500Y45850D01*
X73700D01*
X72700Y41900D02*
Y42200D01*
X72850D01*
X72900Y42150D01*
Y42050D01*
X72850Y42000D01*
X72700D01*
X72800D02*
X72900Y41900D01*
X73200D02*
X73000D01*
X73200Y42100D01*
Y42150D01*
X73150Y42200D01*
X73050D01*
X73000Y42150D01*
X73300D02*
X73350Y42200D01*
X73450D01*
X73500Y42150D01*
Y42100D01*
X73450Y42050D01*
X73400D01*
X73450D01*
X73500Y42000D01*
Y41950D01*
X73450Y41900D01*
X73350D01*
X73300Y41950D01*
X70600Y40700D02*
Y41000D01*
X70750D01*
X70800Y40950D01*
Y40850D01*
X70750Y40800D01*
X70600D01*
X70700D02*
X70800Y40700D01*
X71100D02*
X70900D01*
X71100Y40900D01*
Y40950D01*
X71050Y41000D01*
X70950D01*
X70900Y40950D01*
X71400Y40700D02*
X71200D01*
X71400Y40900D01*
Y40950D01*
X71350Y41000D01*
X71250D01*
X71200Y40950D01*
X72700Y39600D02*
Y39900D01*
X72850D01*
X72900Y39850D01*
Y39750D01*
X72850Y39700D01*
X72700D01*
X72800D02*
X72900Y39600D01*
X73200D02*
X73000D01*
X73200Y39800D01*
Y39850D01*
X73150Y39900D01*
X73050D01*
X73000Y39850D01*
X73300Y39600D02*
X73400D01*
X73350D01*
Y39900D01*
X73300Y39850D01*
X25200Y42100D02*
X25500D01*
Y41950D01*
X25450Y41900D01*
X25350D01*
X25300Y41950D01*
Y42100D01*
Y42000D02*
X25200Y41900D01*
Y41600D02*
Y41800D01*
X25400Y41600D01*
X25450D01*
X25500Y41650D01*
Y41750D01*
X25450Y41800D01*
Y41500D02*
X25500Y41450D01*
Y41350D01*
X25450Y41300D01*
X25250D01*
X25200Y41350D01*
Y41450D01*
X25250Y41500D01*
X25450D01*
X25200Y50000D02*
X25500D01*
Y49850D01*
X25450Y49800D01*
X25350D01*
X25300Y49850D01*
Y50000D01*
Y49900D02*
X25200Y49800D01*
Y49700D02*
Y49600D01*
Y49650D01*
X25500D01*
X25450Y49700D01*
X25250Y49450D02*
X25200Y49400D01*
Y49300D01*
X25250Y49250D01*
X25450D01*
X25500Y49300D01*
Y49400D01*
X25450Y49450D01*
X25400D01*
X25350Y49400D01*
Y49250D01*
X24300Y42100D02*
X24600D01*
Y41950D01*
X24550Y41900D01*
X24450D01*
X24400Y41950D01*
Y42100D01*
Y42000D02*
X24300Y41900D01*
Y41800D02*
Y41700D01*
Y41750D01*
X24600D01*
X24550Y41800D01*
Y41550D02*
X24600Y41500D01*
Y41400D01*
X24550Y41350D01*
X24500D01*
X24450Y41400D01*
X24400Y41350D01*
X24350D01*
X24300Y41400D01*
Y41500D01*
X24350Y41550D01*
X24400D01*
X24450Y41500D01*
X24500Y41550D01*
X24550D01*
X24450Y41500D02*
Y41400D01*
X26200Y42100D02*
X26500D01*
Y41950D01*
X26450Y41900D01*
X26350D01*
X26300Y41950D01*
Y42100D01*
Y42000D02*
X26200Y41900D01*
Y41800D02*
Y41700D01*
Y41750D01*
X26500D01*
X26450Y41800D01*
X26500Y41550D02*
Y41350D01*
X26450D01*
X26250Y41550D01*
X26200D01*
X62400Y58400D02*
Y58700D01*
X62550D01*
X62600Y58650D01*
Y58550D01*
X62550Y58500D01*
X62400D01*
X62500D02*
X62600Y58400D01*
X62700D02*
X62800D01*
X62750D01*
Y58700D01*
X62700Y58650D01*
X63150Y58700D02*
X63050Y58650D01*
X62950Y58550D01*
Y58450D01*
X63000Y58400D01*
X63100D01*
X63150Y58450D01*
Y58500D01*
X63100Y58550D01*
X62950D01*
X52000Y43300D02*
Y43600D01*
X52150D01*
X52200Y43550D01*
Y43450D01*
X52150Y43400D01*
X52000D01*
X52100D02*
X52200Y43300D01*
X52300D02*
X52400D01*
X52350D01*
Y43600D01*
X52300Y43550D01*
X52750Y43600D02*
X52550D01*
Y43450D01*
X52650Y43500D01*
X52700D01*
X52750Y43450D01*
Y43350D01*
X52700Y43300D01*
X52600D01*
X52550Y43350D01*
X29400Y50000D02*
X29700D01*
Y49850D01*
X29650Y49800D01*
X29550D01*
X29500Y49850D01*
Y50000D01*
Y49900D02*
X29400Y49800D01*
Y49700D02*
Y49600D01*
Y49650D01*
X29700D01*
X29650Y49700D01*
Y49450D02*
X29700Y49400D01*
Y49300D01*
X29650Y49250D01*
X29600D01*
X29550Y49300D01*
Y49350D01*
Y49300D01*
X29500Y49250D01*
X29450D01*
X29400Y49300D01*
Y49400D01*
X29450Y49450D01*
X23400Y42100D02*
X23700D01*
Y41950D01*
X23650Y41900D01*
X23550D01*
X23500Y41950D01*
Y42100D01*
Y42000D02*
X23400Y41900D01*
Y41800D02*
Y41700D01*
Y41750D01*
X23700D01*
X23650Y41800D01*
X23400Y41350D02*
Y41550D01*
X23600Y41350D01*
X23650D01*
X23700Y41400D01*
Y41500D01*
X23650Y41550D01*
X26400Y49900D02*
X26700D01*
Y49750D01*
X26650Y49700D01*
X26550D01*
X26500Y49750D01*
Y49900D01*
Y49800D02*
X26400Y49700D01*
Y49600D02*
Y49500D01*
Y49550D01*
X26700D01*
X26650Y49600D01*
X26400Y49350D02*
Y49250D01*
Y49300D01*
X26700D01*
X26650Y49350D01*
X27300Y50000D02*
X27600D01*
Y49850D01*
X27550Y49800D01*
X27450D01*
X27400Y49850D01*
Y50000D01*
Y49900D02*
X27300Y49800D01*
Y49700D02*
Y49600D01*
Y49650D01*
X27600D01*
X27550Y49700D01*
Y49450D02*
X27600Y49400D01*
Y49300D01*
X27550Y49250D01*
X27350D01*
X27300Y49300D01*
Y49400D01*
X27350Y49450D01*
X27550D01*
X30600Y37500D02*
Y37800D01*
X30750D01*
X30800Y37750D01*
Y37650D01*
X30750Y37600D01*
X30600D01*
X30700D02*
X30800Y37500D01*
X30900Y37550D02*
X30950Y37500D01*
X31050D01*
X31100Y37550D01*
Y37750D01*
X31050Y37800D01*
X30950D01*
X30900Y37750D01*
Y37700D01*
X30950Y37650D01*
X31100D01*
X30600Y38600D02*
Y38900D01*
X30750D01*
X30800Y38850D01*
Y38750D01*
X30750Y38700D01*
X30600D01*
X30700D02*
X30800Y38600D01*
X30900Y38850D02*
X30950Y38900D01*
X31050D01*
X31100Y38850D01*
Y38800D01*
X31050Y38750D01*
X31100Y38700D01*
Y38650D01*
X31050Y38600D01*
X30950D01*
X30900Y38650D01*
Y38700D01*
X30950Y38750D01*
X30900Y38800D01*
Y38850D01*
X30950Y38750D02*
X31050D01*
X27100Y42100D02*
X27400D01*
Y41950D01*
X27350Y41900D01*
X27250D01*
X27200Y41950D01*
Y42100D01*
Y42000D02*
X27100Y41900D01*
X27400Y41800D02*
Y41600D01*
X27350D01*
X27150Y41800D01*
X27100D01*
X46400Y50600D02*
Y50900D01*
X46550D01*
X46600Y50850D01*
Y50750D01*
X46550Y50700D01*
X46400D01*
X46500D02*
X46600Y50600D01*
X46900Y50900D02*
X46800Y50850D01*
X46700Y50750D01*
Y50650D01*
X46750Y50600D01*
X46850D01*
X46900Y50650D01*
Y50700D01*
X46850Y50750D01*
X46700D01*
X48300Y50600D02*
Y50900D01*
X48450D01*
X48500Y50850D01*
Y50750D01*
X48450Y50700D01*
X48300D01*
X48400D02*
X48500Y50600D01*
X48800Y50900D02*
X48600D01*
Y50750D01*
X48700Y50800D01*
X48750D01*
X48800Y50750D01*
Y50650D01*
X48750Y50600D01*
X48650D01*
X48600Y50650D01*
X50100Y50600D02*
Y50900D01*
X50250D01*
X50300Y50850D01*
Y50750D01*
X50250Y50700D01*
X50100D01*
X50200D02*
X50300Y50600D01*
X50550D02*
Y50900D01*
X50400Y50750D01*
X50600D01*
X51800Y50600D02*
Y50900D01*
X51950D01*
X52000Y50850D01*
Y50750D01*
X51950Y50700D01*
X51800D01*
X51900D02*
X52000Y50600D01*
X52100Y50850D02*
X52150Y50900D01*
X52250D01*
X52300Y50850D01*
Y50800D01*
X52250Y50750D01*
X52200D01*
X52250D01*
X52300Y50700D01*
Y50650D01*
X52250Y50600D01*
X52150D01*
X52100Y50650D01*
X59600Y45300D02*
Y45600D01*
X59750D01*
X59800Y45550D01*
Y45450D01*
X59750Y45400D01*
X59600D01*
X59700D02*
X59800Y45300D01*
X60100D02*
X59900D01*
X60100Y45500D01*
Y45550D01*
X60050Y45600D01*
X59950D01*
X59900Y45550D01*
X58500Y58400D02*
Y58700D01*
X58650D01*
X58700Y58650D01*
Y58550D01*
X58650Y58500D01*
X58500D01*
X58600D02*
X58700Y58400D01*
X58800D02*
X58900D01*
X58850D01*
Y58700D01*
X58800Y58650D01*
X74300Y43050D02*
Y42950D01*
X74350Y42900D01*
X74550D01*
X74600Y42950D01*
Y43050D01*
X74550Y43100D01*
X74350D01*
X74300Y43050D01*
X74600Y43400D02*
Y43200D01*
X74400Y43400D01*
X74350D01*
X74300Y43350D01*
Y43250D01*
X74350Y43200D01*
X74300Y39950D02*
Y39850D01*
X74350Y39800D01*
X74550D01*
X74600Y39850D01*
Y39950D01*
X74550Y40000D01*
X74350D01*
X74300Y39950D01*
X74600Y40100D02*
Y40200D01*
Y40150D01*
X74300D01*
X74350Y40100D01*
X67430Y48700D02*
X67330D01*
X67380D01*
Y48450D01*
X67330Y48400D01*
X67280D01*
X67230Y48450D01*
X67530Y48400D02*
Y48700D01*
X67680D01*
X67730Y48650D01*
Y48550D01*
X67680Y48500D01*
X67530D01*
X68030Y48400D02*
X67830D01*
X68030Y48600D01*
Y48650D01*
X67980Y48700D01*
X67880D01*
X67830Y48650D01*
X67330Y58700D02*
X67230D01*
X67280D01*
Y58450D01*
X67230Y58400D01*
X67180D01*
X67130Y58450D01*
X67430Y58400D02*
Y58700D01*
X67580D01*
X67630Y58650D01*
Y58550D01*
X67580Y58500D01*
X67430D01*
X67730Y58400D02*
X67830D01*
X67780D01*
Y58700D01*
X67730Y58650D01*
X42700Y54300D02*
X42400D01*
Y54150D01*
X42450Y54100D01*
X42650D01*
X42700Y54150D01*
Y54300D01*
X42650Y53800D02*
X42700Y53850D01*
Y53950D01*
X42650Y54000D01*
X42600D01*
X42550Y53950D01*
Y53850D01*
X42500Y53800D01*
X42450D01*
X42400Y53850D01*
Y53950D01*
X42450Y54000D01*
X42400Y53550D02*
X42700D01*
X42550Y53700D01*
Y53500D01*
X46800Y54300D02*
X46500D01*
Y54150D01*
X46550Y54100D01*
X46750D01*
X46800Y54150D01*
Y54300D01*
X46750Y53800D02*
X46800Y53850D01*
Y53950D01*
X46750Y54000D01*
X46700D01*
X46650Y53950D01*
Y53850D01*
X46600Y53800D01*
X46550D01*
X46500Y53850D01*
Y53950D01*
X46550Y54000D01*
X46750Y53700D02*
X46800Y53650D01*
Y53550D01*
X46750Y53500D01*
X46700D01*
X46650Y53550D01*
Y53600D01*
Y53550D01*
X46600Y53500D01*
X46550D01*
X46500Y53550D01*
Y53650D01*
X46550Y53700D01*
X50400Y54200D02*
X50100D01*
Y54050D01*
X50150Y54000D01*
X50350D01*
X50400Y54050D01*
Y54200D01*
X50350Y53700D02*
X50400Y53750D01*
Y53850D01*
X50350Y53900D01*
X50300D01*
X50250Y53850D01*
Y53750D01*
X50200Y53700D01*
X50150D01*
X50100Y53750D01*
Y53850D01*
X50150Y53900D01*
X50100Y53400D02*
Y53600D01*
X50300Y53400D01*
X50350D01*
X50400Y53450D01*
Y53550D01*
X50350Y53600D01*
X53800Y54200D02*
X53500D01*
Y54050D01*
X53550Y54000D01*
X53750D01*
X53800Y54050D01*
Y54200D01*
X53750Y53700D02*
X53800Y53750D01*
Y53850D01*
X53750Y53900D01*
X53700D01*
X53650Y53850D01*
Y53750D01*
X53600Y53700D01*
X53550D01*
X53500Y53750D01*
Y53850D01*
X53550Y53900D01*
X53500Y53600D02*
Y53500D01*
Y53550D01*
X53800D01*
X53750Y53600D01*
X71100Y47850D02*
X71050Y47900D01*
X70950D01*
X70900Y47850D01*
Y47650D01*
X70950Y47600D01*
X71050D01*
X71100Y47650D01*
X71200Y47600D02*
X71300D01*
X71250D01*
Y47900D01*
X71200Y47850D01*
X71450D02*
X71500Y47900D01*
X71600D01*
X71650Y47850D01*
Y47650D01*
X71600Y47600D01*
X71500D01*
X71450Y47650D01*
Y47850D01*
X71750D02*
X71800Y47900D01*
X71900D01*
X71950Y47850D01*
Y47800D01*
X71900Y47750D01*
X71950Y47700D01*
Y47650D01*
X71900Y47600D01*
X71800D01*
X71750Y47650D01*
Y47700D01*
X71800Y47750D01*
X71750Y47800D01*
Y47850D01*
X71800Y47750D02*
X71900D01*
X73200Y38150D02*
X73150Y38200D01*
X73050D01*
X73000Y38150D01*
Y37950D01*
X73050Y37900D01*
X73150D01*
X73200Y37950D01*
X73300Y37900D02*
X73400D01*
X73350D01*
Y38200D01*
X73300Y38150D01*
X73550D02*
X73600Y38200D01*
X73700D01*
X73750Y38150D01*
Y37950D01*
X73700Y37900D01*
X73600D01*
X73550Y37950D01*
Y38150D01*
X73850Y38200D02*
X74050D01*
Y38150D01*
X73850Y37950D01*
Y37900D01*
X70300Y45950D02*
X70250Y46000D01*
X70150D01*
X70100Y45950D01*
Y45750D01*
X70150Y45700D01*
X70250D01*
X70300Y45750D01*
X70400Y45700D02*
X70500D01*
X70450D01*
Y46000D01*
X70400Y45950D01*
X70650D02*
X70700Y46000D01*
X70800D01*
X70850Y45950D01*
Y45750D01*
X70800Y45700D01*
X70700D01*
X70650Y45750D01*
Y45950D01*
X71150Y46000D02*
X71050Y45950D01*
X70950Y45850D01*
Y45750D01*
X71000Y45700D01*
X71100D01*
X71150Y45750D01*
Y45800D01*
X71100Y45850D01*
X70950D01*
X47900Y48550D02*
X47850Y48600D01*
X47750D01*
X47700Y48550D01*
Y48350D01*
X47750Y48300D01*
X47850D01*
X47900Y48350D01*
X48000Y48300D02*
X48100D01*
X48050D01*
Y48600D01*
X48000Y48550D01*
X48250D02*
X48300Y48600D01*
X48400D01*
X48450Y48550D01*
Y48350D01*
X48400Y48300D01*
X48300D01*
X48250Y48350D01*
Y48550D01*
X48550D02*
X48600Y48600D01*
X48700D01*
X48750Y48550D01*
Y48500D01*
X48700Y48450D01*
X48650D01*
X48700D01*
X48750Y48400D01*
Y48350D01*
X48700Y48300D01*
X48600D01*
X48550Y48350D01*
X65840Y36940D02*
X65790Y36990D01*
X65690D01*
X65640Y36940D01*
Y36740D01*
X65690Y36690D01*
X65790D01*
X65840Y36740D01*
X65940Y36690D02*
X66040D01*
X65990D01*
Y36990D01*
X65940Y36940D01*
X66190D02*
X66240Y36990D01*
X66340D01*
X66390Y36940D01*
Y36740D01*
X66340Y36690D01*
X66240D01*
X66190Y36740D01*
Y36940D01*
X66690Y36690D02*
X66490D01*
X66690Y36890D01*
Y36940D01*
X66640Y36990D01*
X66540D01*
X66490Y36940D01*
X41000Y33450D02*
X41050Y33400D01*
X41150D01*
X41200Y33450D01*
Y33650D01*
X41150Y33700D01*
X41050D01*
X41000Y33650D01*
X40900Y33700D02*
X40800D01*
X40850D01*
Y33400D01*
X40900Y33450D01*
X40650D02*
X40600Y33400D01*
X40500D01*
X40450Y33450D01*
Y33650D01*
X40500Y33700D01*
X40600D01*
X40650Y33650D01*
Y33450D01*
X40350Y33700D02*
X40250D01*
X40300D01*
Y33400D01*
X40350Y33450D01*
X65640Y50040D02*
X65590Y50090D01*
X65490D01*
X65440Y50040D01*
Y49840D01*
X65490Y49790D01*
X65590D01*
X65640Y49840D01*
X65740Y49790D02*
X65840D01*
X65790D01*
Y50090D01*
X65740Y50040D01*
X65990D02*
X66040Y50090D01*
X66140D01*
X66190Y50040D01*
Y49840D01*
X66140Y49790D01*
X66040D01*
X65990Y49840D01*
Y50040D01*
X66290D02*
X66340Y50090D01*
X66440D01*
X66490Y50040D01*
Y49840D01*
X66440Y49790D01*
X66340D01*
X66290Y49840D01*
Y50040D01*
X52400Y35050D02*
X52350Y35100D01*
X52250D01*
X52200Y35050D01*
Y34850D01*
X52250Y34800D01*
X52350D01*
X52400Y34850D01*
X52500D02*
X52550Y34800D01*
X52650D01*
X52700Y34850D01*
Y35050D01*
X52650Y35100D01*
X52550D01*
X52500Y35050D01*
Y35000D01*
X52550Y34950D01*
X52700D01*
X52800Y34850D02*
X52850Y34800D01*
X52950D01*
X53000Y34850D01*
Y35050D01*
X52950Y35100D01*
X52850D01*
X52800Y35050D01*
Y35000D01*
X52850Y34950D01*
X53000D01*
X50600Y48550D02*
X50550Y48600D01*
X50450D01*
X50400Y48550D01*
Y48350D01*
X50450Y48300D01*
X50550D01*
X50600Y48350D01*
X50700D02*
X50750Y48300D01*
X50850D01*
X50900Y48350D01*
Y48550D01*
X50850Y48600D01*
X50750D01*
X50700Y48550D01*
Y48500D01*
X50750Y48450D01*
X50900D01*
X51000Y48550D02*
X51050Y48600D01*
X51150D01*
X51200Y48550D01*
Y48500D01*
X51150Y48450D01*
X51200Y48400D01*
Y48350D01*
X51150Y48300D01*
X51050D01*
X51000Y48350D01*
Y48400D01*
X51050Y48450D01*
X51000Y48500D01*
Y48550D01*
X51050Y48450D02*
X51150D01*
X48800Y35050D02*
X48750Y35100D01*
X48650D01*
X48600Y35050D01*
Y34850D01*
X48650Y34800D01*
X48750D01*
X48800Y34850D01*
X48900D02*
X48950Y34800D01*
X49050D01*
X49100Y34850D01*
Y35050D01*
X49050Y35100D01*
X48950D01*
X48900Y35050D01*
Y35000D01*
X48950Y34950D01*
X49100D01*
X49400Y35100D02*
X49300Y35050D01*
X49200Y34950D01*
Y34850D01*
X49250Y34800D01*
X49350D01*
X49400Y34850D01*
Y34900D01*
X49350Y34950D01*
X49200D01*
X48700Y37550D02*
X48650Y37600D01*
X48550D01*
X48500Y37550D01*
Y37350D01*
X48550Y37300D01*
X48650D01*
X48700Y37350D01*
X48800D02*
X48850Y37300D01*
X48950D01*
X49000Y37350D01*
Y37550D01*
X48950Y37600D01*
X48850D01*
X48800Y37550D01*
Y37500D01*
X48850Y37450D01*
X49000D01*
X49300Y37300D02*
X49100D01*
X49300Y37500D01*
Y37550D01*
X49250Y37600D01*
X49150D01*
X49100Y37550D01*
X33600Y34150D02*
X33550Y34200D01*
X33450D01*
X33400Y34150D01*
Y33950D01*
X33450Y33900D01*
X33550D01*
X33600Y33950D01*
X33700Y34150D02*
X33750Y34200D01*
X33850D01*
X33900Y34150D01*
Y34100D01*
X33850Y34050D01*
X33900Y34000D01*
Y33950D01*
X33850Y33900D01*
X33750D01*
X33700Y33950D01*
Y34000D01*
X33750Y34050D01*
X33700Y34100D01*
Y34150D01*
X33750Y34050D02*
X33850D01*
X34000Y34150D02*
X34050Y34200D01*
X34150D01*
X34200Y34150D01*
Y34100D01*
X34150Y34050D01*
X34200Y34000D01*
Y33950D01*
X34150Y33900D01*
X34050D01*
X34000Y33950D01*
Y34000D01*
X34050Y34050D01*
X34000Y34100D01*
Y34150D01*
X34050Y34050D02*
X34150D01*
X33600Y32550D02*
X33550Y32600D01*
X33450D01*
X33400Y32550D01*
Y32350D01*
X33450Y32300D01*
X33550D01*
X33600Y32350D01*
X33700Y32550D02*
X33750Y32600D01*
X33850D01*
X33900Y32550D01*
Y32500D01*
X33850Y32450D01*
X33900Y32400D01*
Y32350D01*
X33850Y32300D01*
X33750D01*
X33700Y32350D01*
Y32400D01*
X33750Y32450D01*
X33700Y32500D01*
Y32550D01*
X33750Y32450D02*
X33850D01*
X34000Y32600D02*
X34200D01*
Y32550D01*
X34000Y32350D01*
Y32300D01*
X61100Y45550D02*
X61050Y45600D01*
X60950D01*
X60900Y45550D01*
Y45350D01*
X60950Y45300D01*
X61050D01*
X61100Y45350D01*
X61200Y45550D02*
X61250Y45600D01*
X61350D01*
X61400Y45550D01*
Y45500D01*
X61350Y45450D01*
X61300D01*
X61350D01*
X61400Y45400D01*
Y45350D01*
X61350Y45300D01*
X61250D01*
X61200Y45350D01*
X61500Y45550D02*
X61550Y45600D01*
X61650D01*
X61700Y45550D01*
Y45350D01*
X61650Y45300D01*
X61550D01*
X61500Y45350D01*
Y45550D01*
X62400D02*
X62350Y45600D01*
X62250D01*
X62200Y45550D01*
Y45350D01*
X62250Y45300D01*
X62350D01*
X62400Y45350D01*
X62700Y45300D02*
X62500D01*
X62700Y45500D01*
Y45550D01*
X62650Y45600D01*
X62550D01*
X62500Y45550D01*
X62800Y45350D02*
X62850Y45300D01*
X62950D01*
X63000Y45350D01*
Y45550D01*
X62950Y45600D01*
X62850D01*
X62800Y45550D01*
Y45500D01*
X62850Y45450D01*
X63000D01*
X60900Y58650D02*
X60850Y58700D01*
X60750D01*
X60700Y58650D01*
Y58450D01*
X60750Y58400D01*
X60850D01*
X60900Y58450D01*
X61200Y58400D02*
X61000D01*
X61200Y58600D01*
Y58650D01*
X61150Y58700D01*
X61050D01*
X61000Y58650D01*
X59800D02*
X59750Y58700D01*
X59650D01*
X59600Y58650D01*
Y58450D01*
X59650Y58400D01*
X59750D01*
X59800Y58450D01*
X59900Y58400D02*
X60000D01*
X59950D01*
Y58700D01*
X59900Y58650D01*
X22600Y54550D02*
X22550Y54600D01*
X22450D01*
X22400Y54550D01*
Y54350D01*
X22450Y54300D01*
X22550D01*
X22600Y54350D01*
X22700Y54550D02*
X22750Y54600D01*
X22850D01*
X22900Y54550D01*
Y54500D01*
X22850Y54450D01*
X22900Y54400D01*
Y54350D01*
X22850Y54300D01*
X22750D01*
X22700Y54350D01*
Y54400D01*
X22750Y54450D01*
X22700Y54500D01*
Y54550D01*
X22750Y54450D02*
X22850D01*
X23200Y54300D02*
X23000D01*
X23200Y54500D01*
Y54550D01*
X23150Y54600D01*
X23050D01*
X23000Y54550D01*
X22600Y56050D02*
X22550Y56100D01*
X22450D01*
X22400Y56050D01*
Y55850D01*
X22450Y55800D01*
X22550D01*
X22600Y55850D01*
X22700Y56050D02*
X22750Y56100D01*
X22850D01*
X22900Y56050D01*
Y56000D01*
X22850Y55950D01*
X22900Y55900D01*
Y55850D01*
X22850Y55800D01*
X22750D01*
X22700Y55850D01*
Y55900D01*
X22750Y55950D01*
X22700Y56000D01*
Y56050D01*
X22750Y55950D02*
X22850D01*
X23000Y55800D02*
X23100D01*
X23050D01*
Y56100D01*
X23000Y56050D01*
X21987Y33895D02*
X21887D01*
X21937D01*
Y34195D01*
X21987D01*
X21887D01*
X21588Y33895D02*
X21688D01*
X21737Y33945D01*
Y34145D01*
X21688Y34195D01*
X21588D01*
X21538Y34145D01*
Y33945D01*
X21588Y33895D01*
X21945Y50985D02*
Y50885D01*
Y50935D01*
X22195D01*
X22245Y50885D01*
Y50835D01*
X22195Y50785D01*
X22245Y51085D02*
X21945D01*
Y51235D01*
X21995Y51285D01*
X22095D01*
X22145Y51235D01*
Y51085D01*
X22195Y51385D02*
X22245Y51435D01*
Y51535D01*
X22195Y51585D01*
X21995D01*
X21945Y51535D01*
Y51435D01*
X21995Y51385D01*
X22045D01*
X22095Y51435D01*
Y51585D01*
X32115Y47285D02*
Y47385D01*
X32065Y47435D01*
X31865D01*
X31815Y47385D01*
Y47285D01*
X31865Y47235D01*
X32065D01*
X32115Y47285D01*
X32065Y47135D02*
X32115Y47085D01*
Y46985D01*
X32065Y46935D01*
X32015D01*
X31965Y46985D01*
Y47035D01*
Y46985D01*
X31915Y46935D01*
X31865D01*
X31815Y46985D01*
Y47085D01*
X31865Y47135D01*
X28400Y50000D02*
X28700D01*
Y49850D01*
X28650Y49800D01*
X28550D01*
X28500Y49850D01*
Y50000D01*
Y49900D02*
X28400Y49800D01*
Y49700D02*
Y49600D01*
Y49650D01*
X28700D01*
X28650Y49700D01*
X28400Y49300D02*
X28700D01*
X28550Y49450D01*
Y49250D01*
X27600Y43200D02*
Y43450D01*
X27550Y43500D01*
X27450D01*
X27400Y43450D01*
Y43200D01*
X27100Y43500D02*
X27300D01*
X27100Y43300D01*
Y43250D01*
X27150Y43200D01*
X27250D01*
X27300Y43250D01*
X26800Y43500D02*
X27000D01*
X26800Y43300D01*
Y43250D01*
X26850Y43200D01*
X26950D01*
X27000Y43250D01*
X32400Y56000D02*
X32150D01*
X32100Y55950D01*
Y55850D01*
X32150Y55800D01*
X32400D01*
X32100Y55500D02*
Y55700D01*
X32300Y55500D01*
X32350D01*
X32400Y55550D01*
Y55650D01*
X32350Y55700D01*
Y55400D02*
X32400Y55350D01*
Y55250D01*
X32350Y55200D01*
X32300D01*
X32250Y55250D01*
Y55300D01*
Y55250D01*
X32200Y55200D01*
X32150D01*
X32100Y55250D01*
Y55350D01*
X32150Y55400D01*
X24955Y31145D02*
X25205D01*
X25255Y31195D01*
Y31295D01*
X25205Y31345D01*
X24955D01*
X25255Y31645D02*
Y31445D01*
X25055Y31645D01*
X25005D01*
X24955Y31595D01*
Y31495D01*
X25005Y31445D01*
X24955Y31945D02*
Y31745D01*
X25105D01*
X25055Y31845D01*
Y31895D01*
X25105Y31945D01*
X25205D01*
X25255Y31895D01*
Y31795D01*
X25205Y31745D01*
X33035Y54615D02*
X33085Y54565D01*
X33185D01*
X33235Y54615D01*
Y54815D01*
X33185Y54865D01*
X33085D01*
X33035Y54815D01*
X32735Y54565D02*
X32835Y54615D01*
X32935Y54715D01*
Y54815D01*
X32885Y54865D01*
X32785D01*
X32735Y54815D01*
Y54765D01*
X32785Y54715D01*
X32935D01*
X31000Y50800D02*
X30700D01*
Y50950D01*
X30750Y51000D01*
X30850D01*
X30900Y50950D01*
Y50800D01*
Y50900D02*
X31000Y51000D01*
Y51300D02*
Y51100D01*
X30800Y51300D01*
X30750D01*
X30700Y51250D01*
Y51150D01*
X30750Y51100D01*
X30700Y51400D02*
Y51600D01*
X30750D01*
X30950Y51400D01*
X31000D01*
X39600Y51100D02*
X39350D01*
X39300Y51050D01*
Y50950D01*
X39350Y50900D01*
X39600D01*
X39550Y50800D02*
X39600Y50750D01*
Y50650D01*
X39550Y50600D01*
X39500D01*
X39450Y50650D01*
Y50700D01*
Y50650D01*
X39400Y50600D01*
X39350D01*
X39300Y50650D01*
Y50750D01*
X39350Y50800D01*
X40150Y56350D02*
Y56150D01*
X40250Y56050D01*
X40350Y56150D01*
Y56350D01*
X40600Y56050D02*
X40500D01*
X40450Y56100D01*
Y56200D01*
X40500Y56250D01*
X40600D01*
X40650Y56200D01*
Y56150D01*
X40450D01*
X40750Y56250D02*
Y56050D01*
Y56150D01*
X40800Y56200D01*
X40850Y56250D01*
X40900D01*
X41050Y56050D02*
X41200D01*
X41250Y56100D01*
X41200Y56150D01*
X41100D01*
X41050Y56200D01*
X41100Y56250D01*
X41250D01*
X41350Y56050D02*
X41450D01*
X41400D01*
Y56250D01*
X41350D01*
X41650Y56050D02*
X41749D01*
X41799Y56100D01*
Y56200D01*
X41749Y56250D01*
X41650D01*
X41600Y56200D01*
Y56100D01*
X41650Y56050D01*
X41899D02*
Y56250D01*
X42049D01*
X42099Y56200D01*
Y56050D01*
X42499Y56300D02*
X42549Y56350D01*
X42649D01*
X42699Y56300D01*
Y56250D01*
X42649Y56200D01*
X42599D01*
X42649D01*
X42699Y56150D01*
Y56100D01*
X42649Y56050D01*
X42549D01*
X42499Y56100D01*
X42799Y56050D02*
Y56100D01*
X42849D01*
Y56050D01*
X42799D01*
X43049Y56300D02*
X43099Y56350D01*
X43199D01*
X43249Y56300D01*
Y56100D01*
X43199Y56050D01*
X43099D01*
X43049Y56100D01*
Y56300D01*
X22022Y36200D02*
X21723D01*
X21822Y36300D01*
X21723Y36400D01*
X22022D01*
X21723Y36650D02*
Y36550D01*
X21772Y36500D01*
X21972D01*
X22022Y36550D01*
Y36650D01*
X21972Y36700D01*
X21772D01*
X21723Y36650D01*
Y36800D02*
X22022D01*
Y37000D01*
X21723Y37300D02*
Y37100D01*
X22022D01*
Y37300D01*
X21872Y37100D02*
Y37200D01*
X21723Y37400D02*
X22022Y37600D01*
X21723D02*
X22022Y37400D01*
X21772Y37999D02*
X21723Y38049D01*
Y38149D01*
X21772Y38199D01*
X21822D01*
X21872Y38149D01*
X21922Y38199D01*
X21972D01*
X22022Y38149D01*
Y38049D01*
X21972Y37999D01*
X21922D01*
X21872Y38049D01*
X21822Y37999D01*
X21772D01*
X21872Y38049D02*
Y38149D01*
X21723Y38299D02*
Y38499D01*
X21772D01*
X21972Y38299D01*
X22022D01*
X21723Y38599D02*
Y38799D01*
X21772D01*
X21972Y38599D01*
X22022D01*
X21772Y38899D02*
X21723Y38949D01*
Y39049D01*
X21772Y39099D01*
X21972D01*
X22022Y39049D01*
Y38949D01*
X21972Y38899D01*
X21772D01*
Y39199D02*
X21723Y39249D01*
Y39349D01*
X21772Y39399D01*
X21822D01*
X21872Y39349D01*
Y39299D01*
Y39349D01*
X21922Y39399D01*
X21972D01*
X22022Y39349D01*
Y39249D01*
X21972Y39199D01*
X21872Y39499D02*
Y39699D01*
X21772Y39799D02*
X21723Y39849D01*
Y39949D01*
X21772Y39999D01*
X21972D01*
X22022Y39949D01*
Y39849D01*
X21972Y39799D01*
X21772D01*
Y40099D02*
X21723Y40149D01*
Y40249D01*
X21772Y40299D01*
X21972D01*
X22022Y40249D01*
Y40149D01*
X21972Y40099D01*
X21772D01*
Y40399D02*
X21723Y40449D01*
Y40549D01*
X21772Y40599D01*
X21972D01*
X22022Y40549D01*
Y40449D01*
X21972Y40399D01*
X21772D01*
X22022Y40699D02*
Y40799D01*
Y40749D01*
X21723D01*
X21772Y40699D01*
D50*
X53183Y56550D02*
X52850D01*
X53183Y56883D01*
Y56967D01*
X53100Y57050D01*
X52933D01*
X52850Y56967D01*
X53350D02*
X53433Y57050D01*
X53600D01*
X53683Y56967D01*
Y56633D01*
X53600Y56550D01*
X53433D01*
X53350Y56633D01*
Y56967D01*
X53850D02*
X53933Y57050D01*
X54100D01*
X54183Y56967D01*
Y56633D01*
X54100Y56550D01*
X53933D01*
X53850Y56633D01*
Y56967D01*
X54683Y57050D02*
X54516Y56967D01*
X54350Y56800D01*
Y56633D01*
X54433Y56550D01*
X54599D01*
X54683Y56633D01*
Y56717D01*
X54599Y56800D01*
X54350D01*
D51*
X55075Y56175D02*
Y57125D01*
X55225D01*
Y56175D01*
X55075D01*
X55117Y56217D02*
Y57083D01*
X55183D01*
Y56217D01*
X55117D01*
X55145Y56258D02*
X55155Y57042D01*
X55375Y56675D02*
Y57125D01*
X55525D01*
Y56675D01*
X55375D01*
X55417Y56717D02*
Y57083D01*
X55483D01*
Y56717D01*
X55417D01*
X55445Y56758D02*
X55455Y57042D01*
X55675Y56175D02*
Y57125D01*
X55825D01*
Y56175D01*
X55675D01*
X55717Y56217D02*
Y57083D01*
X55783D01*
Y56217D01*
X55717D01*
X55745Y56258D02*
X55755Y57042D01*
X56275Y56975D02*
Y57125D01*
X56725D01*
Y56975D01*
X56275D01*
X56317Y57017D02*
Y57083D01*
X56683D01*
Y57017D01*
X56317D01*
X56358Y57045D02*
X56642Y57055D01*
X55975Y56175D02*
Y56825D01*
X56125D01*
Y56175D01*
X55975D01*
X56017Y56217D02*
Y56783D01*
X56083D01*
Y56217D01*
X56017D01*
X56045Y56258D02*
X56055Y56742D01*
X55975Y56975D02*
Y57125D01*
X56125D01*
Y56975D01*
X55975D01*
X56017Y57017D02*
Y57083D01*
X56083D01*
Y57017D01*
X56017D01*
X56045Y57045D02*
X56055Y57055D01*
X56275Y56175D02*
Y56825D01*
X56425D01*
Y56175D01*
X56275D01*
X56317Y56217D02*
Y56783D01*
X56383D01*
Y56217D01*
X56317D01*
X56345Y56258D02*
X56355Y56742D01*
M02*
