%FSLAX24Y24*%
%MOIN*%
G70*
G01*
G75*
G04 Layer_Color=32896*
%ADD10R,0.0394X0.1083*%
%ADD11C,0.0177*%
%ADD12C,0.0197*%
%ADD13C,0.0400*%
%ADD14R,0.0866X0.0787*%
%ADD15R,0.0787X0.0866*%
%ADD16R,0.0945X0.1024*%
%ADD17R,0.0709X0.0630*%
%ADD18R,0.0433X0.0394*%
%ADD19R,0.0394X0.0433*%
%ADD20R,0.0512X0.0630*%
%ADD21R,0.0669X0.0177*%
%ADD22R,0.0669X0.0177*%
%ADD23R,0.0197X0.0591*%
%ADD24R,0.0630X0.0512*%
%ADD25R,0.0748X0.0197*%
%ADD26R,0.0197X0.0748*%
%ADD27R,0.0551X0.0787*%
%ADD28R,0.0807X0.0236*%
%ADD29O,0.0110X0.0394*%
%ADD30O,0.0394X0.0110*%
%ADD31R,0.0827X0.0354*%
%ADD32R,0.0827X0.0354*%
%ADD33R,0.1732X0.1441*%
%ADD34R,0.1024X0.0945*%
%ADD35R,0.0600X0.0300*%
%ADD36R,0.1400X0.1000*%
%ADD37R,0.0630X0.0709*%
%ADD38C,0.0100*%
%ADD39C,0.0060*%
%ADD40C,0.0070*%
%ADD41C,0.0090*%
%ADD42C,0.0160*%
%ADD43C,0.0120*%
%ADD44C,0.0300*%
%ADD45C,0.0250*%
%ADD46C,0.0200*%
%ADD47C,0.0433*%
%ADD48R,0.0591X0.0591*%
%ADD49C,0.0591*%
%ADD50C,0.0800*%
%ADD51C,0.1732*%
%ADD52C,0.1732*%
%ADD53C,0.0600*%
%ADD54C,0.0200*%
%ADD55C,0.0212*%
%ADD56C,0.0240*%
%ADD57C,0.0350*%
%ADD58C,0.0080*%
%ADD59R,0.0276X0.0354*%
%ADD60R,0.0354X0.0276*%
%ADD61C,0.0140*%
%ADD62C,0.0098*%
%ADD63C,0.0079*%
%ADD64R,0.1575X0.0098*%
%ADD65C,0.0050*%
D40*
X26893Y30419D02*
X26843Y30369D01*
X26743D01*
X26693Y30419D01*
Y30619D01*
X26743Y30669D01*
X26843D01*
X26893Y30619D01*
X27193Y30669D02*
X26993D01*
X27193Y30469D01*
Y30419D01*
X27143Y30369D01*
X27043D01*
X26993Y30419D01*
X27293D02*
X27343Y30369D01*
X27443D01*
X27493Y30419D01*
Y30469D01*
X27443Y30519D01*
X27493Y30569D01*
Y30619D01*
X27443Y30669D01*
X27343D01*
X27293Y30619D01*
Y30569D01*
X27343Y30519D01*
X27293Y30469D01*
Y30419D01*
X27343Y30519D02*
X27443D01*
X70624Y46913D02*
X70674Y46863D01*
Y46763D01*
X70624Y46713D01*
X70424D01*
X70374Y46763D01*
Y46863D01*
X70424Y46913D01*
X70374Y47013D02*
Y47112D01*
Y47062D01*
X70674D01*
X70624Y47013D01*
Y47262D02*
X70674Y47312D01*
Y47412D01*
X70624Y47462D01*
X70424D01*
X70374Y47412D01*
Y47312D01*
X70424Y47262D01*
X70624D01*
X70374Y47562D02*
X70424D01*
Y47612D01*
X70374D01*
Y47562D01*
X70674Y47812D02*
X70374D01*
Y47962D01*
X70424Y48012D01*
X70624D01*
X70674Y47962D01*
Y47812D01*
X35661Y37414D02*
X35710Y37464D01*
X35810D01*
X35860Y37414D01*
Y37214D01*
X35810Y37164D01*
X35710D01*
X35661Y37214D01*
X35361Y37464D02*
X35561D01*
Y37314D01*
X35461Y37364D01*
X35411D01*
X35361Y37314D01*
Y37214D01*
X35411Y37164D01*
X35511D01*
X35561Y37214D01*
X35261Y37414D02*
X35211Y37464D01*
X35111D01*
X35061Y37414D01*
Y37364D01*
X35111Y37314D01*
X35161D01*
X35111D01*
X35061Y37264D01*
Y37214D01*
X35111Y37164D01*
X35211D01*
X35261Y37214D01*
X37444Y34002D02*
X37394Y33952D01*
X37294D01*
X37244Y34002D01*
Y34202D01*
X37294Y34252D01*
X37394D01*
X37444Y34202D01*
X37744Y33952D02*
X37544D01*
Y34102D01*
X37644Y34052D01*
X37694D01*
X37744Y34102D01*
Y34202D01*
X37694Y34252D01*
X37594D01*
X37544Y34202D01*
X38044Y34252D02*
X37844D01*
X38044Y34052D01*
Y34002D01*
X37994Y33952D01*
X37894D01*
X37844Y34002D01*
X40014Y36460D02*
X40064Y36410D01*
Y36310D01*
X40014Y36260D01*
X39814D01*
X39764Y36310D01*
Y36410D01*
X39814Y36460D01*
X40064Y36760D02*
Y36560D01*
X39914D01*
X39964Y36660D01*
Y36710D01*
X39914Y36760D01*
X39814D01*
X39764Y36710D01*
Y36610D01*
X39814Y36560D01*
X39764Y36860D02*
Y36960D01*
Y36910D01*
X40064D01*
X40014Y36860D01*
X39699Y37936D02*
X39749Y37886D01*
Y37786D01*
X39699Y37736D01*
X39499D01*
X39449Y37786D01*
Y37886D01*
X39499Y37936D01*
X39749Y38236D02*
Y38036D01*
X39599D01*
X39649Y38136D01*
Y38186D01*
X39599Y38236D01*
X39499D01*
X39449Y38186D01*
Y38086D01*
X39499Y38036D01*
X39699Y38336D02*
X39749Y38386D01*
Y38486D01*
X39699Y38536D01*
X39499D01*
X39449Y38486D01*
Y38386D01*
X39499Y38336D01*
X39699D01*
X34465Y38360D02*
X34515Y38410D01*
X34615D01*
X34665Y38360D01*
Y38160D01*
X34615Y38110D01*
X34515D01*
X34465Y38160D01*
X34216Y38110D02*
Y38410D01*
X34365Y38260D01*
X34166D01*
X34066Y38360D02*
X34016Y38410D01*
X33916D01*
X33866Y38360D01*
Y38310D01*
X33916Y38260D01*
X33866Y38210D01*
Y38160D01*
X33916Y38110D01*
X34016D01*
X34066Y38160D01*
Y38210D01*
X34016Y38260D01*
X34066Y38310D01*
Y38360D01*
X34016Y38260D02*
X33916D01*
X32978Y37123D02*
X32928Y37173D01*
Y37273D01*
X32978Y37323D01*
X33178D01*
X33228Y37273D01*
Y37173D01*
X33178Y37123D01*
X33228Y36873D02*
X32928D01*
X33078Y37023D01*
Y36823D01*
X32928Y36723D02*
Y36523D01*
X32978D01*
X33178Y36723D01*
X33228D01*
X35857Y34224D02*
X35807Y34174D01*
X35707D01*
X35657Y34224D01*
Y34424D01*
X35707Y34474D01*
X35807D01*
X35857Y34424D01*
X36107Y34474D02*
Y34174D01*
X35957Y34324D01*
X36157D01*
X36457Y34174D02*
X36357Y34224D01*
X36257Y34324D01*
Y34424D01*
X36307Y34474D01*
X36407D01*
X36457Y34424D01*
Y34374D01*
X36407Y34324D01*
X36257D01*
X38439Y35259D02*
X38489Y35209D01*
Y35109D01*
X38439Y35059D01*
X38239D01*
X38189Y35109D01*
Y35209D01*
X38239Y35259D01*
X38189Y35509D02*
X38489D01*
X38339Y35359D01*
Y35559D01*
X38489Y35859D02*
Y35659D01*
X38339D01*
X38389Y35759D01*
Y35809D01*
X38339Y35859D01*
X38239D01*
X38189Y35809D01*
Y35709D01*
X38239Y35659D01*
X37123Y39502D02*
X37173Y39552D01*
X37273D01*
X37323Y39502D01*
Y39302D01*
X37273Y39252D01*
X37173D01*
X37123Y39302D01*
X36873Y39252D02*
Y39552D01*
X37023Y39402D01*
X36823D01*
X36573Y39252D02*
Y39552D01*
X36723Y39402D01*
X36523D01*
X35528Y39935D02*
X35578Y39985D01*
X35678D01*
X35728Y39935D01*
Y39735D01*
X35678Y39685D01*
X35578D01*
X35528Y39735D01*
X35278Y39685D02*
Y39985D01*
X35428Y39835D01*
X35229D01*
X35129Y39935D02*
X35079Y39985D01*
X34979D01*
X34929Y39935D01*
Y39885D01*
X34979Y39835D01*
X35029D01*
X34979D01*
X34929Y39785D01*
Y39735D01*
X34979Y39685D01*
X35079D01*
X35129Y39735D01*
X34974Y36165D02*
X35024Y36115D01*
Y36015D01*
X34974Y35965D01*
X34774D01*
X34724Y36015D01*
Y36115D01*
X34774Y36165D01*
X34724Y36414D02*
X35024D01*
X34874Y36264D01*
Y36464D01*
X34724Y36764D02*
Y36564D01*
X34924Y36764D01*
X34974D01*
X35024Y36714D01*
Y36614D01*
X34974Y36564D01*
X36037Y38192D02*
X36087Y38142D01*
Y38042D01*
X36037Y37992D01*
X35837D01*
X35787Y38042D01*
Y38142D01*
X35837Y38192D01*
X36037Y38292D02*
X36087Y38342D01*
Y38442D01*
X36037Y38492D01*
X35987D01*
X35937Y38442D01*
Y38392D01*
Y38442D01*
X35887Y38492D01*
X35837D01*
X35787Y38442D01*
Y38342D01*
X35837Y38292D01*
X36087Y38792D02*
X36037Y38692D01*
X35937Y38592D01*
X35837D01*
X35787Y38642D01*
Y38742D01*
X35837Y38792D01*
X35887D01*
X35937Y38742D01*
Y38592D01*
X36906Y37120D02*
X36956Y37170D01*
X37056D01*
X37106Y37120D01*
Y36920D01*
X37056Y36870D01*
X36956D01*
X36906Y36920D01*
X36806Y37120D02*
X36756Y37170D01*
X36656D01*
X36606Y37120D01*
Y37070D01*
X36656Y37020D01*
X36706D01*
X36656D01*
X36606Y36970D01*
Y36920D01*
X36656Y36870D01*
X36756D01*
X36806Y36920D01*
X36307Y37170D02*
X36506D01*
Y37020D01*
X36407Y37070D01*
X36357D01*
X36307Y37020D01*
Y36920D01*
X36357Y36870D01*
X36457D01*
X36506Y36920D01*
X38024Y37088D02*
X38074Y37038D01*
Y36938D01*
X38024Y36888D01*
X37824D01*
X37774Y36938D01*
Y37038D01*
X37824Y37088D01*
X38024Y37188D02*
X38074Y37238D01*
Y37338D01*
X38024Y37388D01*
X37974D01*
X37924Y37338D01*
Y37288D01*
Y37338D01*
X37874Y37388D01*
X37824D01*
X37774Y37338D01*
Y37238D01*
X37824Y37188D01*
X37774Y37638D02*
X38074D01*
X37924Y37488D01*
Y37688D01*
X36046Y35577D02*
X35996Y35527D01*
X35896D01*
X35846Y35577D01*
Y35777D01*
X35896Y35827D01*
X35996D01*
X36046Y35777D01*
X36146Y35577D02*
X36196Y35527D01*
X36296D01*
X36346Y35577D01*
Y35627D01*
X36296Y35677D01*
X36246D01*
X36296D01*
X36346Y35727D01*
Y35777D01*
X36296Y35827D01*
X36196D01*
X36146Y35777D01*
X36446Y35577D02*
X36496Y35527D01*
X36596D01*
X36646Y35577D01*
Y35627D01*
X36596Y35677D01*
X36546D01*
X36596D01*
X36646Y35727D01*
Y35777D01*
X36596Y35827D01*
X36496D01*
X36446Y35777D01*
X62164Y31489D02*
X62114Y31539D01*
Y31639D01*
X62164Y31689D01*
X62364D01*
X62414Y31639D01*
Y31539D01*
X62364Y31489D01*
X62414Y31189D02*
Y31389D01*
X62214Y31189D01*
X62164D01*
X62114Y31239D01*
Y31339D01*
X62164Y31389D01*
X62414Y31089D02*
Y30989D01*
Y31039D01*
X62114D01*
X62164Y31089D01*
X80154Y37716D02*
X80204Y37666D01*
Y37566D01*
X80154Y37516D01*
X79954D01*
X79904Y37566D01*
Y37666D01*
X79954Y37716D01*
X80204Y37816D02*
Y38016D01*
X80154D01*
X79954Y37816D01*
X79904D01*
X73664Y37978D02*
X73615Y37928D01*
X73515D01*
X73465Y37978D01*
Y38178D01*
X73515Y38228D01*
X73615D01*
X73664Y38178D01*
X73964Y37928D02*
X73764D01*
Y38078D01*
X73864Y38028D01*
X73914D01*
X73964Y38078D01*
Y38178D01*
X73914Y38228D01*
X73814D01*
X73764Y38178D01*
X74064Y37928D02*
X74264D01*
Y37978D01*
X74064Y38178D01*
Y38228D01*
X79206Y48977D02*
X79256Y49027D01*
X79356D01*
X79406Y48977D01*
Y48777D01*
X79356Y48727D01*
X79256D01*
X79206Y48777D01*
X78906Y49027D02*
X79106D01*
Y48877D01*
X79006Y48927D01*
X78956D01*
X78906Y48877D01*
Y48777D01*
X78956Y48727D01*
X79056D01*
X79106Y48777D01*
X78806Y48977D02*
X78756Y49027D01*
X78656D01*
X78606Y48977D01*
Y48927D01*
X78656Y48877D01*
X78606Y48827D01*
Y48777D01*
X78656Y48727D01*
X78756D01*
X78806Y48777D01*
Y48827D01*
X78756Y48877D01*
X78806Y48927D01*
Y48977D01*
X78756Y48877D02*
X78656D01*
X71420Y52742D02*
X71370Y52692D01*
X71270D01*
X71220Y52742D01*
Y52942D01*
X71270Y52992D01*
X71370D01*
X71420Y52942D01*
X71720Y52692D02*
X71620Y52742D01*
X71520Y52842D01*
Y52942D01*
X71570Y52992D01*
X71670D01*
X71720Y52942D01*
Y52892D01*
X71670Y52842D01*
X71520D01*
X72020Y52992D02*
X71820D01*
X72020Y52792D01*
Y52742D01*
X71970Y52692D01*
X71870D01*
X71820Y52742D01*
X72120Y52992D02*
Y52942D01*
X72170D01*
Y52992D01*
X72120D01*
X72370Y52692D02*
Y52992D01*
X72520D01*
X72570Y52942D01*
Y52742D01*
X72520Y52692D01*
X72370D01*
X59294Y52742D02*
X59244Y52692D01*
X59144D01*
X59094Y52742D01*
Y52942D01*
X59144Y52992D01*
X59244D01*
X59294Y52942D01*
X59594Y52692D02*
X59494Y52742D01*
X59394Y52842D01*
Y52942D01*
X59444Y52992D01*
X59544D01*
X59594Y52942D01*
Y52892D01*
X59544Y52842D01*
X59394D01*
X59894Y52992D02*
X59694D01*
X59894Y52792D01*
Y52742D01*
X59844Y52692D01*
X59744D01*
X59694Y52742D01*
X59994Y52992D02*
Y52942D01*
X60044D01*
Y52992D01*
X59994D01*
X60444Y52742D02*
X60394Y52692D01*
X60294D01*
X60244Y52742D01*
Y52942D01*
X60294Y52992D01*
X60394D01*
X60444Y52942D01*
X47168Y52742D02*
X47118Y52692D01*
X47018D01*
X46968Y52742D01*
Y52942D01*
X47018Y52992D01*
X47118D01*
X47168Y52942D01*
X47468Y52692D02*
X47368Y52742D01*
X47268Y52842D01*
Y52942D01*
X47318Y52992D01*
X47418D01*
X47468Y52942D01*
Y52892D01*
X47418Y52842D01*
X47268D01*
X47768Y52992D02*
X47568D01*
X47768Y52792D01*
Y52742D01*
X47718Y52692D01*
X47618D01*
X47568Y52742D01*
X47868Y52992D02*
Y52942D01*
X47918D01*
Y52992D01*
X47868D01*
X48118Y52692D02*
Y52992D01*
X48268D01*
X48318Y52942D01*
Y52892D01*
X48268Y52842D01*
X48118D01*
X48268D01*
X48318Y52792D01*
Y52742D01*
X48268Y52692D01*
X48118D01*
X68940Y52821D02*
X68890Y52771D01*
X68790D01*
X68740Y52821D01*
Y53021D01*
X68790Y53071D01*
X68890D01*
X68940Y53021D01*
X69240Y52771D02*
X69140Y52821D01*
X69040Y52921D01*
Y53021D01*
X69090Y53071D01*
X69190D01*
X69240Y53021D01*
Y52971D01*
X69190Y52921D01*
X69040D01*
X69340Y53071D02*
X69440D01*
X69390D01*
Y52771D01*
X69340Y52821D01*
X69590Y53071D02*
Y53021D01*
X69640D01*
Y53071D01*
X69590D01*
X69840Y52771D02*
Y53071D01*
X69990D01*
X70040Y53021D01*
Y52821D01*
X69990Y52771D01*
X69840D01*
X56814Y52821D02*
X56764Y52771D01*
X56664D01*
X56614Y52821D01*
Y53021D01*
X56664Y53071D01*
X56764D01*
X56814Y53021D01*
X57114Y52771D02*
X57014Y52821D01*
X56914Y52921D01*
Y53021D01*
X56964Y53071D01*
X57064D01*
X57114Y53021D01*
Y52971D01*
X57064Y52921D01*
X56914D01*
X57214Y53071D02*
X57314D01*
X57264D01*
Y52771D01*
X57214Y52821D01*
X57464Y53071D02*
Y53021D01*
X57514D01*
Y53071D01*
X57464D01*
X57914Y52821D02*
X57864Y52771D01*
X57764D01*
X57714Y52821D01*
Y53021D01*
X57764Y53071D01*
X57864D01*
X57914Y53021D01*
X44688Y52821D02*
X44638Y52771D01*
X44538D01*
X44488Y52821D01*
Y53021D01*
X44538Y53071D01*
X44638D01*
X44688Y53021D01*
X44988Y52771D02*
X44888Y52821D01*
X44788Y52921D01*
Y53021D01*
X44838Y53071D01*
X44938D01*
X44988Y53021D01*
Y52971D01*
X44938Y52921D01*
X44788D01*
X45088Y53071D02*
X45188D01*
X45138D01*
Y52771D01*
X45088Y52821D01*
X45338Y53071D02*
Y53021D01*
X45388D01*
Y53071D01*
X45338D01*
X45588Y52771D02*
Y53071D01*
X45738D01*
X45788Y53021D01*
Y52971D01*
X45738Y52921D01*
X45588D01*
X45738D01*
X45788Y52871D01*
Y52821D01*
X45738Y52771D01*
X45588D01*
X68625Y57191D02*
X68575Y57141D01*
X68475D01*
X68425Y57191D01*
Y57391D01*
X68475Y57441D01*
X68575D01*
X68625Y57391D01*
X68925Y57141D02*
X68825Y57191D01*
X68725Y57291D01*
Y57391D01*
X68775Y57441D01*
X68875D01*
X68925Y57391D01*
Y57341D01*
X68875Y57291D01*
X68725D01*
X69025Y57191D02*
X69075Y57141D01*
X69175D01*
X69225Y57191D01*
Y57391D01*
X69175Y57441D01*
X69075D01*
X69025Y57391D01*
Y57191D01*
X69325Y57441D02*
Y57391D01*
X69375D01*
Y57441D01*
X69325D01*
X69575Y57141D02*
Y57441D01*
X69725D01*
X69775Y57391D01*
Y57191D01*
X69725Y57141D01*
X69575D01*
X56499Y57191D02*
X56449Y57141D01*
X56349D01*
X56299Y57191D01*
Y57391D01*
X56349Y57441D01*
X56449D01*
X56499Y57391D01*
X56799Y57141D02*
X56699Y57191D01*
X56599Y57291D01*
Y57391D01*
X56649Y57441D01*
X56749D01*
X56799Y57391D01*
Y57341D01*
X56749Y57291D01*
X56599D01*
X56899Y57191D02*
X56949Y57141D01*
X57049D01*
X57099Y57191D01*
Y57391D01*
X57049Y57441D01*
X56949D01*
X56899Y57391D01*
Y57191D01*
X57199Y57441D02*
Y57391D01*
X57249D01*
Y57441D01*
X57199D01*
X57649Y57191D02*
X57599Y57141D01*
X57499D01*
X57449Y57191D01*
Y57391D01*
X57499Y57441D01*
X57599D01*
X57649Y57391D01*
X44373Y57191D02*
X44323Y57141D01*
X44223D01*
X44173Y57191D01*
Y57391D01*
X44223Y57441D01*
X44323D01*
X44373Y57391D01*
X44673Y57141D02*
X44573Y57191D01*
X44473Y57291D01*
Y57391D01*
X44523Y57441D01*
X44623D01*
X44673Y57391D01*
Y57341D01*
X44623Y57291D01*
X44473D01*
X44773Y57191D02*
X44823Y57141D01*
X44923D01*
X44973Y57191D01*
Y57391D01*
X44923Y57441D01*
X44823D01*
X44773Y57391D01*
Y57191D01*
X45073Y57441D02*
Y57391D01*
X45123D01*
Y57441D01*
X45073D01*
X45323Y57141D02*
Y57441D01*
X45473D01*
X45523Y57391D01*
Y57341D01*
X45473Y57291D01*
X45323D01*
X45473D01*
X45523Y57241D01*
Y57191D01*
X45473Y57141D01*
X45323D01*
X71342Y57191D02*
X71292Y57141D01*
X71192D01*
X71142Y57191D01*
Y57391D01*
X71192Y57441D01*
X71292D01*
X71342Y57391D01*
X71642Y57141D02*
X71442D01*
Y57291D01*
X71542Y57241D01*
X71592D01*
X71642Y57291D01*
Y57391D01*
X71592Y57441D01*
X71492D01*
X71442Y57391D01*
X71742D02*
X71792Y57441D01*
X71891D01*
X71941Y57391D01*
Y57191D01*
X71891Y57141D01*
X71792D01*
X71742Y57191D01*
Y57241D01*
X71792Y57291D01*
X71941D01*
X72041Y57441D02*
Y57391D01*
X72091D01*
Y57441D01*
X72041D01*
X72291Y57141D02*
Y57441D01*
X72441D01*
X72491Y57391D01*
Y57191D01*
X72441Y57141D01*
X72291D01*
X59216Y57191D02*
X59166Y57141D01*
X59066D01*
X59016Y57191D01*
Y57391D01*
X59066Y57441D01*
X59166D01*
X59216Y57391D01*
X59516Y57141D02*
X59316D01*
Y57291D01*
X59416Y57241D01*
X59466D01*
X59516Y57291D01*
Y57391D01*
X59466Y57441D01*
X59366D01*
X59316Y57391D01*
X59616D02*
X59666Y57441D01*
X59766D01*
X59815Y57391D01*
Y57191D01*
X59766Y57141D01*
X59666D01*
X59616Y57191D01*
Y57241D01*
X59666Y57291D01*
X59815D01*
X59915Y57441D02*
Y57391D01*
X59965D01*
Y57441D01*
X59915D01*
X60365Y57191D02*
X60315Y57141D01*
X60215D01*
X60165Y57191D01*
Y57391D01*
X60215Y57441D01*
X60315D01*
X60365Y57391D01*
X47090Y57191D02*
X47040Y57141D01*
X46940D01*
X46890Y57191D01*
Y57391D01*
X46940Y57441D01*
X47040D01*
X47090Y57391D01*
X47390Y57141D02*
X47190D01*
Y57291D01*
X47290Y57241D01*
X47340D01*
X47390Y57291D01*
Y57391D01*
X47340Y57441D01*
X47240D01*
X47190Y57391D01*
X47490D02*
X47540Y57441D01*
X47640D01*
X47690Y57391D01*
Y57191D01*
X47640Y57141D01*
X47540D01*
X47490Y57191D01*
Y57241D01*
X47540Y57291D01*
X47690D01*
X47789Y57441D02*
Y57391D01*
X47839D01*
Y57441D01*
X47789D01*
X48039Y57141D02*
Y57441D01*
X48189D01*
X48239Y57391D01*
Y57341D01*
X48189Y57291D01*
X48039D01*
X48189D01*
X48239Y57241D01*
Y57191D01*
X48189Y57141D01*
X48039D01*
X69958Y46667D02*
X70008Y46717D01*
X70107D01*
X70157Y46667D01*
Y46467D01*
X70107Y46417D01*
X70008D01*
X69958Y46467D01*
X69858Y46417D02*
X69758D01*
X69808D01*
Y46717D01*
X69858Y46667D01*
X69408Y46417D02*
X69608D01*
X69408Y46617D01*
Y46667D01*
X69458Y46717D01*
X69558D01*
X69608Y46667D01*
X69308Y46417D02*
Y46467D01*
X69258D01*
Y46417D01*
X69308D01*
X69058Y46717D02*
Y46417D01*
X68908D01*
X68858Y46467D01*
Y46667D01*
X68908Y46717D01*
X69058D01*
X57832Y46667D02*
X57882Y46717D01*
X57982D01*
X58032Y46667D01*
Y46467D01*
X57982Y46417D01*
X57882D01*
X57832Y46467D01*
X57732Y46417D02*
X57632D01*
X57682D01*
Y46717D01*
X57732Y46667D01*
X57282Y46417D02*
X57482D01*
X57282Y46617D01*
Y46667D01*
X57332Y46717D01*
X57432D01*
X57482Y46667D01*
X57182Y46417D02*
Y46467D01*
X57132D01*
Y46417D01*
X57182D01*
X56732Y46667D02*
X56782Y46717D01*
X56882D01*
X56932Y46667D01*
Y46467D01*
X56882Y46417D01*
X56782D01*
X56732Y46467D01*
X58478Y46893D02*
X58528Y46843D01*
Y46743D01*
X58478Y46693D01*
X58278D01*
X58228Y46743D01*
Y46843D01*
X58278Y46893D01*
X58228Y46993D02*
Y47093D01*
Y47043D01*
X58528D01*
X58478Y46993D01*
Y47243D02*
X58528Y47293D01*
Y47393D01*
X58478Y47443D01*
X58278D01*
X58228Y47393D01*
Y47293D01*
X58278Y47243D01*
X58478D01*
X58228Y47543D02*
X58278D01*
Y47593D01*
X58228D01*
Y47543D01*
X58478Y47992D02*
X58528Y47943D01*
Y47843D01*
X58478Y47793D01*
X58278D01*
X58228Y47843D01*
Y47943D01*
X58278Y47992D01*
X71155Y48350D02*
X71205Y48300D01*
Y48200D01*
X71155Y48150D01*
X70956D01*
X70906Y48200D01*
Y48300D01*
X70956Y48350D01*
Y48450D02*
X70906Y48499D01*
Y48599D01*
X70956Y48649D01*
X71155D01*
X71205Y48599D01*
Y48499D01*
X71155Y48450D01*
X71105D01*
X71055Y48499D01*
Y48649D01*
X70906Y48749D02*
X70956D01*
Y48799D01*
X70906D01*
Y48749D01*
X71205Y48999D02*
X70906D01*
Y49149D01*
X70956Y49199D01*
X71155D01*
X71205Y49149D01*
Y48999D01*
X59029Y48350D02*
X59079Y48300D01*
Y48200D01*
X59029Y48150D01*
X58830D01*
X58780Y48200D01*
Y48300D01*
X58830Y48350D01*
Y48450D02*
X58780Y48499D01*
Y48599D01*
X58830Y48649D01*
X59029D01*
X59079Y48599D01*
Y48499D01*
X59029Y48450D01*
X58979D01*
X58929Y48499D01*
Y48649D01*
X58780Y48749D02*
X58830D01*
Y48799D01*
X58780D01*
Y48749D01*
X59029Y49199D02*
X59079Y49149D01*
Y49049D01*
X59029Y48999D01*
X58830D01*
X58780Y49049D01*
Y49149D01*
X58830Y49199D01*
X68743Y44632D02*
X68693Y44582D01*
X68593D01*
X68543Y44632D01*
Y44832D01*
X68593Y44882D01*
X68693D01*
X68743Y44832D01*
X69043Y44582D02*
X68943Y44632D01*
X68843Y44732D01*
Y44832D01*
X68893Y44882D01*
X68993D01*
X69043Y44832D01*
Y44782D01*
X68993Y44732D01*
X68843D01*
X69143Y44882D02*
Y44832D01*
X69193D01*
Y44882D01*
X69143D01*
X69393Y44582D02*
Y44882D01*
X69543D01*
X69593Y44832D01*
Y44632D01*
X69543Y44582D01*
X69393D01*
X56617Y44632D02*
X56567Y44582D01*
X56467D01*
X56417Y44632D01*
Y44832D01*
X56467Y44882D01*
X56567D01*
X56617Y44832D01*
X56917Y44582D02*
X56817Y44632D01*
X56717Y44732D01*
Y44832D01*
X56767Y44882D01*
X56867D01*
X56917Y44832D01*
Y44782D01*
X56867Y44732D01*
X56717D01*
X57017Y44882D02*
Y44832D01*
X57067D01*
Y44882D01*
X57017D01*
X57467Y44632D02*
X57417Y44582D01*
X57317D01*
X57267Y44632D01*
Y44832D01*
X57317Y44882D01*
X57417D01*
X57467Y44832D01*
X71021Y50289D02*
X71071Y50339D01*
X71170D01*
X71220Y50289D01*
Y50089D01*
X71170Y50039D01*
X71071D01*
X71021Y50089D01*
X70721Y50339D02*
X70921D01*
Y50189D01*
X70821Y50239D01*
X70771D01*
X70721Y50189D01*
Y50089D01*
X70771Y50039D01*
X70871D01*
X70921Y50089D01*
X70621Y50039D02*
Y50089D01*
X70571D01*
Y50039D01*
X70621D01*
X70371Y50339D02*
Y50039D01*
X70221D01*
X70171Y50089D01*
Y50289D01*
X70221Y50339D01*
X70371D01*
X58895Y50289D02*
X58945Y50339D01*
X59045D01*
X59094Y50289D01*
Y50089D01*
X59045Y50039D01*
X58945D01*
X58895Y50089D01*
X58595Y50339D02*
X58795D01*
Y50189D01*
X58695Y50239D01*
X58645D01*
X58595Y50189D01*
Y50089D01*
X58645Y50039D01*
X58745D01*
X58795Y50089D01*
X58495Y50039D02*
Y50089D01*
X58445D01*
Y50039D01*
X58495D01*
X58045Y50289D02*
X58095Y50339D01*
X58195D01*
X58245Y50289D01*
Y50089D01*
X58195Y50039D01*
X58095D01*
X58045Y50089D01*
X66578Y46561D02*
X66528Y46511D01*
X66428D01*
X66378Y46561D01*
Y46761D01*
X66428Y46811D01*
X66528D01*
X66578Y46761D01*
X66828Y46811D02*
Y46511D01*
X66678Y46661D01*
X66878D01*
X66978Y46811D02*
Y46761D01*
X67028D01*
Y46811D01*
X66978D01*
X67228Y46511D02*
Y46811D01*
X67378D01*
X67428Y46761D01*
Y46561D01*
X67378Y46511D01*
X67228D01*
X54452Y46561D02*
X54402Y46511D01*
X54302D01*
X54252Y46561D01*
Y46761D01*
X54302Y46811D01*
X54402D01*
X54452Y46761D01*
X54702Y46811D02*
Y46511D01*
X54552Y46661D01*
X54752D01*
X54852Y46811D02*
Y46761D01*
X54902D01*
Y46811D01*
X54852D01*
X55302Y46561D02*
X55252Y46511D01*
X55152D01*
X55102Y46561D01*
Y46761D01*
X55152Y46811D01*
X55252D01*
X55302Y46761D01*
X68265Y48754D02*
X68315Y48804D01*
X68415D01*
X68465Y48754D01*
Y48554D01*
X68415Y48504D01*
X68315D01*
X68265Y48554D01*
X68165Y48754D02*
X68115Y48804D01*
X68015D01*
X67965Y48754D01*
Y48704D01*
X68015Y48654D01*
X68065D01*
X68015D01*
X67965Y48604D01*
Y48554D01*
X68015Y48504D01*
X68115D01*
X68165Y48554D01*
X67865Y48504D02*
Y48554D01*
X67815D01*
Y48504D01*
X67865D01*
X67615Y48804D02*
Y48504D01*
X67465D01*
X67415Y48554D01*
Y48754D01*
X67465Y48804D01*
X67615D01*
X56139Y48754D02*
X56189Y48804D01*
X56289D01*
X56339Y48754D01*
Y48554D01*
X56289Y48504D01*
X56189D01*
X56139Y48554D01*
X56039Y48754D02*
X55989Y48804D01*
X55889D01*
X55839Y48754D01*
Y48704D01*
X55889Y48654D01*
X55939D01*
X55889D01*
X55839Y48604D01*
Y48554D01*
X55889Y48504D01*
X55989D01*
X56039Y48554D01*
X55739Y48504D02*
Y48554D01*
X55689D01*
Y48504D01*
X55739D01*
X55289Y48754D02*
X55339Y48804D01*
X55439D01*
X55489Y48754D01*
Y48554D01*
X55439Y48504D01*
X55339D01*
X55289Y48554D01*
X66893Y45104D02*
X66843Y45054D01*
X66743D01*
X66693Y45104D01*
Y45304D01*
X66743Y45354D01*
X66843D01*
X66893Y45304D01*
X67193Y45354D02*
X66993D01*
X67193Y45154D01*
Y45104D01*
X67143Y45054D01*
X67043D01*
X66993Y45104D01*
X67293Y45354D02*
Y45304D01*
X67343D01*
Y45354D01*
X67293D01*
X67543Y45054D02*
Y45354D01*
X67693D01*
X67743Y45304D01*
Y45104D01*
X67693Y45054D01*
X67543D01*
X54767Y45104D02*
X54717Y45054D01*
X54617D01*
X54567Y45104D01*
Y45304D01*
X54617Y45354D01*
X54717D01*
X54767Y45304D01*
X55067Y45354D02*
X54867D01*
X55067Y45154D01*
Y45104D01*
X55017Y45054D01*
X54917D01*
X54867Y45104D01*
X55167Y45354D02*
Y45304D01*
X55217D01*
Y45354D01*
X55167D01*
X55617Y45104D02*
X55567Y45054D01*
X55467D01*
X55417Y45104D01*
Y45304D01*
X55467Y45354D01*
X55567D01*
X55617Y45304D01*
X69091Y49777D02*
X69141Y49827D01*
X69241D01*
X69291Y49777D01*
Y49578D01*
X69241Y49528D01*
X69141D01*
X69091Y49578D01*
X68991Y49528D02*
X68891D01*
X68941D01*
Y49827D01*
X68991Y49777D01*
X68742Y49528D02*
Y49578D01*
X68692D01*
Y49528D01*
X68742D01*
X68492Y49827D02*
Y49528D01*
X68342D01*
X68292Y49578D01*
Y49777D01*
X68342Y49827D01*
X68492D01*
X56965Y49777D02*
X57015Y49827D01*
X57115D01*
X57165Y49777D01*
Y49578D01*
X57115Y49528D01*
X57015D01*
X56965Y49578D01*
X56865Y49528D02*
X56765D01*
X56815D01*
Y49827D01*
X56865Y49777D01*
X56616Y49528D02*
Y49578D01*
X56566D01*
Y49528D01*
X56616D01*
X56166Y49777D02*
X56216Y49827D01*
X56316D01*
X56366Y49777D01*
Y49578D01*
X56316Y49528D01*
X56216D01*
X56166Y49578D01*
X35042Y52742D02*
X34992Y52692D01*
X34892D01*
X34843Y52742D01*
Y52942D01*
X34892Y52992D01*
X34992D01*
X35042Y52942D01*
X35342Y52692D02*
X35242Y52742D01*
X35142Y52842D01*
Y52942D01*
X35192Y52992D01*
X35292D01*
X35342Y52942D01*
Y52892D01*
X35292Y52842D01*
X35142D01*
X35642Y52992D02*
X35442D01*
X35642Y52792D01*
Y52742D01*
X35592Y52692D01*
X35492D01*
X35442Y52742D01*
X35742Y52992D02*
Y52942D01*
X35792D01*
Y52992D01*
X35742D01*
X35992D02*
Y52792D01*
X36092Y52692D01*
X36192Y52792D01*
Y52992D01*
Y52842D01*
X35992D01*
X32562Y52821D02*
X32512Y52771D01*
X32412D01*
X32362Y52821D01*
Y53021D01*
X32412Y53071D01*
X32512D01*
X32562Y53021D01*
X32862Y52771D02*
X32762Y52821D01*
X32662Y52921D01*
Y53021D01*
X32712Y53071D01*
X32812D01*
X32862Y53021D01*
Y52971D01*
X32812Y52921D01*
X32662D01*
X32962Y53071D02*
X33062D01*
X33012D01*
Y52771D01*
X32962Y52821D01*
X33212Y53071D02*
Y53021D01*
X33262D01*
Y53071D01*
X33212D01*
X33462D02*
Y52871D01*
X33562Y52771D01*
X33662Y52871D01*
Y53071D01*
Y52921D01*
X33462D01*
X32247Y57191D02*
X32197Y57141D01*
X32097D01*
X32047Y57191D01*
Y57391D01*
X32097Y57441D01*
X32197D01*
X32247Y57391D01*
X32547Y57141D02*
X32447Y57191D01*
X32347Y57291D01*
Y57391D01*
X32397Y57441D01*
X32497D01*
X32547Y57391D01*
Y57341D01*
X32497Y57291D01*
X32347D01*
X32647Y57191D02*
X32697Y57141D01*
X32797D01*
X32847Y57191D01*
Y57391D01*
X32797Y57441D01*
X32697D01*
X32647Y57391D01*
Y57191D01*
X32947Y57441D02*
Y57391D01*
X32997D01*
Y57441D01*
X32947D01*
X33197D02*
Y57241D01*
X33297Y57141D01*
X33397Y57241D01*
Y57441D01*
Y57291D01*
X33197D01*
X34964Y57191D02*
X34914Y57141D01*
X34814D01*
X34764Y57191D01*
Y57391D01*
X34814Y57441D01*
X34914D01*
X34964Y57391D01*
X35264Y57141D02*
X35064D01*
Y57291D01*
X35164Y57241D01*
X35214D01*
X35264Y57291D01*
Y57391D01*
X35214Y57441D01*
X35114D01*
X35064Y57391D01*
X35364D02*
X35414Y57441D01*
X35514D01*
X35564Y57391D01*
Y57191D01*
X35514Y57141D01*
X35414D01*
X35364Y57191D01*
Y57241D01*
X35414Y57291D01*
X35564D01*
X35663Y57441D02*
Y57391D01*
X35713D01*
Y57441D01*
X35663D01*
X35913D02*
Y57241D01*
X36013Y57141D01*
X36113Y57241D01*
Y57441D01*
Y57291D01*
X35913D01*
X33580Y46667D02*
X33630Y46717D01*
X33730D01*
X33780Y46667D01*
Y46467D01*
X33730Y46417D01*
X33630D01*
X33580Y46467D01*
X33480Y46417D02*
X33380D01*
X33430D01*
Y46717D01*
X33480Y46667D01*
X33030Y46417D02*
X33230D01*
X33030Y46617D01*
Y46667D01*
X33080Y46717D01*
X33180D01*
X33230Y46667D01*
X32930Y46417D02*
Y46467D01*
X32880D01*
Y46417D01*
X32930D01*
X32680D02*
Y46617D01*
X32580Y46717D01*
X32480Y46617D01*
Y46417D01*
Y46567D01*
X32680D01*
X34226Y46893D02*
X34276Y46843D01*
Y46743D01*
X34226Y46693D01*
X34026D01*
X33976Y46743D01*
Y46843D01*
X34026Y46893D01*
X33976Y46993D02*
Y47093D01*
Y47043D01*
X34276D01*
X34226Y46993D01*
Y47243D02*
X34276Y47293D01*
Y47393D01*
X34226Y47443D01*
X34026D01*
X33976Y47393D01*
Y47293D01*
X34026Y47243D01*
X34226D01*
X33976Y47543D02*
X34026D01*
Y47593D01*
X33976D01*
Y47543D01*
Y47793D02*
X34176D01*
X34276Y47893D01*
X34176Y47992D01*
X33976D01*
X34126D01*
Y47793D01*
X34777Y48350D02*
X34827Y48300D01*
Y48200D01*
X34777Y48150D01*
X34578D01*
X34528Y48200D01*
Y48300D01*
X34578Y48350D01*
Y48450D02*
X34528Y48499D01*
Y48599D01*
X34578Y48649D01*
X34777D01*
X34827Y48599D01*
Y48499D01*
X34777Y48450D01*
X34727D01*
X34678Y48499D01*
Y48649D01*
X34528Y48749D02*
X34578D01*
Y48799D01*
X34528D01*
Y48749D01*
Y48999D02*
X34727D01*
X34827Y49099D01*
X34727Y49199D01*
X34528D01*
X34678D01*
Y48999D01*
X32365Y44632D02*
X32315Y44582D01*
X32215D01*
X32165Y44632D01*
Y44832D01*
X32215Y44882D01*
X32315D01*
X32365Y44832D01*
X32665Y44582D02*
X32565Y44632D01*
X32465Y44732D01*
Y44832D01*
X32515Y44882D01*
X32615D01*
X32665Y44832D01*
Y44782D01*
X32615Y44732D01*
X32465D01*
X32765Y44882D02*
Y44832D01*
X32815D01*
Y44882D01*
X32765D01*
X33015D02*
Y44682D01*
X33115Y44582D01*
X33215Y44682D01*
Y44882D01*
Y44732D01*
X33015D01*
X34643Y50289D02*
X34693Y50339D01*
X34793D01*
X34843Y50289D01*
Y50089D01*
X34793Y50039D01*
X34693D01*
X34643Y50089D01*
X34343Y50339D02*
X34543D01*
Y50189D01*
X34443Y50239D01*
X34393D01*
X34343Y50189D01*
Y50089D01*
X34393Y50039D01*
X34493D01*
X34543Y50089D01*
X34243Y50039D02*
Y50089D01*
X34193D01*
Y50039D01*
X34243D01*
X33993D02*
Y50239D01*
X33893Y50339D01*
X33793Y50239D01*
Y50039D01*
Y50189D01*
X33993D01*
X30200Y46561D02*
X30150Y46511D01*
X30050D01*
X30000Y46561D01*
Y46761D01*
X30050Y46811D01*
X30150D01*
X30200Y46761D01*
X30450Y46811D02*
Y46511D01*
X30300Y46661D01*
X30500D01*
X30600Y46811D02*
Y46761D01*
X30650D01*
Y46811D01*
X30600D01*
X30850D02*
Y46611D01*
X30950Y46511D01*
X31050Y46611D01*
Y46811D01*
Y46661D01*
X30850D01*
X31887Y48754D02*
X31937Y48804D01*
X32037D01*
X32087Y48754D01*
Y48554D01*
X32037Y48504D01*
X31937D01*
X31887Y48554D01*
X31787Y48754D02*
X31737Y48804D01*
X31637D01*
X31587Y48754D01*
Y48704D01*
X31637Y48654D01*
X31687D01*
X31637D01*
X31587Y48604D01*
Y48554D01*
X31637Y48504D01*
X31737D01*
X31787Y48554D01*
X31487Y48504D02*
Y48554D01*
X31437D01*
Y48504D01*
X31487D01*
X31237D02*
Y48704D01*
X31137Y48804D01*
X31037Y48704D01*
Y48504D01*
Y48654D01*
X31237D01*
X30515Y45104D02*
X30465Y45054D01*
X30365D01*
X30315Y45104D01*
Y45304D01*
X30365Y45354D01*
X30465D01*
X30515Y45304D01*
X30815Y45354D02*
X30615D01*
X30815Y45154D01*
Y45104D01*
X30765Y45054D01*
X30665D01*
X30615Y45104D01*
X30915Y45354D02*
Y45304D01*
X30965D01*
Y45354D01*
X30915D01*
X31165D02*
Y45154D01*
X31265Y45054D01*
X31365Y45154D01*
Y45354D01*
Y45204D01*
X31165D01*
X32713Y49777D02*
X32763Y49827D01*
X32863D01*
X32913Y49777D01*
Y49578D01*
X32863Y49528D01*
X32763D01*
X32713Y49578D01*
X32613Y49528D02*
X32514D01*
X32564D01*
Y49827D01*
X32613Y49777D01*
X32364Y49528D02*
Y49578D01*
X32314D01*
Y49528D01*
X32364D01*
X32114D02*
Y49727D01*
X32014Y49827D01*
X31914Y49727D01*
Y49528D01*
Y49678D01*
X32114D01*
X44839Y49777D02*
X44889Y49827D01*
X44989D01*
X45039Y49777D01*
Y49578D01*
X44989Y49528D01*
X44889D01*
X44839Y49578D01*
X44739Y49528D02*
X44640D01*
X44689D01*
Y49827D01*
X44739Y49777D01*
X44490Y49528D02*
Y49578D01*
X44440D01*
Y49528D01*
X44490D01*
X44240Y49827D02*
Y49528D01*
X44090D01*
X44040Y49578D01*
Y49628D01*
X44090Y49678D01*
X44240D01*
X44090D01*
X44040Y49727D01*
Y49777D01*
X44090Y49827D01*
X44240D01*
X42641Y45104D02*
X42591Y45054D01*
X42491D01*
X42441Y45104D01*
Y45304D01*
X42491Y45354D01*
X42591D01*
X42641Y45304D01*
X42941Y45354D02*
X42741D01*
X42941Y45154D01*
Y45104D01*
X42891Y45054D01*
X42791D01*
X42741Y45104D01*
X43041Y45354D02*
Y45304D01*
X43091D01*
Y45354D01*
X43041D01*
X43291Y45054D02*
Y45354D01*
X43441D01*
X43491Y45304D01*
Y45254D01*
X43441Y45204D01*
X43291D01*
X43441D01*
X43491Y45154D01*
Y45104D01*
X43441Y45054D01*
X43291D01*
X44013Y48754D02*
X44063Y48804D01*
X44163D01*
X44213Y48754D01*
Y48554D01*
X44163Y48504D01*
X44063D01*
X44013Y48554D01*
X43913Y48754D02*
X43863Y48804D01*
X43763D01*
X43713Y48754D01*
Y48704D01*
X43763Y48654D01*
X43813D01*
X43763D01*
X43713Y48604D01*
Y48554D01*
X43763Y48504D01*
X43863D01*
X43913Y48554D01*
X43613Y48504D02*
Y48554D01*
X43563D01*
Y48504D01*
X43613D01*
X43363Y48804D02*
Y48504D01*
X43213D01*
X43163Y48554D01*
Y48604D01*
X43213Y48654D01*
X43363D01*
X43213D01*
X43163Y48704D01*
Y48754D01*
X43213Y48804D01*
X43363D01*
X42326Y46561D02*
X42276Y46511D01*
X42176D01*
X42126Y46561D01*
Y46761D01*
X42176Y46811D01*
X42276D01*
X42326Y46761D01*
X42576Y46811D02*
Y46511D01*
X42426Y46661D01*
X42626D01*
X42726Y46811D02*
Y46761D01*
X42776D01*
Y46811D01*
X42726D01*
X42976Y46511D02*
Y46811D01*
X43126D01*
X43176Y46761D01*
Y46711D01*
X43126Y46661D01*
X42976D01*
X43126D01*
X43176Y46611D01*
Y46561D01*
X43126Y46511D01*
X42976D01*
X46769Y50289D02*
X46819Y50339D01*
X46919D01*
X46968Y50289D01*
Y50089D01*
X46919Y50039D01*
X46819D01*
X46769Y50089D01*
X46469Y50339D02*
X46669D01*
Y50189D01*
X46569Y50239D01*
X46519D01*
X46469Y50189D01*
Y50089D01*
X46519Y50039D01*
X46619D01*
X46669Y50089D01*
X46369Y50039D02*
Y50089D01*
X46319D01*
Y50039D01*
X46369D01*
X46119Y50339D02*
Y50039D01*
X45969D01*
X45919Y50089D01*
Y50139D01*
X45969Y50189D01*
X46119D01*
X45969D01*
X45919Y50239D01*
Y50289D01*
X45969Y50339D01*
X46119D01*
X44491Y44632D02*
X44441Y44582D01*
X44341D01*
X44291Y44632D01*
Y44832D01*
X44341Y44882D01*
X44441D01*
X44491Y44832D01*
X44791Y44582D02*
X44691Y44632D01*
X44591Y44732D01*
Y44832D01*
X44641Y44882D01*
X44741D01*
X44791Y44832D01*
Y44782D01*
X44741Y44732D01*
X44591D01*
X44891Y44882D02*
Y44832D01*
X44941D01*
Y44882D01*
X44891D01*
X45141Y44582D02*
Y44882D01*
X45291D01*
X45341Y44832D01*
Y44782D01*
X45291Y44732D01*
X45141D01*
X45291D01*
X45341Y44682D01*
Y44632D01*
X45291Y44582D01*
X45141D01*
X46903Y48350D02*
X46953Y48300D01*
Y48200D01*
X46903Y48150D01*
X46704D01*
X46654Y48200D01*
Y48300D01*
X46704Y48350D01*
Y48450D02*
X46654Y48499D01*
Y48599D01*
X46704Y48649D01*
X46903D01*
X46953Y48599D01*
Y48499D01*
X46903Y48450D01*
X46853D01*
X46803Y48499D01*
Y48649D01*
X46654Y48749D02*
X46704D01*
Y48799D01*
X46654D01*
Y48749D01*
X46953Y48999D02*
X46654D01*
Y49149D01*
X46704Y49199D01*
X46754D01*
X46803Y49149D01*
Y48999D01*
Y49149D01*
X46853Y49199D01*
X46903D01*
X46953Y49149D01*
Y48999D01*
X46352Y46893D02*
X46402Y46843D01*
Y46743D01*
X46352Y46693D01*
X46152D01*
X46102Y46743D01*
Y46843D01*
X46152Y46893D01*
X46102Y46993D02*
Y47093D01*
Y47043D01*
X46402D01*
X46352Y46993D01*
Y47243D02*
X46402Y47293D01*
Y47393D01*
X46352Y47443D01*
X46152D01*
X46102Y47393D01*
Y47293D01*
X46152Y47243D01*
X46352D01*
X46102Y47543D02*
X46152D01*
Y47593D01*
X46102D01*
Y47543D01*
X46402Y47793D02*
X46102D01*
Y47943D01*
X46152Y47992D01*
X46202D01*
X46252Y47943D01*
Y47793D01*
Y47943D01*
X46302Y47992D01*
X46352D01*
X46402Y47943D01*
Y47793D01*
X45706Y46667D02*
X45756Y46717D01*
X45856D01*
X45906Y46667D01*
Y46467D01*
X45856Y46417D01*
X45756D01*
X45706Y46467D01*
X45606Y46417D02*
X45506D01*
X45556D01*
Y46717D01*
X45606Y46667D01*
X45156Y46417D02*
X45356D01*
X45156Y46617D01*
Y46667D01*
X45206Y46717D01*
X45306D01*
X45356Y46667D01*
X45056Y46417D02*
Y46467D01*
X45006D01*
Y46417D01*
X45056D01*
X44806Y46717D02*
Y46417D01*
X44656D01*
X44606Y46467D01*
Y46517D01*
X44656Y46567D01*
X44806D01*
X44656D01*
X44606Y46617D01*
Y46667D01*
X44656Y46717D01*
X44806D01*
X29304Y38033D02*
X29354Y38083D01*
X29454D01*
X29504Y38033D01*
Y37833D01*
X29454Y37783D01*
X29354D01*
X29304Y37833D01*
X29204Y37783D02*
X29104D01*
X29154D01*
Y38083D01*
X29204Y38033D01*
X28804Y37783D02*
Y38083D01*
X28954Y37933D01*
X28754D01*
X27379Y37002D02*
X27429Y37052D01*
X27529D01*
X27579Y37002D01*
Y36802D01*
X27529Y36752D01*
X27429D01*
X27379Y36802D01*
X27279Y36752D02*
X27179D01*
X27229D01*
Y37052D01*
X27279Y37002D01*
X27029D02*
X26979Y37052D01*
X26879D01*
X26829Y37002D01*
Y36952D01*
X26879Y36902D01*
X26929D01*
X26879D01*
X26829Y36852D01*
Y36802D01*
X26879Y36752D01*
X26979D01*
X27029Y36802D01*
X62427Y33107D02*
X62377Y33057D01*
X62277D01*
X62227Y33107D01*
Y33307D01*
X62277Y33357D01*
X62377D01*
X62427Y33307D01*
X62527Y33357D02*
X62627D01*
X62577D01*
Y33057D01*
X62527Y33107D01*
X62777Y33357D02*
X62877D01*
X62827D01*
Y33057D01*
X62777Y33107D01*
X27402Y33393D02*
X27452Y33343D01*
Y33243D01*
X27402Y33193D01*
X27202D01*
X27152Y33243D01*
Y33343D01*
X27202Y33393D01*
X27452Y33693D02*
X27402Y33593D01*
X27302Y33493D01*
X27202D01*
X27152Y33543D01*
Y33643D01*
X27202Y33693D01*
X27252D01*
X27302Y33643D01*
Y33493D01*
X27152Y33942D02*
X27452D01*
X27302Y33793D01*
Y33992D01*
D63*
X70020Y48071D02*
X70217D01*
X68189Y45118D02*
Y45433D01*
X56063Y45118D02*
Y45433D01*
X43937Y45118D02*
Y45433D01*
X31811Y45118D02*
Y45433D01*
X69980Y49449D02*
Y49764D01*
X57854Y49449D02*
Y49764D01*
X45728Y49449D02*
Y49764D01*
X33602Y49449D02*
Y49764D01*
X66535Y45512D02*
Y45827D01*
X54409Y45512D02*
Y45827D01*
X42283Y45512D02*
Y45827D01*
X30157Y45512D02*
Y45827D01*
X69429Y49055D02*
Y49370D01*
X57303Y49055D02*
Y49370D01*
X45177Y49055D02*
Y49370D01*
X33051Y49055D02*
Y49370D01*
X72412Y53302D02*
Y53498D01*
X60286Y53302D02*
Y53498D01*
X48160Y53302D02*
Y53498D01*
X36034Y53302D02*
Y53498D01*
X68827Y53302D02*
Y53498D01*
X56701Y53302D02*
Y53498D01*
X44575Y53302D02*
Y53498D01*
X32449Y53302D02*
Y53498D01*
X69729Y57702D02*
Y57898D01*
X57603Y57702D02*
Y57898D01*
X45477Y57702D02*
Y57898D01*
X33351Y57702D02*
Y57898D01*
X71344Y57702D02*
Y57898D01*
X59218Y57702D02*
Y57898D01*
X47092Y57702D02*
Y57898D01*
X34966Y57702D02*
Y57898D01*
X79232Y47401D02*
X79429D01*
X74351Y38484D02*
Y38681D01*
X35352Y36099D02*
X35548D01*
X38150Y34429D02*
Y34626D01*
X39352Y36099D02*
X39548D01*
X39102Y37599D02*
X39298D01*
X33701Y37697D02*
Y37894D01*
X34508Y37008D02*
Y37205D01*
X36575Y34646D02*
Y34843D01*
X37795Y34882D02*
X37992D01*
X36378Y38878D02*
Y39075D01*
X35866Y39272D02*
Y39469D01*
X34350Y36969D02*
X34547D01*
X35413Y38937D02*
X35610D01*
X37441Y36516D02*
Y36713D01*
X37402Y36699D02*
X37598D01*
X35649Y36052D02*
Y36248D01*
X63740Y31516D02*
Y31713D01*
X29331Y36457D02*
X29528D01*
X27520Y36220D02*
Y36417D01*
X69094Y46063D02*
Y46260D01*
X56969Y46063D02*
Y46260D01*
X44843Y46063D02*
Y46260D01*
X32717Y46063D02*
Y46260D01*
X57815Y46909D02*
X58012D01*
X45689D02*
X45886D01*
X33563D02*
X33760D01*
X70532Y49253D02*
X70728D01*
X58406D02*
X58602D01*
X46280D02*
X46476D01*
X34154D02*
X34350D01*
X79331Y37460D02*
X79528D01*
X66358Y47047D02*
Y47244D01*
X54232Y47047D02*
Y47244D01*
X42106Y47047D02*
Y47244D01*
X29980Y47047D02*
Y47244D01*
X68505Y48130D02*
Y48327D01*
X56379Y48130D02*
Y48327D01*
X44253Y48130D02*
Y48327D01*
X32127Y48130D02*
Y48327D01*
X62205Y34921D02*
X62520D01*
X26929Y32323D02*
X27244D01*
X25826Y33169D02*
Y33366D01*
M02*
