%FSLAX24Y24*%
%MOIN*%
G70*
G01*
G75*
G04 Layer_Color=128*
G04 Layer_Color=128*
%ADD10R,0.0866X0.0787*%
%ADD11R,0.0787X0.0866*%
%ADD12R,0.0945X0.1024*%
%ADD13R,0.0630X0.0709*%
%ADD14R,0.0709X0.0630*%
%ADD15R,0.1500X0.0500*%
%ADD16C,0.0177*%
%ADD17R,0.0433X0.0394*%
%ADD18R,0.0394X0.0433*%
%ADD19R,0.0512X0.0630*%
%ADD20C,0.0197*%
%ADD21R,0.0669X0.0177*%
%ADD22R,0.0669X0.0177*%
%ADD23R,0.0197X0.0591*%
%ADD24R,0.0630X0.0512*%
%ADD25R,0.3000X0.2900*%
%ADD26R,0.0748X0.0197*%
%ADD27R,0.0197X0.0748*%
%ADD28R,0.0551X0.0787*%
%ADD29R,0.1732X0.1441*%
%ADD30R,0.0827X0.0354*%
%ADD31R,0.0827X0.0354*%
%ADD32R,0.0807X0.0236*%
%ADD33R,0.0157X0.0846*%
%ADD34C,0.0160*%
%ADD35C,0.0070*%
%ADD36C,0.0090*%
%ADD37C,0.0060*%
%ADD38C,0.0120*%
%ADD39C,0.0100*%
%ADD40C,0.0080*%
%ADD41C,0.0300*%
%ADD42C,0.0250*%
%ADD43R,0.0591X0.0591*%
%ADD44C,0.0591*%
%ADD45C,0.0800*%
%ADD46C,0.0600*%
%ADD47C,0.1732*%
%ADD48C,0.1732*%
%ADD49C,0.0200*%
%ADD50C,0.0400*%
%ADD51C,0.0212*%
%ADD52C,0.0240*%
%ADD53C,0.0350*%
%ADD54R,0.0276X0.0354*%
%ADD55R,0.0354X0.0276*%
%ADD56C,0.0140*%
%ADD57C,0.0098*%
%ADD58C,0.0079*%
%ADD59C,0.0200*%
%ADD60C,0.0050*%
D17*
X68524Y45276D02*
D03*
X69193D02*
D03*
X56398D02*
D03*
X57067D02*
D03*
X44272D02*
D03*
X44941D02*
D03*
X32146D02*
D03*
X32815D02*
D03*
X70314Y49606D02*
D03*
X70984D02*
D03*
X58188D02*
D03*
X58858D02*
D03*
X46062D02*
D03*
X46732D02*
D03*
X33936D02*
D03*
X34606D02*
D03*
X66869Y45669D02*
D03*
X67539D02*
D03*
X54743D02*
D03*
X55413D02*
D03*
X42617D02*
D03*
X43287D02*
D03*
X30491D02*
D03*
X31161D02*
D03*
X69094Y49213D02*
D03*
X68425D02*
D03*
X56968D02*
D03*
X56299D02*
D03*
X44843D02*
D03*
X44173D02*
D03*
X32717D02*
D03*
X32047D02*
D03*
D54*
X60827Y31653D02*
D03*
Y32165D02*
D03*
X79331Y48208D02*
D03*
Y47696D02*
D03*
X35450Y36906D02*
D03*
Y36394D02*
D03*
X39450Y36906D02*
D03*
Y36394D02*
D03*
X39200Y38406D02*
D03*
Y37894D02*
D03*
X37894Y35689D02*
D03*
Y35177D02*
D03*
X34449Y36161D02*
D03*
Y36673D02*
D03*
X35512Y38130D02*
D03*
Y38642D02*
D03*
X37500Y37506D02*
D03*
Y36994D02*
D03*
X29429Y37264D02*
D03*
Y36752D02*
D03*
X57913Y47716D02*
D03*
Y47204D02*
D03*
X45787Y47716D02*
D03*
Y47204D02*
D03*
X33661Y47716D02*
D03*
Y47204D02*
D03*
X70630Y48446D02*
D03*
Y48957D02*
D03*
X58504Y48446D02*
D03*
Y48957D02*
D03*
X46378Y48446D02*
D03*
Y48957D02*
D03*
X34252Y48446D02*
D03*
Y48957D02*
D03*
X79429Y38267D02*
D03*
Y37755D02*
D03*
D55*
X71605Y53400D02*
D03*
X72116D02*
D03*
X59479D02*
D03*
X59990D02*
D03*
X47353D02*
D03*
X47864D02*
D03*
X35227D02*
D03*
X35738D02*
D03*
X69634D02*
D03*
X69122D02*
D03*
X57508D02*
D03*
X56996D02*
D03*
X45382D02*
D03*
X44870D02*
D03*
X33256D02*
D03*
X32744D02*
D03*
X68922Y57800D02*
D03*
X69434D02*
D03*
X56796D02*
D03*
X57308D02*
D03*
X44670D02*
D03*
X45182D02*
D03*
X32544D02*
D03*
X33056D02*
D03*
X72151D02*
D03*
X71640D02*
D03*
X60025D02*
D03*
X59514D02*
D03*
X47899D02*
D03*
X47388D02*
D03*
X35773D02*
D03*
X35262D02*
D03*
X73544Y38583D02*
D03*
X74056D02*
D03*
X37343Y34528D02*
D03*
X37854D02*
D03*
X34508Y37795D02*
D03*
X33996D02*
D03*
X33701Y37106D02*
D03*
X34213D02*
D03*
X35768Y34744D02*
D03*
X36280D02*
D03*
X37185Y38976D02*
D03*
X36673D02*
D03*
X35059Y39370D02*
D03*
X35571D02*
D03*
X36634Y36614D02*
D03*
X37146D02*
D03*
X36456Y36150D02*
D03*
X35944D02*
D03*
X28071Y33661D02*
D03*
X28583D02*
D03*
X26713Y36319D02*
D03*
X27224D02*
D03*
X69902Y46161D02*
D03*
X69390D02*
D03*
X57776D02*
D03*
X57264D02*
D03*
X45650D02*
D03*
X45138D02*
D03*
X33524D02*
D03*
X33012D02*
D03*
X67165Y47146D02*
D03*
X66653D02*
D03*
X55039D02*
D03*
X54527D02*
D03*
X42913D02*
D03*
X42401D02*
D03*
X30787D02*
D03*
X30275D02*
D03*
X67697Y48228D02*
D03*
X68209D02*
D03*
X55571D02*
D03*
X56083D02*
D03*
X43446D02*
D03*
X43957D02*
D03*
X31320D02*
D03*
X31831D02*
D03*
M02*
