%FSLAX24Y24*%
%MOIN*%
G70*
G01*
G75*
G04 Layer_Color=65535*
%ADD10R,0.0394X0.0433*%
%ADD11C,0.0197*%
%ADD12C,0.0177*%
%ADD13R,0.0433X0.0394*%
%ADD14R,0.0669X0.0177*%
%ADD15R,0.0669X0.0177*%
%ADD16R,0.0197X0.0591*%
%ADD17R,0.0630X0.0512*%
%ADD18R,0.3000X0.2900*%
%ADD19R,0.1500X0.0500*%
%ADD20R,0.0630X0.0709*%
%ADD21R,0.0866X0.0787*%
%ADD22R,0.0787X0.0866*%
%ADD23R,0.0945X0.1024*%
%ADD24R,0.0709X0.0630*%
%ADD25R,0.0748X0.0197*%
%ADD26R,0.0197X0.0748*%
%ADD27R,0.0551X0.0787*%
%ADD28R,0.1732X0.1441*%
%ADD29R,0.0827X0.0354*%
%ADD30R,0.0827X0.0354*%
%ADD31R,0.0276X0.0354*%
%ADD32R,0.0512X0.0630*%
%ADD33R,0.0807X0.0236*%
%ADD34R,0.0157X0.0846*%
%ADD35C,0.0090*%
%ADD36C,0.0070*%
%ADD37C,0.0060*%
%ADD38C,0.0160*%
%ADD39C,0.0120*%
%ADD40C,0.0100*%
%ADD41C,0.0080*%
%ADD42C,0.0300*%
%ADD43C,0.0250*%
%ADD44R,0.0591X0.0591*%
%ADD45C,0.0591*%
%ADD46C,0.0800*%
%ADD47C,0.0600*%
%ADD48C,0.1732*%
%ADD49C,0.1732*%
%ADD50C,0.0200*%
%ADD51C,0.0400*%
%ADD52C,0.0212*%
%ADD53C,0.0240*%
%ADD54C,0.0350*%
%ADD55R,0.0354X0.0276*%
%ADD56C,0.0140*%
%ADD57C,0.0098*%
%ADD58C,0.0079*%
%ADD59C,0.0200*%
%ADD60C,0.0050*%
D35*
X77900Y44950D02*
X77500D01*
Y44650D01*
X77700D01*
X77500D01*
Y44350D01*
X78100Y44950D02*
X78300D01*
X78200D01*
Y44350D01*
X78100D01*
X78300D01*
X78600Y44950D02*
Y44350D01*
X78900D01*
X79000Y44450D01*
Y44550D01*
X78900Y44650D01*
X78600D01*
X78900D01*
X79000Y44750D01*
Y44850D01*
X78900Y44950D01*
X78600D01*
X79599D02*
X79199D01*
Y44350D01*
X79599D01*
X79199Y44650D02*
X79399D01*
X79799Y44350D02*
Y44950D01*
X80099D01*
X80199Y44850D01*
Y44650D01*
X80099Y44550D01*
X79799D01*
X79999D02*
X80199Y44350D01*
X81399Y44850D02*
X81299Y44950D01*
X81099D01*
X80999Y44850D01*
Y44450D01*
X81099Y44350D01*
X81299D01*
X81399Y44450D01*
X81599Y44950D02*
Y44350D01*
X81899D01*
X81999Y44450D01*
Y44850D01*
X81899Y44950D01*
X81599D01*
X77939Y55206D02*
X77539D01*
Y54906D01*
X77739D01*
X77539D01*
Y54606D01*
X78139Y55206D02*
X78339D01*
X78239D01*
Y54606D01*
X78139D01*
X78339D01*
X78639Y55206D02*
Y54606D01*
X78939D01*
X79039Y54706D01*
Y54806D01*
X78939Y54906D01*
X78639D01*
X78939D01*
X79039Y55006D01*
Y55106D01*
X78939Y55206D01*
X78639D01*
X79639D02*
X79239D01*
Y54606D01*
X79639D01*
X79239Y54906D02*
X79439D01*
X79839Y54606D02*
Y55206D01*
X80139D01*
X80239Y55106D01*
Y54906D01*
X80139Y54806D01*
X79839D01*
X80039D02*
X80239Y54606D01*
X81038D02*
Y55006D01*
X81238Y55206D01*
X81438Y55006D01*
Y54606D01*
Y54906D01*
X81038D01*
X81638Y55206D02*
Y54606D01*
X81938D01*
X82038Y54706D01*
Y54806D01*
X81938Y54906D01*
X81638D01*
X81938D01*
X82038Y55006D01*
Y55106D01*
X81938Y55206D01*
X81638D01*
X46062Y33487D02*
X45978Y33571D01*
X45812D01*
X45728Y33487D01*
Y33154D01*
X45812Y33071D01*
X45978D01*
X46062Y33154D01*
X46228Y33071D02*
Y33571D01*
X46478D01*
X46561Y33487D01*
Y33321D01*
X46478Y33237D01*
X46228D01*
X46728Y33571D02*
Y33071D01*
X47061D01*
X47228Y33571D02*
Y33071D01*
X47478D01*
X47561Y33154D01*
Y33487D01*
X47478Y33571D01*
X47228D01*
X45787Y34220D02*
Y33720D01*
X46037D01*
X46121Y33804D01*
Y33887D01*
X46037Y33970D01*
X45787D01*
X46037D01*
X46121Y34054D01*
Y34137D01*
X46037Y34220D01*
X45787D01*
X46537D02*
X46371D01*
X46287Y34137D01*
Y33804D01*
X46371Y33720D01*
X46537D01*
X46620Y33804D01*
Y34137D01*
X46537Y34220D01*
X47037D02*
X46870D01*
X46787Y34137D01*
Y33804D01*
X46870Y33720D01*
X47037D01*
X47120Y33804D01*
Y34137D01*
X47037Y34220D01*
X47287D02*
X47620D01*
X47454D01*
Y33720D01*
X50943Y33649D02*
X50610D01*
Y33400D01*
X50777D01*
X50610D01*
Y33150D01*
X51110D02*
Y33649D01*
X51360D01*
X51443Y33566D01*
Y33400D01*
X51360Y33316D01*
X51110D01*
X51943Y33566D02*
X51860Y33649D01*
X51693D01*
X51610Y33566D01*
Y33233D01*
X51693Y33150D01*
X51860D01*
X51943Y33233D01*
Y33400D01*
X51777D01*
X52110Y33150D02*
Y33483D01*
X52276Y33649D01*
X52443Y33483D01*
Y33150D01*
Y33400D01*
X52110D01*
X53443Y33649D02*
X53276D01*
X53359D01*
Y33233D01*
X53276Y33150D01*
X53193D01*
X53109Y33233D01*
X53609Y33649D02*
X53942D01*
X53776D01*
Y33150D01*
X54109D02*
Y33483D01*
X54276Y33649D01*
X54442Y33483D01*
Y33150D01*
Y33400D01*
X54109D01*
X54942Y33566D02*
X54859Y33649D01*
X54692D01*
X54609Y33566D01*
Y33233D01*
X54692Y33150D01*
X54859D01*
X54942Y33233D01*
Y33400D01*
X54776D01*
D36*
X76614Y57323D02*
X76914D01*
Y57173D01*
X76864Y57123D01*
X76764D01*
X76714Y57173D01*
Y57323D01*
Y57223D02*
X76614Y57123D01*
X76864Y57023D02*
X76914Y56973D01*
Y56873D01*
X76864Y56823D01*
X76814D01*
X76764Y56873D01*
Y56923D01*
Y56873D01*
X76714Y56823D01*
X76664D01*
X76614Y56873D01*
Y56973D01*
X76664Y57023D01*
X76914Y56523D02*
Y56723D01*
X76764D01*
X76814Y56623D01*
Y56573D01*
X76764Y56523D01*
X76664D01*
X76614Y56573D01*
Y56673D01*
X76664Y56723D01*
X36672Y42869D02*
Y43119D01*
X36622Y43169D01*
X36522D01*
X36472Y43119D01*
Y42869D01*
X36372Y43169D02*
X36272D01*
X36322D01*
Y42869D01*
X36372Y42919D01*
X36122Y43169D02*
Y43119D01*
X36072D01*
Y43169D01*
X36122D01*
X35872D02*
Y42969D01*
X35772Y42869D01*
X35672Y42969D01*
Y43169D01*
Y43019D01*
X35872D01*
X67126Y41713D02*
Y42013D01*
X67276D01*
X67326Y41963D01*
Y41863D01*
X67276Y41813D01*
X67126D01*
X67226D02*
X67326Y41713D01*
X67426Y41963D02*
X67476Y42013D01*
X67576D01*
X67626Y41963D01*
Y41913D01*
X67576Y41863D01*
X67526D01*
X67576D01*
X67626Y41813D01*
Y41763D01*
X67576Y41713D01*
X67476D01*
X67426Y41763D01*
X67876Y41713D02*
Y42013D01*
X67726Y41863D01*
X67926D01*
X68026Y41713D02*
Y41763D01*
X68076D01*
Y41713D01*
X68026D01*
X68276Y42013D02*
Y41713D01*
X68426D01*
X68476Y41763D01*
Y41963D01*
X68426Y42013D01*
X68276D01*
X55000Y41555D02*
Y41855D01*
X55150D01*
X55200Y41805D01*
Y41705D01*
X55150Y41655D01*
X55000D01*
X55100D02*
X55200Y41555D01*
X55300Y41805D02*
X55350Y41855D01*
X55450D01*
X55500Y41805D01*
Y41755D01*
X55450Y41705D01*
X55400D01*
X55450D01*
X55500Y41655D01*
Y41605D01*
X55450Y41555D01*
X55350D01*
X55300Y41605D01*
X55750Y41555D02*
Y41855D01*
X55600Y41705D01*
X55800D01*
X55900Y41555D02*
Y41605D01*
X55950D01*
Y41555D01*
X55900D01*
X56350Y41805D02*
X56300Y41855D01*
X56200D01*
X56150Y41805D01*
Y41605D01*
X56200Y41555D01*
X56300D01*
X56350Y41605D01*
X42933Y42224D02*
Y42524D01*
X43083D01*
X43133Y42474D01*
Y42374D01*
X43083Y42324D01*
X42933D01*
X43033D02*
X43133Y42224D01*
X43233Y42474D02*
X43283Y42524D01*
X43383D01*
X43433Y42474D01*
Y42424D01*
X43383Y42374D01*
X43333D01*
X43383D01*
X43433Y42324D01*
Y42274D01*
X43383Y42224D01*
X43283D01*
X43233Y42274D01*
X43683Y42224D02*
Y42524D01*
X43533Y42374D01*
X43733D01*
X43833Y42224D02*
Y42274D01*
X43883D01*
Y42224D01*
X43833D01*
X44083Y42524D02*
Y42224D01*
X44233D01*
X44283Y42274D01*
Y42324D01*
X44233Y42374D01*
X44083D01*
X44233D01*
X44283Y42424D01*
Y42474D01*
X44233Y42524D01*
X44083D01*
X31772Y40551D02*
X32072D01*
Y40401D01*
X32022Y40351D01*
X31922D01*
X31872Y40401D01*
Y40551D01*
Y40451D02*
X31772Y40351D01*
X32022Y40251D02*
X32072Y40201D01*
Y40101D01*
X32022Y40051D01*
X31972D01*
X31922Y40101D01*
Y40151D01*
Y40101D01*
X31872Y40051D01*
X31822D01*
X31772Y40101D01*
Y40201D01*
X31822Y40251D01*
X31772Y39801D02*
X32072D01*
X31922Y39951D01*
Y39751D01*
X31772Y39651D02*
X31822D01*
Y39601D01*
X31772D01*
Y39651D01*
Y39402D02*
X31972D01*
X32072Y39302D01*
X31972Y39202D01*
X31772D01*
X31922D01*
Y39402D01*
X24090Y42913D02*
X24340D01*
X24390Y42963D01*
Y43063D01*
X24340Y43113D01*
X24090D01*
X24390Y43213D02*
Y43313D01*
Y43263D01*
X24090D01*
X24140Y43213D01*
X24390Y43463D02*
Y43563D01*
Y43513D01*
X24090D01*
X24140Y43463D01*
X44195Y36819D02*
Y36570D01*
X44245Y36520D01*
X44345D01*
X44395Y36570D01*
Y36819D01*
X44495Y36570D02*
X44545Y36520D01*
X44645D01*
X44695Y36570D01*
Y36769D01*
X44645Y36819D01*
X44545D01*
X44495Y36769D01*
Y36720D01*
X44545Y36670D01*
X44695D01*
X23168Y30747D02*
X23418D01*
X23468Y30797D01*
Y30897D01*
X23418Y30947D01*
X23168D01*
X23218Y31047D02*
X23168Y31097D01*
Y31197D01*
X23218Y31247D01*
X23268D01*
X23318Y31197D01*
X23368Y31247D01*
X23418D01*
X23468Y31197D01*
Y31097D01*
X23418Y31047D01*
X23368D01*
X23318Y31097D01*
X23268Y31047D01*
X23218D01*
X23318Y31097D02*
Y31197D01*
X66398Y34607D02*
X66149D01*
X66099Y34557D01*
Y34457D01*
X66149Y34407D01*
X66398D01*
Y34307D02*
Y34107D01*
X66348D01*
X66149Y34307D01*
X66099D01*
X66174Y30935D02*
X66424D01*
X66474Y30985D01*
Y31085D01*
X66424Y31135D01*
X66174D01*
Y31435D02*
X66224Y31335D01*
X66324Y31235D01*
X66424D01*
X66474Y31285D01*
Y31385D01*
X66424Y31435D01*
X66374D01*
X66324Y31385D01*
Y31235D01*
X30465Y39081D02*
X30215D01*
X30165Y39031D01*
Y38931D01*
X30215Y38881D01*
X30465D01*
Y38581D02*
Y38781D01*
X30315D01*
X30365Y38681D01*
Y38631D01*
X30315Y38581D01*
X30215D01*
X30165Y38631D01*
Y38731D01*
X30215Y38781D01*
X27662Y49449D02*
X27412D01*
X27362Y49399D01*
Y49299D01*
X27412Y49249D01*
X27662D01*
X27362Y48999D02*
X27662D01*
X27512Y49149D01*
Y48949D01*
X32714Y41780D02*
Y41530D01*
X32764Y41480D01*
X32864D01*
X32914Y41530D01*
Y41780D01*
X33014Y41730D02*
X33064Y41780D01*
X33164D01*
X33214Y41730D01*
Y41680D01*
X33164Y41630D01*
X33114D01*
X33164D01*
X33214Y41580D01*
Y41530D01*
X33164Y41480D01*
X33064D01*
X33014Y41530D01*
X63953Y53175D02*
X64203D01*
X64253Y53225D01*
Y53325D01*
X64203Y53375D01*
X63953D01*
X64253Y53675D02*
Y53475D01*
X64053Y53675D01*
X64003D01*
X63953Y53625D01*
Y53525D01*
X64003Y53475D01*
X64253Y53775D02*
X64203D01*
Y53825D01*
X64253D01*
Y53775D01*
X63953Y54025D02*
X64253D01*
Y54175D01*
X64203Y54225D01*
X64003D01*
X63953Y54175D01*
Y54025D01*
X51827Y53175D02*
X52077D01*
X52127Y53225D01*
Y53325D01*
X52077Y53375D01*
X51827D01*
X52127Y53675D02*
Y53475D01*
X51927Y53675D01*
X51877D01*
X51827Y53625D01*
Y53525D01*
X51877Y53475D01*
X52127Y53775D02*
X52077D01*
Y53825D01*
X52127D01*
Y53775D01*
X51877Y54225D02*
X51827Y54175D01*
Y54075D01*
X51877Y54025D01*
X52077D01*
X52127Y54075D01*
Y54175D01*
X52077Y54225D01*
X27575Y53175D02*
X27825D01*
X27875Y53225D01*
Y53325D01*
X27825Y53375D01*
X27575D01*
X27875Y53675D02*
Y53475D01*
X27675Y53675D01*
X27625D01*
X27575Y53625D01*
Y53525D01*
X27625Y53475D01*
X27875Y53775D02*
X27825D01*
Y53825D01*
X27875D01*
Y53775D01*
Y54025D02*
X27675D01*
X27575Y54125D01*
X27675Y54225D01*
X27875D01*
X27725D01*
Y54025D01*
X73050Y42869D02*
Y43119D01*
X73000Y43169D01*
X72900D01*
X72850Y43119D01*
Y42869D01*
X72750Y43169D02*
X72650D01*
X72700D01*
Y42869D01*
X72750Y42919D01*
X72500Y43169D02*
Y43119D01*
X72450D01*
Y43169D01*
X72500D01*
X72250Y42869D02*
Y43169D01*
X72100D01*
X72050Y43119D01*
Y42919D01*
X72100Y42869D01*
X72250D01*
X60924D02*
Y43119D01*
X60874Y43169D01*
X60774D01*
X60724Y43119D01*
Y42869D01*
X60624Y43169D02*
X60524D01*
X60574D01*
Y42869D01*
X60624Y42919D01*
X60374Y43169D02*
Y43119D01*
X60324D01*
Y43169D01*
X60374D01*
X59924Y42919D02*
X59974Y42869D01*
X60074D01*
X60124Y42919D01*
Y43119D01*
X60074Y43169D01*
X59974D01*
X59924Y43119D01*
X56260Y34744D02*
X56560D01*
Y34594D01*
X56510Y34544D01*
X56410D01*
X56360Y34594D01*
Y34744D01*
Y34644D02*
X56260Y34544D01*
Y34244D02*
Y34444D01*
X56460Y34244D01*
X56510D01*
X56560Y34294D01*
Y34394D01*
X56510Y34444D01*
X56260Y34144D02*
Y34044D01*
Y34094D01*
X56560D01*
X56510Y34144D01*
X50591Y34764D02*
X50890D01*
Y34614D01*
X50840Y34564D01*
X50740D01*
X50691Y34614D01*
Y34764D01*
Y34664D02*
X50591Y34564D01*
Y34264D02*
Y34464D01*
X50790Y34264D01*
X50840D01*
X50890Y34314D01*
Y34414D01*
X50840Y34464D01*
Y34164D02*
X50890Y34114D01*
Y34014D01*
X50840Y33964D01*
X50641D01*
X50591Y34014D01*
Y34114D01*
X50641Y34164D01*
X50840D01*
X52815Y34744D02*
X53115D01*
Y34594D01*
X53065Y34544D01*
X52965D01*
X52915Y34594D01*
Y34744D01*
Y34644D02*
X52815Y34544D01*
Y34444D02*
Y34344D01*
Y34394D01*
X53115D01*
X53065Y34444D01*
X52865Y34194D02*
X52815Y34144D01*
Y34044D01*
X52865Y33994D01*
X53065D01*
X53115Y34044D01*
Y34144D01*
X53065Y34194D01*
X53015D01*
X52965Y34144D01*
Y33994D01*
X51732Y34744D02*
X52032D01*
Y34594D01*
X51982Y34544D01*
X51882D01*
X51832Y34594D01*
Y34744D01*
Y34644D02*
X51732Y34544D01*
Y34444D02*
Y34344D01*
Y34394D01*
X52032D01*
X51982Y34444D01*
Y34194D02*
X52032Y34144D01*
Y34044D01*
X51982Y33994D01*
X51932D01*
X51882Y34044D01*
X51832Y33994D01*
X51782D01*
X51732Y34044D01*
Y34144D01*
X51782Y34194D01*
X51832D01*
X51882Y34144D01*
X51932Y34194D01*
X51982D01*
X51882Y34144D02*
Y34044D01*
X53898Y34744D02*
X54198D01*
Y34594D01*
X54148Y34544D01*
X54048D01*
X53998Y34594D01*
Y34744D01*
Y34644D02*
X53898Y34544D01*
Y34444D02*
Y34344D01*
Y34394D01*
X54198D01*
X54148Y34444D01*
X54198Y34194D02*
Y33994D01*
X54148D01*
X53948Y34194D01*
X53898D01*
X55098Y34744D02*
X55398D01*
Y34594D01*
X55348Y34544D01*
X55248D01*
X55198Y34594D01*
Y34744D01*
Y34644D02*
X55098Y34544D01*
Y34444D02*
Y34344D01*
Y34394D01*
X55398D01*
X55348Y34444D01*
X55398Y33994D02*
X55348Y34094D01*
X55248Y34194D01*
X55148D01*
X55098Y34144D01*
Y34044D01*
X55148Y33994D01*
X55198D01*
X55248Y34044D01*
Y34194D01*
X68760Y37539D02*
X68460D01*
Y37689D01*
X68510Y37739D01*
X68610D01*
X68660Y37689D01*
Y37539D01*
Y37639D02*
X68760Y37739D01*
Y37839D02*
Y37939D01*
Y37889D01*
X68460D01*
X68510Y37839D01*
X68460Y38289D02*
Y38089D01*
X68610D01*
X68560Y38189D01*
Y38239D01*
X68610Y38289D01*
X68710D01*
X68760Y38239D01*
Y38139D01*
X68710Y38089D01*
X34429Y31594D02*
X34129D01*
Y31744D01*
X34179Y31794D01*
X34279D01*
X34329Y31744D01*
Y31594D01*
Y31694D02*
X34429Y31794D01*
Y31894D02*
Y31994D01*
Y31944D01*
X34129D01*
X34179Y31894D01*
X34429Y32294D02*
X34129D01*
X34279Y32144D01*
Y32344D01*
X35846Y31240D02*
Y30940D01*
X35697D01*
X35647Y30990D01*
Y31090D01*
X35697Y31140D01*
X35846D01*
X35746D02*
X35647Y31240D01*
X35547D02*
X35447D01*
X35497D01*
Y30940D01*
X35547Y30990D01*
X35297D02*
X35247Y30940D01*
X35147D01*
X35097Y30990D01*
Y31040D01*
X35147Y31090D01*
X35197D01*
X35147D01*
X35097Y31140D01*
Y31190D01*
X35147Y31240D01*
X35247D01*
X35297Y31190D01*
X36654Y32362D02*
X36953D01*
Y32212D01*
X36903Y32162D01*
X36803D01*
X36754Y32212D01*
Y32362D01*
Y32262D02*
X36654Y32162D01*
Y32062D02*
Y31962D01*
Y32012D01*
X36953D01*
X36903Y32062D01*
X36654Y31612D02*
Y31812D01*
X36853Y31612D01*
X36903D01*
X36953Y31662D01*
Y31762D01*
X36903Y31812D01*
X37933Y32343D02*
X38233D01*
Y32193D01*
X38183Y32143D01*
X38083D01*
X38033Y32193D01*
Y32343D01*
Y32243D02*
X37933Y32143D01*
Y32043D02*
Y31943D01*
Y31993D01*
X38233D01*
X38183Y32043D01*
X37933Y31793D02*
Y31693D01*
Y31743D01*
X38233D01*
X38183Y31793D01*
X25768Y39272D02*
X26068D01*
Y39122D01*
X26018Y39072D01*
X25918D01*
X25868Y39122D01*
Y39272D01*
Y39172D02*
X25768Y39072D01*
Y38972D02*
Y38872D01*
Y38922D01*
X26068D01*
X26018Y38972D01*
Y38722D02*
X26068Y38672D01*
Y38572D01*
X26018Y38522D01*
X25818D01*
X25768Y38572D01*
Y38672D01*
X25818Y38722D01*
X26018D01*
X25748Y37992D02*
X26048D01*
Y37842D01*
X25998Y37792D01*
X25898D01*
X25848Y37842D01*
Y37992D01*
Y37892D02*
X25748Y37792D01*
X25798Y37692D02*
X25748Y37642D01*
Y37542D01*
X25798Y37492D01*
X25998D01*
X26048Y37542D01*
Y37642D01*
X25998Y37692D01*
X25948D01*
X25898Y37642D01*
Y37492D01*
X25748Y36909D02*
X26048D01*
Y36760D01*
X25998Y36710D01*
X25898D01*
X25848Y36760D01*
Y36909D01*
Y36809D02*
X25748Y36710D01*
X25998Y36610D02*
X26048Y36560D01*
Y36460D01*
X25998Y36410D01*
X25948D01*
X25898Y36460D01*
X25848Y36410D01*
X25798D01*
X25748Y36460D01*
Y36560D01*
X25798Y36610D01*
X25848D01*
X25898Y36560D01*
X25948Y36610D01*
X25998D01*
X25898Y36560D02*
Y36460D01*
X23917Y55394D02*
X23617D01*
Y55544D01*
X23667Y55594D01*
X23767D01*
X23817Y55544D01*
Y55394D01*
Y55494D02*
X23917Y55594D01*
X23617Y55694D02*
Y55894D01*
X23667D01*
X23867Y55694D01*
X23917D01*
X74685Y47047D02*
X74985D01*
Y46897D01*
X74935Y46847D01*
X74835D01*
X74785Y46897D01*
Y47047D01*
Y46947D02*
X74685Y46847D01*
X74985Y46747D02*
Y46547D01*
X74935D01*
X74735Y46747D01*
X74685D01*
Y46447D02*
X74735D01*
Y46397D01*
X74685D01*
Y46447D01*
X74985Y46198D02*
X74685D01*
Y46048D01*
X74735Y45998D01*
X74935D01*
X74985Y46048D01*
Y46198D01*
X62559Y47047D02*
X62859D01*
Y46897D01*
X62809Y46847D01*
X62709D01*
X62659Y46897D01*
Y47047D01*
Y46947D02*
X62559Y46847D01*
X62859Y46747D02*
Y46547D01*
X62809D01*
X62609Y46747D01*
X62559D01*
Y46447D02*
X62609D01*
Y46397D01*
X62559D01*
Y46447D01*
X62809Y45998D02*
X62859Y46048D01*
Y46148D01*
X62809Y46198D01*
X62609D01*
X62559Y46148D01*
Y46048D01*
X62609Y45998D01*
X38307Y47047D02*
X38607D01*
Y46897D01*
X38557Y46847D01*
X38457D01*
X38407Y46897D01*
Y47047D01*
Y46947D02*
X38307Y46847D01*
X38607Y46747D02*
Y46547D01*
X38557D01*
X38357Y46747D01*
X38307D01*
Y46447D02*
X38357D01*
Y46397D01*
X38307D01*
Y46447D01*
Y46198D02*
X38507D01*
X38607Y46098D01*
X38507Y45998D01*
X38307D01*
X38457D01*
Y46198D01*
X63543Y43701D02*
X63243D01*
Y43851D01*
X63293Y43901D01*
X63393D01*
X63443Y43851D01*
Y43701D01*
Y43801D02*
X63543Y43901D01*
X63243Y44201D02*
X63293Y44101D01*
X63393Y44001D01*
X63493D01*
X63543Y44051D01*
Y44151D01*
X63493Y44201D01*
X63443D01*
X63393Y44151D01*
Y44001D01*
X63543Y44301D02*
X63493D01*
Y44351D01*
X63543D01*
Y44301D01*
X63243Y44551D02*
X63543D01*
Y44700D01*
X63493Y44750D01*
X63293D01*
X63243Y44700D01*
Y44551D01*
X51417Y43701D02*
X51117D01*
Y43851D01*
X51167Y43901D01*
X51267D01*
X51317Y43851D01*
Y43701D01*
Y43801D02*
X51417Y43901D01*
X51117Y44201D02*
X51167Y44101D01*
X51267Y44001D01*
X51367D01*
X51417Y44051D01*
Y44151D01*
X51367Y44201D01*
X51317D01*
X51267Y44151D01*
Y44001D01*
X51417Y44301D02*
X51367D01*
Y44351D01*
X51417D01*
Y44301D01*
X51167Y44750D02*
X51117Y44700D01*
Y44601D01*
X51167Y44551D01*
X51367D01*
X51417Y44601D01*
Y44700D01*
X51367Y44750D01*
X27913Y44843D02*
X28213D01*
Y44693D01*
X28163Y44643D01*
X28063D01*
X28013Y44693D01*
Y44843D01*
Y44743D02*
X27913Y44643D01*
X28213Y44343D02*
X28163Y44443D01*
X28063Y44543D01*
X27963D01*
X27913Y44493D01*
Y44393D01*
X27963Y44343D01*
X28013D01*
X28063Y44393D01*
Y44543D01*
X27913Y44243D02*
X27963D01*
Y44193D01*
X27913D01*
Y44243D01*
Y43993D02*
X28113D01*
X28213Y43893D01*
X28113Y43793D01*
X27913D01*
X28063D01*
Y43993D01*
X74409Y58858D02*
X74709D01*
Y58708D01*
X74659Y58658D01*
X74559D01*
X74509Y58708D01*
Y58858D01*
Y58758D02*
X74409Y58658D01*
X74709Y58358D02*
Y58558D01*
X74559D01*
X74609Y58458D01*
Y58408D01*
X74559Y58358D01*
X74459D01*
X74409Y58408D01*
Y58508D01*
X74459Y58558D01*
X74409Y58258D02*
X74459D01*
Y58208D01*
X74409D01*
Y58258D01*
X74709Y58009D02*
X74409D01*
Y57859D01*
X74459Y57809D01*
X74659D01*
X74709Y57859D01*
Y58009D01*
X62283Y58858D02*
X62583D01*
Y58708D01*
X62533Y58658D01*
X62433D01*
X62383Y58708D01*
Y58858D01*
Y58758D02*
X62283Y58658D01*
X62583Y58358D02*
Y58558D01*
X62433D01*
X62483Y58458D01*
Y58408D01*
X62433Y58358D01*
X62333D01*
X62283Y58408D01*
Y58508D01*
X62333Y58558D01*
X62283Y58258D02*
X62333D01*
Y58208D01*
X62283D01*
Y58258D01*
X62533Y57809D02*
X62583Y57859D01*
Y57959D01*
X62533Y58009D01*
X62333D01*
X62283Y57959D01*
Y57859D01*
X62333Y57809D01*
X38031Y58858D02*
X38331D01*
Y58708D01*
X38281Y58658D01*
X38181D01*
X38131Y58708D01*
Y58858D01*
Y58758D02*
X38031Y58658D01*
X38331Y58358D02*
Y58558D01*
X38181D01*
X38231Y58458D01*
Y58408D01*
X38181Y58358D01*
X38081D01*
X38031Y58408D01*
Y58508D01*
X38081Y58558D01*
X38031Y58258D02*
X38081D01*
Y58208D01*
X38031D01*
Y58258D01*
Y58009D02*
X38231D01*
X38331Y57909D01*
X38231Y57809D01*
X38031D01*
X38181D01*
Y58009D01*
X74409Y55866D02*
X74709D01*
Y55716D01*
X74659Y55666D01*
X74559D01*
X74509Y55716D01*
Y55866D01*
Y55766D02*
X74409Y55666D01*
Y55416D02*
X74709D01*
X74559Y55566D01*
Y55366D01*
X74409Y55266D02*
X74459D01*
Y55216D01*
X74409D01*
Y55266D01*
X74709Y55016D02*
X74409D01*
Y54866D01*
X74459Y54816D01*
X74659D01*
X74709Y54866D01*
Y55016D01*
X62283Y55866D02*
X62583D01*
Y55716D01*
X62533Y55666D01*
X62433D01*
X62383Y55716D01*
Y55866D01*
Y55766D02*
X62283Y55666D01*
Y55416D02*
X62583D01*
X62433Y55566D01*
Y55366D01*
X62283Y55266D02*
X62333D01*
Y55216D01*
X62283D01*
Y55266D01*
X62533Y54816D02*
X62583Y54866D01*
Y54966D01*
X62533Y55016D01*
X62333D01*
X62283Y54966D01*
Y54866D01*
X62333Y54816D01*
X38031Y55866D02*
X38331D01*
Y55716D01*
X38281Y55666D01*
X38181D01*
X38131Y55716D01*
Y55866D01*
Y55766D02*
X38031Y55666D01*
Y55416D02*
X38331D01*
X38181Y55566D01*
Y55366D01*
X38031Y55266D02*
X38081D01*
Y55216D01*
X38031D01*
Y55266D01*
Y55016D02*
X38231D01*
X38331Y54916D01*
X38231Y54816D01*
X38031D01*
X38181D01*
Y55016D01*
X74449Y57323D02*
X74749D01*
Y57173D01*
X74699Y57123D01*
X74599D01*
X74549Y57173D01*
Y57323D01*
Y57223D02*
X74449Y57123D01*
X74699Y57023D02*
X74749Y56973D01*
Y56873D01*
X74699Y56823D01*
X74649D01*
X74599Y56873D01*
Y56923D01*
Y56873D01*
X74549Y56823D01*
X74499D01*
X74449Y56873D01*
Y56973D01*
X74499Y57023D01*
X74449Y56723D02*
X74499D01*
Y56673D01*
X74449D01*
Y56723D01*
X74749Y56473D02*
X74449D01*
Y56323D01*
X74499Y56273D01*
X74699D01*
X74749Y56323D01*
Y56473D01*
X62323Y57323D02*
X62623D01*
Y57173D01*
X62573Y57123D01*
X62473D01*
X62423Y57173D01*
Y57323D01*
Y57223D02*
X62323Y57123D01*
X62573Y57023D02*
X62623Y56973D01*
Y56873D01*
X62573Y56823D01*
X62523D01*
X62473Y56873D01*
Y56923D01*
Y56873D01*
X62423Y56823D01*
X62373D01*
X62323Y56873D01*
Y56973D01*
X62373Y57023D01*
X62323Y56723D02*
X62373D01*
Y56673D01*
X62323D01*
Y56723D01*
X62573Y56273D02*
X62623Y56323D01*
Y56423D01*
X62573Y56473D01*
X62373D01*
X62323Y56423D01*
Y56323D01*
X62373Y56273D01*
X38071Y57323D02*
X38371D01*
Y57173D01*
X38321Y57123D01*
X38221D01*
X38171Y57173D01*
Y57323D01*
Y57223D02*
X38071Y57123D01*
X38321Y57023D02*
X38371Y56973D01*
Y56873D01*
X38321Y56823D01*
X38271D01*
X38221Y56873D01*
Y56923D01*
Y56873D01*
X38171Y56823D01*
X38121D01*
X38071Y56873D01*
Y56973D01*
X38121Y57023D01*
X38071Y56723D02*
X38121D01*
Y56673D01*
X38071D01*
Y56723D01*
Y56473D02*
X38271D01*
X38371Y56373D01*
X38271Y56273D01*
X38071D01*
X38221D01*
Y56473D01*
X74449Y54213D02*
X74749D01*
Y54063D01*
X74699Y54013D01*
X74599D01*
X74549Y54063D01*
Y54213D01*
Y54113D02*
X74449Y54013D01*
Y53713D02*
Y53913D01*
X74649Y53713D01*
X74699D01*
X74749Y53763D01*
Y53863D01*
X74699Y53913D01*
X74449Y53613D02*
X74499D01*
Y53563D01*
X74449D01*
Y53613D01*
X74749Y53363D02*
X74449D01*
Y53213D01*
X74499Y53163D01*
X74699D01*
X74749Y53213D01*
Y53363D01*
X62323Y54213D02*
X62623D01*
Y54063D01*
X62573Y54013D01*
X62473D01*
X62423Y54063D01*
Y54213D01*
Y54113D02*
X62323Y54013D01*
Y53713D02*
Y53913D01*
X62523Y53713D01*
X62573D01*
X62623Y53763D01*
Y53863D01*
X62573Y53913D01*
X62323Y53613D02*
X62373D01*
Y53563D01*
X62323D01*
Y53613D01*
X62573Y53163D02*
X62623Y53213D01*
Y53313D01*
X62573Y53363D01*
X62373D01*
X62323Y53313D01*
Y53213D01*
X62373Y53163D01*
X38071Y54213D02*
X38371D01*
Y54063D01*
X38321Y54013D01*
X38221D01*
X38171Y54063D01*
Y54213D01*
Y54113D02*
X38071Y54013D01*
Y53713D02*
Y53913D01*
X38271Y53713D01*
X38321D01*
X38371Y53763D01*
Y53863D01*
X38321Y53913D01*
X38071Y53613D02*
X38121D01*
Y53563D01*
X38071D01*
Y53613D01*
Y53363D02*
X38271D01*
X38371Y53263D01*
X38271Y53163D01*
X38071D01*
X38221D01*
Y53363D01*
X73425Y45984D02*
X73125D01*
Y46134D01*
X73175Y46184D01*
X73275D01*
X73325Y46134D01*
Y45984D01*
Y46084D02*
X73425Y46184D01*
Y46284D02*
Y46384D01*
Y46334D01*
X73125D01*
X73175Y46284D01*
X73425Y46534D02*
X73375D01*
Y46584D01*
X73425D01*
Y46534D01*
X73125Y46784D02*
X73425D01*
Y46934D01*
X73375Y46984D01*
X73175D01*
X73125Y46934D01*
Y46784D01*
X61299Y45984D02*
X60999D01*
Y46134D01*
X61049Y46184D01*
X61149D01*
X61199Y46134D01*
Y45984D01*
Y46084D02*
X61299Y46184D01*
Y46284D02*
Y46384D01*
Y46334D01*
X60999D01*
X61049Y46284D01*
X61299Y46534D02*
X61249D01*
Y46584D01*
X61299D01*
Y46534D01*
X61049Y46984D02*
X60999Y46934D01*
Y46834D01*
X61049Y46784D01*
X61249D01*
X61299Y46834D01*
Y46934D01*
X61249Y46984D01*
X37047Y45984D02*
X36747D01*
Y46134D01*
X36797Y46184D01*
X36897D01*
X36947Y46134D01*
Y45984D01*
Y46084D02*
X37047Y46184D01*
Y46284D02*
Y46384D01*
Y46334D01*
X36747D01*
X36797Y46284D01*
X37047Y46534D02*
X36997D01*
Y46584D01*
X37047D01*
Y46534D01*
Y46784D02*
X36847D01*
X36747Y46884D01*
X36847Y46984D01*
X37047D01*
X36897D01*
Y46784D01*
X27087Y58878D02*
X27387D01*
Y58728D01*
X27337Y58678D01*
X27237D01*
X27187Y58728D01*
Y58878D01*
X27087Y58378D02*
Y58578D01*
X27287Y58378D01*
X27337D01*
X27387Y58428D01*
Y58528D01*
X27337Y58578D01*
X73307Y49764D02*
X73007D01*
Y49914D01*
X73057Y49964D01*
X73157D01*
X73207Y49914D01*
Y49764D01*
X73307Y50064D02*
Y50164D01*
Y50114D01*
X73007D01*
X73057Y50064D01*
X73307Y50314D02*
X73257D01*
Y50364D01*
X73307D01*
Y50314D01*
X73007Y50564D02*
X73307D01*
Y50713D01*
X73257Y50763D01*
X73057D01*
X73007Y50713D01*
Y50564D01*
X61181Y49764D02*
X60881D01*
Y49914D01*
X60931Y49964D01*
X61031D01*
X61081Y49914D01*
Y49764D01*
X61181Y50064D02*
Y50164D01*
Y50114D01*
X60881D01*
X60931Y50064D01*
X61181Y50314D02*
X61131D01*
Y50364D01*
X61181D01*
Y50314D01*
X60931Y50763D02*
X60881Y50713D01*
Y50613D01*
X60931Y50564D01*
X61131D01*
X61181Y50613D01*
Y50713D01*
X61131Y50763D01*
X36929Y49764D02*
X36629D01*
Y49914D01*
X36679Y49964D01*
X36779D01*
X36829Y49914D01*
Y49764D01*
X36929Y50064D02*
Y50164D01*
Y50114D01*
X36629D01*
X36679Y50064D01*
X36929Y50314D02*
X36879D01*
Y50364D01*
X36929D01*
Y50314D01*
Y50564D02*
X36729D01*
X36629Y50663D01*
X36729Y50763D01*
X36929D01*
X36779D01*
Y50564D01*
X38381Y30839D02*
Y30739D01*
X38431Y30689D01*
X38631D01*
X38681Y30739D01*
Y30839D01*
X38631Y30889D01*
X38431D01*
X38381Y30839D01*
X38681Y30989D02*
Y31089D01*
Y31039D01*
X38381D01*
X38431Y30989D01*
X57136Y32710D02*
Y32810D01*
Y32760D01*
X56886D01*
X56836Y32810D01*
Y32859D01*
X56886Y32909D01*
X56836Y32610D02*
X57136D01*
Y32460D01*
X57086Y32410D01*
X56986D01*
X56936Y32460D01*
Y32610D01*
X56836Y32310D02*
Y32210D01*
Y32260D01*
X57136D01*
X57086Y32310D01*
X23799Y34473D02*
X23899D01*
X23849D01*
Y34173D01*
X23799D01*
X23899D01*
X24199Y34473D02*
X24099D01*
X24049Y34423D01*
Y34223D01*
X24099Y34173D01*
X24199D01*
X24249Y34223D01*
Y34423D01*
X24199Y34473D01*
X24349Y34173D02*
X24449D01*
X24399D01*
Y34473D01*
X24349Y34423D01*
X27441Y43627D02*
Y43327D01*
X27591D01*
X27641Y43377D01*
Y43577D01*
X27591Y43627D01*
X27441D01*
X27941Y43577D02*
X27891Y43627D01*
X27791D01*
X27741Y43577D01*
Y43527D01*
X27791Y43477D01*
X27891D01*
X27941Y43427D01*
Y43377D01*
X27891Y43327D01*
X27791D01*
X27741Y43377D01*
X28241Y43627D02*
X28041D01*
Y43477D01*
X28141Y43527D01*
X28191D01*
X28241Y43477D01*
Y43377D01*
X28191Y43327D01*
X28091D01*
X28041Y43377D01*
X63263Y42205D02*
X63563D01*
Y42355D01*
X63513Y42405D01*
X63313D01*
X63263Y42355D01*
Y42205D01*
X63313Y42705D02*
X63263Y42655D01*
Y42555D01*
X63313Y42505D01*
X63363D01*
X63413Y42555D01*
Y42655D01*
X63463Y42705D01*
X63513D01*
X63563Y42655D01*
Y42555D01*
X63513Y42505D01*
X63563Y42954D02*
X63263D01*
X63413Y42805D01*
Y43004D01*
X51137Y42185D02*
X51437D01*
Y42335D01*
X51387Y42385D01*
X51187D01*
X51137Y42335D01*
Y42185D01*
X51187Y42685D02*
X51137Y42635D01*
Y42535D01*
X51187Y42485D01*
X51237D01*
X51287Y42535D01*
Y42635D01*
X51337Y42685D01*
X51387D01*
X51437Y42635D01*
Y42535D01*
X51387Y42485D01*
X51187Y42785D02*
X51137Y42835D01*
Y42935D01*
X51187Y42985D01*
X51237D01*
X51287Y42935D01*
Y42885D01*
Y42935D01*
X51337Y42985D01*
X51387D01*
X51437Y42935D01*
Y42835D01*
X51387Y42785D01*
X39070Y42224D02*
X39370D01*
Y42374D01*
X39320Y42424D01*
X39120D01*
X39070Y42374D01*
Y42224D01*
X39120Y42724D02*
X39070Y42674D01*
Y42574D01*
X39120Y42524D01*
X39170D01*
X39220Y42574D01*
Y42674D01*
X39270Y42724D01*
X39320D01*
X39370Y42674D01*
Y42574D01*
X39320Y42524D01*
X39370Y43024D02*
Y42824D01*
X39170Y43024D01*
X39120D01*
X39070Y42974D01*
Y42874D01*
X39120Y42824D01*
X64788Y46890D02*
X64488D01*
Y46740D01*
X64538Y46690D01*
X64738D01*
X64788Y46740D01*
Y46890D01*
X64738Y46390D02*
X64788Y46440D01*
Y46540D01*
X64738Y46590D01*
X64688D01*
X64638Y46540D01*
Y46440D01*
X64588Y46390D01*
X64538D01*
X64488Y46440D01*
Y46540D01*
X64538Y46590D01*
X64488Y46290D02*
Y46190D01*
Y46240D01*
X64788D01*
X64738Y46290D01*
X64488Y46040D02*
X64538D01*
Y45990D01*
X64488D01*
Y46040D01*
X64788Y45790D02*
X64488D01*
Y45640D01*
X64538Y45590D01*
X64738D01*
X64788Y45640D01*
Y45790D01*
X52662Y46890D02*
X52362D01*
Y46740D01*
X52412Y46690D01*
X52612D01*
X52662Y46740D01*
Y46890D01*
X52612Y46390D02*
X52662Y46440D01*
Y46540D01*
X52612Y46590D01*
X52562D01*
X52512Y46540D01*
Y46440D01*
X52462Y46390D01*
X52412D01*
X52362Y46440D01*
Y46540D01*
X52412Y46590D01*
X52362Y46290D02*
Y46190D01*
Y46240D01*
X52662D01*
X52612Y46290D01*
X52362Y46040D02*
X52412D01*
Y45990D01*
X52362D01*
Y46040D01*
X52612Y45590D02*
X52662Y45640D01*
Y45740D01*
X52612Y45790D01*
X52412D01*
X52362Y45740D01*
Y45640D01*
X52412Y45590D01*
X28410Y46890D02*
X28110D01*
Y46740D01*
X28160Y46690D01*
X28360D01*
X28410Y46740D01*
Y46890D01*
X28360Y46390D02*
X28410Y46440D01*
Y46540D01*
X28360Y46590D01*
X28310D01*
X28260Y46540D01*
Y46440D01*
X28210Y46390D01*
X28160D01*
X28110Y46440D01*
Y46540D01*
X28160Y46590D01*
X28110Y46290D02*
Y46190D01*
Y46240D01*
X28410D01*
X28360Y46290D01*
X28110Y46040D02*
X28160D01*
Y45990D01*
X28110D01*
Y46040D01*
Y45790D02*
X28310D01*
X28410Y45690D01*
X28310Y45590D01*
X28110D01*
X28260D01*
Y45790D01*
X33931Y32576D02*
X33981Y32626D01*
Y32726D01*
X33931Y32776D01*
X33731D01*
X33681Y32726D01*
Y32626D01*
X33731Y32576D01*
X33681Y32276D02*
Y32476D01*
X33881Y32276D01*
X33931D01*
X33981Y32326D01*
Y32426D01*
X33931Y32476D01*
Y32176D02*
X33981Y32126D01*
Y32026D01*
X33931Y31976D01*
X33881D01*
X33831Y32026D01*
X33781Y31976D01*
X33731D01*
X33681Y32026D01*
Y32126D01*
X33731Y32176D01*
X33781D01*
X33831Y32126D01*
X33881Y32176D01*
X33931D01*
X33831Y32126D02*
Y32026D01*
X33951Y31532D02*
X34001Y31582D01*
Y31682D01*
X33951Y31732D01*
X33751D01*
X33701Y31682D01*
Y31582D01*
X33751Y31532D01*
X33701Y31232D02*
Y31432D01*
X33901Y31232D01*
X33951D01*
X34001Y31282D01*
Y31382D01*
X33951Y31432D01*
X34001Y31132D02*
Y30933D01*
X33951D01*
X33751Y31132D01*
X33701D01*
X78222Y33521D02*
X78272Y33571D01*
Y33670D01*
X78222Y33720D01*
X78022D01*
X77972Y33670D01*
Y33571D01*
X78022Y33521D01*
X77972Y33221D02*
Y33421D01*
X78172Y33221D01*
X78222D01*
X78272Y33271D01*
Y33371D01*
X78222Y33421D01*
X78272Y32921D02*
X78222Y33021D01*
X78122Y33121D01*
X78022D01*
X77972Y33071D01*
Y32971D01*
X78022Y32921D01*
X78072D01*
X78122Y32971D01*
Y33121D01*
X75151Y44367D02*
X75201Y44417D01*
Y44517D01*
X75151Y44567D01*
X74952D01*
X74902Y44517D01*
Y44417D01*
X74952Y44367D01*
X74902Y44067D02*
Y44267D01*
X75102Y44067D01*
X75151D01*
X75201Y44117D01*
Y44217D01*
X75151Y44267D01*
Y43967D02*
X75201Y43917D01*
Y43817D01*
X75151Y43767D01*
X74952D01*
X74902Y43817D01*
Y43917D01*
X74952Y43967D01*
X75151D01*
X62326Y49344D02*
X62276Y49394D01*
X62176D01*
X62126Y49344D01*
Y49144D01*
X62176Y49094D01*
X62276D01*
X62326Y49144D01*
X62426Y49094D02*
X62526D01*
X62476D01*
Y49394D01*
X62426Y49344D01*
X62676Y49144D02*
X62726Y49094D01*
X62826D01*
X62876Y49144D01*
Y49344D01*
X62826Y49394D01*
X62726D01*
X62676Y49344D01*
Y49294D01*
X62726Y49244D01*
X62876D01*
X37562Y49384D02*
X37512Y49434D01*
X37412D01*
X37362Y49384D01*
Y49184D01*
X37412Y49134D01*
X37512D01*
X37562Y49184D01*
X37662Y49134D02*
X37762D01*
X37712D01*
Y49434D01*
X37662Y49384D01*
X37912D02*
X37962Y49434D01*
X38062D01*
X38112Y49384D01*
Y49334D01*
X38062Y49284D01*
X38112Y49234D01*
Y49184D01*
X38062Y49134D01*
X37962D01*
X37912Y49184D01*
Y49234D01*
X37962Y49284D01*
X37912Y49334D01*
Y49384D01*
X37962Y49284D02*
X38062D01*
X31569Y42103D02*
X31619Y42153D01*
Y42253D01*
X31569Y42303D01*
X31369D01*
X31319Y42253D01*
Y42153D01*
X31369Y42103D01*
X31319Y42003D02*
Y41903D01*
Y41953D01*
X31619D01*
X31569Y42003D01*
X31619Y41753D02*
Y41553D01*
X31569D01*
X31369Y41753D01*
X31319D01*
X57575Y31025D02*
X57625Y30975D01*
X57725D01*
X57775Y31025D01*
Y31225D01*
X57725Y31275D01*
X57625D01*
X57575Y31225D01*
X57475Y31275D02*
X57375D01*
X57425D01*
Y30975D01*
X57475Y31025D01*
X57026Y30975D02*
X57126Y31025D01*
X57225Y31125D01*
Y31225D01*
X57176Y31275D01*
X57076D01*
X57026Y31225D01*
Y31175D01*
X57076Y31125D01*
X57225D01*
X59821Y35331D02*
X59871Y35381D01*
Y35481D01*
X59821Y35531D01*
X59621D01*
X59571Y35481D01*
Y35381D01*
X59621Y35331D01*
X59571Y35231D02*
Y35131D01*
Y35181D01*
X59871D01*
X59821Y35231D01*
X59871Y34781D02*
Y34981D01*
X59721D01*
X59771Y34881D01*
Y34831D01*
X59721Y34781D01*
X59621D01*
X59571Y34831D01*
Y34931D01*
X59621Y34981D01*
X40536Y46890D02*
X40236D01*
Y46740D01*
X40286Y46690D01*
X40486D01*
X40536Y46740D01*
Y46890D01*
X40486Y46390D02*
X40536Y46440D01*
Y46540D01*
X40486Y46590D01*
X40436D01*
X40386Y46540D01*
Y46440D01*
X40336Y46390D01*
X40286D01*
X40236Y46440D01*
Y46540D01*
X40286Y46590D01*
X40236Y46290D02*
Y46190D01*
Y46240D01*
X40536D01*
X40486Y46290D01*
X40236Y46040D02*
X40286D01*
Y45990D01*
X40236D01*
Y46040D01*
X40536Y45790D02*
X40236D01*
Y45640D01*
X40286Y45590D01*
X40336D01*
X40386Y45640D01*
Y45790D01*
Y45640D01*
X40436Y45590D01*
X40486D01*
X40536Y45640D01*
Y45790D01*
X49055Y49764D02*
X48755D01*
Y49914D01*
X48805Y49964D01*
X48905D01*
X48955Y49914D01*
Y49764D01*
X49055Y50064D02*
Y50164D01*
Y50114D01*
X48755D01*
X48805Y50064D01*
X49055Y50314D02*
X49005D01*
Y50364D01*
X49055D01*
Y50314D01*
X48755Y50564D02*
X49055D01*
Y50713D01*
X49005Y50763D01*
X48955D01*
X48905Y50713D01*
Y50564D01*
Y50713D01*
X48855Y50763D01*
X48805D01*
X48755Y50713D01*
Y50564D01*
X49173Y45984D02*
X48873D01*
Y46134D01*
X48923Y46184D01*
X49023D01*
X49073Y46134D01*
Y45984D01*
Y46084D02*
X49173Y46184D01*
Y46284D02*
Y46384D01*
Y46334D01*
X48873D01*
X48923Y46284D01*
X49173Y46534D02*
X49123D01*
Y46584D01*
X49173D01*
Y46534D01*
X48873Y46784D02*
X49173D01*
Y46934D01*
X49123Y46984D01*
X49073D01*
X49023Y46934D01*
Y46784D01*
Y46934D01*
X48973Y46984D01*
X48923D01*
X48873Y46934D01*
Y46784D01*
X50197Y54213D02*
X50497D01*
Y54063D01*
X50447Y54013D01*
X50347D01*
X50297Y54063D01*
Y54213D01*
Y54113D02*
X50197Y54013D01*
Y53713D02*
Y53913D01*
X50397Y53713D01*
X50447D01*
X50497Y53763D01*
Y53863D01*
X50447Y53913D01*
X50197Y53613D02*
X50247D01*
Y53563D01*
X50197D01*
Y53613D01*
X50497Y53363D02*
X50197D01*
Y53213D01*
X50247Y53163D01*
X50297D01*
X50347Y53213D01*
Y53363D01*
Y53213D01*
X50397Y53163D01*
X50447D01*
X50497Y53213D01*
Y53363D01*
X50197Y57323D02*
X50497D01*
Y57173D01*
X50447Y57123D01*
X50347D01*
X50297Y57173D01*
Y57323D01*
Y57223D02*
X50197Y57123D01*
X50447Y57023D02*
X50497Y56973D01*
Y56873D01*
X50447Y56823D01*
X50397D01*
X50347Y56873D01*
Y56923D01*
Y56873D01*
X50297Y56823D01*
X50247D01*
X50197Y56873D01*
Y56973D01*
X50247Y57023D01*
X50197Y56723D02*
X50247D01*
Y56673D01*
X50197D01*
Y56723D01*
X50497Y56473D02*
X50197D01*
Y56323D01*
X50247Y56273D01*
X50297D01*
X50347Y56323D01*
Y56473D01*
Y56323D01*
X50397Y56273D01*
X50447D01*
X50497Y56323D01*
Y56473D01*
X50157Y55866D02*
X50457D01*
Y55716D01*
X50407Y55666D01*
X50307D01*
X50257Y55716D01*
Y55866D01*
Y55766D02*
X50157Y55666D01*
Y55416D02*
X50457D01*
X50307Y55566D01*
Y55366D01*
X50157Y55266D02*
X50207D01*
Y55216D01*
X50157D01*
Y55266D01*
X50457Y55016D02*
X50157D01*
Y54866D01*
X50207Y54816D01*
X50257D01*
X50307Y54866D01*
Y55016D01*
Y54866D01*
X50357Y54816D01*
X50407D01*
X50457Y54866D01*
Y55016D01*
X50157Y58858D02*
X50457D01*
Y58708D01*
X50407Y58658D01*
X50307D01*
X50257Y58708D01*
Y58858D01*
Y58758D02*
X50157Y58658D01*
X50457Y58358D02*
Y58558D01*
X50307D01*
X50357Y58458D01*
Y58408D01*
X50307Y58358D01*
X50207D01*
X50157Y58408D01*
Y58508D01*
X50207Y58558D01*
X50157Y58258D02*
X50207D01*
Y58208D01*
X50157D01*
Y58258D01*
X50457Y58009D02*
X50157D01*
Y57859D01*
X50207Y57809D01*
X50257D01*
X50307Y57859D01*
Y58009D01*
Y57859D01*
X50357Y57809D01*
X50407D01*
X50457Y57859D01*
Y58009D01*
X39291Y43701D02*
X38991D01*
Y43851D01*
X39041Y43901D01*
X39141D01*
X39191Y43851D01*
Y43701D01*
Y43801D02*
X39291Y43901D01*
X38991Y44201D02*
X39041Y44101D01*
X39141Y44001D01*
X39241D01*
X39291Y44051D01*
Y44151D01*
X39241Y44201D01*
X39191D01*
X39141Y44151D01*
Y44001D01*
X39291Y44301D02*
X39241D01*
Y44351D01*
X39291D01*
Y44301D01*
X38991Y44551D02*
X39291D01*
Y44700D01*
X39241Y44750D01*
X39191D01*
X39141Y44700D01*
Y44551D01*
Y44700D01*
X39091Y44750D01*
X39041D01*
X38991Y44700D01*
Y44551D01*
X50433Y47047D02*
X50733D01*
Y46897D01*
X50683Y46847D01*
X50583D01*
X50533Y46897D01*
Y47047D01*
Y46947D02*
X50433Y46847D01*
X50733Y46747D02*
Y46547D01*
X50683D01*
X50483Y46747D01*
X50433D01*
Y46447D02*
X50483D01*
Y46397D01*
X50433D01*
Y46447D01*
X50733Y46198D02*
X50433D01*
Y46048D01*
X50483Y45998D01*
X50533D01*
X50583Y46048D01*
Y46198D01*
Y46048D01*
X50633Y45998D01*
X50683D01*
X50733Y46048D01*
Y46198D01*
X48798Y42869D02*
Y43119D01*
X48748Y43169D01*
X48648D01*
X48598Y43119D01*
Y42869D01*
X48498Y43169D02*
X48398D01*
X48448D01*
Y42869D01*
X48498Y42919D01*
X48248Y43169D02*
Y43119D01*
X48198D01*
Y43169D01*
X48248D01*
X47998Y42869D02*
Y43169D01*
X47848D01*
X47798Y43119D01*
Y43069D01*
X47848Y43019D01*
X47998D01*
X47848D01*
X47798Y42969D01*
Y42919D01*
X47848Y42869D01*
X47998D01*
X39701Y53175D02*
X39951D01*
X40001Y53225D01*
Y53325D01*
X39951Y53375D01*
X39701D01*
X40001Y53675D02*
Y53475D01*
X39801Y53675D01*
X39751D01*
X39701Y53625D01*
Y53525D01*
X39751Y53475D01*
X40001Y53775D02*
X39951D01*
Y53825D01*
X40001D01*
Y53775D01*
X39701Y54025D02*
X40001D01*
Y54175D01*
X39951Y54225D01*
X39901D01*
X39851Y54175D01*
Y54025D01*
Y54175D01*
X39801Y54225D01*
X39751D01*
X39701Y54175D01*
Y54025D01*
X70298Y40506D02*
X70248Y40556D01*
X70148D01*
X70098Y40506D01*
Y40306D01*
X70148Y40256D01*
X70248D01*
X70298Y40306D01*
X70598Y40556D02*
X70398D01*
Y40406D01*
X70498Y40456D01*
X70548D01*
X70598Y40406D01*
Y40306D01*
X70548Y40256D01*
X70448D01*
X70398Y40306D01*
X70898Y40556D02*
X70798Y40506D01*
X70698Y40406D01*
Y40306D01*
X70748Y40256D01*
X70848D01*
X70898Y40306D01*
Y40356D01*
X70848Y40406D01*
X70698D01*
X76855Y50195D02*
Y50095D01*
X76905Y50045D01*
X77105D01*
X77155Y50095D01*
Y50195D01*
X77105Y50245D01*
X76905D01*
X76855Y50195D01*
X77155Y50545D02*
Y50345D01*
X76955Y50545D01*
X76905D01*
X76855Y50495D01*
Y50395D01*
X76905Y50345D01*
X76855Y46195D02*
Y46095D01*
X76905Y46045D01*
X77105D01*
X77155Y46095D01*
Y46195D01*
X77105Y46245D01*
X76905D01*
X76855Y46195D01*
X76905Y46345D02*
X76855Y46395D01*
Y46495D01*
X76905Y46545D01*
X76955D01*
X77005Y46495D01*
Y46445D01*
Y46495D01*
X77055Y46545D01*
X77105D01*
X77155Y46495D01*
Y46395D01*
X77105Y46345D01*
X76855Y40195D02*
Y40095D01*
X76905Y40045D01*
X77105D01*
X77155Y40095D01*
Y40195D01*
X77105Y40245D01*
X76905D01*
X76855Y40195D01*
X77155Y40495D02*
X76855D01*
X77005Y40345D01*
Y40545D01*
X76855Y36195D02*
Y36095D01*
X76905Y36045D01*
X77105D01*
X77155Y36095D01*
Y36195D01*
X77105Y36245D01*
X76905D01*
X76855Y36195D01*
Y36545D02*
Y36345D01*
X77005D01*
X76955Y36445D01*
Y36495D01*
X77005Y36545D01*
X77105D01*
X77155Y36495D01*
Y36395D01*
X77105Y36345D01*
X75709Y52677D02*
X75409D01*
Y52827D01*
X75459Y52877D01*
X75559D01*
X75609Y52827D01*
Y52677D01*
Y52777D02*
X75709Y52877D01*
Y53177D02*
Y52977D01*
X75509Y53177D01*
X75459D01*
X75409Y53127D01*
Y53027D01*
X75459Y52977D01*
X75709Y53477D02*
Y53277D01*
X75509Y53477D01*
X75459D01*
X75409Y53427D01*
Y53327D01*
X75459Y53277D01*
X75709Y51122D02*
X75409D01*
Y51272D01*
X75459Y51322D01*
X75559D01*
X75609Y51272D01*
Y51122D01*
Y51222D02*
X75709Y51322D01*
Y51622D02*
Y51422D01*
X75509Y51622D01*
X75459D01*
X75409Y51572D01*
Y51472D01*
X75459Y51422D01*
Y51722D02*
X75409Y51772D01*
Y51872D01*
X75459Y51922D01*
X75509D01*
X75559Y51872D01*
Y51822D01*
Y51872D01*
X75609Y51922D01*
X75659D01*
X75709Y51872D01*
Y51772D01*
X75659Y51722D01*
X75827Y48661D02*
X75527D01*
Y48811D01*
X75577Y48861D01*
X75677D01*
X75727Y48811D01*
Y48661D01*
Y48761D02*
X75827Y48861D01*
Y49161D02*
Y48961D01*
X75627Y49161D01*
X75577D01*
X75527Y49111D01*
Y49011D01*
X75577Y48961D01*
X75827Y49411D02*
X75527D01*
X75677Y49261D01*
Y49461D01*
X75807Y46654D02*
X75507D01*
Y46803D01*
X75557Y46853D01*
X75657D01*
X75707Y46803D01*
Y46654D01*
Y46754D02*
X75807Y46853D01*
Y47153D02*
Y46953D01*
X75607Y47153D01*
X75557D01*
X75507Y47103D01*
Y47003D01*
X75557Y46953D01*
X75507Y47453D02*
Y47253D01*
X75657D01*
X75607Y47353D01*
Y47403D01*
X75657Y47453D01*
X75757D01*
X75807Y47403D01*
Y47303D01*
X75757Y47253D01*
X75669Y42638D02*
X75369D01*
Y42788D01*
X75419Y42838D01*
X75519D01*
X75569Y42788D01*
Y42638D01*
Y42738D02*
X75669Y42838D01*
Y43138D02*
Y42938D01*
X75469Y43138D01*
X75419D01*
X75369Y43088D01*
Y42988D01*
X75419Y42938D01*
X75369Y43438D02*
X75419Y43338D01*
X75519Y43238D01*
X75619D01*
X75669Y43288D01*
Y43388D01*
X75619Y43438D01*
X75569D01*
X75519Y43388D01*
Y43238D01*
X75669Y41083D02*
X75369D01*
Y41233D01*
X75419Y41283D01*
X75519D01*
X75569Y41233D01*
Y41083D01*
Y41183D02*
X75669Y41283D01*
Y41583D02*
Y41383D01*
X75469Y41583D01*
X75419D01*
X75369Y41533D01*
Y41433D01*
X75419Y41383D01*
X75369Y41682D02*
Y41882D01*
X75419D01*
X75619Y41682D01*
X75669D01*
Y38543D02*
X75369D01*
Y38693D01*
X75419Y38743D01*
X75519D01*
X75569Y38693D01*
Y38543D01*
Y38643D02*
X75669Y38743D01*
Y39043D02*
Y38843D01*
X75469Y39043D01*
X75419D01*
X75369Y38993D01*
Y38893D01*
X75419Y38843D01*
Y39143D02*
X75369Y39193D01*
Y39293D01*
X75419Y39343D01*
X75469D01*
X75519Y39293D01*
X75569Y39343D01*
X75619D01*
X75669Y39293D01*
Y39193D01*
X75619Y39143D01*
X75569D01*
X75519Y39193D01*
X75469Y39143D01*
X75419D01*
X75519Y39193D02*
Y39293D01*
X75709Y36476D02*
X75409D01*
Y36626D01*
X75459Y36676D01*
X75559D01*
X75609Y36626D01*
Y36476D01*
Y36576D02*
X75709Y36676D01*
Y36976D02*
Y36776D01*
X75509Y36976D01*
X75459D01*
X75409Y36926D01*
Y36826D01*
X75459Y36776D01*
X75659Y37076D02*
X75709Y37126D01*
Y37226D01*
X75659Y37276D01*
X75459D01*
X75409Y37226D01*
Y37126D01*
X75459Y37076D01*
X75509D01*
X75559Y37126D01*
Y37276D01*
X72736Y40792D02*
Y40542D01*
X72786Y40492D01*
X72886D01*
X72936Y40542D01*
Y40792D01*
X73036Y40492D02*
X73136D01*
X73086D01*
Y40792D01*
X73036Y40742D01*
X73286D02*
X73336Y40792D01*
X73436D01*
X73486Y40742D01*
Y40542D01*
X73436Y40492D01*
X73336D01*
X73286Y40542D01*
Y40742D01*
X40354Y34882D02*
Y35182D01*
X40504D01*
X40554Y35132D01*
Y35032D01*
X40504Y34982D01*
X40354D01*
X40454D02*
X40554Y34882D01*
X40654Y35132D02*
X40704Y35182D01*
X40804D01*
X40854Y35132D01*
Y35082D01*
X40804Y35032D01*
X40754D01*
X40804D01*
X40854Y34982D01*
Y34932D01*
X40804Y34882D01*
X40704D01*
X40654Y34932D01*
X40954Y35132D02*
X41004Y35182D01*
X41104D01*
X41154Y35132D01*
Y34932D01*
X41104Y34882D01*
X41004D01*
X40954Y34932D01*
Y35132D01*
X42224Y34882D02*
Y35182D01*
X42374D01*
X42424Y35132D01*
Y35032D01*
X42374Y34982D01*
X42224D01*
X42324D02*
X42424Y34882D01*
X42524Y35132D02*
X42574Y35182D01*
X42674D01*
X42724Y35132D01*
Y35082D01*
X42674Y35032D01*
X42624D01*
X42674D01*
X42724Y34982D01*
Y34932D01*
X42674Y34882D01*
X42574D01*
X42524Y34932D01*
X42824Y34882D02*
X42924D01*
X42874D01*
Y35182D01*
X42824Y35132D01*
X42244Y35846D02*
Y36146D01*
X42394D01*
X42444Y36096D01*
Y35996D01*
X42394Y35946D01*
X42244D01*
X42344D02*
X42444Y35846D01*
X42544Y36096D02*
X42594Y36146D01*
X42694D01*
X42744Y36096D01*
Y36046D01*
X42694Y35996D01*
X42644D01*
X42694D01*
X42744Y35946D01*
Y35896D01*
X42694Y35846D01*
X42594D01*
X42544Y35896D01*
X43044Y35846D02*
X42844D01*
X43044Y36046D01*
Y36096D01*
X42994Y36146D01*
X42894D01*
X42844Y36096D01*
X54641Y35197D02*
X54941D01*
Y35347D01*
X54891Y35397D01*
X54691D01*
X54641Y35347D01*
Y35197D01*
X54691Y35697D02*
X54641Y35647D01*
Y35547D01*
X54691Y35497D01*
X54741D01*
X54791Y35547D01*
Y35647D01*
X54841Y35697D01*
X54891D01*
X54941Y35647D01*
Y35547D01*
X54891Y35497D01*
X54641Y35997D02*
X54691Y35897D01*
X54791Y35797D01*
X54891D01*
X54941Y35847D01*
Y35947D01*
X54891Y35997D01*
X54841D01*
X54791Y35947D01*
Y35797D01*
X53051Y36102D02*
Y36402D01*
X53201D01*
X53251Y36352D01*
Y36252D01*
X53201Y36202D01*
X53051D01*
X53151D02*
X53251Y36102D01*
X53351Y36352D02*
X53401Y36402D01*
X53501D01*
X53551Y36352D01*
Y36302D01*
X53501Y36252D01*
X53451D01*
X53501D01*
X53551Y36202D01*
Y36152D01*
X53501Y36102D01*
X53401D01*
X53351Y36152D01*
X53651Y36352D02*
X53701Y36402D01*
X53801D01*
X53851Y36352D01*
Y36302D01*
X53801Y36252D01*
X53751D01*
X53801D01*
X53851Y36202D01*
Y36152D01*
X53801Y36102D01*
X53701D01*
X53651Y36152D01*
X24522Y36200D02*
X24223D01*
X24322Y36300D01*
X24223Y36400D01*
X24522D01*
X24223Y36650D02*
Y36550D01*
X24272Y36500D01*
X24472D01*
X24522Y36550D01*
Y36650D01*
X24472Y36700D01*
X24272D01*
X24223Y36650D01*
Y36800D02*
X24522D01*
Y37000D01*
X24223Y37300D02*
Y37100D01*
X24522D01*
Y37300D01*
X24372Y37100D02*
Y37200D01*
X24223Y37400D02*
X24522Y37600D01*
X24223D02*
X24522Y37400D01*
X24272Y37999D02*
X24223Y38049D01*
Y38149D01*
X24272Y38199D01*
X24322D01*
X24372Y38149D01*
X24422Y38199D01*
X24472D01*
X24522Y38149D01*
Y38049D01*
X24472Y37999D01*
X24422D01*
X24372Y38049D01*
X24322Y37999D01*
X24272D01*
X24372Y38049D02*
Y38149D01*
X24223Y38299D02*
Y38499D01*
X24272D01*
X24472Y38299D01*
X24522D01*
X24223Y38599D02*
Y38799D01*
X24272D01*
X24472Y38599D01*
X24522D01*
X24272Y38899D02*
X24223Y38949D01*
Y39049D01*
X24272Y39099D01*
X24472D01*
X24522Y39049D01*
Y38949D01*
X24472Y38899D01*
X24272D01*
Y39199D02*
X24223Y39249D01*
Y39349D01*
X24272Y39399D01*
X24322D01*
X24372Y39349D01*
Y39299D01*
Y39349D01*
X24422Y39399D01*
X24472D01*
X24522Y39349D01*
Y39249D01*
X24472Y39199D01*
X24372Y39499D02*
Y39699D01*
X24272Y39799D02*
X24223Y39849D01*
Y39949D01*
X24272Y39999D01*
X24472D01*
X24522Y39949D01*
Y39849D01*
X24472Y39799D01*
X24272D01*
Y40099D02*
X24223Y40149D01*
Y40249D01*
X24272Y40299D01*
X24472D01*
X24522Y40249D01*
Y40149D01*
X24472Y40099D01*
X24272D01*
Y40399D02*
X24223Y40449D01*
Y40549D01*
X24272Y40599D01*
X24472D01*
X24522Y40549D01*
Y40449D01*
X24472Y40399D01*
X24272D01*
X24522Y40699D02*
Y40799D01*
Y40749D01*
X24223D01*
X24272Y40699D01*
X42512Y37420D02*
Y37220D01*
X42612Y37120D01*
X42712Y37220D01*
Y37420D01*
X42962Y37120D02*
X42862D01*
X42812Y37170D01*
Y37270D01*
X42862Y37320D01*
X42962D01*
X43012Y37270D01*
Y37220D01*
X42812D01*
X43112Y37320D02*
Y37120D01*
Y37220D01*
X43162Y37270D01*
X43212Y37320D01*
X43262D01*
X43412Y37120D02*
X43562D01*
X43612Y37170D01*
X43562Y37220D01*
X43462D01*
X43412Y37270D01*
X43462Y37320D01*
X43612D01*
X43712Y37120D02*
X43812D01*
X43762D01*
Y37320D01*
X43712D01*
X44012Y37120D02*
X44112D01*
X44162Y37170D01*
Y37270D01*
X44112Y37320D01*
X44012D01*
X43962Y37270D01*
Y37170D01*
X44012Y37120D01*
X44262D02*
Y37320D01*
X44412D01*
X44462Y37270D01*
Y37120D01*
X44861Y37370D02*
X44911Y37420D01*
X45011D01*
X45061Y37370D01*
Y37320D01*
X45011Y37270D01*
X44961D01*
X45011D01*
X45061Y37220D01*
Y37170D01*
X45011Y37120D01*
X44911D01*
X44861Y37170D01*
X45161Y37120D02*
Y37170D01*
X45211D01*
Y37120D01*
X45161D01*
X45411Y37370D02*
X45461Y37420D01*
X45561D01*
X45611Y37370D01*
Y37170D01*
X45561Y37120D01*
X45461D01*
X45411Y37170D01*
Y37370D01*
D39*
X55545Y37620D02*
X55212D01*
X55545Y37953D01*
Y38037D01*
X55462Y38120D01*
X55296D01*
X55212Y38037D01*
X55712D02*
X55795Y38120D01*
X55962D01*
X56045Y38037D01*
Y37703D01*
X55962Y37620D01*
X55795D01*
X55712Y37703D01*
Y38037D01*
X56212D02*
X56295Y38120D01*
X56462D01*
X56545Y38037D01*
Y37703D01*
X56462Y37620D01*
X56295D01*
X56212Y37703D01*
Y38037D01*
X57045Y38120D02*
X56878Y38037D01*
X56712Y37870D01*
Y37703D01*
X56795Y37620D01*
X56962D01*
X57045Y37703D01*
Y37787D01*
X56962Y37870D01*
X56712D01*
D40*
X42461Y38425D02*
X59094D01*
X74819Y30890D02*
Y36890D01*
X66819D02*
X74819D01*
X66819Y30890D02*
Y36890D01*
Y30890D02*
X74819D01*
X61754Y34652D02*
X65554D01*
X61804Y31352D02*
X65604D01*
X24013Y30702D02*
X27813D01*
X23963Y34002D02*
X27763D01*
X39075Y31004D02*
X39469Y30610D01*
X39075Y33563D02*
X42815D01*
Y30610D02*
Y33563D01*
X39075Y30610D02*
X42815D01*
X39075D02*
Y33563D01*
X20222Y34550D02*
X22972D01*
Y36000D01*
X23972D01*
Y45000D01*
Y54000D01*
X22972D02*
X23972D01*
X22972D02*
Y55450D01*
X20222D02*
X22972D01*
X81800Y40000D02*
X82200Y39600D01*
X81800Y36000D02*
X82200Y36400D01*
X81900Y40000D02*
X82200D01*
Y36000D02*
Y40000D01*
X81500Y36000D02*
X82200D01*
X77500D02*
X78600D01*
X77500Y40000D02*
X78500D01*
X77500Y39800D02*
Y40000D01*
Y39800D02*
X77700D01*
Y39200D02*
Y39800D01*
X77500Y39200D02*
X77700D01*
X77500Y38500D02*
Y39200D01*
Y38500D02*
X77700D01*
Y37500D02*
Y38500D01*
X77500Y37500D02*
X77700D01*
X77500Y36800D02*
Y37500D01*
Y36800D02*
X77700D01*
Y36200D02*
Y36800D01*
X77500Y36200D02*
X77700D01*
X77500Y36000D02*
Y36200D01*
X78500Y40000D02*
X81900D01*
X78500Y36000D02*
X81900D01*
X81800Y50000D02*
X82200Y49600D01*
X81800Y46000D02*
X82200Y46400D01*
X81900Y50000D02*
X82200D01*
Y46000D02*
Y50000D01*
X81500Y46000D02*
X82200D01*
X77500D02*
X78600D01*
X77500Y50000D02*
X78500D01*
X77500Y49800D02*
Y50000D01*
Y49800D02*
X77700D01*
Y49200D02*
Y49800D01*
X77500Y49200D02*
X77700D01*
X77500Y48500D02*
Y49200D01*
Y48500D02*
X77700D01*
Y47500D02*
Y48500D01*
X77500Y47500D02*
X77700D01*
X77500Y46800D02*
Y47500D01*
Y46800D02*
X77700D01*
Y46200D02*
Y46800D01*
X77500Y46200D02*
X77700D01*
X77500Y46000D02*
Y46200D01*
X78500Y50000D02*
X81900D01*
X78500Y46000D02*
X81900D01*
X81800Y44000D02*
X82200Y43600D01*
X81800Y40000D02*
X82200Y40400D01*
X81900Y44000D02*
X82200D01*
Y40000D02*
Y44000D01*
X81500Y40000D02*
X82200D01*
X77500D02*
X78600D01*
X77500Y44000D02*
X78500D01*
X77500Y43800D02*
Y44000D01*
Y43800D02*
X77700D01*
Y43200D02*
Y43800D01*
X77500Y43200D02*
X77700D01*
X77500Y42500D02*
Y43200D01*
Y42500D02*
X77700D01*
Y41500D02*
Y42500D01*
X77500Y41500D02*
X77700D01*
X77500Y40800D02*
Y41500D01*
Y40800D02*
X77700D01*
Y40200D02*
Y40800D01*
X77500Y40200D02*
X77700D01*
X77500Y40000D02*
Y40200D01*
X78500Y44000D02*
X81900D01*
X78500Y40000D02*
X81900D01*
X81800Y54000D02*
X82200Y53600D01*
X81800Y50000D02*
X82200Y50400D01*
X81900Y54000D02*
X82200D01*
Y50000D02*
Y54000D01*
X81500Y50000D02*
X82200D01*
X77500D02*
X78600D01*
X77500Y54000D02*
X78500D01*
X77500Y53800D02*
Y54000D01*
Y53800D02*
X77700D01*
Y53200D02*
Y53800D01*
X77500Y53200D02*
X77700D01*
X77500Y52500D02*
Y53200D01*
Y52500D02*
X77700D01*
Y51500D02*
Y52500D01*
X77500Y51500D02*
X77700D01*
X77500Y50800D02*
Y51500D01*
Y50800D02*
X77700D01*
Y50200D02*
Y50800D01*
X77500Y50200D02*
X77700D01*
X77500Y50000D02*
Y50200D01*
X78500Y54000D02*
X81900D01*
X78500Y50000D02*
X81900D01*
X27747Y58110D02*
X27047D01*
Y57760D01*
X27164Y57644D01*
X27630D01*
X27747Y57760D01*
Y58110D01*
X27630Y56944D02*
X27747Y57061D01*
Y57294D01*
X27630Y57410D01*
X27514D01*
X27397Y57294D01*
Y57061D01*
X27280Y56944D01*
X27164D01*
X27047Y57061D01*
Y57294D01*
X27164Y57410D01*
X27047Y56711D02*
X27747D01*
Y56361D01*
X27630Y56244D01*
X27397D01*
X27280Y56361D01*
Y56711D01*
X27747Y54845D02*
Y55078D01*
Y54961D01*
X27164D01*
X27047Y55078D01*
Y55195D01*
X27164Y55311D01*
X27747Y54611D02*
Y54145D01*
Y54378D01*
X27047D01*
Y53912D02*
X27514D01*
X27747Y53678D01*
X27514Y53445D01*
X27047D01*
X27397D01*
Y53912D01*
X27630Y52745D02*
X27747Y52862D01*
Y53095D01*
X27630Y53212D01*
X27164D01*
X27047Y53095D01*
Y52862D01*
X27164Y52745D01*
X27397D01*
Y52979D01*
X31142Y52294D02*
Y51594D01*
X31492D01*
X31608Y51711D01*
Y52178D01*
X31492Y52294D01*
X31142D01*
X32308Y52178D02*
X32191Y52294D01*
X31958D01*
X31842Y52178D01*
Y52061D01*
X31958Y51944D01*
X32191D01*
X32308Y51828D01*
Y51711D01*
X32191Y51594D01*
X31958D01*
X31842Y51711D01*
X32541Y51594D02*
Y52294D01*
X32891D01*
X33008Y52178D01*
Y51944D01*
X32891Y51828D01*
X32541D01*
X33941Y51594D02*
Y52061D01*
X34174Y52294D01*
X34407Y52061D01*
Y51594D01*
Y51944D01*
X33941D01*
X42972Y52412D02*
Y51713D01*
X43322D01*
X43439Y51829D01*
Y52296D01*
X43322Y52412D01*
X42972D01*
X44139Y52296D02*
X44022Y52412D01*
X43789D01*
X43672Y52296D01*
Y52179D01*
X43789Y52062D01*
X44022D01*
X44139Y51946D01*
Y51829D01*
X44022Y51713D01*
X43789D01*
X43672Y51829D01*
X44372Y51713D02*
Y52412D01*
X44722D01*
X44839Y52296D01*
Y52062D01*
X44722Y51946D01*
X44372D01*
X45772Y52412D02*
Y51713D01*
X46121D01*
X46238Y51829D01*
Y51946D01*
X46121Y52062D01*
X45772D01*
X46121D01*
X46238Y52179D01*
Y52296D01*
X46121Y52412D01*
X45772D01*
X55335Y52373D02*
Y51673D01*
X55685D01*
X55801Y51790D01*
Y52256D01*
X55685Y52373D01*
X55335D01*
X56501Y52256D02*
X56384Y52373D01*
X56151D01*
X56034Y52256D01*
Y52140D01*
X56151Y52023D01*
X56384D01*
X56501Y51906D01*
Y51790D01*
X56384Y51673D01*
X56151D01*
X56034Y51790D01*
X56734Y51673D02*
Y52373D01*
X57084D01*
X57201Y52256D01*
Y52023D01*
X57084Y51906D01*
X56734D01*
X58600Y52256D02*
X58484Y52373D01*
X58250D01*
X58134Y52256D01*
Y51790D01*
X58250Y51673D01*
X58484D01*
X58600Y51790D01*
X67756Y52294D02*
Y51594D01*
X68106D01*
X68222Y51711D01*
Y52178D01*
X68106Y52294D01*
X67756D01*
X68922Y52178D02*
X68806Y52294D01*
X68572D01*
X68456Y52178D01*
Y52061D01*
X68572Y51944D01*
X68806D01*
X68922Y51828D01*
Y51711D01*
X68806Y51594D01*
X68572D01*
X68456Y51711D01*
X69155Y51594D02*
Y52294D01*
X69505D01*
X69622Y52178D01*
Y51944D01*
X69505Y51828D01*
X69155D01*
X70555Y52294D02*
Y51594D01*
X70905D01*
X71022Y51711D01*
Y52178D01*
X70905Y52294D01*
X70555D01*
X42812Y38095D02*
X42737Y38170D01*
X42587D01*
X42512Y38095D01*
Y37795D01*
X42587Y37720D01*
X42737D01*
X42812Y37795D01*
X43037Y37720D02*
X43187D01*
X43262Y37795D01*
Y37945D01*
X43187Y38020D01*
X43037D01*
X42962Y37945D01*
Y37795D01*
X43037Y37720D01*
X43412Y37570D02*
Y38020D01*
X43637D01*
X43712Y37945D01*
Y37795D01*
X43637Y37720D01*
X43412D01*
X43862Y38020D02*
Y37795D01*
X43937Y37720D01*
X44162D01*
Y37645D01*
X44087Y37570D01*
X44012D01*
X44162Y37720D02*
Y38020D01*
X44312D02*
Y37720D01*
Y37870D01*
X44387Y37945D01*
X44462Y38020D01*
X44537D01*
X44761Y37720D02*
X44911D01*
X44836D01*
Y38020D01*
X44761D01*
X45286Y37570D02*
X45361D01*
X45436Y37645D01*
Y38020D01*
X45211D01*
X45136Y37945D01*
Y37795D01*
X45211Y37720D01*
X45436D01*
X45586Y38170D02*
Y37720D01*
Y37945D01*
X45661Y38020D01*
X45811D01*
X45886Y37945D01*
Y37720D01*
X46111Y38095D02*
Y38020D01*
X46036D01*
X46186D01*
X46111D01*
Y37795D01*
X46186Y37720D01*
X47161Y38170D02*
X46861D01*
Y37720D01*
X47161D01*
X46861Y37945D02*
X47011D01*
X47311Y38020D02*
Y37720D01*
Y37870D01*
X47386Y37945D01*
X47461Y38020D01*
X47536D01*
X47761Y37720D02*
X47910D01*
X47835D01*
Y38020D01*
X47761D01*
X48435D02*
X48210D01*
X48135Y37945D01*
Y37795D01*
X48210Y37720D01*
X48435D01*
X49335Y38170D02*
X49185D01*
X49260D01*
Y37795D01*
X49185Y37720D01*
X49110D01*
X49035Y37795D01*
X49560Y37720D02*
X49710D01*
X49785Y37795D01*
Y37945D01*
X49710Y38020D01*
X49560D01*
X49485Y37945D01*
Y37795D01*
X49560Y37720D01*
X49935D02*
Y38020D01*
X50160D01*
X50235Y37945D01*
Y37720D01*
X50460Y38020D02*
X50610D01*
X50685Y37945D01*
Y37720D01*
X50460D01*
X50385Y37795D01*
X50460Y37870D01*
X50685D01*
X50835Y37720D02*
X51059D01*
X51134Y37795D01*
X51059Y37870D01*
X50910D01*
X50835Y37945D01*
X50910Y38020D01*
X51134D01*
D41*
X75046Y52441D02*
X74712D01*
X74646Y52374D01*
Y52241D01*
X74712Y52174D01*
X75046D01*
X74646Y52041D02*
X74912D01*
X75046Y51908D01*
X74912Y51774D01*
X74646D01*
X74846D01*
Y52041D01*
X74646Y51641D02*
X75046D01*
Y51441D01*
X74979Y51375D01*
X74846D01*
X74779Y51441D01*
Y51641D01*
Y51508D02*
X74646Y51375D01*
X75046Y51241D02*
Y50975D01*
Y51108D01*
X74646D01*
X74846Y50841D02*
Y50575D01*
X75046Y50442D02*
X74646D01*
Y50242D01*
X74712Y50175D01*
X74979D01*
X75046Y50242D01*
Y50442D01*
X62900Y52283D02*
X62567D01*
X62500Y52217D01*
Y52084D01*
X62567Y52017D01*
X62900D01*
X62500Y51884D02*
X62767D01*
X62900Y51750D01*
X62767Y51617D01*
X62500D01*
X62700D01*
Y51884D01*
X62500Y51484D02*
X62900D01*
Y51284D01*
X62833Y51217D01*
X62700D01*
X62633Y51284D01*
Y51484D01*
Y51350D02*
X62500Y51217D01*
X62900Y51084D02*
Y50817D01*
Y50951D01*
X62500D01*
X62700Y50684D02*
Y50417D01*
X62833Y50018D02*
X62900Y50084D01*
Y50217D01*
X62833Y50284D01*
X62567D01*
X62500Y50217D01*
Y50084D01*
X62567Y50018D01*
X50813Y52382D02*
X50480D01*
X50413Y52315D01*
Y52182D01*
X50480Y52115D01*
X50813D01*
X50413Y51982D02*
X50680D01*
X50813Y51849D01*
X50680Y51715D01*
X50413D01*
X50613D01*
Y51982D01*
X50413Y51582D02*
X50813D01*
Y51382D01*
X50747Y51316D01*
X50613D01*
X50547Y51382D01*
Y51582D01*
Y51449D02*
X50413Y51316D01*
X50813Y51182D02*
Y50916D01*
Y51049D01*
X50413D01*
X50613Y50782D02*
Y50516D01*
X50813Y50383D02*
X50413D01*
Y50183D01*
X50480Y50116D01*
X50547D01*
X50613Y50183D01*
Y50383D01*
Y50183D01*
X50680Y50116D01*
X50747D01*
X50813Y50183D01*
Y50383D01*
X38687Y52402D02*
X38354D01*
X38287Y52335D01*
Y52202D01*
X38354Y52135D01*
X38687D01*
X38287Y52002D02*
X38554D01*
X38687Y51868D01*
X38554Y51735D01*
X38287D01*
X38487D01*
Y52002D01*
X38287Y51602D02*
X38687D01*
Y51402D01*
X38621Y51335D01*
X38487D01*
X38421Y51402D01*
Y51602D01*
Y51469D02*
X38287Y51335D01*
X38687Y51202D02*
Y50935D01*
Y51069D01*
X38287D01*
X38487Y50802D02*
Y50536D01*
X38287Y50402D02*
X38554D01*
X38687Y50269D01*
X38554Y50136D01*
X38287D01*
X38487D01*
Y50402D01*
X63534Y41975D02*
X63268D01*
Y41575D01*
X63534D01*
X63268Y41775D02*
X63401D01*
X63668Y41975D02*
Y41708D01*
X63801Y41575D01*
X63934Y41708D01*
Y41975D01*
X64334D02*
X64067D01*
Y41575D01*
X64334D01*
X64067Y41775D02*
X64201D01*
X64467Y41575D02*
Y41975D01*
X64734Y41575D01*
Y41975D01*
X64867D02*
X65134D01*
X65000D01*
Y41575D01*
X65667Y41975D02*
Y41575D01*
X65867D01*
X65934Y41641D01*
Y41908D01*
X65867Y41975D01*
X65667D01*
X51408Y41955D02*
X51142D01*
Y41555D01*
X51408D01*
X51142Y41755D02*
X51275D01*
X51542Y41955D02*
Y41688D01*
X51675Y41555D01*
X51808Y41688D01*
Y41955D01*
X52208D02*
X51941D01*
Y41555D01*
X52208D01*
X51941Y41755D02*
X52075D01*
X52341Y41555D02*
Y41955D01*
X52608Y41555D01*
Y41955D01*
X52741D02*
X53008D01*
X52875D01*
Y41555D01*
X53808Y41888D02*
X53741Y41955D01*
X53608D01*
X53541Y41888D01*
Y41622D01*
X53608Y41555D01*
X53741D01*
X53808Y41622D01*
X39341Y42014D02*
X39075D01*
Y41614D01*
X39341D01*
X39075Y41814D02*
X39208D01*
X39475Y42014D02*
Y41747D01*
X39608Y41614D01*
X39741Y41747D01*
Y42014D01*
X40141D02*
X39875D01*
Y41614D01*
X40141D01*
X39875Y41814D02*
X40008D01*
X40274Y41614D02*
Y42014D01*
X40541Y41614D01*
Y42014D01*
X40674D02*
X40941D01*
X40808D01*
Y41614D01*
X41474Y42014D02*
Y41614D01*
X41674D01*
X41741Y41681D01*
Y41747D01*
X41674Y41814D01*
X41474D01*
X41674D01*
X41741Y41881D01*
Y41947D01*
X41674Y42014D01*
X41474D01*
X27393Y41935D02*
X27126D01*
Y41535D01*
X27393D01*
X27126Y41735D02*
X27259D01*
X27526Y41935D02*
Y41669D01*
X27659Y41535D01*
X27792Y41669D01*
Y41935D01*
X28192D02*
X27926D01*
Y41535D01*
X28192D01*
X27926Y41735D02*
X28059D01*
X28326Y41535D02*
Y41935D01*
X28592Y41535D01*
Y41935D01*
X28725D02*
X28992D01*
X28859D01*
Y41535D01*
X29525D02*
Y41802D01*
X29659Y41935D01*
X29792Y41802D01*
Y41535D01*
Y41735D01*
X29525D01*
X56988Y35709D02*
Y36109D01*
X57188D01*
X57255Y36042D01*
Y35909D01*
X57188Y35842D01*
X56988D01*
X57588Y36109D02*
X57455D01*
X57388Y36042D01*
Y35775D01*
X57455Y35709D01*
X57588D01*
X57655Y35775D01*
Y36042D01*
X57588Y36109D01*
X57788D02*
Y35709D01*
X57921Y35842D01*
X58055Y35709D01*
Y36109D01*
X58454D02*
X58188D01*
Y35709D01*
X58454D01*
X58188Y35909D02*
X58321D01*
X58588Y35709D02*
Y36109D01*
X58788D01*
X58854Y36042D01*
Y35909D01*
X58788Y35842D01*
X58588D01*
X58721D02*
X58854Y35709D01*
X53662Y37070D02*
X53812D01*
X53862Y37120D01*
X53812Y37170D01*
X53712D01*
X53662Y37220D01*
X53712Y37270D01*
X53862D01*
X54012Y37070D02*
X54112D01*
X54162Y37120D01*
Y37220D01*
X54112Y37270D01*
X54012D01*
X53962Y37220D01*
Y37120D01*
X54012Y37070D01*
X54262D02*
Y37270D01*
X54312D01*
X54362Y37220D01*
Y37070D01*
Y37220D01*
X54412Y37270D01*
X54462Y37220D01*
Y37070D01*
X54612Y37270D02*
X54712D01*
X54762Y37220D01*
Y37070D01*
X54612D01*
X54562Y37120D01*
X54612Y37170D01*
X54762D01*
X54862Y37070D02*
Y37120D01*
X54912D01*
Y37070D01*
X54862D01*
X55112D02*
Y37270D01*
X55162D01*
X55212Y37220D01*
Y37070D01*
Y37220D01*
X55262Y37270D01*
X55312Y37220D01*
Y37070D01*
X55412D02*
X55512D01*
X55462D01*
Y37270D01*
X55412D01*
X55712Y37320D02*
Y37270D01*
X55662D01*
X55762D01*
X55712D01*
Y37120D01*
X55762Y37070D01*
X55911D02*
Y37120D01*
X55961D01*
Y37070D01*
X55911D01*
X56311D02*
X56211D01*
X56161Y37120D01*
Y37220D01*
X56211Y37270D01*
X56311D01*
X56361Y37220D01*
Y37170D01*
X56161D01*
X56661Y37370D02*
Y37070D01*
X56511D01*
X56461Y37120D01*
Y37220D01*
X56511Y37270D01*
X56661D01*
X56761D02*
Y37120D01*
X56811Y37070D01*
X56961D01*
Y37270D01*
D57*
X36724Y44094D02*
G03*
X36724Y44094I-49J0D01*
G01*
X32766Y40748D02*
G03*
X32766Y40748I-49J0D01*
G01*
X26860Y39075D02*
G03*
X26860Y39075I-49J0D01*
G01*
X37063Y57785D02*
G03*
X37063Y57785I-49J0D01*
G01*
X73102Y44094D02*
G03*
X73102Y44094I-49J0D01*
G01*
X73441Y57785D02*
G03*
X73441Y57785I-49J0D01*
G01*
X60976Y44094D02*
G03*
X60976Y44094I-49J0D01*
G01*
X61315Y57785D02*
G03*
X61315Y57785I-49J0D01*
G01*
X73593Y42953D02*
G03*
X73593Y42953I-49J0D01*
G01*
X61782Y48858D02*
G03*
X61782Y48858I-49J0D01*
G01*
X39222Y47795D02*
G03*
X39222Y47795I-49J0D01*
G01*
X30010Y40866D02*
G03*
X30010Y40866I-49J0D01*
G01*
X77805Y34862D02*
G03*
X77805Y34862I-49J0D01*
G01*
X44557Y35354D02*
G03*
X44557Y35354I-49J0D01*
G01*
X49189Y57785D02*
G03*
X49189Y57785I-49J0D01*
G01*
X48850Y44094D02*
G03*
X48850Y44094I-49J0D01*
G01*
X72224Y40258D02*
G03*
X72224Y40258I-49J0D01*
G01*
X71309Y40138D02*
G03*
X71309Y40138I-49J0D01*
G01*
X26998Y50305D02*
G03*
X26998Y50305I-49J0D01*
G01*
X26900Y44596D02*
G03*
X26900Y44596I-49J0D01*
G01*
D58*
X27900Y39144D02*
G03*
X28400Y39144I250J0D01*
G01*
X73064Y40157D02*
G03*
X73392Y40157I164J0D01*
G01*
X27165Y49252D02*
G03*
X27165Y48780I0J-236D01*
G01*
X27067Y43543D02*
G03*
X27067Y43071I0J-236D01*
G01*
X28937Y50591D02*
X29331Y50984D01*
X36024D02*
X36417Y50591D01*
X28937Y43898D02*
X29331Y43504D01*
X36417D01*
X29331Y50984D02*
X36024D01*
X36417Y43504D02*
Y50591D01*
X28937Y43898D02*
Y50591D01*
X39272Y41142D02*
X39665Y40748D01*
X39272Y34449D02*
X39665Y34843D01*
X32972D02*
X33366Y34449D01*
X32972Y41142D02*
X39272D01*
X39665Y34843D02*
Y40748D01*
X33366Y34449D02*
X39272D01*
X32972Y34843D02*
Y41142D01*
X27303Y39144D02*
X27900D01*
X28400D02*
X28996D01*
X27303Y35069D02*
X28996D01*
X27303D02*
Y39144D01*
X28996Y35069D02*
Y39144D01*
X28210Y53868D02*
X36990D01*
X28210Y57332D02*
X36990D01*
X28210Y53868D02*
Y57332D01*
X36990Y53868D02*
Y55850D01*
Y57332D01*
X65315Y43898D02*
Y50591D01*
X72795Y43504D02*
Y50591D01*
X65709Y50984D02*
X72402D01*
X65709Y43504D02*
X72795D01*
X65315Y43898D02*
X65709Y43504D01*
X72402Y50984D02*
X72795Y50591D01*
X65315D02*
X65709Y50984D01*
X74478Y49700D02*
Y52700D01*
X73478D02*
X74478D01*
X73478Y49700D02*
Y52700D01*
Y49700D02*
X74478D01*
X73368Y55850D02*
Y57332D01*
Y53868D02*
Y55850D01*
X64588Y53868D02*
Y57332D01*
X73368D01*
X64588Y53868D02*
X73368D01*
X64291Y46220D02*
Y46902D01*
X63386Y46220D02*
Y46902D01*
X64291D01*
X63386Y45276D02*
X64291D01*
Y45906D01*
X63386Y45276D02*
Y45906D01*
Y46764D02*
X64291D01*
X53189Y43898D02*
Y50591D01*
X60669Y43504D02*
Y50591D01*
X53583Y50984D02*
X60276D01*
X53583Y43504D02*
X60669D01*
X53189Y43898D02*
X53583Y43504D01*
X60276Y50984D02*
X60669Y50591D01*
X53189D02*
X53583Y50984D01*
X62352Y49700D02*
Y52700D01*
X61352D02*
X62352D01*
X61352Y49700D02*
Y52700D01*
Y49700D02*
X62352D01*
X61242Y55850D02*
Y57332D01*
Y53868D02*
Y55850D01*
X52462Y53868D02*
Y57332D01*
X61242D01*
X52462Y53868D02*
X61242D01*
X52165Y46220D02*
Y46902D01*
X51260Y46220D02*
Y46902D01*
X52165D01*
X51260Y45276D02*
X52165D01*
Y45906D01*
X51260Y45276D02*
Y45906D01*
Y46764D02*
X52165D01*
X38100Y49700D02*
Y52700D01*
X37100D02*
X38100D01*
X37100Y49700D02*
Y52700D01*
Y49700D02*
X38100D01*
X27913Y46220D02*
Y46902D01*
X27008Y46220D02*
Y46902D01*
X27913D01*
X27008Y45276D02*
X27913D01*
Y45906D01*
X27008Y45276D02*
Y45906D01*
Y46764D02*
X27913D01*
X58323Y34921D02*
Y35551D01*
X58248Y34921D02*
Y35551D01*
Y34921D02*
X58484D01*
X58248Y35551D02*
X58484D01*
X74724Y43287D02*
Y44744D01*
X73543Y43287D02*
Y44744D01*
X74705D02*
X74724D01*
X74705Y43287D02*
Y43819D01*
X73543Y44744D02*
X73563D01*
Y43287D02*
Y43819D01*
X62067Y47677D02*
X63524D01*
X62067Y48858D02*
X63524D01*
Y47677D02*
Y47697D01*
X62067D02*
X62598D01*
X63524Y48839D02*
Y48858D01*
X62067Y48839D02*
X62598D01*
X37382Y48976D02*
X38839D01*
X37382Y47795D02*
X38839D01*
X37382Y48957D02*
Y48976D01*
X38307Y48957D02*
X38839D01*
X37382Y47795D02*
Y47815D01*
X38307D02*
X38839D01*
X31142Y41201D02*
Y42657D01*
X29961Y41201D02*
Y42657D01*
X31122D02*
X31142D01*
X31122Y41201D02*
Y41732D01*
X29961Y42657D02*
X29980D01*
Y41201D02*
Y41732D01*
X75945Y33701D02*
X77756D01*
X77736Y34606D02*
X77756D01*
X75945D02*
X75965D01*
X77756Y31614D02*
Y34606D01*
X75945Y31614D02*
Y34606D01*
Y31614D02*
X75965D01*
X77736D02*
X77756D01*
X32720Y32067D02*
Y32697D01*
X32795Y32067D02*
Y32697D01*
X32559D02*
X32795D01*
X32559Y32067D02*
X32795D01*
X32720Y30984D02*
Y31614D01*
X32795Y30984D02*
Y31614D01*
X32559D02*
X32795D01*
X32559Y30984D02*
X32795D01*
X69685Y38031D02*
Y38268D01*
X69055Y38031D02*
Y38268D01*
X50591Y31004D02*
Y32972D01*
Y31004D02*
X56496D01*
X50591Y32972D02*
X56496D01*
Y31004D02*
Y32972D01*
X45039Y31654D02*
X48661D01*
X45039Y35276D02*
X48661D01*
X45039Y31654D02*
Y35276D01*
X48661Y31654D02*
Y35276D01*
X27409Y43071D02*
X28091D01*
X27409Y42165D02*
X28091D01*
X27409D02*
Y43071D01*
X29035Y42165D02*
Y43071D01*
X28405D02*
X29035D01*
X28405Y42165D02*
X29035D01*
X27547D02*
Y43071D01*
X63827D02*
X64508D01*
X63827Y42165D02*
X64508D01*
X63827D02*
Y43071D01*
X65453Y42165D02*
Y43071D01*
X64823D02*
X65453D01*
X64823Y42165D02*
X65453D01*
X63965D02*
Y43071D01*
X51622D02*
X52303D01*
X51622Y42165D02*
X52303D01*
X51622D02*
Y43071D01*
X53248Y42165D02*
Y43071D01*
X52618D02*
X53248D01*
X52618Y42165D02*
X53248D01*
X51760D02*
Y43071D01*
X39134Y46764D02*
X40039D01*
X39134Y45276D02*
Y45906D01*
X40039Y45276D02*
Y45906D01*
X39134Y45276D02*
X40039D01*
X39134Y46902D02*
X40039D01*
X39134Y46220D02*
Y46902D01*
X40039Y46220D02*
Y46902D01*
X40336Y53868D02*
X49116D01*
X40336Y57332D02*
X49116D01*
X40336Y53868D02*
Y57332D01*
X49116Y53868D02*
Y55850D01*
Y57332D01*
X49226Y49700D02*
X50226D01*
X49226D02*
Y52700D01*
X50226D01*
Y49700D02*
Y52700D01*
X41063Y50591D02*
X41457Y50984D01*
X48150D02*
X48543Y50591D01*
X41063Y43898D02*
X41457Y43504D01*
X48543D01*
X41457Y50984D02*
X48150D01*
X48543Y43504D02*
Y50591D01*
X41063Y43898D02*
Y50591D01*
X72736Y40157D02*
X73064D01*
X73392D02*
X73720D01*
X72736Y38189D02*
X73720D01*
X72736D02*
Y40157D01*
X73720Y38189D02*
Y40157D01*
X71240Y39272D02*
Y39803D01*
Y38346D02*
X71260D01*
X70098Y39272D02*
Y39803D01*
X70079Y38346D02*
X70098D01*
X71260D02*
Y39803D01*
X70079Y38346D02*
Y39803D01*
X57795Y32362D02*
Y32598D01*
X57165Y32362D02*
Y32598D01*
X57795D01*
X57165Y32524D02*
X57795D01*
X39516Y43071D02*
X40197D01*
X39516Y42165D02*
X40197D01*
X39516D02*
Y43071D01*
X41142Y42165D02*
Y43071D01*
X40512D02*
X41142D01*
X40512Y42165D02*
X41142D01*
X39654D02*
Y43071D01*
X56606Y35177D02*
Y36083D01*
X55118D02*
X55748D01*
X55118Y35177D02*
X55748D01*
X55118D02*
Y36083D01*
X56744Y35177D02*
Y36083D01*
X56063D02*
X56744D01*
X56063Y35177D02*
X56744D01*
X24606Y48307D02*
X27165D01*
X24606Y49724D02*
X27165D01*
X24606Y48307D02*
Y49724D01*
X27165Y48307D02*
Y48780D01*
Y49252D02*
Y49724D01*
X24508Y42598D02*
X27067D01*
X24508Y44016D02*
X27067D01*
X24508Y42598D02*
Y44016D01*
X27067Y42598D02*
Y43071D01*
Y43543D02*
Y44016D01*
X24795Y51965D02*
X26795D01*
X24795Y58965D02*
X26795D01*
Y51965D02*
Y58965D01*
X24795Y51965D02*
Y58965D01*
D59*
X43412Y39720D02*
X43212Y39920D01*
X42812D01*
X42612Y39720D01*
Y39520D01*
X42812Y39320D01*
X43212D01*
X43412Y39120D01*
Y38920D01*
X43212Y38720D01*
X42812D01*
X42612Y38920D01*
X44012Y38720D02*
X44412D01*
X44612Y38920D01*
Y39320D01*
X44412Y39520D01*
X44012D01*
X43812Y39320D01*
Y38920D01*
X44012Y38720D01*
X45011D02*
Y39520D01*
X45211D01*
X45411Y39320D01*
Y38720D01*
Y39320D01*
X45611Y39520D01*
X45811Y39320D01*
Y38720D01*
X46411Y39520D02*
X46811D01*
X47011Y39320D01*
Y38720D01*
X46411D01*
X46211Y38920D01*
X46411Y39120D01*
X47011D01*
X48610Y39920D02*
Y38720D01*
X49210D01*
X49410Y38920D01*
Y39720D01*
X49210Y39920D01*
X48610D01*
X50610Y39720D02*
X50410Y39920D01*
X50010D01*
X49810Y39720D01*
Y39520D01*
X50010Y39320D01*
X50410D01*
X50610Y39120D01*
Y38920D01*
X50410Y38720D01*
X50010D01*
X49810Y38920D01*
X51009Y38720D02*
Y39920D01*
X51609D01*
X51809Y39720D01*
Y39320D01*
X51609Y39120D01*
X51009D01*
X52209Y39320D02*
X53009D01*
X54009Y38720D02*
Y39920D01*
X53409Y39320D01*
X54208D01*
X54608Y39520D02*
X55408Y38720D01*
X55008Y39120D01*
X55408Y39520D01*
X54608Y38720D01*
D60*
X58637Y37245D02*
Y37895D01*
X58787D01*
Y37245D01*
X58637D01*
X58679Y37287D02*
Y37853D01*
X58746D01*
Y37287D01*
X58679D01*
X58707Y37328D02*
X58717Y37812D01*
X58337Y38045D02*
Y38195D01*
X58487D01*
Y38045D01*
X58337D01*
X58379Y38087D02*
Y38153D01*
X58446D01*
Y38087D01*
X58379D01*
X58407Y38115D02*
X58417Y38125D01*
X58337Y37245D02*
Y37895D01*
X58487D01*
Y37245D01*
X58337D01*
X58379Y37287D02*
Y37853D01*
X58446D01*
Y37287D01*
X58379D01*
X58407Y37328D02*
X58417Y37812D01*
X58637Y38045D02*
Y38195D01*
X59087D01*
Y38045D01*
X58637D01*
X58679Y38087D02*
Y38153D01*
X59046D01*
Y38087D01*
X58679D01*
X58721Y38115D02*
X59004Y38125D01*
X58037Y37245D02*
Y38195D01*
X58187D01*
Y37245D01*
X58037D01*
X58079Y37287D02*
Y38153D01*
X58146D01*
Y37287D01*
X58079D01*
X58107Y37328D02*
X58117Y38112D01*
X57737Y37745D02*
Y38195D01*
X57887D01*
Y37745D01*
X57737D01*
X57779Y37787D02*
Y38153D01*
X57846D01*
Y37787D01*
X57779D01*
X57807Y37828D02*
X57817Y38112D01*
X57437Y37245D02*
Y38195D01*
X57587D01*
Y37245D01*
X57437D01*
X57479Y37287D02*
Y38153D01*
X57546D01*
Y37287D01*
X57479D01*
X57507Y37328D02*
X57517Y38112D01*
M02*
