%FSLAX24Y24*%
%MOIN*%
G70*
G01*
G75*
G04 Layer_Color=8421504*
G04 Layer_Color=8421504*
%ADD10R,0.0630X0.0709*%
%ADD11R,0.0600X0.0300*%
%ADD12R,0.1400X0.1000*%
%ADD13R,0.1024X0.0945*%
%ADD14R,0.1732X0.1441*%
%ADD15R,0.0827X0.0354*%
%ADD16R,0.0827X0.0354*%
%ADD17O,0.0394X0.0110*%
%ADD18O,0.0110X0.0394*%
%ADD19C,0.0177*%
%ADD20C,0.0197*%
%ADD21R,0.0197X0.0748*%
%ADD22R,0.0512X0.0630*%
%ADD23R,0.0866X0.0787*%
%ADD24R,0.0807X0.0236*%
%ADD25R,0.0197X0.0591*%
%ADD26R,0.0630X0.0512*%
%ADD27R,0.0551X0.0787*%
%ADD28R,0.0748X0.0197*%
%ADD29R,0.0669X0.0177*%
%ADD30R,0.0669X0.0177*%
%ADD31R,0.0394X0.0433*%
%ADD32R,0.0433X0.0394*%
%ADD33R,0.0709X0.0630*%
%ADD34R,0.0945X0.1024*%
%ADD35R,0.0787X0.0866*%
%ADD36C,0.0400*%
%ADD37R,0.0394X0.1083*%
%ADD38C,0.0070*%
%ADD39C,0.0200*%
%ADD40C,0.0100*%
%ADD41C,0.0090*%
%ADD42C,0.0060*%
%ADD43C,0.0160*%
%ADD44C,0.0250*%
%ADD45C,0.0300*%
%ADD46C,0.0120*%
%ADD47C,0.0600*%
%ADD48C,0.0591*%
%ADD49R,0.0591X0.0591*%
%ADD50C,0.1732*%
%ADD51C,0.1732*%
%ADD52C,0.0800*%
%ADD53C,0.0433*%
%ADD54C,0.0200*%
%ADD55C,0.0240*%
%ADD56C,0.0212*%
%ADD57C,0.0350*%
%ADD58C,0.0080*%
%ADD59R,0.0354X0.0276*%
%ADD60R,0.0276X0.0354*%
%ADD61C,0.0140*%
%ADD62C,0.0098*%
%ADD63C,0.0079*%
%ADD64C,0.0050*%
%ADD65R,0.1575X0.0098*%
D10*
X32008Y32323D02*
D03*
X33110D02*
D03*
D11*
X27008Y32283D02*
D03*
Y32783D02*
D03*
Y31283D02*
D03*
Y33283D02*
D03*
Y31783D02*
D03*
X62323Y33531D02*
D03*
Y32032D02*
D03*
Y34032D02*
D03*
Y32531D02*
D03*
Y33031D02*
D03*
D12*
X25039Y32283D02*
D03*
X64291Y33031D02*
D03*
D13*
X28465Y31417D02*
D03*
X30276D02*
D03*
X30236Y33425D02*
D03*
X28425D02*
D03*
X58858Y34094D02*
D03*
X60669D02*
D03*
Y32008D02*
D03*
X58858D02*
D03*
D14*
X21083Y35492D02*
D03*
Y54508D02*
D03*
D15*
X22972Y38750D02*
D03*
Y39250D02*
D03*
Y39750D02*
D03*
Y40250D02*
D03*
Y40750D02*
D03*
Y41250D02*
D03*
Y41750D02*
D03*
D16*
Y51250D02*
D03*
Y50750D02*
D03*
Y50250D02*
D03*
Y49750D02*
D03*
Y49250D02*
D03*
Y48750D02*
D03*
Y48250D02*
D03*
Y47750D02*
D03*
Y47250D02*
D03*
Y46750D02*
D03*
Y46250D02*
D03*
Y45750D02*
D03*
Y45250D02*
D03*
Y44750D02*
D03*
Y44250D02*
D03*
D17*
X26949Y49370D02*
D03*
X25531D02*
D03*
Y49173D02*
D03*
Y48976D02*
D03*
Y48780D02*
D03*
Y48583D02*
D03*
Y48386D02*
D03*
Y48189D02*
D03*
Y47992D02*
D03*
X26949Y49173D02*
D03*
Y48976D02*
D03*
Y48780D02*
D03*
Y48583D02*
D03*
Y48386D02*
D03*
Y48189D02*
D03*
Y47992D02*
D03*
D18*
X25945Y49626D02*
D03*
Y47736D02*
D03*
X26535Y49626D02*
D03*
Y47736D02*
D03*
D19*
X38878Y36811D02*
D03*
Y37205D02*
D03*
X39272Y34843D02*
D03*
Y35236D02*
D03*
Y35630D02*
D03*
Y36024D02*
D03*
Y36417D02*
D03*
Y36811D02*
D03*
Y37205D02*
D03*
Y37598D02*
D03*
Y38386D02*
D03*
Y38780D02*
D03*
Y39173D02*
D03*
Y39567D02*
D03*
Y39961D02*
D03*
Y40354D02*
D03*
Y40748D02*
D03*
X38878Y34843D02*
D03*
Y35236D02*
D03*
Y35630D02*
D03*
Y36024D02*
D03*
Y36417D02*
D03*
Y37598D02*
D03*
Y37992D02*
D03*
Y38386D02*
D03*
Y38780D02*
D03*
Y39173D02*
D03*
Y39567D02*
D03*
Y39961D02*
D03*
Y40354D02*
D03*
Y40748D02*
D03*
X38484Y35236D02*
D03*
Y37205D02*
D03*
Y37598D02*
D03*
Y38386D02*
D03*
Y38780D02*
D03*
Y39567D02*
D03*
Y39961D02*
D03*
Y40354D02*
D03*
X38091Y35236D02*
D03*
Y35630D02*
D03*
Y36024D02*
D03*
Y37598D02*
D03*
Y38386D02*
D03*
Y38780D02*
D03*
Y39173D02*
D03*
Y39567D02*
D03*
Y39961D02*
D03*
Y40354D02*
D03*
Y40748D02*
D03*
X37697Y35236D02*
D03*
Y35630D02*
D03*
Y36024D02*
D03*
Y36417D02*
D03*
Y37205D02*
D03*
Y37598D02*
D03*
Y37992D02*
D03*
Y39173D02*
D03*
Y40354D02*
D03*
X37303Y34843D02*
D03*
Y35236D02*
D03*
Y35630D02*
D03*
Y36024D02*
D03*
Y36417D02*
D03*
Y36811D02*
D03*
Y37205D02*
D03*
Y37598D02*
D03*
Y37992D02*
D03*
Y38386D02*
D03*
Y38780D02*
D03*
Y40354D02*
D03*
Y40748D02*
D03*
X36909Y35236D02*
D03*
Y35630D02*
D03*
Y36024D02*
D03*
Y36417D02*
D03*
Y36811D02*
D03*
Y37205D02*
D03*
Y37598D02*
D03*
Y37992D02*
D03*
Y38386D02*
D03*
Y38780D02*
D03*
Y39961D02*
D03*
Y40354D02*
D03*
Y40748D02*
D03*
X36516Y35236D02*
D03*
Y35630D02*
D03*
Y36024D02*
D03*
Y36417D02*
D03*
Y36811D02*
D03*
Y37205D02*
D03*
Y37598D02*
D03*
Y37992D02*
D03*
Y38386D02*
D03*
Y38780D02*
D03*
Y39173D02*
D03*
Y39961D02*
D03*
Y40354D02*
D03*
Y40748D02*
D03*
X36122Y34843D02*
D03*
Y35236D02*
D03*
Y35630D02*
D03*
Y36024D02*
D03*
Y36417D02*
D03*
Y36811D02*
D03*
Y37205D02*
D03*
Y37598D02*
D03*
Y37992D02*
D03*
Y38386D02*
D03*
Y38780D02*
D03*
Y39173D02*
D03*
Y39567D02*
D03*
Y39961D02*
D03*
Y40354D02*
D03*
Y40748D02*
D03*
X35728Y34843D02*
D03*
Y35236D02*
D03*
Y35630D02*
D03*
Y36024D02*
D03*
Y36417D02*
D03*
Y36811D02*
D03*
Y37205D02*
D03*
Y37598D02*
D03*
Y37992D02*
D03*
Y38386D02*
D03*
Y38780D02*
D03*
Y39173D02*
D03*
Y39961D02*
D03*
Y40354D02*
D03*
Y40748D02*
D03*
X35335Y34843D02*
D03*
Y35236D02*
D03*
Y35630D02*
D03*
Y36024D02*
D03*
Y36417D02*
D03*
Y36811D02*
D03*
Y37205D02*
D03*
Y37598D02*
D03*
Y37992D02*
D03*
Y38386D02*
D03*
Y38780D02*
D03*
Y39173D02*
D03*
Y39567D02*
D03*
Y39961D02*
D03*
Y40354D02*
D03*
Y40748D02*
D03*
X34941Y34843D02*
D03*
Y35236D02*
D03*
Y35630D02*
D03*
Y36024D02*
D03*
Y36417D02*
D03*
Y36811D02*
D03*
Y37205D02*
D03*
Y37598D02*
D03*
Y37992D02*
D03*
Y38780D02*
D03*
Y39173D02*
D03*
Y39961D02*
D03*
Y40354D02*
D03*
Y40748D02*
D03*
X34547Y34843D02*
D03*
Y35236D02*
D03*
Y35630D02*
D03*
Y36024D02*
D03*
Y36417D02*
D03*
Y36811D02*
D03*
Y37205D02*
D03*
Y37598D02*
D03*
Y37992D02*
D03*
Y38386D02*
D03*
Y38780D02*
D03*
Y39173D02*
D03*
Y39567D02*
D03*
Y39961D02*
D03*
Y40354D02*
D03*
Y40748D02*
D03*
X34154Y34843D02*
D03*
Y35236D02*
D03*
Y35630D02*
D03*
Y36024D02*
D03*
Y36417D02*
D03*
Y36811D02*
D03*
Y37205D02*
D03*
Y37598D02*
D03*
Y37992D02*
D03*
Y38386D02*
D03*
Y39173D02*
D03*
Y39961D02*
D03*
Y40354D02*
D03*
Y40748D02*
D03*
X33760Y34843D02*
D03*
Y35236D02*
D03*
Y35630D02*
D03*
Y36024D02*
D03*
Y36417D02*
D03*
Y36811D02*
D03*
Y37205D02*
D03*
Y37598D02*
D03*
Y37992D02*
D03*
Y38386D02*
D03*
Y38780D02*
D03*
Y39173D02*
D03*
Y39961D02*
D03*
Y40354D02*
D03*
Y40748D02*
D03*
X33366Y34843D02*
D03*
Y35236D02*
D03*
Y35630D02*
D03*
Y36024D02*
D03*
Y36417D02*
D03*
Y36811D02*
D03*
Y37205D02*
D03*
Y37598D02*
D03*
Y37992D02*
D03*
Y38780D02*
D03*
Y39567D02*
D03*
Y39961D02*
D03*
Y40354D02*
D03*
Y40748D02*
D03*
X37697Y34843D02*
D03*
X38091D02*
D03*
X38484D02*
D03*
X36909D02*
D03*
X36516D02*
D03*
X38091Y36811D02*
D03*
X39272Y37992D02*
D03*
X38484Y36811D02*
D03*
X38091Y36417D02*
D03*
Y37205D02*
D03*
X38484Y35630D02*
D03*
Y36024D02*
D03*
X37697Y36811D02*
D03*
X38484Y36417D02*
D03*
X38091Y37992D02*
D03*
X37697Y38386D02*
D03*
X38484Y39173D02*
D03*
X37697Y39567D02*
D03*
X34154Y38780D02*
D03*
X33366Y39173D02*
D03*
X33760Y39567D02*
D03*
X34154D02*
D03*
X34941Y38386D02*
D03*
Y39567D02*
D03*
X35728D02*
D03*
X37697Y39961D02*
D03*
X37303D02*
D03*
Y39567D02*
D03*
X37697Y38780D02*
D03*
X36909Y39173D02*
D03*
X38484Y37992D02*
D03*
X36516Y39567D02*
D03*
X36909D02*
D03*
X38484Y40748D02*
D03*
X37303Y39173D02*
D03*
X33366Y38386D02*
D03*
X37697Y40748D02*
D03*
D20*
X71811Y49213D02*
D03*
X59685D02*
D03*
X47559D02*
D03*
X35433D02*
D03*
X71024Y50000D02*
D03*
X71811Y44882D02*
D03*
X59685D02*
D03*
X47559D02*
D03*
X35433D02*
D03*
X45984Y46063D02*
D03*
X45591D02*
D03*
X45197D02*
D03*
X44803D02*
D03*
X44409D02*
D03*
X44016D02*
D03*
X43622D02*
D03*
X45984Y46457D02*
D03*
X45591D02*
D03*
X45197D02*
D03*
X44803D02*
D03*
X44409D02*
D03*
X44016D02*
D03*
X43622D02*
D03*
X45984Y46850D02*
D03*
X45591D02*
D03*
X45197D02*
D03*
X44803D02*
D03*
X44409D02*
D03*
X44016D02*
D03*
X43622D02*
D03*
X45984Y47244D02*
D03*
X45591D02*
D03*
X45197D02*
D03*
X44803D02*
D03*
X44409D02*
D03*
X44016D02*
D03*
X43622D02*
D03*
X45984Y47638D02*
D03*
X45591D02*
D03*
X45197D02*
D03*
X44803D02*
D03*
X44409D02*
D03*
X44016D02*
D03*
X43622D02*
D03*
X45984Y48031D02*
D03*
X45591D02*
D03*
X45197D02*
D03*
X44803D02*
D03*
X44409D02*
D03*
X44016D02*
D03*
X43622D02*
D03*
X45984Y48425D02*
D03*
X45591D02*
D03*
X45197D02*
D03*
X44803D02*
D03*
X44409D02*
D03*
X44016D02*
D03*
X43622D02*
D03*
X41654Y50394D02*
D03*
X42047D02*
D03*
X42441D02*
D03*
X42835D02*
D03*
X43228D02*
D03*
X43622D02*
D03*
X44016D02*
D03*
X44409D02*
D03*
X44803D02*
D03*
X45197D02*
D03*
X45591D02*
D03*
X45984D02*
D03*
X46378D02*
D03*
X46772D02*
D03*
X47165D02*
D03*
X47559D02*
D03*
X47953D02*
D03*
X41654Y50000D02*
D03*
X42047D02*
D03*
X42441D02*
D03*
X42835D02*
D03*
X43228D02*
D03*
X43622D02*
D03*
X44016D02*
D03*
X44409D02*
D03*
X44803D02*
D03*
X45197D02*
D03*
X45591D02*
D03*
X45984D02*
D03*
X46378D02*
D03*
X46772D02*
D03*
X47165D02*
D03*
X47559D02*
D03*
X47953D02*
D03*
X41654Y49606D02*
D03*
X42047D02*
D03*
X47559D02*
D03*
X47953D02*
D03*
X41654Y49213D02*
D03*
X42047D02*
D03*
X47953D02*
D03*
X41654Y48819D02*
D03*
X42047D02*
D03*
X47953D02*
D03*
X41654Y48425D02*
D03*
X42047D02*
D03*
X47559D02*
D03*
X41654Y48031D02*
D03*
X42047D02*
D03*
X47953D02*
D03*
X41654Y47638D02*
D03*
X42047D02*
D03*
X47559D02*
D03*
X41654Y47244D02*
D03*
X42047D02*
D03*
X41654Y46850D02*
D03*
X42047D02*
D03*
X47559D02*
D03*
X41654Y46457D02*
D03*
X42047D02*
D03*
X41654Y46063D02*
D03*
X42047D02*
D03*
X47559D02*
D03*
X41654Y45669D02*
D03*
X42047D02*
D03*
X47559D02*
D03*
X47953D02*
D03*
X41654Y45276D02*
D03*
X42047D02*
D03*
X47559D02*
D03*
X47953D02*
D03*
X41654Y44882D02*
D03*
X42047D02*
D03*
X47953D02*
D03*
X41654Y44488D02*
D03*
X42047D02*
D03*
X42441D02*
D03*
X42835D02*
D03*
X43228D02*
D03*
X43622D02*
D03*
X44016D02*
D03*
X44409D02*
D03*
X44803D02*
D03*
X45197D02*
D03*
X45591D02*
D03*
X45984D02*
D03*
X46378D02*
D03*
X46772D02*
D03*
X47165D02*
D03*
X47559D02*
D03*
X47953D02*
D03*
X41654Y44094D02*
D03*
X42047D02*
D03*
X42441D02*
D03*
X42835D02*
D03*
X43228D02*
D03*
X43622D02*
D03*
X44016D02*
D03*
X44409D02*
D03*
X44803D02*
D03*
X45197D02*
D03*
X45591D02*
D03*
X45984D02*
D03*
X46378D02*
D03*
X46772D02*
D03*
X47165D02*
D03*
X47559D02*
D03*
X47953D02*
D03*
X60079D02*
D03*
X59685D02*
D03*
X59291D02*
D03*
X58898D02*
D03*
X58504D02*
D03*
X58110D02*
D03*
X57717D02*
D03*
X57323D02*
D03*
X56929D02*
D03*
X56535D02*
D03*
X56142D02*
D03*
X55748D02*
D03*
X55354D02*
D03*
X54961D02*
D03*
X54567D02*
D03*
X54173D02*
D03*
X53780D02*
D03*
X60079Y44488D02*
D03*
X59685D02*
D03*
X59291D02*
D03*
X58898D02*
D03*
X58504D02*
D03*
X58110D02*
D03*
X57717D02*
D03*
X57323D02*
D03*
X56929D02*
D03*
X56535D02*
D03*
X56142D02*
D03*
X55748D02*
D03*
X55354D02*
D03*
X54961D02*
D03*
X54567D02*
D03*
X54173D02*
D03*
X53780D02*
D03*
X60079Y44882D02*
D03*
X54173D02*
D03*
X53780D02*
D03*
X60079Y45276D02*
D03*
X59685D02*
D03*
X54173D02*
D03*
X53780D02*
D03*
X60079Y45669D02*
D03*
X59685D02*
D03*
X54173D02*
D03*
X53780D02*
D03*
X59685Y46063D02*
D03*
X54173D02*
D03*
X53780D02*
D03*
X54173Y46457D02*
D03*
X53780D02*
D03*
X59685Y46850D02*
D03*
X54173D02*
D03*
X53780D02*
D03*
X54173Y47244D02*
D03*
X53780D02*
D03*
X59685Y47638D02*
D03*
X54173D02*
D03*
X53780D02*
D03*
X60079Y48031D02*
D03*
X54173D02*
D03*
X53780D02*
D03*
X59685Y48425D02*
D03*
X54173D02*
D03*
X53780D02*
D03*
X60079Y48819D02*
D03*
X54173D02*
D03*
X53780D02*
D03*
X60079Y49213D02*
D03*
X54173D02*
D03*
X53780D02*
D03*
X60079Y49606D02*
D03*
X59685D02*
D03*
X54173D02*
D03*
X53780D02*
D03*
X60079Y50000D02*
D03*
X59685D02*
D03*
X59291D02*
D03*
X58898D02*
D03*
X58504D02*
D03*
X58110D02*
D03*
X57717D02*
D03*
X57323D02*
D03*
X56929D02*
D03*
X56535D02*
D03*
X56142D02*
D03*
X55748D02*
D03*
X55354D02*
D03*
X54961D02*
D03*
X54567D02*
D03*
X54173D02*
D03*
X53780D02*
D03*
X60079Y50394D02*
D03*
X59685D02*
D03*
X59291D02*
D03*
X58898D02*
D03*
X58504D02*
D03*
X58110D02*
D03*
X57717D02*
D03*
X57323D02*
D03*
X56929D02*
D03*
X56535D02*
D03*
X56142D02*
D03*
X55748D02*
D03*
X55354D02*
D03*
X54961D02*
D03*
X54567D02*
D03*
X54173D02*
D03*
X53780D02*
D03*
X55748Y48425D02*
D03*
X56142D02*
D03*
X56535D02*
D03*
X56929D02*
D03*
X57323D02*
D03*
X57717D02*
D03*
X58110D02*
D03*
X55748Y48031D02*
D03*
X56142D02*
D03*
X56535D02*
D03*
X56929D02*
D03*
X57323D02*
D03*
X57717D02*
D03*
X58110D02*
D03*
X55748Y47638D02*
D03*
X56142D02*
D03*
X56535D02*
D03*
X56929D02*
D03*
X57323D02*
D03*
X57717D02*
D03*
X58110D02*
D03*
X55748Y47244D02*
D03*
X56142D02*
D03*
X56535D02*
D03*
X56929D02*
D03*
X57323D02*
D03*
X57717D02*
D03*
X58110D02*
D03*
X55748Y46850D02*
D03*
X56142D02*
D03*
X56535D02*
D03*
X56929D02*
D03*
X57323D02*
D03*
X57717D02*
D03*
X58110D02*
D03*
X55748Y46457D02*
D03*
X56142D02*
D03*
X56535D02*
D03*
X56929D02*
D03*
X57323D02*
D03*
X57717D02*
D03*
X58110D02*
D03*
X55748Y46063D02*
D03*
X56142D02*
D03*
X56535D02*
D03*
X56929D02*
D03*
X57323D02*
D03*
X57717D02*
D03*
X58110D02*
D03*
X72205Y44094D02*
D03*
X71811D02*
D03*
X71417D02*
D03*
X71024D02*
D03*
X70630D02*
D03*
X70236D02*
D03*
X69843D02*
D03*
X69449D02*
D03*
X69055D02*
D03*
X68661D02*
D03*
X68268D02*
D03*
X67874D02*
D03*
X67480D02*
D03*
X67087D02*
D03*
X66693D02*
D03*
X66299D02*
D03*
X65905D02*
D03*
X72205Y44488D02*
D03*
X71811D02*
D03*
X71417D02*
D03*
X71024D02*
D03*
X70630D02*
D03*
X70236D02*
D03*
X69843D02*
D03*
X69449D02*
D03*
X69055D02*
D03*
X68661D02*
D03*
X68268D02*
D03*
X67874D02*
D03*
X67480D02*
D03*
X67087D02*
D03*
X66693D02*
D03*
X66299D02*
D03*
X65905D02*
D03*
X72205Y44882D02*
D03*
X66299D02*
D03*
X65905D02*
D03*
X72205Y45276D02*
D03*
X71811D02*
D03*
X66299D02*
D03*
X65905D02*
D03*
X72205Y45669D02*
D03*
X71811D02*
D03*
X66299D02*
D03*
X65905D02*
D03*
X71811Y46063D02*
D03*
X66299D02*
D03*
X65905D02*
D03*
X66299Y46457D02*
D03*
X65905D02*
D03*
X71811Y46850D02*
D03*
X66299D02*
D03*
X65905D02*
D03*
X66299Y47244D02*
D03*
X65905D02*
D03*
X71811Y47638D02*
D03*
X66299D02*
D03*
X65905D02*
D03*
X72205Y48031D02*
D03*
X66299D02*
D03*
X65905D02*
D03*
X71811Y48425D02*
D03*
X66299D02*
D03*
X65905D02*
D03*
X72205Y48819D02*
D03*
X66299D02*
D03*
X65905D02*
D03*
X72205Y49213D02*
D03*
X66299D02*
D03*
X65905D02*
D03*
X72205Y49606D02*
D03*
X71811D02*
D03*
X66299D02*
D03*
X65905D02*
D03*
X72205Y50000D02*
D03*
X71811D02*
D03*
X71417D02*
D03*
X70630D02*
D03*
X70236D02*
D03*
X69843D02*
D03*
X69449D02*
D03*
X69055D02*
D03*
X68661D02*
D03*
X68268D02*
D03*
X67874D02*
D03*
X67480D02*
D03*
X67087D02*
D03*
X66693D02*
D03*
X66299D02*
D03*
X65905D02*
D03*
X72205Y50394D02*
D03*
X71811D02*
D03*
X71417D02*
D03*
X71024D02*
D03*
X70630D02*
D03*
X70236D02*
D03*
X69843D02*
D03*
X69449D02*
D03*
X69055D02*
D03*
X68661D02*
D03*
X68268D02*
D03*
X67874D02*
D03*
X67480D02*
D03*
X67087D02*
D03*
X66693D02*
D03*
X66299D02*
D03*
X65905D02*
D03*
X67874Y48425D02*
D03*
X68268D02*
D03*
X68661D02*
D03*
X69055D02*
D03*
X69449D02*
D03*
X69843D02*
D03*
X70236D02*
D03*
X67874Y48031D02*
D03*
X68268D02*
D03*
X68661D02*
D03*
X69055D02*
D03*
X69449D02*
D03*
X69843D02*
D03*
X70236D02*
D03*
X67874Y47638D02*
D03*
X68268D02*
D03*
X68661D02*
D03*
X69055D02*
D03*
X69449D02*
D03*
X69843D02*
D03*
X70236D02*
D03*
X67874Y47244D02*
D03*
X68268D02*
D03*
X68661D02*
D03*
X69055D02*
D03*
X69449D02*
D03*
X69843D02*
D03*
X70236D02*
D03*
X67874Y46850D02*
D03*
X68268D02*
D03*
X68661D02*
D03*
X69055D02*
D03*
X69449D02*
D03*
X69843D02*
D03*
X70236D02*
D03*
X67874Y46457D02*
D03*
X68268D02*
D03*
X68661D02*
D03*
X69055D02*
D03*
X69449D02*
D03*
X69843D02*
D03*
X70236D02*
D03*
X67874Y46063D02*
D03*
X68268D02*
D03*
X68661D02*
D03*
X69055D02*
D03*
X69449D02*
D03*
X69843D02*
D03*
X70236D02*
D03*
X33858D02*
D03*
X33465D02*
D03*
X33071D02*
D03*
X32677D02*
D03*
X32283D02*
D03*
X31890D02*
D03*
X31496D02*
D03*
X33858Y46457D02*
D03*
X33465D02*
D03*
X33071D02*
D03*
X32677D02*
D03*
X32283D02*
D03*
X31890D02*
D03*
X31496D02*
D03*
X33858Y46850D02*
D03*
X33465D02*
D03*
X33071D02*
D03*
X32677D02*
D03*
X32283D02*
D03*
X31890D02*
D03*
X31496D02*
D03*
X33858Y47244D02*
D03*
X33465D02*
D03*
X33071D02*
D03*
X32677D02*
D03*
X32283D02*
D03*
X31890D02*
D03*
X31496D02*
D03*
X33858Y47638D02*
D03*
X33465D02*
D03*
X33071D02*
D03*
X32677D02*
D03*
X32283D02*
D03*
X31890D02*
D03*
X31496D02*
D03*
X33858Y48031D02*
D03*
X33465D02*
D03*
X33071D02*
D03*
X32677D02*
D03*
X32283D02*
D03*
X31890D02*
D03*
X31496D02*
D03*
X33858Y48425D02*
D03*
X33465D02*
D03*
X33071D02*
D03*
X32677D02*
D03*
X32283D02*
D03*
X31890D02*
D03*
X31496D02*
D03*
X29528Y50394D02*
D03*
X29921D02*
D03*
X30315D02*
D03*
X30709D02*
D03*
X31102D02*
D03*
X31496D02*
D03*
X31890D02*
D03*
X32283D02*
D03*
X32677D02*
D03*
X33071D02*
D03*
X33465D02*
D03*
X33858D02*
D03*
X34252D02*
D03*
X34646D02*
D03*
X35039D02*
D03*
X35433D02*
D03*
X35827D02*
D03*
X29528Y50000D02*
D03*
X29921D02*
D03*
X30315D02*
D03*
X30709D02*
D03*
X31102D02*
D03*
X31496D02*
D03*
X31890D02*
D03*
X32283D02*
D03*
X32677D02*
D03*
X33071D02*
D03*
X33465D02*
D03*
X33858D02*
D03*
X34252D02*
D03*
X34646D02*
D03*
X35039D02*
D03*
X35433D02*
D03*
X35827D02*
D03*
X29528Y49606D02*
D03*
X29921D02*
D03*
X35433D02*
D03*
X35827D02*
D03*
X29528Y49213D02*
D03*
X29921D02*
D03*
X35827D02*
D03*
X29528Y48819D02*
D03*
X29921D02*
D03*
X35827D02*
D03*
X29528Y48425D02*
D03*
X29921D02*
D03*
X35433D02*
D03*
X29528Y48031D02*
D03*
X29921D02*
D03*
X35827D02*
D03*
X29528Y47638D02*
D03*
X29921D02*
D03*
X35433D02*
D03*
X29528Y47244D02*
D03*
X29921D02*
D03*
X29528Y46850D02*
D03*
X29921D02*
D03*
X35433D02*
D03*
X29528Y46457D02*
D03*
X29921D02*
D03*
X29528Y46063D02*
D03*
X29921D02*
D03*
X35433D02*
D03*
X29528Y45669D02*
D03*
X29921D02*
D03*
X35433D02*
D03*
X35827D02*
D03*
X29528Y45276D02*
D03*
X29921D02*
D03*
X35433D02*
D03*
X35827D02*
D03*
X29528Y44882D02*
D03*
X29921D02*
D03*
X35827D02*
D03*
X29528Y44488D02*
D03*
X29921D02*
D03*
X30315D02*
D03*
X30709D02*
D03*
X31102D02*
D03*
X31496D02*
D03*
X31890D02*
D03*
X32283D02*
D03*
X32677D02*
D03*
X33071D02*
D03*
X33465D02*
D03*
X33858D02*
D03*
X34252D02*
D03*
X34646D02*
D03*
X35039D02*
D03*
X35433D02*
D03*
X35827D02*
D03*
X29528Y44094D02*
D03*
X29921D02*
D03*
X30315D02*
D03*
X30709D02*
D03*
X31102D02*
D03*
X31496D02*
D03*
X31890D02*
D03*
X32283D02*
D03*
X32677D02*
D03*
X33071D02*
D03*
X33465D02*
D03*
X33858D02*
D03*
X34252D02*
D03*
X34646D02*
D03*
X35039D02*
D03*
X35433D02*
D03*
X35827D02*
D03*
Y48425D02*
D03*
Y47638D02*
D03*
X47953Y48425D02*
D03*
Y47638D02*
D03*
X60079Y48425D02*
D03*
Y47638D02*
D03*
X72205Y48425D02*
D03*
Y47638D02*
D03*
X35827Y46850D02*
D03*
Y46063D02*
D03*
Y47244D02*
D03*
X35433Y46457D02*
D03*
X47953Y46850D02*
D03*
Y46063D02*
D03*
Y47244D02*
D03*
X47559Y46457D02*
D03*
X60079Y46850D02*
D03*
Y46063D02*
D03*
Y47244D02*
D03*
X59685Y46457D02*
D03*
X72205Y46850D02*
D03*
Y46063D02*
D03*
Y47244D02*
D03*
X71811Y46457D02*
D03*
X35827D02*
D03*
X35433Y47244D02*
D03*
Y48031D02*
D03*
Y48819D02*
D03*
X47953Y46457D02*
D03*
X47559Y47244D02*
D03*
Y48031D02*
D03*
Y48819D02*
D03*
X60079Y46457D02*
D03*
X59685Y47244D02*
D03*
Y48031D02*
D03*
Y48819D02*
D03*
X72205Y46457D02*
D03*
X71811Y47244D02*
D03*
Y48031D02*
D03*
Y48819D02*
D03*
D21*
X46535Y35807D02*
D03*
X46850D02*
D03*
X48425D02*
D03*
X48110D02*
D03*
X47795D02*
D03*
X47480D02*
D03*
X47165D02*
D03*
X46220D02*
D03*
X45906D02*
D03*
X45591D02*
D03*
X45276D02*
D03*
X48425Y31122D02*
D03*
X48110D02*
D03*
X47795D02*
D03*
X47480D02*
D03*
X47165D02*
D03*
X46850D02*
D03*
X46535D02*
D03*
X46220D02*
D03*
X45906D02*
D03*
X45591D02*
D03*
X45276D02*
D03*
D22*
X56280Y35630D02*
D03*
X39980Y42618D02*
D03*
X52087D02*
D03*
X64291D02*
D03*
X27874D02*
D03*
X40728D02*
D03*
X52835D02*
D03*
X65039D02*
D03*
X28622D02*
D03*
X55532Y35630D02*
D03*
D23*
X70669Y38484D02*
D03*
Y39665D02*
D03*
X30551Y41339D02*
D03*
Y42520D02*
D03*
X74134Y43425D02*
D03*
Y44606D02*
D03*
D24*
X74282Y38423D02*
D03*
Y38923D02*
D03*
Y39423D02*
D03*
Y39923D02*
D03*
X72175Y38423D02*
D03*
Y38923D02*
D03*
Y39423D02*
D03*
Y39923D02*
D03*
D25*
X48820Y57785D02*
D03*
X48506D02*
D03*
X48191D02*
D03*
X47876D02*
D03*
X47561D02*
D03*
X47246D02*
D03*
X46931D02*
D03*
X46616D02*
D03*
X46301D02*
D03*
X45986D02*
D03*
X45671D02*
D03*
X45356D02*
D03*
X45041D02*
D03*
X44726D02*
D03*
X44411D02*
D03*
X44096D02*
D03*
X43781D02*
D03*
X43466D02*
D03*
X43151D02*
D03*
X42836D02*
D03*
X42521D02*
D03*
X42206D02*
D03*
X41891D02*
D03*
X41576D02*
D03*
X41261D02*
D03*
X40946D02*
D03*
X40631D02*
D03*
X48820Y53415D02*
D03*
X48506D02*
D03*
X48191D02*
D03*
X47876D02*
D03*
X47561D02*
D03*
X47246D02*
D03*
X46931D02*
D03*
X46616D02*
D03*
X46301D02*
D03*
X45986D02*
D03*
X45671D02*
D03*
X45356D02*
D03*
X45041D02*
D03*
X44726D02*
D03*
X44411D02*
D03*
X44096D02*
D03*
X43781D02*
D03*
X43466D02*
D03*
X43151D02*
D03*
X42836D02*
D03*
X42521D02*
D03*
X42206D02*
D03*
X41891D02*
D03*
X41576D02*
D03*
X41261D02*
D03*
X40946D02*
D03*
X40631D02*
D03*
X52757D02*
D03*
X53072D02*
D03*
X53387D02*
D03*
X53702D02*
D03*
X54017D02*
D03*
X54332D02*
D03*
X54647D02*
D03*
X54962D02*
D03*
X55277D02*
D03*
X55592D02*
D03*
X55907D02*
D03*
X56222D02*
D03*
X56537D02*
D03*
X56852D02*
D03*
X57167D02*
D03*
X57482D02*
D03*
X57797D02*
D03*
X58112D02*
D03*
X58427D02*
D03*
X58742D02*
D03*
X59057D02*
D03*
X59372D02*
D03*
X59687D02*
D03*
X60002D02*
D03*
X60317D02*
D03*
X60631D02*
D03*
X60946D02*
D03*
X52757Y57785D02*
D03*
X53072D02*
D03*
X53387D02*
D03*
X53702D02*
D03*
X54017D02*
D03*
X54332D02*
D03*
X54647D02*
D03*
X54962D02*
D03*
X55277D02*
D03*
X55592D02*
D03*
X55907D02*
D03*
X56222D02*
D03*
X56537D02*
D03*
X56852D02*
D03*
X57167D02*
D03*
X57482D02*
D03*
X57797D02*
D03*
X58112D02*
D03*
X58427D02*
D03*
X58742D02*
D03*
X59057D02*
D03*
X59372D02*
D03*
X59687D02*
D03*
X60002D02*
D03*
X60317D02*
D03*
X60631D02*
D03*
X60946D02*
D03*
X64883Y53415D02*
D03*
X65198D02*
D03*
X65513D02*
D03*
X65828D02*
D03*
X66143D02*
D03*
X66458D02*
D03*
X66773D02*
D03*
X67088D02*
D03*
X67403D02*
D03*
X67718D02*
D03*
X68033D02*
D03*
X68348D02*
D03*
X68663D02*
D03*
X68978D02*
D03*
X69293D02*
D03*
X69608D02*
D03*
X69923D02*
D03*
X70238D02*
D03*
X70553D02*
D03*
X70868D02*
D03*
X71183D02*
D03*
X71498D02*
D03*
X71813D02*
D03*
X72128D02*
D03*
X72443D02*
D03*
X72757D02*
D03*
X73072D02*
D03*
X64883Y57785D02*
D03*
X65198D02*
D03*
X65513D02*
D03*
X65828D02*
D03*
X66143D02*
D03*
X66458D02*
D03*
X66773D02*
D03*
X67088D02*
D03*
X67403D02*
D03*
X67718D02*
D03*
X68033D02*
D03*
X68348D02*
D03*
X68663D02*
D03*
X68978D02*
D03*
X69293D02*
D03*
X69608D02*
D03*
X69923D02*
D03*
X70238D02*
D03*
X70553D02*
D03*
X70868D02*
D03*
X71183D02*
D03*
X71498D02*
D03*
X71813D02*
D03*
X72128D02*
D03*
X72443D02*
D03*
X72757D02*
D03*
X73072D02*
D03*
X36694D02*
D03*
X36380D02*
D03*
X36065D02*
D03*
X35750D02*
D03*
X35435D02*
D03*
X35120D02*
D03*
X34805D02*
D03*
X34490D02*
D03*
X34175D02*
D03*
X33860D02*
D03*
X33545D02*
D03*
X33230D02*
D03*
X32915D02*
D03*
X32600D02*
D03*
X32285D02*
D03*
X31970D02*
D03*
X31655D02*
D03*
X31340D02*
D03*
X31025D02*
D03*
X30710D02*
D03*
X30395D02*
D03*
X29765D02*
D03*
X29450D02*
D03*
X29135D02*
D03*
X28820D02*
D03*
X28506D02*
D03*
X36694Y53415D02*
D03*
X36380D02*
D03*
X36065D02*
D03*
X35750D02*
D03*
X35435D02*
D03*
X35120D02*
D03*
X34805D02*
D03*
X34490D02*
D03*
X34175D02*
D03*
X33860D02*
D03*
X33545D02*
D03*
X33230D02*
D03*
X32915D02*
D03*
X32600D02*
D03*
X32285D02*
D03*
X31970D02*
D03*
X31655D02*
D03*
X31340D02*
D03*
X31025D02*
D03*
X30710D02*
D03*
X30395D02*
D03*
X30080D02*
D03*
X29765D02*
D03*
X29450D02*
D03*
X29135D02*
D03*
X28820D02*
D03*
X28506D02*
D03*
X30080Y57785D02*
D03*
D26*
X39587Y45689D02*
D03*
Y46437D02*
D03*
X27461D02*
D03*
Y45689D02*
D03*
X51713Y46437D02*
D03*
Y45689D02*
D03*
X63839Y46437D02*
D03*
Y45689D02*
D03*
D27*
X39862Y31201D02*
D03*
X41862D02*
D03*
Y32854D02*
D03*
X39862D02*
D03*
D28*
X49193Y31890D02*
D03*
Y32205D02*
D03*
Y32520D02*
D03*
Y32835D02*
D03*
Y33150D02*
D03*
Y33465D02*
D03*
Y33780D02*
D03*
Y34094D02*
D03*
Y34409D02*
D03*
Y34724D02*
D03*
Y35039D02*
D03*
X44508Y31890D02*
D03*
Y32205D02*
D03*
Y32520D02*
D03*
Y32835D02*
D03*
Y33150D02*
D03*
Y33465D02*
D03*
Y33780D02*
D03*
Y34094D02*
D03*
Y34409D02*
D03*
Y34724D02*
D03*
Y35039D02*
D03*
D29*
X29488Y35443D02*
D03*
Y35699D02*
D03*
Y35955D02*
D03*
Y36211D02*
D03*
Y36467D02*
D03*
Y36722D02*
D03*
Y36978D02*
D03*
Y37234D02*
D03*
Y37490D02*
D03*
Y37746D02*
D03*
Y38002D02*
D03*
Y38258D02*
D03*
Y38514D02*
D03*
Y38770D02*
D03*
X26811Y35443D02*
D03*
Y35699D02*
D03*
Y35955D02*
D03*
Y36211D02*
D03*
Y36722D02*
D03*
Y36978D02*
D03*
Y37234D02*
D03*
Y37490D02*
D03*
Y37746D02*
D03*
Y38002D02*
D03*
Y38258D02*
D03*
Y38514D02*
D03*
Y36467D02*
D03*
D30*
Y38770D02*
D03*
D31*
X37402Y46791D02*
D03*
Y46122D02*
D03*
X49528Y46791D02*
D03*
Y46122D02*
D03*
X61654Y46791D02*
D03*
Y46122D02*
D03*
X73780Y46791D02*
D03*
Y46122D02*
D03*
X37697Y54173D02*
D03*
Y53504D02*
D03*
X49823Y54173D02*
D03*
Y53504D02*
D03*
X61949Y54173D02*
D03*
Y53504D02*
D03*
X74075Y54173D02*
D03*
Y53504D02*
D03*
X37697Y57126D02*
D03*
Y56457D02*
D03*
X49823Y57126D02*
D03*
Y56457D02*
D03*
X61949Y57126D02*
D03*
Y56457D02*
D03*
X74075Y57126D02*
D03*
Y56457D02*
D03*
X37697Y55650D02*
D03*
Y54980D02*
D03*
X49823Y55650D02*
D03*
Y54980D02*
D03*
X61949Y55650D02*
D03*
Y54980D02*
D03*
X74075Y55650D02*
D03*
Y54980D02*
D03*
X37697Y58701D02*
D03*
Y58032D02*
D03*
X49823Y58701D02*
D03*
Y58032D02*
D03*
X61949Y58701D02*
D03*
Y58032D02*
D03*
X74075Y58701D02*
D03*
Y58032D02*
D03*
X27559Y44626D02*
D03*
Y43957D02*
D03*
X39685Y44626D02*
D03*
Y43957D02*
D03*
X51811Y44626D02*
D03*
Y43957D02*
D03*
X63937Y44626D02*
D03*
Y43957D02*
D03*
X37992Y46122D02*
D03*
Y46791D02*
D03*
X50118Y46122D02*
D03*
Y46791D02*
D03*
X62244Y46122D02*
D03*
Y46791D02*
D03*
X74370Y46122D02*
D03*
Y46791D02*
D03*
X31457Y39705D02*
D03*
Y40374D02*
D03*
X25492Y36850D02*
D03*
Y36181D02*
D03*
Y37362D02*
D03*
Y38031D02*
D03*
Y38543D02*
D03*
Y39213D02*
D03*
X24291Y55492D02*
D03*
Y56161D02*
D03*
X37598Y32323D02*
D03*
X36319D02*
D03*
X35531D02*
D03*
X76083Y52815D02*
D03*
Y53484D02*
D03*
Y52008D02*
D03*
Y51339D02*
D03*
X76181Y49449D02*
D03*
Y48780D02*
D03*
Y47480D02*
D03*
Y46811D02*
D03*
X76083Y42776D02*
D03*
Y43445D02*
D03*
Y41870D02*
D03*
Y41201D02*
D03*
Y39311D02*
D03*
Y38642D02*
D03*
Y37244D02*
D03*
Y36575D02*
D03*
X76142Y56713D02*
D03*
Y57382D02*
D03*
X37598Y31654D02*
D03*
X36319D02*
D03*
X35531D02*
D03*
X34744D02*
D03*
Y32323D02*
D03*
D32*
X43878Y41850D02*
D03*
X43209D02*
D03*
X55886Y41260D02*
D03*
X55217D02*
D03*
X68130Y41339D02*
D03*
X67461D02*
D03*
X53917Y34764D02*
D03*
X53248D02*
D03*
X52382D02*
D03*
X51713D02*
D03*
X50098D02*
D03*
X50768D02*
D03*
X40610Y34547D02*
D03*
X41280D02*
D03*
X42480D02*
D03*
X43150D02*
D03*
X42480Y35531D02*
D03*
X43150D02*
D03*
X54075Y35728D02*
D03*
X53406D02*
D03*
D33*
X69370Y38701D02*
D03*
Y37598D02*
D03*
X57559Y32126D02*
D03*
Y33228D02*
D03*
D34*
X76850Y31850D02*
D03*
Y34370D02*
D03*
D35*
X38701Y48386D02*
D03*
X37520D02*
D03*
X62205Y48268D02*
D03*
X63386D02*
D03*
D37*
X51260Y31604D02*
D03*
Y33278D02*
D03*
X52047Y31604D02*
D03*
X52835D02*
D03*
X53622D02*
D03*
X54409D02*
D03*
X55197D02*
D03*
X55984D02*
D03*
X52047Y33278D02*
D03*
X52835D02*
D03*
X53622D02*
D03*
X54409D02*
D03*
X55197D02*
D03*
X55984D02*
D03*
M02*
