%FSLAX24Y24*%
%MOIN*%
G70*
G01*
G75*
G04 Layer_Physical_Order=1*
G04 Layer_Color=255*
%ADD10R,0.0394X0.0433*%
%ADD11C,0.0197*%
%ADD12C,0.0177*%
%ADD13R,0.0433X0.0394*%
%ADD14R,0.0669X0.0177*%
%ADD15R,0.0669X0.0177*%
%ADD16R,0.0197X0.0591*%
%ADD17R,0.0630X0.0512*%
%ADD18R,0.3000X0.2900*%
%ADD19R,0.1500X0.0500*%
%ADD20R,0.0630X0.0709*%
%ADD21R,0.0866X0.0787*%
%ADD22R,0.0787X0.0866*%
%ADD23R,0.0945X0.1024*%
%ADD24R,0.0709X0.0630*%
%ADD25R,0.0748X0.0197*%
%ADD26R,0.0197X0.0748*%
%ADD27R,0.0551X0.0787*%
%ADD28R,0.1732X0.1441*%
%ADD29R,0.0827X0.0354*%
%ADD30R,0.0827X0.0354*%
%ADD31R,0.0276X0.0354*%
%ADD32R,0.0512X0.0630*%
%ADD33R,0.0807X0.0236*%
%ADD34R,0.0157X0.0846*%
%ADD35C,0.0090*%
%ADD36C,0.0070*%
%ADD37C,0.0060*%
%ADD38C,0.0160*%
%ADD39C,0.0120*%
%ADD40C,0.0100*%
%ADD41C,0.0080*%
%ADD42C,0.0300*%
%ADD43C,0.0250*%
%ADD44R,0.0591X0.0591*%
%ADD45C,0.0591*%
%ADD46C,0.0800*%
%ADD47C,0.0600*%
%ADD48C,0.1732*%
%ADD49C,0.1732*%
%ADD50C,0.0200*%
%ADD51C,0.0400*%
%ADD52C,0.0212*%
%ADD53C,0.0240*%
%ADD54C,0.0350*%
G36*
X69091Y48390D02*
X68983Y48283D01*
X68993Y48276D01*
X69055Y48264D01*
X69117Y48276D01*
X69169Y48311D01*
X69204Y48363D01*
X69217Y48425D01*
X69287D01*
X69300Y48363D01*
X69335Y48311D01*
X69387Y48276D01*
X69449Y48264D01*
X69511Y48276D01*
X69563Y48311D01*
X69598Y48363D01*
X69610Y48425D01*
X69681D01*
X69693Y48363D01*
X69728Y48311D01*
X69781Y48276D01*
X69843Y48264D01*
X69904Y48276D01*
X69957Y48311D01*
X69992Y48363D01*
X70004Y48425D01*
X70075D01*
X70087Y48363D01*
X70122Y48311D01*
X70174Y48276D01*
X70236Y48264D01*
X70236Y48264D01*
Y48264D01*
X70236Y48264D01*
Y48193D01*
X70236Y48193D01*
X70174Y48181D01*
X70122Y48146D01*
X70087Y48093D01*
X70075Y48031D01*
X70087Y47970D01*
X70122Y47917D01*
X70174Y47882D01*
X70236Y47870D01*
X70236Y47870D01*
Y47870D01*
X70236Y47870D01*
Y47799D01*
X70236Y47799D01*
X70174Y47787D01*
X70122Y47752D01*
X70087Y47700D01*
X70075Y47638D01*
X70087Y47576D01*
X70122Y47524D01*
X70174Y47489D01*
X70236Y47476D01*
X70236Y47476D01*
Y47476D01*
X70236Y47476D01*
Y47406D01*
X70236Y47406D01*
X70174Y47393D01*
X70122Y47358D01*
X70087Y47306D01*
X70075Y47244D01*
X70087Y47182D01*
X70122Y47130D01*
X70174Y47095D01*
X70236Y47083D01*
X70236Y47083D01*
Y47083D01*
X70236Y47083D01*
Y47012D01*
X70236Y47012D01*
X70174Y47000D01*
X70122Y46965D01*
X70087Y46912D01*
X70075Y46850D01*
X70087Y46789D01*
X70122Y46736D01*
X70174Y46701D01*
X70236Y46689D01*
X70236Y46689D01*
Y46689D01*
X70236Y46689D01*
Y46618D01*
X70236Y46618D01*
X70174Y46606D01*
X70122Y46571D01*
X70087Y46519D01*
X70075Y46457D01*
X70087Y46395D01*
X70122Y46342D01*
X70174Y46307D01*
X70236Y46295D01*
X70236Y46295D01*
Y46295D01*
X70236Y46295D01*
Y46225D01*
X70236Y46225D01*
X70174Y46212D01*
X70122Y46177D01*
X70087Y46125D01*
X70075Y46063D01*
X70004D01*
X69992Y46125D01*
X69957Y46177D01*
X69904Y46212D01*
X69843Y46225D01*
X69781Y46212D01*
X69728Y46177D01*
X69693Y46125D01*
X69681Y46063D01*
X69610D01*
X69598Y46125D01*
X69563Y46177D01*
X69511Y46212D01*
X69449Y46225D01*
X69387Y46212D01*
X69335Y46177D01*
X69300Y46125D01*
X69287Y46063D01*
X69217D01*
X69204Y46125D01*
X69169Y46177D01*
X69117Y46212D01*
X69055Y46225D01*
X68993Y46212D01*
X68941Y46177D01*
X68906Y46125D01*
X68894Y46063D01*
X68823D01*
X68811Y46125D01*
X68776Y46177D01*
X68723Y46212D01*
X68661Y46225D01*
X68600Y46212D01*
X68547Y46177D01*
X68512Y46125D01*
X68500Y46063D01*
X68429D01*
X68417Y46125D01*
X68410Y46135D01*
X68303Y46028D01*
X68232Y46098D01*
X68340Y46206D01*
X68330Y46212D01*
X68268Y46225D01*
X68206Y46212D01*
X68153Y46177D01*
X68118Y46125D01*
X68106Y46063D01*
X68036D01*
X68023Y46125D01*
X67988Y46177D01*
X67936Y46212D01*
X67874Y46225D01*
Y46295D01*
X67936Y46307D01*
X67988Y46342D01*
X68023Y46395D01*
X68036Y46457D01*
X68023Y46519D01*
X67988Y46571D01*
X67936Y46606D01*
X67874Y46618D01*
Y46689D01*
X67936Y46701D01*
X67988Y46736D01*
X68023Y46789D01*
X68036Y46850D01*
X68023Y46912D01*
X67988Y46965D01*
X67936Y47000D01*
X67874Y47012D01*
Y47083D01*
X67936Y47095D01*
X67988Y47130D01*
X68023Y47182D01*
X68036Y47244D01*
X68023Y47306D01*
X67988Y47358D01*
X67936Y47393D01*
X67874Y47406D01*
Y47476D01*
X67936Y47489D01*
X67988Y47524D01*
X68023Y47576D01*
X68036Y47638D01*
X68023Y47700D01*
X67988Y47752D01*
X67936Y47787D01*
X67874Y47799D01*
Y47870D01*
X67936Y47882D01*
X67988Y47917D01*
X68023Y47970D01*
X68036Y48031D01*
X68023Y48093D01*
X67988Y48146D01*
X67936Y48181D01*
X67874Y48193D01*
Y48264D01*
X67936Y48276D01*
X67988Y48311D01*
X68023Y48363D01*
X68036Y48425D01*
X68106D01*
X68118Y48363D01*
X68153Y48311D01*
X68206Y48276D01*
X68268Y48264D01*
X68330Y48276D01*
X68382Y48311D01*
X68417Y48363D01*
X68429Y48425D01*
X68500D01*
X68512Y48363D01*
X68547Y48311D01*
X68600Y48276D01*
X68661Y48264D01*
X68723Y48276D01*
X68776Y48311D01*
X68811Y48363D01*
X68823Y48425D01*
X68894D01*
X68906Y48363D01*
X68913Y48353D01*
X69020Y48461D01*
X69091Y48390D01*
D02*
G37*
G36*
X36945Y38351D02*
X36845Y38250D01*
X36851Y38246D01*
X36909Y38234D01*
Y38144D01*
X36851Y38132D01*
X36802Y38099D01*
X36769Y38050D01*
X36758Y37992D01*
X36769Y37934D01*
X36774Y37927D01*
X36874Y38028D01*
X36945Y37957D01*
X36845Y37857D01*
X36851Y37852D01*
X36909Y37841D01*
Y37750D01*
X36851Y37738D01*
X36802Y37706D01*
X36769Y37656D01*
X36758Y37598D01*
X36769Y37540D01*
X36774Y37534D01*
X36874Y37634D01*
X36945Y37563D01*
X36845Y37463D01*
X36851Y37458D01*
X36909Y37447D01*
Y37356D01*
X36851Y37345D01*
X36802Y37312D01*
X36769Y37263D01*
X36758Y37205D01*
X36758Y37205D01*
X36758D01*
X36758Y37205D01*
X36667D01*
X36667Y37205D01*
X36656Y37263D01*
X36651Y37269D01*
X36551Y37169D01*
X36480Y37240D01*
X36580Y37340D01*
X36574Y37345D01*
X36516Y37356D01*
X36458Y37345D01*
X36409Y37312D01*
X36376Y37263D01*
X36364Y37205D01*
X36364Y37205D01*
X36364D01*
X36364Y37205D01*
X36274D01*
X36274Y37205D01*
X36262Y37263D01*
X36257Y37269D01*
X36157Y37169D01*
X36087Y37240D01*
X36187Y37340D01*
X36180Y37345D01*
X36122Y37356D01*
X36064Y37345D01*
X36015Y37312D01*
X35982Y37263D01*
X35971Y37205D01*
X35971Y37205D01*
X35971D01*
X35971Y37205D01*
X35880D01*
X35880Y37205D01*
X35868Y37263D01*
X35864Y37269D01*
X35764Y37169D01*
X35693Y37240D01*
X35793Y37340D01*
X35786Y37345D01*
X35728Y37356D01*
D01*
D01*
D01*
D01*
D01*
X35728Y37356D01*
D01*
D01*
D01*
D01*
X35728Y37356D01*
X35728Y37356D01*
Y37447D01*
X35728Y37447D01*
X35786Y37458D01*
X35835Y37491D01*
X35868Y37540D01*
X35880Y37598D01*
X35868Y37656D01*
X35864Y37663D01*
X35764Y37563D01*
X35693Y37634D01*
X35793Y37734D01*
X35786Y37738D01*
X35728Y37750D01*
D01*
D01*
D01*
D01*
D01*
X35728Y37750D01*
D01*
D01*
D01*
D01*
X35728Y37750D01*
X35728Y37750D01*
Y37841D01*
X35728Y37841D01*
X35786Y37852D01*
X35835Y37885D01*
X35868Y37934D01*
X35880Y37992D01*
X35868Y38050D01*
X35864Y38057D01*
X35764Y37957D01*
X35693Y38027D01*
X35793Y38128D01*
X35786Y38132D01*
X35728Y38144D01*
D01*
D01*
D01*
D01*
D01*
X35728Y38144D01*
D01*
D01*
D01*
D01*
X35728Y38144D01*
X35728Y38144D01*
Y38234D01*
X35728Y38234D01*
X35786Y38246D01*
X35835Y38279D01*
X35868Y38328D01*
X35880Y38386D01*
X35971D01*
X35982Y38328D01*
X35987Y38321D01*
X36087Y38421D01*
X36157Y38351D01*
X36057Y38250D01*
X36064Y38246D01*
X36122Y38234D01*
X36180Y38246D01*
X36229Y38279D01*
X36262Y38328D01*
X36274Y38386D01*
X36364D01*
X36376Y38328D01*
X36380Y38321D01*
X36480Y38421D01*
X36551Y38351D01*
X36451Y38250D01*
X36458Y38246D01*
X36516Y38234D01*
X36574Y38246D01*
X36623Y38279D01*
X36656Y38328D01*
X36667Y38386D01*
X36758D01*
X36769Y38328D01*
X36774Y38321D01*
X36874Y38421D01*
X36945Y38351D01*
D02*
G37*
G36*
X32713Y48390D02*
X32605Y48283D01*
X32615Y48276D01*
X32677Y48264D01*
X32739Y48276D01*
X32791Y48311D01*
X32826Y48363D01*
X32839Y48425D01*
X32909D01*
X32922Y48363D01*
X32957Y48311D01*
X33009Y48276D01*
X33071Y48264D01*
X33133Y48276D01*
X33185Y48311D01*
X33220Y48363D01*
X33232Y48425D01*
X33303D01*
X33315Y48363D01*
X33350Y48311D01*
X33403Y48276D01*
X33465Y48264D01*
X33526Y48276D01*
X33579Y48311D01*
X33614Y48363D01*
X33626Y48425D01*
X33697D01*
X33709Y48363D01*
X33744Y48311D01*
X33796Y48276D01*
X33858Y48264D01*
Y48193D01*
X33796Y48181D01*
X33744Y48146D01*
X33709Y48093D01*
X33697Y48031D01*
X33709Y47970D01*
X33744Y47917D01*
X33796Y47882D01*
X33858Y47870D01*
Y47799D01*
X33796Y47787D01*
X33744Y47752D01*
X33709Y47700D01*
X33697Y47638D01*
X33709Y47576D01*
X33744Y47524D01*
X33796Y47489D01*
X33858Y47476D01*
Y47406D01*
X33796Y47393D01*
X33744Y47358D01*
X33709Y47306D01*
X33697Y47244D01*
X33709Y47182D01*
X33744Y47130D01*
X33796Y47095D01*
X33858Y47083D01*
Y47012D01*
X33796Y47000D01*
X33744Y46965D01*
X33709Y46912D01*
X33697Y46850D01*
X33709Y46789D01*
X33744Y46736D01*
X33796Y46701D01*
X33858Y46689D01*
Y46618D01*
X33796Y46606D01*
X33744Y46571D01*
X33709Y46519D01*
X33697Y46457D01*
X33709Y46395D01*
X33744Y46342D01*
X33796Y46307D01*
X33858Y46295D01*
Y46225D01*
X33796Y46212D01*
X33744Y46177D01*
X33709Y46125D01*
X33697Y46063D01*
X33626D01*
X33614Y46125D01*
X33579Y46177D01*
X33526Y46212D01*
X33465Y46225D01*
X33403Y46212D01*
X33350Y46177D01*
X33315Y46125D01*
X33303Y46063D01*
X33232D01*
X33220Y46125D01*
X33185Y46177D01*
X33133Y46212D01*
X33071Y46225D01*
X33009Y46212D01*
X32957Y46177D01*
X32922Y46125D01*
X32909Y46063D01*
X32839D01*
X32826Y46125D01*
X32791Y46177D01*
X32739Y46212D01*
X32677Y46225D01*
X32615Y46212D01*
X32563Y46177D01*
X32528Y46125D01*
X32516Y46063D01*
X32445D01*
X32433Y46125D01*
X32398Y46177D01*
X32345Y46212D01*
X32283Y46225D01*
X32222Y46212D01*
X32169Y46177D01*
X32134Y46125D01*
X32122Y46063D01*
X32051D01*
X32039Y46125D01*
X32032Y46135D01*
X31925Y46028D01*
X31854Y46098D01*
X31962Y46206D01*
X31952Y46212D01*
X31890Y46225D01*
X31828Y46212D01*
X31776Y46177D01*
X31741Y46125D01*
X31728Y46063D01*
X31658D01*
X31645Y46125D01*
X31610Y46177D01*
X31558Y46212D01*
X31496Y46225D01*
Y46295D01*
X31558Y46307D01*
X31610Y46342D01*
X31645Y46395D01*
X31658Y46457D01*
X31645Y46519D01*
X31610Y46571D01*
X31558Y46606D01*
X31496Y46618D01*
Y46689D01*
X31558Y46701D01*
X31610Y46736D01*
X31645Y46789D01*
X31658Y46850D01*
X31645Y46912D01*
X31610Y46965D01*
X31558Y47000D01*
X31496Y47012D01*
Y47083D01*
X31558Y47095D01*
X31610Y47130D01*
X31645Y47182D01*
X31658Y47244D01*
X31645Y47306D01*
X31610Y47358D01*
X31558Y47393D01*
X31496Y47406D01*
Y47476D01*
X31558Y47489D01*
X31610Y47524D01*
X31645Y47576D01*
X31658Y47638D01*
X31645Y47700D01*
X31610Y47752D01*
X31558Y47787D01*
X31496Y47799D01*
Y47870D01*
X31558Y47882D01*
X31610Y47917D01*
X31645Y47970D01*
X31658Y48031D01*
X31645Y48093D01*
X31610Y48146D01*
X31558Y48181D01*
X31496Y48193D01*
Y48264D01*
X31558Y48276D01*
X31610Y48311D01*
X31645Y48363D01*
X31658Y48425D01*
X31728D01*
X31741Y48363D01*
X31776Y48311D01*
X31828Y48276D01*
X31890Y48264D01*
X31952Y48276D01*
X32004Y48311D01*
X32039Y48363D01*
X32051Y48425D01*
X32122D01*
X32134Y48363D01*
X32169Y48311D01*
X32222Y48276D01*
X32283Y48264D01*
X32345Y48276D01*
X32398Y48311D01*
X32433Y48363D01*
X32445Y48425D01*
X32516D01*
X32528Y48363D01*
X32535Y48353D01*
X32642Y48461D01*
X32713Y48390D01*
D02*
G37*
G36*
X56965D02*
X56857Y48283D01*
X56867Y48276D01*
X56929Y48264D01*
X56991Y48276D01*
X57043Y48311D01*
X57078Y48363D01*
X57091Y48425D01*
X57161D01*
X57174Y48363D01*
X57209Y48311D01*
X57261Y48276D01*
X57323Y48264D01*
X57385Y48276D01*
X57437Y48311D01*
X57472Y48363D01*
X57484Y48425D01*
X57555D01*
X57567Y48363D01*
X57602Y48311D01*
X57655Y48276D01*
X57717Y48264D01*
X57778Y48276D01*
X57831Y48311D01*
X57866Y48363D01*
X57878Y48425D01*
X57949D01*
X57961Y48363D01*
X57996Y48311D01*
X58048Y48276D01*
X58110Y48264D01*
Y48193D01*
X58048Y48181D01*
X57996Y48146D01*
X57961Y48093D01*
X57949Y48031D01*
X57961Y47970D01*
X57996Y47917D01*
X58048Y47882D01*
X58110Y47870D01*
Y47799D01*
X58048Y47787D01*
X57996Y47752D01*
X57961Y47700D01*
X57949Y47638D01*
X57961Y47576D01*
X57996Y47524D01*
X58048Y47489D01*
X58110Y47476D01*
Y47406D01*
X58048Y47393D01*
X57996Y47358D01*
X57961Y47306D01*
X57949Y47244D01*
X57961Y47182D01*
X57996Y47130D01*
X58048Y47095D01*
X58110Y47083D01*
Y47012D01*
X58048Y47000D01*
X57996Y46965D01*
X57961Y46912D01*
X57949Y46850D01*
X57961Y46789D01*
X57996Y46736D01*
X58048Y46701D01*
X58110Y46689D01*
Y46618D01*
X58048Y46606D01*
X57996Y46571D01*
X57961Y46519D01*
X57949Y46457D01*
X57961Y46395D01*
X57996Y46342D01*
X58048Y46307D01*
X58110Y46295D01*
Y46225D01*
X58048Y46212D01*
X57996Y46177D01*
X57961Y46125D01*
X57949Y46063D01*
X57878D01*
X57866Y46125D01*
X57831Y46177D01*
X57778Y46212D01*
X57717Y46225D01*
X57655Y46212D01*
X57602Y46177D01*
X57567Y46125D01*
X57555Y46063D01*
X57484D01*
X57472Y46125D01*
X57437Y46177D01*
X57385Y46212D01*
X57323Y46225D01*
X57261Y46212D01*
X57209Y46177D01*
X57174Y46125D01*
X57161Y46063D01*
X57091D01*
X57078Y46125D01*
X57043Y46177D01*
X56991Y46212D01*
X56929Y46225D01*
X56867Y46212D01*
X56815Y46177D01*
X56780Y46125D01*
X56768Y46063D01*
X56697D01*
X56685Y46125D01*
X56650Y46177D01*
X56597Y46212D01*
X56535Y46225D01*
X56474Y46212D01*
X56421Y46177D01*
X56386Y46125D01*
X56374Y46063D01*
X56303D01*
X56291Y46125D01*
X56284Y46135D01*
X56177Y46028D01*
X56106Y46098D01*
X56214Y46206D01*
X56204Y46212D01*
X56142Y46225D01*
X56080Y46212D01*
X56028Y46177D01*
X55992Y46125D01*
X55980Y46063D01*
X55910D01*
X55897Y46125D01*
X55862Y46177D01*
X55810Y46212D01*
X55748Y46225D01*
Y46295D01*
X55810Y46307D01*
X55862Y46342D01*
X55897Y46395D01*
X55910Y46457D01*
X55897Y46519D01*
X55862Y46571D01*
X55810Y46606D01*
X55748Y46618D01*
Y46689D01*
X55810Y46701D01*
X55862Y46736D01*
X55897Y46789D01*
X55910Y46850D01*
X55897Y46912D01*
X55862Y46965D01*
X55810Y47000D01*
X55748Y47012D01*
Y47083D01*
X55810Y47095D01*
X55862Y47130D01*
X55897Y47182D01*
X55910Y47244D01*
X55897Y47306D01*
X55862Y47358D01*
X55810Y47393D01*
X55748Y47406D01*
Y47476D01*
X55810Y47489D01*
X55862Y47524D01*
X55897Y47576D01*
X55910Y47638D01*
X55897Y47700D01*
X55862Y47752D01*
X55810Y47787D01*
X55748Y47799D01*
Y47870D01*
X55810Y47882D01*
X55862Y47917D01*
X55897Y47970D01*
X55910Y48031D01*
X55897Y48093D01*
X55862Y48146D01*
X55810Y48181D01*
X55748Y48193D01*
Y48264D01*
X55810Y48276D01*
X55862Y48311D01*
X55897Y48363D01*
X55910Y48425D01*
X55980D01*
X55992Y48363D01*
X56028Y48311D01*
X56080Y48276D01*
X56142Y48264D01*
X56204Y48276D01*
X56256Y48311D01*
X56291Y48363D01*
X56303Y48425D01*
X56374D01*
X56386Y48363D01*
X56421Y48311D01*
X56474Y48276D01*
X56535Y48264D01*
X56597Y48276D01*
X56650Y48311D01*
X56685Y48363D01*
X56697Y48425D01*
X56768D01*
X56780Y48363D01*
X56787Y48353D01*
X56894Y48461D01*
X56965Y48390D01*
D02*
G37*
G36*
X44839D02*
X44731Y48283D01*
X44741Y48276D01*
X44803Y48264D01*
X44865Y48276D01*
X44917Y48311D01*
X44952Y48363D01*
X44965Y48425D01*
X45035D01*
X45048Y48363D01*
X45083Y48311D01*
X45135Y48276D01*
X45197Y48264D01*
X45259Y48276D01*
X45311Y48311D01*
X45346Y48363D01*
X45358Y48425D01*
X45429D01*
X45441Y48363D01*
X45476Y48311D01*
X45529Y48276D01*
X45591Y48264D01*
X45652Y48276D01*
X45705Y48311D01*
X45740Y48363D01*
X45752Y48425D01*
X45823D01*
X45835Y48363D01*
X45870Y48311D01*
X45922Y48276D01*
X45984Y48264D01*
Y48193D01*
X45922Y48181D01*
X45870Y48146D01*
X45835Y48093D01*
X45823Y48031D01*
X45835Y47970D01*
X45870Y47917D01*
X45922Y47882D01*
X45984Y47870D01*
Y47799D01*
X45922Y47787D01*
X45870Y47752D01*
X45835Y47700D01*
X45823Y47638D01*
X45835Y47576D01*
X45870Y47524D01*
X45922Y47489D01*
X45984Y47476D01*
Y47406D01*
X45922Y47393D01*
X45870Y47358D01*
X45835Y47306D01*
X45823Y47244D01*
X45835Y47182D01*
X45870Y47130D01*
X45922Y47095D01*
X45984Y47083D01*
Y47012D01*
X45922Y47000D01*
X45870Y46965D01*
X45835Y46912D01*
X45823Y46850D01*
X45835Y46789D01*
X45870Y46736D01*
X45922Y46701D01*
X45984Y46689D01*
Y46618D01*
X45922Y46606D01*
X45870Y46571D01*
X45835Y46519D01*
X45823Y46457D01*
X45835Y46395D01*
X45870Y46342D01*
X45922Y46307D01*
X45984Y46295D01*
Y46225D01*
X45922Y46212D01*
X45870Y46177D01*
X45835Y46125D01*
X45823Y46063D01*
X45752D01*
X45740Y46125D01*
X45705Y46177D01*
X45652Y46212D01*
X45591Y46225D01*
X45529Y46212D01*
X45476Y46177D01*
X45441Y46125D01*
X45429Y46063D01*
X45358D01*
X45346Y46125D01*
X45311Y46177D01*
X45259Y46212D01*
X45197Y46225D01*
X45135Y46212D01*
X45083Y46177D01*
X45048Y46125D01*
X45035Y46063D01*
X44965D01*
X44952Y46125D01*
X44917Y46177D01*
X44865Y46212D01*
X44803Y46225D01*
X44741Y46212D01*
X44689Y46177D01*
X44654Y46125D01*
X44642Y46063D01*
X44571D01*
X44559Y46125D01*
X44524Y46177D01*
X44471Y46212D01*
X44409Y46225D01*
X44348Y46212D01*
X44295Y46177D01*
X44260Y46125D01*
X44248Y46063D01*
X44177D01*
X44165Y46125D01*
X44158Y46135D01*
X44051Y46028D01*
X43980Y46098D01*
X44088Y46206D01*
X44078Y46212D01*
X44016Y46225D01*
X43954Y46212D01*
X43902Y46177D01*
X43867Y46125D01*
X43854Y46063D01*
X43784D01*
X43771Y46125D01*
X43736Y46177D01*
X43684Y46212D01*
X43622Y46225D01*
Y46295D01*
X43684Y46307D01*
X43736Y46342D01*
X43771Y46395D01*
X43784Y46457D01*
X43771Y46519D01*
X43736Y46571D01*
X43684Y46606D01*
X43622Y46618D01*
Y46689D01*
X43684Y46701D01*
X43736Y46736D01*
X43771Y46789D01*
X43784Y46850D01*
X43771Y46912D01*
X43736Y46965D01*
X43684Y47000D01*
X43622Y47012D01*
Y47083D01*
X43684Y47095D01*
X43736Y47130D01*
X43771Y47182D01*
X43784Y47244D01*
X43771Y47306D01*
X43736Y47358D01*
X43684Y47393D01*
X43622Y47406D01*
Y47476D01*
X43684Y47489D01*
X43736Y47524D01*
X43771Y47576D01*
X43784Y47638D01*
X43771Y47700D01*
X43736Y47752D01*
X43684Y47787D01*
X43622Y47799D01*
Y47870D01*
X43684Y47882D01*
X43736Y47917D01*
X43771Y47970D01*
X43784Y48031D01*
X43771Y48093D01*
X43736Y48146D01*
X43684Y48181D01*
X43622Y48193D01*
Y48264D01*
X43684Y48276D01*
X43736Y48311D01*
X43771Y48363D01*
X43784Y48425D01*
X43854D01*
X43867Y48363D01*
X43902Y48311D01*
X43954Y48276D01*
X44016Y48264D01*
X44078Y48276D01*
X44130Y48311D01*
X44165Y48363D01*
X44177Y48425D01*
X44248D01*
X44260Y48363D01*
X44295Y48311D01*
X44348Y48276D01*
X44409Y48264D01*
X44471Y48276D01*
X44524Y48311D01*
X44559Y48363D01*
X44571Y48425D01*
X44642D01*
X44654Y48363D01*
X44661Y48353D01*
X44768Y48461D01*
X44839Y48390D01*
D02*
G37*
%LPC*%
G36*
X31890Y47012D02*
X31828Y47000D01*
X31776Y46965D01*
X31741Y46912D01*
X31728Y46850D01*
X31741Y46789D01*
X31747Y46779D01*
X31854Y46886D01*
D01*
X31854Y46886D01*
X31854Y46886D01*
D01*
X31962Y46993D01*
X31952Y47000D01*
X31890Y47012D01*
D02*
G37*
G36*
X32283D02*
X32222Y47000D01*
X32169Y46965D01*
X32134Y46912D01*
X32122Y46850D01*
X32134Y46789D01*
X32141Y46779D01*
X32248Y46886D01*
D01*
X32248Y46886D01*
X32248Y46886D01*
D01*
X32355Y46993D01*
X32345Y47000D01*
X32283Y47012D01*
D02*
G37*
G36*
X69198Y46922D02*
X69091Y46815D01*
D01*
X69090Y46815D01*
X69090Y46815D01*
D01*
X68983Y46708D01*
X68993Y46701D01*
X69055Y46689D01*
X69117Y46701D01*
X69169Y46736D01*
X69204Y46789D01*
X69217Y46850D01*
X69204Y46912D01*
X69198Y46922D01*
D02*
G37*
G36*
X69591D02*
X69484Y46815D01*
D01*
X69484Y46815D01*
X69484Y46815D01*
D01*
X69377Y46708D01*
X69387Y46701D01*
X69449Y46689D01*
X69511Y46701D01*
X69563Y46736D01*
X69598Y46789D01*
X69610Y46850D01*
X69598Y46912D01*
X69591Y46922D01*
D02*
G37*
G36*
X69985D02*
X69878Y46815D01*
D01*
X69878Y46815D01*
X69878Y46815D01*
D01*
X69771Y46708D01*
X69781Y46701D01*
X69843Y46689D01*
X69904Y46701D01*
X69957Y46736D01*
X69992Y46789D01*
X70004Y46850D01*
X69992Y46912D01*
X69985Y46922D01*
D02*
G37*
G36*
X32677Y47012D02*
X32615Y47000D01*
X32563Y46965D01*
X32528Y46912D01*
X32516Y46850D01*
X32528Y46789D01*
X32535Y46779D01*
X32642Y46886D01*
D01*
X32642Y46886D01*
X32642Y46886D01*
D01*
X32749Y46993D01*
X32739Y47000D01*
X32677Y47012D01*
D02*
G37*
G36*
X44409D02*
X44348Y47000D01*
X44295Y46965D01*
X44260Y46912D01*
X44248Y46850D01*
X44260Y46789D01*
X44267Y46779D01*
X44374Y46886D01*
D01*
X44374Y46886D01*
X44374Y46886D01*
D01*
X44481Y46993D01*
X44471Y47000D01*
X44409Y47012D01*
D02*
G37*
G36*
X44803D02*
X44741Y47000D01*
X44689Y46965D01*
X44654Y46912D01*
X44642Y46850D01*
X44654Y46789D01*
X44661Y46779D01*
X44768Y46886D01*
D01*
X44768Y46886D01*
X44768Y46886D01*
D01*
X44875Y46993D01*
X44865Y47000D01*
X44803Y47012D01*
D02*
G37*
G36*
X45197D02*
X45135Y47000D01*
X45083Y46965D01*
X45048Y46912D01*
X45035Y46850D01*
X45048Y46789D01*
X45054Y46779D01*
X45161Y46886D01*
D01*
X45161Y46886D01*
X45162Y46886D01*
D01*
X45269Y46993D01*
X45259Y47000D01*
X45197Y47012D01*
D02*
G37*
G36*
X33071D02*
X33009Y47000D01*
X32957Y46965D01*
X32922Y46912D01*
X32909Y46850D01*
X32922Y46789D01*
X32928Y46779D01*
X33035Y46886D01*
D01*
X33036Y46886D01*
X33036Y46886D01*
D01*
X33143Y46993D01*
X33133Y47000D01*
X33071Y47012D01*
D02*
G37*
G36*
X33465D02*
X33403Y47000D01*
X33350Y46965D01*
X33315Y46912D01*
X33303Y46850D01*
X33315Y46789D01*
X33322Y46779D01*
X33429Y46886D01*
D01*
X33429Y46886D01*
X33429Y46886D01*
D01*
X33536Y46993D01*
X33526Y47000D01*
X33465Y47012D01*
D02*
G37*
G36*
X44016D02*
X43954Y47000D01*
X43902Y46965D01*
X43867Y46912D01*
X43854Y46850D01*
X43867Y46789D01*
X43873Y46779D01*
X43980Y46886D01*
D01*
X43980Y46886D01*
X43980Y46886D01*
D01*
X44088Y46993D01*
X44078Y47000D01*
X44016Y47012D01*
D02*
G37*
G36*
X68804Y46922D02*
X68697Y46815D01*
D01*
X68697Y46815D01*
X68697Y46815D01*
D01*
X68590Y46708D01*
X68600Y46701D01*
X68661Y46689D01*
X68723Y46701D01*
X68776Y46736D01*
X68811Y46789D01*
X68823Y46850D01*
X68811Y46912D01*
X68804Y46922D01*
D02*
G37*
G36*
X44946D02*
X44839Y46815D01*
D01*
X44839Y46815D01*
X44838Y46815D01*
D01*
X44731Y46708D01*
X44741Y46701D01*
X44803Y46689D01*
X44865Y46701D01*
X44917Y46736D01*
X44952Y46789D01*
X44965Y46850D01*
X44952Y46912D01*
X44946Y46922D01*
D02*
G37*
G36*
X45339D02*
X45232Y46815D01*
D01*
X45232Y46815D01*
X45232Y46815D01*
D01*
X45125Y46708D01*
X45135Y46701D01*
X45197Y46689D01*
X45259Y46701D01*
X45311Y46736D01*
X45346Y46789D01*
X45358Y46850D01*
X45346Y46912D01*
X45339Y46922D01*
D02*
G37*
G36*
X45733D02*
X45626Y46815D01*
D01*
X45626Y46815D01*
X45626Y46815D01*
D01*
X45519Y46708D01*
X45529Y46701D01*
X45591Y46689D01*
X45652Y46701D01*
X45705Y46736D01*
X45740Y46789D01*
X45752Y46850D01*
X45740Y46912D01*
X45733Y46922D01*
D02*
G37*
G36*
X33607D02*
X33500Y46815D01*
D01*
X33500Y46815D01*
X33500Y46815D01*
D01*
X33393Y46708D01*
X33403Y46701D01*
X33465Y46689D01*
X33526Y46701D01*
X33579Y46736D01*
X33614Y46789D01*
X33626Y46850D01*
X33614Y46912D01*
X33607Y46922D01*
D02*
G37*
G36*
X44158D02*
X44051Y46815D01*
D01*
X44051Y46815D01*
X44051Y46815D01*
D01*
X43944Y46708D01*
X43954Y46701D01*
X44016Y46689D01*
X44078Y46701D01*
X44130Y46736D01*
X44165Y46789D01*
X44177Y46850D01*
X44165Y46912D01*
X44158Y46922D01*
D02*
G37*
G36*
X44552D02*
X44445Y46815D01*
D01*
X44445Y46815D01*
X44445Y46815D01*
D01*
X44338Y46708D01*
X44348Y46701D01*
X44409Y46689D01*
X44471Y46701D01*
X44524Y46736D01*
X44559Y46789D01*
X44571Y46850D01*
X44559Y46912D01*
X44552Y46922D01*
D02*
G37*
G36*
X57465D02*
X57358Y46815D01*
D01*
X57358Y46815D01*
X57358Y46815D01*
D01*
X57251Y46708D01*
X57261Y46701D01*
X57323Y46689D01*
X57385Y46701D01*
X57437Y46736D01*
X57472Y46789D01*
X57484Y46850D01*
X57472Y46912D01*
X57465Y46922D01*
D02*
G37*
G36*
X57859D02*
X57752Y46815D01*
D01*
X57752Y46815D01*
X57752Y46815D01*
D01*
X57645Y46708D01*
X57655Y46701D01*
X57717Y46689D01*
X57778Y46701D01*
X57831Y46736D01*
X57866Y46789D01*
X57878Y46850D01*
X57866Y46912D01*
X57859Y46922D01*
D02*
G37*
G36*
X68410D02*
X68303Y46815D01*
D01*
X68303Y46815D01*
X68303Y46815D01*
D01*
X68196Y46708D01*
X68206Y46701D01*
X68268Y46689D01*
X68330Y46701D01*
X68382Y46736D01*
X68417Y46789D01*
X68429Y46850D01*
X68417Y46912D01*
X68410Y46922D01*
D02*
G37*
G36*
X56284D02*
X56177Y46815D01*
D01*
X56177Y46815D01*
X56177Y46815D01*
D01*
X56070Y46708D01*
X56080Y46701D01*
X56142Y46689D01*
X56204Y46701D01*
X56256Y46736D01*
X56291Y46789D01*
X56303Y46850D01*
X56291Y46912D01*
X56284Y46922D01*
D02*
G37*
G36*
X56678D02*
X56571Y46815D01*
D01*
X56571Y46815D01*
X56571Y46815D01*
D01*
X56464Y46708D01*
X56474Y46701D01*
X56535Y46689D01*
X56597Y46701D01*
X56650Y46736D01*
X56685Y46789D01*
X56697Y46850D01*
X56685Y46912D01*
X56678Y46922D01*
D02*
G37*
G36*
X57072D02*
X56965Y46815D01*
D01*
X56964Y46815D01*
X56964Y46815D01*
D01*
X56857Y46708D01*
X56867Y46701D01*
X56929Y46689D01*
X56991Y46701D01*
X57043Y46736D01*
X57078Y46789D01*
X57091Y46850D01*
X57078Y46912D01*
X57072Y46922D01*
D02*
G37*
G36*
X45591Y47012D02*
X45529Y47000D01*
X45476Y46965D01*
X45441Y46912D01*
X45429Y46850D01*
X45441Y46789D01*
X45448Y46779D01*
X45555Y46886D01*
D01*
X45555Y46886D01*
X45555Y46886D01*
D01*
X45662Y46993D01*
X45652Y47000D01*
X45591Y47012D01*
D02*
G37*
G36*
X44552Y47316D02*
X44445Y47209D01*
D01*
X44445Y47209D01*
X44445Y47209D01*
D01*
X44338Y47102D01*
X44348Y47095D01*
X44409Y47083D01*
X44471Y47095D01*
X44524Y47130D01*
X44559Y47182D01*
X44571Y47244D01*
X44559Y47306D01*
X44552Y47316D01*
D02*
G37*
G36*
X44946D02*
X44839Y47209D01*
D01*
X44839Y47209D01*
X44838Y47209D01*
D01*
X44731Y47102D01*
X44741Y47095D01*
X44803Y47083D01*
X44865Y47095D01*
X44917Y47130D01*
X44952Y47182D01*
X44965Y47244D01*
X44952Y47306D01*
X44946Y47316D01*
D02*
G37*
G36*
X45339D02*
X45232Y47209D01*
D01*
X45232Y47209D01*
X45232Y47209D01*
D01*
X45125Y47102D01*
X45135Y47095D01*
X45197Y47083D01*
X45259Y47095D01*
X45311Y47130D01*
X45346Y47182D01*
X45358Y47244D01*
X45346Y47306D01*
X45339Y47316D01*
D02*
G37*
G36*
X33213D02*
X33106Y47209D01*
D01*
X33106Y47209D01*
X33106Y47209D01*
D01*
X32999Y47102D01*
X33009Y47095D01*
X33071Y47083D01*
X33133Y47095D01*
X33185Y47130D01*
X33220Y47182D01*
X33232Y47244D01*
X33220Y47306D01*
X33213Y47316D01*
D02*
G37*
G36*
X33607D02*
X33500Y47209D01*
D01*
X33500Y47209D01*
X33500Y47209D01*
D01*
X33393Y47102D01*
X33403Y47095D01*
X33465Y47083D01*
X33526Y47095D01*
X33579Y47130D01*
X33614Y47182D01*
X33626Y47244D01*
X33614Y47306D01*
X33607Y47316D01*
D02*
G37*
G36*
X44158D02*
X44051Y47209D01*
D01*
X44051Y47209D01*
X44051Y47209D01*
D01*
X43944Y47102D01*
X43954Y47095D01*
X44016Y47083D01*
X44078Y47095D01*
X44130Y47130D01*
X44165Y47182D01*
X44177Y47244D01*
X44165Y47306D01*
X44158Y47316D01*
D02*
G37*
G36*
X57072D02*
X56965Y47209D01*
D01*
X56964Y47209D01*
X56964Y47209D01*
D01*
X56857Y47102D01*
X56867Y47095D01*
X56929Y47083D01*
X56991Y47095D01*
X57043Y47130D01*
X57078Y47182D01*
X57091Y47244D01*
X57078Y47306D01*
X57072Y47316D01*
D02*
G37*
G36*
X57465D02*
X57358Y47209D01*
D01*
X57358Y47209D01*
X57358Y47209D01*
D01*
X57251Y47102D01*
X57261Y47095D01*
X57323Y47083D01*
X57385Y47095D01*
X57437Y47130D01*
X57472Y47182D01*
X57484Y47244D01*
X57472Y47306D01*
X57465Y47316D01*
D02*
G37*
G36*
X57859D02*
X57752Y47209D01*
D01*
X57752Y47209D01*
X57752Y47209D01*
D01*
X57645Y47102D01*
X57655Y47095D01*
X57717Y47083D01*
X57778Y47095D01*
X57831Y47130D01*
X57866Y47182D01*
X57878Y47244D01*
X57866Y47306D01*
X57859Y47316D01*
D02*
G37*
G36*
X45733D02*
X45626Y47209D01*
D01*
X45626Y47209D01*
X45626Y47209D01*
D01*
X45519Y47102D01*
X45529Y47095D01*
X45591Y47083D01*
X45652Y47095D01*
X45705Y47130D01*
X45740Y47182D01*
X45752Y47244D01*
X45740Y47306D01*
X45733Y47316D01*
D02*
G37*
G36*
X56284D02*
X56177Y47209D01*
D01*
X56177Y47209D01*
X56177Y47209D01*
D01*
X56070Y47102D01*
X56080Y47095D01*
X56142Y47083D01*
X56204Y47095D01*
X56256Y47130D01*
X56291Y47182D01*
X56303Y47244D01*
X56291Y47306D01*
X56284Y47316D01*
D02*
G37*
G36*
X56678D02*
X56571Y47209D01*
D01*
X56571Y47209D01*
X56571Y47209D01*
D01*
X56464Y47102D01*
X56474Y47095D01*
X56535Y47083D01*
X56597Y47095D01*
X56650Y47130D01*
X56685Y47182D01*
X56697Y47244D01*
X56685Y47306D01*
X56678Y47316D01*
D02*
G37*
G36*
X32820D02*
X32713Y47209D01*
D01*
X32713Y47209D01*
X32712Y47209D01*
D01*
X32605Y47102D01*
X32615Y47095D01*
X32677Y47083D01*
X32739Y47095D01*
X32791Y47130D01*
X32826Y47182D01*
X32839Y47244D01*
X32826Y47306D01*
X32820Y47316D01*
D02*
G37*
G36*
X57323Y47012D02*
X57261Y47000D01*
X57209Y46965D01*
X57174Y46912D01*
X57161Y46850D01*
X57174Y46789D01*
X57180Y46779D01*
X57287Y46886D01*
D01*
X57287Y46886D01*
X57288Y46886D01*
D01*
X57395Y46993D01*
X57385Y47000D01*
X57323Y47012D01*
D02*
G37*
G36*
X57717D02*
X57655Y47000D01*
X57602Y46965D01*
X57567Y46912D01*
X57555Y46850D01*
X57567Y46789D01*
X57574Y46779D01*
X57681Y46886D01*
D01*
X57681Y46886D01*
X57681Y46886D01*
D01*
X57788Y46993D01*
X57778Y47000D01*
X57717Y47012D01*
D02*
G37*
G36*
X68268D02*
X68206Y47000D01*
X68153Y46965D01*
X68118Y46912D01*
X68106Y46850D01*
X68118Y46789D01*
X68125Y46779D01*
X68232Y46886D01*
D01*
X68232Y46886D01*
X68232Y46886D01*
D01*
X68340Y46993D01*
X68330Y47000D01*
X68268Y47012D01*
D02*
G37*
G36*
X56142D02*
X56080Y47000D01*
X56028Y46965D01*
X55992Y46912D01*
X55980Y46850D01*
X55992Y46789D01*
X55999Y46779D01*
X56106Y46886D01*
D01*
X56106Y46886D01*
X56106Y46886D01*
D01*
X56214Y46993D01*
X56204Y47000D01*
X56142Y47012D01*
D02*
G37*
G36*
X56535D02*
X56474Y47000D01*
X56421Y46965D01*
X56386Y46912D01*
X56374Y46850D01*
X56386Y46789D01*
X56393Y46779D01*
X56500Y46886D01*
D01*
X56500Y46886D01*
X56500Y46886D01*
D01*
X56607Y46993D01*
X56597Y47000D01*
X56535Y47012D01*
D02*
G37*
G36*
X56929D02*
X56867Y47000D01*
X56815Y46965D01*
X56780Y46912D01*
X56768Y46850D01*
X56780Y46789D01*
X56787Y46779D01*
X56894Y46886D01*
D01*
X56894Y46886D01*
X56894Y46886D01*
D01*
X57001Y46993D01*
X56991Y47000D01*
X56929Y47012D01*
D02*
G37*
G36*
X69843D02*
X69781Y47000D01*
X69728Y46965D01*
X69693Y46912D01*
X69681Y46850D01*
X69693Y46789D01*
X69700Y46779D01*
X69807Y46886D01*
D01*
X69807Y46886D01*
X69807Y46886D01*
D01*
X69914Y46993D01*
X69904Y47000D01*
X69843Y47012D01*
D02*
G37*
G36*
X32032Y47316D02*
X31925Y47209D01*
D01*
X31925Y47209D01*
X31925Y47209D01*
D01*
X31818Y47102D01*
X31828Y47095D01*
X31890Y47083D01*
X31952Y47095D01*
X32004Y47130D01*
X32039Y47182D01*
X32051Y47244D01*
X32039Y47306D01*
X32032Y47316D01*
D02*
G37*
G36*
X32426D02*
X32319Y47209D01*
D01*
X32319Y47209D01*
X32319Y47209D01*
D01*
X32212Y47102D01*
X32222Y47095D01*
X32283Y47083D01*
X32345Y47095D01*
X32398Y47130D01*
X32433Y47182D01*
X32445Y47244D01*
X32433Y47306D01*
X32426Y47316D01*
D02*
G37*
G36*
X68661Y47012D02*
X68600Y47000D01*
X68547Y46965D01*
X68512Y46912D01*
X68500Y46850D01*
X68512Y46789D01*
X68519Y46779D01*
X68626Y46886D01*
D01*
X68626Y46886D01*
X68626Y46886D01*
D01*
X68733Y46993D01*
X68723Y47000D01*
X68661Y47012D01*
D02*
G37*
G36*
X69055D02*
X68993Y47000D01*
X68941Y46965D01*
X68906Y46912D01*
X68894Y46850D01*
X68906Y46789D01*
X68913Y46779D01*
X69020Y46886D01*
D01*
X69020Y46886D01*
X69020Y46886D01*
D01*
X69127Y46993D01*
X69117Y47000D01*
X69055Y47012D01*
D02*
G37*
G36*
X69449D02*
X69387Y47000D01*
X69335Y46965D01*
X69300Y46912D01*
X69287Y46850D01*
X69300Y46789D01*
X69306Y46779D01*
X69413Y46886D01*
D01*
X69413Y46886D01*
X69414Y46886D01*
D01*
X69521Y46993D01*
X69511Y47000D01*
X69449Y47012D01*
D02*
G37*
G36*
X33213Y46922D02*
X33106Y46815D01*
D01*
X33106Y46815D01*
X33106Y46815D01*
D01*
X32999Y46708D01*
X33009Y46701D01*
X33071Y46689D01*
X33133Y46701D01*
X33185Y46736D01*
X33220Y46789D01*
X33232Y46850D01*
X33220Y46912D01*
X33213Y46922D01*
D02*
G37*
G36*
X45339Y46529D02*
X45232Y46421D01*
D01*
X45232Y46421D01*
X45232Y46421D01*
D01*
X45125Y46314D01*
X45135Y46307D01*
X45197Y46295D01*
X45259Y46307D01*
X45311Y46342D01*
X45346Y46395D01*
X45358Y46457D01*
X45346Y46519D01*
X45339Y46529D01*
D02*
G37*
G36*
X45733D02*
X45626Y46421D01*
D01*
X45626Y46421D01*
X45626Y46421D01*
D01*
X45519Y46314D01*
X45529Y46307D01*
X45591Y46295D01*
X45652Y46307D01*
X45705Y46342D01*
X45740Y46395D01*
X45752Y46457D01*
X45740Y46519D01*
X45733Y46529D01*
D02*
G37*
G36*
X56284D02*
X56177Y46421D01*
D01*
X56177Y46421D01*
X56177Y46421D01*
D01*
X56070Y46314D01*
X56080Y46307D01*
X56142Y46295D01*
X56204Y46307D01*
X56256Y46342D01*
X56291Y46395D01*
X56303Y46457D01*
X56291Y46519D01*
X56284Y46529D01*
D02*
G37*
G36*
X44158D02*
X44051Y46421D01*
D01*
X44051Y46421D01*
X44051Y46421D01*
D01*
X43944Y46314D01*
X43954Y46307D01*
X44016Y46295D01*
X44078Y46307D01*
X44130Y46342D01*
X44165Y46395D01*
X44177Y46457D01*
X44165Y46519D01*
X44158Y46529D01*
D02*
G37*
G36*
X44552D02*
X44445Y46421D01*
D01*
X44445Y46421D01*
X44445Y46421D01*
D01*
X44338Y46314D01*
X44348Y46307D01*
X44409Y46295D01*
X44471Y46307D01*
X44524Y46342D01*
X44559Y46395D01*
X44571Y46457D01*
X44559Y46519D01*
X44552Y46529D01*
D02*
G37*
G36*
X44946D02*
X44839Y46421D01*
D01*
X44839Y46421D01*
X44838Y46421D01*
D01*
X44731Y46314D01*
X44741Y46307D01*
X44803Y46295D01*
X44865Y46307D01*
X44917Y46342D01*
X44952Y46395D01*
X44965Y46457D01*
X44952Y46519D01*
X44946Y46529D01*
D02*
G37*
G36*
X57859D02*
X57752Y46421D01*
D01*
X57752Y46421D01*
X57752Y46421D01*
D01*
X57645Y46314D01*
X57655Y46307D01*
X57717Y46295D01*
X57778Y46307D01*
X57831Y46342D01*
X57866Y46395D01*
X57878Y46457D01*
X57866Y46519D01*
X57859Y46529D01*
D02*
G37*
G36*
X68410D02*
X68303Y46421D01*
D01*
X68303Y46421D01*
X68303Y46421D01*
D01*
X68196Y46314D01*
X68206Y46307D01*
X68268Y46295D01*
X68330Y46307D01*
X68382Y46342D01*
X68417Y46395D01*
X68429Y46457D01*
X68417Y46519D01*
X68410Y46529D01*
D02*
G37*
G36*
X68804D02*
X68697Y46421D01*
D01*
X68697Y46421D01*
X68697Y46421D01*
D01*
X68590Y46314D01*
X68600Y46307D01*
X68661Y46295D01*
X68723Y46307D01*
X68776Y46342D01*
X68811Y46395D01*
X68823Y46457D01*
X68811Y46519D01*
X68804Y46529D01*
D02*
G37*
G36*
X56678D02*
X56571Y46421D01*
D01*
X56571Y46421D01*
X56571Y46421D01*
D01*
X56464Y46314D01*
X56474Y46307D01*
X56535Y46295D01*
X56597Y46307D01*
X56650Y46342D01*
X56685Y46395D01*
X56697Y46457D01*
X56685Y46519D01*
X56678Y46529D01*
D02*
G37*
G36*
X57072D02*
X56965Y46421D01*
D01*
X56964Y46421D01*
X56964Y46421D01*
D01*
X56857Y46314D01*
X56867Y46307D01*
X56929Y46295D01*
X56991Y46307D01*
X57043Y46342D01*
X57078Y46395D01*
X57091Y46457D01*
X57078Y46519D01*
X57072Y46529D01*
D02*
G37*
G36*
X57465D02*
X57358Y46421D01*
D01*
X57358Y46421D01*
X57358Y46421D01*
D01*
X57251Y46314D01*
X57261Y46307D01*
X57323Y46295D01*
X57385Y46307D01*
X57437Y46342D01*
X57472Y46395D01*
X57484Y46457D01*
X57472Y46519D01*
X57465Y46529D01*
D02*
G37*
G36*
X33607D02*
X33500Y46421D01*
D01*
X33500Y46421D01*
X33500Y46421D01*
D01*
X33393Y46314D01*
X33403Y46307D01*
X33465Y46295D01*
X33526Y46307D01*
X33579Y46342D01*
X33614Y46395D01*
X33626Y46457D01*
X33614Y46519D01*
X33607Y46529D01*
D02*
G37*
G36*
X36516Y37750D02*
X36458Y37738D01*
X36409Y37706D01*
X36376Y37656D01*
X36364Y37598D01*
X36376Y37540D01*
X36380Y37534D01*
X36480Y37634D01*
D01*
X36480Y37634D01*
X36480Y37634D01*
D01*
X36580Y37734D01*
X36574Y37738D01*
X36516Y37750D01*
D02*
G37*
G36*
X36257Y38057D02*
X36157Y37957D01*
D01*
X36157Y37957D01*
X36157Y37957D01*
D01*
X36057Y37857D01*
X36064Y37852D01*
X36122Y37841D01*
X36180Y37852D01*
X36229Y37885D01*
X36262Y37934D01*
X36274Y37992D01*
X36262Y38050D01*
X36257Y38057D01*
D02*
G37*
G36*
X36651D02*
X36551Y37957D01*
D01*
X36551Y37957D01*
X36551Y37957D01*
D01*
X36451Y37857D01*
X36458Y37852D01*
X36516Y37841D01*
X36574Y37852D01*
X36623Y37885D01*
X36656Y37934D01*
X36667Y37992D01*
X36656Y38050D01*
X36651Y38057D01*
D02*
G37*
G36*
X36257Y37663D02*
X36157Y37563D01*
D01*
X36157Y37563D01*
X36157Y37563D01*
D01*
X36057Y37463D01*
X36064Y37458D01*
X36122Y37447D01*
X36180Y37458D01*
X36229Y37491D01*
X36262Y37540D01*
X36274Y37598D01*
X36262Y37656D01*
X36257Y37663D01*
D02*
G37*
G36*
X36651D02*
X36551Y37563D01*
D01*
X36551Y37563D01*
X36551Y37563D01*
D01*
X36451Y37463D01*
X36458Y37458D01*
X36516Y37447D01*
X36574Y37458D01*
X36623Y37491D01*
X36656Y37540D01*
X36667Y37598D01*
X36656Y37656D01*
X36651Y37663D01*
D02*
G37*
G36*
X36122Y37750D02*
X36064Y37738D01*
X36015Y37706D01*
X35982Y37656D01*
X35971Y37598D01*
X35982Y37540D01*
X35987Y37534D01*
X36087Y37634D01*
D01*
X36087Y37634D01*
X36087Y37634D01*
D01*
X36187Y37734D01*
X36180Y37738D01*
X36122Y37750D01*
D02*
G37*
G36*
X32426Y46529D02*
X32319Y46421D01*
D01*
X32319Y46421D01*
X32319Y46421D01*
D01*
X32212Y46314D01*
X32222Y46307D01*
X32283Y46295D01*
X32345Y46307D01*
X32398Y46342D01*
X32433Y46395D01*
X32445Y46457D01*
X32433Y46519D01*
X32426Y46529D01*
D02*
G37*
G36*
X32820D02*
X32713Y46421D01*
D01*
X32713Y46421D01*
X32712Y46421D01*
D01*
X32605Y46314D01*
X32615Y46307D01*
X32677Y46295D01*
X32739Y46307D01*
X32791Y46342D01*
X32826Y46395D01*
X32839Y46457D01*
X32826Y46519D01*
X32820Y46529D01*
D02*
G37*
G36*
X33213D02*
X33106Y46421D01*
D01*
X33106Y46421D01*
X33106Y46421D01*
D01*
X32999Y46314D01*
X33009Y46307D01*
X33071Y46295D01*
X33133Y46307D01*
X33185Y46342D01*
X33220Y46395D01*
X33232Y46457D01*
X33220Y46519D01*
X33213Y46529D01*
D02*
G37*
G36*
X36122Y38144D02*
X36064Y38132D01*
X36015Y38099D01*
X35982Y38050D01*
X35971Y37992D01*
X35982Y37934D01*
X35987Y37927D01*
X36087Y38027D01*
D01*
X36087Y38027D01*
X36087Y38028D01*
D01*
X36187Y38128D01*
X36180Y38132D01*
X36122Y38144D01*
D02*
G37*
G36*
X36516D02*
X36458Y38132D01*
X36409Y38099D01*
X36376Y38050D01*
X36364Y37992D01*
X36376Y37934D01*
X36380Y37927D01*
X36480Y38027D01*
D01*
X36480Y38027D01*
X36480Y38028D01*
D01*
X36580Y38128D01*
X36574Y38132D01*
X36516Y38144D01*
D02*
G37*
G36*
X32032Y46529D02*
X31925Y46421D01*
D01*
X31925Y46421D01*
X31925Y46421D01*
D01*
X31818Y46314D01*
X31828Y46307D01*
X31890Y46295D01*
X31952Y46307D01*
X32004Y46342D01*
X32039Y46395D01*
X32051Y46457D01*
X32039Y46519D01*
X32032Y46529D01*
D02*
G37*
G36*
X69198D02*
X69091Y46421D01*
D01*
X69090Y46421D01*
X69090Y46421D01*
D01*
X68983Y46314D01*
X68993Y46307D01*
X69055Y46295D01*
X69117Y46307D01*
X69169Y46342D01*
X69204Y46395D01*
X69217Y46457D01*
X69204Y46519D01*
X69198Y46529D01*
D02*
G37*
G36*
X57717Y46618D02*
X57655Y46606D01*
X57602Y46571D01*
X57567Y46519D01*
X57555Y46457D01*
X57567Y46395D01*
X57574Y46385D01*
X57681Y46492D01*
D01*
X57681Y46492D01*
X57681Y46492D01*
D01*
X57788Y46599D01*
X57778Y46606D01*
X57717Y46618D01*
D02*
G37*
G36*
X68268D02*
X68206Y46606D01*
X68153Y46571D01*
X68118Y46519D01*
X68106Y46457D01*
X68118Y46395D01*
X68125Y46385D01*
X68232Y46492D01*
D01*
X68232Y46492D01*
X68232Y46492D01*
D01*
X68340Y46599D01*
X68330Y46606D01*
X68268Y46618D01*
D02*
G37*
G36*
X68661D02*
X68600Y46606D01*
X68547Y46571D01*
X68512Y46519D01*
X68500Y46457D01*
X68512Y46395D01*
X68519Y46385D01*
X68626Y46492D01*
D01*
X68626Y46492D01*
X68626Y46492D01*
D01*
X68733Y46599D01*
X68723Y46606D01*
X68661Y46618D01*
D02*
G37*
G36*
X56535D02*
X56474Y46606D01*
X56421Y46571D01*
X56386Y46519D01*
X56374Y46457D01*
X56386Y46395D01*
X56393Y46385D01*
X56500Y46492D01*
D01*
X56500Y46492D01*
X56500Y46492D01*
D01*
X56607Y46599D01*
X56597Y46606D01*
X56535Y46618D01*
D02*
G37*
G36*
X56929D02*
X56867Y46606D01*
X56815Y46571D01*
X56780Y46519D01*
X56768Y46457D01*
X56780Y46395D01*
X56787Y46385D01*
X56894Y46492D01*
D01*
X56894Y46492D01*
X56894Y46492D01*
D01*
X57001Y46599D01*
X56991Y46606D01*
X56929Y46618D01*
D02*
G37*
G36*
X57323D02*
X57261Y46606D01*
X57209Y46571D01*
X57174Y46519D01*
X57161Y46457D01*
X57174Y46395D01*
X57180Y46385D01*
X57287Y46492D01*
D01*
X57287Y46492D01*
X57288Y46492D01*
D01*
X57395Y46599D01*
X57385Y46606D01*
X57323Y46618D01*
D02*
G37*
G36*
X32032Y46922D02*
X31925Y46815D01*
D01*
X31925Y46815D01*
X31925Y46815D01*
D01*
X31818Y46708D01*
X31828Y46701D01*
X31890Y46689D01*
X31952Y46701D01*
X32004Y46736D01*
X32039Y46789D01*
X32051Y46850D01*
X32039Y46912D01*
X32032Y46922D01*
D02*
G37*
G36*
X32426D02*
X32319Y46815D01*
D01*
X32319Y46815D01*
X32319Y46815D01*
D01*
X32212Y46708D01*
X32222Y46701D01*
X32283Y46689D01*
X32345Y46701D01*
X32398Y46736D01*
X32433Y46789D01*
X32445Y46850D01*
X32433Y46912D01*
X32426Y46922D01*
D02*
G37*
G36*
X32820D02*
X32713Y46815D01*
D01*
X32713Y46815D01*
X32712Y46815D01*
D01*
X32605Y46708D01*
X32615Y46701D01*
X32677Y46689D01*
X32739Y46701D01*
X32791Y46736D01*
X32826Y46789D01*
X32839Y46850D01*
X32826Y46912D01*
X32820Y46922D01*
D02*
G37*
G36*
X69055Y46618D02*
X68993Y46606D01*
X68941Y46571D01*
X68906Y46519D01*
X68894Y46457D01*
X68906Y46395D01*
X68913Y46385D01*
X69020Y46492D01*
D01*
X69020Y46492D01*
X69020Y46492D01*
D01*
X69127Y46599D01*
X69117Y46606D01*
X69055Y46618D01*
D02*
G37*
G36*
X69449D02*
X69387Y46606D01*
X69335Y46571D01*
X69300Y46519D01*
X69287Y46457D01*
X69300Y46395D01*
X69306Y46385D01*
X69413Y46492D01*
D01*
X69413Y46492D01*
X69414Y46492D01*
D01*
X69521Y46599D01*
X69511Y46606D01*
X69449Y46618D01*
D02*
G37*
G36*
X69843D02*
X69781Y46606D01*
X69728Y46571D01*
X69693Y46519D01*
X69681Y46457D01*
X69693Y46395D01*
X69700Y46385D01*
X69807Y46492D01*
D01*
X69807Y46492D01*
X69807Y46492D01*
D01*
X69914Y46599D01*
X69904Y46606D01*
X69843Y46618D01*
D02*
G37*
G36*
X56142D02*
X56080Y46606D01*
X56028Y46571D01*
X55992Y46519D01*
X55980Y46457D01*
X55992Y46395D01*
X55999Y46385D01*
X56106Y46492D01*
D01*
X56106Y46492D01*
X56106Y46492D01*
D01*
X56214Y46599D01*
X56204Y46606D01*
X56142Y46618D01*
D02*
G37*
G36*
X32283D02*
X32222Y46606D01*
X32169Y46571D01*
X32134Y46519D01*
X32122Y46457D01*
X32134Y46395D01*
X32141Y46385D01*
X32248Y46492D01*
D01*
X32248Y46492D01*
X32248Y46492D01*
D01*
X32355Y46599D01*
X32345Y46606D01*
X32283Y46618D01*
D02*
G37*
G36*
X32677D02*
X32615Y46606D01*
X32563Y46571D01*
X32528Y46519D01*
X32516Y46457D01*
X32528Y46395D01*
X32535Y46385D01*
X32642Y46492D01*
D01*
X32642Y46492D01*
X32642Y46492D01*
D01*
X32749Y46599D01*
X32739Y46606D01*
X32677Y46618D01*
D02*
G37*
G36*
X33071D02*
X33009Y46606D01*
X32957Y46571D01*
X32922Y46519D01*
X32909Y46457D01*
X32922Y46395D01*
X32928Y46385D01*
X33035Y46492D01*
D01*
X33036Y46492D01*
X33036Y46492D01*
D01*
X33143Y46599D01*
X33133Y46606D01*
X33071Y46618D01*
D02*
G37*
G36*
X69591Y46529D02*
X69484Y46421D01*
D01*
X69484Y46421D01*
X69484Y46421D01*
D01*
X69377Y46314D01*
X69387Y46307D01*
X69449Y46295D01*
X69511Y46307D01*
X69563Y46342D01*
X69598Y46395D01*
X69610Y46457D01*
X69598Y46519D01*
X69591Y46529D01*
D02*
G37*
G36*
X69985D02*
X69878Y46421D01*
D01*
X69878Y46421D01*
X69878Y46421D01*
D01*
X69771Y46314D01*
X69781Y46307D01*
X69843Y46295D01*
X69904Y46307D01*
X69957Y46342D01*
X69992Y46395D01*
X70004Y46457D01*
X69992Y46519D01*
X69985Y46529D01*
D02*
G37*
G36*
X31890Y46618D02*
X31828Y46606D01*
X31776Y46571D01*
X31741Y46519D01*
X31728Y46457D01*
X31741Y46395D01*
X31747Y46385D01*
X31854Y46492D01*
D01*
X31854Y46492D01*
X31854Y46492D01*
D01*
X31962Y46599D01*
X31952Y46606D01*
X31890Y46618D01*
D02*
G37*
G36*
X44803D02*
X44741Y46606D01*
X44689Y46571D01*
X44654Y46519D01*
X44642Y46457D01*
X44654Y46395D01*
X44661Y46385D01*
X44768Y46492D01*
D01*
X44768Y46492D01*
X44768Y46492D01*
D01*
X44875Y46599D01*
X44865Y46606D01*
X44803Y46618D01*
D02*
G37*
G36*
X45197D02*
X45135Y46606D01*
X45083Y46571D01*
X45048Y46519D01*
X45035Y46457D01*
X45048Y46395D01*
X45054Y46385D01*
X45161Y46492D01*
D01*
X45161Y46492D01*
X45162Y46492D01*
D01*
X45269Y46599D01*
X45259Y46606D01*
X45197Y46618D01*
D02*
G37*
G36*
X45591D02*
X45529Y46606D01*
X45476Y46571D01*
X45441Y46519D01*
X45429Y46457D01*
X45441Y46395D01*
X45448Y46385D01*
X45555Y46492D01*
D01*
X45555Y46492D01*
X45555Y46492D01*
D01*
X45662Y46599D01*
X45652Y46606D01*
X45591Y46618D01*
D02*
G37*
G36*
X33465D02*
X33403Y46606D01*
X33350Y46571D01*
X33315Y46519D01*
X33303Y46457D01*
X33315Y46395D01*
X33322Y46385D01*
X33429Y46492D01*
D01*
X33429Y46492D01*
X33429Y46492D01*
D01*
X33536Y46599D01*
X33526Y46606D01*
X33465Y46618D01*
D02*
G37*
G36*
X44016D02*
X43954Y46606D01*
X43902Y46571D01*
X43867Y46519D01*
X43854Y46457D01*
X43867Y46395D01*
X43873Y46385D01*
X43980Y46492D01*
D01*
X43980Y46492D01*
X43980Y46492D01*
D01*
X44088Y46599D01*
X44078Y46606D01*
X44016Y46618D01*
D02*
G37*
G36*
X44409D02*
X44348Y46606D01*
X44295Y46571D01*
X44260Y46519D01*
X44248Y46457D01*
X44260Y46395D01*
X44267Y46385D01*
X44374Y46492D01*
D01*
X44374Y46492D01*
X44374Y46492D01*
D01*
X44481Y46599D01*
X44471Y46606D01*
X44409Y46618D01*
D02*
G37*
G36*
X68410Y47316D02*
X68303Y47209D01*
D01*
X68303Y47209D01*
X68303Y47209D01*
D01*
X68196Y47102D01*
X68206Y47095D01*
X68268Y47083D01*
X68330Y47095D01*
X68382Y47130D01*
X68417Y47182D01*
X68429Y47244D01*
X68417Y47306D01*
X68410Y47316D01*
D02*
G37*
G36*
X33607Y48103D02*
X33500Y47996D01*
D01*
X33500Y47996D01*
X33500Y47996D01*
D01*
X33393Y47889D01*
X33403Y47882D01*
X33465Y47870D01*
X33526Y47882D01*
X33579Y47917D01*
X33614Y47970D01*
X33626Y48031D01*
X33614Y48093D01*
X33607Y48103D01*
D02*
G37*
G36*
X44158D02*
X44051Y47996D01*
D01*
X44051Y47996D01*
X44051Y47996D01*
D01*
X43944Y47889D01*
X43954Y47882D01*
X44016Y47870D01*
X44078Y47882D01*
X44130Y47917D01*
X44165Y47970D01*
X44177Y48031D01*
X44165Y48093D01*
X44158Y48103D01*
D02*
G37*
G36*
X44552D02*
X44445Y47996D01*
D01*
X44445Y47996D01*
X44445Y47996D01*
D01*
X44338Y47889D01*
X44348Y47882D01*
X44409Y47870D01*
X44471Y47882D01*
X44524Y47917D01*
X44559Y47970D01*
X44571Y48031D01*
X44559Y48093D01*
X44552Y48103D01*
D02*
G37*
G36*
X32426D02*
X32319Y47996D01*
D01*
X32319Y47996D01*
X32319Y47996D01*
D01*
X32212Y47889D01*
X32222Y47882D01*
X32283Y47870D01*
X32345Y47882D01*
X32398Y47917D01*
X32433Y47970D01*
X32445Y48031D01*
X32433Y48093D01*
X32426Y48103D01*
D02*
G37*
G36*
X32820D02*
X32713Y47996D01*
D01*
X32713Y47996D01*
X32712Y47996D01*
D01*
X32605Y47889D01*
X32615Y47882D01*
X32677Y47870D01*
X32739Y47882D01*
X32791Y47917D01*
X32826Y47970D01*
X32839Y48031D01*
X32826Y48093D01*
X32820Y48103D01*
D02*
G37*
G36*
X33213D02*
X33106Y47996D01*
D01*
X33106Y47996D01*
X33106Y47996D01*
D01*
X32999Y47889D01*
X33009Y47882D01*
X33071Y47870D01*
X33133Y47882D01*
X33185Y47917D01*
X33220Y47970D01*
X33232Y48031D01*
X33220Y48093D01*
X33213Y48103D01*
D02*
G37*
G36*
X44946D02*
X44839Y47996D01*
D01*
X44839Y47996D01*
X44838Y47996D01*
D01*
X44731Y47889D01*
X44741Y47882D01*
X44803Y47870D01*
X44865Y47882D01*
X44917Y47917D01*
X44952Y47970D01*
X44965Y48031D01*
X44952Y48093D01*
X44946Y48103D01*
D02*
G37*
G36*
X56678D02*
X56571Y47996D01*
D01*
X56571Y47996D01*
X56571Y47996D01*
D01*
X56464Y47889D01*
X56474Y47882D01*
X56535Y47870D01*
X56597Y47882D01*
X56650Y47917D01*
X56685Y47970D01*
X56697Y48031D01*
X56685Y48093D01*
X56678Y48103D01*
D02*
G37*
G36*
X57072D02*
X56965Y47996D01*
D01*
X56964Y47996D01*
X56964Y47996D01*
D01*
X56857Y47889D01*
X56867Y47882D01*
X56929Y47870D01*
X56991Y47882D01*
X57043Y47917D01*
X57078Y47970D01*
X57091Y48031D01*
X57078Y48093D01*
X57072Y48103D01*
D02*
G37*
G36*
X57465D02*
X57358Y47996D01*
D01*
X57358Y47996D01*
X57358Y47996D01*
D01*
X57251Y47889D01*
X57261Y47882D01*
X57323Y47870D01*
X57385Y47882D01*
X57437Y47917D01*
X57472Y47970D01*
X57484Y48031D01*
X57472Y48093D01*
X57465Y48103D01*
D02*
G37*
G36*
X45339D02*
X45232Y47996D01*
D01*
X45232Y47996D01*
X45232Y47996D01*
D01*
X45125Y47889D01*
X45135Y47882D01*
X45197Y47870D01*
X45259Y47882D01*
X45311Y47917D01*
X45346Y47970D01*
X45358Y48031D01*
X45346Y48093D01*
X45339Y48103D01*
D02*
G37*
G36*
X45733D02*
X45626Y47996D01*
D01*
X45626Y47996D01*
X45626Y47996D01*
D01*
X45519Y47889D01*
X45529Y47882D01*
X45591Y47870D01*
X45652Y47882D01*
X45705Y47917D01*
X45740Y47970D01*
X45752Y48031D01*
X45740Y48093D01*
X45733Y48103D01*
D02*
G37*
G36*
X56284D02*
X56177Y47996D01*
D01*
X56177Y47996D01*
X56177Y47996D01*
D01*
X56070Y47889D01*
X56080Y47882D01*
X56142Y47870D01*
X56204Y47882D01*
X56256Y47917D01*
X56291Y47970D01*
X56303Y48031D01*
X56291Y48093D01*
X56284Y48103D01*
D02*
G37*
G36*
X56535Y47799D02*
X56474Y47787D01*
X56421Y47752D01*
X56386Y47700D01*
X56374Y47638D01*
X56386Y47576D01*
X56393Y47566D01*
X56500Y47673D01*
D01*
X56500Y47673D01*
X56500Y47673D01*
D01*
X56607Y47780D01*
X56597Y47787D01*
X56535Y47799D01*
D02*
G37*
G36*
X56929D02*
X56867Y47787D01*
X56815Y47752D01*
X56780Y47700D01*
X56768Y47638D01*
X56780Y47576D01*
X56787Y47566D01*
X56894Y47673D01*
D01*
X56894Y47673D01*
X56894Y47673D01*
D01*
X57001Y47780D01*
X56991Y47787D01*
X56929Y47799D01*
D02*
G37*
G36*
X57323D02*
X57261Y47787D01*
X57209Y47752D01*
X57174Y47700D01*
X57161Y47638D01*
X57174Y47576D01*
X57180Y47566D01*
X57287Y47673D01*
D01*
X57287Y47673D01*
X57288Y47673D01*
D01*
X57395Y47780D01*
X57385Y47787D01*
X57323Y47799D01*
D02*
G37*
G36*
X45197D02*
X45135Y47787D01*
X45083Y47752D01*
X45048Y47700D01*
X45035Y47638D01*
X45048Y47576D01*
X45054Y47566D01*
X45161Y47673D01*
D01*
X45161Y47673D01*
X45162Y47673D01*
D01*
X45269Y47780D01*
X45259Y47787D01*
X45197Y47799D01*
D02*
G37*
G36*
X45591D02*
X45529Y47787D01*
X45476Y47752D01*
X45441Y47700D01*
X45429Y47638D01*
X45441Y47576D01*
X45448Y47566D01*
X45555Y47673D01*
D01*
X45555Y47673D01*
X45555Y47673D01*
D01*
X45662Y47780D01*
X45652Y47787D01*
X45591Y47799D01*
D02*
G37*
G36*
X56142D02*
X56080Y47787D01*
X56028Y47752D01*
X55992Y47700D01*
X55980Y47638D01*
X55992Y47576D01*
X55999Y47566D01*
X56106Y47673D01*
D01*
X56106Y47673D01*
X56106Y47673D01*
D01*
X56214Y47780D01*
X56204Y47787D01*
X56142Y47799D01*
D02*
G37*
G36*
X57717D02*
X57655Y47787D01*
X57602Y47752D01*
X57567Y47700D01*
X57555Y47638D01*
X57567Y47576D01*
X57574Y47566D01*
X57681Y47673D01*
D01*
X57681Y47673D01*
X57681Y47673D01*
D01*
X57788Y47780D01*
X57778Y47787D01*
X57717Y47799D01*
D02*
G37*
G36*
X69449D02*
X69387Y47787D01*
X69335Y47752D01*
X69300Y47700D01*
X69287Y47638D01*
X69300Y47576D01*
X69306Y47566D01*
X69413Y47673D01*
D01*
X69413Y47673D01*
X69414Y47673D01*
D01*
X69521Y47780D01*
X69511Y47787D01*
X69449Y47799D01*
D02*
G37*
G36*
X69843D02*
X69781Y47787D01*
X69728Y47752D01*
X69693Y47700D01*
X69681Y47638D01*
X69693Y47576D01*
X69700Y47566D01*
X69807Y47673D01*
D01*
X69807Y47673D01*
X69807Y47673D01*
D01*
X69914Y47780D01*
X69904Y47787D01*
X69843Y47799D01*
D02*
G37*
G36*
X32032Y48103D02*
X31925Y47996D01*
D01*
X31925Y47996D01*
X31925Y47996D01*
D01*
X31818Y47889D01*
X31828Y47882D01*
X31890Y47870D01*
X31952Y47882D01*
X32004Y47917D01*
X32039Y47970D01*
X32051Y48031D01*
X32039Y48093D01*
X32032Y48103D01*
D02*
G37*
G36*
X68268Y47799D02*
X68206Y47787D01*
X68153Y47752D01*
X68118Y47700D01*
X68106Y47638D01*
X68118Y47576D01*
X68125Y47566D01*
X68232Y47673D01*
D01*
X68232Y47673D01*
X68232Y47673D01*
D01*
X68340Y47780D01*
X68330Y47787D01*
X68268Y47799D01*
D02*
G37*
G36*
X68661D02*
X68600Y47787D01*
X68547Y47752D01*
X68512Y47700D01*
X68500Y47638D01*
X68512Y47576D01*
X68519Y47566D01*
X68626Y47673D01*
D01*
X68626Y47673D01*
X68626Y47673D01*
D01*
X68733Y47780D01*
X68723Y47787D01*
X68661Y47799D01*
D02*
G37*
G36*
X69055D02*
X68993Y47787D01*
X68941Y47752D01*
X68906Y47700D01*
X68894Y47638D01*
X68906Y47576D01*
X68913Y47566D01*
X69020Y47673D01*
D01*
X69020Y47673D01*
X69020Y47673D01*
D01*
X69127Y47780D01*
X69117Y47787D01*
X69055Y47799D01*
D02*
G37*
G36*
X56142Y48193D02*
X56080Y48181D01*
X56028Y48146D01*
X55992Y48093D01*
X55980Y48031D01*
X55992Y47970D01*
X55999Y47960D01*
X56106Y48067D01*
D01*
X56106Y48067D01*
X56106Y48067D01*
D01*
X56214Y48174D01*
X56204Y48181D01*
X56142Y48193D01*
D02*
G37*
G36*
X56535D02*
X56474Y48181D01*
X56421Y48146D01*
X56386Y48093D01*
X56374Y48031D01*
X56386Y47970D01*
X56393Y47960D01*
X56500Y48067D01*
D01*
X56500Y48067D01*
X56500Y48067D01*
D01*
X56607Y48174D01*
X56597Y48181D01*
X56535Y48193D01*
D02*
G37*
G36*
X56929D02*
X56867Y48181D01*
X56815Y48146D01*
X56780Y48093D01*
X56768Y48031D01*
X56780Y47970D01*
X56787Y47960D01*
X56894Y48067D01*
D01*
X56894Y48067D01*
X56894Y48067D01*
D01*
X57001Y48174D01*
X56991Y48181D01*
X56929Y48193D01*
D02*
G37*
G36*
X44803D02*
X44741Y48181D01*
X44689Y48146D01*
X44654Y48093D01*
X44642Y48031D01*
X44654Y47970D01*
X44661Y47960D01*
X44768Y48067D01*
D01*
X44768Y48067D01*
X44768Y48067D01*
D01*
X44875Y48174D01*
X44865Y48181D01*
X44803Y48193D01*
D02*
G37*
G36*
X45197D02*
X45135Y48181D01*
X45083Y48146D01*
X45048Y48093D01*
X45035Y48031D01*
X45048Y47970D01*
X45054Y47960D01*
X45161Y48067D01*
D01*
X45161Y48067D01*
X45162Y48067D01*
D01*
X45269Y48174D01*
X45259Y48181D01*
X45197Y48193D01*
D02*
G37*
G36*
X45591D02*
X45529Y48181D01*
X45476Y48146D01*
X45441Y48093D01*
X45429Y48031D01*
X45441Y47970D01*
X45448Y47960D01*
X45555Y48067D01*
D01*
X45555Y48067D01*
X45555Y48067D01*
D01*
X45662Y48174D01*
X45652Y48181D01*
X45591Y48193D01*
D02*
G37*
G36*
X57323D02*
X57261Y48181D01*
X57209Y48146D01*
X57174Y48093D01*
X57161Y48031D01*
X57174Y47970D01*
X57180Y47960D01*
X57287Y48067D01*
D01*
X57287Y48067D01*
X57288Y48067D01*
D01*
X57395Y48174D01*
X57385Y48181D01*
X57323Y48193D01*
D02*
G37*
G36*
X69055D02*
X68993Y48181D01*
X68941Y48146D01*
X68906Y48093D01*
X68894Y48031D01*
X68906Y47970D01*
X68913Y47960D01*
X69020Y48067D01*
D01*
X69020Y48067D01*
X69020Y48067D01*
D01*
X69127Y48174D01*
X69117Y48181D01*
X69055Y48193D01*
D02*
G37*
G36*
X69449D02*
X69387Y48181D01*
X69335Y48146D01*
X69300Y48093D01*
X69287Y48031D01*
X69300Y47970D01*
X69306Y47960D01*
X69413Y48067D01*
D01*
X69413Y48067D01*
X69414Y48067D01*
D01*
X69521Y48174D01*
X69511Y48181D01*
X69449Y48193D01*
D02*
G37*
G36*
X69843D02*
X69781Y48181D01*
X69728Y48146D01*
X69693Y48093D01*
X69681Y48031D01*
X69693Y47970D01*
X69700Y47960D01*
X69807Y48067D01*
D01*
X69807Y48067D01*
X69807Y48067D01*
D01*
X69914Y48174D01*
X69904Y48181D01*
X69843Y48193D01*
D02*
G37*
G36*
X57717D02*
X57655Y48181D01*
X57602Y48146D01*
X57567Y48093D01*
X57555Y48031D01*
X57567Y47970D01*
X57574Y47960D01*
X57681Y48067D01*
D01*
X57681Y48067D01*
X57681Y48067D01*
D01*
X57788Y48174D01*
X57778Y48181D01*
X57717Y48193D01*
D02*
G37*
G36*
X68268D02*
X68206Y48181D01*
X68153Y48146D01*
X68118Y48093D01*
X68106Y48031D01*
X68118Y47970D01*
X68125Y47960D01*
X68232Y48067D01*
D01*
X68232Y48067D01*
X68232Y48067D01*
D01*
X68340Y48174D01*
X68330Y48181D01*
X68268Y48193D01*
D02*
G37*
G36*
X68661D02*
X68600Y48181D01*
X68547Y48146D01*
X68512Y48093D01*
X68500Y48031D01*
X68512Y47970D01*
X68519Y47960D01*
X68626Y48067D01*
D01*
X68626Y48067D01*
X68626Y48067D01*
D01*
X68733Y48174D01*
X68723Y48181D01*
X68661Y48193D01*
D02*
G37*
G36*
X69198Y48103D02*
X69091Y47996D01*
D01*
X69090Y47996D01*
X69090Y47996D01*
D01*
X68983Y47889D01*
X68993Y47882D01*
X69055Y47870D01*
X69117Y47882D01*
X69169Y47917D01*
X69204Y47970D01*
X69217Y48031D01*
X69204Y48093D01*
X69198Y48103D01*
D02*
G37*
G36*
X69591D02*
X69484Y47996D01*
D01*
X69484Y47996D01*
X69484Y47996D01*
D01*
X69377Y47889D01*
X69387Y47882D01*
X69449Y47870D01*
X69511Y47882D01*
X69563Y47917D01*
X69598Y47970D01*
X69610Y48031D01*
X69598Y48093D01*
X69591Y48103D01*
D02*
G37*
G36*
X69985D02*
X69878Y47996D01*
D01*
X69878Y47996D01*
X69878Y47996D01*
D01*
X69771Y47889D01*
X69781Y47882D01*
X69843Y47870D01*
X69904Y47882D01*
X69957Y47917D01*
X69992Y47970D01*
X70004Y48031D01*
X69992Y48093D01*
X69985Y48103D01*
D02*
G37*
G36*
X57859D02*
X57752Y47996D01*
D01*
X57752Y47996D01*
X57752Y47996D01*
D01*
X57645Y47889D01*
X57655Y47882D01*
X57717Y47870D01*
X57778Y47882D01*
X57831Y47917D01*
X57866Y47970D01*
X57878Y48031D01*
X57866Y48093D01*
X57859Y48103D01*
D02*
G37*
G36*
X68410D02*
X68303Y47996D01*
D01*
X68303Y47996D01*
X68303Y47996D01*
D01*
X68196Y47889D01*
X68206Y47882D01*
X68268Y47870D01*
X68330Y47882D01*
X68382Y47917D01*
X68417Y47970D01*
X68429Y48031D01*
X68417Y48093D01*
X68410Y48103D01*
D02*
G37*
G36*
X68804D02*
X68697Y47996D01*
D01*
X68697Y47996D01*
X68697Y47996D01*
D01*
X68590Y47889D01*
X68600Y47882D01*
X68661Y47870D01*
X68723Y47882D01*
X68776Y47917D01*
X68811Y47970D01*
X68823Y48031D01*
X68811Y48093D01*
X68804Y48103D01*
D02*
G37*
G36*
X31890Y48193D02*
X31828Y48181D01*
X31776Y48146D01*
X31741Y48093D01*
X31728Y48031D01*
X31741Y47970D01*
X31747Y47960D01*
X31854Y48067D01*
D01*
X31854Y48067D01*
X31854Y48067D01*
D01*
X31962Y48174D01*
X31952Y48181D01*
X31890Y48193D01*
D02*
G37*
G36*
X33465D02*
X33403Y48181D01*
X33350Y48146D01*
X33315Y48093D01*
X33303Y48031D01*
X33315Y47970D01*
X33322Y47960D01*
X33429Y48067D01*
D01*
X33429Y48067D01*
X33429Y48067D01*
D01*
X33536Y48174D01*
X33526Y48181D01*
X33465Y48193D01*
D02*
G37*
G36*
X44016D02*
X43954Y48181D01*
X43902Y48146D01*
X43867Y48093D01*
X43854Y48031D01*
X43867Y47970D01*
X43873Y47960D01*
X43980Y48067D01*
D01*
X43980Y48067D01*
X43980Y48067D01*
D01*
X44088Y48174D01*
X44078Y48181D01*
X44016Y48193D01*
D02*
G37*
G36*
X44409D02*
X44348Y48181D01*
X44295Y48146D01*
X44260Y48093D01*
X44248Y48031D01*
X44260Y47970D01*
X44267Y47960D01*
X44374Y48067D01*
D01*
X44374Y48067D01*
X44374Y48067D01*
D01*
X44481Y48174D01*
X44471Y48181D01*
X44409Y48193D01*
D02*
G37*
G36*
X32283D02*
X32222Y48181D01*
X32169Y48146D01*
X32134Y48093D01*
X32122Y48031D01*
X32134Y47970D01*
X32141Y47960D01*
X32248Y48067D01*
D01*
X32248Y48067D01*
X32248Y48067D01*
D01*
X32355Y48174D01*
X32345Y48181D01*
X32283Y48193D01*
D02*
G37*
G36*
X32677D02*
X32615Y48181D01*
X32563Y48146D01*
X32528Y48093D01*
X32516Y48031D01*
X32528Y47970D01*
X32535Y47960D01*
X32642Y48067D01*
D01*
X32642Y48067D01*
X32642Y48067D01*
D01*
X32749Y48174D01*
X32739Y48181D01*
X32677Y48193D01*
D02*
G37*
G36*
X33071D02*
X33009Y48181D01*
X32957Y48146D01*
X32922Y48093D01*
X32909Y48031D01*
X32922Y47970D01*
X32928Y47960D01*
X33035Y48067D01*
D01*
X33036Y48067D01*
X33036Y48067D01*
D01*
X33143Y48174D01*
X33133Y48181D01*
X33071Y48193D01*
D02*
G37*
G36*
X56929Y47406D02*
X56867Y47393D01*
X56815Y47358D01*
X56780Y47306D01*
X56768Y47244D01*
X56780Y47182D01*
X56787Y47172D01*
X56894Y47279D01*
D01*
X56894Y47279D01*
X56894Y47280D01*
D01*
X57001Y47387D01*
X56991Y47393D01*
X56929Y47406D01*
D02*
G37*
G36*
X57323D02*
X57261Y47393D01*
X57209Y47358D01*
X57174Y47306D01*
X57161Y47244D01*
X57174Y47182D01*
X57180Y47172D01*
X57287Y47279D01*
D01*
X57287Y47279D01*
X57288Y47280D01*
D01*
X57395Y47387D01*
X57385Y47393D01*
X57323Y47406D01*
D02*
G37*
G36*
X57717D02*
X57655Y47393D01*
X57602Y47358D01*
X57567Y47306D01*
X57555Y47244D01*
X57567Y47182D01*
X57574Y47172D01*
X57681Y47279D01*
D01*
X57681Y47279D01*
X57681Y47280D01*
D01*
X57788Y47387D01*
X57778Y47393D01*
X57717Y47406D01*
D02*
G37*
G36*
X45591D02*
X45529Y47393D01*
X45476Y47358D01*
X45441Y47306D01*
X45429Y47244D01*
X45441Y47182D01*
X45448Y47172D01*
X45555Y47279D01*
D01*
X45555Y47279D01*
X45555Y47280D01*
D01*
X45662Y47387D01*
X45652Y47393D01*
X45591Y47406D01*
D02*
G37*
G36*
X56142D02*
X56080Y47393D01*
X56028Y47358D01*
X55992Y47306D01*
X55980Y47244D01*
X55992Y47182D01*
X55999Y47172D01*
X56106Y47279D01*
D01*
X56106Y47279D01*
X56106Y47280D01*
D01*
X56214Y47387D01*
X56204Y47393D01*
X56142Y47406D01*
D02*
G37*
G36*
X56535D02*
X56474Y47393D01*
X56421Y47358D01*
X56386Y47306D01*
X56374Y47244D01*
X56386Y47182D01*
X56393Y47172D01*
X56500Y47279D01*
D01*
X56500Y47279D01*
X56500Y47280D01*
D01*
X56607Y47387D01*
X56597Y47393D01*
X56535Y47406D01*
D02*
G37*
G36*
X68268D02*
X68206Y47393D01*
X68153Y47358D01*
X68118Y47306D01*
X68106Y47244D01*
X68118Y47182D01*
X68125Y47172D01*
X68232Y47279D01*
D01*
X68232Y47279D01*
X68232Y47280D01*
D01*
X68340Y47387D01*
X68330Y47393D01*
X68268Y47406D01*
D02*
G37*
G36*
X69843D02*
X69781Y47393D01*
X69728Y47358D01*
X69693Y47306D01*
X69681Y47244D01*
X69693Y47182D01*
X69700Y47172D01*
X69807Y47279D01*
D01*
X69807Y47279D01*
X69807Y47280D01*
D01*
X69914Y47387D01*
X69904Y47393D01*
X69843Y47406D01*
D02*
G37*
G36*
X32032Y47710D02*
X31925Y47603D01*
D01*
X31925Y47602D01*
X31925Y47602D01*
D01*
X31818Y47495D01*
X31828Y47489D01*
X31890Y47476D01*
X31952Y47489D01*
X32004Y47524D01*
X32039Y47576D01*
X32051Y47638D01*
X32039Y47700D01*
X32032Y47710D01*
D02*
G37*
G36*
X32426D02*
X32319Y47603D01*
D01*
X32319Y47602D01*
X32319Y47602D01*
D01*
X32212Y47495D01*
X32222Y47489D01*
X32283Y47476D01*
X32345Y47489D01*
X32398Y47524D01*
X32433Y47576D01*
X32445Y47638D01*
X32433Y47700D01*
X32426Y47710D01*
D02*
G37*
G36*
X68661Y47406D02*
X68600Y47393D01*
X68547Y47358D01*
X68512Y47306D01*
X68500Y47244D01*
X68512Y47182D01*
X68519Y47172D01*
X68626Y47279D01*
D01*
X68626Y47279D01*
X68626Y47280D01*
D01*
X68733Y47387D01*
X68723Y47393D01*
X68661Y47406D01*
D02*
G37*
G36*
X69055D02*
X68993Y47393D01*
X68941Y47358D01*
X68906Y47306D01*
X68894Y47244D01*
X68906Y47182D01*
X68913Y47172D01*
X69020Y47279D01*
D01*
X69020Y47279D01*
X69020Y47280D01*
D01*
X69127Y47387D01*
X69117Y47393D01*
X69055Y47406D01*
D02*
G37*
G36*
X69449D02*
X69387Y47393D01*
X69335Y47358D01*
X69300Y47306D01*
X69287Y47244D01*
X69300Y47182D01*
X69306Y47172D01*
X69413Y47279D01*
D01*
X69413Y47279D01*
X69414Y47280D01*
D01*
X69521Y47387D01*
X69511Y47393D01*
X69449Y47406D01*
D02*
G37*
G36*
X69985Y47316D02*
X69878Y47209D01*
D01*
X69878Y47209D01*
X69878Y47209D01*
D01*
X69771Y47102D01*
X69781Y47095D01*
X69843Y47083D01*
X69904Y47095D01*
X69957Y47130D01*
X69992Y47182D01*
X70004Y47244D01*
X69992Y47306D01*
X69985Y47316D01*
D02*
G37*
G36*
X31890Y47406D02*
X31828Y47393D01*
X31776Y47358D01*
X31741Y47306D01*
X31728Y47244D01*
X31741Y47182D01*
X31747Y47172D01*
X31854Y47279D01*
D01*
X31854Y47279D01*
X31854Y47280D01*
D01*
X31962Y47387D01*
X31952Y47393D01*
X31890Y47406D01*
D02*
G37*
G36*
X32283D02*
X32222Y47393D01*
X32169Y47358D01*
X32134Y47306D01*
X32122Y47244D01*
X32134Y47182D01*
X32141Y47172D01*
X32248Y47279D01*
D01*
X32248Y47279D01*
X32248Y47280D01*
D01*
X32355Y47387D01*
X32345Y47393D01*
X32283Y47406D01*
D02*
G37*
G36*
X68804Y47316D02*
X68697Y47209D01*
D01*
X68697Y47209D01*
X68697Y47209D01*
D01*
X68590Y47102D01*
X68600Y47095D01*
X68661Y47083D01*
X68723Y47095D01*
X68776Y47130D01*
X68811Y47182D01*
X68823Y47244D01*
X68811Y47306D01*
X68804Y47316D01*
D02*
G37*
G36*
X69198D02*
X69091Y47209D01*
D01*
X69090Y47209D01*
X69090Y47209D01*
D01*
X68983Y47102D01*
X68993Y47095D01*
X69055Y47083D01*
X69117Y47095D01*
X69169Y47130D01*
X69204Y47182D01*
X69217Y47244D01*
X69204Y47306D01*
X69198Y47316D01*
D02*
G37*
G36*
X69591D02*
X69484Y47209D01*
D01*
X69484Y47209D01*
X69484Y47209D01*
D01*
X69377Y47102D01*
X69387Y47095D01*
X69449Y47083D01*
X69511Y47095D01*
X69563Y47130D01*
X69598Y47182D01*
X69610Y47244D01*
X69598Y47306D01*
X69591Y47316D01*
D02*
G37*
G36*
X32677Y47406D02*
X32615Y47393D01*
X32563Y47358D01*
X32528Y47306D01*
X32516Y47244D01*
X32528Y47182D01*
X32535Y47172D01*
X32642Y47279D01*
D01*
X32642Y47279D01*
X32642Y47280D01*
D01*
X32749Y47387D01*
X32739Y47393D01*
X32677Y47406D01*
D02*
G37*
G36*
X44409D02*
X44348Y47393D01*
X44295Y47358D01*
X44260Y47306D01*
X44248Y47244D01*
X44260Y47182D01*
X44267Y47172D01*
X44374Y47279D01*
D01*
X44374Y47279D01*
X44374Y47280D01*
D01*
X44481Y47387D01*
X44471Y47393D01*
X44409Y47406D01*
D02*
G37*
G36*
X44803D02*
X44741Y47393D01*
X44689Y47358D01*
X44654Y47306D01*
X44642Y47244D01*
X44654Y47182D01*
X44661Y47172D01*
X44768Y47279D01*
D01*
X44768Y47279D01*
X44768Y47280D01*
D01*
X44875Y47387D01*
X44865Y47393D01*
X44803Y47406D01*
D02*
G37*
G36*
X45197D02*
X45135Y47393D01*
X45083Y47358D01*
X45048Y47306D01*
X45035Y47244D01*
X45048Y47182D01*
X45054Y47172D01*
X45161Y47279D01*
D01*
X45161Y47279D01*
X45162Y47280D01*
D01*
X45269Y47387D01*
X45259Y47393D01*
X45197Y47406D01*
D02*
G37*
G36*
X33071D02*
X33009Y47393D01*
X32957Y47358D01*
X32922Y47306D01*
X32909Y47244D01*
X32922Y47182D01*
X32928Y47172D01*
X33035Y47279D01*
D01*
X33036Y47279D01*
X33036Y47280D01*
D01*
X33143Y47387D01*
X33133Y47393D01*
X33071Y47406D01*
D02*
G37*
G36*
X33465D02*
X33403Y47393D01*
X33350Y47358D01*
X33315Y47306D01*
X33303Y47244D01*
X33315Y47182D01*
X33322Y47172D01*
X33429Y47279D01*
D01*
X33429Y47279D01*
X33429Y47280D01*
D01*
X33536Y47387D01*
X33526Y47393D01*
X33465Y47406D01*
D02*
G37*
G36*
X44016D02*
X43954Y47393D01*
X43902Y47358D01*
X43867Y47306D01*
X43854Y47244D01*
X43867Y47182D01*
X43873Y47172D01*
X43980Y47279D01*
D01*
X43980Y47279D01*
X43980Y47280D01*
D01*
X44088Y47387D01*
X44078Y47393D01*
X44016Y47406D01*
D02*
G37*
G36*
X69591Y47710D02*
X69484Y47603D01*
D01*
X69484Y47602D01*
X69484Y47602D01*
D01*
X69377Y47495D01*
X69387Y47489D01*
X69449Y47476D01*
X69511Y47489D01*
X69563Y47524D01*
X69598Y47576D01*
X69610Y47638D01*
X69598Y47700D01*
X69591Y47710D01*
D02*
G37*
G36*
X69985D02*
X69878Y47603D01*
D01*
X69878Y47602D01*
X69878Y47602D01*
D01*
X69771Y47495D01*
X69781Y47489D01*
X69843Y47476D01*
X69904Y47489D01*
X69957Y47524D01*
X69992Y47576D01*
X70004Y47638D01*
X69992Y47700D01*
X69985Y47710D01*
D02*
G37*
G36*
X31890Y47799D02*
X31828Y47787D01*
X31776Y47752D01*
X31741Y47700D01*
X31728Y47638D01*
X31741Y47576D01*
X31747Y47566D01*
X31854Y47673D01*
D01*
X31854Y47673D01*
X31854Y47673D01*
D01*
X31962Y47780D01*
X31952Y47787D01*
X31890Y47799D01*
D02*
G37*
G36*
X68410Y47710D02*
X68303Y47603D01*
D01*
X68303Y47602D01*
X68303Y47602D01*
D01*
X68196Y47495D01*
X68206Y47489D01*
X68268Y47476D01*
X68330Y47489D01*
X68382Y47524D01*
X68417Y47576D01*
X68429Y47638D01*
X68417Y47700D01*
X68410Y47710D01*
D02*
G37*
G36*
X68804D02*
X68697Y47603D01*
D01*
X68697Y47602D01*
X68697Y47602D01*
D01*
X68590Y47495D01*
X68600Y47489D01*
X68661Y47476D01*
X68723Y47489D01*
X68776Y47524D01*
X68811Y47576D01*
X68823Y47638D01*
X68811Y47700D01*
X68804Y47710D01*
D02*
G37*
G36*
X69198D02*
X69091Y47603D01*
D01*
X69090Y47602D01*
X69090Y47602D01*
D01*
X68983Y47495D01*
X68993Y47489D01*
X69055Y47476D01*
X69117Y47489D01*
X69169Y47524D01*
X69204Y47576D01*
X69217Y47638D01*
X69204Y47700D01*
X69198Y47710D01*
D02*
G37*
G36*
X32283Y47799D02*
X32222Y47787D01*
X32169Y47752D01*
X32134Y47700D01*
X32122Y47638D01*
X32134Y47576D01*
X32141Y47566D01*
X32248Y47673D01*
D01*
X32248Y47673D01*
X32248Y47673D01*
D01*
X32355Y47780D01*
X32345Y47787D01*
X32283Y47799D01*
D02*
G37*
G36*
X44016D02*
X43954Y47787D01*
X43902Y47752D01*
X43867Y47700D01*
X43854Y47638D01*
X43867Y47576D01*
X43873Y47566D01*
X43980Y47673D01*
D01*
X43980Y47673D01*
X43980Y47673D01*
D01*
X44088Y47780D01*
X44078Y47787D01*
X44016Y47799D01*
D02*
G37*
G36*
X44409D02*
X44348Y47787D01*
X44295Y47752D01*
X44260Y47700D01*
X44248Y47638D01*
X44260Y47576D01*
X44267Y47566D01*
X44374Y47673D01*
D01*
X44374Y47673D01*
X44374Y47673D01*
D01*
X44481Y47780D01*
X44471Y47787D01*
X44409Y47799D01*
D02*
G37*
G36*
X44803D02*
X44741Y47787D01*
X44689Y47752D01*
X44654Y47700D01*
X44642Y47638D01*
X44654Y47576D01*
X44661Y47566D01*
X44768Y47673D01*
D01*
X44768Y47673D01*
X44768Y47673D01*
D01*
X44875Y47780D01*
X44865Y47787D01*
X44803Y47799D01*
D02*
G37*
G36*
X32677D02*
X32615Y47787D01*
X32563Y47752D01*
X32528Y47700D01*
X32516Y47638D01*
X32528Y47576D01*
X32535Y47566D01*
X32642Y47673D01*
D01*
X32642Y47673D01*
X32642Y47673D01*
D01*
X32749Y47780D01*
X32739Y47787D01*
X32677Y47799D01*
D02*
G37*
G36*
X33071D02*
X33009Y47787D01*
X32957Y47752D01*
X32922Y47700D01*
X32909Y47638D01*
X32922Y47576D01*
X32928Y47566D01*
X33035Y47673D01*
D01*
X33036Y47673D01*
X33036Y47673D01*
D01*
X33143Y47780D01*
X33133Y47787D01*
X33071Y47799D01*
D02*
G37*
G36*
X33465D02*
X33403Y47787D01*
X33350Y47752D01*
X33315Y47700D01*
X33303Y47638D01*
X33315Y47576D01*
X33322Y47566D01*
X33429Y47673D01*
D01*
X33429Y47673D01*
X33429Y47673D01*
D01*
X33536Y47780D01*
X33526Y47787D01*
X33465Y47799D01*
D02*
G37*
G36*
X44158Y47710D02*
X44051Y47603D01*
D01*
X44051Y47602D01*
X44051Y47602D01*
D01*
X43944Y47495D01*
X43954Y47489D01*
X44016Y47476D01*
X44078Y47489D01*
X44130Y47524D01*
X44165Y47576D01*
X44177Y47638D01*
X44165Y47700D01*
X44158Y47710D01*
D02*
G37*
G36*
X44552D02*
X44445Y47603D01*
D01*
X44445Y47602D01*
X44445Y47602D01*
D01*
X44338Y47495D01*
X44348Y47489D01*
X44409Y47476D01*
X44471Y47489D01*
X44524Y47524D01*
X44559Y47576D01*
X44571Y47638D01*
X44559Y47700D01*
X44552Y47710D01*
D02*
G37*
G36*
X44946D02*
X44839Y47603D01*
D01*
X44839Y47602D01*
X44838Y47602D01*
D01*
X44731Y47495D01*
X44741Y47489D01*
X44803Y47476D01*
X44865Y47489D01*
X44917Y47524D01*
X44952Y47576D01*
X44965Y47638D01*
X44952Y47700D01*
X44946Y47710D01*
D02*
G37*
G36*
X32820D02*
X32713Y47603D01*
D01*
X32713Y47602D01*
X32712Y47602D01*
D01*
X32605Y47495D01*
X32615Y47489D01*
X32677Y47476D01*
X32739Y47489D01*
X32791Y47524D01*
X32826Y47576D01*
X32839Y47638D01*
X32826Y47700D01*
X32820Y47710D01*
D02*
G37*
G36*
X33213D02*
X33106Y47603D01*
D01*
X33106Y47602D01*
X33106Y47602D01*
D01*
X32999Y47495D01*
X33009Y47489D01*
X33071Y47476D01*
X33133Y47489D01*
X33185Y47524D01*
X33220Y47576D01*
X33232Y47638D01*
X33220Y47700D01*
X33213Y47710D01*
D02*
G37*
G36*
X33607D02*
X33500Y47603D01*
D01*
X33500Y47602D01*
X33500Y47602D01*
D01*
X33393Y47495D01*
X33403Y47489D01*
X33465Y47476D01*
X33526Y47489D01*
X33579Y47524D01*
X33614Y47576D01*
X33626Y47638D01*
X33614Y47700D01*
X33607Y47710D01*
D02*
G37*
G36*
X45339D02*
X45232Y47603D01*
D01*
X45232Y47602D01*
X45232Y47602D01*
D01*
X45125Y47495D01*
X45135Y47489D01*
X45197Y47476D01*
X45259Y47489D01*
X45311Y47524D01*
X45346Y47576D01*
X45358Y47638D01*
X45346Y47700D01*
X45339Y47710D01*
D02*
G37*
G36*
X57072D02*
X56965Y47603D01*
D01*
X56964Y47602D01*
X56964Y47602D01*
D01*
X56857Y47495D01*
X56867Y47489D01*
X56929Y47476D01*
X56991Y47489D01*
X57043Y47524D01*
X57078Y47576D01*
X57091Y47638D01*
X57078Y47700D01*
X57072Y47710D01*
D02*
G37*
G36*
X57465D02*
X57358Y47603D01*
D01*
X57358Y47602D01*
X57358Y47602D01*
D01*
X57251Y47495D01*
X57261Y47489D01*
X57323Y47476D01*
X57385Y47489D01*
X57437Y47524D01*
X57472Y47576D01*
X57484Y47638D01*
X57472Y47700D01*
X57465Y47710D01*
D02*
G37*
G36*
X57859D02*
X57752Y47603D01*
D01*
X57752Y47602D01*
X57752Y47602D01*
D01*
X57645Y47495D01*
X57655Y47489D01*
X57717Y47476D01*
X57778Y47489D01*
X57831Y47524D01*
X57866Y47576D01*
X57878Y47638D01*
X57866Y47700D01*
X57859Y47710D01*
D02*
G37*
G36*
X45733D02*
X45626Y47603D01*
D01*
X45626Y47602D01*
X45626Y47602D01*
D01*
X45519Y47495D01*
X45529Y47489D01*
X45591Y47476D01*
X45652Y47489D01*
X45705Y47524D01*
X45740Y47576D01*
X45752Y47638D01*
X45740Y47700D01*
X45733Y47710D01*
D02*
G37*
G36*
X56284D02*
X56177Y47603D01*
D01*
X56177Y47602D01*
X56177Y47602D01*
D01*
X56070Y47495D01*
X56080Y47489D01*
X56142Y47476D01*
X56204Y47489D01*
X56256Y47524D01*
X56291Y47576D01*
X56303Y47638D01*
X56291Y47700D01*
X56284Y47710D01*
D02*
G37*
G36*
X56678D02*
X56571Y47603D01*
D01*
X56571Y47602D01*
X56571Y47602D01*
D01*
X56464Y47495D01*
X56474Y47489D01*
X56535Y47476D01*
X56597Y47489D01*
X56650Y47524D01*
X56685Y47576D01*
X56697Y47638D01*
X56685Y47700D01*
X56678Y47710D01*
D02*
G37*
%LPD*%
D10*
X76142Y57382D02*
D03*
Y56713D02*
D03*
X31457Y40374D02*
D03*
Y39705D02*
D03*
X24291Y55492D02*
D03*
Y56161D02*
D03*
X73780Y46122D02*
D03*
Y46791D02*
D03*
X74075Y53504D02*
D03*
Y54173D02*
D03*
Y54980D02*
D03*
Y55650D02*
D03*
Y56457D02*
D03*
Y57126D02*
D03*
Y58032D02*
D03*
Y58701D02*
D03*
X63937Y43957D02*
D03*
Y44626D02*
D03*
X74370Y46791D02*
D03*
Y46122D02*
D03*
X61654Y46122D02*
D03*
Y46791D02*
D03*
X61949Y53504D02*
D03*
Y54173D02*
D03*
Y54980D02*
D03*
Y55650D02*
D03*
Y56457D02*
D03*
Y57126D02*
D03*
Y58032D02*
D03*
Y58701D02*
D03*
X51811Y43957D02*
D03*
Y44626D02*
D03*
X62244Y46791D02*
D03*
Y46122D02*
D03*
X37402Y46122D02*
D03*
Y46791D02*
D03*
X37697Y53504D02*
D03*
Y54173D02*
D03*
Y54980D02*
D03*
Y55650D02*
D03*
Y56457D02*
D03*
Y57126D02*
D03*
Y58032D02*
D03*
Y58701D02*
D03*
X27559Y43957D02*
D03*
Y44626D02*
D03*
X37992Y46791D02*
D03*
Y46122D02*
D03*
X53543Y34685D02*
D03*
Y34016D02*
D03*
X54724Y34016D02*
D03*
Y34685D02*
D03*
X51378Y34685D02*
D03*
Y34016D02*
D03*
X52461Y34685D02*
D03*
Y34016D02*
D03*
X50295Y34016D02*
D03*
Y34685D02*
D03*
X55807Y34685D02*
D03*
Y34016D02*
D03*
X34744Y32323D02*
D03*
Y31654D02*
D03*
X35531Y32323D02*
D03*
Y31654D02*
D03*
X36319Y32323D02*
D03*
Y31654D02*
D03*
X37598Y32323D02*
D03*
Y31654D02*
D03*
X50118Y46122D02*
D03*
Y46791D02*
D03*
X39685Y44626D02*
D03*
Y43957D02*
D03*
X49823Y58701D02*
D03*
Y58032D02*
D03*
Y57126D02*
D03*
Y56457D02*
D03*
Y55650D02*
D03*
Y54980D02*
D03*
Y54173D02*
D03*
Y53504D02*
D03*
X49528Y46791D02*
D03*
Y46122D02*
D03*
X76083Y37244D02*
D03*
Y36575D02*
D03*
Y39311D02*
D03*
Y38642D02*
D03*
X76181Y47480D02*
D03*
Y46811D02*
D03*
Y49449D02*
D03*
Y48780D02*
D03*
X76083Y41870D02*
D03*
Y41201D02*
D03*
Y42776D02*
D03*
Y43445D02*
D03*
Y52008D02*
D03*
Y51339D02*
D03*
Y52815D02*
D03*
Y53484D02*
D03*
D11*
X35827Y44094D02*
D03*
X35433D02*
D03*
X35039D02*
D03*
X34646D02*
D03*
X34252D02*
D03*
X33858D02*
D03*
X33465D02*
D03*
X33071D02*
D03*
X32677D02*
D03*
X32283D02*
D03*
X31890D02*
D03*
X31496D02*
D03*
X31102D02*
D03*
X30709D02*
D03*
X30315D02*
D03*
X29921D02*
D03*
X29528D02*
D03*
X35827Y44488D02*
D03*
X35433D02*
D03*
X35039D02*
D03*
X34646D02*
D03*
X34252D02*
D03*
X33858D02*
D03*
X33465D02*
D03*
X33071D02*
D03*
X32677D02*
D03*
X32283D02*
D03*
X31890D02*
D03*
X31496D02*
D03*
X31102D02*
D03*
X30709D02*
D03*
X30315D02*
D03*
X29921D02*
D03*
X29528D02*
D03*
X35827Y44882D02*
D03*
X35433D02*
D03*
X29921D02*
D03*
X29528D02*
D03*
X35827Y45276D02*
D03*
X35433D02*
D03*
X29921D02*
D03*
X29528D02*
D03*
X35827Y45669D02*
D03*
X35433D02*
D03*
X29921D02*
D03*
X29528D02*
D03*
X35827Y46063D02*
D03*
X35433D02*
D03*
X29921D02*
D03*
X29528D02*
D03*
X35827Y46457D02*
D03*
X35433D02*
D03*
X29921D02*
D03*
X29528D02*
D03*
X35827Y46850D02*
D03*
X35433D02*
D03*
X29921D02*
D03*
X29528D02*
D03*
X35827Y47244D02*
D03*
X35433D02*
D03*
X29921D02*
D03*
X29528D02*
D03*
X35827Y47638D02*
D03*
X35433D02*
D03*
X29921D02*
D03*
X29528D02*
D03*
X35827Y48031D02*
D03*
X35433D02*
D03*
X29921D02*
D03*
X29528D02*
D03*
X35827Y48425D02*
D03*
X35433D02*
D03*
X29921D02*
D03*
X29528D02*
D03*
X35827Y48819D02*
D03*
X35433D02*
D03*
X29921D02*
D03*
X29528D02*
D03*
X35827Y49213D02*
D03*
X35433D02*
D03*
X29921D02*
D03*
X29528D02*
D03*
X35827Y49606D02*
D03*
X35433D02*
D03*
X29921D02*
D03*
X29528D02*
D03*
X35827Y50000D02*
D03*
X35433D02*
D03*
X35039D02*
D03*
X34646D02*
D03*
X34252D02*
D03*
X33858D02*
D03*
X33465D02*
D03*
X33071D02*
D03*
X32677D02*
D03*
X32283D02*
D03*
X31890D02*
D03*
X31496D02*
D03*
X31102D02*
D03*
X30709D02*
D03*
X30315D02*
D03*
X29921D02*
D03*
X29528D02*
D03*
X35827Y50394D02*
D03*
X35433D02*
D03*
X35039D02*
D03*
X34646D02*
D03*
X34252D02*
D03*
X33858D02*
D03*
X33465D02*
D03*
X33071D02*
D03*
X32677D02*
D03*
X32283D02*
D03*
X31890D02*
D03*
X31496D02*
D03*
X31102D02*
D03*
X30709D02*
D03*
X30315D02*
D03*
X29921D02*
D03*
X29528D02*
D03*
X31496Y48425D02*
D03*
X31890D02*
D03*
X32283D02*
D03*
X32677D02*
D03*
X33071D02*
D03*
X33465D02*
D03*
X33858D02*
D03*
X31496Y48031D02*
D03*
X31890D02*
D03*
X32283D02*
D03*
X32677D02*
D03*
X33071D02*
D03*
X33465D02*
D03*
X33858D02*
D03*
X31496Y47638D02*
D03*
X31890D02*
D03*
X32283D02*
D03*
X32677D02*
D03*
X33071D02*
D03*
X33465D02*
D03*
X33858D02*
D03*
X31496Y47244D02*
D03*
X31890D02*
D03*
X32283D02*
D03*
X32677D02*
D03*
X33071D02*
D03*
X33465D02*
D03*
X33858D02*
D03*
X31496Y46850D02*
D03*
X31890D02*
D03*
X32283D02*
D03*
X32677D02*
D03*
X33071D02*
D03*
X33465D02*
D03*
X33858D02*
D03*
X31496Y46457D02*
D03*
X31890D02*
D03*
X32283D02*
D03*
X32677D02*
D03*
X33071D02*
D03*
X33465D02*
D03*
X33858D02*
D03*
X31496Y46063D02*
D03*
X31890D02*
D03*
X32283D02*
D03*
X32677D02*
D03*
X33071D02*
D03*
X33465D02*
D03*
X33858D02*
D03*
X70236D02*
D03*
X69843D02*
D03*
X69449D02*
D03*
X69055D02*
D03*
X68661D02*
D03*
X68268D02*
D03*
X67874D02*
D03*
X70236Y46457D02*
D03*
X69843D02*
D03*
X69449D02*
D03*
X69055D02*
D03*
X68661D02*
D03*
X68268D02*
D03*
X67874D02*
D03*
X70236Y46850D02*
D03*
X69843D02*
D03*
X69449D02*
D03*
X69055D02*
D03*
X68661D02*
D03*
X68268D02*
D03*
X67874D02*
D03*
X70236Y47244D02*
D03*
X69843D02*
D03*
X69449D02*
D03*
X69055D02*
D03*
X68661D02*
D03*
X68268D02*
D03*
X67874D02*
D03*
X70236Y47638D02*
D03*
X69843D02*
D03*
X69449D02*
D03*
X69055D02*
D03*
X68661D02*
D03*
X68268D02*
D03*
X67874D02*
D03*
X70236Y48031D02*
D03*
X69843D02*
D03*
X69449D02*
D03*
X69055D02*
D03*
X68661D02*
D03*
X68268D02*
D03*
X67874D02*
D03*
X70236Y48425D02*
D03*
X69843D02*
D03*
X69449D02*
D03*
X69055D02*
D03*
X68661D02*
D03*
X68268D02*
D03*
X67874D02*
D03*
X65905Y50394D02*
D03*
X66299D02*
D03*
X66693D02*
D03*
X67087D02*
D03*
X67480D02*
D03*
X67874D02*
D03*
X68268D02*
D03*
X68661D02*
D03*
X69055D02*
D03*
X69449D02*
D03*
X69843D02*
D03*
X70236D02*
D03*
X70630D02*
D03*
X71024D02*
D03*
X71417D02*
D03*
X71811D02*
D03*
X72205D02*
D03*
X65905Y50000D02*
D03*
X66299D02*
D03*
X66693D02*
D03*
X67087D02*
D03*
X67480D02*
D03*
X67874D02*
D03*
X68268D02*
D03*
X68661D02*
D03*
X69055D02*
D03*
X69449D02*
D03*
X69843D02*
D03*
X70236D02*
D03*
X70630D02*
D03*
X71024D02*
D03*
X71417D02*
D03*
X71811D02*
D03*
X72205D02*
D03*
X65905Y49606D02*
D03*
X66299D02*
D03*
X71811D02*
D03*
X72205D02*
D03*
X65905Y49213D02*
D03*
X66299D02*
D03*
X71811D02*
D03*
X72205D02*
D03*
X65905Y48819D02*
D03*
X66299D02*
D03*
X71811D02*
D03*
X72205D02*
D03*
X65905Y48425D02*
D03*
X66299D02*
D03*
X71811D02*
D03*
X72205D02*
D03*
X65905Y48031D02*
D03*
X66299D02*
D03*
X71811D02*
D03*
X72205D02*
D03*
X65905Y47638D02*
D03*
X66299D02*
D03*
X71811D02*
D03*
X72205D02*
D03*
X65905Y47244D02*
D03*
X66299D02*
D03*
X71811D02*
D03*
X72205D02*
D03*
X65905Y46850D02*
D03*
X66299D02*
D03*
X71811D02*
D03*
X72205D02*
D03*
X65905Y46457D02*
D03*
X66299D02*
D03*
X71811D02*
D03*
X72205D02*
D03*
X65905Y46063D02*
D03*
X66299D02*
D03*
X71811D02*
D03*
X72205D02*
D03*
X65905Y45669D02*
D03*
X66299D02*
D03*
X71811D02*
D03*
X72205D02*
D03*
X65905Y45276D02*
D03*
X66299D02*
D03*
X71811D02*
D03*
X72205D02*
D03*
X65905Y44882D02*
D03*
X66299D02*
D03*
X71811D02*
D03*
X72205D02*
D03*
X65905Y44488D02*
D03*
X66299D02*
D03*
X66693D02*
D03*
X67087D02*
D03*
X67480D02*
D03*
X67874D02*
D03*
X68268D02*
D03*
X68661D02*
D03*
X69055D02*
D03*
X69449D02*
D03*
X69843D02*
D03*
X70236D02*
D03*
X70630D02*
D03*
X71024D02*
D03*
X71417D02*
D03*
X71811D02*
D03*
X72205D02*
D03*
X65905Y44094D02*
D03*
X66299D02*
D03*
X66693D02*
D03*
X67087D02*
D03*
X67480D02*
D03*
X67874D02*
D03*
X68268D02*
D03*
X68661D02*
D03*
X69055D02*
D03*
X69449D02*
D03*
X69843D02*
D03*
X70236D02*
D03*
X70630D02*
D03*
X71024D02*
D03*
X71417D02*
D03*
X71811D02*
D03*
X72205D02*
D03*
X58110Y46063D02*
D03*
X57717D02*
D03*
X57323D02*
D03*
X56929D02*
D03*
X56535D02*
D03*
X56142D02*
D03*
X55748D02*
D03*
X58110Y46457D02*
D03*
X57717D02*
D03*
X57323D02*
D03*
X56929D02*
D03*
X56535D02*
D03*
X56142D02*
D03*
X55748D02*
D03*
X58110Y46850D02*
D03*
X57717D02*
D03*
X57323D02*
D03*
X56929D02*
D03*
X56535D02*
D03*
X56142D02*
D03*
X55748D02*
D03*
X58110Y47244D02*
D03*
X57717D02*
D03*
X57323D02*
D03*
X56929D02*
D03*
X56535D02*
D03*
X56142D02*
D03*
X55748D02*
D03*
X58110Y47638D02*
D03*
X57717D02*
D03*
X57323D02*
D03*
X56929D02*
D03*
X56535D02*
D03*
X56142D02*
D03*
X55748D02*
D03*
X58110Y48031D02*
D03*
X57717D02*
D03*
X57323D02*
D03*
X56929D02*
D03*
X56535D02*
D03*
X56142D02*
D03*
X55748D02*
D03*
X58110Y48425D02*
D03*
X57717D02*
D03*
X57323D02*
D03*
X56929D02*
D03*
X56535D02*
D03*
X56142D02*
D03*
X55748D02*
D03*
X53780Y50394D02*
D03*
X54173D02*
D03*
X54567D02*
D03*
X54961D02*
D03*
X55354D02*
D03*
X55748D02*
D03*
X56142D02*
D03*
X56535D02*
D03*
X56929D02*
D03*
X57323D02*
D03*
X57717D02*
D03*
X58110D02*
D03*
X58504D02*
D03*
X58898D02*
D03*
X59291D02*
D03*
X59685D02*
D03*
X60079D02*
D03*
X53780Y50000D02*
D03*
X54173D02*
D03*
X54567D02*
D03*
X54961D02*
D03*
X55354D02*
D03*
X55748D02*
D03*
X56142D02*
D03*
X56535D02*
D03*
X56929D02*
D03*
X57323D02*
D03*
X57717D02*
D03*
X58110D02*
D03*
X58504D02*
D03*
X58898D02*
D03*
X59291D02*
D03*
X59685D02*
D03*
X60079D02*
D03*
X53780Y49606D02*
D03*
X54173D02*
D03*
X59685D02*
D03*
X60079D02*
D03*
X53780Y49213D02*
D03*
X54173D02*
D03*
X59685D02*
D03*
X60079D02*
D03*
X53780Y48819D02*
D03*
X54173D02*
D03*
X59685D02*
D03*
X60079D02*
D03*
X53780Y48425D02*
D03*
X54173D02*
D03*
X59685D02*
D03*
X60079D02*
D03*
X53780Y48031D02*
D03*
X54173D02*
D03*
X59685D02*
D03*
X60079D02*
D03*
X53780Y47638D02*
D03*
X54173D02*
D03*
X59685D02*
D03*
X60079D02*
D03*
X53780Y47244D02*
D03*
X54173D02*
D03*
X59685D02*
D03*
X60079D02*
D03*
X53780Y46850D02*
D03*
X54173D02*
D03*
X59685D02*
D03*
X60079D02*
D03*
X53780Y46457D02*
D03*
X54173D02*
D03*
X59685D02*
D03*
X60079D02*
D03*
X53780Y46063D02*
D03*
X54173D02*
D03*
X59685D02*
D03*
X60079D02*
D03*
X53780Y45669D02*
D03*
X54173D02*
D03*
X59685D02*
D03*
X60079D02*
D03*
X53780Y45276D02*
D03*
X54173D02*
D03*
X59685D02*
D03*
X60079D02*
D03*
X53780Y44882D02*
D03*
X54173D02*
D03*
X59685D02*
D03*
X60079D02*
D03*
X53780Y44488D02*
D03*
X54173D02*
D03*
X54567D02*
D03*
X54961D02*
D03*
X55354D02*
D03*
X55748D02*
D03*
X56142D02*
D03*
X56535D02*
D03*
X56929D02*
D03*
X57323D02*
D03*
X57717D02*
D03*
X58110D02*
D03*
X58504D02*
D03*
X58898D02*
D03*
X59291D02*
D03*
X59685D02*
D03*
X60079D02*
D03*
X53780Y44094D02*
D03*
X54173D02*
D03*
X54567D02*
D03*
X54961D02*
D03*
X55354D02*
D03*
X55748D02*
D03*
X56142D02*
D03*
X56535D02*
D03*
X56929D02*
D03*
X57323D02*
D03*
X57717D02*
D03*
X58110D02*
D03*
X58504D02*
D03*
X58898D02*
D03*
X59291D02*
D03*
X59685D02*
D03*
X60079D02*
D03*
X47953D02*
D03*
X47559D02*
D03*
X47165D02*
D03*
X46772D02*
D03*
X46378D02*
D03*
X45984D02*
D03*
X45591D02*
D03*
X45197D02*
D03*
X44803D02*
D03*
X44409D02*
D03*
X44016D02*
D03*
X43622D02*
D03*
X43228D02*
D03*
X42835D02*
D03*
X42441D02*
D03*
X42047D02*
D03*
X41654D02*
D03*
X47953Y44488D02*
D03*
X47559D02*
D03*
X47165D02*
D03*
X46772D02*
D03*
X46378D02*
D03*
X45984D02*
D03*
X45591D02*
D03*
X45197D02*
D03*
X44803D02*
D03*
X44409D02*
D03*
X44016D02*
D03*
X43622D02*
D03*
X43228D02*
D03*
X42835D02*
D03*
X42441D02*
D03*
X42047D02*
D03*
X41654D02*
D03*
X47953Y44882D02*
D03*
X47559D02*
D03*
X42047D02*
D03*
X41654D02*
D03*
X47953Y45276D02*
D03*
X47559D02*
D03*
X42047D02*
D03*
X41654D02*
D03*
X47953Y45669D02*
D03*
X47559D02*
D03*
X42047D02*
D03*
X41654D02*
D03*
X47953Y46063D02*
D03*
X47559D02*
D03*
X42047D02*
D03*
X41654D02*
D03*
X47953Y46457D02*
D03*
X47559D02*
D03*
X42047D02*
D03*
X41654D02*
D03*
X47953Y46850D02*
D03*
X47559D02*
D03*
X42047D02*
D03*
X41654D02*
D03*
X47953Y47244D02*
D03*
X47559D02*
D03*
X42047D02*
D03*
X41654D02*
D03*
X47953Y47638D02*
D03*
X47559D02*
D03*
X42047D02*
D03*
X41654D02*
D03*
X47953Y48031D02*
D03*
X47559D02*
D03*
X42047D02*
D03*
X41654D02*
D03*
X47953Y48425D02*
D03*
X47559D02*
D03*
X42047D02*
D03*
X41654D02*
D03*
X47953Y48819D02*
D03*
X47559D02*
D03*
X42047D02*
D03*
X41654D02*
D03*
X47953Y49213D02*
D03*
X47559D02*
D03*
X42047D02*
D03*
X41654D02*
D03*
X47953Y49606D02*
D03*
X47559D02*
D03*
X42047D02*
D03*
X41654D02*
D03*
X47953Y50000D02*
D03*
X47559D02*
D03*
X47165D02*
D03*
X46772D02*
D03*
X46378D02*
D03*
X45984D02*
D03*
X45591D02*
D03*
X45197D02*
D03*
X44803D02*
D03*
X44409D02*
D03*
X44016D02*
D03*
X43622D02*
D03*
X43228D02*
D03*
X42835D02*
D03*
X42441D02*
D03*
X42047D02*
D03*
X41654D02*
D03*
X47953Y50394D02*
D03*
X47559D02*
D03*
X47165D02*
D03*
X46772D02*
D03*
X46378D02*
D03*
X45984D02*
D03*
X45591D02*
D03*
X45197D02*
D03*
X44803D02*
D03*
X44409D02*
D03*
X44016D02*
D03*
X43622D02*
D03*
X43228D02*
D03*
X42835D02*
D03*
X42441D02*
D03*
X42047D02*
D03*
X41654D02*
D03*
X43622Y48425D02*
D03*
X44016D02*
D03*
X44409D02*
D03*
X44803D02*
D03*
X45197D02*
D03*
X45591D02*
D03*
X45984D02*
D03*
X43622Y48031D02*
D03*
X44016D02*
D03*
X44409D02*
D03*
X44803D02*
D03*
X45197D02*
D03*
X45591D02*
D03*
X45984D02*
D03*
X43622Y47638D02*
D03*
X44016D02*
D03*
X44409D02*
D03*
X44803D02*
D03*
X45197D02*
D03*
X45591D02*
D03*
X45984D02*
D03*
X43622Y47244D02*
D03*
X44016D02*
D03*
X44409D02*
D03*
X44803D02*
D03*
X45197D02*
D03*
X45591D02*
D03*
X45984D02*
D03*
X43622Y46850D02*
D03*
X44016D02*
D03*
X44409D02*
D03*
X44803D02*
D03*
X45197D02*
D03*
X45591D02*
D03*
X45984D02*
D03*
X43622Y46457D02*
D03*
X44016D02*
D03*
X44409D02*
D03*
X44803D02*
D03*
X45197D02*
D03*
X45591D02*
D03*
X45984D02*
D03*
X43622Y46063D02*
D03*
X44016D02*
D03*
X44409D02*
D03*
X44803D02*
D03*
X45197D02*
D03*
X45591D02*
D03*
X45984D02*
D03*
D12*
X33366Y40748D02*
D03*
Y40354D02*
D03*
Y39961D02*
D03*
Y39567D02*
D03*
Y39173D02*
D03*
Y38780D02*
D03*
Y38386D02*
D03*
Y37992D02*
D03*
Y37598D02*
D03*
Y37205D02*
D03*
Y36811D02*
D03*
Y36417D02*
D03*
Y36024D02*
D03*
Y35630D02*
D03*
Y35236D02*
D03*
Y34843D02*
D03*
X33760Y40748D02*
D03*
Y40354D02*
D03*
Y39961D02*
D03*
Y39567D02*
D03*
Y39173D02*
D03*
Y38780D02*
D03*
Y38386D02*
D03*
Y37992D02*
D03*
Y37598D02*
D03*
Y37205D02*
D03*
Y36811D02*
D03*
Y36417D02*
D03*
Y36024D02*
D03*
Y35630D02*
D03*
Y35236D02*
D03*
Y34843D02*
D03*
X34154Y40748D02*
D03*
Y40354D02*
D03*
Y39961D02*
D03*
Y39567D02*
D03*
Y39173D02*
D03*
Y38780D02*
D03*
Y38386D02*
D03*
Y37992D02*
D03*
Y37598D02*
D03*
Y37205D02*
D03*
Y36811D02*
D03*
Y36417D02*
D03*
Y36024D02*
D03*
Y35630D02*
D03*
Y35236D02*
D03*
Y34843D02*
D03*
X34547Y40748D02*
D03*
Y40354D02*
D03*
Y39961D02*
D03*
Y39567D02*
D03*
Y39173D02*
D03*
Y38780D02*
D03*
Y38386D02*
D03*
Y37992D02*
D03*
Y37598D02*
D03*
Y37205D02*
D03*
Y36811D02*
D03*
Y36417D02*
D03*
Y36024D02*
D03*
Y35630D02*
D03*
Y35236D02*
D03*
Y34843D02*
D03*
X34941Y40748D02*
D03*
Y40354D02*
D03*
Y39961D02*
D03*
Y39567D02*
D03*
Y39173D02*
D03*
Y38780D02*
D03*
Y38386D02*
D03*
Y37992D02*
D03*
Y37598D02*
D03*
Y37205D02*
D03*
Y36811D02*
D03*
Y36417D02*
D03*
Y36024D02*
D03*
Y35630D02*
D03*
Y35236D02*
D03*
Y34843D02*
D03*
X35335Y40748D02*
D03*
Y40354D02*
D03*
Y39961D02*
D03*
Y39567D02*
D03*
Y39173D02*
D03*
Y38780D02*
D03*
Y38386D02*
D03*
Y37992D02*
D03*
Y37598D02*
D03*
Y37205D02*
D03*
Y36811D02*
D03*
Y36417D02*
D03*
Y36024D02*
D03*
Y35630D02*
D03*
Y35236D02*
D03*
Y34843D02*
D03*
X35728Y40748D02*
D03*
Y40354D02*
D03*
Y39961D02*
D03*
Y39567D02*
D03*
Y39173D02*
D03*
Y38780D02*
D03*
Y38386D02*
D03*
Y37992D02*
D03*
Y37598D02*
D03*
Y37205D02*
D03*
Y36811D02*
D03*
Y36417D02*
D03*
Y36024D02*
D03*
Y35630D02*
D03*
Y35236D02*
D03*
Y34843D02*
D03*
X36122Y40748D02*
D03*
Y40354D02*
D03*
Y39961D02*
D03*
Y39567D02*
D03*
Y39173D02*
D03*
Y38780D02*
D03*
Y38386D02*
D03*
Y37992D02*
D03*
Y37598D02*
D03*
Y37205D02*
D03*
Y36811D02*
D03*
Y36417D02*
D03*
Y36024D02*
D03*
Y35630D02*
D03*
Y35236D02*
D03*
Y34843D02*
D03*
X36516Y40748D02*
D03*
Y40354D02*
D03*
Y39961D02*
D03*
Y39567D02*
D03*
Y39173D02*
D03*
Y38780D02*
D03*
Y38386D02*
D03*
Y37992D02*
D03*
Y37598D02*
D03*
Y37205D02*
D03*
Y36811D02*
D03*
Y36417D02*
D03*
Y36024D02*
D03*
Y35630D02*
D03*
Y35236D02*
D03*
Y34843D02*
D03*
X36909Y40748D02*
D03*
Y40354D02*
D03*
Y39961D02*
D03*
Y39567D02*
D03*
Y39173D02*
D03*
Y38780D02*
D03*
Y38386D02*
D03*
Y37992D02*
D03*
Y37598D02*
D03*
Y37205D02*
D03*
Y36811D02*
D03*
Y36417D02*
D03*
Y36024D02*
D03*
Y35630D02*
D03*
Y35236D02*
D03*
Y34843D02*
D03*
X37303Y40748D02*
D03*
Y40354D02*
D03*
Y39961D02*
D03*
Y39567D02*
D03*
Y39173D02*
D03*
Y38780D02*
D03*
Y38386D02*
D03*
Y37992D02*
D03*
Y37598D02*
D03*
Y37205D02*
D03*
Y36811D02*
D03*
Y36417D02*
D03*
Y36024D02*
D03*
Y35630D02*
D03*
Y35236D02*
D03*
Y34843D02*
D03*
X37697Y40748D02*
D03*
Y40354D02*
D03*
Y39961D02*
D03*
Y39567D02*
D03*
Y39173D02*
D03*
Y38780D02*
D03*
Y38386D02*
D03*
Y37992D02*
D03*
Y37598D02*
D03*
Y37205D02*
D03*
Y36811D02*
D03*
Y36417D02*
D03*
Y36024D02*
D03*
Y35630D02*
D03*
Y35236D02*
D03*
Y34843D02*
D03*
X38091Y40748D02*
D03*
Y40354D02*
D03*
Y39961D02*
D03*
Y39567D02*
D03*
Y39173D02*
D03*
Y38780D02*
D03*
Y38386D02*
D03*
Y37992D02*
D03*
Y37598D02*
D03*
Y37205D02*
D03*
Y36811D02*
D03*
Y36417D02*
D03*
Y36024D02*
D03*
Y35630D02*
D03*
Y35236D02*
D03*
Y34843D02*
D03*
X38484Y40748D02*
D03*
Y40354D02*
D03*
Y39961D02*
D03*
Y39567D02*
D03*
Y39173D02*
D03*
Y38780D02*
D03*
Y38386D02*
D03*
Y37992D02*
D03*
Y37598D02*
D03*
Y37205D02*
D03*
Y36811D02*
D03*
Y36417D02*
D03*
Y36024D02*
D03*
Y35630D02*
D03*
Y35236D02*
D03*
Y34843D02*
D03*
X38878Y40748D02*
D03*
Y40354D02*
D03*
Y39961D02*
D03*
Y39567D02*
D03*
Y39173D02*
D03*
Y38780D02*
D03*
Y38386D02*
D03*
Y37992D02*
D03*
Y37598D02*
D03*
Y37205D02*
D03*
Y36811D02*
D03*
Y36417D02*
D03*
Y36024D02*
D03*
Y35630D02*
D03*
Y35236D02*
D03*
Y34843D02*
D03*
X39272Y40748D02*
D03*
Y40354D02*
D03*
Y39961D02*
D03*
Y39567D02*
D03*
Y39173D02*
D03*
Y38780D02*
D03*
Y38386D02*
D03*
Y37992D02*
D03*
Y37598D02*
D03*
Y37205D02*
D03*
Y36811D02*
D03*
Y36417D02*
D03*
Y36024D02*
D03*
Y35630D02*
D03*
Y35236D02*
D03*
Y34843D02*
D03*
D13*
X67461Y41339D02*
D03*
X68130D02*
D03*
X55217Y41260D02*
D03*
X55886D02*
D03*
X43209Y41850D02*
D03*
X43878D02*
D03*
X42480Y35531D02*
D03*
X43150D02*
D03*
X42480Y34547D02*
D03*
X43150D02*
D03*
X40610D02*
D03*
X41280D02*
D03*
X54075Y35728D02*
D03*
X53406D02*
D03*
D14*
X26811Y36467D02*
D03*
Y38514D02*
D03*
Y38258D02*
D03*
Y38002D02*
D03*
Y37746D02*
D03*
Y37490D02*
D03*
Y37234D02*
D03*
Y36978D02*
D03*
Y36722D02*
D03*
Y36211D02*
D03*
Y35955D02*
D03*
Y35699D02*
D03*
Y35443D02*
D03*
X29488Y38770D02*
D03*
Y38514D02*
D03*
Y38258D02*
D03*
Y38002D02*
D03*
Y37746D02*
D03*
Y37490D02*
D03*
Y37234D02*
D03*
Y36978D02*
D03*
Y36722D02*
D03*
Y36467D02*
D03*
Y36211D02*
D03*
Y35955D02*
D03*
Y35699D02*
D03*
Y35443D02*
D03*
D15*
X26811Y38770D02*
D03*
D16*
X30080Y57785D02*
D03*
X28506Y53415D02*
D03*
X28820D02*
D03*
X29135D02*
D03*
X29450D02*
D03*
X29765D02*
D03*
X30080D02*
D03*
X30395D02*
D03*
X30710D02*
D03*
X31025D02*
D03*
X31340D02*
D03*
X31655D02*
D03*
X31970D02*
D03*
X32285D02*
D03*
X32600D02*
D03*
X32915D02*
D03*
X33230D02*
D03*
X33545D02*
D03*
X33860D02*
D03*
X34175D02*
D03*
X34490D02*
D03*
X34805D02*
D03*
X35120D02*
D03*
X35435D02*
D03*
X35750D02*
D03*
X36065D02*
D03*
X36380D02*
D03*
X36694D02*
D03*
X28506Y57785D02*
D03*
X28820D02*
D03*
X29135D02*
D03*
X29450D02*
D03*
X29765D02*
D03*
X30395D02*
D03*
X30710D02*
D03*
X31025D02*
D03*
X31340D02*
D03*
X31655D02*
D03*
X31970D02*
D03*
X32285D02*
D03*
X32600D02*
D03*
X32915D02*
D03*
X33230D02*
D03*
X33545D02*
D03*
X33860D02*
D03*
X34175D02*
D03*
X34490D02*
D03*
X34805D02*
D03*
X35120D02*
D03*
X35435D02*
D03*
X35750D02*
D03*
X36065D02*
D03*
X36380D02*
D03*
X36694D02*
D03*
X73072D02*
D03*
X72757D02*
D03*
X72443D02*
D03*
X72128D02*
D03*
X71813D02*
D03*
X71498D02*
D03*
X71183D02*
D03*
X70868D02*
D03*
X70553D02*
D03*
X70238D02*
D03*
X69923D02*
D03*
X69608D02*
D03*
X69293D02*
D03*
X68978D02*
D03*
X68663D02*
D03*
X68348D02*
D03*
X68033D02*
D03*
X67718D02*
D03*
X67403D02*
D03*
X67088D02*
D03*
X66773D02*
D03*
X66458D02*
D03*
X66143D02*
D03*
X65828D02*
D03*
X65513D02*
D03*
X65198D02*
D03*
X64883D02*
D03*
X73072Y53415D02*
D03*
X72757D02*
D03*
X72443D02*
D03*
X72128D02*
D03*
X71813D02*
D03*
X71498D02*
D03*
X71183D02*
D03*
X70868D02*
D03*
X70553D02*
D03*
X70238D02*
D03*
X69923D02*
D03*
X69608D02*
D03*
X69293D02*
D03*
X68978D02*
D03*
X68663D02*
D03*
X68348D02*
D03*
X68033D02*
D03*
X67718D02*
D03*
X67403D02*
D03*
X67088D02*
D03*
X66773D02*
D03*
X66458D02*
D03*
X66143D02*
D03*
X65828D02*
D03*
X65513D02*
D03*
X65198D02*
D03*
X64883D02*
D03*
X60946Y57785D02*
D03*
X60631D02*
D03*
X60317D02*
D03*
X60002D02*
D03*
X59687D02*
D03*
X59372D02*
D03*
X59057D02*
D03*
X58742D02*
D03*
X58427D02*
D03*
X58112D02*
D03*
X57797D02*
D03*
X57482D02*
D03*
X57167D02*
D03*
X56852D02*
D03*
X56537D02*
D03*
X56222D02*
D03*
X55907D02*
D03*
X55592D02*
D03*
X55277D02*
D03*
X54962D02*
D03*
X54647D02*
D03*
X54332D02*
D03*
X54017D02*
D03*
X53702D02*
D03*
X53387D02*
D03*
X53072D02*
D03*
X52757D02*
D03*
X60946Y53415D02*
D03*
X60631D02*
D03*
X60317D02*
D03*
X60002D02*
D03*
X59687D02*
D03*
X59372D02*
D03*
X59057D02*
D03*
X58742D02*
D03*
X58427D02*
D03*
X58112D02*
D03*
X57797D02*
D03*
X57482D02*
D03*
X57167D02*
D03*
X56852D02*
D03*
X56537D02*
D03*
X56222D02*
D03*
X55907D02*
D03*
X55592D02*
D03*
X55277D02*
D03*
X54962D02*
D03*
X54647D02*
D03*
X54332D02*
D03*
X54017D02*
D03*
X53702D02*
D03*
X53387D02*
D03*
X53072D02*
D03*
X52757D02*
D03*
X40631D02*
D03*
X40946D02*
D03*
X41261D02*
D03*
X41576D02*
D03*
X41891D02*
D03*
X42206D02*
D03*
X42521D02*
D03*
X42836D02*
D03*
X43151D02*
D03*
X43466D02*
D03*
X43781D02*
D03*
X44096D02*
D03*
X44411D02*
D03*
X44726D02*
D03*
X45041D02*
D03*
X45356D02*
D03*
X45671D02*
D03*
X45986D02*
D03*
X46301D02*
D03*
X46616D02*
D03*
X46931D02*
D03*
X47246D02*
D03*
X47561D02*
D03*
X47876D02*
D03*
X48191D02*
D03*
X48506D02*
D03*
X48820D02*
D03*
X40631Y57785D02*
D03*
X40946D02*
D03*
X41261D02*
D03*
X41576D02*
D03*
X41891D02*
D03*
X42206D02*
D03*
X42521D02*
D03*
X42836D02*
D03*
X43151D02*
D03*
X43466D02*
D03*
X43781D02*
D03*
X44096D02*
D03*
X44411D02*
D03*
X44726D02*
D03*
X45041D02*
D03*
X45356D02*
D03*
X45671D02*
D03*
X45986D02*
D03*
X46301D02*
D03*
X46616D02*
D03*
X46931D02*
D03*
X47246D02*
D03*
X47561D02*
D03*
X47876D02*
D03*
X48191D02*
D03*
X48506D02*
D03*
X48820D02*
D03*
D17*
X63839Y45689D02*
D03*
Y46437D02*
D03*
X51713Y45689D02*
D03*
Y46437D02*
D03*
X27461Y45689D02*
D03*
Y46437D02*
D03*
X39587D02*
D03*
Y45689D02*
D03*
D18*
X64254Y33002D02*
D03*
X25313Y32352D02*
D03*
D19*
X59404Y31572D02*
D03*
Y32242D02*
D03*
Y32912D02*
D03*
Y33582D02*
D03*
Y34252D02*
D03*
X30163Y33782D02*
D03*
Y33112D02*
D03*
Y32442D02*
D03*
Y31772D02*
D03*
Y31102D02*
D03*
D20*
X58917Y35236D02*
D03*
X57815D02*
D03*
X32126Y32382D02*
D03*
X33228D02*
D03*
X32126Y31299D02*
D03*
X33228D02*
D03*
D21*
X74134Y44606D02*
D03*
Y43425D02*
D03*
X30551Y42520D02*
D03*
Y41339D02*
D03*
X70669Y39665D02*
D03*
Y38484D02*
D03*
D22*
X63386Y48268D02*
D03*
X62205D02*
D03*
X37520Y48386D02*
D03*
X38701D02*
D03*
D23*
X76850Y34370D02*
D03*
Y31850D02*
D03*
D24*
X69370Y38701D02*
D03*
Y37598D02*
D03*
X57480Y33031D02*
D03*
Y31929D02*
D03*
D25*
X44508Y35039D02*
D03*
Y34724D02*
D03*
Y34409D02*
D03*
Y34094D02*
D03*
Y33780D02*
D03*
Y33465D02*
D03*
Y33150D02*
D03*
Y32835D02*
D03*
Y32520D02*
D03*
Y32205D02*
D03*
Y31890D02*
D03*
X49193Y35039D02*
D03*
Y34724D02*
D03*
Y34409D02*
D03*
Y34094D02*
D03*
Y33780D02*
D03*
Y33465D02*
D03*
Y33150D02*
D03*
Y32835D02*
D03*
Y32520D02*
D03*
Y32205D02*
D03*
Y31890D02*
D03*
D26*
X45276Y31122D02*
D03*
X45591D02*
D03*
X45906D02*
D03*
X46220D02*
D03*
X46535D02*
D03*
X46850D02*
D03*
X47165D02*
D03*
X47480D02*
D03*
X47795D02*
D03*
X48110D02*
D03*
X48425D02*
D03*
X45276Y35807D02*
D03*
X45591D02*
D03*
X45906D02*
D03*
X46220D02*
D03*
X46535D02*
D03*
X46850D02*
D03*
X47165D02*
D03*
X47480D02*
D03*
X47795D02*
D03*
X48110D02*
D03*
X48425D02*
D03*
D27*
X39862Y32854D02*
D03*
X41862D02*
D03*
Y31201D02*
D03*
X39862D02*
D03*
D28*
X21083Y35492D02*
D03*
Y54508D02*
D03*
D29*
X22972Y38750D02*
D03*
Y39250D02*
D03*
Y39750D02*
D03*
Y40250D02*
D03*
Y40750D02*
D03*
Y41250D02*
D03*
Y41750D02*
D03*
D30*
Y51250D02*
D03*
Y50750D02*
D03*
Y50250D02*
D03*
Y49750D02*
D03*
Y49250D02*
D03*
Y48750D02*
D03*
Y48250D02*
D03*
Y47750D02*
D03*
Y47250D02*
D03*
Y46750D02*
D03*
Y46250D02*
D03*
Y45750D02*
D03*
Y45250D02*
D03*
Y44750D02*
D03*
Y44250D02*
D03*
D31*
X25492Y36772D02*
D03*
Y36260D02*
D03*
Y37441D02*
D03*
Y37953D02*
D03*
Y38622D02*
D03*
Y39134D02*
D03*
D32*
X28622Y42618D02*
D03*
X27874D02*
D03*
X65039D02*
D03*
X64291D02*
D03*
X52835D02*
D03*
X52087D02*
D03*
X40728D02*
D03*
X39980D02*
D03*
X56280Y35630D02*
D03*
X55532D02*
D03*
D33*
X72175Y39923D02*
D03*
Y39423D02*
D03*
Y38923D02*
D03*
Y38423D02*
D03*
X74282Y39923D02*
D03*
Y39423D02*
D03*
Y38923D02*
D03*
Y38423D02*
D03*
D34*
X25118Y47726D02*
D03*
X25374D02*
D03*
X25630D02*
D03*
X25886D02*
D03*
X26142D02*
D03*
X26398D02*
D03*
X26654D02*
D03*
X25118Y50305D02*
D03*
X25374D02*
D03*
X25630D02*
D03*
X25886D02*
D03*
X26142D02*
D03*
X26398D02*
D03*
X26654D02*
D03*
X25020Y42018D02*
D03*
X25276D02*
D03*
X25531D02*
D03*
X25787D02*
D03*
X26043D02*
D03*
X26299D02*
D03*
X26555D02*
D03*
X25020Y44596D02*
D03*
X25276D02*
D03*
X25531D02*
D03*
X25787D02*
D03*
X26043D02*
D03*
X26299D02*
D03*
X26555D02*
D03*
D35*
X35728Y38386D02*
X35925Y38189D01*
X35728Y38386D02*
Y38386D01*
X22402Y56043D02*
X23740D01*
X24291Y55492D01*
Y56161D02*
Y56461D01*
X25295Y57465D01*
X76142Y57776D02*
X76240Y57874D01*
X76142Y57382D02*
Y57776D01*
X22933Y39250D02*
X23683D01*
X25453Y37480D02*
X25492D01*
X23683Y39250D02*
X25453Y37480D01*
X22933Y39724D02*
X23720D01*
X25492Y37953D01*
X23632Y41043D02*
X29409D01*
X32854Y37598D01*
X22972Y41250D02*
X23425D01*
X23632Y41043D01*
X32854Y37598D02*
X33091D01*
X32657Y37402D02*
X33091D01*
X29309Y40750D02*
X32657Y37402D01*
X22972Y40750D02*
X29309D01*
D36*
X22872Y39250D02*
X22972D01*
X26102Y37736D02*
X26811D01*
X25492Y37520D02*
X25886D01*
X25492Y36772D02*
Y37441D01*
X33091Y37598D02*
X33366D01*
X33091Y37402D02*
X33563D01*
X72205Y50394D02*
X73583Y51772D01*
X37480Y35827D02*
X37677Y35630D01*
X36713Y39390D02*
X36909Y39193D01*
X35413Y48445D02*
X35630Y48228D01*
X31811Y41634D02*
Y43780D01*
X31457Y40374D02*
Y41201D01*
X33071Y37795D02*
X33563D01*
X31457Y39409D02*
X33071Y37795D01*
X31457Y39409D02*
Y39705D01*
X37165Y41693D02*
X43051D01*
X42480D02*
X43622Y42835D01*
X43051Y41693D02*
X43209Y41850D01*
X43819Y44291D02*
X44016Y44488D01*
X43819Y43681D02*
Y44291D01*
Y43681D02*
X43878Y43622D01*
Y41850D02*
Y43622D01*
X55748Y42165D02*
Y44094D01*
X55236Y41654D02*
X55748Y42165D01*
X55236Y41594D02*
Y41654D01*
X52717Y39567D02*
X55748Y42598D01*
X55217Y41575D02*
X55236Y41594D01*
X55217Y41260D02*
Y41575D01*
X39272Y39567D02*
X52717D01*
X55945Y44291D02*
X56142Y44488D01*
X55945Y41319D02*
Y44291D01*
X55886Y41260D02*
X55945Y41319D01*
X68071Y44291D02*
X68268Y44488D01*
X68071Y41398D02*
Y44291D01*
Y41398D02*
X68130Y41339D01*
X63130Y38012D02*
X67833Y42715D01*
X66457Y41339D02*
X67461D01*
X33563Y37795D02*
X33760Y37992D01*
X33091Y36811D02*
X33366D01*
X33563Y37402D02*
X33760Y37598D01*
X35138Y36220D02*
X35335Y36417D01*
X26811Y38258D02*
X28041D01*
X35925Y35433D02*
X36122Y35630D01*
X36122D01*
X27884Y36722D02*
X28976Y35630D01*
X26811Y36722D02*
X27884D01*
X35138Y35433D02*
X35335Y35630D01*
X27608Y36467D02*
X28839Y35236D01*
X26811Y36467D02*
X27608D01*
X35138Y36614D02*
X35335Y36811D01*
X34744Y36220D02*
X34941Y36417D01*
X34350Y35827D02*
X34547Y36024D01*
X33169Y35039D02*
X33366Y34843D01*
X33563Y35039D02*
X33760Y35236D01*
X29488Y38514D02*
X30305D01*
X31102Y37717D01*
Y36693D02*
Y37717D01*
X29488Y38770D02*
X30778D01*
X31535Y38012D01*
Y36988D02*
Y38012D01*
Y36988D02*
X33091Y35433D01*
X33957D01*
X34154Y35236D01*
X30827Y36673D02*
Y37579D01*
X30610Y36614D02*
Y37343D01*
X30405Y36485D02*
Y37292D01*
X29488Y36467D02*
X30089D01*
X29488Y36211D02*
X30010D01*
X29488Y37746D02*
X29951D01*
X30405Y37292D01*
X29951Y38002D02*
X30610Y37343D01*
X29488Y38258D02*
X30148D01*
X30827Y37579D01*
X29488Y38002D02*
X29951D01*
X34547Y35236D02*
X34744Y35039D01*
X29488Y35955D02*
X29970D01*
X35728Y35236D02*
X35925Y35039D01*
X28927Y36978D02*
X29488D01*
X26280Y38760D02*
X26831D01*
X26811Y38504D02*
X27362D01*
X26220Y38091D02*
X26309Y38002D01*
X26811D01*
Y37244D02*
X27244D01*
X27254Y36978D02*
X27382Y37106D01*
X26811Y36978D02*
X27254D01*
X27244Y37244D02*
X27382Y37106D01*
X26289Y36211D02*
X26811D01*
Y35955D02*
X27392D01*
X26201Y35689D02*
X26447Y35443D01*
X26211Y35699D02*
X26811D01*
X26447Y35443D02*
X26811D01*
X25453Y37933D02*
X25807D01*
X26250Y37490D02*
X26811D01*
X25886Y37520D02*
X26102Y37736D01*
X25492Y35866D02*
Y36280D01*
Y39134D02*
Y39488D01*
Y37953D02*
Y38622D01*
X32874Y42362D02*
Y44291D01*
X32677Y44488D02*
X32874Y44291D01*
X33071Y42638D02*
Y44094D01*
Y42638D02*
X34547Y41161D01*
X33268Y42913D02*
X34744Y41437D01*
X33268Y42913D02*
Y44291D01*
X33071Y44488D02*
X33268Y44291D01*
X33465Y43189D02*
Y44094D01*
Y43189D02*
X34941Y41713D01*
X33661Y43465D02*
Y44291D01*
X33858Y43740D02*
Y44094D01*
X34055Y44016D02*
Y44291D01*
X33465Y44488D02*
X33661Y44291D01*
X33858Y44488D02*
X34055Y44291D01*
X31890Y44488D02*
Y44843D01*
X35079Y44843D02*
X35433Y44488D01*
X27480Y44705D02*
Y45709D01*
X27441Y46417D02*
Y47165D01*
X37362Y46772D02*
Y47244D01*
X37992Y46791D02*
Y47205D01*
X35433Y45276D02*
X35630Y45472D01*
X37677D02*
X37992Y45787D01*
Y46122D01*
X35433Y45669D02*
X35630Y45866D01*
X37087D01*
X37323Y46102D01*
X37677Y53071D02*
Y53543D01*
Y55669D02*
X38071D01*
X37677Y56457D02*
X38110D01*
X37323Y58701D02*
X37697D01*
X34252Y50394D02*
Y50630D01*
X35787Y52165D01*
X36299D01*
X37323Y53189D01*
Y56929D01*
X37480Y57087D01*
X37657D01*
X37697Y57126D01*
Y58032D01*
Y54154D02*
Y54980D01*
X37677Y54134D02*
X37953D01*
X37677D02*
X37697Y54154D01*
X37953Y54134D02*
X38110Y53976D01*
Y53110D02*
Y53976D01*
X37835Y52835D02*
X38110Y53110D01*
X37402Y52835D02*
X37835D01*
X36496Y51929D02*
X37402Y52835D01*
X35827Y51929D02*
X36496D01*
X34449Y50551D02*
X35827Y51929D01*
X34449Y50197D02*
Y50551D01*
X34252Y50000D02*
X34449Y50197D01*
X31063Y46850D02*
X31181D01*
Y47165D02*
X31260Y47244D01*
X31496D01*
X32244Y57205D02*
Y57835D01*
X30551Y47480D02*
X31102D01*
X29921Y46850D02*
X30551Y47480D01*
X31654Y52913D02*
Y53425D01*
X29921Y45276D02*
X30709Y46063D01*
Y46260D01*
X32283Y50000D02*
X32559Y49724D01*
X35118Y49685D02*
X35433Y50000D01*
Y50000D01*
X31260Y47874D02*
X31417Y48031D01*
X31496D01*
X31260Y47874D02*
Y47874D01*
Y47874D02*
X31496Y47638D01*
X31457D02*
X31496D01*
X31181Y46850D02*
Y47165D01*
X31181Y46850D02*
X31496D01*
X31181Y46457D02*
X31181Y46457D01*
X31496D01*
X31220Y46063D02*
X31496D01*
X31890Y45748D02*
Y46063D01*
X32283Y45748D02*
Y46063D01*
X32677Y45748D02*
Y46063D01*
X33071Y45748D02*
X33071Y45748D01*
X33071Y45748D02*
Y46063D01*
X33465Y45748D02*
Y46063D01*
X33858D02*
X34213D01*
X33858Y46457D02*
X34213D01*
X33858Y46850D02*
X34213D01*
Y47244D02*
X34213Y47244D01*
X33858Y47244D02*
X34213D01*
X33858Y47638D02*
X34213D01*
X33858Y48031D02*
X34213D01*
X33858Y48740D02*
X33858Y48740D01*
X33858Y48425D02*
Y48740D01*
X33465Y48425D02*
Y48740D01*
X33071Y48425D02*
Y48740D01*
X32677Y48425D02*
Y48740D01*
X32283Y48425D02*
Y48740D01*
X31890Y48425D02*
Y48740D01*
X31496Y48425D02*
Y48701D01*
X32480Y47835D02*
X32677Y48031D01*
X32283D02*
X32480Y47835D01*
X31890Y48031D02*
X32087Y47835D01*
X31890Y48031D02*
X31890D01*
X29921Y48819D02*
X30118Y49016D01*
X30197D01*
X29291Y51457D02*
X30395Y52561D01*
Y53415D01*
X29449Y52992D02*
Y53413D01*
X28898Y52441D02*
X29449Y52992D01*
X29921Y48425D02*
X30197Y48701D01*
X28819Y53032D02*
Y53413D01*
X28622Y52835D02*
X28819Y53032D01*
X29921Y48031D02*
X30197Y48307D01*
X29134Y57165D02*
Y57795D01*
X29765Y56419D02*
Y57785D01*
X28819Y56968D02*
Y57835D01*
X28189Y48976D02*
Y55197D01*
X27913Y48858D02*
Y55315D01*
X29450Y56852D02*
Y57785D01*
X27913Y55315D02*
X29450Y56852D01*
X30157Y47874D02*
X30197D01*
X29921Y47638D02*
X30157Y47874D01*
X29961Y47244D02*
X30197Y47480D01*
X29921Y47244D02*
X29961D01*
X30118Y52677D02*
Y53465D01*
X29055Y51614D02*
X30118Y52677D01*
X29055Y49291D02*
Y51614D01*
Y49291D02*
X29528Y48819D01*
X29252Y51063D02*
X31063Y52874D01*
X29252Y49882D02*
Y51063D01*
Y49882D02*
X29528Y49606D01*
X29765Y52954D02*
Y53415D01*
X28780Y51968D02*
X29765Y52954D01*
X28780Y49173D02*
Y51968D01*
Y49173D02*
X29528Y48425D01*
X29134Y52992D02*
Y53465D01*
X28465Y52323D02*
X29134Y52992D01*
X28465Y49094D02*
Y52323D01*
Y49094D02*
X29528Y48031D01*
X28189Y48976D02*
X29528Y47638D01*
X27913Y48858D02*
X29528Y47244D01*
Y47244D02*
Y47244D01*
X30079Y49213D02*
X30197Y49331D01*
X29921Y49213D02*
X30079D01*
X30394Y54016D02*
X30710Y53699D01*
Y53415D02*
Y53699D01*
X35748Y57205D02*
Y57913D01*
X35728Y57185D02*
X35748Y57205D01*
X34805Y57124D02*
Y57912D01*
Y57124D02*
X34843Y57087D01*
X34175Y57785D02*
Y58348D01*
X33858Y57244D02*
Y57783D01*
X33543Y57126D02*
Y57638D01*
X32915Y57124D02*
Y57785D01*
X32244Y57205D02*
X32283Y57165D01*
X31970Y55592D02*
Y57785D01*
X29213Y44488D02*
X29528D01*
X31024Y57783D02*
X31025Y57785D01*
X31024Y55827D02*
Y57783D01*
X30433Y55236D02*
X31024Y55827D01*
X31655Y55671D02*
Y57785D01*
X30315Y54331D02*
X31655Y55671D01*
X29213Y44882D02*
X29567D01*
X30080Y56813D02*
Y57785D01*
X30079Y56811D02*
X30080Y56813D01*
X29921Y44488D02*
X30197Y44764D01*
X31340Y57088D02*
Y57785D01*
X30710Y56140D02*
Y57785D01*
Y56140D02*
X30787Y56063D01*
X30512Y51614D02*
X30787Y51890D01*
X30512Y50984D02*
Y51614D01*
X29921Y50394D02*
X30512Y50984D01*
X31063Y52874D02*
Y53386D01*
X31181Y54094D02*
X31339Y53937D01*
Y53425D02*
Y53937D01*
X31063Y52323D02*
X31654Y52913D01*
X30217Y49705D02*
Y49705D01*
X29921Y50000D02*
X30217Y49705D01*
X29921Y50000D02*
X29921D01*
X35433Y49606D02*
X35630Y49803D01*
X36516D01*
X36913Y50200D01*
X37600D01*
X35827Y50000D02*
X35925D01*
X37106Y51181D01*
X37598D01*
X29528Y46850D02*
X29528Y46850D01*
X29134Y46850D02*
X29528D01*
X30807Y51280D02*
Y51575D01*
X31693Y52461D01*
Y52461D01*
X31970Y52738D01*
Y53415D01*
X36380Y57049D02*
Y57785D01*
X30709Y50787D02*
X31299Y51378D01*
X30709Y50394D02*
Y50787D01*
X30413Y57087D02*
Y57874D01*
X30709Y49606D02*
Y50000D01*
X30709Y50000D02*
X30709Y50000D01*
X34175Y52931D02*
X34252Y52854D01*
X34175Y52931D02*
Y53415D01*
X34490Y57128D02*
Y57785D01*
X33563Y56201D02*
X34490Y57128D01*
X31102Y50394D02*
X31299Y50591D01*
Y50689D01*
X34646Y54232D02*
X35433Y55020D01*
Y57776D01*
X31299Y49705D02*
Y50197D01*
Y49705D02*
X31496Y49508D01*
X31496Y50000D02*
X31791Y49705D01*
X31299Y50197D02*
X31496Y50394D01*
X31890Y52362D02*
X32185Y52657D01*
X31890Y50394D02*
Y52362D01*
X32087Y52165D02*
X32579Y52657D01*
X32087Y50197D02*
Y52165D01*
X31890Y50000D02*
X32087Y50197D01*
X32283Y51870D02*
X32677Y52264D01*
X32283Y50394D02*
Y51870D01*
X32480Y50197D02*
X32677Y50000D01*
X32480Y50197D02*
Y51673D01*
X32915Y52108D01*
Y53415D01*
X33563Y52362D02*
Y53445D01*
X32677Y50394D02*
Y51476D01*
X33563Y52362D01*
X32874Y50197D02*
X33071Y50000D01*
X32874Y50197D02*
Y51280D01*
X33860Y52265D01*
Y53415D01*
X33071Y50394D02*
Y51181D01*
X34490Y52600D01*
Y53415D01*
X34843Y52559D02*
Y53445D01*
X33465Y51181D02*
X34843Y52559D01*
X33465Y50394D02*
Y51181D01*
Y50000D02*
X33661Y50197D01*
Y51083D01*
X35435Y52856D01*
Y53415D01*
X33858Y50394D02*
Y50886D01*
X35750Y52777D01*
Y53415D01*
X36417Y53051D02*
Y53543D01*
X34816Y51450D02*
X36417Y53051D01*
X34816Y51450D02*
Y51450D01*
X34055Y50689D02*
X34816Y51450D01*
X33858Y50000D02*
X34055Y50197D01*
Y50689D01*
X29724Y44291D02*
X29921Y44094D01*
X29724Y44291D02*
Y45354D01*
X29606Y45472D02*
X29724Y45354D01*
X29193Y45472D02*
X29606D01*
X28642Y44646D02*
X29193Y44094D01*
X28642Y44646D02*
Y44803D01*
X29193Y44094D02*
X29528D01*
X32677Y42087D02*
Y44094D01*
X32283D02*
X32480Y44291D01*
Y44823D01*
X32087Y44291D02*
X32283Y44488D01*
X32087Y42205D02*
Y44291D01*
Y42205D02*
X32441Y41850D01*
X28071Y43957D02*
X28209Y44094D01*
X27559Y43957D02*
X28071D01*
X30315Y44094D02*
X30512Y44291D01*
X30807D01*
X30906Y44390D01*
Y44665D01*
X31024Y44783D01*
X31063Y45197D02*
X31339D01*
X30709Y44488D02*
Y44843D01*
X31063Y45197D01*
X30315Y44508D02*
X30512Y44705D01*
Y45079D01*
X39567Y46417D02*
Y47165D01*
X39606Y44705D02*
Y45709D01*
X48051Y50000D02*
X49232Y51181D01*
X49724D01*
X47559Y49606D02*
X47756Y49803D01*
X48642D01*
X49039Y50200D01*
X49726D01*
X49488Y46772D02*
Y47244D01*
X47559Y45669D02*
X47756Y45866D01*
X49213D01*
X49449Y46102D01*
X46378Y50000D02*
X46575Y50197D01*
X49528Y52835D02*
X49961D01*
X50236Y53110D01*
Y53976D01*
X50079Y54134D02*
X50236Y53976D01*
X49803Y54134D02*
X49823Y54154D01*
Y54980D01*
X49803Y53071D02*
Y53543D01*
X49449Y56929D02*
X49606Y57087D01*
X49449Y53189D02*
Y56929D01*
X49606Y57087D02*
X49783D01*
X49823Y57126D01*
Y58032D01*
X49803Y56457D02*
X50236D01*
X49803Y55669D02*
X50197D01*
X49449Y58701D02*
X49823D01*
X39685Y43957D02*
X40197D01*
X40335Y44094D01*
X46535Y44724D02*
X46772Y44488D01*
X47559Y45276D02*
X47756Y45472D01*
X49803D02*
X50118Y45787D01*
Y46122D01*
Y46791D02*
Y47205D01*
X45984Y46063D02*
X46339D01*
X45591Y45748D02*
Y46063D01*
X45197Y45748D02*
X45197Y45748D01*
X45197Y45748D02*
Y46063D01*
X44803Y45748D02*
Y46063D01*
X44409Y45748D02*
Y46063D01*
X44016Y45748D02*
Y46063D01*
X43346D02*
X43622D01*
X45984Y46457D02*
X46339D01*
X43307Y46457D02*
X43307Y46457D01*
X43622D01*
X45984Y46850D02*
X46339D01*
X43189Y46850D02*
X43307D01*
Y47165D01*
X43386Y47244D01*
X43307Y46850D02*
X43622D01*
X43386Y47244D02*
X43622D01*
X45984D02*
X46339D01*
X46339Y47244D01*
X45984Y47638D02*
X46339D01*
X43386Y47874D02*
X43622Y47638D01*
X43386Y47874D02*
Y47874D01*
X43543Y48031D01*
X43583Y47638D02*
X43622D01*
X45984Y48031D02*
X46339D01*
X44409D02*
X44606Y47835D01*
X44803Y48031D01*
X44016D02*
X44213Y47835D01*
X44016Y48031D02*
X44016D01*
X43543D02*
X43622D01*
X45984Y48425D02*
Y48740D01*
X45984Y48740D01*
X45591Y48425D02*
Y48740D01*
X45197Y48425D02*
Y48740D01*
X44803Y48425D02*
Y48740D01*
X44409Y48425D02*
Y48740D01*
X44016Y48425D02*
Y48740D01*
X43622Y48425D02*
Y48701D01*
X42047Y50394D02*
X42638Y50984D01*
Y51614D01*
X42913Y51890D01*
X42836Y56140D02*
Y57785D01*
Y56140D02*
X42913Y56063D01*
X42835Y50394D02*
Y50787D01*
X43425Y51378D01*
X48506Y57049D02*
Y57785D01*
X43228Y50394D02*
X43425Y50591D01*
Y50689D01*
X46772Y54232D02*
X47559Y55020D01*
Y57776D01*
X43425Y49705D02*
Y50197D01*
Y49705D02*
X43622Y49508D01*
X43425Y50197D02*
X43622Y50394D01*
X45689Y56201D02*
X46616Y57128D01*
Y57785D01*
X44016Y50394D02*
Y52362D01*
X44311Y52657D01*
X45984Y57244D02*
Y57783D01*
X44409Y50394D02*
Y51870D01*
X44803Y52264D01*
X45041Y57124D02*
Y57785D01*
X44803Y51476D02*
X45689Y52362D01*
X44803Y50394D02*
Y51476D01*
X45689Y52362D02*
Y53445D01*
X45197Y51181D02*
X46616Y52600D01*
X45197Y50394D02*
Y51181D01*
X46616Y52600D02*
Y53415D01*
X45591Y51181D02*
X46968Y52559D01*
X45591Y50394D02*
Y51181D01*
X46968Y52559D02*
Y53445D01*
X45984Y50886D02*
X47876Y52777D01*
X45984Y50394D02*
Y50886D01*
X47876Y52777D02*
Y53415D01*
X42343Y49705D02*
Y49705D01*
X42047Y50000D02*
X42343Y49705D01*
X42047Y50000D02*
X42047D01*
X42539Y57087D02*
Y57874D01*
X42835Y49606D02*
Y50000D01*
X42835Y50000D02*
X42835Y50000D01*
X43622Y50000D02*
X43917Y49705D01*
X47874Y57205D02*
Y57913D01*
X47854Y57185D02*
X47874Y57205D01*
X44016Y50000D02*
X44213Y50197D01*
Y52165D01*
X44705Y52657D01*
X46931Y57124D02*
Y57912D01*
Y57124D02*
X46968Y57087D01*
X44409Y50000D02*
X44685Y49724D01*
X45669Y57126D02*
Y57638D01*
X44606Y50197D02*
X44803Y50000D01*
X44606Y50197D02*
Y51673D01*
X45041Y52108D01*
Y53415D01*
X45000Y50197D02*
X45197Y50000D01*
X45000Y50197D02*
Y51280D01*
X45986Y52265D01*
Y53415D01*
X45591Y50000D02*
X45787Y50197D01*
Y51083D02*
X47561Y52856D01*
X45787Y50197D02*
Y51083D01*
X47561Y52856D02*
Y53415D01*
X45984Y50000D02*
X46181Y50197D01*
X47244Y49685D02*
X47559Y50000D01*
Y50000D01*
X47953D02*
X48051D01*
X41378Y49882D02*
X41654Y49606D01*
X41378Y49882D02*
Y51063D01*
X43189Y52874D01*
Y53386D01*
X42047Y49213D02*
X42205D01*
X42323Y49331D01*
X42520Y54016D02*
X42836Y53699D01*
X41181Y49291D02*
X41654Y48819D01*
X41181Y49291D02*
Y51614D01*
X42244Y52677D01*
Y53465D01*
X41417Y51457D02*
X42521Y52561D01*
X42047Y48819D02*
X42244Y49016D01*
X42323D01*
X42521Y52561D02*
Y53415D01*
X40906Y49173D02*
X41654Y48425D01*
X40906Y49173D02*
Y51968D01*
X41891Y52954D01*
Y53415D01*
X41024Y52441D02*
X41575Y52992D01*
X42047Y48425D02*
X42323Y48701D01*
X41575Y52992D02*
Y53413D01*
X40591Y49094D02*
X41654Y48031D01*
X40591Y49094D02*
Y52323D01*
X41260Y52992D01*
Y53465D01*
X40748Y52835D02*
X40945Y53032D01*
X42047Y48031D02*
X42323Y48307D01*
X40945Y53032D02*
Y53413D01*
X40315Y48976D02*
X41654Y47638D01*
X40315Y48976D02*
Y55197D01*
X40945Y56968D02*
Y57835D01*
X42047Y47638D02*
X42283Y47874D01*
X41260Y57165D02*
Y57795D01*
X42283Y47874D02*
X42323D01*
X40039Y48858D02*
X41654Y47244D01*
X40039Y48858D02*
Y55315D01*
X41576Y56852D01*
X41654Y47244D02*
Y47244D01*
X41576Y56852D02*
Y57785D01*
X42047Y47244D02*
X42087D01*
X42323Y47480D01*
X41891Y56419D02*
Y57785D01*
X41260Y46850D02*
X41654D01*
X41654Y46850D01*
X42933Y51280D02*
Y51575D01*
X43819Y52461D01*
Y52461D01*
X44096Y52738D01*
Y53415D01*
X42047Y46850D02*
X42677Y47480D01*
X43228D01*
X44370Y57205D02*
Y57835D01*
Y57205D02*
X44409Y57165D01*
X42047Y45276D02*
X42835Y46063D01*
Y46260D01*
X43189Y52323D02*
X43780Y52913D01*
Y53425D01*
X41339Y44882D02*
X41693D01*
X41339Y44488D02*
X41654D01*
X44096Y55592D02*
Y57785D01*
X42047Y44488D02*
X42323Y44764D01*
X42205Y56811D02*
X42206Y56813D01*
Y57785D01*
X42441Y44508D02*
X42638Y44705D01*
Y45079D01*
X42835Y44488D02*
Y44843D01*
X43189Y45197D01*
X43465D01*
Y53425D02*
Y53937D01*
X43307Y54094D02*
X43465Y53937D01*
X44016Y44488D02*
Y44843D01*
X44213Y42205D02*
X44567Y41850D01*
X44213Y42205D02*
Y44291D01*
X44409Y44488D01*
X45000Y42362D02*
X45039Y42323D01*
X45000Y42362D02*
Y44291D01*
X44803Y44488D02*
X45000Y44291D01*
X45394Y42913D02*
X45512Y42795D01*
X45394Y42913D02*
Y44291D01*
X45197Y44488D02*
X45394Y44291D01*
X45787Y43465D02*
X45984Y43268D01*
X45787Y43465D02*
Y44291D01*
X45591Y44488D02*
X45787Y44291D01*
X46181Y44016D02*
X46457Y43740D01*
X46181Y44016D02*
Y44291D01*
X45984Y44488D02*
X46181Y44291D01*
X40768Y44646D02*
X41319Y44094D01*
X41654D01*
X40768Y44646D02*
Y44803D01*
X42559Y55236D02*
X43150Y55827D01*
Y57783D01*
X41850Y44291D02*
Y45354D01*
X41732Y45472D02*
X41850Y45354D01*
X41319Y45472D02*
X41732D01*
X41850Y44291D02*
X42047Y44094D01*
X42441Y54331D02*
X43781Y55671D01*
Y57785D01*
X42441Y44094D02*
X42638Y44291D01*
X42933D01*
X43032Y44390D01*
Y44665D01*
X43150Y44783D01*
X43466Y57088D02*
Y57785D01*
X44409Y44094D02*
X44606Y44291D01*
Y44823D01*
X44803Y42087D02*
Y44094D01*
X45197Y42638D02*
X45276Y42559D01*
X45197Y42638D02*
Y44094D01*
X45591Y43189D02*
X45748Y43032D01*
X45591Y43189D02*
Y44094D01*
X45984Y43740D02*
X46220Y43504D01*
X45984Y43740D02*
Y44094D01*
X46301Y57785D02*
Y58348D01*
X43150Y57783D02*
X43151Y57785D01*
X46301Y52931D02*
X46378Y52854D01*
X46301Y52931D02*
Y53415D01*
X42836D02*
Y53699D01*
X54961Y50394D02*
Y50787D01*
X55551Y51378D01*
X55748Y50000D02*
X56043Y49705D01*
X59980Y57185D02*
X60000Y57205D01*
Y57913D01*
X55354Y50394D02*
X55551Y50591D01*
Y50689D01*
X58898Y54232D02*
X59685Y55020D01*
Y57776D01*
X56142Y50000D02*
X56339Y50197D01*
Y52165D01*
X56831Y52657D01*
X59057Y57124D02*
Y57912D01*
Y57124D02*
X59094Y57087D01*
X55551Y49705D02*
Y50197D01*
Y49705D02*
X55748Y49508D01*
X55551Y50197D02*
X55748Y50394D01*
X57815Y56201D02*
X58742Y57128D01*
Y57785D01*
X58427D02*
Y58348D01*
X56142Y50394D02*
Y52362D01*
X56437Y52657D01*
X58110Y57244D02*
Y57783D01*
X56535Y50000D02*
X56811Y49724D01*
X57795Y57126D02*
Y57638D01*
X56535Y50394D02*
Y51870D01*
X56929Y52264D01*
X57167Y57124D02*
Y57785D01*
X54173Y46850D02*
X54803Y47480D01*
X55354D01*
X56496Y57205D02*
Y57835D01*
Y57205D02*
X56535Y57165D01*
X53465Y44488D02*
X53780D01*
X56222Y55592D02*
Y57785D01*
X53976Y44291D02*
Y45354D01*
X53858Y45472D02*
X53976Y45354D01*
X53445Y45472D02*
X53858D01*
X53976Y44291D02*
X54173Y44094D01*
X54567Y54331D02*
X55907Y55671D01*
Y57785D01*
X54567Y44094D02*
X54764Y44291D01*
X55059D01*
X55157Y44390D01*
Y44665D01*
X55276Y44783D01*
X55592Y57088D02*
Y57785D01*
X52894Y44646D02*
X53445Y44094D01*
X53780D01*
X52894Y44646D02*
Y44803D01*
X54685Y55236D02*
X55276Y55827D01*
Y57783D01*
X55277Y57785D01*
X54173Y50394D02*
X54764Y50984D01*
Y51614D01*
X55039Y51890D01*
X54962Y56140D02*
Y57785D01*
Y56140D02*
X55039Y56063D01*
X54665Y57087D02*
Y57874D01*
X54961Y49606D02*
Y50000D01*
X54331Y56811D02*
X54332Y56813D01*
Y57785D01*
X54567Y44508D02*
X54764Y44705D01*
Y45079D01*
X54213Y47244D02*
X54449Y47480D01*
X54017Y56419D02*
Y57785D01*
X52165Y48858D02*
X53780Y47244D01*
X52165Y48858D02*
Y55315D01*
X53702Y56852D01*
Y57785D01*
X54173Y47638D02*
X54409Y47874D01*
X53386Y57165D02*
Y57795D01*
X54409Y47874D02*
X54449D01*
X52441Y48976D02*
X53780Y47638D01*
X52441Y48976D02*
Y55197D01*
X53071Y56968D02*
Y57835D01*
X58110Y50000D02*
X58307Y50197D01*
X58110Y50886D02*
X60002Y52777D01*
X58110Y50394D02*
Y50886D01*
X60002Y52777D02*
Y53415D01*
X57717Y50000D02*
X57913Y50197D01*
Y51083D02*
X59687Y52856D01*
X57913Y50197D02*
Y51083D01*
X59687Y52856D02*
Y53415D01*
X57717Y51181D02*
X59094Y52559D01*
X57717Y50394D02*
Y51181D01*
X59094Y52559D02*
Y53445D01*
X57323Y51181D02*
X58742Y52600D01*
X57323Y50394D02*
Y51181D01*
X58742Y52600D02*
Y53415D01*
X58427Y52931D02*
X58504Y52854D01*
X58427Y52931D02*
Y53415D01*
X57126Y50197D02*
X57323Y50000D01*
X57126Y50197D02*
Y51280D01*
X58112Y52265D01*
Y53415D01*
X56929Y51476D02*
X57815Y52362D01*
X56929Y50394D02*
Y51476D01*
X57815Y52362D02*
Y53445D01*
X56732Y50197D02*
X56929Y50000D01*
X56732Y50197D02*
Y51673D01*
X57167Y52108D01*
Y53415D01*
X53386Y46850D02*
X53780D01*
X55059Y51280D02*
Y51575D01*
X55945Y52461D01*
Y52461D01*
X56222Y52738D01*
Y53415D01*
X54173Y45276D02*
X54961Y46063D01*
Y46260D01*
X55315Y52323D02*
X55906Y52913D01*
Y53425D01*
X54961Y44488D02*
Y44843D01*
X55315Y45197D01*
X55591D01*
Y53425D02*
Y53937D01*
X55433Y54094D02*
X55591Y53937D01*
X53504Y49882D02*
X53780Y49606D01*
X53504Y49882D02*
Y51063D01*
X55315Y52874D01*
Y53386D01*
X54173Y49213D02*
X54331D01*
X54449Y49331D01*
X54962Y53415D02*
Y53699D01*
X54646Y54016D02*
X54962Y53699D01*
X53543Y51457D02*
X54647Y52561D01*
X54173Y48819D02*
X54370Y49016D01*
X54449D01*
X54647Y52561D02*
Y53415D01*
X53307Y49291D02*
X53780Y48819D01*
X53307Y49291D02*
Y51614D01*
X54370Y52677D01*
Y53465D01*
X53032Y49173D02*
X53780Y48425D01*
X53032Y49173D02*
Y51968D01*
X54017Y52954D01*
Y53415D01*
X53150Y52441D02*
X53701Y52992D01*
X54173Y48425D02*
X54449Y48701D01*
X53701Y52992D02*
Y53413D01*
X52717Y49094D02*
X53780Y48031D01*
X52717Y49094D02*
Y52323D01*
X53386Y52992D01*
Y53465D01*
X52874Y52835D02*
X53071Y53032D01*
X54173Y48031D02*
X54449Y48307D01*
X53071Y53032D02*
Y53413D01*
X58110Y46063D02*
X58465D01*
X57717Y45748D02*
Y46063D01*
X57323Y45748D02*
X57323Y45748D01*
X57323Y45748D02*
Y46063D01*
X56929Y45748D02*
Y46063D01*
X56535Y45748D02*
Y46063D01*
X56142Y45748D02*
Y46063D01*
X55472D02*
X55748D01*
X58110Y46457D02*
X58465D01*
X55433Y46457D02*
X55433Y46457D01*
X55748D01*
X58110Y46850D02*
X58465D01*
X55315Y46850D02*
X55433D01*
X55433Y46850D02*
X55748D01*
X55433Y46850D02*
Y47165D01*
X55512Y47244D01*
X55748D01*
X58110D02*
X58465D01*
X58465Y47244D01*
X58110Y47638D02*
X58465D01*
X55512Y47874D02*
X55748Y47638D01*
X55512Y47874D02*
Y47874D01*
X55669Y48031D01*
X55709Y47638D02*
X55748D01*
X58110Y48031D02*
X58465D01*
X56535D02*
X56732Y47835D01*
X56929Y48031D01*
X56142D02*
X56142D01*
X56339Y47835D01*
X55669Y48031D02*
X55748D01*
X58110Y48425D02*
Y48740D01*
X58110Y48740D01*
X57717Y48425D02*
Y48740D01*
X57323Y48425D02*
Y48740D01*
X56929Y48425D02*
Y48740D01*
X56535Y48425D02*
Y48740D01*
X56142Y48425D02*
Y48740D01*
X55748Y48425D02*
Y48701D01*
X61575Y56929D02*
X61732Y57087D01*
X61575Y53189D02*
Y56929D01*
X54468Y49705D02*
Y49705D01*
X54173Y50000D02*
X54173D01*
X54468Y49705D01*
X54961Y50000D02*
X54961Y50000D01*
X58504Y50000D02*
X58701Y50197D01*
X61654Y52835D02*
X62087D01*
X62362Y53110D01*
Y53976D01*
X62205Y54134D02*
X62362Y53976D01*
X59370Y49685D02*
X59685Y50000D01*
Y50000D01*
X60079D02*
X60177D01*
X61358Y51181D01*
X61850D01*
X59685Y49606D02*
X59882Y49803D01*
X60768D01*
X61165Y50200D01*
X61852D01*
X53780Y47244D02*
Y47244D01*
X54173Y47244D02*
X54213D01*
X53780Y46850D02*
X53780Y46850D01*
X59685Y45669D02*
X59882Y45866D01*
X61339D01*
X61575Y46102D01*
X59685Y45276D02*
X59882Y45472D01*
X61929D01*
X62244Y45787D01*
Y46122D01*
X53465Y44882D02*
X53819D01*
X54173Y44488D02*
X54449Y44764D01*
X56142Y44488D02*
Y44843D01*
X56339Y42205D02*
X56693Y41850D01*
X56339Y42205D02*
Y44291D01*
X56535Y44488D01*
X56929D02*
X57126Y44291D01*
Y42362D02*
X57165Y42323D01*
X57126Y42362D02*
Y44291D01*
X57520Y42913D02*
X57638Y42795D01*
X57323Y44488D02*
X57520Y44291D01*
Y42913D02*
Y44291D01*
X57913Y43465D02*
X58110Y43268D01*
X57717Y44488D02*
X57913Y44291D01*
Y43465D02*
Y44291D01*
X58307Y44016D02*
X58583Y43740D01*
X58110Y44488D02*
X58307Y44291D01*
Y44016D02*
Y44291D01*
X51811Y43957D02*
X52323D01*
X52461Y44094D01*
X58661Y44724D02*
X58898Y44488D01*
X59331Y44843D02*
X59685Y44488D01*
X56535Y44094D02*
X56732Y44291D01*
Y44823D01*
X56929Y42087D02*
Y44094D01*
X57323Y42638D02*
X57402Y42559D01*
X57323Y42638D02*
Y44094D01*
X57717Y43189D02*
X57874Y43032D01*
X57717Y43189D02*
Y44094D01*
X58110Y43740D02*
X58346Y43504D01*
X58110Y43740D02*
Y44094D01*
X62244Y46791D02*
Y47205D01*
X51732Y44705D02*
Y45709D01*
X61949Y57126D02*
Y58032D01*
X61575Y58701D02*
X61949D01*
Y54154D02*
Y54980D01*
X61929Y55669D02*
X62323D01*
X61929Y56457D02*
X62362D01*
X61732Y57087D02*
X61909D01*
X61949Y57126D01*
X61929Y53071D02*
Y53543D01*
Y54134D02*
X61949Y54154D01*
X61614Y46772D02*
Y47244D01*
X51693Y46417D02*
Y47165D01*
X67087Y50394D02*
Y50787D01*
X67677Y51378D01*
X72757Y57049D02*
Y57785D01*
X67874Y50000D02*
X68169Y49705D01*
X72106Y57185D02*
X72126Y57205D01*
Y57913D01*
X67480Y50394D02*
X67677Y50591D01*
Y50689D01*
X71024Y54232D02*
X71811Y55020D01*
Y57776D01*
X68268Y50000D02*
X68465Y50197D01*
Y52165D01*
X68957Y52657D01*
X71183Y57124D02*
Y57912D01*
Y57124D02*
X71220Y57087D01*
X67677Y49705D02*
Y50197D01*
Y49705D02*
X67874Y49508D01*
X67677Y50197D02*
X67874Y50394D01*
X69941Y56201D02*
X70868Y57128D01*
Y57785D01*
X70553D02*
Y58348D01*
X68268Y50394D02*
Y52362D01*
X68563Y52657D01*
X70236Y57244D02*
Y57783D01*
X68661Y50000D02*
X68937Y49724D01*
X69921Y57126D02*
Y57638D01*
X68661Y50394D02*
Y51870D01*
X69055Y52264D01*
X69293Y57124D02*
Y57785D01*
X66299Y46850D02*
X66929Y47480D01*
X67480D01*
X68622Y57205D02*
Y57835D01*
Y57205D02*
X68661Y57165D01*
X65591Y44488D02*
X65906D01*
X68348Y55592D02*
Y57785D01*
X66102Y44291D02*
Y45354D01*
X65984Y45472D02*
X66102Y45354D01*
X65571Y45472D02*
X65984D01*
X66102Y44291D02*
X66299Y44094D01*
X66693Y54331D02*
X68033Y55671D01*
Y57785D01*
X66693Y44094D02*
X66890Y44291D01*
X67185D01*
X67283Y44390D01*
Y44665D01*
X67402Y44783D01*
X67718Y57088D02*
Y57785D01*
X65020Y44646D02*
X65571Y44094D01*
X65906D01*
X65020Y44646D02*
Y44803D01*
X66811Y55236D02*
X67402Y55827D01*
Y57783D01*
X67403Y57785D01*
X66299Y50394D02*
X66890Y50984D01*
Y51614D01*
X67165Y51890D01*
X67088Y56140D02*
Y57785D01*
Y56140D02*
X67165Y56063D01*
X66791Y57087D02*
Y57874D01*
X67087Y49606D02*
Y50000D01*
X66457Y56811D02*
X66458Y56813D01*
Y57785D01*
X66693Y44508D02*
X66890Y44705D01*
Y45079D01*
X66339Y47244D02*
X66575Y47480D01*
X66143Y56419D02*
Y57785D01*
X64291Y48858D02*
X65906Y47244D01*
X64291Y48858D02*
Y55315D01*
X65828Y56852D01*
Y57785D01*
X66299Y47638D02*
X66535Y47874D01*
X65512Y57165D02*
Y57795D01*
X66535Y47874D02*
X66575D01*
X64567Y48976D02*
X65906Y47638D01*
X64567Y48976D02*
Y55197D01*
X65197Y56968D02*
Y57835D01*
X70236Y50000D02*
X70433Y50197D01*
Y50689D01*
X71194Y51450D01*
Y51450D01*
X72795Y53051D01*
Y53543D01*
X70236Y50886D02*
X72128Y52777D01*
X70236Y50394D02*
Y50886D01*
X72128Y52777D02*
Y53415D01*
X69843Y50000D02*
X70039Y50197D01*
Y51083D02*
X71813Y52856D01*
X70039Y50197D02*
Y51083D01*
X71813Y52856D02*
Y53415D01*
X69843Y51181D02*
X71220Y52559D01*
X69843Y50394D02*
Y51181D01*
X71220Y52559D02*
Y53445D01*
X69449Y51181D02*
X70868Y52600D01*
X69449Y50394D02*
Y51181D01*
X70868Y52600D02*
Y53415D01*
X70553Y52931D02*
X70630Y52854D01*
X70553Y52931D02*
Y53415D01*
X69252Y50197D02*
X69449Y50000D01*
X69252Y50197D02*
Y51280D01*
X70238Y52265D01*
Y53415D01*
X69055Y51476D02*
X69941Y52362D01*
X69055Y50394D02*
Y51476D01*
X69941Y52362D02*
Y53445D01*
X68858Y50197D02*
X69055Y50000D01*
X68858Y50197D02*
Y51673D01*
X69293Y52108D01*
Y53415D01*
X65512Y46850D02*
X65905D01*
X67185Y51280D02*
Y51575D01*
X68071Y52461D01*
Y52461D01*
X68348Y52738D01*
Y53415D01*
X66299Y45276D02*
X67087Y46063D01*
Y46260D01*
X67441Y52323D02*
X68032Y52913D01*
Y53425D01*
X67087Y44488D02*
Y44843D01*
X67441Y45197D01*
X67717D01*
Y53425D02*
Y53937D01*
X67559Y54094D02*
X67717Y53937D01*
X65630Y49882D02*
X65906Y49606D01*
X65630Y49882D02*
Y51063D01*
X67441Y52874D01*
Y53386D01*
X66299Y49213D02*
X66457D01*
X66575Y49331D01*
X67088Y53415D02*
Y53699D01*
X66772Y54016D02*
X67088Y53699D01*
X65669Y51457D02*
X66773Y52561D01*
X66299Y48819D02*
X66496Y49016D01*
X66575D01*
X66773Y52561D02*
Y53415D01*
X65433Y49291D02*
X65906Y48819D01*
X65433Y49291D02*
Y51614D01*
X66496Y52677D01*
Y53465D01*
X65157Y49173D02*
X65906Y48425D01*
X65157Y49173D02*
Y51968D01*
X66143Y52954D01*
Y53415D01*
X65276Y52441D02*
X65827Y52992D01*
X66299Y48425D02*
X66575Y48701D01*
X65827Y52992D02*
Y53413D01*
X64843Y49094D02*
X65906Y48031D01*
X64843Y49094D02*
Y52323D01*
X65512Y52992D01*
Y53465D01*
X65000Y52835D02*
X65197Y53032D01*
X66299Y48031D02*
X66575Y48307D01*
X65197Y53032D02*
Y53413D01*
X70236Y46063D02*
X70591D01*
X69843Y45748D02*
Y46063D01*
X69449Y45748D02*
X69449Y45748D01*
X69449Y45748D02*
Y46063D01*
X69055Y45748D02*
Y46063D01*
X68661Y45748D02*
Y46063D01*
X68268Y45748D02*
Y46063D01*
X67598D02*
X67874D01*
X70236Y46457D02*
X70591D01*
X67559Y46457D02*
X67559Y46457D01*
X67874D01*
X70236Y46850D02*
X70591D01*
X67441Y46850D02*
X67559D01*
X67559Y46850D02*
X67874D01*
X67559Y46850D02*
Y47165D01*
X67638Y47244D01*
X67874D01*
X70236D02*
X70591D01*
X70591Y47244D01*
X70236Y47638D02*
X70591D01*
X67638Y47874D02*
X67874Y47638D01*
X67638Y47874D02*
Y47874D01*
X67795Y48031D01*
X67835Y47638D02*
X67874D01*
X70236Y48031D02*
X70591D01*
X68661D02*
X68858Y47835D01*
X69055Y48031D01*
X68268D02*
X68268D01*
X68465Y47835D01*
X67795Y48031D02*
X67874D01*
X70236Y48425D02*
Y48740D01*
X70236Y48740D01*
X69843Y48425D02*
Y48740D01*
X69449Y48425D02*
Y48740D01*
X69055Y48425D02*
Y48740D01*
X68661Y48425D02*
Y48740D01*
X68268Y48425D02*
Y48740D01*
X67874Y48425D02*
Y48701D01*
X70630Y50394D02*
Y50630D01*
X72165Y52165D01*
X72677D01*
X73701Y53189D01*
Y56929D02*
X73858Y57087D01*
X73701Y53189D02*
Y56929D01*
X66594Y49705D02*
Y49705D01*
X66299Y50000D02*
X66299D01*
X66594Y49705D01*
X67087Y50000D02*
X67087Y50000D01*
X70630Y50000D02*
X70827Y50197D01*
Y50551D01*
X72205Y51929D01*
X72874D01*
X73780Y52835D01*
X74213D01*
X74488Y53110D01*
Y53976D01*
X74331Y54134D02*
X74488Y53976D01*
X74055Y54134D02*
X74331D01*
X71496Y49685D02*
X71811Y50000D01*
Y50000D01*
Y49606D02*
X72008Y49803D01*
X72894D01*
X73291Y50200D01*
X73978D01*
X65906Y47244D02*
Y47244D01*
X66299Y47244D02*
X66339D01*
X65905Y46850D02*
X65906Y46850D01*
X73465Y45866D02*
X73701Y46102D01*
X71811Y45276D02*
X72008Y45472D01*
X74055D01*
X74370Y45787D01*
Y46122D01*
X65591Y44882D02*
X65945D01*
X66299Y44488D02*
X66575Y44764D01*
X68268Y44488D02*
Y44843D01*
X68465Y42205D02*
X68819Y41850D01*
X68465Y42205D02*
Y44291D01*
X68661Y44488D01*
X69055D02*
X69252Y44291D01*
Y42362D02*
X69291Y42323D01*
X69252Y42362D02*
Y44291D01*
X69646Y42913D02*
X69764Y42795D01*
X69449Y44488D02*
X69646Y44291D01*
Y42913D02*
Y44291D01*
X70039Y43465D02*
X70236Y43268D01*
X69843Y44488D02*
X70039Y44291D01*
Y43465D02*
Y44291D01*
X70433Y44016D02*
X70709Y43740D01*
X70236Y44488D02*
X70433Y44291D01*
Y44016D02*
Y44291D01*
X63937Y43957D02*
X64449D01*
X64587Y44094D01*
X70787Y44724D02*
X71024Y44488D01*
X68661Y44094D02*
X68858Y44291D01*
Y44823D01*
X69055Y42087D02*
Y44094D01*
X69449Y42638D02*
X69528Y42559D01*
X69449Y42638D02*
Y44094D01*
X69843Y43189D02*
X70000Y43032D01*
X69843Y43189D02*
Y44094D01*
X70236Y43740D02*
X70472Y43504D01*
X70236Y43740D02*
Y44094D01*
X74370Y46791D02*
Y47205D01*
X63858Y44705D02*
Y45709D01*
X74075Y57126D02*
Y58032D01*
X73701Y58701D02*
X74075D01*
Y54154D02*
Y54980D01*
X74055Y55669D02*
X74449D01*
X74055Y56457D02*
X74488D01*
X73858Y57087D02*
X74035D01*
X74075Y57126D01*
X74055Y53071D02*
Y53543D01*
Y54134D02*
X74075Y54154D01*
X73740Y46772D02*
Y47244D01*
X63819Y46417D02*
Y47165D01*
X33130Y40984D02*
X33366Y40748D01*
X33563Y40551D02*
X33760Y40354D01*
X34350Y40551D02*
X34547Y40354D01*
Y40748D02*
Y41161D01*
X34744Y40551D02*
X34941Y40354D01*
X34744Y40551D02*
Y41437D01*
X34941Y40748D02*
Y41713D01*
X35138Y40551D02*
X35335Y40354D01*
X35138Y40551D02*
Y41988D01*
X33661Y43465D02*
X35138Y41988D01*
X35728Y40354D02*
X35925Y40551D01*
X34744Y40157D02*
X34941Y39961D01*
X36122Y40354D02*
X36319Y40551D01*
X35138Y40157D02*
X35335Y39961D01*
X35531Y40157D02*
X35728Y39961D01*
X35866Y44882D02*
X36083Y44665D01*
X35827Y44882D02*
X35866D01*
X35925Y40157D02*
X36122Y39961D01*
X33839Y44862D02*
X34272D01*
X34646Y44488D01*
X34154Y39961D02*
X34350Y40157D01*
X35827Y45669D02*
X36220D01*
X33563Y39764D02*
X33760Y39567D01*
X36339Y45374D02*
X36437Y45472D01*
X35630D02*
X37677D01*
X35335Y45669D02*
X35433D01*
X35098Y45433D02*
X35335Y45669D01*
X33169Y39567D02*
X33366D01*
X33051Y39685D02*
X33169Y39567D01*
X34961Y47028D02*
Y47165D01*
X35236Y47441D01*
X35630D01*
X35827Y47638D01*
X35197D02*
X35433D01*
X34350Y39764D02*
X34547Y39567D01*
X34744Y39370D02*
X34941Y39173D01*
X32874Y42362D02*
X32913Y42323D01*
X33957Y40551D02*
X34154Y40354D01*
X33957Y40551D02*
Y40886D01*
X33228Y41280D02*
X33760Y40748D01*
X33071Y42323D02*
X34350Y41043D01*
Y40551D02*
Y41043D01*
X32913Y42323D02*
X33071D01*
X32992Y42087D02*
X34154Y40925D01*
Y40748D02*
Y40925D01*
X32677Y42087D02*
X32992D01*
X33228Y39035D02*
X33366Y39173D01*
X32874Y39035D02*
X33228D01*
X32795Y39370D02*
X33543D01*
X35200Y47858D02*
X35374Y48031D01*
X35433D01*
X35827D02*
X35846D01*
X36063Y47815D01*
X34154Y38780D02*
X34350Y38976D01*
X33760Y38780D02*
X33957Y38976D01*
X33563Y38583D02*
X33760Y38386D01*
X33051D02*
X33366D01*
X34724Y46535D02*
X34764Y46496D01*
X34724Y46535D02*
Y47165D01*
X35197Y47638D01*
X34823Y47618D02*
Y48386D01*
X35256Y48819D01*
X35433D01*
X36181Y48425D02*
X36201Y48406D01*
X35827Y48425D02*
X36181D01*
X35157Y48268D02*
Y48504D01*
X35276Y48622D01*
X35630D01*
X35827Y48819D01*
X35394Y48445D02*
X35413D01*
X33091Y38780D02*
X33366D01*
X36516Y40748D02*
Y41299D01*
X36713Y40551D02*
X36909Y40354D01*
X47756Y45472D02*
X49803D01*
X47165Y45669D02*
X47559Y45276D01*
X47953Y45669D02*
X48327D01*
X36909Y40748D02*
Y41083D01*
X36713Y40551D02*
Y41240D01*
X37303Y40354D02*
X37303D01*
X37106Y40551D02*
X37303Y40354D01*
X37303Y40748D02*
Y40906D01*
X37461Y41063D01*
X37697Y40748D02*
Y41220D01*
X37480Y40551D02*
X37677Y40354D01*
X37697D01*
X38091Y40748D02*
Y40748D01*
X37894Y40551D02*
X38091Y40748D01*
X38091Y40354D02*
X38287Y40551D01*
X38091Y40354D02*
X38091D01*
X38484D02*
X38681Y40551D01*
X47953Y47638D02*
X48366D01*
X47953Y48031D02*
X48268D01*
X48346Y45276D02*
X48346Y45276D01*
X47953Y45276D02*
X48346D01*
X48366Y44882D02*
X48366Y44882D01*
X47953Y44882D02*
X48366D01*
X47953Y44488D02*
X48287D01*
X48287D02*
X48386D01*
X47953Y44094D02*
X48346D01*
X47953Y48425D02*
X48307D01*
X47953Y48819D02*
X48307D01*
X47244D02*
X47559D01*
X47224Y48425D02*
X47559D01*
X37697Y41220D02*
X37736Y41260D01*
X47146Y45295D02*
X47559Y44882D01*
X47185Y44862D02*
X47559Y44488D01*
X47165Y48031D02*
X47559D01*
X47165Y47638D02*
X47559D01*
X36909Y39961D02*
X36909D01*
X36713Y40157D02*
X36909Y39961D01*
X36319Y40157D02*
X36516Y40354D01*
X35728Y39567D02*
X35925Y39764D01*
X36122Y39567D02*
X36319Y39764D01*
X37303Y39961D02*
X37500Y40157D01*
X59311Y45276D02*
X59685D01*
X59094Y45059D02*
X59311Y45276D01*
X59094Y43819D02*
Y45059D01*
X59882Y44291D02*
X60079Y44488D01*
X59567Y44291D02*
X59882D01*
X59488Y44213D02*
X59567Y44291D01*
X59488Y43740D02*
Y44213D01*
X60079Y44882D02*
X60315D01*
X60374Y44823D01*
Y43898D02*
Y44823D01*
X60079Y45276D02*
X60295D01*
X60591Y44980D01*
Y43720D02*
Y44980D01*
X71437Y45276D02*
X71811D01*
X71220Y45059D02*
X71437Y45276D01*
X71220Y43209D02*
Y45059D01*
X65827Y37815D02*
X71220Y43209D01*
X72205Y43445D02*
Y44094D01*
X66122Y37362D02*
X72205Y43445D01*
Y44882D02*
X72520Y44567D01*
Y43406D02*
Y44567D01*
X66142Y37028D02*
X72520Y43406D01*
X72205Y45276D02*
X72795Y44685D01*
Y43287D02*
Y44685D01*
X66161Y36654D02*
X72795Y43287D01*
X72008Y43661D02*
Y44291D01*
X65925Y37579D02*
X72008Y43661D01*
X72008Y44291D02*
X72205Y44488D01*
X38878Y35630D02*
X39075Y35433D01*
X38878Y36024D02*
X39075Y35827D01*
X39272Y36024D02*
X40138D01*
X41929Y37815D02*
X65827D01*
X39075Y36220D02*
X39862D01*
X38878Y36417D02*
X39075Y36220D01*
X39862D02*
X41654Y38012D01*
X38878Y38386D02*
X39075Y38583D01*
X38878Y38780D02*
X39075Y38976D01*
X38878Y39173D02*
X39075Y39370D01*
X39272Y38386D02*
X55256D01*
X60591Y43720D01*
X39075Y38583D02*
X55059D01*
X60374Y43898D01*
X55138Y38976D02*
X60118Y43957D01*
Y44055D01*
X60079Y44094D02*
X60118Y44055D01*
X39075Y38976D02*
X55138D01*
X39272Y39173D02*
X54921D01*
X59488Y43740D01*
X54646Y39370D02*
X55295Y40020D01*
X55295D02*
X59094Y43819D01*
X39075Y39370D02*
X54646D01*
X38878Y39567D02*
X39075Y39764D01*
X60079Y47638D02*
X60413D01*
X60669Y47382D01*
X60079Y48031D02*
X60472D01*
X60079Y48425D02*
X60472D01*
X60079Y48819D02*
X60472D01*
X59409D02*
X59685D01*
X59390Y48425D02*
X59685D01*
X59370Y48031D02*
X59685D01*
X59370Y47638D02*
X59685D01*
X36516Y39567D02*
X36713Y39764D01*
X39370Y40846D02*
X39488D01*
X38878Y40354D02*
X39075Y40551D01*
X37697Y39961D02*
X37894Y40157D01*
X37303Y39567D02*
X37500Y39764D01*
X36909Y39567D02*
X37106Y39764D01*
X37500Y38976D02*
X37697Y39173D01*
X37106Y38583D02*
X37303Y38780D01*
X36909Y39173D02*
Y39193D01*
X38268Y39370D02*
X38287D01*
X38484Y39567D01*
X37697Y38780D02*
X37894Y38976D01*
X38091Y38780D02*
X38287Y38976D01*
X37697Y38386D02*
X37894Y38583D01*
X38091Y38386D02*
X38287Y38583D01*
X38091Y37992D02*
X38287Y38189D01*
X38091Y37992D02*
Y37992D01*
X72205Y47638D02*
X72500Y47343D01*
X72205Y48425D02*
X72421Y48209D01*
X72205Y48819D02*
X72382Y48642D01*
X71535Y48150D02*
X71811Y48425D01*
X71496Y46476D02*
Y47323D01*
X71811Y47638D01*
X71201Y45453D02*
Y47441D01*
X71594Y48819D02*
X71811D01*
X71102Y48327D02*
X71594Y48819D01*
X38484Y37992D02*
X38681Y38189D01*
X40256D02*
X40433Y38012D01*
X39075Y38189D02*
X40256D01*
X38878Y37992D02*
X39075Y38189D01*
X38681Y37795D02*
X38878Y37598D01*
X39272Y36811D02*
X39469Y37008D01*
X39705D01*
X38091Y37598D02*
X38287Y37402D01*
X37697Y37205D02*
Y37205D01*
X37894Y37402D01*
X37303Y38386D02*
X37500Y38583D01*
X37303Y37992D02*
X37500Y38189D01*
X37303Y37598D02*
X37500Y37795D01*
X36909Y37205D02*
X37106Y37008D01*
X37303Y36811D02*
X37500Y36614D01*
X37697Y36417D02*
X37894Y36220D01*
X38091Y36024D02*
X38287Y35827D01*
X39272Y34843D02*
X39469Y34646D01*
X37894Y37008D02*
Y37008D01*
X37697Y36811D02*
X37894Y37008D01*
Y36614D02*
X38091Y36811D01*
X38091D01*
X38287Y36220D02*
X38484Y36417D01*
X38484D01*
X71614Y44291D02*
X71811Y44488D01*
X71614Y43819D02*
Y44291D01*
X71476Y45709D02*
X71634Y45866D01*
X39272Y37598D02*
X39311Y37638D01*
X39665D01*
X39252Y37992D02*
X39744D01*
X71201Y47441D02*
X71811Y48051D01*
X71811Y45669D02*
X72008Y45866D01*
X71634D02*
X73465D01*
X72205Y45669D02*
X73071Y45669D01*
X38287Y37008D02*
Y37008D01*
X38091Y37205D02*
X38287Y37008D01*
X71614Y45079D02*
X71811Y44882D01*
X39075Y37008D02*
Y37008D01*
X38878Y36811D02*
X39075Y37008D01*
X33878Y34567D02*
X34154Y34843D01*
X33228Y34567D02*
X33878D01*
X31102Y36693D02*
X33228Y34567D01*
X34075Y34370D02*
X34547Y34843D01*
X33130Y34370D02*
X34075D01*
X30827Y36673D02*
X33130Y34370D01*
X33018Y34206D02*
X34265D01*
X30610Y36614D02*
X33018Y34206D01*
X34265D02*
X34744Y34685D01*
Y35039D01*
X32894Y33996D02*
X34409D01*
X34941Y34528D01*
Y34843D01*
X30405Y36485D02*
X32894Y33996D01*
X32776Y33780D02*
X34508D01*
X35138Y34409D01*
X30089Y36467D02*
X32776Y33780D01*
X32657Y33563D02*
X34626D01*
X35531Y34469D01*
X30010Y36211D02*
X32657Y33563D01*
X35335Y34587D02*
Y34843D01*
X32264Y33661D02*
X32579Y33346D01*
X34665D01*
X29970Y35955D02*
X32264Y33661D01*
X34665Y33346D02*
X35728Y34409D01*
Y34843D01*
X29990Y35699D02*
X32520Y33169D01*
X34764D01*
X35925Y34331D01*
Y35039D01*
X29488Y35699D02*
X29990D01*
X36122Y34232D02*
Y34843D01*
X32402Y32992D02*
X34882D01*
X29951Y35443D02*
X32402Y32992D01*
X34882D02*
X36122Y34232D01*
X29488Y35443D02*
X29951D01*
X38091Y39961D02*
X38287Y39764D01*
X38484Y39961D02*
X38681Y39764D01*
X37894Y40157D02*
X38287D01*
X39272Y40354D02*
X39488Y40571D01*
X50472D01*
X51181Y41280D01*
X39272Y39961D02*
X39587Y40276D01*
X50669D01*
X51378Y40984D01*
X39075Y40157D02*
X39075D01*
X38878Y39961D02*
X39075Y40157D01*
X59547Y45669D02*
X59685D01*
X59390Y45512D02*
X59547Y45669D01*
X35433Y44882D02*
X35630Y44685D01*
X33740Y39961D02*
X33957Y40177D01*
X35335Y40748D02*
Y41024D01*
X35531Y40945D02*
X35728Y40748D01*
X35394Y42204D02*
X35531Y42067D01*
Y40945D02*
Y42067D01*
X33858Y43740D02*
X35394Y42204D01*
X35728Y41142D02*
Y42343D01*
Y41142D02*
X35925Y40945D01*
Y40551D02*
Y40945D01*
X34055Y44016D02*
X35728Y42343D01*
X35630Y42815D02*
X35925Y42520D01*
X35630Y42815D02*
Y44685D01*
X35925Y41457D02*
Y42520D01*
X35138Y39764D02*
X35138D01*
X34941Y39567D02*
X35138Y39764D01*
X35827Y43110D02*
Y44094D01*
X36122Y40748D02*
Y42815D01*
X35827Y43110D02*
X36122Y42815D01*
X35827Y44488D02*
X36083Y44232D01*
X36319Y40551D02*
Y43012D01*
X36083Y43248D02*
Y44232D01*
Y43248D02*
X36319Y43012D01*
X37106Y39370D02*
X37303Y39173D01*
X46890Y44921D02*
X46968Y44843D01*
X46890Y44921D02*
Y45827D01*
X47047Y45984D01*
X47244D01*
X47559Y45669D01*
X46968Y40984D02*
Y44843D01*
X52461Y34685D02*
X52697D01*
X59488Y45079D02*
X59685Y44882D01*
X38878Y37205D02*
X39075Y37402D01*
X39744Y36417D02*
X41535Y38209D01*
X39272Y36417D02*
X39744D01*
X39075Y37402D02*
X39665D01*
X72205Y48051D02*
X72500Y47756D01*
X39665Y37382D02*
Y37402D01*
Y37382D02*
X40039Y37008D01*
X60059Y45669D02*
X60925D01*
X40760Y33957D02*
X41862Y32854D01*
X76181Y48780D02*
X76752Y48209D01*
X36909Y36024D02*
X37106Y35827D01*
X36713Y35433D02*
X36909Y35630D01*
X37500Y35433D02*
X37894D01*
X38091Y35630D01*
X74252Y39429D02*
X74961D01*
X71510Y39423D02*
X72175D01*
X37677Y35630D02*
X37697D01*
X44047Y35039D02*
X44508D01*
X43819Y34811D02*
X44047Y35039D01*
X42933Y32854D02*
X43819Y33740D01*
Y34811D01*
X41862Y32854D02*
X42933D01*
X39075Y35827D02*
X40315D01*
X42067Y37579D02*
X65925D01*
X40492Y35630D02*
X42224Y37362D01*
X39272Y35630D02*
X40492D01*
X42224Y37362D02*
X66122D01*
X39075Y35433D02*
X40689D01*
X42283Y37028D01*
X66142D01*
X40886Y35236D02*
X42303Y36654D01*
X39272Y35236D02*
X40886D01*
X42303Y36654D02*
X66161D01*
X38484Y35236D02*
X38681Y35039D01*
X40492Y34429D02*
X40610Y34547D01*
X42421Y34528D02*
X42461D01*
X42165Y34232D02*
X42461Y34528D01*
X43150Y34547D02*
Y34921D01*
X47480Y34921D02*
X47480Y34921D01*
X47480Y34921D02*
Y35807D01*
X47165Y34665D02*
Y35807D01*
X41634Y34547D02*
X41693Y34488D01*
X41280Y34547D02*
X41634D01*
X47795Y34705D02*
Y35807D01*
X47224Y34134D02*
X47795Y34705D01*
X46260Y34134D02*
X47224D01*
X44862Y35531D02*
X46260Y34134D01*
X43150Y35531D02*
X44862D01*
X32559Y41280D02*
X33228D01*
X32264Y41516D02*
X33327D01*
X33957Y40886D01*
X39862Y32854D02*
X40354D01*
X38878Y40748D02*
X39449Y41319D01*
X46142D01*
X46713Y40748D01*
X49567D01*
X49744Y40925D01*
X37106Y36220D02*
X37303Y36417D01*
X37303Y33740D02*
X40138D01*
X41024Y32854D01*
Y32598D02*
Y32854D01*
Y32598D02*
X41339Y32283D01*
X42874D01*
X36516Y36024D02*
X36713Y35827D01*
X36909Y33504D02*
X40079D01*
X40768Y32815D01*
Y32520D02*
Y32815D01*
Y32520D02*
X41319Y31969D01*
X42972D01*
X43780Y32776D01*
X42874Y32283D02*
X43760Y33169D01*
X46535Y35118D02*
Y35807D01*
X46535Y35807D01*
X46201Y34685D02*
X46654D01*
X46850Y34882D01*
Y35807D01*
X50295Y34685D02*
Y35315D01*
X22972Y47250D02*
X23608D01*
X23720Y47362D01*
Y47776D01*
X22972Y51250D02*
X23750D01*
X24134Y50866D01*
X22972Y50250D02*
X23911D01*
X22972Y50750D02*
X24073D01*
X43996Y32539D02*
Y32717D01*
X44114Y32835D01*
X44508D01*
X54715Y34695D02*
X54724Y34685D01*
X72205Y50000D02*
X72697D01*
X73917Y51220D01*
Y51240D01*
X71417Y50000D02*
X71614Y50197D01*
X72303D01*
X73740Y51634D01*
X74488D01*
X75098Y52244D01*
X73583Y51772D02*
X74350D01*
X74902Y52323D01*
X62224Y51772D02*
X62776Y52323D01*
X61457Y51772D02*
X62224D01*
X60079Y50394D02*
X61457Y51772D01*
X62362Y51634D02*
X62972Y52244D01*
X61614Y51634D02*
X62362D01*
X60177Y50197D02*
X61614Y51634D01*
X59488Y50197D02*
X60177D01*
X59291Y50000D02*
X59488Y50197D01*
X50098Y51772D02*
X50650Y52323D01*
X49331Y51772D02*
X50098D01*
X47953Y50394D02*
X49331Y51772D01*
X50236Y51634D02*
X50846Y52244D01*
X49488Y51634D02*
X50236D01*
X48051Y50197D02*
X49488Y51634D01*
X47362Y50197D02*
X48051D01*
X47165Y50000D02*
X47362Y50197D01*
X37972Y51772D02*
X38524Y52323D01*
X37205Y51772D02*
X37972D01*
X35827Y50394D02*
X37205Y51772D01*
X38110Y51634D02*
X38720Y52244D01*
X37362Y51634D02*
X38110D01*
X35925Y50197D02*
X37362Y51634D01*
X35236Y50197D02*
X35925D01*
X35039Y50000D02*
X35236Y50197D01*
X74843Y59331D02*
X75098Y59075D01*
Y52244D02*
Y59075D01*
X38720Y52244D02*
Y58937D01*
X50846Y52244D02*
Y58957D01*
X62972Y52244D02*
Y58996D01*
X25787Y52957D02*
X26295Y53465D01*
X24606Y49035D02*
X24980Y48661D01*
X25551D01*
X25886Y48327D01*
Y47726D02*
Y48327D01*
X26299Y44596D02*
Y46339D01*
X26398Y50305D02*
Y51457D01*
X27461Y52520D01*
Y57835D01*
X28957Y59331D01*
X38327D02*
X38720Y58937D01*
X50472Y59331D02*
X50846Y58957D01*
X62638Y59331D02*
X62972Y58996D01*
X28957Y59331D02*
X74843D01*
X26142Y50305D02*
Y51594D01*
X27205Y52657D01*
Y58032D01*
X28248Y59075D01*
X62421D02*
X62776Y58720D01*
Y52323D02*
Y58720D01*
X50295Y59075D02*
X50650Y58720D01*
Y52323D02*
Y58720D01*
X38110Y59075D02*
X38524Y58661D01*
Y52323D02*
Y58661D01*
X26654Y50305D02*
Y51161D01*
X25630Y50305D02*
Y51339D01*
X24606Y51083D02*
X25787Y52264D01*
X24606Y49035D02*
Y51083D01*
X25787Y52264D02*
Y52957D01*
X25610Y51752D02*
X25886Y51476D01*
Y50305D02*
Y51476D01*
X35433Y50394D02*
X36240Y51201D01*
X47559Y50394D02*
X48366Y51201D01*
X59685Y50394D02*
X60492Y51201D01*
X71811Y50394D02*
X72618Y51201D01*
X74902Y52323D02*
Y58524D01*
X74350Y59075D02*
X74902Y58524D01*
X25531Y49488D02*
X26811D01*
X25374Y49646D02*
X25531Y49488D01*
X25374Y49646D02*
Y50305D01*
X24852D02*
X25118D01*
X26634Y47697D02*
X26890D01*
X71417Y50394D02*
Y50591D01*
X72480Y51654D01*
X59094Y50532D02*
X59724Y51161D01*
X59094Y50197D02*
Y50532D01*
X58898Y50000D02*
X59094Y50197D01*
X46772Y50000D02*
X46968Y50197D01*
Y50532D01*
X59291Y50394D02*
X60551Y51654D01*
X48051Y51614D02*
X48681D01*
X49094Y52028D01*
X46968Y50532D02*
X48051Y51614D01*
X47165Y50394D02*
X47776Y51004D01*
X34646Y49665D02*
X35098Y49213D01*
X34646Y49665D02*
Y50000D01*
X26398Y47717D02*
Y48858D01*
X25118Y47067D02*
Y47726D01*
X25531Y44596D02*
Y45630D01*
X34646Y50394D02*
X34941Y50689D01*
X25276Y43917D02*
X25374Y43819D01*
X25276Y43917D02*
Y44596D01*
X26555Y43445D02*
Y44596D01*
X33543Y39370D02*
X33760Y39154D01*
X71024Y49370D02*
X71378Y49016D01*
X71024Y49370D02*
Y50000D01*
Y50394D02*
X71220Y50591D01*
X35039Y50394D02*
X35315Y50669D01*
X34508Y48661D02*
X34764Y48917D01*
X34508Y45807D02*
Y48661D01*
X34114Y45413D02*
X34508Y45807D01*
X30866Y46535D02*
X30945Y46457D01*
X30551Y46535D02*
X30866D01*
X30276Y46260D02*
X30551Y46535D01*
X29232Y46260D02*
X30276D01*
X27402Y48091D02*
X29232Y46260D01*
X24980Y48406D02*
X25453D01*
X25630Y48228D01*
Y47726D02*
Y48228D01*
X60631Y53131D02*
Y53415D01*
X58307Y50807D02*
X60631Y53131D01*
X60669Y53415D02*
Y53543D01*
X58307Y50197D02*
Y50807D01*
X58504Y50748D02*
X60138Y52382D01*
X60768D02*
X61575Y53189D01*
X60138Y52382D02*
X60768D01*
X58504Y50394D02*
Y50748D01*
X58701Y50669D02*
X60149Y52118D01*
X60937D01*
X61654Y52835D01*
X58701Y50197D02*
Y50669D01*
X61929Y54134D02*
X62205D01*
X58898Y50394D02*
Y50630D01*
X60098Y56004D02*
X60631Y56537D01*
Y57785D01*
X60177Y51909D02*
X61004D01*
X61799Y52705D01*
X62232D01*
X62618Y53091D01*
Y57992D01*
X62323Y58287D02*
X62618Y57992D01*
X25374Y47283D02*
X25709Y46949D01*
X25374Y47283D02*
Y47726D01*
X60079Y51811D02*
X60276D01*
X58898Y50630D02*
X60177Y51909D01*
X46181Y50748D02*
X48506Y53072D01*
Y53415D01*
X48543D02*
Y53543D01*
X46181Y50197D02*
Y50748D01*
X46378Y50669D02*
X48239Y52531D01*
X48791D01*
X49449Y53189D01*
X46378Y50394D02*
Y50669D01*
X46575Y50610D02*
X48195Y52231D01*
X48924D01*
X49528Y52835D01*
X46575Y50197D02*
Y50610D01*
X49803Y54134D02*
X50079D01*
X46772Y50394D02*
Y50591D01*
X48071Y51890D01*
X48307D01*
X43586Y45374D02*
X43760D01*
X43291Y45669D02*
X43586Y45374D01*
X43209Y45669D02*
X43291D01*
X43071Y45807D02*
X43209Y45669D01*
X43071Y45807D02*
Y46457D01*
X42933Y46594D02*
X43071Y46457D01*
X42736Y46594D02*
X42933D01*
X42402Y46260D02*
X42736Y46594D01*
X41063Y46260D02*
X42402D01*
X40315Y45512D02*
X41063Y46260D01*
X40315Y44626D02*
Y45512D01*
X39980Y44291D02*
X40315Y44626D01*
X37087Y44291D02*
X39980D01*
X36516Y44862D02*
X37087Y44291D01*
X36142Y45276D02*
X36339Y45079D01*
X35827Y45276D02*
X36142D01*
X36220Y44862D02*
X36516D01*
X36004Y45079D02*
X36220Y44862D01*
X35098Y45276D02*
Y45433D01*
X30945Y46004D02*
X31535Y45413D01*
X34114D01*
X30945Y46004D02*
Y46457D01*
X31378Y44843D02*
X31614Y45079D01*
X26142Y47047D02*
Y47726D01*
X31614Y45079D02*
X36004D01*
X25531Y45630D02*
X26043Y46142D01*
Y46654D02*
X26398Y47008D01*
X25118Y47067D02*
X26043Y46142D01*
Y44596D02*
Y46654D01*
X26398Y47008D02*
Y47726D01*
X25787Y45433D02*
X25787Y45433D01*
X25787Y44596D02*
Y45433D01*
X26555Y42018D02*
Y42717D01*
X25020Y43976D02*
Y44626D01*
X67833Y42715D02*
Y44053D01*
X67833D02*
X67874Y44094D01*
X41654Y38012D02*
X63130D01*
X67087Y42717D02*
Y44094D01*
X62579Y38209D02*
X67087Y42717D01*
X41535Y38209D02*
X62579D01*
X51890Y39764D02*
X54961Y42835D01*
Y44075D01*
X54951Y44085D02*
X54961Y44094D01*
X39075Y39764D02*
X51890D01*
X36713Y41240D02*
X37165Y41693D01*
X43622Y42835D02*
Y44094D01*
X41890Y41890D02*
X42795Y42795D01*
X36850Y41654D02*
X37087Y41890D01*
X36516Y41299D02*
X36860Y41644D01*
X37087Y41890D02*
X41890D01*
X42795Y42795D02*
Y44134D01*
X51831Y42618D02*
X52087D01*
X50610Y41398D02*
X51831Y42618D01*
X64291Y41594D02*
Y42638D01*
X38268Y44016D02*
X39587Y42697D01*
X40000D01*
X27854Y42047D02*
Y42598D01*
X35000Y32579D02*
Y32795D01*
X34744Y32323D02*
X35000Y32579D01*
X34744Y31654D02*
Y31713D01*
X33595Y32862D02*
X34744Y31713D01*
X28839Y34626D02*
X30472D01*
X28563Y41634D02*
X28622Y41693D01*
Y42559D01*
X30472Y34626D02*
X32236Y32862D01*
X33595D01*
X38091Y34843D02*
Y34843D01*
Y34843D02*
X38583Y34350D01*
X37598Y32323D02*
X38543Y33268D01*
X35531Y32323D02*
Y32736D01*
X36594Y32047D02*
X36732D01*
X36319Y32323D02*
X36594Y32047D01*
X37677Y34843D02*
X38327Y34193D01*
X38192Y31302D02*
X38780Y31890D01*
X40591D01*
X40709Y31772D01*
X43228D01*
X23911Y50250D02*
X24134Y50472D01*
X24073Y50750D02*
X24134Y50689D01*
X37143Y31302D02*
X38192D01*
X36831Y31614D02*
X37143Y31302D01*
X24134Y42461D02*
Y50866D01*
X43228Y31772D02*
X43996Y32539D01*
X35531Y31654D02*
X36540Y30645D01*
X60310D01*
X61398Y31732D01*
Y34272D01*
X62795Y35669D01*
X65020Y41398D02*
Y42618D01*
X52323Y41516D02*
X52815Y42008D01*
X36949Y31024D02*
X37598D01*
X36319Y31654D02*
X36949Y31024D01*
X52815Y42008D02*
Y42638D01*
X54075Y35728D02*
X55433D01*
X50256D02*
X53406D01*
X49862Y35335D02*
X50256Y35728D01*
X48740Y35335D02*
X49862D01*
X47343Y33937D02*
X48740Y35335D01*
X46240Y33937D02*
X47343D01*
X44882Y35295D02*
X46240Y33937D01*
X43839Y35295D02*
X44882D01*
X43701Y35157D02*
X43839Y35295D01*
X42106Y35157D02*
X43701D01*
X41949Y35000D02*
X42106Y35157D01*
X40236Y35000D02*
X41949D01*
X39980Y34744D02*
X40236Y35000D01*
X36516Y35217D02*
X36693Y35039D01*
X37008D01*
X37106Y34941D01*
X36506Y35226D02*
X36516Y35236D01*
X36299Y33858D02*
X36378Y33780D01*
X36299Y33858D02*
Y34626D01*
X36516Y34843D01*
X36122Y35236D02*
X36319Y35039D01*
X41594Y35531D02*
X42480D01*
X76102Y56102D02*
Y56654D01*
X36309Y37805D02*
X36516Y37598D01*
X35138Y38976D02*
X35335Y38780D01*
X34744Y38189D02*
X34941Y37992D01*
X35138Y38583D02*
X35335Y38386D01*
X35138Y38189D02*
X35335Y37992D01*
X35138Y37795D02*
X35335Y37598D01*
X35157Y37008D02*
X35354Y37205D01*
X35728Y36811D02*
X35925Y36614D01*
X35925Y37008D02*
X36122Y36811D01*
X36319Y37008D02*
X36516Y36811D01*
X36713Y37008D02*
X36909Y36811D01*
X36319Y36614D02*
X36516Y36417D01*
X36713Y38583D02*
X36909Y38780D01*
X36319Y38583D02*
X36516Y38780D01*
X35925Y38583D02*
X36122Y38780D01*
X35728D02*
X35925Y38976D01*
X35925Y39370D02*
X36122Y39173D01*
X36299Y39370D02*
X36516Y39154D01*
X37500Y37795D02*
X37697Y37992D01*
X37500Y37795D02*
X37697Y37598D01*
X37106Y37402D02*
X37303Y37205D01*
X39272Y38780D02*
X39823Y38780D01*
X34764Y37402D02*
X34961Y37598D01*
X32756Y40965D02*
X33366Y40354D01*
X32480Y40965D02*
X32756D01*
X31811Y41634D02*
X32480Y40965D01*
X31496Y44094D02*
X31811Y43780D01*
X32598Y40728D02*
X33366Y39961D01*
X32362Y40728D02*
X32598D01*
X31496Y41594D02*
X32362Y40728D01*
X31496Y41594D02*
Y43307D01*
X30709Y44094D02*
X31496Y43307D01*
X57402Y35630D02*
X57776Y35256D01*
X56280Y35630D02*
X57402D01*
X40728Y42618D02*
Y44370D01*
X37165Y31634D02*
X37185Y31654D01*
X37598D01*
X36909Y34705D02*
Y34843D01*
X36516Y34311D02*
X36909Y34705D01*
X38681Y35433D02*
X38878Y35236D01*
X39075Y35039D02*
X39390D01*
X38878Y34843D02*
X39075Y35039D01*
X39390D02*
X40000Y34429D01*
X40492D01*
X38780Y34626D02*
X39173D01*
X38681Y34724D02*
X38780Y34626D01*
X39173D02*
X39567Y34232D01*
X42165D01*
X38681Y34724D02*
Y35039D01*
X38484Y34724D02*
Y34843D01*
Y34724D02*
X38715Y34493D01*
X38775D01*
X38937Y34331D01*
X37303Y34232D02*
Y34843D01*
X37047Y34114D02*
X37205Y33957D01*
X37047Y34114D02*
Y34606D01*
X37106Y34665D01*
Y34941D01*
X37205Y33957D02*
X40760D01*
X37697Y39173D02*
X37697D01*
X38091Y39567D01*
X72175Y39923D02*
X72774D01*
X35531Y35433D02*
X35925D01*
X40315Y35827D02*
X42067Y37579D01*
X44193Y33150D02*
X44508D01*
X43917Y33425D02*
X44193Y33150D01*
X41417Y31201D02*
X41862D01*
X41280Y31339D02*
X41417Y31201D01*
X40138Y36024D02*
X41929Y37815D01*
X36122Y36417D02*
Y36417D01*
X36319Y36614D01*
X39272Y40748D02*
X39390D01*
X39488Y40846D01*
D37*
X35138Y34409D02*
Y35039D01*
X34941Y35236D02*
X35138Y35039D01*
X35531Y34469D02*
Y35039D01*
X35335Y35236D02*
X35531Y35039D01*
D38*
X22992Y49744D02*
X23740D01*
X22972Y48750D02*
X23711D01*
X22972Y48250D02*
X23719D01*
X22992Y45748D02*
X23740D01*
X22992Y46240D02*
X23701D01*
X22992Y46772D02*
X23701D01*
X22992Y45236D02*
X23583D01*
X22953Y44744D02*
X23622D01*
X22972Y44232D02*
X23583D01*
X22972Y41750D02*
X23624D01*
X22972Y40250D02*
X23589D01*
X22933Y38740D02*
X23563D01*
X29154Y31752D02*
X30138D01*
X30163Y32442D02*
X31219D01*
X78311Y39311D02*
X78500Y39500D01*
X76083Y39311D02*
X78311D01*
X78244Y37244D02*
X78500Y37500D01*
X76083Y37244D02*
X78244D01*
X76083Y41201D02*
X77201D01*
X78500Y42500D01*
X76079Y43500D02*
X76083Y43496D01*
X76079Y43500D02*
X78500D01*
X76098Y53500D02*
X78500D01*
X76083Y53484D02*
X76098Y53500D01*
X77736Y52500D02*
X78500D01*
X76575Y51339D02*
X77736Y52500D01*
X76083Y51339D02*
X76575D01*
X76193Y49500D02*
X78500D01*
X76201Y47500D02*
X78500D01*
X76181Y46398D02*
Y46811D01*
X76043Y52008D02*
Y52815D01*
X76083Y42343D02*
Y42776D01*
X76122Y41831D02*
Y42303D01*
X76083Y36181D02*
Y36575D01*
X74282Y38423D02*
X74978D01*
X75354Y38799D01*
Y40472D01*
X76083Y41201D01*
X72175Y38923D02*
X72939D01*
X73445Y39429D01*
Y40925D01*
X75394Y42874D01*
Y50650D01*
X76083Y51339D01*
X74282Y39923D02*
Y40285D01*
X30163Y33112D02*
X31415D01*
X29193Y33130D02*
X30177D01*
X31415Y33112D02*
X32146Y32382D01*
X31929Y31102D02*
X32126Y31299D01*
X30163Y31102D02*
X31929D01*
X33228Y32382D02*
X33740D01*
X33209Y31299D02*
X33760D01*
X25256Y32362D02*
X27047D01*
X74272Y38917D02*
X74862D01*
X70669Y39665D02*
X70925Y39921D01*
X70650Y38465D02*
X71417D01*
X71459Y38423D02*
X72872D01*
X44508Y34094D02*
X45098D01*
X22972Y47776D02*
X23720D01*
X59404Y34252D02*
Y34750D01*
X58878Y35256D02*
X59488D01*
X59409Y34756D02*
Y34764D01*
X57815Y34665D02*
Y35217D01*
X57461Y33012D02*
Y33524D01*
X57480Y31929D02*
X58169D01*
X58445Y32205D02*
X59094D01*
X57579Y33051D02*
X57697Y32933D01*
X59468D01*
X58367Y33582D02*
X59404D01*
X62904Y33002D02*
X64254D01*
X62520Y33386D02*
X62904Y33002D01*
X29094Y33760D02*
X30177D01*
X59331Y31555D02*
X60433D01*
X58169Y31929D02*
X58445Y32205D01*
X59404Y32242D02*
X60396D01*
X70925Y39921D02*
X72165D01*
D39*
X28868Y37490D02*
X29488D01*
Y36722D02*
X30089D01*
X30118Y36752D01*
X29360Y37234D02*
X30049D01*
X36700Y57750D02*
X37000D01*
X36915Y53415D02*
X37000Y53500D01*
X36694Y53415D02*
X36915D01*
X28500Y57300D02*
Y57800D01*
X28506Y53415D02*
Y53944D01*
X32600Y53415D02*
Y53950D01*
X33230Y53415D02*
X33250Y53435D01*
Y53950D01*
X35120Y53870D02*
X35250Y54000D01*
X35120Y53415D02*
Y53870D01*
X36065Y53415D02*
Y53835D01*
X35900Y54000D02*
X36065Y53835D01*
X32500Y58300D02*
X32600Y58200D01*
Y57785D02*
Y58200D01*
X33200Y58300D02*
X33230Y58270D01*
Y57785D02*
Y58270D01*
X35120Y57785D02*
Y58320D01*
X36065Y57785D02*
Y58285D01*
X36000Y58350D02*
X36065Y58285D01*
X48826Y57750D02*
X49126D01*
X48191Y57785D02*
Y58285D01*
X48126Y58350D02*
X48191Y58285D01*
X47246Y57785D02*
Y58320D01*
X45356Y57785D02*
Y58270D01*
X45326Y58300D02*
X45356Y58270D01*
X44726Y57785D02*
Y58200D01*
X44626Y58300D02*
X44726Y58200D01*
X40626Y57300D02*
Y57800D01*
X48820Y53415D02*
X49041D01*
X49126Y53500D01*
X48191Y53415D02*
Y53835D01*
X48026Y54000D02*
X48191Y53835D01*
X47246Y53415D02*
Y53870D01*
X47376Y54000D01*
X45356Y53415D02*
X45376Y53435D01*
Y53950D01*
X44726Y53415D02*
Y53950D01*
X40631Y53415D02*
Y53944D01*
X60952Y57750D02*
X61252D01*
X60317Y57785D02*
Y58285D01*
X60252Y58350D02*
X60317Y58285D01*
X59372Y57785D02*
Y58320D01*
X57482Y57785D02*
Y58270D01*
X57452Y58300D02*
X57482Y58270D01*
X56852Y57785D02*
Y58200D01*
X56752Y58300D02*
X56852Y58200D01*
X52752Y57300D02*
Y57800D01*
X60946Y53415D02*
X61167D01*
X61252Y53500D01*
X60317Y53415D02*
Y53835D01*
X60152Y54000D02*
X60317Y53835D01*
X59372Y53415D02*
Y53870D01*
X59502Y54000D01*
X57482Y53415D02*
X57502Y53435D01*
Y53950D01*
X56852Y53415D02*
Y53950D01*
X52757Y53415D02*
Y53944D01*
X73078Y57750D02*
X73378D01*
X72443Y57785D02*
Y58285D01*
X72378Y58350D02*
X72443Y58285D01*
X71498Y57785D02*
Y58320D01*
X69608Y57785D02*
Y58270D01*
X69578Y58300D02*
X69608Y58270D01*
X68978Y57785D02*
Y58200D01*
X68878Y58300D02*
X68978Y58200D01*
X64878Y57300D02*
Y57800D01*
X73072Y53415D02*
X73293D01*
X73378Y53500D01*
X72443Y53415D02*
Y53835D01*
X72278Y54000D02*
X72443Y53835D01*
X71498Y53415D02*
Y53870D01*
X71628Y54000D01*
X69608Y53415D02*
X69628Y53435D01*
Y53950D01*
X68978Y53415D02*
Y53950D01*
X64883Y53415D02*
Y53944D01*
X67520Y35551D02*
X69449Y37480D01*
Y37618D01*
X69449Y38681D02*
X70532D01*
X69291Y38839D02*
X69449Y38681D01*
D40*
X54331Y32382D02*
X55807Y33858D01*
Y34016D01*
X52756Y32382D02*
X53543Y33169D01*
Y34016D01*
X53622Y34016D02*
X54724D01*
X52461Y33602D02*
Y34016D01*
X51378D02*
X51968Y33425D01*
Y33110D02*
X52461Y33602D01*
X51968Y32382D02*
Y33425D01*
X50295Y32756D02*
Y34016D01*
X49744Y32205D02*
X50295Y32756D01*
X49193Y32205D02*
X49744D01*
X52717Y33110D02*
X52953Y33346D01*
Y34094D01*
X53543Y34685D01*
X44449Y31909D02*
X45433D01*
X44508Y32205D02*
X45276D01*
X50728Y33327D02*
X50807Y33406D01*
Y34154D01*
X51319Y34665D01*
X44508Y32520D02*
X45138D01*
X55098Y33543D02*
X55374Y33819D01*
Y34429D01*
X55630Y34685D01*
X55866D01*
X46220Y31122D02*
Y31772D01*
X46850Y31122D02*
Y31752D01*
X48543Y32520D02*
X49193D01*
Y32835D02*
X49764D01*
X48110Y35177D02*
Y35807D01*
X74980Y37598D02*
X76043Y38661D01*
X76142Y48760D02*
X76201D01*
D41*
X54094Y35256D02*
X54685Y34665D01*
X51201Y35256D02*
X54094D01*
X51988Y33852D02*
Y34213D01*
X52421Y34646D01*
D42*
X73819Y31890D02*
X73957Y31752D01*
X73898Y34370D02*
X77579D01*
X73957Y31752D02*
X76909D01*
X76811Y31772D02*
X77598D01*
D43*
X30551Y40650D02*
Y41339D01*
X30531Y42520D02*
Y43169D01*
X38681Y48386D02*
X39390D01*
X36870Y48366D02*
X37539D01*
X63366Y48209D02*
X64016D01*
X61575Y48287D02*
X62185D01*
X74173Y44665D02*
Y44980D01*
X74449Y45256D01*
X74094Y42756D02*
Y43465D01*
D44*
X73978Y50200D02*
D03*
X61852D02*
D03*
X37600D02*
D03*
X49726D02*
D03*
X25295Y58465D02*
D03*
D45*
X73978Y51200D02*
D03*
Y52200D02*
D03*
X61852Y51200D02*
D03*
Y52200D02*
D03*
X37600Y51200D02*
D03*
Y52200D02*
D03*
X55906Y32382D02*
D03*
Y31594D02*
D03*
X55118Y32382D02*
D03*
Y31594D02*
D03*
X54331Y32382D02*
D03*
Y31594D02*
D03*
X53543Y32382D02*
D03*
Y31594D02*
D03*
X52756Y32382D02*
D03*
Y31594D02*
D03*
X51968Y32382D02*
D03*
Y31594D02*
D03*
X51181Y32382D02*
D03*
Y31594D02*
D03*
X49726Y52200D02*
D03*
Y51200D02*
D03*
X26295Y58465D02*
D03*
X25295Y57465D02*
D03*
X26295D02*
D03*
X25295Y56465D02*
D03*
X26295D02*
D03*
X25295Y55465D02*
D03*
X26295D02*
D03*
X25295Y54465D02*
D03*
X26295D02*
D03*
X25295Y53465D02*
D03*
X26295D02*
D03*
X25295Y52465D02*
D03*
X26295D02*
D03*
D46*
X73819Y31890D02*
D03*
Y34390D02*
D03*
Y35640D02*
D03*
X67569D02*
D03*
X67619Y31890D02*
D03*
D47*
X22972Y37573D02*
D03*
Y52427D02*
D03*
X81500Y36500D02*
D03*
Y39500D02*
D03*
X78500Y36500D02*
D03*
Y37500D02*
D03*
Y39500D02*
D03*
Y38500D02*
D03*
X81500Y46500D02*
D03*
Y49500D02*
D03*
X78500Y46500D02*
D03*
Y47500D02*
D03*
Y49500D02*
D03*
Y48500D02*
D03*
X81500Y40500D02*
D03*
Y43500D02*
D03*
X78500Y40500D02*
D03*
Y41500D02*
D03*
Y43500D02*
D03*
Y42500D02*
D03*
X81500Y50500D02*
D03*
Y53500D02*
D03*
X78500Y50500D02*
D03*
Y51500D02*
D03*
Y53500D02*
D03*
Y52500D02*
D03*
D48*
X80000Y32500D02*
D03*
D49*
Y57500D02*
D03*
X22500Y32500D02*
D03*
Y57500D02*
D03*
D50*
X22402Y56043D02*
D03*
X31811Y42835D02*
D03*
X31457Y41201D02*
D03*
X23740Y49744D02*
D03*
X23711Y48750D02*
D03*
X23719Y48250D02*
D03*
X23720Y47776D02*
D03*
X23740Y45748D02*
D03*
X23701Y46240D02*
D03*
Y46772D02*
D03*
X23583Y45236D02*
D03*
X23622Y44744D02*
D03*
X23583Y44232D02*
D03*
X23624Y41750D02*
D03*
X23589Y40250D02*
D03*
X23563Y38740D02*
D03*
X28041Y38258D02*
D03*
X28976Y35630D02*
D03*
X28839Y35236D02*
D03*
X28868Y37490D02*
D03*
X30049Y37234D02*
D03*
X28927Y36978D02*
D03*
X30118Y36752D02*
D03*
X26280Y38760D02*
D03*
X27362Y38504D02*
D03*
X26220Y38091D02*
D03*
X27382Y37106D02*
D03*
X26289Y36211D02*
D03*
X27392Y35955D02*
D03*
X26201Y35689D02*
D03*
X25807Y37933D02*
D03*
X26250Y37490D02*
D03*
X25492Y35866D02*
D03*
Y39488D02*
D03*
X36083Y44665D02*
D03*
X33839Y44862D02*
D03*
X36220Y45669D02*
D03*
X36339Y45374D02*
D03*
X34961Y47028D02*
D03*
X32874Y39035D02*
D03*
X32795Y39370D02*
D03*
X35200Y47858D02*
D03*
X36063Y47815D02*
D03*
X34764Y46496D02*
D03*
X34823Y47618D02*
D03*
X36201Y48406D02*
D03*
X35157Y48268D02*
D03*
X35630Y48228D02*
D03*
X47165Y45669D02*
D03*
X48327Y45669D02*
D03*
X36909Y41083D02*
D03*
X37461Y41063D02*
D03*
X37736Y41260D02*
D03*
X48366Y47638D02*
D03*
X48268Y48031D02*
D03*
X48346Y45276D02*
D03*
X48366Y44882D02*
D03*
X48386Y44488D02*
D03*
X48346Y44094D02*
D03*
X48307Y48425D02*
D03*
X48307Y48819D02*
D03*
X47244D02*
D03*
X47224Y48425D02*
D03*
X47146Y45295D02*
D03*
X47185Y44862D02*
D03*
X47165Y48031D02*
D03*
Y47638D02*
D03*
X60669Y47382D02*
D03*
X60472Y48031D02*
D03*
Y48425D02*
D03*
X60472Y48819D02*
D03*
X59409D02*
D03*
X59390Y48425D02*
D03*
X59370Y48031D02*
D03*
X59370Y47638D02*
D03*
X72500Y47343D02*
D03*
X72500Y47756D02*
D03*
X72421Y48209D02*
D03*
X72382Y48642D02*
D03*
X71535Y48150D02*
D03*
X71496Y46476D02*
D03*
X71201Y45453D02*
D03*
X71102Y48327D02*
D03*
X40433Y38012D02*
D03*
X39744Y37992D02*
D03*
X39705Y37008D02*
D03*
X71614Y43819D02*
D03*
X71476Y45709D02*
D03*
X39665Y37638D02*
D03*
X73071Y45669D02*
D03*
X71614Y45079D02*
D03*
X31161Y31102D02*
D03*
X29154Y31752D02*
D03*
X31219Y32442D02*
D03*
X29193Y33130D02*
D03*
X76181Y46398D02*
D03*
X76043Y52402D02*
D03*
X76083Y42343D02*
D03*
Y36181D02*
D03*
X74282Y40285D02*
D03*
X74862Y38917D02*
D03*
X72872Y38423D02*
D03*
X71535Y39921D02*
D03*
X33740Y32382D02*
D03*
X33760Y31299D02*
D03*
X27047Y32362D02*
D03*
X45433Y31909D02*
D03*
X52717Y33110D02*
D03*
X45276Y32205D02*
D03*
X50728Y33327D02*
D03*
X45138Y32520D02*
D03*
X55098Y33543D02*
D03*
X46220Y31772D02*
D03*
X46850Y31752D02*
D03*
X48543Y32520D02*
D03*
X49764Y32835D02*
D03*
X48110Y35177D02*
D03*
X51181Y41280D02*
D03*
X51378Y40984D02*
D03*
X59390Y45512D02*
D03*
X60925Y45669D02*
D03*
X35335Y41024D02*
D03*
X35925Y41457D02*
D03*
X46968Y40984D02*
D03*
X39390Y32126D02*
D03*
Y31673D02*
D03*
X59488Y45079D02*
D03*
X40039Y37008D02*
D03*
X59685Y41516D02*
D03*
X71459Y38423D02*
D03*
X74980Y37598D02*
D03*
X76752Y48209D02*
D03*
X74961Y39429D02*
D03*
X71510Y39423D02*
D03*
X43150Y34921D02*
D03*
X47480D02*
D03*
X47165Y34665D02*
D03*
X41693Y34488D02*
D03*
X32559Y41280D02*
D03*
X32264Y38976D02*
D03*
X32756Y36457D02*
D03*
X40354Y32854D02*
D03*
X49744Y40925D02*
D03*
Y35866D02*
D03*
X45098Y34094D02*
D03*
X37303Y33740D02*
D03*
X36909Y33504D02*
D03*
X43780Y32776D02*
D03*
X43760Y33169D02*
D03*
X46201Y34685D02*
D03*
X46535Y35118D02*
D03*
X50295Y35315D02*
D03*
X38917Y33071D02*
D03*
X36831Y31614D02*
D03*
X59488Y35256D02*
D03*
X59409Y34756D02*
D03*
X57815Y34665D02*
D03*
X57461Y33524D02*
D03*
X58169Y31929D02*
D03*
X58367Y33582D02*
D03*
X62520Y33386D02*
D03*
X29094Y33760D02*
D03*
X28071Y33977D02*
D03*
X60433Y31555D02*
D03*
X61162Y32165D02*
D03*
X60396Y32242D02*
D03*
X51201Y35256D02*
D03*
X51988Y33852D02*
D03*
X24134Y42461D02*
D03*
X26299Y46339D02*
D03*
X28248Y59075D02*
D03*
X62421D02*
D03*
X50295D02*
D03*
X38110D02*
D03*
X26654Y51161D02*
D03*
X26398Y48858D02*
D03*
X25630Y51339D02*
D03*
X25610Y51752D02*
D03*
X36240Y51201D02*
D03*
X48366D02*
D03*
X60492D02*
D03*
X72618D02*
D03*
X74350Y59075D02*
D03*
X26811Y49488D02*
D03*
X24852Y50305D02*
D03*
X26890Y47697D02*
D03*
X72480Y51654D02*
D03*
X59724Y51161D02*
D03*
X60551Y51654D02*
D03*
X49094Y52028D02*
D03*
X47776Y51004D02*
D03*
X35748Y51496D02*
D03*
X35098Y49213D02*
D03*
X34941Y50689D02*
D03*
X25374Y43819D02*
D03*
X26555Y43445D02*
D03*
X71378Y49016D02*
D03*
X71220Y50591D02*
D03*
X35315Y50669D02*
D03*
X34764Y48917D02*
D03*
X27402Y48091D02*
D03*
X24980Y48406D02*
D03*
X60098Y56004D02*
D03*
X62323Y58287D02*
D03*
X29016Y58622D02*
D03*
X25709Y46949D02*
D03*
X48307Y51890D02*
D03*
X43760Y45374D02*
D03*
X36339Y45079D02*
D03*
X35098Y45276D02*
D03*
X31378Y44843D02*
D03*
X26142Y47047D02*
D03*
X64213Y57736D02*
D03*
X25787Y45433D02*
D03*
X26555Y42717D02*
D03*
X25020Y43976D02*
D03*
X50610Y41398D02*
D03*
X64291Y41594D02*
D03*
X38268Y44016D02*
D03*
X27854Y42047D02*
D03*
X36516Y34311D02*
D03*
X35000Y32795D02*
D03*
X28839Y34626D02*
D03*
X28563Y41634D02*
D03*
X38583Y34350D02*
D03*
X38327Y34193D02*
D03*
X38543Y33268D02*
D03*
X35531Y32736D02*
D03*
X36732Y32047D02*
D03*
X62795Y35669D02*
D03*
X65020Y41398D02*
D03*
X52323Y41516D02*
D03*
X48583Y41083D02*
D03*
X49016Y35669D02*
D03*
X39252Y33228D02*
D03*
X37598Y31024D02*
D03*
X39980Y34744D02*
D03*
X36378Y33780D02*
D03*
X41594Y35531D02*
D03*
X32264Y41516D02*
D03*
X76181Y57815D02*
D03*
X76102Y56102D02*
D03*
X39823Y38780D02*
D03*
X77579Y34370D02*
D03*
X77598Y31772D02*
D03*
X40728Y44370D02*
D03*
X48976Y45079D02*
D03*
X48189Y41240D02*
D03*
X48465Y34567D02*
D03*
X40492Y32441D02*
D03*
X37165Y31634D02*
D03*
X35866Y33681D02*
D03*
X38937Y34331D02*
D03*
X37303Y34232D02*
D03*
X72774Y39923D02*
D03*
X43917Y33425D02*
D03*
X41280Y31339D02*
D03*
D51*
X65354Y31969D02*
D03*
X65374Y34173D02*
D03*
X64606Y34154D02*
D03*
X64587Y31949D02*
D03*
X24980Y33406D02*
D03*
X24961Y31201D02*
D03*
X24193Y31181D02*
D03*
X24213Y33386D02*
D03*
D52*
X33563Y40551D02*
D03*
Y37795D02*
D03*
X33091Y36811D02*
D03*
X35138Y36220D02*
D03*
Y35433D02*
D03*
Y36614D02*
D03*
X34744Y36220D02*
D03*
X34350Y35827D02*
D03*
X33169Y35039D02*
D03*
X33563D02*
D03*
X33130Y40984D02*
D03*
X34744Y40157D02*
D03*
X35138D02*
D03*
X35531D02*
D03*
X35925D02*
D03*
X34350D02*
D03*
X33957D02*
D03*
X33563Y39764D02*
D03*
X33051Y39685D02*
D03*
X34350Y39764D02*
D03*
X34744Y39370D02*
D03*
X34350Y38976D02*
D03*
X33957D02*
D03*
X33563Y38583D02*
D03*
X33051Y38386D02*
D03*
X33091Y38780D02*
D03*
X37106Y40551D02*
D03*
X37500D02*
D03*
X37894D02*
D03*
X38287D02*
D03*
X38681D02*
D03*
X36713Y40157D02*
D03*
X36319D02*
D03*
X35925Y39764D02*
D03*
X36319D02*
D03*
X37500Y40157D02*
D03*
X36713Y39764D02*
D03*
X39488Y40846D02*
D03*
X39075Y40551D02*
D03*
X37500Y39764D02*
D03*
X37106D02*
D03*
X37894Y39370D02*
D03*
X37500Y38976D02*
D03*
X37106Y38583D02*
D03*
X36713Y39370D02*
D03*
X38287D02*
D03*
X37894Y38976D02*
D03*
X38287D02*
D03*
X37894Y38583D02*
D03*
X38287D02*
D03*
Y38189D02*
D03*
X38681Y38189D02*
D03*
X38681Y37795D02*
D03*
X38287Y37402D02*
D03*
X37894D02*
D03*
X37500Y38583D02*
D03*
Y38189D02*
D03*
X37106Y37008D02*
D03*
X37500Y36614D02*
D03*
X37894Y36220D02*
D03*
X38287Y35827D02*
D03*
X39469Y34646D02*
D03*
X37894Y37008D02*
D03*
Y36614D02*
D03*
X38287Y36220D02*
D03*
Y37008D02*
D03*
X39075D02*
D03*
X35335Y34587D02*
D03*
X38287Y39764D02*
D03*
X38681D02*
D03*
X38287Y40157D02*
D03*
X39075D02*
D03*
X35138Y39764D02*
D03*
X37106Y39370D02*
D03*
Y35827D02*
D03*
X36713Y35433D02*
D03*
X37500D02*
D03*
Y35827D02*
D03*
X37106Y36220D02*
D03*
X36713Y35827D02*
D03*
X36319Y35039D02*
D03*
X35925Y35827D02*
D03*
X36319Y37795D02*
D03*
X36713D02*
D03*
X35925D02*
D03*
Y38189D02*
D03*
X36713D02*
D03*
X36319D02*
D03*
Y37795D02*
D03*
X35925Y37402D02*
D03*
X36713D02*
D03*
X36319D02*
D03*
X35138Y38976D02*
D03*
X34744Y37402D02*
D03*
Y38189D02*
D03*
X35138Y38583D02*
D03*
Y38189D02*
D03*
Y37795D02*
D03*
Y37008D02*
D03*
X35925Y36614D02*
D03*
X35925Y37008D02*
D03*
X36319D02*
D03*
X36713D02*
D03*
X36319Y36614D02*
D03*
X36713Y38583D02*
D03*
X36319Y38583D02*
D03*
X35925D02*
D03*
X35925Y38976D02*
D03*
X35925Y39370D02*
D03*
X36319D02*
D03*
X37500Y37795D02*
D03*
X37106Y37402D02*
D03*
X35531Y35827D02*
D03*
X36319Y38976D02*
D03*
X35531Y39764D02*
D03*
X38681Y35433D02*
D03*
X38287Y35039D02*
D03*
X35531Y35433D02*
D03*
X33957Y35039D02*
D03*
X33150Y35827D02*
D03*
X39075Y36614D02*
D03*
X33957D02*
D03*
D53*
X32677Y42087D02*
D03*
X32913Y42323D02*
D03*
X33150Y42559D02*
D03*
X33386Y42795D02*
D03*
X33622Y43032D02*
D03*
X33858Y43268D02*
D03*
X34094Y43504D02*
D03*
X34331Y43740D02*
D03*
X31890Y44843D02*
D03*
X35079Y44843D02*
D03*
X27441Y47165D02*
D03*
X37362Y47244D02*
D03*
X37992Y47205D02*
D03*
X37677Y53071D02*
D03*
X38071Y55669D02*
D03*
X38110Y56457D02*
D03*
X37323Y58701D02*
D03*
X33976Y49213D02*
D03*
X31181Y46850D02*
D03*
X30197Y46732D02*
D03*
X30709Y46260D02*
D03*
X33150Y49213D02*
D03*
X32559Y49724D02*
D03*
X35118Y49685D02*
D03*
X32480Y47835D02*
D03*
X31260Y47874D02*
D03*
X31181Y46457D02*
D03*
X31220Y46063D02*
D03*
X31890Y45748D02*
D03*
X32283D02*
D03*
X32677Y45748D02*
D03*
X33071Y45748D02*
D03*
X33465Y45748D02*
D03*
X34213Y46063D02*
D03*
Y46457D02*
D03*
Y46850D02*
D03*
X34213Y47244D02*
D03*
Y47638D02*
D03*
X34213Y48031D02*
D03*
X33858Y48740D02*
D03*
X33465Y48740D02*
D03*
X33071D02*
D03*
X32677Y48740D02*
D03*
X32283Y48740D02*
D03*
X31890D02*
D03*
X31496Y48701D02*
D03*
X31102Y47480D02*
D03*
X32480Y47441D02*
D03*
X33268Y46654D02*
D03*
X32874Y47047D02*
D03*
X32087Y46654D02*
D03*
X32480D02*
D03*
X32874D02*
D03*
X32087Y47047D02*
D03*
X32480D02*
D03*
X33268D02*
D03*
X32087Y47441D02*
D03*
X32874D02*
D03*
X33268D02*
D03*
Y47835D02*
D03*
X32874D02*
D03*
X32087D02*
D03*
X30197Y49016D02*
D03*
X29291Y51457D02*
D03*
X28898Y52441D02*
D03*
X30197Y48701D02*
D03*
X28622Y52835D02*
D03*
X30197Y48307D02*
D03*
X29134Y57165D02*
D03*
Y55276D02*
D03*
X29765Y56419D02*
D03*
X28189Y55197D02*
D03*
X30197Y47874D02*
D03*
Y47480D02*
D03*
X28819Y56968D02*
D03*
X30197Y49331D02*
D03*
X30394Y54016D02*
D03*
X35728Y57185D02*
D03*
X34843Y57087D02*
D03*
X34175Y58348D02*
D03*
X33858Y57244D02*
D03*
X33543Y57126D02*
D03*
X32915Y57124D02*
D03*
X32283Y57165D02*
D03*
X31970Y55592D02*
D03*
X30709Y49016D02*
D03*
X29213Y44488D02*
D03*
X30433Y55236D02*
D03*
X30315Y54331D02*
D03*
X29213Y44882D02*
D03*
X30079Y56811D02*
D03*
X30197Y44764D02*
D03*
X31339Y57087D02*
D03*
X30787Y56063D02*
D03*
Y51890D02*
D03*
X31181Y54094D02*
D03*
X31063Y52323D02*
D03*
X30217Y49705D02*
D03*
X29134Y46850D02*
D03*
X30807Y51280D02*
D03*
X36380Y57049D02*
D03*
X31299Y51378D02*
D03*
X30413Y57087D02*
D03*
X30709Y49606D02*
D03*
X34252Y52854D02*
D03*
X33563Y56201D02*
D03*
X31299Y50689D02*
D03*
X34646Y54232D02*
D03*
X31496Y49508D02*
D03*
X31791Y49705D02*
D03*
X32185Y52657D02*
D03*
X32579D02*
D03*
X32677Y52264D02*
D03*
X37000Y57750D02*
D03*
Y53500D02*
D03*
X28500Y57300D02*
D03*
X28506Y53944D02*
D03*
X32600Y53950D02*
D03*
X33250D02*
D03*
X35250Y54000D02*
D03*
X35900D02*
D03*
X32500Y58300D02*
D03*
X33200D02*
D03*
X35120Y58320D02*
D03*
X36000Y58350D02*
D03*
X32441Y41850D02*
D03*
X28622Y44744D02*
D03*
X32480Y44823D02*
D03*
X29193Y45472D02*
D03*
X28209Y44094D02*
D03*
X31024Y44783D02*
D03*
X31339Y45197D02*
D03*
X30512Y45079D02*
D03*
X39567Y47165D02*
D03*
X49488Y47244D02*
D03*
X49803Y53071D02*
D03*
X50236Y56457D02*
D03*
X50197Y55669D02*
D03*
X49449Y58701D02*
D03*
X40335Y44094D02*
D03*
X46535Y44724D02*
D03*
X50118Y47205D02*
D03*
X46339Y46063D02*
D03*
X45591Y45748D02*
D03*
X45197Y45748D02*
D03*
X44803Y45748D02*
D03*
X44409Y45748D02*
D03*
X44016D02*
D03*
X43346Y46063D02*
D03*
X46339Y46457D02*
D03*
X43307Y46457D02*
D03*
X46339Y46850D02*
D03*
X43307Y46850D02*
D03*
X46339Y47244D02*
D03*
Y47638D02*
D03*
X43386Y47874D02*
D03*
X46339Y48031D02*
D03*
X44606Y47835D02*
D03*
X44213D02*
D03*
X45984Y48740D02*
D03*
X45591Y48740D02*
D03*
X45197D02*
D03*
X44803Y48740D02*
D03*
X44409Y48740D02*
D03*
X44016D02*
D03*
X43622Y48701D02*
D03*
X42913Y51890D02*
D03*
Y56063D02*
D03*
X43425Y51378D02*
D03*
X48506Y57049D02*
D03*
X43425Y50689D02*
D03*
X46772Y54232D02*
D03*
X43622Y49508D02*
D03*
X45689Y56201D02*
D03*
X44311Y52657D02*
D03*
X45984Y57244D02*
D03*
X44803Y52264D02*
D03*
X45041Y57124D02*
D03*
X42343Y49705D02*
D03*
X42539Y57087D02*
D03*
X42835Y49606D02*
D03*
X43917Y49705D02*
D03*
X47854Y57185D02*
D03*
X44705Y52657D02*
D03*
X46968Y57087D02*
D03*
X44685Y49724D02*
D03*
X45669Y57126D02*
D03*
X47244Y49685D02*
D03*
X42323Y49331D02*
D03*
X42520Y54016D02*
D03*
X41417Y51457D02*
D03*
X42323Y49016D02*
D03*
X41024Y52441D02*
D03*
X42323Y48701D02*
D03*
X40748Y52835D02*
D03*
X42323Y48307D02*
D03*
X40315Y55197D02*
D03*
X40945Y56968D02*
D03*
X41260Y57165D02*
D03*
X42323Y47874D02*
D03*
X41260Y55276D02*
D03*
X41891Y56419D02*
D03*
X42323Y47480D02*
D03*
X41260Y46850D02*
D03*
X42933Y51280D02*
D03*
X43228Y47480D02*
D03*
X44409Y57165D02*
D03*
X42835Y46260D02*
D03*
X43189Y52323D02*
D03*
X41339Y44882D02*
D03*
X41339Y44488D02*
D03*
X42835Y49016D02*
D03*
X44096Y55592D02*
D03*
X42323Y44764D02*
D03*
X42205Y56811D02*
D03*
X42638Y45079D02*
D03*
X43307Y54094D02*
D03*
X43465Y45197D02*
D03*
X44016Y44843D02*
D03*
X44567Y41850D02*
D03*
X45039Y42323D02*
D03*
X45512Y42795D02*
D03*
X45984Y43268D02*
D03*
X46457Y43740D02*
D03*
X40748Y44744D02*
D03*
X42559Y55236D02*
D03*
X41319Y45472D02*
D03*
X42441Y54331D02*
D03*
X43150Y44783D02*
D03*
X43465Y57087D02*
D03*
X44606Y44823D02*
D03*
X44803Y42087D02*
D03*
X45276Y42559D02*
D03*
X45748Y43032D02*
D03*
X46220Y43504D02*
D03*
X49126Y57750D02*
D03*
X48126Y58350D02*
D03*
X47246Y58320D02*
D03*
X46301Y58348D02*
D03*
X45326Y58300D02*
D03*
X44626D02*
D03*
X40626Y57300D02*
D03*
X49126Y53500D02*
D03*
X48026Y54000D02*
D03*
X47376D02*
D03*
X46378Y52854D02*
D03*
X45376Y53950D02*
D03*
X44726D02*
D03*
X40631Y53944D02*
D03*
X45276Y49213D02*
D03*
X42323Y46732D02*
D03*
X46102Y49213D02*
D03*
X45394Y47047D02*
D03*
X45000Y46654D02*
D03*
X61252Y57750D02*
D03*
X55551Y51378D02*
D03*
X60252Y58350D02*
D03*
X56043Y49705D02*
D03*
X59980Y57185D02*
D03*
X55551Y50689D02*
D03*
X58898Y54232D02*
D03*
X59372Y58320D02*
D03*
X56831Y52657D02*
D03*
X59094Y57087D02*
D03*
X55748Y49508D02*
D03*
X57815Y56201D02*
D03*
X58427Y58348D02*
D03*
X56437Y52657D02*
D03*
X58110Y57244D02*
D03*
X56811Y49724D02*
D03*
X57795Y57126D02*
D03*
X57452Y58300D02*
D03*
X56929Y52264D02*
D03*
X57167Y57124D02*
D03*
X56752Y58300D02*
D03*
X55354Y47480D02*
D03*
X56535Y57165D02*
D03*
X53465Y44488D02*
D03*
X54961Y49016D02*
D03*
X56222Y55592D02*
D03*
X53445Y45472D02*
D03*
X54567Y54331D02*
D03*
X55276Y44783D02*
D03*
X55591Y57087D02*
D03*
X52874Y44744D02*
D03*
X54685Y55236D02*
D03*
X55039Y51890D02*
D03*
Y56063D02*
D03*
X54665Y57087D02*
D03*
X54961Y49606D02*
D03*
X54331Y56811D02*
D03*
X54764Y45079D02*
D03*
X54017Y56419D02*
D03*
X54449Y47480D02*
D03*
X53386Y57165D02*
D03*
X54449Y47874D02*
D03*
X53386Y55276D02*
D03*
X52441Y55197D02*
D03*
X53071Y56968D02*
D03*
X52752Y57300D02*
D03*
X61252Y53500D02*
D03*
X60152Y54000D02*
D03*
X59502D02*
D03*
X58504Y52854D02*
D03*
X57502Y53950D02*
D03*
X56852D02*
D03*
X53386Y46850D02*
D03*
X55059Y51280D02*
D03*
X54961Y46260D02*
D03*
X55315Y52323D02*
D03*
X55433Y54094D02*
D03*
X55591Y45197D02*
D03*
X54449Y49331D02*
D03*
X54646Y54016D02*
D03*
X53543Y51457D02*
D03*
X54449Y49016D02*
D03*
X53150Y52441D02*
D03*
X54449Y48701D02*
D03*
X52874Y52835D02*
D03*
X54449Y48307D02*
D03*
X52757Y53944D02*
D03*
X58465Y46063D02*
D03*
X57717Y45748D02*
D03*
X57323Y45748D02*
D03*
X56929Y45748D02*
D03*
X56535Y45748D02*
D03*
X56142D02*
D03*
X55472Y46063D02*
D03*
X58465Y46457D02*
D03*
X55433Y46457D02*
D03*
X58465Y46850D02*
D03*
X55433Y46850D02*
D03*
X58465Y47244D02*
D03*
Y47638D02*
D03*
X55512Y47874D02*
D03*
X58465Y48031D02*
D03*
X56732Y47835D02*
D03*
X56339D02*
D03*
X58110Y48740D02*
D03*
X57717Y48740D02*
D03*
X57323D02*
D03*
X56929Y48740D02*
D03*
X56535Y48740D02*
D03*
X56142D02*
D03*
X55748Y48701D02*
D03*
X54468Y49705D02*
D03*
X59370Y49685D02*
D03*
X53465Y44882D02*
D03*
X54449Y44764D02*
D03*
X56142Y44843D02*
D03*
X56693Y41850D02*
D03*
X57165Y42323D02*
D03*
X57638Y42795D02*
D03*
X58110Y43268D02*
D03*
X58583Y43740D02*
D03*
X52461Y44094D02*
D03*
X58661Y44724D02*
D03*
X59331Y44843D02*
D03*
X56732Y44823D02*
D03*
X56929Y42087D02*
D03*
X57402Y42559D02*
D03*
X57874Y43032D02*
D03*
X58346Y43504D02*
D03*
X62244Y47205D02*
D03*
X61575Y58701D02*
D03*
X62323Y55669D02*
D03*
X62362Y56457D02*
D03*
X61929Y53071D02*
D03*
X61614Y47244D02*
D03*
X51693Y47165D02*
D03*
X57126Y46654D02*
D03*
X57520Y47047D02*
D03*
X58228Y49213D02*
D03*
X54449Y46732D02*
D03*
X57402Y49213D02*
D03*
X73378Y57750D02*
D03*
X67677Y51378D02*
D03*
X72757Y57049D02*
D03*
X72378Y58350D02*
D03*
X68169Y49705D02*
D03*
X72106Y57185D02*
D03*
X67677Y50689D02*
D03*
X71024Y54232D02*
D03*
X71498Y58320D02*
D03*
X68957Y52657D02*
D03*
X71220Y57087D02*
D03*
X67874Y49508D02*
D03*
X69941Y56201D02*
D03*
X70553Y58348D02*
D03*
X68563Y52657D02*
D03*
X70236Y57244D02*
D03*
X68937Y49724D02*
D03*
X69921Y57126D02*
D03*
X69578Y58300D02*
D03*
X69055Y52264D02*
D03*
X69293Y57124D02*
D03*
X68878Y58300D02*
D03*
X67480Y47480D02*
D03*
X68661Y57165D02*
D03*
X65591Y44488D02*
D03*
X67087Y49016D02*
D03*
X68348Y55592D02*
D03*
X65571Y45472D02*
D03*
X66693Y54331D02*
D03*
X67402Y44783D02*
D03*
X67717Y57087D02*
D03*
X65000Y44744D02*
D03*
X66811Y55236D02*
D03*
X67165Y51890D02*
D03*
Y56063D02*
D03*
X66791Y57087D02*
D03*
X67087Y49606D02*
D03*
X66457Y56811D02*
D03*
X66890Y45079D02*
D03*
X66143Y56419D02*
D03*
X66575Y47480D02*
D03*
X65512Y57165D02*
D03*
X66575Y47874D02*
D03*
X65512Y55276D02*
D03*
X64567Y55197D02*
D03*
X65197Y56968D02*
D03*
X64878Y57300D02*
D03*
X73378Y53500D02*
D03*
X72278Y54000D02*
D03*
X71628D02*
D03*
X70630Y52854D02*
D03*
X69628Y53950D02*
D03*
X68978D02*
D03*
X65512Y46850D02*
D03*
X67185Y51280D02*
D03*
X67087Y46260D02*
D03*
X67441Y52323D02*
D03*
X67559Y54094D02*
D03*
X67717Y45197D02*
D03*
X66575Y49331D02*
D03*
X66772Y54016D02*
D03*
X65669Y51457D02*
D03*
X66575Y49016D02*
D03*
X65276Y52441D02*
D03*
X66575Y48701D02*
D03*
X65000Y52835D02*
D03*
X66575Y48307D02*
D03*
X64883Y53944D02*
D03*
X70591Y46063D02*
D03*
X69843Y45748D02*
D03*
X69449Y45748D02*
D03*
X69055Y45748D02*
D03*
X68661Y45748D02*
D03*
X68268D02*
D03*
X67598Y46063D02*
D03*
X70591Y46457D02*
D03*
X67559Y46457D02*
D03*
X70591Y46850D02*
D03*
X67559Y46850D02*
D03*
X70591Y47244D02*
D03*
Y47638D02*
D03*
X67638Y47874D02*
D03*
X70591Y48031D02*
D03*
X68858Y47835D02*
D03*
X68465D02*
D03*
X70236Y48740D02*
D03*
X69843Y48740D02*
D03*
X69449D02*
D03*
X69055Y48740D02*
D03*
X68661Y48740D02*
D03*
X68268D02*
D03*
X67874Y48701D02*
D03*
X66594Y49705D02*
D03*
X71496Y49685D02*
D03*
X65591Y44882D02*
D03*
X66575Y44764D02*
D03*
X68268Y44843D02*
D03*
X68819Y41850D02*
D03*
X69291Y42323D02*
D03*
X69764Y42795D02*
D03*
X70236Y43268D02*
D03*
X70709Y43740D02*
D03*
X64587Y44094D02*
D03*
X70787Y44724D02*
D03*
X68858Y44823D02*
D03*
X69055Y42087D02*
D03*
X69528Y42559D02*
D03*
X70000Y43032D02*
D03*
X70472Y43504D02*
D03*
X74370Y47205D02*
D03*
X73701Y58701D02*
D03*
X74449Y55669D02*
D03*
X74488Y56457D02*
D03*
X74055Y53071D02*
D03*
X73740Y47244D02*
D03*
X63819Y47165D02*
D03*
X69646Y47047D02*
D03*
X70354Y49213D02*
D03*
X66575Y46732D02*
D03*
X69528Y49213D02*
D03*
X69252Y46654D02*
D03*
D54*
X30551Y40650D02*
D03*
X30531Y43169D02*
D03*
X39390Y48386D02*
D03*
X36870Y48366D02*
D03*
X64016Y48209D02*
D03*
X61575Y48287D02*
D03*
X74449Y45256D02*
D03*
X74094Y42756D02*
D03*
M02*
