%FSLAX24Y24*%
%MOIN*%
G70*
G01*
G75*
G04 Layer_Color=8388736*
G04 Layer_Color=8388736*
%ADD10R,0.0394X0.0433*%
%ADD11C,0.0197*%
%ADD12C,0.0177*%
%ADD13R,0.0394X0.1083*%
%ADD14C,0.0400*%
%ADD15R,0.0945X0.1024*%
%ADD16R,0.0709X0.0630*%
%ADD17R,0.0433X0.0394*%
%ADD18R,0.0669X0.0177*%
%ADD19R,0.0669X0.0177*%
%ADD20R,0.0197X0.0591*%
%ADD21R,0.0748X0.0197*%
%ADD22R,0.0197X0.0748*%
%ADD23R,0.0551X0.0787*%
%ADD24R,0.0807X0.0236*%
%ADD25O,0.0110X0.0394*%
%ADD26O,0.0394X0.0110*%
%ADD27R,0.0827X0.0354*%
%ADD28R,0.0827X0.0354*%
%ADD29R,0.1732X0.1441*%
%ADD30R,0.0600X0.0300*%
%ADD31R,0.1400X0.1000*%
%ADD32R,0.0630X0.0709*%
%ADD33R,0.0787X0.0472*%
%ADD34R,0.0472X0.0787*%
%ADD35R,0.0512X0.0512*%
%ADD36C,0.0070*%
%ADD37C,0.0060*%
%ADD38C,0.0160*%
%ADD39C,0.0090*%
%ADD40C,0.0100*%
%ADD41C,0.0120*%
%ADD42C,0.0300*%
%ADD43C,0.0250*%
%ADD44C,0.0200*%
%ADD45C,0.0591*%
%ADD46R,0.0591X0.0591*%
%ADD47C,0.0433*%
%ADD48C,0.0800*%
%ADD49C,0.1732*%
%ADD50C,0.1732*%
%ADD51C,0.0600*%
%ADD52C,0.0200*%
%ADD53C,0.0212*%
%ADD54C,0.0240*%
%ADD55C,0.0350*%
%ADD56C,0.0250*%
%ADD57C,0.0080*%
%ADD58R,0.0276X0.0354*%
%ADD59R,0.0354X0.0276*%
%ADD60C,0.0140*%
%ADD61C,0.0098*%
%ADD62C,0.0079*%
%ADD63R,0.1575X0.0098*%
%ADD64C,0.0050*%
%ADD65R,0.0474X0.0513*%
%ADD66C,0.0277*%
%ADD67C,0.0217*%
%ADD68R,0.0474X0.1163*%
%ADD69C,0.1000*%
%ADD70R,0.1025X0.1104*%
%ADD71R,0.0789X0.0710*%
%ADD72R,0.0513X0.0474*%
%ADD73R,0.0749X0.0257*%
%ADD74R,0.0749X0.0257*%
%ADD75R,0.0277X0.0671*%
%ADD76R,0.0828X0.0277*%
%ADD77R,0.0277X0.0828*%
%ADD78R,0.0631X0.0867*%
%ADD79R,0.0887X0.0316*%
%ADD80O,0.0165X0.0449*%
%ADD81O,0.0449X0.0165*%
%ADD82R,0.0907X0.0434*%
%ADD83R,0.0907X0.0434*%
%ADD84R,0.1812X0.1521*%
%ADD85R,0.0680X0.0380*%
%ADD86R,0.1480X0.1080*%
%ADD87R,0.0710X0.0789*%
%ADD88R,0.0867X0.0552*%
%ADD89R,0.0552X0.0867*%
%ADD90R,0.0592X0.0592*%
%ADD91C,0.0671*%
%ADD92R,0.0671X0.0671*%
%ADD93C,0.0513*%
%ADD94C,0.0880*%
%ADD95C,0.1812*%
%ADD96C,0.1812*%
%ADD97C,0.0680*%
%ADD98C,0.0280*%
%ADD99C,0.0480*%
%ADD100C,0.0320*%
%ADD101C,0.0430*%
%ADD102C,0.0330*%
D65*
X25472Y36752D02*
D03*
Y36083D02*
D03*
X34744Y32323D02*
D03*
Y31654D02*
D03*
X35531D02*
D03*
X36319D02*
D03*
X37598D02*
D03*
X76142Y57382D02*
D03*
Y56713D02*
D03*
X76083Y36575D02*
D03*
Y37244D02*
D03*
Y38642D02*
D03*
Y39311D02*
D03*
Y41201D02*
D03*
Y41870D02*
D03*
Y43445D02*
D03*
Y42776D02*
D03*
X76181Y46811D02*
D03*
Y47480D02*
D03*
Y48780D02*
D03*
Y49449D02*
D03*
X76083Y51339D02*
D03*
Y52008D02*
D03*
Y53484D02*
D03*
Y52815D02*
D03*
X35531Y32323D02*
D03*
X36319D02*
D03*
X37598D02*
D03*
X25472Y39350D02*
D03*
Y38681D02*
D03*
X25492Y38031D02*
D03*
Y37362D02*
D03*
X31457Y40374D02*
D03*
Y39705D02*
D03*
X74370Y46791D02*
D03*
Y46122D02*
D03*
X62244Y46791D02*
D03*
Y46122D02*
D03*
X50118Y46791D02*
D03*
Y46122D02*
D03*
X37992Y46791D02*
D03*
Y46122D02*
D03*
X63937Y43957D02*
D03*
Y44626D02*
D03*
X51811Y43957D02*
D03*
Y44626D02*
D03*
X39724Y43957D02*
D03*
Y44626D02*
D03*
X27559Y43957D02*
D03*
Y44626D02*
D03*
X74075Y58032D02*
D03*
Y58701D02*
D03*
X61949Y58032D02*
D03*
Y58701D02*
D03*
X49823Y58032D02*
D03*
Y58701D02*
D03*
X37697Y58032D02*
D03*
Y58701D02*
D03*
X74075Y54980D02*
D03*
Y55650D02*
D03*
X61949Y54980D02*
D03*
Y55650D02*
D03*
X49823Y54980D02*
D03*
Y55650D02*
D03*
X37697Y54980D02*
D03*
Y55650D02*
D03*
X74075Y56457D02*
D03*
Y57126D02*
D03*
X61949Y56457D02*
D03*
Y57126D02*
D03*
X49823Y56457D02*
D03*
Y57126D02*
D03*
X37697Y56457D02*
D03*
Y57126D02*
D03*
X74075Y53504D02*
D03*
Y54173D02*
D03*
X61949Y53504D02*
D03*
Y54173D02*
D03*
X49823Y53504D02*
D03*
Y54173D02*
D03*
X37697Y53504D02*
D03*
Y54173D02*
D03*
X73780Y46122D02*
D03*
Y46791D02*
D03*
X61654Y46122D02*
D03*
Y46791D02*
D03*
X49528Y46122D02*
D03*
Y46791D02*
D03*
X37402Y46122D02*
D03*
Y46791D02*
D03*
X24291Y55492D02*
D03*
Y56161D02*
D03*
D66*
X72205Y50000D02*
D03*
X71811Y49606D02*
D03*
X60079Y50000D02*
D03*
X59685Y49606D02*
D03*
X47953Y50000D02*
D03*
X47559Y49606D02*
D03*
X35827Y50000D02*
D03*
X35433Y49606D02*
D03*
X71811Y48819D02*
D03*
Y48031D02*
D03*
Y47244D02*
D03*
X72205Y46457D02*
D03*
X59685Y48819D02*
D03*
Y48031D02*
D03*
Y47244D02*
D03*
X60079Y46457D02*
D03*
X47559Y48819D02*
D03*
Y48031D02*
D03*
Y47244D02*
D03*
X47953Y46457D02*
D03*
X35433Y48819D02*
D03*
Y48031D02*
D03*
Y47244D02*
D03*
X35827Y46457D02*
D03*
X71811D02*
D03*
X72205Y47244D02*
D03*
Y46063D02*
D03*
Y46850D02*
D03*
X59685Y46457D02*
D03*
X60079Y47244D02*
D03*
Y46063D02*
D03*
Y46850D02*
D03*
X47559Y46457D02*
D03*
X47953Y47244D02*
D03*
Y46063D02*
D03*
Y46850D02*
D03*
X35433Y46457D02*
D03*
X35827Y47244D02*
D03*
Y46063D02*
D03*
Y46850D02*
D03*
X72205Y47638D02*
D03*
Y48425D02*
D03*
X60079Y47638D02*
D03*
Y48425D02*
D03*
X47953Y47638D02*
D03*
Y48425D02*
D03*
X35827Y47638D02*
D03*
Y48425D02*
D03*
Y44094D02*
D03*
X35433D02*
D03*
X35039D02*
D03*
X34646D02*
D03*
X34252D02*
D03*
X33858D02*
D03*
X33465D02*
D03*
X33071D02*
D03*
X32677D02*
D03*
X32283D02*
D03*
X31890D02*
D03*
X31496D02*
D03*
X31102D02*
D03*
X30709D02*
D03*
X30315D02*
D03*
X29921D02*
D03*
X29528D02*
D03*
X35827Y44488D02*
D03*
X35433D02*
D03*
X35039D02*
D03*
X34646D02*
D03*
X34252D02*
D03*
X33858D02*
D03*
X33465D02*
D03*
X33071D02*
D03*
X32677D02*
D03*
X32283D02*
D03*
X31890D02*
D03*
X31496D02*
D03*
X31102D02*
D03*
X30709D02*
D03*
X30315D02*
D03*
X29921D02*
D03*
X29528D02*
D03*
X35827Y44882D02*
D03*
X29921D02*
D03*
X29528D02*
D03*
X35827Y45276D02*
D03*
X35433D02*
D03*
X29921D02*
D03*
X29528D02*
D03*
X35827Y45669D02*
D03*
X35433D02*
D03*
X29921D02*
D03*
X29528D02*
D03*
X35433Y46063D02*
D03*
X29921D02*
D03*
X29528D02*
D03*
X29921Y46457D02*
D03*
X29528D02*
D03*
X35433Y46850D02*
D03*
X29921D02*
D03*
X29528D02*
D03*
X29921Y47244D02*
D03*
X29528D02*
D03*
X35433Y47638D02*
D03*
X29921D02*
D03*
X29528D02*
D03*
X35827Y48031D02*
D03*
X29921D02*
D03*
X29528D02*
D03*
X35433Y48425D02*
D03*
X29921D02*
D03*
X29528D02*
D03*
X35827Y48819D02*
D03*
X29921D02*
D03*
X29528D02*
D03*
X35827Y49213D02*
D03*
X29921D02*
D03*
X29528D02*
D03*
X35827Y49606D02*
D03*
X29921D02*
D03*
X29528D02*
D03*
X35433Y50000D02*
D03*
X35039D02*
D03*
X34646D02*
D03*
X34252D02*
D03*
X33858D02*
D03*
X33465D02*
D03*
X33071D02*
D03*
X32677D02*
D03*
X32283D02*
D03*
X31890D02*
D03*
X31496D02*
D03*
X31102D02*
D03*
X30709D02*
D03*
X30315D02*
D03*
X29921D02*
D03*
X29528D02*
D03*
X35827Y50394D02*
D03*
X35433D02*
D03*
X35039D02*
D03*
X34646D02*
D03*
X34252D02*
D03*
X33858D02*
D03*
X33465D02*
D03*
X33071D02*
D03*
X32677D02*
D03*
X32283D02*
D03*
X31890D02*
D03*
X31496D02*
D03*
X31102D02*
D03*
X30709D02*
D03*
X30315D02*
D03*
X29921D02*
D03*
X29528D02*
D03*
X31496Y48425D02*
D03*
X31890D02*
D03*
X32283D02*
D03*
X32677D02*
D03*
X33071D02*
D03*
X33465D02*
D03*
X33858D02*
D03*
X31496Y48031D02*
D03*
X31890D02*
D03*
X32283D02*
D03*
X32677D02*
D03*
X33071D02*
D03*
X33465D02*
D03*
X33858D02*
D03*
X31496Y47638D02*
D03*
X31890D02*
D03*
X32283D02*
D03*
X32677D02*
D03*
X33071D02*
D03*
X33465D02*
D03*
X33858D02*
D03*
X31496Y47244D02*
D03*
X31890D02*
D03*
X32283D02*
D03*
X32677D02*
D03*
X33071D02*
D03*
X33465D02*
D03*
X33858D02*
D03*
X31496Y46850D02*
D03*
X31890D02*
D03*
X32283D02*
D03*
X32677D02*
D03*
X33071D02*
D03*
X33465D02*
D03*
X33858D02*
D03*
X31496Y46457D02*
D03*
X31890D02*
D03*
X32283D02*
D03*
X32677D02*
D03*
X33071D02*
D03*
X33465D02*
D03*
X33858D02*
D03*
X31496Y46063D02*
D03*
X31890D02*
D03*
X32283D02*
D03*
X32677D02*
D03*
X33071D02*
D03*
X33465D02*
D03*
X33858D02*
D03*
X70236D02*
D03*
X69843D02*
D03*
X69449D02*
D03*
X69055D02*
D03*
X68661D02*
D03*
X68268D02*
D03*
X67874D02*
D03*
X70236Y46457D02*
D03*
X69843D02*
D03*
X69449D02*
D03*
X69055D02*
D03*
X68661D02*
D03*
X68268D02*
D03*
X67874D02*
D03*
X70236Y46850D02*
D03*
X69843D02*
D03*
X69449D02*
D03*
X69055D02*
D03*
X68661D02*
D03*
X68268D02*
D03*
X67874D02*
D03*
X70236Y47244D02*
D03*
X69843D02*
D03*
X69449D02*
D03*
X69055D02*
D03*
X68661D02*
D03*
X68268D02*
D03*
X67874D02*
D03*
X70236Y47638D02*
D03*
X69843D02*
D03*
X69449D02*
D03*
X69055D02*
D03*
X68661D02*
D03*
X68268D02*
D03*
X67874D02*
D03*
X70236Y48031D02*
D03*
X69843D02*
D03*
X69449D02*
D03*
X69055D02*
D03*
X68661D02*
D03*
X68268D02*
D03*
X67874D02*
D03*
X70236Y48425D02*
D03*
X69843D02*
D03*
X69449D02*
D03*
X69055D02*
D03*
X68661D02*
D03*
X68268D02*
D03*
X67874D02*
D03*
X65905Y50394D02*
D03*
X66299D02*
D03*
X66693D02*
D03*
X67087D02*
D03*
X67480D02*
D03*
X67874D02*
D03*
X68268D02*
D03*
X68661D02*
D03*
X69055D02*
D03*
X69449D02*
D03*
X69843D02*
D03*
X70236D02*
D03*
X70630D02*
D03*
X71024D02*
D03*
X71417D02*
D03*
X71811D02*
D03*
X72205D02*
D03*
X65905Y50000D02*
D03*
X66299D02*
D03*
X66693D02*
D03*
X67087D02*
D03*
X67480D02*
D03*
X67874D02*
D03*
X68268D02*
D03*
X68661D02*
D03*
X69055D02*
D03*
X69449D02*
D03*
X69843D02*
D03*
X70236D02*
D03*
X70630D02*
D03*
X71417D02*
D03*
X71811D02*
D03*
X65905Y49606D02*
D03*
X66299D02*
D03*
X72205D02*
D03*
X65905Y49213D02*
D03*
X66299D02*
D03*
X72205D02*
D03*
X65905Y48819D02*
D03*
X66299D02*
D03*
X72205D02*
D03*
X65905Y48425D02*
D03*
X66299D02*
D03*
X71811D02*
D03*
X65905Y48031D02*
D03*
X66299D02*
D03*
X72205D02*
D03*
X65905Y47638D02*
D03*
X66299D02*
D03*
X71811D02*
D03*
X65905Y47244D02*
D03*
X66299D02*
D03*
X65905Y46850D02*
D03*
X66299D02*
D03*
X71811D02*
D03*
X65905Y46457D02*
D03*
X66299D02*
D03*
X65905Y46063D02*
D03*
X66299D02*
D03*
X71811D02*
D03*
X65905Y45669D02*
D03*
X66299D02*
D03*
X71811D02*
D03*
X72205D02*
D03*
X65905Y45276D02*
D03*
X66299D02*
D03*
X71811D02*
D03*
X72205D02*
D03*
X65905Y44882D02*
D03*
X66299D02*
D03*
X72205D02*
D03*
X65905Y44488D02*
D03*
X66299D02*
D03*
X66693D02*
D03*
X67087D02*
D03*
X67480D02*
D03*
X67874D02*
D03*
X68268D02*
D03*
X68661D02*
D03*
X69055D02*
D03*
X69449D02*
D03*
X69843D02*
D03*
X70236D02*
D03*
X70630D02*
D03*
X71024D02*
D03*
X71417D02*
D03*
X71811D02*
D03*
X72205D02*
D03*
X65905Y44094D02*
D03*
X66299D02*
D03*
X66693D02*
D03*
X67087D02*
D03*
X67480D02*
D03*
X67874D02*
D03*
X68268D02*
D03*
X68661D02*
D03*
X69055D02*
D03*
X69449D02*
D03*
X69843D02*
D03*
X70236D02*
D03*
X70630D02*
D03*
X71024D02*
D03*
X71417D02*
D03*
X71811D02*
D03*
X72205D02*
D03*
X58110Y46063D02*
D03*
X57717D02*
D03*
X57323D02*
D03*
X56929D02*
D03*
X56535D02*
D03*
X56142D02*
D03*
X55748D02*
D03*
X58110Y46457D02*
D03*
X57717D02*
D03*
X57323D02*
D03*
X56929D02*
D03*
X56535D02*
D03*
X56142D02*
D03*
X55748D02*
D03*
X58110Y46850D02*
D03*
X57717D02*
D03*
X57323D02*
D03*
X56929D02*
D03*
X56535D02*
D03*
X56142D02*
D03*
X55748D02*
D03*
X58110Y47244D02*
D03*
X57717D02*
D03*
X57323D02*
D03*
X56929D02*
D03*
X56535D02*
D03*
X56142D02*
D03*
X55748D02*
D03*
X58110Y47638D02*
D03*
X57717D02*
D03*
X57323D02*
D03*
X56929D02*
D03*
X56535D02*
D03*
X56142D02*
D03*
X55748D02*
D03*
X58110Y48031D02*
D03*
X57717D02*
D03*
X57323D02*
D03*
X56929D02*
D03*
X56535D02*
D03*
X56142D02*
D03*
X55748D02*
D03*
X58110Y48425D02*
D03*
X57717D02*
D03*
X57323D02*
D03*
X56929D02*
D03*
X56535D02*
D03*
X56142D02*
D03*
X55748D02*
D03*
X53780Y50394D02*
D03*
X54173D02*
D03*
X54567D02*
D03*
X54961D02*
D03*
X55354D02*
D03*
X55748D02*
D03*
X56142D02*
D03*
X56535D02*
D03*
X56929D02*
D03*
X57323D02*
D03*
X57717D02*
D03*
X58110D02*
D03*
X58504D02*
D03*
X58898D02*
D03*
X59291D02*
D03*
X59685D02*
D03*
X60079D02*
D03*
X53780Y50000D02*
D03*
X54173D02*
D03*
X54567D02*
D03*
X54961D02*
D03*
X55354D02*
D03*
X55748D02*
D03*
X56142D02*
D03*
X56535D02*
D03*
X56929D02*
D03*
X57323D02*
D03*
X57717D02*
D03*
X58110D02*
D03*
X58504D02*
D03*
X58898D02*
D03*
X59291D02*
D03*
X59685D02*
D03*
X53780Y49606D02*
D03*
X54173D02*
D03*
X60079D02*
D03*
X53780Y49213D02*
D03*
X54173D02*
D03*
X60079D02*
D03*
X53780Y48819D02*
D03*
X54173D02*
D03*
X60079D02*
D03*
X53780Y48425D02*
D03*
X54173D02*
D03*
X59685D02*
D03*
X53780Y48031D02*
D03*
X54173D02*
D03*
X60079D02*
D03*
X53780Y47638D02*
D03*
X54173D02*
D03*
X59685D02*
D03*
X53780Y47244D02*
D03*
X54173D02*
D03*
X53780Y46850D02*
D03*
X54173D02*
D03*
X59685D02*
D03*
X53780Y46457D02*
D03*
X54173D02*
D03*
X53780Y46063D02*
D03*
X54173D02*
D03*
X59685D02*
D03*
X53780Y45669D02*
D03*
X54173D02*
D03*
X59685D02*
D03*
X60079D02*
D03*
X53780Y45276D02*
D03*
X54173D02*
D03*
X59685D02*
D03*
X60079D02*
D03*
X53780Y44882D02*
D03*
X54173D02*
D03*
X60079D02*
D03*
X53780Y44488D02*
D03*
X54173D02*
D03*
X54567D02*
D03*
X54961D02*
D03*
X55354D02*
D03*
X55748D02*
D03*
X56142D02*
D03*
X56535D02*
D03*
X56929D02*
D03*
X57323D02*
D03*
X57717D02*
D03*
X58110D02*
D03*
X58504D02*
D03*
X58898D02*
D03*
X59291D02*
D03*
X59685D02*
D03*
X60079D02*
D03*
X53780Y44094D02*
D03*
X54173D02*
D03*
X54567D02*
D03*
X54961D02*
D03*
X55354D02*
D03*
X55748D02*
D03*
X56142D02*
D03*
X56535D02*
D03*
X56929D02*
D03*
X57323D02*
D03*
X57717D02*
D03*
X58110D02*
D03*
X58504D02*
D03*
X58898D02*
D03*
X59291D02*
D03*
X59685D02*
D03*
X60079D02*
D03*
X47953D02*
D03*
X47559D02*
D03*
X47165D02*
D03*
X46772D02*
D03*
X46378D02*
D03*
X45984D02*
D03*
X45591D02*
D03*
X45197D02*
D03*
X44803D02*
D03*
X44409D02*
D03*
X44016D02*
D03*
X43622D02*
D03*
X43228D02*
D03*
X42835D02*
D03*
X42441D02*
D03*
X42047D02*
D03*
X41654D02*
D03*
X47953Y44488D02*
D03*
X47559D02*
D03*
X47165D02*
D03*
X46772D02*
D03*
X46378D02*
D03*
X45984D02*
D03*
X45591D02*
D03*
X45197D02*
D03*
X44803D02*
D03*
X44409D02*
D03*
X44016D02*
D03*
X43622D02*
D03*
X43228D02*
D03*
X42835D02*
D03*
X42441D02*
D03*
X42047D02*
D03*
X41654D02*
D03*
X47953Y44882D02*
D03*
X42047D02*
D03*
X41654D02*
D03*
X47953Y45276D02*
D03*
X47559D02*
D03*
X42047D02*
D03*
X41654D02*
D03*
X47953Y45669D02*
D03*
X47559D02*
D03*
X42047D02*
D03*
X41654D02*
D03*
X47559Y46063D02*
D03*
X42047D02*
D03*
X41654D02*
D03*
X42047Y46457D02*
D03*
X41654D02*
D03*
X47559Y46850D02*
D03*
X42047D02*
D03*
X41654D02*
D03*
X42047Y47244D02*
D03*
X41654D02*
D03*
X47559Y47638D02*
D03*
X42047D02*
D03*
X41654D02*
D03*
X47953Y48031D02*
D03*
X42047D02*
D03*
X41654D02*
D03*
X47559Y48425D02*
D03*
X42047D02*
D03*
X41654D02*
D03*
X47953Y48819D02*
D03*
X42047D02*
D03*
X41654D02*
D03*
X47953Y49213D02*
D03*
X42047D02*
D03*
X41654D02*
D03*
X47953Y49606D02*
D03*
X42047D02*
D03*
X41654D02*
D03*
X47559Y50000D02*
D03*
X47165D02*
D03*
X46772D02*
D03*
X46378D02*
D03*
X45984D02*
D03*
X45591D02*
D03*
X45197D02*
D03*
X44803D02*
D03*
X44409D02*
D03*
X44016D02*
D03*
X43622D02*
D03*
X43228D02*
D03*
X42835D02*
D03*
X42441D02*
D03*
X42047D02*
D03*
X41654D02*
D03*
X47953Y50394D02*
D03*
X47559D02*
D03*
X47165D02*
D03*
X46772D02*
D03*
X46378D02*
D03*
X45984D02*
D03*
X45591D02*
D03*
X45197D02*
D03*
X44803D02*
D03*
X44409D02*
D03*
X44016D02*
D03*
X43622D02*
D03*
X43228D02*
D03*
X42835D02*
D03*
X42441D02*
D03*
X42047D02*
D03*
X41654D02*
D03*
X43622Y48425D02*
D03*
X44016D02*
D03*
X44409D02*
D03*
X44803D02*
D03*
X45197D02*
D03*
X45591D02*
D03*
X45984D02*
D03*
X43622Y48031D02*
D03*
X44016D02*
D03*
X44409D02*
D03*
X44803D02*
D03*
X45197D02*
D03*
X45591D02*
D03*
X45984D02*
D03*
X43622Y47638D02*
D03*
X44016D02*
D03*
X44409D02*
D03*
X44803D02*
D03*
X45197D02*
D03*
X45591D02*
D03*
X45984D02*
D03*
X43622Y47244D02*
D03*
X44016D02*
D03*
X44409D02*
D03*
X44803D02*
D03*
X45197D02*
D03*
X45591D02*
D03*
X45984D02*
D03*
X43622Y46850D02*
D03*
X44016D02*
D03*
X44409D02*
D03*
X44803D02*
D03*
X45197D02*
D03*
X45591D02*
D03*
X45984D02*
D03*
X43622Y46457D02*
D03*
X44016D02*
D03*
X44409D02*
D03*
X44803D02*
D03*
X45197D02*
D03*
X45591D02*
D03*
X45984D02*
D03*
X43622Y46063D02*
D03*
X44016D02*
D03*
X44409D02*
D03*
X44803D02*
D03*
X45197D02*
D03*
X45591D02*
D03*
X45984D02*
D03*
X35433Y44882D02*
D03*
X47559D02*
D03*
X59685D02*
D03*
X71811D02*
D03*
X71024Y50000D02*
D03*
X35433Y49213D02*
D03*
X47559D02*
D03*
X59685D02*
D03*
X71811D02*
D03*
D67*
X39272Y37205D02*
D03*
X37697Y36811D02*
D03*
X38091Y37205D02*
D03*
X38484D02*
D03*
X35335Y39173D02*
D03*
X35728D02*
D03*
X34547Y38780D02*
D03*
X34941D02*
D03*
X37697Y40748D02*
D03*
X33366Y38386D02*
D03*
X37303Y39173D02*
D03*
X38484Y40748D02*
D03*
X36909Y39567D02*
D03*
X36516D02*
D03*
X38484Y37992D02*
D03*
X36909Y39173D02*
D03*
X37697Y38780D02*
D03*
X37303Y39567D02*
D03*
Y39961D02*
D03*
X37697D02*
D03*
X35728Y39567D02*
D03*
X34941D02*
D03*
Y38386D02*
D03*
X34154Y39567D02*
D03*
X33760D02*
D03*
X33366Y39173D02*
D03*
X34154Y38780D02*
D03*
X37697Y39567D02*
D03*
X38484Y39173D02*
D03*
X37697Y38386D02*
D03*
X38091Y37992D02*
D03*
X38484Y36417D02*
D03*
Y36024D02*
D03*
Y35630D02*
D03*
X38091Y36417D02*
D03*
X38484Y36811D02*
D03*
X39272Y37992D02*
D03*
X38091Y36811D02*
D03*
X36516Y34843D02*
D03*
X36909D02*
D03*
X38484D02*
D03*
X38091D02*
D03*
X37697D02*
D03*
X33366Y40748D02*
D03*
Y40354D02*
D03*
Y39961D02*
D03*
Y39567D02*
D03*
Y38780D02*
D03*
Y37992D02*
D03*
Y37598D02*
D03*
Y37205D02*
D03*
Y36811D02*
D03*
Y36417D02*
D03*
Y36024D02*
D03*
Y35630D02*
D03*
Y35236D02*
D03*
Y34843D02*
D03*
X33760Y40748D02*
D03*
Y40354D02*
D03*
Y39961D02*
D03*
Y39173D02*
D03*
Y38780D02*
D03*
Y38386D02*
D03*
Y37992D02*
D03*
Y37598D02*
D03*
Y37205D02*
D03*
Y36811D02*
D03*
Y36417D02*
D03*
Y36024D02*
D03*
Y35630D02*
D03*
Y35236D02*
D03*
Y34843D02*
D03*
X34154Y40748D02*
D03*
Y40354D02*
D03*
Y39961D02*
D03*
Y39173D02*
D03*
Y38386D02*
D03*
Y37992D02*
D03*
Y37598D02*
D03*
Y37205D02*
D03*
Y36811D02*
D03*
Y36417D02*
D03*
Y36024D02*
D03*
Y35630D02*
D03*
Y35236D02*
D03*
Y34843D02*
D03*
X34547Y40748D02*
D03*
Y40354D02*
D03*
Y39961D02*
D03*
Y39567D02*
D03*
Y39173D02*
D03*
Y38386D02*
D03*
Y37992D02*
D03*
Y37598D02*
D03*
Y37205D02*
D03*
Y36811D02*
D03*
Y36417D02*
D03*
Y36024D02*
D03*
Y35630D02*
D03*
Y35236D02*
D03*
Y34843D02*
D03*
X34941Y40748D02*
D03*
Y40354D02*
D03*
Y39961D02*
D03*
Y39173D02*
D03*
Y37992D02*
D03*
Y37598D02*
D03*
Y37205D02*
D03*
Y36811D02*
D03*
Y36417D02*
D03*
Y36024D02*
D03*
Y35630D02*
D03*
Y35236D02*
D03*
Y34843D02*
D03*
X35335Y40748D02*
D03*
Y40354D02*
D03*
Y39961D02*
D03*
Y39567D02*
D03*
Y38780D02*
D03*
Y38386D02*
D03*
Y37992D02*
D03*
Y37598D02*
D03*
Y37205D02*
D03*
Y36811D02*
D03*
Y36417D02*
D03*
Y36024D02*
D03*
Y35630D02*
D03*
Y35236D02*
D03*
Y34843D02*
D03*
X35728Y40748D02*
D03*
Y40354D02*
D03*
Y39961D02*
D03*
Y38780D02*
D03*
Y38386D02*
D03*
Y37992D02*
D03*
Y37598D02*
D03*
Y37205D02*
D03*
Y36811D02*
D03*
Y36417D02*
D03*
Y36024D02*
D03*
Y35630D02*
D03*
Y35236D02*
D03*
Y34843D02*
D03*
X36122Y40748D02*
D03*
Y40354D02*
D03*
Y39961D02*
D03*
Y39567D02*
D03*
Y39173D02*
D03*
Y38780D02*
D03*
Y38386D02*
D03*
Y37992D02*
D03*
Y37598D02*
D03*
Y37205D02*
D03*
Y36811D02*
D03*
Y36417D02*
D03*
Y36024D02*
D03*
Y35630D02*
D03*
Y35236D02*
D03*
Y34843D02*
D03*
X36516Y40748D02*
D03*
Y40354D02*
D03*
Y39961D02*
D03*
Y39173D02*
D03*
Y38780D02*
D03*
Y38386D02*
D03*
Y37992D02*
D03*
Y37598D02*
D03*
Y37205D02*
D03*
Y36811D02*
D03*
Y36417D02*
D03*
Y36024D02*
D03*
Y35630D02*
D03*
Y35236D02*
D03*
X36909Y40748D02*
D03*
Y40354D02*
D03*
Y39961D02*
D03*
Y38780D02*
D03*
Y38386D02*
D03*
Y37992D02*
D03*
Y37598D02*
D03*
Y37205D02*
D03*
Y36811D02*
D03*
Y36417D02*
D03*
Y36024D02*
D03*
Y35630D02*
D03*
Y35236D02*
D03*
X37303Y40748D02*
D03*
Y40354D02*
D03*
Y38780D02*
D03*
Y38386D02*
D03*
Y37992D02*
D03*
Y37598D02*
D03*
Y37205D02*
D03*
Y36811D02*
D03*
Y36417D02*
D03*
Y36024D02*
D03*
Y35630D02*
D03*
Y35236D02*
D03*
Y34843D02*
D03*
X37697Y40354D02*
D03*
Y39173D02*
D03*
Y37992D02*
D03*
Y37598D02*
D03*
Y37205D02*
D03*
Y36417D02*
D03*
Y36024D02*
D03*
Y35630D02*
D03*
Y35236D02*
D03*
X38091Y40748D02*
D03*
Y40354D02*
D03*
Y39961D02*
D03*
Y39567D02*
D03*
Y39173D02*
D03*
Y38780D02*
D03*
Y38386D02*
D03*
Y37598D02*
D03*
Y36024D02*
D03*
Y35630D02*
D03*
Y35236D02*
D03*
X38484Y40354D02*
D03*
Y39961D02*
D03*
Y39567D02*
D03*
Y38780D02*
D03*
Y38386D02*
D03*
Y37598D02*
D03*
Y35236D02*
D03*
X38878Y40748D02*
D03*
Y40354D02*
D03*
Y39961D02*
D03*
Y39567D02*
D03*
Y39173D02*
D03*
Y38780D02*
D03*
Y38386D02*
D03*
Y37992D02*
D03*
Y37598D02*
D03*
Y36417D02*
D03*
Y36024D02*
D03*
Y35630D02*
D03*
Y35236D02*
D03*
Y34843D02*
D03*
X39272Y40748D02*
D03*
Y40354D02*
D03*
Y39961D02*
D03*
Y39567D02*
D03*
Y39173D02*
D03*
Y38780D02*
D03*
Y38386D02*
D03*
Y37598D02*
D03*
Y36811D02*
D03*
Y36417D02*
D03*
Y36024D02*
D03*
Y35630D02*
D03*
Y35236D02*
D03*
Y34843D02*
D03*
X38878Y37205D02*
D03*
Y36811D02*
D03*
D68*
X55984Y33278D02*
D03*
X55197D02*
D03*
X54409D02*
D03*
X53622D02*
D03*
X52835D02*
D03*
X52047D02*
D03*
X55984Y31604D02*
D03*
X55197D02*
D03*
X54409D02*
D03*
X53622D02*
D03*
X52835D02*
D03*
X52047D02*
D03*
X51260Y33278D02*
D03*
Y31604D02*
D03*
D69*
X24370Y34843D02*
D03*
X77598Y57677D02*
D03*
X79409Y34409D02*
D03*
D70*
X75915Y34370D02*
D03*
Y31850D02*
D03*
D71*
X57559Y33228D02*
D03*
Y32126D02*
D03*
X69370Y37598D02*
D03*
Y38701D02*
D03*
D72*
X53406Y35728D02*
D03*
X54075D02*
D03*
X43150Y35531D02*
D03*
X42480D02*
D03*
X43150Y34547D02*
D03*
X42480D02*
D03*
X41280D02*
D03*
X40610D02*
D03*
X50768Y34764D02*
D03*
X50098D02*
D03*
X51713D02*
D03*
X52382D02*
D03*
X53248D02*
D03*
X53917D02*
D03*
X67461Y41339D02*
D03*
X68130D02*
D03*
X55217Y41260D02*
D03*
X55886D02*
D03*
X43209Y41850D02*
D03*
X43878D02*
D03*
D73*
X26811Y36467D02*
D03*
Y38514D02*
D03*
Y38258D02*
D03*
Y38002D02*
D03*
Y37746D02*
D03*
Y37490D02*
D03*
Y37234D02*
D03*
Y36978D02*
D03*
Y36722D02*
D03*
Y36211D02*
D03*
Y35955D02*
D03*
Y35699D02*
D03*
Y35443D02*
D03*
X29488Y38770D02*
D03*
Y38514D02*
D03*
Y38258D02*
D03*
Y38002D02*
D03*
Y37746D02*
D03*
Y37490D02*
D03*
Y37234D02*
D03*
Y36978D02*
D03*
Y36722D02*
D03*
Y36467D02*
D03*
Y36211D02*
D03*
Y35955D02*
D03*
Y35699D02*
D03*
Y35443D02*
D03*
D74*
X26811Y38770D02*
D03*
D75*
X30080Y57785D02*
D03*
X28506Y53415D02*
D03*
X28820D02*
D03*
X29135D02*
D03*
X29450D02*
D03*
X29765D02*
D03*
X30080D02*
D03*
X30395D02*
D03*
X30710D02*
D03*
X31025D02*
D03*
X31340D02*
D03*
X31655D02*
D03*
X31970D02*
D03*
X32285D02*
D03*
X32600D02*
D03*
X32915D02*
D03*
X33230D02*
D03*
X33545D02*
D03*
X33860D02*
D03*
X34175D02*
D03*
X34490D02*
D03*
X34805D02*
D03*
X35120D02*
D03*
X35435D02*
D03*
X35750D02*
D03*
X36065D02*
D03*
X36380D02*
D03*
X36694D02*
D03*
X28506Y57785D02*
D03*
X28820D02*
D03*
X29135D02*
D03*
X29450D02*
D03*
X29765D02*
D03*
X30395D02*
D03*
X30710D02*
D03*
X31025D02*
D03*
X31340D02*
D03*
X31655D02*
D03*
X31970D02*
D03*
X32285D02*
D03*
X32600D02*
D03*
X32915D02*
D03*
X33230D02*
D03*
X33545D02*
D03*
X33860D02*
D03*
X34175D02*
D03*
X34490D02*
D03*
X34805D02*
D03*
X35120D02*
D03*
X35435D02*
D03*
X35750D02*
D03*
X36065D02*
D03*
X36380D02*
D03*
X36694D02*
D03*
X73072D02*
D03*
X72757D02*
D03*
X72443D02*
D03*
X72128D02*
D03*
X71813D02*
D03*
X71498D02*
D03*
X71183D02*
D03*
X70868D02*
D03*
X70553D02*
D03*
X70238D02*
D03*
X69923D02*
D03*
X69608D02*
D03*
X69293D02*
D03*
X68978D02*
D03*
X68663D02*
D03*
X68348D02*
D03*
X68033D02*
D03*
X67718D02*
D03*
X67403D02*
D03*
X67088D02*
D03*
X66773D02*
D03*
X66458D02*
D03*
X66143D02*
D03*
X65828D02*
D03*
X65513D02*
D03*
X65198D02*
D03*
X64883D02*
D03*
X73072Y53415D02*
D03*
X72757D02*
D03*
X72443D02*
D03*
X72128D02*
D03*
X71813D02*
D03*
X71498D02*
D03*
X71183D02*
D03*
X70868D02*
D03*
X70553D02*
D03*
X70238D02*
D03*
X69923D02*
D03*
X69608D02*
D03*
X69293D02*
D03*
X68978D02*
D03*
X68663D02*
D03*
X68348D02*
D03*
X68033D02*
D03*
X67718D02*
D03*
X67403D02*
D03*
X67088D02*
D03*
X66773D02*
D03*
X66458D02*
D03*
X66143D02*
D03*
X65828D02*
D03*
X65513D02*
D03*
X65198D02*
D03*
X64883D02*
D03*
X60946Y57785D02*
D03*
X60631D02*
D03*
X60317D02*
D03*
X60002D02*
D03*
X59687D02*
D03*
X59372D02*
D03*
X59057D02*
D03*
X58742D02*
D03*
X58427D02*
D03*
X58112D02*
D03*
X57797D02*
D03*
X57482D02*
D03*
X57167D02*
D03*
X56852D02*
D03*
X56537D02*
D03*
X56222D02*
D03*
X55907D02*
D03*
X55592D02*
D03*
X55277D02*
D03*
X54962D02*
D03*
X54647D02*
D03*
X54332D02*
D03*
X54017D02*
D03*
X53702D02*
D03*
X53387D02*
D03*
X53072D02*
D03*
X52757D02*
D03*
X60946Y53415D02*
D03*
X60631D02*
D03*
X60317D02*
D03*
X60002D02*
D03*
X59687D02*
D03*
X59372D02*
D03*
X59057D02*
D03*
X58742D02*
D03*
X58427D02*
D03*
X58112D02*
D03*
X57797D02*
D03*
X57482D02*
D03*
X57167D02*
D03*
X56852D02*
D03*
X56537D02*
D03*
X56222D02*
D03*
X55907D02*
D03*
X55592D02*
D03*
X55277D02*
D03*
X54962D02*
D03*
X54647D02*
D03*
X54332D02*
D03*
X54017D02*
D03*
X53702D02*
D03*
X53387D02*
D03*
X53072D02*
D03*
X52757D02*
D03*
X40631D02*
D03*
X40946D02*
D03*
X41261D02*
D03*
X41576D02*
D03*
X41891D02*
D03*
X42206D02*
D03*
X42521D02*
D03*
X42836D02*
D03*
X43151D02*
D03*
X43466D02*
D03*
X43781D02*
D03*
X44096D02*
D03*
X44411D02*
D03*
X44726D02*
D03*
X45041D02*
D03*
X45356D02*
D03*
X45671D02*
D03*
X45986D02*
D03*
X46301D02*
D03*
X46616D02*
D03*
X46931D02*
D03*
X47246D02*
D03*
X47561D02*
D03*
X47876D02*
D03*
X48191D02*
D03*
X48506D02*
D03*
X48820D02*
D03*
X40631Y57785D02*
D03*
X40946D02*
D03*
X41261D02*
D03*
X41576D02*
D03*
X41891D02*
D03*
X42206D02*
D03*
X42521D02*
D03*
X42836D02*
D03*
X43151D02*
D03*
X43466D02*
D03*
X43781D02*
D03*
X44096D02*
D03*
X44411D02*
D03*
X44726D02*
D03*
X45041D02*
D03*
X45356D02*
D03*
X45671D02*
D03*
X45986D02*
D03*
X46301D02*
D03*
X46616D02*
D03*
X46931D02*
D03*
X47246D02*
D03*
X47561D02*
D03*
X47876D02*
D03*
X48191D02*
D03*
X48506D02*
D03*
X48820D02*
D03*
D76*
X44508Y35039D02*
D03*
Y34724D02*
D03*
Y34409D02*
D03*
Y34094D02*
D03*
Y33780D02*
D03*
Y33465D02*
D03*
Y33150D02*
D03*
Y32835D02*
D03*
Y32520D02*
D03*
Y32205D02*
D03*
Y31890D02*
D03*
X49193Y35039D02*
D03*
Y34724D02*
D03*
Y34409D02*
D03*
Y34094D02*
D03*
Y33780D02*
D03*
Y33465D02*
D03*
Y33150D02*
D03*
Y32835D02*
D03*
Y32520D02*
D03*
Y32205D02*
D03*
Y31890D02*
D03*
D77*
X45276Y31122D02*
D03*
X45591D02*
D03*
X45906D02*
D03*
X46220D02*
D03*
X46535D02*
D03*
X46850D02*
D03*
X47165D02*
D03*
X47480D02*
D03*
X47795D02*
D03*
X48110D02*
D03*
X48425D02*
D03*
X45276Y35807D02*
D03*
X45591D02*
D03*
X45906D02*
D03*
X46220D02*
D03*
X47165D02*
D03*
X47480D02*
D03*
X47795D02*
D03*
X48110D02*
D03*
X48425D02*
D03*
X46850D02*
D03*
X46535D02*
D03*
D78*
X39862Y32854D02*
D03*
X41862D02*
D03*
Y31201D02*
D03*
X39862D02*
D03*
D79*
X72175Y39923D02*
D03*
Y39423D02*
D03*
Y38923D02*
D03*
Y38423D02*
D03*
X74282Y39923D02*
D03*
Y39423D02*
D03*
Y38923D02*
D03*
Y38423D02*
D03*
D80*
X26535Y47736D02*
D03*
Y49626D02*
D03*
X25945Y47736D02*
D03*
Y49626D02*
D03*
D81*
X26949Y47992D02*
D03*
Y48189D02*
D03*
Y48386D02*
D03*
Y48583D02*
D03*
Y48780D02*
D03*
Y48976D02*
D03*
Y49173D02*
D03*
X25531Y47992D02*
D03*
Y48189D02*
D03*
Y48386D02*
D03*
Y48583D02*
D03*
Y48780D02*
D03*
Y48976D02*
D03*
Y49173D02*
D03*
Y49370D02*
D03*
X26949D02*
D03*
D82*
X22972Y44250D02*
D03*
Y44750D02*
D03*
Y45250D02*
D03*
Y45750D02*
D03*
Y46250D02*
D03*
Y46750D02*
D03*
Y47250D02*
D03*
Y47750D02*
D03*
Y48250D02*
D03*
Y48750D02*
D03*
Y49250D02*
D03*
Y49750D02*
D03*
Y50250D02*
D03*
Y50750D02*
D03*
Y51250D02*
D03*
D83*
Y41750D02*
D03*
Y41250D02*
D03*
Y40750D02*
D03*
Y40250D02*
D03*
Y39750D02*
D03*
Y39250D02*
D03*
Y38750D02*
D03*
D84*
X21083Y54508D02*
D03*
Y35492D02*
D03*
D85*
X62323Y33031D02*
D03*
Y32531D02*
D03*
Y34032D02*
D03*
Y32032D02*
D03*
Y33531D02*
D03*
X27008Y31783D02*
D03*
Y33283D02*
D03*
Y31283D02*
D03*
Y32783D02*
D03*
Y32283D02*
D03*
D86*
X64291Y33031D02*
D03*
X25039Y32283D02*
D03*
D87*
X33110Y32323D02*
D03*
X32008D02*
D03*
D88*
X37717Y44646D02*
D03*
X38819D02*
D03*
X49764Y44685D02*
D03*
X50866D02*
D03*
X61772Y44528D02*
D03*
X62874D02*
D03*
X73346Y41811D02*
D03*
X72244D02*
D03*
X37559Y48386D02*
D03*
X38661D02*
D03*
X63346Y48268D02*
D03*
X62244D02*
D03*
X59213Y32008D02*
D03*
X60315D02*
D03*
X59213Y34094D02*
D03*
X60315D02*
D03*
X29843Y33465D02*
D03*
X28740D02*
D03*
X29606Y31496D02*
D03*
X28504D02*
D03*
D89*
X30551Y42480D02*
D03*
Y41378D02*
D03*
X74134Y44567D02*
D03*
Y43465D02*
D03*
X70669Y39626D02*
D03*
Y38524D02*
D03*
D90*
X40800Y42697D02*
D03*
X40000D02*
D03*
X52887Y42677D02*
D03*
X52087D02*
D03*
X65013Y42638D02*
D03*
X64213D02*
D03*
X28674Y42717D02*
D03*
X27874D02*
D03*
X55302Y35748D02*
D03*
X56102D02*
D03*
X27461Y45558D02*
D03*
Y46358D02*
D03*
X39567Y45696D02*
D03*
Y46496D02*
D03*
X51693Y45696D02*
D03*
Y46496D02*
D03*
X63819Y45617D02*
D03*
Y46417D02*
D03*
D91*
X75094Y48512D02*
D03*
X74094D02*
D03*
X75094Y49512D02*
D03*
X74094D02*
D03*
X75094Y50512D02*
D03*
X63598Y49811D02*
D03*
X62598D02*
D03*
X63598Y50811D02*
D03*
X62598D02*
D03*
X63598Y51811D02*
D03*
X51236Y49378D02*
D03*
X50236D02*
D03*
X51236Y50378D02*
D03*
X50236D02*
D03*
X51236Y51378D02*
D03*
X39228Y49654D02*
D03*
X38228D02*
D03*
X39228Y50654D02*
D03*
X38228D02*
D03*
X39228Y51654D02*
D03*
X26295Y58465D02*
D03*
X25295Y57465D02*
D03*
X26295D02*
D03*
X25295Y56465D02*
D03*
X26295D02*
D03*
X25295Y55465D02*
D03*
X26295D02*
D03*
X25295Y54465D02*
D03*
X26295D02*
D03*
X25295Y53465D02*
D03*
X26295D02*
D03*
X25295Y52465D02*
D03*
X26295D02*
D03*
D92*
X74094Y50512D02*
D03*
X62598Y51811D02*
D03*
X50236Y51378D02*
D03*
X38228Y51654D02*
D03*
X25295Y58465D02*
D03*
D93*
X51654Y32441D02*
D03*
X55591D02*
D03*
D94*
X73819Y31890D02*
D03*
Y34390D02*
D03*
Y35640D02*
D03*
X67569D02*
D03*
X67619Y31890D02*
D03*
D95*
X80000Y32500D02*
D03*
D96*
Y57500D02*
D03*
X22500Y32500D02*
D03*
Y57500D02*
D03*
D97*
X81500Y36500D02*
D03*
Y39500D02*
D03*
X78500Y36500D02*
D03*
Y37500D02*
D03*
Y39500D02*
D03*
Y38500D02*
D03*
X81500Y46500D02*
D03*
Y49500D02*
D03*
X78500Y46500D02*
D03*
Y47500D02*
D03*
Y49500D02*
D03*
Y48500D02*
D03*
X81500Y40500D02*
D03*
Y43500D02*
D03*
X78500Y40500D02*
D03*
Y41500D02*
D03*
Y43500D02*
D03*
Y42500D02*
D03*
X81500Y50500D02*
D03*
Y53500D02*
D03*
X78500Y50500D02*
D03*
Y51500D02*
D03*
Y53500D02*
D03*
Y52500D02*
D03*
X22972Y52427D02*
D03*
Y37573D02*
D03*
D98*
X49970Y34242D02*
D03*
X59675Y35738D02*
D03*
X59833Y35384D02*
D03*
X50846Y33986D02*
D03*
X52402Y44488D02*
D03*
X57175Y44793D02*
D03*
X50404Y44134D02*
D03*
X51368Y43976D02*
D03*
X66339Y41575D02*
D03*
X60443Y38957D02*
D03*
X60443Y38652D02*
D03*
X66772Y40915D02*
D03*
X62490Y38612D02*
D03*
X49400Y41634D02*
D03*
X49921Y41417D02*
D03*
X48189Y40984D02*
D03*
X35531Y38976D02*
D03*
X35138D02*
D03*
X60787Y50344D02*
D03*
X59478Y49035D02*
D03*
X38287Y37402D02*
D03*
Y37795D02*
D03*
X34744Y38583D02*
D03*
X34350D02*
D03*
X40472Y38012D02*
D03*
X40108Y37992D02*
D03*
X39518Y37913D02*
D03*
X37894Y37008D02*
D03*
X40886Y37874D02*
D03*
X51260Y34094D02*
D03*
X51240Y32303D02*
D03*
X52057Y32333D02*
D03*
X53081Y32382D02*
D03*
X53622Y32323D02*
D03*
X54400Y32333D02*
D03*
X55197Y32343D02*
D03*
X56407Y31604D02*
D03*
X52785Y32421D02*
D03*
X50689Y31555D02*
D03*
X53622Y33947D02*
D03*
X54429Y34163D02*
D03*
X52087Y34104D02*
D03*
X51713Y34272D02*
D03*
X48976Y46073D02*
D03*
X61063Y46142D02*
D03*
X39980Y34744D02*
D03*
X36378Y33780D02*
D03*
X36516Y34311D02*
D03*
X35866Y33681D02*
D03*
X35000Y32795D02*
D03*
X28839Y34626D02*
D03*
X28563Y41634D02*
D03*
X62795Y35669D02*
D03*
X52323Y41516D02*
D03*
X49016Y35669D02*
D03*
X48583Y41083D02*
D03*
X39252Y33228D02*
D03*
X37598Y31024D02*
D03*
X48976Y45079D02*
D03*
X48465Y34567D02*
D03*
X40728Y44370D02*
D03*
X40492Y32441D02*
D03*
X37165Y31634D02*
D03*
X22402Y56043D02*
D03*
X31811Y42835D02*
D03*
X31457Y41201D02*
D03*
X23740Y49744D02*
D03*
X23711Y48750D02*
D03*
X23719Y48250D02*
D03*
X23720Y47776D02*
D03*
X23740Y45748D02*
D03*
X23701Y46240D02*
D03*
Y46772D02*
D03*
X23583Y45236D02*
D03*
X23622Y44744D02*
D03*
X23583Y44232D02*
D03*
X23624Y41750D02*
D03*
X23589Y40250D02*
D03*
X23563Y38740D02*
D03*
X28041Y38258D02*
D03*
X28976Y35630D02*
D03*
X28839Y35236D02*
D03*
X28868Y37490D02*
D03*
X30049Y37234D02*
D03*
X28927Y36978D02*
D03*
X30118Y36752D02*
D03*
X26280Y38760D02*
D03*
X27362Y38504D02*
D03*
X26220Y38091D02*
D03*
X27382Y37106D02*
D03*
X26289Y36211D02*
D03*
X27392Y35955D02*
D03*
X26201Y35689D02*
D03*
X25807Y37933D02*
D03*
X26250Y37490D02*
D03*
X25492Y35689D02*
D03*
X25482Y39793D02*
D03*
X73071Y45669D02*
D03*
X76181Y46398D02*
D03*
X76043Y52402D02*
D03*
X76083Y42343D02*
D03*
Y36181D02*
D03*
X74282Y40285D02*
D03*
X74862Y38917D02*
D03*
X72872Y38423D02*
D03*
X71535Y39921D02*
D03*
X46220Y31772D02*
D03*
X46850Y31752D02*
D03*
X48543Y32520D02*
D03*
X49764Y32835D02*
D03*
X48110Y35177D02*
D03*
X51181Y41280D02*
D03*
X51378Y40984D02*
D03*
X60925Y45669D02*
D03*
X46968Y40984D02*
D03*
X39390Y32126D02*
D03*
Y31673D02*
D03*
X71459Y38423D02*
D03*
X74980Y37598D02*
D03*
X76752Y48209D02*
D03*
X74961Y39429D02*
D03*
X71510Y39423D02*
D03*
X43150Y34921D02*
D03*
X47480D02*
D03*
X47165Y34665D02*
D03*
X41693Y34488D02*
D03*
X32559Y41280D02*
D03*
X32264Y38976D02*
D03*
X32756Y36457D02*
D03*
X40354Y32854D02*
D03*
X49744Y40925D02*
D03*
Y35866D02*
D03*
X45098Y34094D02*
D03*
X37303Y33740D02*
D03*
X36909Y33504D02*
D03*
X43780Y32776D02*
D03*
X43760Y33169D02*
D03*
X46201Y34685D02*
D03*
X46535Y35118D02*
D03*
X50295Y35315D02*
D03*
X38917Y33071D02*
D03*
X36831Y31614D02*
D03*
X57815Y34665D02*
D03*
X51201Y35256D02*
D03*
X24134Y42461D02*
D03*
X28248Y59075D02*
D03*
X62421D02*
D03*
X50295D02*
D03*
X38110D02*
D03*
X36240Y51201D02*
D03*
X48366D02*
D03*
X60492D02*
D03*
X74350Y59075D02*
D03*
X72480Y51654D02*
D03*
X59724Y51161D02*
D03*
X60551Y51654D02*
D03*
X49094Y52028D02*
D03*
X35748Y51496D02*
D03*
X60098Y56004D02*
D03*
X62323Y58287D02*
D03*
X29016Y58622D02*
D03*
X48307Y51890D02*
D03*
X64213Y57736D02*
D03*
X50610Y41398D02*
D03*
X64291Y41594D02*
D03*
X38268Y44016D02*
D03*
X27854Y42047D02*
D03*
X38583Y34350D02*
D03*
X38327Y34193D02*
D03*
X38543Y33268D02*
D03*
X35531Y32736D02*
D03*
X36732Y32047D02*
D03*
X41594Y35531D02*
D03*
X32264Y41516D02*
D03*
X76181Y57815D02*
D03*
X76102Y56102D02*
D03*
X39823Y38780D02*
D03*
X76644Y34370D02*
D03*
X76663Y31772D02*
D03*
X38937Y34331D02*
D03*
X37303Y34232D02*
D03*
X72774Y39923D02*
D03*
X43917Y33425D02*
D03*
X41280Y31339D02*
D03*
X37697Y41220D02*
D03*
X59528Y41398D02*
D03*
X56850Y38720D02*
D03*
X25945Y47283D02*
D03*
X26713Y50039D02*
D03*
X25846Y49961D02*
D03*
X27283Y48780D02*
D03*
X27343Y48386D02*
D03*
X26457Y50709D02*
D03*
X27323Y49508D02*
D03*
X27382Y49173D02*
D03*
X27480Y50650D02*
D03*
X25098Y49606D02*
D03*
X26494Y51179D02*
D03*
X24941Y48878D02*
D03*
X25492Y49921D02*
D03*
X25157Y46890D02*
D03*
X24961Y47874D02*
D03*
X24980Y48248D02*
D03*
X25000Y48583D02*
D03*
X24469Y49665D02*
D03*
X25768Y50492D02*
D03*
X24862Y49783D02*
D03*
X27362Y47992D02*
D03*
X28425Y47677D02*
D03*
X46476Y33465D02*
D03*
X46240Y32736D02*
D03*
D99*
X65354Y31969D02*
D03*
X65374Y34173D02*
D03*
X64606Y34154D02*
D03*
X64587Y31949D02*
D03*
X24980Y33406D02*
D03*
X24961Y31201D02*
D03*
X24193Y31181D02*
D03*
X24213Y33386D02*
D03*
X27626Y32783D02*
D03*
X28740Y34183D02*
D03*
X29852Y34163D02*
D03*
X30482Y31496D02*
D03*
X29587Y32195D02*
D03*
X27589Y31457D02*
D03*
X26309Y31781D02*
D03*
X26319Y31100D02*
D03*
X27008Y33770D02*
D03*
X25620Y33268D02*
D03*
X23996Y32283D02*
D03*
X26299D02*
D03*
X31398Y32303D02*
D03*
X33671Y32313D02*
D03*
X58858Y34941D02*
D03*
X60640Y34931D02*
D03*
X61618Y34032D02*
D03*
X62362Y35167D02*
D03*
X61575Y32008D02*
D03*
X62323Y31594D02*
D03*
X63947Y31407D02*
D03*
X58100Y31417D02*
D03*
X57559Y33976D02*
D03*
X57313Y31535D02*
D03*
X61732Y33081D02*
D03*
D100*
X32677Y42087D02*
D03*
X32913Y42323D02*
D03*
X33150Y42559D02*
D03*
X33386Y42795D02*
D03*
X33622Y43032D02*
D03*
X33858Y43268D02*
D03*
X27461Y47106D02*
D03*
X37362Y47244D02*
D03*
X37992Y47205D02*
D03*
X37677Y53071D02*
D03*
X38071Y55669D02*
D03*
X38110Y56457D02*
D03*
X37323Y58701D02*
D03*
X29291Y51457D02*
D03*
X28898Y52441D02*
D03*
X28622Y52835D02*
D03*
X29134Y57165D02*
D03*
Y55276D02*
D03*
X29765Y56419D02*
D03*
X28189Y55197D02*
D03*
X28819Y56968D02*
D03*
X30394Y54016D02*
D03*
X35728Y57185D02*
D03*
X34843Y57087D02*
D03*
X34175Y58348D02*
D03*
X33858Y57244D02*
D03*
X33543Y57126D02*
D03*
X32915Y57124D02*
D03*
X32283Y57165D02*
D03*
X31970Y55592D02*
D03*
X30433Y55236D02*
D03*
X30315Y54331D02*
D03*
X30079Y56811D02*
D03*
X31339Y57087D02*
D03*
X30787Y56063D02*
D03*
Y51890D02*
D03*
X31181Y54094D02*
D03*
X31063Y52323D02*
D03*
X30807Y51280D02*
D03*
X36380Y57049D02*
D03*
X31299Y51378D02*
D03*
X30413Y57087D02*
D03*
X34252Y52854D02*
D03*
X33563Y56201D02*
D03*
X34646Y54232D02*
D03*
X32185Y52657D02*
D03*
X32579D02*
D03*
X32677Y52264D02*
D03*
X37000Y57750D02*
D03*
Y53500D02*
D03*
X28500Y57300D02*
D03*
X28506Y53944D02*
D03*
X32600Y53950D02*
D03*
X33250D02*
D03*
X35250Y54000D02*
D03*
X35900D02*
D03*
X32500Y58300D02*
D03*
X33200D02*
D03*
X35120Y58320D02*
D03*
X36000Y58350D02*
D03*
X32441Y41850D02*
D03*
X28622Y44744D02*
D03*
X28209Y44094D02*
D03*
X39567Y47165D02*
D03*
X49488Y47244D02*
D03*
X49803Y53071D02*
D03*
X50236Y56457D02*
D03*
X50197Y55669D02*
D03*
X49449Y58701D02*
D03*
X40335Y44094D02*
D03*
X50118Y47205D02*
D03*
X42913Y51890D02*
D03*
Y56063D02*
D03*
X43425Y51378D02*
D03*
X48506Y57049D02*
D03*
X46772Y54232D02*
D03*
X45689Y56201D02*
D03*
X44311Y52657D02*
D03*
X45984Y57244D02*
D03*
X44803Y52264D02*
D03*
X45041Y57124D02*
D03*
X42539Y57087D02*
D03*
X47854Y57185D02*
D03*
X44705Y52657D02*
D03*
X46968Y57087D02*
D03*
X45669Y57126D02*
D03*
X42520Y54016D02*
D03*
X41417Y51457D02*
D03*
X41024Y52441D02*
D03*
X40748Y52835D02*
D03*
X40315Y55197D02*
D03*
X40945Y56968D02*
D03*
X41260Y57165D02*
D03*
Y55276D02*
D03*
X41891Y56419D02*
D03*
X42933Y51280D02*
D03*
X44409Y57165D02*
D03*
X43189Y52323D02*
D03*
X44096Y55592D02*
D03*
X42205Y56811D02*
D03*
X43307Y54094D02*
D03*
X44567Y41850D02*
D03*
X45039Y42323D02*
D03*
X45512Y42795D02*
D03*
X45984Y43268D02*
D03*
X40748Y44744D02*
D03*
X42559Y55236D02*
D03*
X42441Y54331D02*
D03*
X43465Y57087D02*
D03*
X44803Y42087D02*
D03*
X45276Y42559D02*
D03*
X45748Y43032D02*
D03*
X49126Y57750D02*
D03*
X48126Y58350D02*
D03*
X47246Y58320D02*
D03*
X46301Y58348D02*
D03*
X45326Y58300D02*
D03*
X44626D02*
D03*
X40626Y57300D02*
D03*
X49126Y53500D02*
D03*
X48026Y54000D02*
D03*
X47376D02*
D03*
X46378Y52854D02*
D03*
X45376Y53950D02*
D03*
X44726D02*
D03*
X40631Y53944D02*
D03*
X61252Y57750D02*
D03*
X55551Y51378D02*
D03*
X60252Y58350D02*
D03*
X59980Y57185D02*
D03*
X58898Y54232D02*
D03*
X59372Y58320D02*
D03*
X56831Y52657D02*
D03*
X59094Y57087D02*
D03*
X57815Y56201D02*
D03*
X58427Y58348D02*
D03*
X56437Y52657D02*
D03*
X58110Y57244D02*
D03*
X57795Y57126D02*
D03*
X57452Y58300D02*
D03*
X56929Y52264D02*
D03*
X57167Y57124D02*
D03*
X56752Y58300D02*
D03*
X56535Y57165D02*
D03*
X56222Y55592D02*
D03*
X54567Y54331D02*
D03*
X55591Y57087D02*
D03*
X52874Y44744D02*
D03*
X54685Y55236D02*
D03*
X55039Y51890D02*
D03*
Y56063D02*
D03*
X54665Y57087D02*
D03*
X54331Y56811D02*
D03*
X54017Y56419D02*
D03*
X53386Y57165D02*
D03*
Y55276D02*
D03*
X52441Y55197D02*
D03*
X53071Y56968D02*
D03*
X52752Y57300D02*
D03*
X61252Y53500D02*
D03*
X60152Y54000D02*
D03*
X59502D02*
D03*
X58504Y52854D02*
D03*
X57502Y53950D02*
D03*
X56852D02*
D03*
X55059Y51280D02*
D03*
X55315Y52323D02*
D03*
X55433Y54094D02*
D03*
X54646Y54016D02*
D03*
X53543Y51457D02*
D03*
X53150Y52441D02*
D03*
X52874Y52835D02*
D03*
X52757Y53944D02*
D03*
X56693Y41850D02*
D03*
X57165Y42323D02*
D03*
X57638Y42795D02*
D03*
X58110Y43268D02*
D03*
X56929Y42087D02*
D03*
X57402Y42559D02*
D03*
X57874Y43032D02*
D03*
X58346Y43504D02*
D03*
X62244Y47205D02*
D03*
X61575Y58701D02*
D03*
X62323Y55669D02*
D03*
X62362Y56457D02*
D03*
X61929Y53071D02*
D03*
X61614Y47244D02*
D03*
X51693Y47165D02*
D03*
X73378Y57750D02*
D03*
X67677Y51378D02*
D03*
X72757Y57049D02*
D03*
X72378Y58350D02*
D03*
X72106Y57185D02*
D03*
X71024Y54232D02*
D03*
X71498Y58320D02*
D03*
X68957Y52657D02*
D03*
X71220Y57087D02*
D03*
X69941Y56201D02*
D03*
X70553Y58348D02*
D03*
X68563Y52657D02*
D03*
X70236Y57244D02*
D03*
X69921Y57126D02*
D03*
X69578Y58300D02*
D03*
X69055Y52264D02*
D03*
X69293Y57124D02*
D03*
X68878Y58300D02*
D03*
X68661Y57165D02*
D03*
X68348Y55592D02*
D03*
X66693Y54331D02*
D03*
X67717Y57087D02*
D03*
X66811Y55236D02*
D03*
X67165Y51890D02*
D03*
Y56063D02*
D03*
X66791Y57087D02*
D03*
X66457Y56811D02*
D03*
X66143Y56419D02*
D03*
X65512Y57165D02*
D03*
Y55276D02*
D03*
X64567Y55197D02*
D03*
X65197Y56968D02*
D03*
X64878Y57300D02*
D03*
X73378Y53500D02*
D03*
X72278Y54000D02*
D03*
X71628D02*
D03*
X70630Y52854D02*
D03*
X69628Y53950D02*
D03*
X68978D02*
D03*
X67185Y51280D02*
D03*
X67441Y52323D02*
D03*
X67559Y54094D02*
D03*
X66772Y54016D02*
D03*
X65669Y51457D02*
D03*
X65276Y52441D02*
D03*
X65000Y52835D02*
D03*
X64883Y53944D02*
D03*
X68819Y41850D02*
D03*
X69291Y42323D02*
D03*
X69764Y42795D02*
D03*
X70236Y43268D02*
D03*
X64587Y44094D02*
D03*
X69055Y42087D02*
D03*
X69528Y42559D02*
D03*
X70000Y43032D02*
D03*
X74370Y47205D02*
D03*
X73701Y58701D02*
D03*
X74449Y55669D02*
D03*
X74488Y56457D02*
D03*
X74055Y53071D02*
D03*
X73740Y47244D02*
D03*
X63819Y47165D02*
D03*
D101*
X30551Y40650D02*
D03*
X30531Y43169D02*
D03*
X39390Y48386D02*
D03*
X36870Y48366D02*
D03*
X64016Y48209D02*
D03*
X61575Y48287D02*
D03*
X74449Y45256D02*
D03*
X74094Y42756D02*
D03*
D102*
X63474Y44528D02*
D03*
X61772Y44980D02*
D03*
X61782Y44016D02*
D03*
X49764Y44232D02*
D03*
X51417Y44980D02*
D03*
X37707Y44045D02*
D03*
X38819Y45098D02*
D03*
X73642Y42313D02*
D03*
X72569Y41348D02*
D03*
M02*
