%FSLAX24Y24*%
%MOIN*%
G70*
G01*
G75*
G04 Layer_Color=128*
G04 Layer_Color=128*
%ADD10R,0.0630X0.0709*%
%ADD11R,0.0600X0.0300*%
%ADD12R,0.1400X0.1000*%
%ADD13R,0.1024X0.0945*%
%ADD14R,0.1732X0.1441*%
%ADD15R,0.0827X0.0354*%
%ADD16R,0.0827X0.0354*%
%ADD17O,0.0394X0.0110*%
%ADD18O,0.0110X0.0394*%
%ADD19C,0.0177*%
%ADD20C,0.0197*%
%ADD21R,0.0197X0.0748*%
%ADD22R,0.0512X0.0630*%
%ADD23R,0.0866X0.0787*%
%ADD24R,0.0807X0.0236*%
%ADD25R,0.0197X0.0591*%
%ADD26R,0.0630X0.0512*%
%ADD27R,0.0551X0.0787*%
%ADD28R,0.0748X0.0197*%
%ADD29R,0.0669X0.0177*%
%ADD30R,0.0669X0.0177*%
%ADD31R,0.0394X0.0433*%
%ADD32R,0.0433X0.0394*%
%ADD33R,0.0709X0.0630*%
%ADD34R,0.0945X0.1024*%
%ADD35R,0.0787X0.0866*%
%ADD36C,0.0400*%
%ADD37R,0.0394X0.1083*%
%ADD38C,0.0070*%
%ADD39C,0.0200*%
%ADD40C,0.0100*%
%ADD41C,0.0090*%
%ADD42C,0.0060*%
%ADD43C,0.0160*%
%ADD44C,0.0250*%
%ADD45C,0.0300*%
%ADD46C,0.0120*%
%ADD47C,0.0600*%
%ADD48C,0.0591*%
%ADD49R,0.0591X0.0591*%
%ADD50C,0.1732*%
%ADD51C,0.1732*%
%ADD52C,0.0800*%
%ADD53C,0.0433*%
%ADD54C,0.0200*%
%ADD55C,0.0240*%
%ADD56C,0.0212*%
%ADD57C,0.0350*%
%ADD58C,0.0080*%
%ADD59R,0.0354X0.0276*%
%ADD60R,0.0276X0.0354*%
%ADD61C,0.0140*%
%ADD62C,0.0098*%
%ADD63C,0.0079*%
%ADD64C,0.0050*%
%ADD65R,0.1575X0.0098*%
D31*
X27087Y31319D02*
D03*
Y31988D02*
D03*
X62362Y33917D02*
D03*
Y34587D02*
D03*
D32*
X32047Y49213D02*
D03*
X32717D02*
D03*
X44173D02*
D03*
X44843D02*
D03*
X56299D02*
D03*
X56968D02*
D03*
X68425D02*
D03*
X69094D02*
D03*
X31161Y45669D02*
D03*
X30491D02*
D03*
X43287D02*
D03*
X42617D02*
D03*
X55413D02*
D03*
X54743D02*
D03*
X67539D02*
D03*
X66869D02*
D03*
X34606Y49606D02*
D03*
X33936D02*
D03*
X46732D02*
D03*
X46062D02*
D03*
X58858D02*
D03*
X58188D02*
D03*
X70984D02*
D03*
X70314D02*
D03*
X32815Y45276D02*
D03*
X32146D02*
D03*
X44941D02*
D03*
X44272D02*
D03*
X57067D02*
D03*
X56398D02*
D03*
X69193D02*
D03*
X68524D02*
D03*
D59*
X26633Y33268D02*
D03*
X26121D02*
D03*
X62933Y31614D02*
D03*
X63445D02*
D03*
X31831Y48228D02*
D03*
X31320D02*
D03*
X43957D02*
D03*
X43446D02*
D03*
X56083D02*
D03*
X55571D02*
D03*
X68209D02*
D03*
X67697D02*
D03*
X30275Y47146D02*
D03*
X30787D02*
D03*
X42401D02*
D03*
X42913D02*
D03*
X54527D02*
D03*
X55039D02*
D03*
X66653D02*
D03*
X67165D02*
D03*
X33012Y46161D02*
D03*
X33524D02*
D03*
X45138D02*
D03*
X45650D02*
D03*
X57264D02*
D03*
X57776D02*
D03*
X69390D02*
D03*
X69902D02*
D03*
X27224Y36319D02*
D03*
X26713D02*
D03*
X35944Y36150D02*
D03*
X36456D02*
D03*
X37146Y36614D02*
D03*
X36634D02*
D03*
X35571Y39370D02*
D03*
X35059D02*
D03*
X36673Y38976D02*
D03*
X37185D02*
D03*
X36280Y34744D02*
D03*
X35768D02*
D03*
X34213Y37106D02*
D03*
X33701D02*
D03*
X33996Y37795D02*
D03*
X34508D02*
D03*
X37854Y34528D02*
D03*
X37343D02*
D03*
X74056Y38583D02*
D03*
X73544D02*
D03*
X35262Y57800D02*
D03*
X35773D02*
D03*
X47388D02*
D03*
X47899D02*
D03*
X59514D02*
D03*
X60025D02*
D03*
X71640D02*
D03*
X72151D02*
D03*
X33056D02*
D03*
X32544D02*
D03*
X45182D02*
D03*
X44670D02*
D03*
X57308D02*
D03*
X56796D02*
D03*
X69434D02*
D03*
X68922D02*
D03*
X32744Y53400D02*
D03*
X33256D02*
D03*
X44870D02*
D03*
X45382D02*
D03*
X56996D02*
D03*
X57508D02*
D03*
X69122D02*
D03*
X69634D02*
D03*
X35738D02*
D03*
X35227D02*
D03*
X47864D02*
D03*
X47353D02*
D03*
X59990D02*
D03*
X59479D02*
D03*
X72116D02*
D03*
X71605D02*
D03*
D60*
X79429Y37755D02*
D03*
Y38267D02*
D03*
X34252Y48957D02*
D03*
Y48446D02*
D03*
X46378Y48957D02*
D03*
Y48446D02*
D03*
X58504Y48957D02*
D03*
Y48446D02*
D03*
X70630Y48957D02*
D03*
Y48446D02*
D03*
X33661Y47204D02*
D03*
Y47716D02*
D03*
X45787Y47204D02*
D03*
Y47716D02*
D03*
X57913Y47204D02*
D03*
Y47716D02*
D03*
X29429Y36752D02*
D03*
Y37264D02*
D03*
X37500Y36994D02*
D03*
Y37506D02*
D03*
X35512Y38642D02*
D03*
Y38130D02*
D03*
X34449Y36673D02*
D03*
Y36161D02*
D03*
X37894Y35177D02*
D03*
Y35689D02*
D03*
X39200Y37894D02*
D03*
Y38406D02*
D03*
X39450Y36394D02*
D03*
Y36906D02*
D03*
X35450Y36394D02*
D03*
Y36906D02*
D03*
X79331Y47696D02*
D03*
Y48208D02*
D03*
X70118Y47776D02*
D03*
Y47264D02*
D03*
M02*
