M48
;Layer_Color=15461320
;FILE_FORMAT=2:4
INCH,LZ
;TYPE=PLATED
T1F00S00C0.0100
T2F00S00C0.0200
T3F00S00C0.0250
T4F00S00C0.0354
T5F00S00C0.0394
T6F00S00C0.0400
T7F00S00C0.0530
T8F00S00C0.0600
T9F00S00C0.1496
%
T01
X037598Y031024
X031161Y031102
X031219Y032442
X029193Y03313
X029094Y03376
X028839Y034626
Y035236
X028976Y03563
X028927Y036978
X028868Y03749
X030049Y037234
X030118Y036752
X027382Y037106
X027392Y035955
X026289Y036211
X026201Y035689
X025492Y035866
X025807Y037933
X02622Y038091
X02625Y03749
X02628Y03876
X027362Y038504
X028041Y038258
X025492Y039488
X023589Y04025
X023624Y04175
X024134Y042461
X023583Y044232
X023622Y044744
X023583Y045236
X02374Y045748
X023701Y04624
Y046772
X026299Y046339
X025787Y045433
X025374Y043819
X02502Y043976
X026555Y043445
Y042717
X027854Y042047
X028563Y041634
X028209Y044094
X028622Y044744
X029213Y044882
X029213Y044488
X029193Y045472
X029134Y04685
X030197Y046732
X030709Y04626
X031181Y046457
Y04685
X03122Y046063
X031024Y044783
X030512Y045079
X030197Y044764
X023563Y03874
X028071Y033977
X027047Y032362
X029154Y031752
X03376Y031299
X03374Y032382
X035Y032795
X035531Y032736
X035866Y033681
X036378Y03378
X036516Y034311
X037303Y034232
X037303Y03374
X036909Y033504
X036732Y032047
X036831Y031614
X037165Y031634
X03939Y031673
Y032126
X039252Y033228
X038917Y033071
X038543Y033268
X038583Y03435
X038937Y034331
X038327Y034193
X038287Y035039
X038287Y035827
X038287Y03622
X037894Y03622
X037894Y036614
X0375
X037106Y037008
X036713
X036319
X035925
X035925Y036614
X036319
Y037402
X036713
Y037795
X036319
Y038189
X036713
Y038583
X036319Y038583
Y038976
Y03937
X035925
X035925Y039764
X035531
Y040157
X035138
Y039764
X034744Y03937
Y040157
X03435
Y039764
X033957Y040157
X033563Y039764
X033051Y039685
X032795Y03937
X032874Y039035
X033091Y03878
X033051Y038386
X033563Y038583
Y037795
X033091Y036811
X032756Y036457
X03315Y035827
X033169Y035039
X033563
X033957
X03435Y035827
X034744Y03622
X035138
Y036614
Y037008
X034744Y037402
Y038189
X035138
Y037795
Y038583
Y038976
X035925
X035925Y038583
Y038189
Y037795
Y037402
X037106
X037894
Y037008
X038287
X038287Y037402
X038681Y037795
X038681Y038189
X038287Y038189
Y038583
Y038976
Y03937
X037894
Y038976
X0375
Y038583
X037106
X037894
X0375Y038189
Y037795
Y039764
Y040157
Y040551
X037106
X036909Y041083
X037461Y041063
X037736Y04126
X037894Y040551
X038287
X038681
X039075
X039075Y040157
X038681Y039764
X038287
X038287Y040157
X037106Y039764
Y03937
X036713Y03937
Y039764
Y040157
X036319
Y039764
X035925Y040157
Y041457
X035335Y041024
X033563Y040551
X03313Y040984
X032559Y04128
X032264Y041516
X032441Y04185
X032677Y042087
X032913Y042323
X03315Y042559
X033386Y042795
X033622Y043032
X033858Y043268
X034094Y043504
X034331Y04374
X033839Y044862
X035079Y044843
X035098Y045276
X036339Y045374
Y045079
X036083Y044665
X03622Y045669
X034764Y046496
X034213Y046457
Y046063
Y04685
X033268Y046654
X032874
X03248
X032087
X032283Y045748
X03189
X032677Y045748
X033071Y045748
X033465Y045748
X03248Y044823
X03189Y044843
X031378Y044843
X031339Y045197
X031811Y042835
X031457Y041201
X032264Y038976
X033957Y038976
X03435
X033957Y036614
X035138Y035433
X035531
X035531Y035827
X035925
X036713
X037106
Y03622
X0375Y035827
Y035433
X036713
X036319Y035039
X035335Y034587
X039469Y034646
X03998Y034744
X041693Y034488
X041594Y035531
X04315Y034921
X043917Y033425
X04376Y033169
X04378Y032776
X045138Y03252
X045276Y032205
X045433Y031909
X04622Y031772
X04685Y031752
X046201Y034685
X046535Y035118
X045098Y034094
X040354Y032854
X040492Y032441
X04128Y031339
X038681Y035433
X039075Y036614
Y037008
X039705
X040039
X039665Y037638
X039744Y037992
X040433Y038012
X039823Y03878
X039488Y040846
X040335Y044094
X040728Y04437
X040748Y044744
X041339Y044882
X041339Y044488
X041319Y045472
X04126Y04685
X042323Y046732
X042835Y04626
X043307Y046457
Y04685
X043346Y046063
X044016Y045748
X044409
X044803Y045748
X045197Y045748
X045591Y045748
X046339Y046063
Y046457
Y04685
X045394Y046654
X045
X044606
X044213
X04376Y045374
X043465Y045197
X04315Y044783
X042638Y045079
X042323Y044764
X044016Y044843
X044606Y044823
X046535Y044724
X046457Y04374
X04622Y043504
X045984Y043268
X045748Y043032
X045512Y042795
X045276Y042559
X045039Y042323
X044803Y042087
X044567Y04185
X038268Y044016
X047185Y044862
X047146Y045295
X047165Y045669
X048327Y045669
X048346Y045276
X048366Y044882
X048386Y044488
X048346Y044094
X048976Y045079
X052874Y044744
X053465Y044882
X053465Y044488
X053445Y045472
X053386Y04685
X054449Y046732
X054961Y04626
X055433Y046457
Y04685
X055472Y046063
X056142Y045748
X056535
X056929Y045748
X057323Y045748
X057717Y045748
X058465Y046063
Y046457
Y04685
X05752Y046654
X057126
X056732
X056339
X056142Y044843
X056732Y044823
X055276Y044783
X055591Y045197
X054764Y045079
X054449Y044764
X052461Y044094
X052323Y041516
X051181Y04128
X051378Y040984
X05061Y041398
X049744Y040925
X048583Y041083
X048189Y04124
X046968Y040984
X047165Y034665
X04748Y034921
X04811Y035177
X048465Y034567
X049016Y035669
X049744Y035866
X050295Y035315
X051201Y035256
X051988Y033852
X052717Y03311
X050728Y033327
X049764Y032835
X048543Y03252
X055098Y033543
X057461Y033524
X058367Y033582
X057815Y034665
X059409Y034756
X059488Y035256
X060396Y032242
X060433Y031555
X061162Y032165
X058169Y031929
X059685Y041516
X058583Y04374
X058346Y043504
X05811Y043268
X057874Y043032
X057638Y042795
X057402Y042559
X057165Y042323
X056929Y042087
X056693Y04185
X058661Y044724
X059331Y044843
X059488Y045079
X05939Y045512
X060925Y045669
X065571Y045472
X065591Y044882
X065591Y044488
X065Y044744
X064587Y044094
X066575Y044764
X06689Y045079
X067402Y044783
X067717Y045197
X068268Y044843
X068858Y044823
X069055Y045748
X068661Y045748
X068268
X067598Y046063
X067559Y046457
Y04685
X067087Y04626
X066575Y046732
X065512Y04685
X068465Y046654
X068858
X069252
X069646
X069843Y045748
X069449Y045748
X070591Y046063
Y046457
Y04685
X071496Y046476
X071476Y045709
X071201Y045453
X071614Y045079
X070787Y044724
X070709Y04374
X070472Y043504
X070236Y043268
X07Y043032
X069764Y042795
X069528Y042559
X069291Y042323
X069055Y042087
X068819Y04185
X06502Y041398
X064291Y041594
X062795Y035669
X06252Y033386
X071459Y038423
X07151Y039423
X071535Y039921
X072774Y039923
X072872Y038423
X074862Y038917
X074961Y039429
X074282Y040285
X07498Y037598
X076083Y036181
X077579Y03437
X077598Y031772
X076083Y042343
X076181Y046398
X073071Y045669
X071614Y043819
X0725Y047343
X0725Y047756
X072421Y048209
X072382Y048642
X071535Y04815
X071102Y048327
X070591Y048031
X070591Y047638
Y047244
X069646Y047047
Y047441
Y047835
X069252
Y047441
Y047047
X068858
X068465
Y047441
Y047835
X068858
Y047441
X06748Y04748
X067638Y047874
X067874Y048701
X068268Y04874
X068661
X069055Y04874
X069449Y04874
X069843
X070236Y04874
X070354Y049213
X069528
X068937Y049724
X068169Y049705
X067874Y049508
X067087Y049606
Y049016
X066575
Y048701
Y048307
Y047874
Y04748
Y049331
X066594Y049705
X067677Y050689
X067677Y051378
X067185Y05128
X067165Y05189
X067441Y052323
X068563Y052657
X068957
X069055Y052264
X068978Y05395
X069628
X071024Y054232
X071628Y054
X072278
X073378Y0535
X074055Y053071
X076043Y052402
X076102Y056102
X076181Y057815
X073378Y05775
X073701Y058701
X07435Y059075
X072378Y05835
X071498Y05832
X070553Y058348
X069578Y0583
X068878
X068661Y057165
X069293Y057124
X069921Y057126
X070236Y057244
X07122Y057087
X072106Y057185
X072757Y057049
X074488Y056457
X074449Y055669
X069941Y056201
X068348Y055592
X067165Y056063
X066811Y055236
X066693Y054331
X066772Y054016
X067559Y054094
X064883Y053944
X065Y052835
X065276Y052441
X065669Y051457
X065512Y055276
X064567Y055197
X065197Y056968
X065512Y057165
X064878Y0573
X064213Y057736
X066457Y056811
X066791Y057087
X067717
X066143Y056419
X07063Y052854
X07122Y050591
X071496Y049685
X071378Y049016
X072618Y051201
X07248Y051654
X07374Y047244
X07437Y047205
X076752Y048209
X063819Y047165
X062244Y047205
X061614Y047244
X060669Y047382
X060472Y048031
Y048425
X060472Y048819
X059409
X05939Y048425
X05937Y048031
X05937Y047638
X058465Y047638
Y047244
X058465Y048031
X05811Y04874
X057717Y04874
X057323
X056929Y04874
X056535Y04874
X056142
X055748Y048701
X055748Y049508
X056043Y049705
X056811Y049724
X057402Y049213
X058228
X05937Y049685
X059724Y051161
X060492Y051201
X060551Y051654
X061252Y0535
X061929Y053071
X060152Y054
X059502
X058898Y054232
X057502Y05395
X056852
X056831Y052657
X056437
X056929Y052264
X055315Y052323
X055039Y05189
X055059Y05128
X055551Y051378
X055551Y050689
X054961Y049606
Y049016
X054449
Y048701
Y048307
Y047874
Y04748
X055354
X055512Y047874
X056339Y047835
Y047441
Y047047
X056732
X057126
Y047441
Y047835
X05752
Y047441
Y047047
X056732Y047441
Y047835
X054449Y049331
X054468Y049705
X053543Y051457
X05315Y052441
X052874Y052835
X052757Y053944
X052441Y055197
X053386Y055276
X054685Y055236
X054567Y054331
X054646Y054016
X055433Y054094
X056222Y055592
X055039Y056063
X054017Y056419
X054331Y056811
X054665Y057087
X055591
X056535Y057165
X057167Y057124
X057795Y057126
X05811Y057244
X059094Y057087
X05998Y057185
X060098Y056004
X057815Y056201
X057452Y0583
X056752
X058427Y058348
X059372Y05832
X060252Y05835
X061252Y05775
X061575Y058701
X062323Y058287
X062421Y059075
X062362Y056457
X062323Y055669
X058504Y052854
X049803Y053071
X049126Y0535
X049094Y052028
X048307Y05189
X048366Y051201
X047776Y051004
X047244Y049685
X047244Y048819
X047224Y048425
X047165Y048031
Y047638
X048366
X048268Y048031
X048307Y048425
X048307Y048819
X049488Y047244
X050118Y047205
X051693Y047165
X050197Y055669
X050236Y056457
X048506Y057049
X047854Y057185
X046968Y057087
X047246Y05832
X048126Y05835
X049126Y05775
X049449Y058701
X050295Y059075
X052752Y0573
X053071Y056968
X053386Y057165
X048026Y054
X047376
X046772Y054232
X045376Y05395
X044726
X044705Y052657
X044311
X044803Y052264
X043189Y052323
X042913Y05189
X042933Y05128
X043425Y051378
X043425Y050689
X043622Y049508
X043917Y049705
X044685Y049724
X044803Y04874
X045197Y04874
X045591
X045984Y04874
X046102Y049213
X045276
X044409Y04874
X044016
X043622Y048701
X043386Y047874
X043228Y04748
X042323
Y047874
Y048307
Y048701
Y049016
Y049331
X042343Y049705
X042835Y049606
Y049016
X044213Y047835
Y047441
Y047047
X044606
X045
Y047441
Y047835
X045394
Y047441
Y047047
X046339Y047244
Y047638
X046339Y048031
X044606Y047835
Y047441
X039567Y047165
X037992Y047205
X037362Y047244
X036063Y047815
X036201Y048406
X03563Y048228
X035157Y048268
X0352Y047858
X034823Y047618
X034213Y047638
Y047244
X034213Y048031
X033858Y04874
X033465Y04874
X033071
X032677Y04874
X032283Y04874
X03189
X031496Y048701
X031496Y049508
X031791Y049705
X032559Y049724
X03315Y049213
X033976
X034764Y048917
X035098Y049213
X035118Y049685
X035315Y050669
X034941Y050689
X035748Y051496
X03624Y051201
X037Y0535
X037677Y053071
X0359Y054
X03525
X034646Y054232
X03325Y05395
X0326
X032579Y052657
X032185
X032677Y052264
X034252Y052854
X033563Y056201
X033543Y057126
X033858Y057244
X032915Y057124
X032283Y057165
X031339Y057087
X03197Y055592
X0325Y0583
X0332
X034175Y058348
X03512Y05832
X036Y05835
X035728Y057185
X03638Y057049
X037Y05775
X037323Y058701
X03811Y059075
Y056457
X038071Y055669
X040315Y055197
X04126Y055276
X042559Y055236
X042441Y054331
X04252Y054016
X043307Y054094
X044096Y055592
X042913Y056063
X041891Y056419
X042205Y056811
X042539Y057087
X043465
X044409Y057165
X045041Y057124
X045669Y057126
X045984Y057244
X045689Y056201
X045326Y0583
X044626
X046301Y058348
X046378Y052854
X040748Y052835
X041024Y052441
X041417Y051457
X040631Y053944
X040945Y056968
X04126Y057165
X040626Y0573
X034843Y057087
X031299Y051378
X031299Y050689
X03126Y047874
X032087Y047835
X03248
Y047441
Y047047
X032874
X033268
Y047441
X032874
Y047835
X033268
X032087Y047441
Y047047
X034961Y047028
X031102Y04748
X030197
Y047874
Y048307
Y048701
Y049016
Y049331
X030217Y049705
X030709Y049606
Y049016
X030807Y05128
X030787Y05189
X031063Y052323
X031181Y054094
X030394Y054016
X030315Y054331
X030433Y055236
X030787Y056063
X029765Y056419
X030079Y056811
X030413Y057087
X029134Y057165
X028819Y056968
X0285Y0573
X029016Y058622
X028248Y059075
X028189Y055197
X029134Y055276
X028506Y053944
X028622Y052835
X028898Y052441
X029291Y051457
X026654Y051161
X02563Y051339
X02561Y051752
X024852Y050305
X02374Y049744
X023711Y04875
X023719Y04825
X02372Y047776
X02498Y048406
X026398Y048858
X026811Y049488
X02689Y047697
X027402Y048091
X027441Y047165
X026142Y047047
X025709Y046949
X022402Y056043
T02
X030551Y04065
X030531Y043169
X074094Y042756
X074449Y045256
X064016Y048209
X061575Y048287
X03939Y048386
X03687Y048366
T03
X024193Y031181
X024961Y031201
X02498Y033406
X024213Y033386
X064606Y034154
X065374Y034173
X065354Y031969
X064587Y031949
T04
X073978Y0502
Y0512
Y0522
X061852
Y0512
Y0502
X049726
Y0512
Y0522
X0376
Y0512
Y0502
X026295Y052465
Y053465
Y054465
Y055465
Y056465
Y057465
Y058465
X025295
Y057465
Y056465
Y055465
Y054465
Y053465
Y052465
T05
X051181Y031594
X051968
X052756
X053543
X054331
X055118
X055906
Y032382
X055118
X054331
X053543
X052756
X051968
X051181
T06
X0785Y0365
Y0375
Y0385
Y0395
Y0405
Y0415
Y0425
Y0435
Y0465
X0815
Y0435
Y0405
Y0395
Y0365
Y0495
Y0505
Y0535
X0785
Y0525
Y0515
Y0505
Y0495
Y0485
Y0475
T07
X022972Y037573
Y052427
T08
X067619Y03189
X067569Y03564
X073819
Y03439
Y03189
T09
X0225Y0325
X08
Y0575
X0225
M30
