%FSLAX24Y24*%
%MOIN*%
G70*
G01*
G75*
G04 Layer_Color=8421504*
G04 Layer_Color=8421504*
%ADD10R,0.0866X0.0787*%
%ADD11R,0.0787X0.0866*%
%ADD12R,0.0945X0.1024*%
%ADD13R,0.0630X0.0709*%
%ADD14R,0.0709X0.0630*%
%ADD15R,0.1500X0.0500*%
%ADD16C,0.0177*%
%ADD17R,0.0433X0.0394*%
%ADD18R,0.0394X0.0433*%
%ADD19R,0.0512X0.0630*%
%ADD20C,0.0197*%
%ADD21R,0.0669X0.0177*%
%ADD22R,0.0669X0.0177*%
%ADD23R,0.0197X0.0591*%
%ADD24R,0.0630X0.0512*%
%ADD25R,0.3000X0.2900*%
%ADD26R,0.0748X0.0197*%
%ADD27R,0.0197X0.0748*%
%ADD28R,0.0551X0.0787*%
%ADD29R,0.1732X0.1441*%
%ADD30R,0.0827X0.0354*%
%ADD31R,0.0827X0.0354*%
%ADD32R,0.0807X0.0236*%
%ADD33R,0.0157X0.0846*%
%ADD34C,0.0160*%
%ADD35C,0.0070*%
%ADD36C,0.0090*%
%ADD37C,0.0060*%
%ADD38C,0.0120*%
%ADD39C,0.0100*%
%ADD40C,0.0080*%
%ADD41C,0.0300*%
%ADD42C,0.0250*%
%ADD43R,0.0591X0.0591*%
%ADD44C,0.0591*%
%ADD45C,0.0800*%
%ADD46C,0.0600*%
%ADD47C,0.1732*%
%ADD48C,0.1732*%
%ADD49C,0.0200*%
%ADD50C,0.0400*%
%ADD51C,0.0212*%
%ADD52C,0.0240*%
%ADD53C,0.0350*%
%ADD54R,0.0276X0.0354*%
%ADD55R,0.0354X0.0276*%
%ADD56C,0.0140*%
%ADD57C,0.0098*%
%ADD58C,0.0079*%
%ADD59C,0.0200*%
%ADD60C,0.0050*%
D10*
X74134Y44606D02*
D03*
Y43425D02*
D03*
X30551Y42520D02*
D03*
Y41339D02*
D03*
X70669Y39665D02*
D03*
Y38484D02*
D03*
D11*
X63386Y48268D02*
D03*
X62205D02*
D03*
X37520Y48386D02*
D03*
X38701D02*
D03*
D12*
X76850Y34370D02*
D03*
Y31850D02*
D03*
D13*
X33228Y32382D02*
D03*
X32126D02*
D03*
X33228Y31299D02*
D03*
X32126D02*
D03*
X57815Y35236D02*
D03*
X58917D02*
D03*
D14*
X57480Y33031D02*
D03*
Y31929D02*
D03*
X69370Y37598D02*
D03*
Y38701D02*
D03*
D15*
X59404Y31572D02*
D03*
Y32242D02*
D03*
Y32912D02*
D03*
Y33582D02*
D03*
Y34252D02*
D03*
X30163Y33782D02*
D03*
Y33112D02*
D03*
Y32442D02*
D03*
Y31772D02*
D03*
Y31102D02*
D03*
D16*
X36516Y34843D02*
D03*
X36909D02*
D03*
X38484D02*
D03*
X38091D02*
D03*
X37697D02*
D03*
X33366Y40748D02*
D03*
Y40354D02*
D03*
Y39961D02*
D03*
Y39567D02*
D03*
Y39173D02*
D03*
Y38780D02*
D03*
Y38386D02*
D03*
Y37992D02*
D03*
Y37598D02*
D03*
Y37205D02*
D03*
Y36811D02*
D03*
Y36417D02*
D03*
Y36024D02*
D03*
Y35630D02*
D03*
Y35236D02*
D03*
Y34843D02*
D03*
X33760Y40748D02*
D03*
Y40354D02*
D03*
Y39961D02*
D03*
Y39567D02*
D03*
Y39173D02*
D03*
Y38780D02*
D03*
Y38386D02*
D03*
Y37992D02*
D03*
Y37598D02*
D03*
Y37205D02*
D03*
Y36811D02*
D03*
Y36417D02*
D03*
Y36024D02*
D03*
Y35630D02*
D03*
Y35236D02*
D03*
Y34843D02*
D03*
X34154Y40748D02*
D03*
Y40354D02*
D03*
Y39961D02*
D03*
Y39567D02*
D03*
Y39173D02*
D03*
Y38780D02*
D03*
Y38386D02*
D03*
Y37992D02*
D03*
Y37598D02*
D03*
Y37205D02*
D03*
Y36811D02*
D03*
Y36417D02*
D03*
Y36024D02*
D03*
Y35630D02*
D03*
Y35236D02*
D03*
Y34843D02*
D03*
X34547Y40748D02*
D03*
Y40354D02*
D03*
Y39961D02*
D03*
Y39567D02*
D03*
Y39173D02*
D03*
Y38780D02*
D03*
Y38386D02*
D03*
Y37992D02*
D03*
Y37598D02*
D03*
Y37205D02*
D03*
Y36811D02*
D03*
Y36417D02*
D03*
Y36024D02*
D03*
Y35630D02*
D03*
Y35236D02*
D03*
Y34843D02*
D03*
X34941Y40748D02*
D03*
Y40354D02*
D03*
Y39961D02*
D03*
Y39567D02*
D03*
Y39173D02*
D03*
Y38780D02*
D03*
Y38386D02*
D03*
Y37992D02*
D03*
Y37598D02*
D03*
Y37205D02*
D03*
Y36811D02*
D03*
Y36417D02*
D03*
Y36024D02*
D03*
Y35630D02*
D03*
Y35236D02*
D03*
Y34843D02*
D03*
X35335Y40748D02*
D03*
Y40354D02*
D03*
Y39961D02*
D03*
Y39567D02*
D03*
Y39173D02*
D03*
Y38780D02*
D03*
Y38386D02*
D03*
Y37992D02*
D03*
Y37598D02*
D03*
Y37205D02*
D03*
Y36811D02*
D03*
Y36417D02*
D03*
Y36024D02*
D03*
Y35630D02*
D03*
Y35236D02*
D03*
Y34843D02*
D03*
X35728Y40748D02*
D03*
Y40354D02*
D03*
Y39961D02*
D03*
Y39567D02*
D03*
Y39173D02*
D03*
Y38780D02*
D03*
Y38386D02*
D03*
Y37992D02*
D03*
Y37598D02*
D03*
Y37205D02*
D03*
Y36811D02*
D03*
Y36417D02*
D03*
Y36024D02*
D03*
Y35630D02*
D03*
Y35236D02*
D03*
Y34843D02*
D03*
X36122Y40748D02*
D03*
Y40354D02*
D03*
Y39961D02*
D03*
Y39567D02*
D03*
Y39173D02*
D03*
Y38780D02*
D03*
Y38386D02*
D03*
Y37992D02*
D03*
Y37598D02*
D03*
Y37205D02*
D03*
Y36811D02*
D03*
Y36417D02*
D03*
Y36024D02*
D03*
Y35630D02*
D03*
Y35236D02*
D03*
Y34843D02*
D03*
X36516Y40748D02*
D03*
Y40354D02*
D03*
Y39961D02*
D03*
Y39567D02*
D03*
Y39173D02*
D03*
Y38780D02*
D03*
Y38386D02*
D03*
Y37992D02*
D03*
Y37598D02*
D03*
Y37205D02*
D03*
Y36811D02*
D03*
Y36417D02*
D03*
Y36024D02*
D03*
Y35630D02*
D03*
Y35236D02*
D03*
X36909Y40748D02*
D03*
Y40354D02*
D03*
Y39961D02*
D03*
Y39567D02*
D03*
Y39173D02*
D03*
Y38780D02*
D03*
Y38386D02*
D03*
Y37992D02*
D03*
Y37598D02*
D03*
Y37205D02*
D03*
Y36811D02*
D03*
Y36417D02*
D03*
Y36024D02*
D03*
Y35630D02*
D03*
Y35236D02*
D03*
X37303Y40748D02*
D03*
Y40354D02*
D03*
Y39961D02*
D03*
Y39567D02*
D03*
Y39173D02*
D03*
Y38780D02*
D03*
Y38386D02*
D03*
Y37992D02*
D03*
Y37598D02*
D03*
Y37205D02*
D03*
Y36811D02*
D03*
Y36417D02*
D03*
Y36024D02*
D03*
Y35630D02*
D03*
Y35236D02*
D03*
Y34843D02*
D03*
X37697Y40748D02*
D03*
Y40354D02*
D03*
Y39961D02*
D03*
Y39567D02*
D03*
Y39173D02*
D03*
Y38780D02*
D03*
Y38386D02*
D03*
Y37992D02*
D03*
Y37598D02*
D03*
Y37205D02*
D03*
Y36811D02*
D03*
Y36417D02*
D03*
Y36024D02*
D03*
Y35630D02*
D03*
Y35236D02*
D03*
X38091Y40748D02*
D03*
Y40354D02*
D03*
Y39961D02*
D03*
Y39567D02*
D03*
Y39173D02*
D03*
Y38780D02*
D03*
Y38386D02*
D03*
Y37992D02*
D03*
Y37598D02*
D03*
Y37205D02*
D03*
Y36811D02*
D03*
Y36417D02*
D03*
Y36024D02*
D03*
Y35630D02*
D03*
Y35236D02*
D03*
X38484Y40748D02*
D03*
Y40354D02*
D03*
Y39961D02*
D03*
Y39567D02*
D03*
Y39173D02*
D03*
Y38780D02*
D03*
Y38386D02*
D03*
Y37992D02*
D03*
Y37598D02*
D03*
Y37205D02*
D03*
Y36811D02*
D03*
Y36417D02*
D03*
Y36024D02*
D03*
Y35630D02*
D03*
Y35236D02*
D03*
X38878Y40748D02*
D03*
Y40354D02*
D03*
Y39961D02*
D03*
Y39567D02*
D03*
Y39173D02*
D03*
Y38780D02*
D03*
Y38386D02*
D03*
Y37992D02*
D03*
Y37598D02*
D03*
Y37205D02*
D03*
Y36811D02*
D03*
Y36417D02*
D03*
Y36024D02*
D03*
Y35630D02*
D03*
Y35236D02*
D03*
Y34843D02*
D03*
X39272Y40748D02*
D03*
Y40354D02*
D03*
Y39961D02*
D03*
Y39567D02*
D03*
Y39173D02*
D03*
Y38780D02*
D03*
Y38386D02*
D03*
Y37992D02*
D03*
Y37598D02*
D03*
Y37205D02*
D03*
Y36811D02*
D03*
Y36417D02*
D03*
Y36024D02*
D03*
Y35630D02*
D03*
Y35236D02*
D03*
Y34843D02*
D03*
D17*
X53406Y35728D02*
D03*
X54075D02*
D03*
X43150Y35531D02*
D03*
X42480D02*
D03*
X43150Y34547D02*
D03*
X42480D02*
D03*
X41280D02*
D03*
X40610D02*
D03*
X67461Y41339D02*
D03*
X68130D02*
D03*
X55217Y41260D02*
D03*
X55886D02*
D03*
X43209Y41850D02*
D03*
X43878D02*
D03*
D18*
X34744Y32323D02*
D03*
Y31654D02*
D03*
X35531D02*
D03*
X36319D02*
D03*
X37598D02*
D03*
X76142Y57382D02*
D03*
Y56713D02*
D03*
X76083Y36575D02*
D03*
Y37244D02*
D03*
Y38642D02*
D03*
Y39311D02*
D03*
Y41201D02*
D03*
Y41870D02*
D03*
Y43445D02*
D03*
Y42776D02*
D03*
X76181Y46811D02*
D03*
Y47480D02*
D03*
Y48780D02*
D03*
Y49449D02*
D03*
X76083Y51339D02*
D03*
Y52008D02*
D03*
Y53484D02*
D03*
Y52815D02*
D03*
X55807Y34685D02*
D03*
Y34016D02*
D03*
X50295Y34016D02*
D03*
Y34685D02*
D03*
X52461Y34685D02*
D03*
Y34016D02*
D03*
X51378Y34685D02*
D03*
Y34016D02*
D03*
X53543Y34685D02*
D03*
Y34016D02*
D03*
X54724Y34016D02*
D03*
Y34685D02*
D03*
X35531Y32323D02*
D03*
X36319D02*
D03*
X37598D02*
D03*
X24291Y56161D02*
D03*
Y55492D02*
D03*
X25492Y39213D02*
D03*
Y38543D02*
D03*
Y38031D02*
D03*
Y37362D02*
D03*
Y36181D02*
D03*
Y36850D02*
D03*
X31457Y40374D02*
D03*
Y39705D02*
D03*
X74370Y46791D02*
D03*
Y46122D02*
D03*
X62244Y46791D02*
D03*
Y46122D02*
D03*
X50118Y46791D02*
D03*
Y46122D02*
D03*
X37992Y46791D02*
D03*
Y46122D02*
D03*
X63937Y43957D02*
D03*
Y44626D02*
D03*
X51811Y43957D02*
D03*
Y44626D02*
D03*
X39685Y43957D02*
D03*
Y44626D02*
D03*
X27559Y43957D02*
D03*
Y44626D02*
D03*
X74075Y58032D02*
D03*
Y58701D02*
D03*
X61949Y58032D02*
D03*
Y58701D02*
D03*
X49823Y58032D02*
D03*
Y58701D02*
D03*
X37697Y58032D02*
D03*
Y58701D02*
D03*
X74075Y54980D02*
D03*
Y55650D02*
D03*
X61949Y54980D02*
D03*
Y55650D02*
D03*
X49823Y54980D02*
D03*
Y55650D02*
D03*
X37697Y54980D02*
D03*
Y55650D02*
D03*
X74075Y56457D02*
D03*
Y57126D02*
D03*
X61949Y56457D02*
D03*
Y57126D02*
D03*
X49823Y56457D02*
D03*
Y57126D02*
D03*
X37697Y56457D02*
D03*
Y57126D02*
D03*
X74075Y53504D02*
D03*
Y54173D02*
D03*
X61949Y53504D02*
D03*
Y54173D02*
D03*
X49823Y53504D02*
D03*
Y54173D02*
D03*
X37697Y53504D02*
D03*
Y54173D02*
D03*
X73780Y46122D02*
D03*
Y46791D02*
D03*
X61654Y46122D02*
D03*
Y46791D02*
D03*
X49528Y46122D02*
D03*
Y46791D02*
D03*
X37402Y46122D02*
D03*
Y46791D02*
D03*
D19*
X55532Y35630D02*
D03*
X28622Y42618D02*
D03*
X65039D02*
D03*
X52835D02*
D03*
X40728D02*
D03*
X27874D02*
D03*
X64291D02*
D03*
X52087D02*
D03*
X39980D02*
D03*
X56280Y35630D02*
D03*
D20*
X35827Y44094D02*
D03*
X35433D02*
D03*
X35039D02*
D03*
X34646D02*
D03*
X34252D02*
D03*
X33858D02*
D03*
X33465D02*
D03*
X33071D02*
D03*
X32677D02*
D03*
X32283D02*
D03*
X31890D02*
D03*
X31496D02*
D03*
X31102D02*
D03*
X30709D02*
D03*
X30315D02*
D03*
X29921D02*
D03*
X29528D02*
D03*
X35827Y44488D02*
D03*
X35433D02*
D03*
X35039D02*
D03*
X34646D02*
D03*
X34252D02*
D03*
X33858D02*
D03*
X33465D02*
D03*
X33071D02*
D03*
X32677D02*
D03*
X32283D02*
D03*
X31890D02*
D03*
X31496D02*
D03*
X31102D02*
D03*
X30709D02*
D03*
X30315D02*
D03*
X29921D02*
D03*
X29528D02*
D03*
X35827Y44882D02*
D03*
X35433D02*
D03*
X29921D02*
D03*
X29528D02*
D03*
X35827Y45276D02*
D03*
X35433D02*
D03*
X29921D02*
D03*
X29528D02*
D03*
X35827Y45669D02*
D03*
X35433D02*
D03*
X29921D02*
D03*
X29528D02*
D03*
X35827Y46063D02*
D03*
X35433D02*
D03*
X29921D02*
D03*
X29528D02*
D03*
X35827Y46457D02*
D03*
X35433D02*
D03*
X29921D02*
D03*
X29528D02*
D03*
X35827Y46850D02*
D03*
X35433D02*
D03*
X29921D02*
D03*
X29528D02*
D03*
X35827Y47244D02*
D03*
X35433D02*
D03*
X29921D02*
D03*
X29528D02*
D03*
X35827Y47638D02*
D03*
X35433D02*
D03*
X29921D02*
D03*
X29528D02*
D03*
X35827Y48031D02*
D03*
X35433D02*
D03*
X29921D02*
D03*
X29528D02*
D03*
X35827Y48425D02*
D03*
X35433D02*
D03*
X29921D02*
D03*
X29528D02*
D03*
X35827Y48819D02*
D03*
X35433D02*
D03*
X29921D02*
D03*
X29528D02*
D03*
X35827Y49213D02*
D03*
X35433D02*
D03*
X29921D02*
D03*
X29528D02*
D03*
X35827Y49606D02*
D03*
X35433D02*
D03*
X29921D02*
D03*
X29528D02*
D03*
X35827Y50000D02*
D03*
X35433D02*
D03*
X35039D02*
D03*
X34646D02*
D03*
X34252D02*
D03*
X33858D02*
D03*
X33465D02*
D03*
X33071D02*
D03*
X32677D02*
D03*
X32283D02*
D03*
X31890D02*
D03*
X31496D02*
D03*
X31102D02*
D03*
X30709D02*
D03*
X30315D02*
D03*
X29921D02*
D03*
X29528D02*
D03*
X35827Y50394D02*
D03*
X35433D02*
D03*
X35039D02*
D03*
X34646D02*
D03*
X34252D02*
D03*
X33858D02*
D03*
X33465D02*
D03*
X33071D02*
D03*
X32677D02*
D03*
X32283D02*
D03*
X31890D02*
D03*
X31496D02*
D03*
X31102D02*
D03*
X30709D02*
D03*
X30315D02*
D03*
X29921D02*
D03*
X29528D02*
D03*
X31496Y48425D02*
D03*
X31890D02*
D03*
X32283D02*
D03*
X32677D02*
D03*
X33071D02*
D03*
X33465D02*
D03*
X33858D02*
D03*
X31496Y48031D02*
D03*
X31890D02*
D03*
X32283D02*
D03*
X32677D02*
D03*
X33071D02*
D03*
X33465D02*
D03*
X33858D02*
D03*
X31496Y47638D02*
D03*
X31890D02*
D03*
X32283D02*
D03*
X32677D02*
D03*
X33071D02*
D03*
X33465D02*
D03*
X33858D02*
D03*
X31496Y47244D02*
D03*
X31890D02*
D03*
X32283D02*
D03*
X32677D02*
D03*
X33071D02*
D03*
X33465D02*
D03*
X33858D02*
D03*
X31496Y46850D02*
D03*
X31890D02*
D03*
X32283D02*
D03*
X32677D02*
D03*
X33071D02*
D03*
X33465D02*
D03*
X33858D02*
D03*
X31496Y46457D02*
D03*
X31890D02*
D03*
X32283D02*
D03*
X32677D02*
D03*
X33071D02*
D03*
X33465D02*
D03*
X33858D02*
D03*
X31496Y46063D02*
D03*
X31890D02*
D03*
X32283D02*
D03*
X32677D02*
D03*
X33071D02*
D03*
X33465D02*
D03*
X33858D02*
D03*
X70236D02*
D03*
X69843D02*
D03*
X69449D02*
D03*
X69055D02*
D03*
X68661D02*
D03*
X68268D02*
D03*
X67874D02*
D03*
X70236Y46457D02*
D03*
X69843D02*
D03*
X69449D02*
D03*
X69055D02*
D03*
X68661D02*
D03*
X68268D02*
D03*
X67874D02*
D03*
X70236Y46850D02*
D03*
X69843D02*
D03*
X69449D02*
D03*
X69055D02*
D03*
X68661D02*
D03*
X68268D02*
D03*
X67874D02*
D03*
X70236Y47244D02*
D03*
X69843D02*
D03*
X69449D02*
D03*
X69055D02*
D03*
X68661D02*
D03*
X68268D02*
D03*
X67874D02*
D03*
X70236Y47638D02*
D03*
X69843D02*
D03*
X69449D02*
D03*
X69055D02*
D03*
X68661D02*
D03*
X68268D02*
D03*
X67874D02*
D03*
X70236Y48031D02*
D03*
X69843D02*
D03*
X69449D02*
D03*
X69055D02*
D03*
X68661D02*
D03*
X68268D02*
D03*
X67874D02*
D03*
X70236Y48425D02*
D03*
X69843D02*
D03*
X69449D02*
D03*
X69055D02*
D03*
X68661D02*
D03*
X68268D02*
D03*
X67874D02*
D03*
X65905Y50394D02*
D03*
X66299D02*
D03*
X66693D02*
D03*
X67087D02*
D03*
X67480D02*
D03*
X67874D02*
D03*
X68268D02*
D03*
X68661D02*
D03*
X69055D02*
D03*
X69449D02*
D03*
X69843D02*
D03*
X70236D02*
D03*
X70630D02*
D03*
X71024D02*
D03*
X71417D02*
D03*
X71811D02*
D03*
X72205D02*
D03*
X65905Y50000D02*
D03*
X66299D02*
D03*
X66693D02*
D03*
X67087D02*
D03*
X67480D02*
D03*
X67874D02*
D03*
X68268D02*
D03*
X68661D02*
D03*
X69055D02*
D03*
X69449D02*
D03*
X69843D02*
D03*
X70236D02*
D03*
X70630D02*
D03*
X71024D02*
D03*
X71417D02*
D03*
X71811D02*
D03*
X72205D02*
D03*
X65905Y49606D02*
D03*
X66299D02*
D03*
X71811D02*
D03*
X72205D02*
D03*
X65905Y49213D02*
D03*
X66299D02*
D03*
X71811D02*
D03*
X72205D02*
D03*
X65905Y48819D02*
D03*
X66299D02*
D03*
X71811D02*
D03*
X72205D02*
D03*
X65905Y48425D02*
D03*
X66299D02*
D03*
X71811D02*
D03*
X72205D02*
D03*
X65905Y48031D02*
D03*
X66299D02*
D03*
X71811D02*
D03*
X72205D02*
D03*
X65905Y47638D02*
D03*
X66299D02*
D03*
X71811D02*
D03*
X72205D02*
D03*
X65905Y47244D02*
D03*
X66299D02*
D03*
X71811D02*
D03*
X72205D02*
D03*
X65905Y46850D02*
D03*
X66299D02*
D03*
X71811D02*
D03*
X72205D02*
D03*
X65905Y46457D02*
D03*
X66299D02*
D03*
X71811D02*
D03*
X72205D02*
D03*
X65905Y46063D02*
D03*
X66299D02*
D03*
X71811D02*
D03*
X72205D02*
D03*
X65905Y45669D02*
D03*
X66299D02*
D03*
X71811D02*
D03*
X72205D02*
D03*
X65905Y45276D02*
D03*
X66299D02*
D03*
X71811D02*
D03*
X72205D02*
D03*
X65905Y44882D02*
D03*
X66299D02*
D03*
X71811D02*
D03*
X72205D02*
D03*
X65905Y44488D02*
D03*
X66299D02*
D03*
X66693D02*
D03*
X67087D02*
D03*
X67480D02*
D03*
X67874D02*
D03*
X68268D02*
D03*
X68661D02*
D03*
X69055D02*
D03*
X69449D02*
D03*
X69843D02*
D03*
X70236D02*
D03*
X70630D02*
D03*
X71024D02*
D03*
X71417D02*
D03*
X71811D02*
D03*
X72205D02*
D03*
X65905Y44094D02*
D03*
X66299D02*
D03*
X66693D02*
D03*
X67087D02*
D03*
X67480D02*
D03*
X67874D02*
D03*
X68268D02*
D03*
X68661D02*
D03*
X69055D02*
D03*
X69449D02*
D03*
X69843D02*
D03*
X70236D02*
D03*
X70630D02*
D03*
X71024D02*
D03*
X71417D02*
D03*
X71811D02*
D03*
X72205D02*
D03*
X58110Y46063D02*
D03*
X57717D02*
D03*
X57323D02*
D03*
X56929D02*
D03*
X56535D02*
D03*
X56142D02*
D03*
X55748D02*
D03*
X58110Y46457D02*
D03*
X57717D02*
D03*
X57323D02*
D03*
X56929D02*
D03*
X56535D02*
D03*
X56142D02*
D03*
X55748D02*
D03*
X58110Y46850D02*
D03*
X57717D02*
D03*
X57323D02*
D03*
X56929D02*
D03*
X56535D02*
D03*
X56142D02*
D03*
X55748D02*
D03*
X58110Y47244D02*
D03*
X57717D02*
D03*
X57323D02*
D03*
X56929D02*
D03*
X56535D02*
D03*
X56142D02*
D03*
X55748D02*
D03*
X58110Y47638D02*
D03*
X57717D02*
D03*
X57323D02*
D03*
X56929D02*
D03*
X56535D02*
D03*
X56142D02*
D03*
X55748D02*
D03*
X58110Y48031D02*
D03*
X57717D02*
D03*
X57323D02*
D03*
X56929D02*
D03*
X56535D02*
D03*
X56142D02*
D03*
X55748D02*
D03*
X58110Y48425D02*
D03*
X57717D02*
D03*
X57323D02*
D03*
X56929D02*
D03*
X56535D02*
D03*
X56142D02*
D03*
X55748D02*
D03*
X53780Y50394D02*
D03*
X54173D02*
D03*
X54567D02*
D03*
X54961D02*
D03*
X55354D02*
D03*
X55748D02*
D03*
X56142D02*
D03*
X56535D02*
D03*
X56929D02*
D03*
X57323D02*
D03*
X57717D02*
D03*
X58110D02*
D03*
X58504D02*
D03*
X58898D02*
D03*
X59291D02*
D03*
X59685D02*
D03*
X60079D02*
D03*
X53780Y50000D02*
D03*
X54173D02*
D03*
X54567D02*
D03*
X54961D02*
D03*
X55354D02*
D03*
X55748D02*
D03*
X56142D02*
D03*
X56535D02*
D03*
X56929D02*
D03*
X57323D02*
D03*
X57717D02*
D03*
X58110D02*
D03*
X58504D02*
D03*
X58898D02*
D03*
X59291D02*
D03*
X59685D02*
D03*
X60079D02*
D03*
X53780Y49606D02*
D03*
X54173D02*
D03*
X59685D02*
D03*
X60079D02*
D03*
X53780Y49213D02*
D03*
X54173D02*
D03*
X59685D02*
D03*
X60079D02*
D03*
X53780Y48819D02*
D03*
X54173D02*
D03*
X59685D02*
D03*
X60079D02*
D03*
X53780Y48425D02*
D03*
X54173D02*
D03*
X59685D02*
D03*
X60079D02*
D03*
X53780Y48031D02*
D03*
X54173D02*
D03*
X59685D02*
D03*
X60079D02*
D03*
X53780Y47638D02*
D03*
X54173D02*
D03*
X59685D02*
D03*
X60079D02*
D03*
X53780Y47244D02*
D03*
X54173D02*
D03*
X59685D02*
D03*
X60079D02*
D03*
X53780Y46850D02*
D03*
X54173D02*
D03*
X59685D02*
D03*
X60079D02*
D03*
X53780Y46457D02*
D03*
X54173D02*
D03*
X59685D02*
D03*
X60079D02*
D03*
X53780Y46063D02*
D03*
X54173D02*
D03*
X59685D02*
D03*
X60079D02*
D03*
X53780Y45669D02*
D03*
X54173D02*
D03*
X59685D02*
D03*
X60079D02*
D03*
X53780Y45276D02*
D03*
X54173D02*
D03*
X59685D02*
D03*
X60079D02*
D03*
X53780Y44882D02*
D03*
X54173D02*
D03*
X59685D02*
D03*
X60079D02*
D03*
X53780Y44488D02*
D03*
X54173D02*
D03*
X54567D02*
D03*
X54961D02*
D03*
X55354D02*
D03*
X55748D02*
D03*
X56142D02*
D03*
X56535D02*
D03*
X56929D02*
D03*
X57323D02*
D03*
X57717D02*
D03*
X58110D02*
D03*
X58504D02*
D03*
X58898D02*
D03*
X59291D02*
D03*
X59685D02*
D03*
X60079D02*
D03*
X53780Y44094D02*
D03*
X54173D02*
D03*
X54567D02*
D03*
X54961D02*
D03*
X55354D02*
D03*
X55748D02*
D03*
X56142D02*
D03*
X56535D02*
D03*
X56929D02*
D03*
X57323D02*
D03*
X57717D02*
D03*
X58110D02*
D03*
X58504D02*
D03*
X58898D02*
D03*
X59291D02*
D03*
X59685D02*
D03*
X60079D02*
D03*
X47953D02*
D03*
X47559D02*
D03*
X47165D02*
D03*
X46772D02*
D03*
X46378D02*
D03*
X45984D02*
D03*
X45591D02*
D03*
X45197D02*
D03*
X44803D02*
D03*
X44409D02*
D03*
X44016D02*
D03*
X43622D02*
D03*
X43228D02*
D03*
X42835D02*
D03*
X42441D02*
D03*
X42047D02*
D03*
X41654D02*
D03*
X47953Y44488D02*
D03*
X47559D02*
D03*
X47165D02*
D03*
X46772D02*
D03*
X46378D02*
D03*
X45984D02*
D03*
X45591D02*
D03*
X45197D02*
D03*
X44803D02*
D03*
X44409D02*
D03*
X44016D02*
D03*
X43622D02*
D03*
X43228D02*
D03*
X42835D02*
D03*
X42441D02*
D03*
X42047D02*
D03*
X41654D02*
D03*
X47953Y44882D02*
D03*
X47559D02*
D03*
X42047D02*
D03*
X41654D02*
D03*
X47953Y45276D02*
D03*
X47559D02*
D03*
X42047D02*
D03*
X41654D02*
D03*
X47953Y45669D02*
D03*
X47559D02*
D03*
X42047D02*
D03*
X41654D02*
D03*
X47953Y46063D02*
D03*
X47559D02*
D03*
X42047D02*
D03*
X41654D02*
D03*
X47953Y46457D02*
D03*
X47559D02*
D03*
X42047D02*
D03*
X41654D02*
D03*
X47953Y46850D02*
D03*
X47559D02*
D03*
X42047D02*
D03*
X41654D02*
D03*
X47953Y47244D02*
D03*
X47559D02*
D03*
X42047D02*
D03*
X41654D02*
D03*
X47953Y47638D02*
D03*
X47559D02*
D03*
X42047D02*
D03*
X41654D02*
D03*
X47953Y48031D02*
D03*
X47559D02*
D03*
X42047D02*
D03*
X41654D02*
D03*
X47953Y48425D02*
D03*
X47559D02*
D03*
X42047D02*
D03*
X41654D02*
D03*
X47953Y48819D02*
D03*
X47559D02*
D03*
X42047D02*
D03*
X41654D02*
D03*
X47953Y49213D02*
D03*
X47559D02*
D03*
X42047D02*
D03*
X41654D02*
D03*
X47953Y49606D02*
D03*
X47559D02*
D03*
X42047D02*
D03*
X41654D02*
D03*
X47953Y50000D02*
D03*
X47559D02*
D03*
X47165D02*
D03*
X46772D02*
D03*
X46378D02*
D03*
X45984D02*
D03*
X45591D02*
D03*
X45197D02*
D03*
X44803D02*
D03*
X44409D02*
D03*
X44016D02*
D03*
X43622D02*
D03*
X43228D02*
D03*
X42835D02*
D03*
X42441D02*
D03*
X42047D02*
D03*
X41654D02*
D03*
X47953Y50394D02*
D03*
X47559D02*
D03*
X47165D02*
D03*
X46772D02*
D03*
X46378D02*
D03*
X45984D02*
D03*
X45591D02*
D03*
X45197D02*
D03*
X44803D02*
D03*
X44409D02*
D03*
X44016D02*
D03*
X43622D02*
D03*
X43228D02*
D03*
X42835D02*
D03*
X42441D02*
D03*
X42047D02*
D03*
X41654D02*
D03*
X43622Y48425D02*
D03*
X44016D02*
D03*
X44409D02*
D03*
X44803D02*
D03*
X45197D02*
D03*
X45591D02*
D03*
X45984D02*
D03*
X43622Y48031D02*
D03*
X44016D02*
D03*
X44409D02*
D03*
X44803D02*
D03*
X45197D02*
D03*
X45591D02*
D03*
X45984D02*
D03*
X43622Y47638D02*
D03*
X44016D02*
D03*
X44409D02*
D03*
X44803D02*
D03*
X45197D02*
D03*
X45591D02*
D03*
X45984D02*
D03*
X43622Y47244D02*
D03*
X44016D02*
D03*
X44409D02*
D03*
X44803D02*
D03*
X45197D02*
D03*
X45591D02*
D03*
X45984D02*
D03*
X43622Y46850D02*
D03*
X44016D02*
D03*
X44409D02*
D03*
X44803D02*
D03*
X45197D02*
D03*
X45591D02*
D03*
X45984D02*
D03*
X43622Y46457D02*
D03*
X44016D02*
D03*
X44409D02*
D03*
X44803D02*
D03*
X45197D02*
D03*
X45591D02*
D03*
X45984D02*
D03*
X43622Y46063D02*
D03*
X44016D02*
D03*
X44409D02*
D03*
X44803D02*
D03*
X45197D02*
D03*
X45591D02*
D03*
X45984D02*
D03*
D21*
X26811Y36467D02*
D03*
Y38514D02*
D03*
Y38258D02*
D03*
Y38002D02*
D03*
Y37746D02*
D03*
Y37490D02*
D03*
Y37234D02*
D03*
Y36978D02*
D03*
Y36722D02*
D03*
Y36211D02*
D03*
Y35955D02*
D03*
Y35699D02*
D03*
Y35443D02*
D03*
X29488Y38770D02*
D03*
Y38514D02*
D03*
Y38258D02*
D03*
Y38002D02*
D03*
Y37746D02*
D03*
Y37490D02*
D03*
Y37234D02*
D03*
Y36978D02*
D03*
Y36722D02*
D03*
Y36467D02*
D03*
Y36211D02*
D03*
Y35955D02*
D03*
Y35699D02*
D03*
Y35443D02*
D03*
D22*
X26811Y38770D02*
D03*
D23*
X30080Y57785D02*
D03*
X28506Y53415D02*
D03*
X28820D02*
D03*
X29135D02*
D03*
X29450D02*
D03*
X29765D02*
D03*
X30080D02*
D03*
X30395D02*
D03*
X30710D02*
D03*
X31025D02*
D03*
X31340D02*
D03*
X31655D02*
D03*
X31970D02*
D03*
X32285D02*
D03*
X32600D02*
D03*
X32915D02*
D03*
X33230D02*
D03*
X33545D02*
D03*
X33860D02*
D03*
X34175D02*
D03*
X34490D02*
D03*
X34805D02*
D03*
X35120D02*
D03*
X35435D02*
D03*
X35750D02*
D03*
X36065D02*
D03*
X36380D02*
D03*
X36694D02*
D03*
X28506Y57785D02*
D03*
X28820D02*
D03*
X29135D02*
D03*
X29450D02*
D03*
X29765D02*
D03*
X30395D02*
D03*
X30710D02*
D03*
X31025D02*
D03*
X31340D02*
D03*
X31655D02*
D03*
X31970D02*
D03*
X32285D02*
D03*
X32600D02*
D03*
X32915D02*
D03*
X33230D02*
D03*
X33545D02*
D03*
X33860D02*
D03*
X34175D02*
D03*
X34490D02*
D03*
X34805D02*
D03*
X35120D02*
D03*
X35435D02*
D03*
X35750D02*
D03*
X36065D02*
D03*
X36380D02*
D03*
X36694D02*
D03*
X73072D02*
D03*
X72757D02*
D03*
X72443D02*
D03*
X72128D02*
D03*
X71813D02*
D03*
X71498D02*
D03*
X71183D02*
D03*
X70868D02*
D03*
X70553D02*
D03*
X70238D02*
D03*
X69923D02*
D03*
X69608D02*
D03*
X69293D02*
D03*
X68978D02*
D03*
X68663D02*
D03*
X68348D02*
D03*
X68033D02*
D03*
X67718D02*
D03*
X67403D02*
D03*
X67088D02*
D03*
X66773D02*
D03*
X66458D02*
D03*
X66143D02*
D03*
X65828D02*
D03*
X65513D02*
D03*
X65198D02*
D03*
X64883D02*
D03*
X73072Y53415D02*
D03*
X72757D02*
D03*
X72443D02*
D03*
X72128D02*
D03*
X71813D02*
D03*
X71498D02*
D03*
X71183D02*
D03*
X70868D02*
D03*
X70553D02*
D03*
X70238D02*
D03*
X69923D02*
D03*
X69608D02*
D03*
X69293D02*
D03*
X68978D02*
D03*
X68663D02*
D03*
X68348D02*
D03*
X68033D02*
D03*
X67718D02*
D03*
X67403D02*
D03*
X67088D02*
D03*
X66773D02*
D03*
X66458D02*
D03*
X66143D02*
D03*
X65828D02*
D03*
X65513D02*
D03*
X65198D02*
D03*
X64883D02*
D03*
X60946Y57785D02*
D03*
X60631D02*
D03*
X60317D02*
D03*
X60002D02*
D03*
X59687D02*
D03*
X59372D02*
D03*
X59057D02*
D03*
X58742D02*
D03*
X58427D02*
D03*
X58112D02*
D03*
X57797D02*
D03*
X57482D02*
D03*
X57167D02*
D03*
X56852D02*
D03*
X56537D02*
D03*
X56222D02*
D03*
X55907D02*
D03*
X55592D02*
D03*
X55277D02*
D03*
X54962D02*
D03*
X54647D02*
D03*
X54332D02*
D03*
X54017D02*
D03*
X53702D02*
D03*
X53387D02*
D03*
X53072D02*
D03*
X52757D02*
D03*
X60946Y53415D02*
D03*
X60631D02*
D03*
X60317D02*
D03*
X60002D02*
D03*
X59687D02*
D03*
X59372D02*
D03*
X59057D02*
D03*
X58742D02*
D03*
X58427D02*
D03*
X58112D02*
D03*
X57797D02*
D03*
X57482D02*
D03*
X57167D02*
D03*
X56852D02*
D03*
X56537D02*
D03*
X56222D02*
D03*
X55907D02*
D03*
X55592D02*
D03*
X55277D02*
D03*
X54962D02*
D03*
X54647D02*
D03*
X54332D02*
D03*
X54017D02*
D03*
X53702D02*
D03*
X53387D02*
D03*
X53072D02*
D03*
X52757D02*
D03*
X40631D02*
D03*
X40946D02*
D03*
X41261D02*
D03*
X41576D02*
D03*
X41891D02*
D03*
X42206D02*
D03*
X42521D02*
D03*
X42836D02*
D03*
X43151D02*
D03*
X43466D02*
D03*
X43781D02*
D03*
X44096D02*
D03*
X44411D02*
D03*
X44726D02*
D03*
X45041D02*
D03*
X45356D02*
D03*
X45671D02*
D03*
X45986D02*
D03*
X46301D02*
D03*
X46616D02*
D03*
X46931D02*
D03*
X47246D02*
D03*
X47561D02*
D03*
X47876D02*
D03*
X48191D02*
D03*
X48506D02*
D03*
X48820D02*
D03*
X40631Y57785D02*
D03*
X40946D02*
D03*
X41261D02*
D03*
X41576D02*
D03*
X41891D02*
D03*
X42206D02*
D03*
X42521D02*
D03*
X42836D02*
D03*
X43151D02*
D03*
X43466D02*
D03*
X43781D02*
D03*
X44096D02*
D03*
X44411D02*
D03*
X44726D02*
D03*
X45041D02*
D03*
X45356D02*
D03*
X45671D02*
D03*
X45986D02*
D03*
X46301D02*
D03*
X46616D02*
D03*
X46931D02*
D03*
X47246D02*
D03*
X47561D02*
D03*
X47876D02*
D03*
X48191D02*
D03*
X48506D02*
D03*
X48820D02*
D03*
D24*
X63839Y45689D02*
D03*
Y46437D02*
D03*
X51713Y45689D02*
D03*
Y46437D02*
D03*
X27461Y45689D02*
D03*
Y46437D02*
D03*
X39587D02*
D03*
Y45689D02*
D03*
D25*
X64254Y33002D02*
D03*
X25313Y32352D02*
D03*
D26*
X44508Y35039D02*
D03*
Y34724D02*
D03*
Y34409D02*
D03*
Y34094D02*
D03*
Y33780D02*
D03*
Y33465D02*
D03*
Y33150D02*
D03*
Y32835D02*
D03*
Y32520D02*
D03*
Y32205D02*
D03*
Y31890D02*
D03*
X49193Y35039D02*
D03*
Y34724D02*
D03*
Y34409D02*
D03*
Y34094D02*
D03*
Y33780D02*
D03*
Y33465D02*
D03*
Y33150D02*
D03*
Y32835D02*
D03*
Y32520D02*
D03*
Y32205D02*
D03*
Y31890D02*
D03*
D27*
X45276Y31122D02*
D03*
X45591D02*
D03*
X45906D02*
D03*
X46220D02*
D03*
X46535D02*
D03*
X46850D02*
D03*
X47165D02*
D03*
X47480D02*
D03*
X47795D02*
D03*
X48110D02*
D03*
X48425D02*
D03*
X45276Y35807D02*
D03*
X45591D02*
D03*
X45906D02*
D03*
X46220D02*
D03*
X46535D02*
D03*
X46850D02*
D03*
X47165D02*
D03*
X47480D02*
D03*
X47795D02*
D03*
X48110D02*
D03*
X48425D02*
D03*
D28*
X39862Y32854D02*
D03*
X41862D02*
D03*
Y31201D02*
D03*
X39862D02*
D03*
D29*
X21083Y35492D02*
D03*
Y54508D02*
D03*
D30*
X22972Y38750D02*
D03*
Y39250D02*
D03*
Y39750D02*
D03*
Y40250D02*
D03*
Y40750D02*
D03*
Y41250D02*
D03*
Y41750D02*
D03*
D31*
Y51250D02*
D03*
Y50750D02*
D03*
Y50250D02*
D03*
Y49750D02*
D03*
Y49250D02*
D03*
Y48750D02*
D03*
Y48250D02*
D03*
Y47750D02*
D03*
Y47250D02*
D03*
Y46750D02*
D03*
Y46250D02*
D03*
Y45750D02*
D03*
Y45250D02*
D03*
Y44750D02*
D03*
Y44250D02*
D03*
D32*
X72175Y39923D02*
D03*
Y39423D02*
D03*
Y38923D02*
D03*
Y38423D02*
D03*
X74282Y39923D02*
D03*
Y39423D02*
D03*
Y38923D02*
D03*
Y38423D02*
D03*
D33*
X25118Y47726D02*
D03*
X25374D02*
D03*
X25630D02*
D03*
X25886D02*
D03*
X26142D02*
D03*
X26398D02*
D03*
X26654D02*
D03*
X25118Y50305D02*
D03*
X25374D02*
D03*
X25630D02*
D03*
X25886D02*
D03*
X26142D02*
D03*
X26398D02*
D03*
X26654D02*
D03*
X25020Y42018D02*
D03*
X25276D02*
D03*
X25531D02*
D03*
X25787D02*
D03*
X26043D02*
D03*
X26299D02*
D03*
X26555D02*
D03*
X25020Y44596D02*
D03*
X25276D02*
D03*
X25531D02*
D03*
X25787D02*
D03*
X26043D02*
D03*
X26299D02*
D03*
X26555D02*
D03*
M02*
