%FSLAX24Y24*%
%MOIN*%
G70*
G01*
G75*
G04 Layer_Physical_Order=3*
G04 Layer_Color=128*
%ADD10R,0.0394X0.0433*%
%ADD11R,0.0512X0.0512*%
%ADD12R,0.0472X0.0787*%
%ADD13R,0.0787X0.0472*%
%ADD14R,0.0630X0.0709*%
%ADD15R,0.0600X0.0300*%
%ADD16R,0.1400X0.1000*%
%ADD17R,0.1732X0.1441*%
%ADD18R,0.0827X0.0354*%
%ADD19R,0.0827X0.0354*%
%ADD20O,0.0394X0.0110*%
%ADD21O,0.0110X0.0394*%
%ADD22C,0.0177*%
%ADD23C,0.0197*%
%ADD24R,0.0197X0.0748*%
%ADD25R,0.0807X0.0236*%
%ADD26R,0.0197X0.0591*%
%ADD27R,0.0551X0.0787*%
%ADD28R,0.0748X0.0197*%
%ADD29R,0.0669X0.0177*%
%ADD30R,0.0669X0.0177*%
%ADD31R,0.0433X0.0394*%
%ADD32R,0.0709X0.0630*%
%ADD33R,0.0945X0.1024*%
%ADD34C,0.0400*%
%ADD35R,0.0394X0.1083*%
%ADD36C,0.0120*%
%ADD37C,0.0070*%
%ADD38C,0.0200*%
%ADD39C,0.0100*%
%ADD40C,0.0060*%
%ADD41C,0.0090*%
%ADD42C,0.0160*%
%ADD43C,0.0250*%
%ADD44C,0.0300*%
%ADD45C,0.0600*%
%ADD46C,0.0591*%
%ADD47R,0.0591X0.0591*%
%ADD48C,0.1732*%
%ADD49C,0.1732*%
%ADD50C,0.0800*%
%ADD51C,0.0433*%
%ADD52C,0.0250*%
%ADD53C,0.0200*%
%ADD54C,0.0240*%
%ADD55C,0.0212*%
%ADD56C,0.0350*%
%ADD57C,0.0080*%
G36*
X33272Y43832D02*
X31743Y42303D01*
X31722Y42271D01*
X31714Y42234D01*
Y40020D01*
X31722Y39983D01*
X31743Y39951D01*
X32687Y39006D01*
X32719Y38985D01*
X32756Y38978D01*
X32855D01*
X32867Y38959D01*
X32920Y38924D01*
X32982Y38912D01*
X33045Y38924D01*
X33098Y38959D01*
X33133Y39012D01*
X33145Y39075D01*
X33133Y39137D01*
X33098Y39190D01*
X33045Y39226D01*
X32982Y39238D01*
X32951Y39232D01*
X32923Y39273D01*
X32946Y39308D01*
X32958Y39370D01*
X32946Y39433D01*
X32911Y39485D01*
X32858Y39521D01*
X32795Y39533D01*
X32773Y39529D01*
X32144Y40158D01*
Y41350D01*
X32188Y41374D01*
X32201Y41365D01*
X32264Y41353D01*
X32326Y41365D01*
X32376Y41398D01*
X32424Y41386D01*
X32430Y41375D01*
X32408Y41342D01*
X32396Y41280D01*
X32408Y41217D01*
X32444Y41164D01*
X32497Y41129D01*
X32559Y41116D01*
X32621Y41129D01*
X32674Y41164D01*
X32710Y41217D01*
X32722Y41280D01*
X32710Y41342D01*
X32674Y41395D01*
X32682Y41419D01*
X33287D01*
X33860Y40846D01*
Y40551D01*
X33867Y40514D01*
X33888Y40483D01*
X34005Y40366D01*
X33981Y40322D01*
X33957Y40327D01*
X33892Y40314D01*
X33837Y40277D01*
X33800Y40222D01*
X33787Y40157D01*
X33800Y40093D01*
X33837Y40038D01*
X33892Y40001D01*
X33957Y39988D01*
X34021Y40001D01*
X34062Y39980D01*
Y39154D01*
X34021Y39133D01*
X33957Y39146D01*
X33892Y39133D01*
X33837Y39096D01*
X33800Y39041D01*
X33787Y38976D01*
X33800Y38912D01*
X33837Y38857D01*
X33892Y38820D01*
X33957Y38807D01*
X34021Y38820D01*
X34062Y38798D01*
Y37205D01*
X34069Y37170D01*
X34089Y37140D01*
X34801Y36427D01*
X34778Y36383D01*
X34744Y36390D01*
X34679Y36377D01*
X34624Y36340D01*
X34588Y36285D01*
X34575Y36220D01*
X34588Y36156D01*
X34566Y36115D01*
X32230D01*
X30502Y37844D01*
X30470Y37865D01*
X30433Y37872D01*
X28564D01*
X28200Y38236D01*
X28204Y38258D01*
X28192Y38320D01*
X28157Y38373D01*
X28104Y38409D01*
X28041Y38421D01*
X27979Y38409D01*
X27926Y38373D01*
X27891Y38320D01*
X27878Y38258D01*
X27891Y38195D01*
X27926Y38143D01*
X27979Y38107D01*
X28041Y38095D01*
X28063Y38099D01*
X28455Y37707D01*
X28487Y37686D01*
X28524Y37679D01*
X28776D01*
X28791Y37631D01*
X28753Y37606D01*
X28717Y37553D01*
X28705Y37490D01*
X28717Y37428D01*
X28753Y37375D01*
X28806Y37339D01*
X28868Y37327D01*
X28931Y37339D01*
X28983Y37375D01*
X29019Y37428D01*
X29031Y37490D01*
X29019Y37553D01*
X28983Y37606D01*
X28945Y37631D01*
X28960Y37679D01*
X30393D01*
X32117Y35955D01*
X32148Y35934D01*
X32185Y35927D01*
X32211Y35932D01*
X32972D01*
X32993Y35892D01*
X32980Y35827D01*
X32986Y35800D01*
X32913Y35727D01*
X32894D01*
X32894Y35727D01*
X29104Y35727D01*
X29092Y35745D01*
X29039Y35781D01*
X28976Y35793D01*
X28914Y35781D01*
X28861Y35745D01*
X28826Y35692D01*
X28813Y35630D01*
X28826Y35567D01*
X28861Y35515D01*
X28914Y35479D01*
X28976Y35467D01*
X29039Y35479D01*
X29092Y35515D01*
X29104Y35533D01*
X32894Y35533D01*
X32894Y35533D01*
X32953D01*
X32990Y35540D01*
X33021Y35561D01*
X33021Y35561D01*
X33021Y35561D01*
X33123Y35663D01*
X33150Y35658D01*
X33214Y35670D01*
X33269Y35707D01*
X33306Y35762D01*
X33319Y35827D01*
X33306Y35892D01*
X33328Y35932D01*
X34172D01*
X34194Y35892D01*
X34181Y35827D01*
X34194Y35762D01*
X34231Y35707D01*
X34286Y35670D01*
X34350Y35658D01*
X34415Y35670D01*
X34470Y35707D01*
X34507Y35762D01*
X34520Y35827D01*
X34507Y35892D01*
X34528Y35932D01*
X34941D01*
X34976Y35939D01*
X35006Y35959D01*
X35105Y36058D01*
X35138Y36051D01*
X35203Y36064D01*
X35257Y36101D01*
X35294Y36156D01*
X35307Y36220D01*
X35300Y36254D01*
X35344Y36278D01*
X35589Y36033D01*
X35565Y35989D01*
X35531Y35996D01*
X35467Y35983D01*
X35412Y35946D01*
X35375Y35892D01*
X35362Y35827D01*
X35375Y35762D01*
X35412Y35707D01*
X35467Y35670D01*
X35531Y35658D01*
X35596Y35670D01*
X35651Y35707D01*
X35688Y35762D01*
X35701Y35827D01*
X35694Y35860D01*
X35719Y35874D01*
X35759Y35844D01*
X35756Y35827D01*
X35769Y35762D01*
X35806Y35707D01*
X35860Y35670D01*
X35925Y35658D01*
X35990Y35670D01*
X36045Y35707D01*
X36082Y35762D01*
X36094Y35827D01*
X36082Y35892D01*
X36045Y35946D01*
X35990Y35983D01*
X35925Y35996D01*
X35892Y35989D01*
X35400Y36482D01*
X35370Y36502D01*
X35335Y36509D01*
X35316D01*
X35294Y36549D01*
X35307Y36614D01*
X35294Y36679D01*
X35257Y36734D01*
X35203Y36771D01*
X35138Y36783D01*
X35073Y36771D01*
X35018Y36734D01*
X34981Y36679D01*
X34969Y36614D01*
X34975Y36580D01*
X34931Y36557D01*
X34245Y37243D01*
Y38409D01*
X34288Y38432D01*
X34350Y38420D01*
X34413Y38432D01*
X34466Y38467D01*
X34501Y38520D01*
X34514Y38583D01*
X34501Y38645D01*
X34466Y38698D01*
X34413Y38733D01*
X34350Y38746D01*
X34288Y38733D01*
X34245Y38756D01*
Y38803D01*
X34288Y38826D01*
X34350Y38813D01*
X34413Y38826D01*
X34466Y38861D01*
X34501Y38914D01*
X34514Y38976D01*
X34501Y39039D01*
X34466Y39092D01*
X34413Y39127D01*
X34350Y39140D01*
X34288Y39127D01*
X34245Y39150D01*
Y39192D01*
X34286Y39214D01*
X34350Y39201D01*
X34415Y39214D01*
X34470Y39250D01*
X34507Y39305D01*
X34520Y39370D01*
X34507Y39435D01*
X34470Y39490D01*
X34415Y39526D01*
X34350Y39539D01*
X34286Y39526D01*
X34245Y39548D01*
Y39590D01*
X34288Y39613D01*
X34350Y39601D01*
X34413Y39613D01*
X34466Y39648D01*
X34501Y39701D01*
X34514Y39764D01*
X34501Y39826D01*
X34466Y39879D01*
X34413Y39915D01*
X34350Y39927D01*
X34288Y39915D01*
X34245Y39937D01*
Y39980D01*
X34286Y40001D01*
X34350Y39988D01*
X34415Y40001D01*
X34470Y40038D01*
X34507Y40093D01*
X34520Y40157D01*
X34507Y40222D01*
X34470Y40277D01*
X34415Y40314D01*
X34350Y40327D01*
X34286Y40314D01*
X34245Y40329D01*
X34245Y40329D01*
X34250Y40354D01*
X34243Y40391D01*
X34222Y40423D01*
X34054Y40591D01*
Y40886D01*
X34046Y40923D01*
X34025Y40954D01*
X33395Y41584D01*
X33364Y41605D01*
X33327Y41613D01*
X32420D01*
X32396Y41657D01*
X32407Y41674D01*
X32441Y41667D01*
X32511Y41681D01*
X32571Y41721D01*
X32593Y41754D01*
X34054D01*
X34647Y41161D01*
Y40292D01*
X34624Y40277D01*
X34588Y40222D01*
X34575Y40157D01*
X34588Y40093D01*
X34624Y40038D01*
X34679Y40001D01*
X34744Y39988D01*
X34809Y40001D01*
X34864Y40038D01*
X34900Y40093D01*
X34913Y40157D01*
X34900Y40222D01*
X34864Y40277D01*
X34841Y40292D01*
Y41201D01*
X34834Y41238D01*
X34813Y41269D01*
X34375Y41707D01*
X34394Y41754D01*
X36555D01*
X36570Y41706D01*
X36559Y41699D01*
X35270Y40409D01*
X35250Y40380D01*
X35243Y40344D01*
Y40335D01*
X35203Y40314D01*
X35138Y40327D01*
X35073Y40314D01*
X35018Y40277D01*
X34981Y40222D01*
X34969Y40157D01*
X34981Y40093D01*
X35018Y40038D01*
X35073Y40001D01*
X35138Y39988D01*
X35203Y40001D01*
X35236Y39983D01*
Y39933D01*
X35200Y39915D01*
X35138Y39927D01*
X35075Y39915D01*
X35022Y39879D01*
X34987Y39826D01*
X34975Y39764D01*
X34987Y39701D01*
X35022Y39648D01*
X35075Y39613D01*
X35138Y39601D01*
X35200Y39613D01*
X35243Y39590D01*
Y39211D01*
X35166Y39134D01*
X35138Y39140D01*
X35075Y39127D01*
X35022Y39092D01*
X34987Y39039D01*
X34975Y38976D01*
X34987Y38914D01*
X35022Y38861D01*
X35075Y38826D01*
X35138Y38813D01*
X35200Y38826D01*
X35253Y38861D01*
X35289Y38914D01*
X35301Y38976D01*
X35295Y39004D01*
X35332Y39041D01*
X35377Y39018D01*
X35368Y38976D01*
X35381Y38914D01*
X35416Y38861D01*
X35469Y38826D01*
X35531Y38813D01*
X35594Y38826D01*
X35647Y38861D01*
X35682Y38914D01*
X35695Y38976D01*
X35690Y38997D01*
X35731Y39027D01*
X35763Y39010D01*
X35756Y38976D01*
X35769Y38912D01*
X35806Y38857D01*
X35860Y38820D01*
X35925Y38807D01*
X35990Y38820D01*
X36045Y38857D01*
X36082Y38912D01*
X36094Y38976D01*
X36082Y39041D01*
X36045Y39096D01*
X35990Y39133D01*
X35925Y39146D01*
X35860Y39133D01*
X35859Y39132D01*
X35817Y39160D01*
X35820Y39173D01*
Y39192D01*
X35860Y39214D01*
X35925Y39201D01*
X35990Y39214D01*
X36045Y39250D01*
X36082Y39305D01*
X36094Y39370D01*
X36082Y39435D01*
X36045Y39490D01*
X35990Y39526D01*
X35925Y39539D01*
X35860Y39526D01*
X35820Y39548D01*
Y39586D01*
X35860Y39607D01*
X35925Y39595D01*
X35990Y39607D01*
X36045Y39644D01*
X36082Y39699D01*
X36094Y39764D01*
X36082Y39829D01*
X36045Y39883D01*
X35990Y39920D01*
X35925Y39933D01*
X35860Y39920D01*
X35820Y39942D01*
Y39980D01*
X35860Y40001D01*
X35925Y39988D01*
X35990Y40001D01*
X36045Y40038D01*
X36082Y40093D01*
X36094Y40157D01*
X36082Y40222D01*
X36045Y40277D01*
X35990Y40314D01*
X35925Y40327D01*
X35891Y40320D01*
X35868Y40364D01*
X36829Y41326D01*
X37523D01*
X37546Y41283D01*
X37534Y41220D01*
X37546Y41158D01*
X37582Y41105D01*
X37634Y41070D01*
X37697Y41057D01*
X37759Y41070D01*
X37812Y41105D01*
X37848Y41158D01*
X37860Y41220D01*
X37848Y41283D01*
X37870Y41326D01*
X42812D01*
Y40057D01*
X39902D01*
X39537Y40423D01*
X39506Y40444D01*
X39469Y40451D01*
X39443Y40446D01*
X39253D01*
X39231Y40486D01*
X39244Y40551D01*
X39231Y40616D01*
X39194Y40671D01*
X39140Y40708D01*
X39075Y40720D01*
X39010Y40708D01*
X38955Y40671D01*
X38918Y40616D01*
X38906Y40551D01*
X38918Y40486D01*
X38903Y40457D01*
X38853D01*
X38837Y40486D01*
X38850Y40551D01*
X38837Y40616D01*
X38801Y40671D01*
X38746Y40708D01*
X38681Y40720D01*
X38616Y40708D01*
X38561Y40671D01*
X38525Y40616D01*
X38512Y40551D01*
X38525Y40486D01*
X38509Y40457D01*
X38459D01*
X38444Y40486D01*
X38457Y40551D01*
X38444Y40616D01*
X38407Y40671D01*
X38352Y40708D01*
X38287Y40720D01*
X38223Y40708D01*
X38168Y40671D01*
X38131Y40616D01*
X38118Y40551D01*
X38131Y40486D01*
X38116Y40457D01*
X38066D01*
X38050Y40486D01*
X38063Y40551D01*
X38050Y40616D01*
X38013Y40671D01*
X37958Y40708D01*
X37894Y40720D01*
X37829Y40708D01*
X37774Y40671D01*
X37737Y40616D01*
X37724Y40551D01*
X37737Y40486D01*
X37722Y40457D01*
X37672D01*
X37656Y40486D01*
X37669Y40551D01*
X37656Y40616D01*
X37620Y40671D01*
X37565Y40708D01*
X37500Y40720D01*
X37435Y40708D01*
X37380Y40671D01*
X37344Y40616D01*
X37331Y40551D01*
X37344Y40486D01*
X37370Y40447D01*
X37366Y40439D01*
X37337Y40419D01*
X37238Y40321D01*
X37218Y40291D01*
X37211Y40256D01*
Y39942D01*
X37171Y39920D01*
X37106Y39933D01*
X37042Y39920D01*
X36987Y39883D01*
X36950Y39829D01*
X36937Y39764D01*
X36950Y39699D01*
X36987Y39644D01*
X37042Y39607D01*
X37106Y39595D01*
X37140Y39601D01*
X37153Y39576D01*
X37124Y39536D01*
X37106Y39539D01*
X37042Y39526D01*
X36987Y39490D01*
X36950Y39435D01*
X36937Y39370D01*
X36950Y39305D01*
X36987Y39250D01*
X37042Y39214D01*
X37106Y39201D01*
X37171Y39214D01*
X37226Y39250D01*
X37263Y39305D01*
X37276Y39370D01*
X37269Y39403D01*
X37368Y39502D01*
X37388Y39532D01*
X37389Y39538D01*
X37395Y39567D01*
Y39586D01*
X37435Y39607D01*
X37500Y39595D01*
X37565Y39607D01*
X37620Y39644D01*
X37656Y39699D01*
X37669Y39764D01*
X37656Y39829D01*
X37620Y39883D01*
X37565Y39920D01*
X37500Y39933D01*
X37435Y39920D01*
X37395Y39942D01*
Y39984D01*
X37438Y40007D01*
X37500Y39994D01*
X37562Y40007D01*
X37615Y40042D01*
X37651Y40095D01*
X37663Y40157D01*
X37651Y40220D01*
X37674Y40263D01*
X38109D01*
X38131Y40222D01*
X38118Y40157D01*
X38131Y40093D01*
X38168Y40038D01*
X38223Y40001D01*
X38287Y39988D01*
X38352Y40001D01*
X38407Y40038D01*
X38444Y40093D01*
X38457Y40157D01*
X38444Y40222D01*
X38465Y40263D01*
X38897D01*
X38918Y40222D01*
X38906Y40157D01*
X38918Y40093D01*
X38955Y40038D01*
X39010Y40001D01*
X39075Y39988D01*
X39140Y40001D01*
X39194Y40038D01*
X39231Y40093D01*
X39244Y40157D01*
X39231Y40222D01*
X39253Y40263D01*
X39423D01*
X39794Y39892D01*
X39825Y39871D01*
X39862Y39864D01*
X42812D01*
Y37395D01*
X41024D01*
X40994Y37389D01*
X40989Y37388D01*
X40959Y37368D01*
X40493Y36903D01*
X39585D01*
X39213Y37275D01*
X39184Y37295D01*
X39148Y37302D01*
X38883D01*
X38854Y37296D01*
X38848Y37295D01*
X38818Y37275D01*
X38709Y37165D01*
X38681Y37171D01*
X38619Y37159D01*
X38566Y37123D01*
X38530Y37070D01*
X38518Y37008D01*
X38530Y36945D01*
X38566Y36893D01*
X38619Y36857D01*
X38681Y36845D01*
X38744Y36857D01*
X38796Y36893D01*
X38832Y36945D01*
X38844Y37008D01*
X38839Y37036D01*
X38876Y37073D01*
X38920Y37049D01*
X38912Y37008D01*
X38924Y36945D01*
X38959Y36893D01*
X39012Y36857D01*
X39075Y36845D01*
X39096Y36849D01*
X39126Y36809D01*
X39109Y36777D01*
X39075Y36783D01*
X39010Y36771D01*
X38955Y36734D01*
X38918Y36679D01*
X38906Y36614D01*
X38912Y36580D01*
X38880Y36563D01*
X38840Y36593D01*
X38844Y36614D01*
X38832Y36677D01*
X38796Y36730D01*
X38744Y36765D01*
X38681Y36777D01*
X38619Y36765D01*
X38566Y36730D01*
X38530Y36677D01*
X38518Y36614D01*
X38524Y36582D01*
X38480Y36558D01*
X38446Y36592D01*
X38451Y36614D01*
X38438Y36677D01*
X38403Y36730D01*
X38350Y36765D01*
X38287Y36777D01*
X38225Y36765D01*
X38182Y36788D01*
Y36834D01*
X38225Y36857D01*
X38287Y36845D01*
X38350Y36857D01*
X38403Y36893D01*
X38438Y36945D01*
X38451Y37008D01*
X38438Y37070D01*
X38403Y37123D01*
X38350Y37159D01*
X38287Y37171D01*
X38225Y37159D01*
X38182Y37181D01*
Y37228D01*
X38225Y37251D01*
X38287Y37238D01*
X38350Y37251D01*
X38403Y37286D01*
X38438Y37339D01*
X38451Y37402D01*
X38438Y37464D01*
X38403Y37517D01*
X38350Y37552D01*
X38287Y37565D01*
X38225Y37552D01*
X38182Y37575D01*
Y37622D01*
X38225Y37645D01*
X38287Y37632D01*
X38350Y37645D01*
X38403Y37680D01*
X38438Y37733D01*
X38451Y37795D01*
X38438Y37858D01*
X38403Y37911D01*
X38350Y37946D01*
X38287Y37958D01*
X38225Y37946D01*
X38182Y37969D01*
Y38015D01*
X38225Y38038D01*
X38287Y38026D01*
X38350Y38038D01*
X38403Y38074D01*
X38438Y38127D01*
X38451Y38189D01*
X38438Y38251D01*
X38415Y38286D01*
X38421Y38301D01*
X38451Y38321D01*
X38549Y38419D01*
X38569Y38449D01*
X38576Y38484D01*
Y39529D01*
X38648Y39601D01*
X38681Y39595D01*
X38746Y39607D01*
X38801Y39644D01*
X38837Y39699D01*
X38850Y39764D01*
X38837Y39829D01*
X38801Y39883D01*
X38746Y39920D01*
X38681Y39933D01*
X38616Y39920D01*
X38561Y39883D01*
X38525Y39829D01*
X38512Y39764D01*
X38515Y39746D01*
X38475Y39717D01*
X38450Y39730D01*
X38457Y39764D01*
X38444Y39829D01*
X38407Y39883D01*
X38352Y39920D01*
X38287Y39933D01*
X38223Y39920D01*
X38168Y39883D01*
X38131Y39829D01*
X38118Y39764D01*
X38124Y39733D01*
X38084Y39703D01*
X38049Y39722D01*
X38057Y39764D01*
X38044Y39826D01*
X38009Y39879D01*
X37956Y39915D01*
X37894Y39927D01*
X37831Y39915D01*
X37778Y39879D01*
X37743Y39826D01*
X37731Y39764D01*
X37743Y39701D01*
X37778Y39648D01*
X37831Y39613D01*
X37894Y39601D01*
X37956Y39613D01*
X37962Y39617D01*
X37995Y39595D01*
X37992Y39545D01*
X37958Y39526D01*
X37894Y39539D01*
X37829Y39526D01*
X37774Y39490D01*
X37737Y39435D01*
X37724Y39370D01*
X37737Y39305D01*
X37774Y39250D01*
X37829Y39214D01*
X37894Y39201D01*
X37958Y39214D01*
X37992Y39196D01*
Y39146D01*
X37956Y39127D01*
X37894Y39140D01*
X37831Y39127D01*
X37778Y39092D01*
X37743Y39039D01*
X37731Y38976D01*
X37743Y38914D01*
X37778Y38861D01*
X37831Y38826D01*
X37894Y38813D01*
X37956Y38826D01*
X37996Y38805D01*
Y38755D01*
X37956Y38733D01*
X37894Y38746D01*
X37831Y38733D01*
X37778Y38698D01*
X37743Y38645D01*
X37731Y38583D01*
X37743Y38520D01*
X37778Y38467D01*
X37831Y38432D01*
X37852Y38428D01*
X37866Y38380D01*
X37708Y38221D01*
X37660Y38236D01*
X37656Y38254D01*
X37620Y38309D01*
X37565Y38345D01*
X37500Y38358D01*
X37435Y38345D01*
X37380Y38309D01*
X37344Y38254D01*
X37331Y38189D01*
X37344Y38124D01*
X37380Y38069D01*
X37435Y38033D01*
X37500Y38020D01*
X37565Y38033D01*
X37594Y38017D01*
Y37967D01*
X37565Y37952D01*
X37500Y37965D01*
X37435Y37952D01*
X37380Y37915D01*
X37344Y37860D01*
X37331Y37795D01*
X37344Y37731D01*
X37380Y37676D01*
X37435Y37639D01*
X37500Y37626D01*
X37565Y37639D01*
X37605Y37617D01*
Y36792D01*
X37565Y36771D01*
X37500Y36783D01*
X37435Y36771D01*
X37380Y36734D01*
X37344Y36679D01*
X37331Y36614D01*
X37344Y36549D01*
X37380Y36494D01*
X37435Y36458D01*
X37500Y36445D01*
X37565Y36458D01*
X37605Y36436D01*
Y36043D01*
X37565Y35983D01*
X37500Y35996D01*
X37435Y35983D01*
X37395Y36005D01*
Y36024D01*
X37389Y36053D01*
X37388Y36059D01*
X37368Y36089D01*
X37269Y36188D01*
X37276Y36220D01*
X37263Y36285D01*
X37226Y36340D01*
X37171Y36377D01*
X37106Y36390D01*
X37042Y36377D01*
X36987Y36340D01*
X36950Y36285D01*
X36937Y36220D01*
X36950Y36156D01*
X36987Y36101D01*
X37042Y36064D01*
X37106Y36051D01*
X37124Y36055D01*
X37153Y36015D01*
X37140Y35989D01*
X37106Y35996D01*
X37042Y35983D01*
X36987Y35946D01*
X36950Y35892D01*
X36937Y35827D01*
X36944Y35793D01*
X36919Y35780D01*
X36878Y35809D01*
X36882Y35827D01*
X36869Y35892D01*
X36832Y35946D01*
X36777Y35983D01*
X36713Y35996D01*
X36648Y35983D01*
X36593Y35946D01*
X36556Y35892D01*
X36543Y35827D01*
X36556Y35762D01*
X36593Y35707D01*
X36648Y35670D01*
X36713Y35658D01*
X36730Y35661D01*
X36760Y35621D01*
X36746Y35596D01*
X36713Y35602D01*
X36648Y35589D01*
X36593Y35553D01*
X36574Y35525D01*
X36319D01*
X36290Y35519D01*
X36284Y35518D01*
X36254Y35498D01*
X36057Y35301D01*
X36037Y35271D01*
X36030Y35236D01*
Y33810D01*
X35982Y33795D01*
X35982Y33796D01*
X35929Y33832D01*
X35866Y33844D01*
X35804Y33832D01*
X35751Y33796D01*
X35715Y33744D01*
X35703Y33681D01*
X35711Y33643D01*
X35022Y32954D01*
X35000Y32958D01*
X34938Y32946D01*
X34885Y32911D01*
X34849Y32858D01*
X34837Y32795D01*
X34849Y32733D01*
X34885Y32680D01*
X34938Y32645D01*
X35000Y32632D01*
X35062Y32645D01*
X35115Y32680D01*
X35151Y32733D01*
X35163Y32795D01*
X35159Y32817D01*
X35861Y33519D01*
X35866Y33518D01*
X35929Y33530D01*
X35982Y33566D01*
X35982Y33567D01*
X36030Y33553D01*
Y33071D01*
D01*
Y33071D01*
X36037Y33036D01*
X36057Y33006D01*
X36209Y32854D01*
X36224Y32832D01*
X36813Y32243D01*
X36789Y32199D01*
X36732Y32210D01*
X36670Y32198D01*
X36617Y32163D01*
X36582Y32110D01*
X36569Y32047D01*
X36582Y31985D01*
X36617Y31932D01*
X36670Y31897D01*
X36732Y31884D01*
X36795Y31897D01*
X36848Y31932D01*
X36883Y31985D01*
X36895Y32047D01*
X36884Y32104D01*
X36928Y32128D01*
X37221Y31835D01*
X37198Y31791D01*
X37165Y31797D01*
X37103Y31785D01*
X37050Y31749D01*
X37016Y31699D01*
X37001D01*
X36961Y31707D01*
X36946Y31730D01*
X36893Y31765D01*
X36831Y31777D01*
X36768Y31765D01*
X36715Y31730D01*
X36703Y31711D01*
X31516D01*
X30600Y32628D01*
X30569Y32649D01*
X30531Y32656D01*
X29036D01*
X26889Y34803D01*
X26858Y34824D01*
X26821Y34831D01*
X25818D01*
X24348Y36300D01*
X24334Y36322D01*
X24236Y36420D01*
Y42336D01*
X24249Y42345D01*
X24285Y42398D01*
X24297Y42461D01*
X24285Y42523D01*
X24249Y42576D01*
X24196Y42611D01*
X24134Y42624D01*
X24071Y42611D01*
X24018Y42576D01*
X23985Y42526D01*
X23937Y42540D01*
Y43878D01*
X33252D01*
X33272Y43832D01*
D02*
G37*
G36*
X42812Y34585D02*
X41821D01*
X41808Y34604D01*
X41755Y34639D01*
X41693Y34651D01*
X41630Y34639D01*
X41578Y34604D01*
X41542Y34551D01*
X41530Y34488D01*
X41542Y34426D01*
X41578Y34373D01*
X41630Y34337D01*
X41693Y34325D01*
X41755Y34337D01*
X41808Y34373D01*
X41821Y34391D01*
X42812D01*
Y33817D01*
X41772D01*
X41735Y33810D01*
X41703Y33789D01*
X40514Y32600D01*
X40492Y32604D01*
X40430Y32592D01*
X40377Y32556D01*
X40341Y32503D01*
X40329Y32441D01*
X40341Y32379D01*
X40377Y32326D01*
X40402Y32309D01*
X40388Y32261D01*
X39864D01*
X39076Y33049D01*
X39080Y33071D01*
X39070Y33125D01*
X39116Y33144D01*
X39137Y33113D01*
X39190Y33078D01*
X39252Y33065D01*
X39314Y33078D01*
X39367Y33113D01*
X39380Y33131D01*
X39705D01*
X39742Y33139D01*
X39773Y33160D01*
X42186Y35572D01*
X42812D01*
Y34585D01*
D02*
G37*
G36*
X38613Y36152D02*
X38644Y36131D01*
X38681Y36124D01*
X38776D01*
X38795Y36077D01*
X38703Y35986D01*
X38681Y35990D01*
X38619Y35977D01*
X38566Y35942D01*
X38530Y35889D01*
X38518Y35827D01*
X38530Y35764D01*
X38566Y35711D01*
X38619Y35676D01*
X38681Y35664D01*
X38744Y35676D01*
X38796Y35711D01*
X38832Y35764D01*
X38844Y35827D01*
X38840Y35849D01*
X38918Y35927D01*
X42812D01*
Y35766D01*
X42146D01*
X42109Y35759D01*
X42077Y35738D01*
X41790Y35451D01*
X41746Y35475D01*
X41758Y35531D01*
X41745Y35594D01*
X41710Y35647D01*
X41657Y35682D01*
X41594Y35695D01*
X41532Y35682D01*
X41479Y35647D01*
X41444Y35594D01*
X41431Y35531D01*
X41444Y35469D01*
X41479Y35416D01*
X41532Y35381D01*
X41594Y35368D01*
X41651Y35380D01*
X41675Y35336D01*
X39665Y33325D01*
X39380D01*
X39367Y33344D01*
X39314Y33379D01*
X39252Y33391D01*
X39190Y33379D01*
X39137Y33344D01*
X39101Y33291D01*
X39089Y33228D01*
X39100Y33174D01*
X39053Y33155D01*
X39033Y33186D01*
X38980Y33222D01*
X38917Y33234D01*
X38855Y33222D01*
X38802Y33186D01*
X38767Y33133D01*
X38754Y33071D01*
X38767Y33008D01*
X38802Y32956D01*
X38855Y32920D01*
X38917Y32908D01*
X38939Y32912D01*
X39756Y32095D01*
X39756D01*
Y32095D01*
X39787Y32074D01*
X39824Y32067D01*
X42812D01*
Y31455D01*
X42265D01*
X42076Y31643D01*
X42045Y31664D01*
X42008Y31672D01*
X40571D01*
X40534Y31664D01*
X40502Y31643D01*
X40314Y31455D01*
X39346D01*
X39320Y31498D01*
X39333Y31521D01*
X39390Y31510D01*
X39452Y31523D01*
X39505Y31558D01*
X39540Y31611D01*
X39553Y31673D01*
X39540Y31736D01*
X39505Y31789D01*
X39452Y31824D01*
X39390Y31836D01*
X39368Y31832D01*
X37971Y33229D01*
Y33347D01*
X38019Y33362D01*
X38022Y33357D01*
X39231Y32148D01*
X39227Y32126D01*
X39239Y32064D01*
X39274Y32011D01*
X39327Y31975D01*
X39390Y31963D01*
X39452Y31975D01*
X39505Y32011D01*
X39540Y32064D01*
X39553Y32126D01*
X39540Y32188D01*
X39505Y32241D01*
X39452Y32277D01*
X39390Y32289D01*
X39368Y32285D01*
X38585Y33068D01*
X38599Y33116D01*
X38606Y33117D01*
X38659Y33152D01*
X38694Y33205D01*
X38706Y33268D01*
X38694Y33330D01*
X38659Y33383D01*
X38606Y33418D01*
X38543Y33431D01*
X38481Y33418D01*
X38428Y33383D01*
X38393Y33330D01*
X38391Y33324D01*
X38343Y33309D01*
X38182Y33470D01*
Y34044D01*
X38226Y34068D01*
X38264Y34042D01*
X38327Y34030D01*
X38389Y34042D01*
X38442Y34078D01*
X38477Y34130D01*
X38479Y34138D01*
X38520Y34200D01*
X38583Y34187D01*
X38645Y34200D01*
X38698Y34235D01*
X38733Y34288D01*
X38784Y34278D01*
X38786Y34268D01*
X38822Y34215D01*
X38875Y34180D01*
X38937Y34168D01*
X38999Y34180D01*
X39052Y34215D01*
X39088Y34268D01*
X39100Y34331D01*
X39088Y34393D01*
X39052Y34446D01*
X38999Y34481D01*
X38937Y34494D01*
X38875Y34481D01*
X38822Y34446D01*
X38786Y34393D01*
X38735Y34403D01*
X38733Y34413D01*
X38698Y34466D01*
X38645Y34501D01*
X38583Y34514D01*
X38520Y34501D01*
X38467Y34466D01*
X38432Y34413D01*
X38430Y34405D01*
X38389Y34344D01*
X38327Y34356D01*
X38264Y34344D01*
X38226Y34318D01*
X38182Y34342D01*
Y34861D01*
X38223Y34883D01*
X38287Y34870D01*
X38352Y34883D01*
X38407Y34920D01*
X38444Y34975D01*
X38457Y35039D01*
X38444Y35104D01*
X38407Y35159D01*
X38352Y35196D01*
X38287Y35209D01*
X38223Y35196D01*
X38182Y35217D01*
Y35649D01*
X38223Y35670D01*
X38287Y35658D01*
X38352Y35670D01*
X38407Y35707D01*
X38444Y35762D01*
X38457Y35827D01*
X38444Y35892D01*
X38407Y35946D01*
X38352Y35983D01*
X38287Y35996D01*
X38223Y35983D01*
X38182Y36005D01*
Y36043D01*
X38223Y36064D01*
X38287Y36051D01*
X38352Y36064D01*
X38407Y36101D01*
X38444Y36156D01*
X38457Y36220D01*
X38452Y36245D01*
X38496Y36269D01*
X38613Y36152D01*
D02*
G37*
G36*
X42812Y32261D02*
X40597D01*
X40582Y32309D01*
X40607Y32326D01*
X40643Y32379D01*
X40655Y32441D01*
X40651Y32463D01*
X41812Y33624D01*
X42812D01*
Y32261D01*
D02*
G37*
G36*
Y36745D02*
X40661D01*
X40642Y36792D01*
X41062Y37211D01*
X42812D01*
Y36745D01*
D02*
G37*
G36*
X36771Y33584D02*
X36759Y33566D01*
X36746Y33504D01*
X36759Y33442D01*
X36794Y33389D01*
X36847Y33353D01*
X36909Y33341D01*
X36971Y33353D01*
X37009Y33321D01*
Y32736D01*
X37017Y32699D01*
X37038Y32668D01*
X38847Y30858D01*
X38833Y30811D01*
X38807Y30806D01*
X38524D01*
X36361Y32969D01*
X36339Y32983D01*
X36214Y33109D01*
Y33651D01*
X36262Y33666D01*
X36263Y33664D01*
X36316Y33629D01*
X36378Y33616D01*
X36440Y33629D01*
X36493Y33664D01*
X36529Y33717D01*
X36536Y33756D01*
X36584Y33771D01*
X36771Y33584D01*
D02*
G37*
G36*
X24018Y42345D02*
X24032Y42336D01*
Y36378D01*
X24040Y36339D01*
X24062Y36306D01*
X24190Y36178D01*
X24211Y36163D01*
X25709Y34666D01*
X25740Y34645D01*
X25778Y34637D01*
X26781D01*
X28928Y32491D01*
X28959Y32470D01*
X28996Y32462D01*
X29430D01*
X29446Y32415D01*
X29401Y32380D01*
X29360Y32326D01*
X29333Y32263D01*
X29324Y32195D01*
X29333Y32127D01*
X29360Y32064D01*
X29401Y32009D01*
X29455Y31968D01*
X29519Y31942D01*
X29587Y31933D01*
X29654Y31942D01*
X29718Y31968D01*
X29772Y32009D01*
X29814Y32064D01*
X29840Y32127D01*
X29849Y32195D01*
X29840Y32263D01*
X29814Y32326D01*
X29772Y32380D01*
X29718Y32422D01*
X29654Y32448D01*
X29587Y32457D01*
X29592Y32462D01*
X30491D01*
X31408Y31546D01*
X31439Y31525D01*
X31476Y31517D01*
X36703D01*
X36715Y31499D01*
X36768Y31463D01*
X36831Y31451D01*
X36893Y31463D01*
X36946Y31499D01*
X36980Y31549D01*
X36995D01*
X37035Y31541D01*
X37050Y31518D01*
X37103Y31483D01*
X37165Y31471D01*
X37228Y31483D01*
X37281Y31518D01*
X37316Y31571D01*
X37328Y31634D01*
X37322Y31666D01*
X37366Y31690D01*
X38398Y30658D01*
X38378Y30612D01*
X23937D01*
Y31010D01*
X23984Y31026D01*
X24007Y30996D01*
X24062Y30954D01*
X24125Y30928D01*
X24193Y30919D01*
X24261Y30928D01*
X24324Y30954D01*
X24378Y30996D01*
X24420Y31050D01*
X24446Y31113D01*
X24455Y31181D01*
X24446Y31249D01*
X24420Y31312D01*
X24378Y31367D01*
X24324Y31408D01*
X24261Y31434D01*
X24193Y31443D01*
X24125Y31434D01*
X24062Y31408D01*
X24007Y31367D01*
X23984Y31336D01*
X23937Y31352D01*
Y31991D01*
X23975Y32024D01*
X23996Y32021D01*
X24064Y32030D01*
X24127Y32056D01*
X24181Y32098D01*
X24223Y32152D01*
X24249Y32216D01*
X24258Y32283D01*
X24249Y32351D01*
X24223Y32415D01*
X24181Y32469D01*
X24127Y32511D01*
X24064Y32537D01*
X23996Y32546D01*
X23975Y32543D01*
X23937Y32576D01*
Y33235D01*
X23985Y33255D01*
X24027Y33200D01*
X24081Y33159D01*
X24145Y33133D01*
X24213Y33124D01*
X24280Y33133D01*
X24344Y33159D01*
X24398Y33200D01*
X24440Y33255D01*
X24466Y33318D01*
X24475Y33386D01*
X24466Y33454D01*
X24440Y33517D01*
X24398Y33571D01*
X24344Y33613D01*
X24280Y33639D01*
X24213Y33648D01*
X24145Y33639D01*
X24081Y33613D01*
X24027Y33571D01*
X23985Y33517D01*
X23937Y33537D01*
Y42381D01*
X23985Y42396D01*
X24018Y42345D01*
D02*
G37*
G36*
X39223Y31290D02*
X39254Y31269D01*
X39291Y31261D01*
X40354D01*
X40391Y31269D01*
X40423Y31290D01*
X40611Y31478D01*
X41127D01*
X41151Y31434D01*
X41129Y31401D01*
X41116Y31339D01*
X41129Y31276D01*
X41164Y31223D01*
X41217Y31188D01*
X41202Y31140D01*
X39272D01*
X37597Y32816D01*
Y32850D01*
X37643Y32870D01*
X39223Y31290D01*
D02*
G37*
G36*
X37303Y33577D02*
X37364Y33589D01*
X37403Y33558D01*
Y32776D01*
X37411Y32739D01*
X37432Y32707D01*
X39149Y30990D01*
X39130Y30943D01*
X39036D01*
X37203Y32776D01*
Y33558D01*
X37242Y33589D01*
X37303Y33577D01*
D02*
G37*
G36*
X42156Y31290D02*
X42187Y31269D01*
X42224Y31261D01*
X42812D01*
Y31140D01*
X41357D01*
X41342Y31188D01*
X41395Y31223D01*
X41430Y31276D01*
X41443Y31339D01*
X41430Y31401D01*
X41395Y31454D01*
X41402Y31478D01*
X41968D01*
X42156Y31290D01*
D02*
G37*
G36*
X34177Y43834D02*
X34161Y43810D01*
X34147Y43740D01*
X34151Y43719D01*
X34116Y43683D01*
X34094Y43687D01*
X34024Y43673D01*
X33965Y43634D01*
X33925Y43574D01*
X33911Y43504D01*
X33915Y43482D01*
X33880Y43447D01*
X33858Y43451D01*
X33788Y43437D01*
X33728Y43397D01*
X33689Y43338D01*
X33675Y43268D01*
X33679Y43246D01*
X33644Y43211D01*
X33622Y43215D01*
X33552Y43201D01*
X33492Y43161D01*
X33452Y43102D01*
X33439Y43032D01*
X33443Y43010D01*
X33407Y42975D01*
X33386Y42979D01*
X33316Y42965D01*
X33256Y42925D01*
X33216Y42866D01*
X33202Y42795D01*
X33207Y42774D01*
X33171Y42738D01*
X33150Y42743D01*
X33079Y42729D01*
X33020Y42689D01*
X32980Y42629D01*
X32966Y42559D01*
X32970Y42537D01*
X32935Y42502D01*
X32913Y42506D01*
X32843Y42492D01*
X32784Y42453D01*
X32744Y42393D01*
X32730Y42323D01*
X32734Y42301D01*
X32699Y42266D01*
X32677Y42270D01*
X32607Y42256D01*
X32547Y42216D01*
X32508Y42157D01*
X32494Y42087D01*
X32498Y42065D01*
X32463Y42030D01*
X32441Y42034D01*
X32371Y42020D01*
X32311Y41980D01*
X32271Y41921D01*
X32257Y41850D01*
X32271Y41780D01*
X32311Y41721D01*
X32314Y41719D01*
X32295Y41673D01*
X32264Y41679D01*
X32201Y41666D01*
X32188Y41658D01*
X32144Y41681D01*
Y42125D01*
X33897Y43878D01*
X34153D01*
X34177Y43834D01*
D02*
G37*
%LPC*%
G36*
X30118Y36915D02*
X30056Y36903D01*
X30003Y36867D01*
X29967Y36814D01*
X29955Y36752D01*
X29967Y36690D01*
X30003Y36637D01*
X30056Y36601D01*
X30118Y36589D01*
X30181Y36601D01*
X30233Y36637D01*
X30269Y36690D01*
X30281Y36752D01*
X30269Y36814D01*
X30233Y36867D01*
X30181Y36903D01*
X30118Y36915D01*
D02*
G37*
G36*
X27392Y36118D02*
X27329Y36105D01*
X27276Y36070D01*
X27241Y36017D01*
X27229Y35955D01*
X27241Y35892D01*
X27276Y35839D01*
X27329Y35804D01*
X27392Y35792D01*
X27454Y35804D01*
X27507Y35839D01*
X27542Y35892D01*
X27555Y35955D01*
X27542Y36017D01*
X27507Y36070D01*
X27454Y36105D01*
X27392Y36118D01*
D02*
G37*
G36*
X26201Y35852D02*
X26138Y35840D01*
X26085Y35804D01*
X26050Y35751D01*
X26038Y35689D01*
X26050Y35627D01*
X26085Y35574D01*
X26138Y35538D01*
X26201Y35526D01*
X26263Y35538D01*
X26316Y35574D01*
X26351Y35627D01*
X26364Y35689D01*
X26351Y35751D01*
X26316Y35804D01*
X26263Y35840D01*
X26201Y35852D01*
D02*
G37*
G36*
X36319Y36783D02*
X36254Y36771D01*
X36199Y36734D01*
X36163Y36679D01*
X36150Y36614D01*
X36163Y36549D01*
X36199Y36495D01*
X36254Y36458D01*
X36319Y36445D01*
X36384Y36458D01*
X36439Y36495D01*
X36475Y36549D01*
X36488Y36614D01*
X36475Y36679D01*
X36439Y36734D01*
X36384Y36771D01*
X36319Y36783D01*
D02*
G37*
G36*
X33957Y36783D02*
X33892Y36771D01*
X33837Y36734D01*
X33800Y36679D01*
X33787Y36614D01*
X33800Y36549D01*
X33837Y36494D01*
X33892Y36458D01*
X33957Y36445D01*
X34021Y36458D01*
X34076Y36494D01*
X34113Y36549D01*
X34126Y36614D01*
X34113Y36679D01*
X34076Y36734D01*
X34021Y36771D01*
X33957Y36783D01*
D02*
G37*
G36*
X32264Y39140D02*
X32201Y39127D01*
X32148Y39092D01*
X32113Y39039D01*
X32101Y38976D01*
X32113Y38914D01*
X32148Y38861D01*
X32167Y38849D01*
Y36949D01*
X32174Y36912D01*
X32195Y36880D01*
X32597Y36479D01*
X32593Y36457D01*
X32605Y36394D01*
X32641Y36341D01*
X32693Y36306D01*
X32756Y36294D01*
X32818Y36306D01*
X32871Y36341D01*
X32907Y36394D01*
X32919Y36457D01*
X32907Y36519D01*
X32871Y36572D01*
X32818Y36607D01*
X32756Y36620D01*
X32734Y36615D01*
X32361Y36989D01*
Y38849D01*
X32379Y38861D01*
X32415Y38914D01*
X32427Y38976D01*
X32415Y39039D01*
X32379Y39092D01*
X32326Y39127D01*
X32264Y39140D01*
D02*
G37*
G36*
X35925Y36783D02*
X35860Y36771D01*
X35806Y36734D01*
X35769Y36679D01*
X35756Y36614D01*
X35769Y36549D01*
X35806Y36495D01*
X35860Y36458D01*
X35925Y36445D01*
X35990Y36458D01*
X36045Y36495D01*
X36082Y36549D01*
X36094Y36614D01*
X36082Y36679D01*
X36045Y36734D01*
X35990Y36771D01*
X35925Y36783D01*
D02*
G37*
G36*
X26289Y36374D02*
X26227Y36361D01*
X26174Y36326D01*
X26139Y36273D01*
X26126Y36211D01*
X26139Y36148D01*
X26174Y36095D01*
X26227Y36060D01*
X26289Y36047D01*
X26352Y36060D01*
X26405Y36095D01*
X26440Y36148D01*
X26453Y36211D01*
X26440Y36273D01*
X26405Y36326D01*
X26352Y36361D01*
X26289Y36374D01*
D02*
G37*
G36*
X35925Y37571D02*
X35860Y37558D01*
X35806Y37521D01*
X35769Y37466D01*
X35756Y37402D01*
X35769Y37337D01*
X35806Y37282D01*
X35860Y37245D01*
X35925Y37232D01*
X35990Y37245D01*
X36045Y37282D01*
X36082Y37337D01*
X36094Y37402D01*
X36082Y37466D01*
X36045Y37521D01*
X35990Y37558D01*
X35925Y37571D01*
D02*
G37*
G36*
X30049Y37397D02*
X29987Y37385D01*
X29934Y37350D01*
X29898Y37297D01*
X29886Y37234D01*
X29898Y37172D01*
X29934Y37119D01*
X29987Y37084D01*
X30049Y37071D01*
X30112Y37084D01*
X30165Y37119D01*
X30200Y37172D01*
X30212Y37234D01*
X30200Y37297D01*
X30165Y37350D01*
X30112Y37385D01*
X30049Y37397D01*
D02*
G37*
G36*
X36319Y37571D02*
X36254Y37558D01*
X36199Y37521D01*
X36163Y37466D01*
X36150Y37402D01*
X36163Y37337D01*
X36199Y37282D01*
X36254Y37245D01*
X36319Y37232D01*
X36384Y37245D01*
X36439Y37282D01*
X36475Y37337D01*
X36488Y37402D01*
X36475Y37466D01*
X36439Y37521D01*
X36384Y37558D01*
X36319Y37571D01*
D02*
G37*
G36*
X37106D02*
X37042Y37558D01*
X36987Y37521D01*
X36950Y37466D01*
X36937Y37402D01*
X36950Y37337D01*
X36987Y37282D01*
X37042Y37245D01*
X37106Y37232D01*
X37171Y37245D01*
X37226Y37282D01*
X37263Y37337D01*
X37276Y37402D01*
X37263Y37466D01*
X37226Y37521D01*
X37171Y37558D01*
X37106Y37571D01*
D02*
G37*
G36*
X36713D02*
X36648Y37558D01*
X36593Y37521D01*
X36556Y37466D01*
X36543Y37402D01*
X36556Y37337D01*
X36593Y37282D01*
X36648Y37245D01*
X36713Y37232D01*
X36777Y37245D01*
X36832Y37282D01*
X36869Y37337D01*
X36882Y37402D01*
X36869Y37466D01*
X36832Y37521D01*
X36777Y37558D01*
X36713Y37571D01*
D02*
G37*
G36*
X27382Y37269D02*
X27319Y37257D01*
X27267Y37222D01*
X27231Y37169D01*
X27219Y37106D01*
X27231Y37044D01*
X27267Y36991D01*
X27319Y36956D01*
X27382Y36943D01*
X27444Y36956D01*
X27497Y36991D01*
X27533Y37044D01*
X27545Y37106D01*
X27533Y37169D01*
X27497Y37222D01*
X27444Y37257D01*
X27382Y37269D01*
D02*
G37*
G36*
X35925Y37177D02*
X35860Y37164D01*
X35806Y37128D01*
X35769Y37073D01*
X35756Y37008D01*
X35769Y36943D01*
X35806Y36888D01*
X35860Y36852D01*
X35925Y36839D01*
X35990Y36852D01*
X36045Y36888D01*
X36082Y36943D01*
X36094Y37008D01*
X36082Y37073D01*
X36045Y37128D01*
X35990Y37164D01*
X35925Y37177D01*
D02*
G37*
G36*
X28927Y37141D02*
X28865Y37129D01*
X28812Y37094D01*
X28776Y37041D01*
X28764Y36978D01*
X28776Y36916D01*
X28812Y36863D01*
X28865Y36828D01*
X28927Y36815D01*
X28990Y36828D01*
X29043Y36863D01*
X29078Y36916D01*
X29090Y36978D01*
X29078Y37041D01*
X29043Y37094D01*
X28990Y37129D01*
X28927Y37141D01*
D02*
G37*
G36*
X36319Y37177D02*
X36254Y37164D01*
X36199Y37128D01*
X36163Y37073D01*
X36150Y37008D01*
X36163Y36943D01*
X36199Y36888D01*
X36254Y36852D01*
X36319Y36839D01*
X36384Y36852D01*
X36439Y36888D01*
X36475Y36943D01*
X36488Y37008D01*
X36475Y37073D01*
X36439Y37128D01*
X36384Y37164D01*
X36319Y37177D01*
D02*
G37*
G36*
X37106D02*
X37042Y37164D01*
X36987Y37128D01*
X36950Y37073D01*
X36937Y37008D01*
X36950Y36943D01*
X36987Y36888D01*
X37042Y36852D01*
X37106Y36839D01*
X37171Y36852D01*
X37226Y36888D01*
X37263Y36943D01*
X37276Y37008D01*
X37263Y37073D01*
X37226Y37128D01*
X37171Y37164D01*
X37106Y37177D01*
D02*
G37*
G36*
X36713D02*
X36648Y37164D01*
X36593Y37128D01*
X36556Y37073D01*
X36543Y37008D01*
X36556Y36943D01*
X36593Y36888D01*
X36648Y36852D01*
X36713Y36839D01*
X36777Y36852D01*
X36832Y36888D01*
X36869Y36943D01*
X36882Y37008D01*
X36869Y37073D01*
X36832Y37128D01*
X36777Y37164D01*
X36713Y37177D01*
D02*
G37*
G36*
X33671Y32575D02*
X33603Y32566D01*
X33540Y32540D01*
X33486Y32498D01*
X33444Y32444D01*
X33418Y32381D01*
X33409Y32313D01*
X33418Y32245D01*
X33444Y32182D01*
X33486Y32128D01*
X33540Y32086D01*
X33603Y32060D01*
X33671Y32051D01*
X33739Y32060D01*
X33802Y32086D01*
X33857Y32128D01*
X33898Y32182D01*
X33925Y32245D01*
X33933Y32313D01*
X33925Y32381D01*
X33898Y32444D01*
X33857Y32498D01*
X33802Y32540D01*
X33739Y32566D01*
X33671Y32575D01*
D02*
G37*
G36*
X26299Y32546D02*
X26231Y32537D01*
X26168Y32511D01*
X26114Y32469D01*
X26072Y32415D01*
X26046Y32351D01*
X26037Y32283D01*
X26046Y32216D01*
X26072Y32152D01*
X26114Y32098D01*
X26168Y32056D01*
X26169Y32056D01*
X26175Y32007D01*
X26124Y31967D01*
X26082Y31913D01*
X26056Y31849D01*
X26047Y31781D01*
X26056Y31714D01*
X26082Y31650D01*
X26124Y31596D01*
X26178Y31554D01*
X26241Y31528D01*
X26309Y31519D01*
X26377Y31528D01*
X26440Y31554D01*
X26494Y31596D01*
X26536Y31650D01*
X26562Y31714D01*
X26571Y31781D01*
X26562Y31849D01*
X26536Y31913D01*
X26494Y31967D01*
X26440Y32009D01*
X26430Y32013D01*
Y32056D01*
X26485Y32098D01*
X26526Y32152D01*
X26553Y32216D01*
X26561Y32283D01*
X26553Y32351D01*
X26526Y32415D01*
X26485Y32469D01*
X26430Y32511D01*
X26367Y32537D01*
X26299Y32546D01*
D02*
G37*
G36*
X35531Y32899D02*
X35469Y32887D01*
X35416Y32852D01*
X35381Y32799D01*
X35368Y32736D01*
X35381Y32674D01*
X35416Y32621D01*
X35469Y32585D01*
X35531Y32573D01*
X35594Y32585D01*
X35647Y32621D01*
X35682Y32674D01*
X35695Y32736D01*
X35682Y32799D01*
X35647Y32852D01*
X35594Y32887D01*
X35531Y32899D01*
D02*
G37*
G36*
X25620Y33530D02*
X25552Y33521D01*
X25489Y33495D01*
X25435Y33453D01*
X25393Y33399D01*
X25367Y33336D01*
X25358Y33268D01*
X25367Y33200D01*
X25393Y33137D01*
X25435Y33082D01*
X25489Y33041D01*
X25552Y33014D01*
X25620Y33005D01*
X25688Y33014D01*
X25751Y33041D01*
X25806Y33082D01*
X25847Y33137D01*
X25873Y33200D01*
X25882Y33268D01*
X25873Y33336D01*
X25847Y33399D01*
X25806Y33453D01*
X25751Y33495D01*
X25688Y33521D01*
X25620Y33530D01*
D02*
G37*
G36*
X40354Y33017D02*
X40292Y33005D01*
X40239Y32970D01*
X40204Y32917D01*
X40191Y32854D01*
X40204Y32792D01*
X40239Y32739D01*
X40292Y32704D01*
X40354Y32691D01*
X40417Y32704D01*
X40470Y32739D01*
X40505Y32792D01*
X40517Y32854D01*
X40505Y32917D01*
X40470Y32970D01*
X40417Y33005D01*
X40354Y33017D01*
D02*
G37*
G36*
X37598Y31187D02*
X37536Y31174D01*
X37483Y31139D01*
X37448Y31086D01*
X37435Y31024D01*
X37448Y30961D01*
X37483Y30908D01*
X37536Y30873D01*
X37598Y30860D01*
X37661Y30873D01*
X37714Y30908D01*
X37749Y30961D01*
X37762Y31024D01*
X37749Y31086D01*
X37714Y31139D01*
X37661Y31174D01*
X37598Y31187D01*
D02*
G37*
G36*
X26319Y31363D02*
X26251Y31354D01*
X26188Y31328D01*
X26133Y31286D01*
X26092Y31232D01*
X26066Y31168D01*
X26057Y31100D01*
X26066Y31033D01*
X26092Y30969D01*
X26133Y30915D01*
X26188Y30873D01*
X26251Y30847D01*
X26319Y30838D01*
X26387Y30847D01*
X26450Y30873D01*
X26504Y30915D01*
X26546Y30969D01*
X26572Y31033D01*
X26581Y31100D01*
X26572Y31168D01*
X26546Y31232D01*
X26504Y31286D01*
X26450Y31328D01*
X26387Y31354D01*
X26319Y31363D01*
D02*
G37*
G36*
X24961Y31463D02*
X24893Y31454D01*
X24830Y31428D01*
X24775Y31386D01*
X24734Y31332D01*
X24707Y31269D01*
X24698Y31201D01*
X24707Y31133D01*
X24734Y31070D01*
X24775Y31015D01*
X24830Y30974D01*
X24893Y30947D01*
X24961Y30939D01*
X25029Y30947D01*
X25092Y30974D01*
X25146Y31015D01*
X25188Y31070D01*
X25214Y31133D01*
X25223Y31201D01*
X25214Y31269D01*
X25188Y31332D01*
X25146Y31386D01*
X25092Y31428D01*
X25029Y31454D01*
X24961Y31463D01*
D02*
G37*
G36*
X30482Y31758D02*
X30414Y31749D01*
X30351Y31723D01*
X30297Y31681D01*
X30255Y31627D01*
X30229Y31564D01*
X30220Y31496D01*
X30229Y31428D01*
X30255Y31365D01*
X30297Y31311D01*
X30351Y31269D01*
X30414Y31243D01*
X30482Y31234D01*
X30550Y31243D01*
X30613Y31269D01*
X30668Y31311D01*
X30709Y31365D01*
X30736Y31428D01*
X30745Y31496D01*
X30736Y31564D01*
X30709Y31627D01*
X30668Y31681D01*
X30613Y31723D01*
X30550Y31749D01*
X30482Y31758D01*
D02*
G37*
G36*
X27589Y31719D02*
X27521Y31710D01*
X27457Y31684D01*
X27403Y31642D01*
X27361Y31588D01*
X27335Y31525D01*
X27326Y31457D01*
X27335Y31389D01*
X27361Y31326D01*
X27403Y31271D01*
X27457Y31230D01*
X27521Y31203D01*
X27589Y31194D01*
X27656Y31203D01*
X27720Y31230D01*
X27774Y31271D01*
X27816Y31326D01*
X27842Y31389D01*
X27851Y31457D01*
X27842Y31525D01*
X27816Y31588D01*
X27774Y31642D01*
X27720Y31684D01*
X27656Y31710D01*
X27589Y31719D01*
D02*
G37*
G36*
X24980Y33668D02*
X24912Y33659D01*
X24849Y33633D01*
X24795Y33591D01*
X24753Y33537D01*
X24727Y33473D01*
X24718Y33406D01*
X24727Y33338D01*
X24753Y33274D01*
X24795Y33220D01*
X24849Y33178D01*
X24912Y33152D01*
X24980Y33143D01*
X25048Y33152D01*
X25111Y33178D01*
X25166Y33220D01*
X25207Y33274D01*
X25234Y33338D01*
X25243Y33406D01*
X25234Y33473D01*
X25207Y33537D01*
X25166Y33591D01*
X25111Y33633D01*
X25048Y33659D01*
X24980Y33668D01*
D02*
G37*
G36*
X35138Y35602D02*
X35073Y35589D01*
X35018Y35553D01*
X34981Y35498D01*
X34969Y35433D01*
X34981Y35368D01*
X35018Y35313D01*
X35073Y35277D01*
X35138Y35264D01*
X35203Y35277D01*
X35257Y35313D01*
X35294Y35368D01*
X35307Y35433D01*
X35294Y35498D01*
X35257Y35553D01*
X35203Y35589D01*
X35138Y35602D01*
D02*
G37*
G36*
X28839Y35399D02*
X28776Y35387D01*
X28723Y35352D01*
X28688Y35299D01*
X28675Y35236D01*
X28688Y35174D01*
X28723Y35121D01*
X28776Y35085D01*
X28839Y35073D01*
X28901Y35085D01*
X28954Y35121D01*
X28966Y35139D01*
X32480D01*
X32506Y35144D01*
X32991D01*
X33013Y35104D01*
X33000Y35039D01*
X33013Y34975D01*
X33050Y34920D01*
X33105Y34883D01*
X33169Y34870D01*
X33234Y34883D01*
X33289Y34920D01*
X33326Y34975D01*
X33339Y35039D01*
X33326Y35104D01*
X33341Y35133D01*
X33391D01*
X33407Y35104D01*
X33394Y35039D01*
X33407Y34975D01*
X33443Y34920D01*
X33498Y34883D01*
X33563Y34870D01*
X33628Y34883D01*
X33683Y34920D01*
X33719Y34975D01*
X33732Y35039D01*
X33726Y35073D01*
X33751Y35087D01*
X33791Y35057D01*
X33787Y35039D01*
X33800Y34975D01*
X33837Y34920D01*
X33892Y34883D01*
X33957Y34870D01*
X34021Y34883D01*
X34076Y34920D01*
X34113Y34975D01*
X34126Y35039D01*
X34113Y35104D01*
X34076Y35159D01*
X34021Y35196D01*
X33957Y35209D01*
X33924Y35202D01*
X33825Y35301D01*
X33795Y35321D01*
X33760Y35328D01*
X32506D01*
X32480Y35333D01*
X28966D01*
X28954Y35352D01*
X28901Y35387D01*
X28839Y35399D01*
D02*
G37*
G36*
X35531Y35602D02*
X35467Y35589D01*
X35412Y35553D01*
X35375Y35498D01*
X35362Y35433D01*
X35375Y35368D01*
X35412Y35313D01*
X35467Y35277D01*
X35531Y35264D01*
X35596Y35277D01*
X35651Y35313D01*
X35688Y35368D01*
X35701Y35433D01*
X35688Y35498D01*
X35651Y35553D01*
X35596Y35589D01*
X35531Y35602D01*
D02*
G37*
G36*
X25492Y35852D02*
X25430Y35840D01*
X25377Y35804D01*
X25341Y35751D01*
X25329Y35689D01*
X25341Y35627D01*
X25377Y35574D01*
X25430Y35538D01*
X25492Y35526D01*
X25555Y35538D01*
X25607Y35574D01*
X25643Y35627D01*
X25655Y35689D01*
X25643Y35751D01*
X25607Y35804D01*
X25555Y35840D01*
X25492Y35852D01*
D02*
G37*
G36*
X38681Y35602D02*
X38616Y35589D01*
X38561Y35553D01*
X38525Y35498D01*
X38512Y35433D01*
X38525Y35368D01*
X38561Y35313D01*
X38616Y35277D01*
X38681Y35264D01*
X38746Y35277D01*
X38801Y35313D01*
X38837Y35368D01*
X38850Y35433D01*
X38837Y35498D01*
X38801Y35553D01*
X38746Y35589D01*
X38681Y35602D01*
D02*
G37*
G36*
X29852Y34426D02*
X29784Y34417D01*
X29721Y34390D01*
X29667Y34349D01*
X29625Y34295D01*
X29599Y34231D01*
X29590Y34163D01*
X29599Y34096D01*
X29625Y34032D01*
X29667Y33978D01*
X29721Y33936D01*
X29784Y33910D01*
X29852Y33901D01*
X29920Y33910D01*
X29983Y33936D01*
X30038Y33978D01*
X30079Y34032D01*
X30106Y34096D01*
X30115Y34163D01*
X30106Y34231D01*
X30079Y34295D01*
X30038Y34349D01*
X29983Y34390D01*
X29920Y34417D01*
X29852Y34426D01*
D02*
G37*
G36*
X27008Y34032D02*
X26940Y34023D01*
X26877Y33997D01*
X26822Y33955D01*
X26781Y33901D01*
X26755Y33838D01*
X26746Y33770D01*
X26755Y33702D01*
X26781Y33639D01*
X26822Y33584D01*
X26877Y33543D01*
X26940Y33516D01*
X27008Y33507D01*
X27076Y33516D01*
X27139Y33543D01*
X27193Y33584D01*
X27235Y33639D01*
X27261Y33702D01*
X27270Y33770D01*
X27261Y33838D01*
X27235Y33901D01*
X27193Y33955D01*
X27139Y33997D01*
X27076Y34023D01*
X27008Y34032D01*
D02*
G37*
G36*
X28839Y34789D02*
X28776Y34777D01*
X28723Y34741D01*
X28688Y34688D01*
X28675Y34626D01*
X28688Y34564D01*
X28723Y34511D01*
X28776Y34475D01*
X28839Y34463D01*
X28901Y34475D01*
X28954Y34511D01*
X28989Y34564D01*
X29002Y34626D01*
X28989Y34688D01*
X28954Y34741D01*
X28901Y34777D01*
X28839Y34789D01*
D02*
G37*
G36*
X39980Y34907D02*
X39918Y34895D01*
X39865Y34859D01*
X39830Y34807D01*
X39817Y34744D01*
X39830Y34682D01*
X39865Y34629D01*
X39918Y34593D01*
X39980Y34581D01*
X40043Y34593D01*
X40096Y34629D01*
X40131Y34682D01*
X40143Y34744D01*
X40131Y34807D01*
X40096Y34859D01*
X40043Y34895D01*
X39980Y34907D01*
D02*
G37*
G36*
X39469Y34815D02*
X39404Y34802D01*
X39349Y34765D01*
X39312Y34710D01*
X39299Y34646D01*
X39312Y34581D01*
X39349Y34526D01*
X39404Y34489D01*
X39469Y34476D01*
X39533Y34489D01*
X39588Y34526D01*
X39625Y34581D01*
X39638Y34646D01*
X39625Y34710D01*
X39588Y34765D01*
X39533Y34802D01*
X39469Y34815D01*
D02*
G37*
G36*
X25807Y38096D02*
X25745Y38084D01*
X25692Y38048D01*
X25656Y37996D01*
X25644Y37933D01*
X25656Y37871D01*
X25692Y37818D01*
X25745Y37782D01*
X25807Y37770D01*
X25829Y37774D01*
X26091Y37512D01*
X26087Y37490D01*
X26099Y37428D01*
X26135Y37375D01*
X26188Y37339D01*
X26250Y37327D01*
X26312Y37339D01*
X26365Y37375D01*
X26401Y37428D01*
X26413Y37490D01*
X26401Y37553D01*
X26365Y37606D01*
X26312Y37641D01*
X26250Y37653D01*
X26228Y37649D01*
X25966Y37911D01*
X25970Y37933D01*
X25958Y37996D01*
X25922Y38048D01*
X25870Y38084D01*
X25807Y38096D01*
D02*
G37*
G36*
X36319Y39933D02*
X36254Y39920D01*
X36199Y39883D01*
X36163Y39829D01*
X36150Y39764D01*
X36163Y39699D01*
X36199Y39644D01*
X36254Y39607D01*
X36319Y39595D01*
X36384Y39607D01*
X36439Y39644D01*
X36475Y39699D01*
X36488Y39764D01*
X36475Y39829D01*
X36439Y39883D01*
X36384Y39920D01*
X36319Y39933D01*
D02*
G37*
G36*
X33051Y39854D02*
X32986Y39841D01*
X32931Y39805D01*
X32895Y39750D01*
X32882Y39685D01*
X32895Y39620D01*
X32931Y39565D01*
X32986Y39529D01*
X33051Y39516D01*
X33116Y39529D01*
X33171Y39565D01*
X33208Y39620D01*
X33220Y39685D01*
X33208Y39750D01*
X33171Y39805D01*
X33116Y39841D01*
X33051Y39854D01*
D02*
G37*
G36*
X34744Y39539D02*
X34679Y39526D01*
X34624Y39490D01*
X34588Y39435D01*
X34575Y39370D01*
X34588Y39305D01*
X34624Y39250D01*
X34679Y39214D01*
X34744Y39201D01*
X34809Y39214D01*
X34864Y39250D01*
X34900Y39305D01*
X34913Y39370D01*
X34900Y39435D01*
X34864Y39490D01*
X34809Y39526D01*
X34744Y39539D01*
D02*
G37*
G36*
X25482Y39956D02*
X25420Y39944D01*
X25367Y39909D01*
X25332Y39856D01*
X25319Y39793D01*
X25332Y39731D01*
X25367Y39678D01*
X25420Y39643D01*
X25482Y39630D01*
X25545Y39643D01*
X25598Y39678D01*
X25633Y39731D01*
X25645Y39793D01*
X25633Y39856D01*
X25598Y39909D01*
X25545Y39944D01*
X25482Y39956D01*
D02*
G37*
G36*
X33563Y39937D02*
X33501Y39924D01*
X33448Y39889D01*
X33412Y39836D01*
X33400Y39774D01*
X33412Y39711D01*
X33448Y39658D01*
X33501Y39623D01*
X33563Y39610D01*
X33625Y39623D01*
X33678Y39658D01*
X33714Y39711D01*
X33726Y39774D01*
X33714Y39836D01*
X33678Y39889D01*
X33625Y39924D01*
X33563Y39937D01*
D02*
G37*
G36*
X36713Y39933D02*
X36648Y39920D01*
X36593Y39883D01*
X36556Y39829D01*
X36543Y39764D01*
X36556Y39699D01*
X36593Y39644D01*
X36648Y39607D01*
X36713Y39595D01*
X36777Y39607D01*
X36832Y39644D01*
X36869Y39699D01*
X36882Y39764D01*
X36869Y39829D01*
X36832Y39883D01*
X36777Y39920D01*
X36713Y39933D01*
D02*
G37*
G36*
X36319Y39146D02*
X36254Y39133D01*
X36199Y39096D01*
X36163Y39041D01*
X36150Y38976D01*
X36163Y38912D01*
X36199Y38857D01*
X36254Y38820D01*
X36319Y38807D01*
X36384Y38820D01*
X36439Y38857D01*
X36475Y38912D01*
X36488Y38976D01*
X36475Y39041D01*
X36439Y39096D01*
X36384Y39133D01*
X36319Y39146D01*
D02*
G37*
G36*
X26280Y38923D02*
X26217Y38911D01*
X26164Y38875D01*
X26129Y38822D01*
X26116Y38760D01*
X26129Y38697D01*
X26164Y38644D01*
X26217Y38609D01*
X26280Y38597D01*
X26342Y38609D01*
X26395Y38644D01*
X26430Y38697D01*
X26443Y38760D01*
X26430Y38822D01*
X26395Y38875D01*
X26342Y38911D01*
X26280Y38923D01*
D02*
G37*
G36*
X34744Y38746D02*
X34682Y38733D01*
X34629Y38698D01*
X34593Y38645D01*
X34581Y38583D01*
X34593Y38520D01*
X34629Y38467D01*
X34682Y38432D01*
X34744Y38420D01*
X34807Y38432D01*
X34859Y38467D01*
X34895Y38520D01*
X34907Y38583D01*
X34895Y38645D01*
X34859Y38698D01*
X34807Y38733D01*
X34744Y38746D01*
D02*
G37*
G36*
X36713Y39539D02*
X36648Y39526D01*
X36593Y39490D01*
X36556Y39435D01*
X36543Y39370D01*
X36556Y39305D01*
X36593Y39250D01*
X36648Y39214D01*
X36713Y39201D01*
X36777Y39214D01*
X36832Y39250D01*
X36869Y39305D01*
X36882Y39370D01*
X36869Y39435D01*
X36832Y39490D01*
X36777Y39526D01*
X36713Y39539D01*
D02*
G37*
G36*
X36319D02*
X36254Y39526D01*
X36199Y39490D01*
X36163Y39435D01*
X36150Y39370D01*
X36163Y39305D01*
X36199Y39250D01*
X36254Y39214D01*
X36319Y39201D01*
X36384Y39214D01*
X36439Y39250D01*
X36475Y39305D01*
X36488Y39370D01*
X36475Y39435D01*
X36439Y39490D01*
X36384Y39526D01*
X36319Y39539D01*
D02*
G37*
G36*
X37500Y39146D02*
X37435Y39133D01*
X37380Y39096D01*
X37344Y39041D01*
X37331Y38976D01*
X37344Y38912D01*
X37380Y38857D01*
X37435Y38820D01*
X37500Y38807D01*
X37565Y38820D01*
X37620Y38857D01*
X37656Y38912D01*
X37669Y38976D01*
X37656Y39041D01*
X37620Y39096D01*
X37565Y39133D01*
X37500Y39146D01*
D02*
G37*
G36*
X28563Y41797D02*
X28501Y41785D01*
X28448Y41749D01*
X28412Y41696D01*
X28400Y41634D01*
X28412Y41571D01*
X28448Y41519D01*
X28501Y41483D01*
X28563Y41471D01*
X28625Y41483D01*
X28678Y41519D01*
X28714Y41571D01*
X28726Y41634D01*
X28714Y41696D01*
X28678Y41749D01*
X28625Y41785D01*
X28563Y41797D01*
D02*
G37*
G36*
X36909Y41246D02*
X36847Y41233D01*
X36794Y41198D01*
X36759Y41145D01*
X36746Y41083D01*
X36759Y41020D01*
X36794Y40967D01*
X36847Y40932D01*
X36909Y40920D01*
X36972Y40932D01*
X37025Y40967D01*
X37060Y41020D01*
X37073Y41083D01*
X37060Y41145D01*
X37025Y41198D01*
X36972Y41233D01*
X36909Y41246D01*
D02*
G37*
G36*
X33130Y41154D02*
X33065Y41141D01*
X33010Y41104D01*
X32974Y41049D01*
X32961Y40984D01*
X32974Y40919D01*
X33010Y40865D01*
X33065Y40828D01*
X33130Y40815D01*
X33195Y40828D01*
X33250Y40865D01*
X33286Y40919D01*
X33299Y40984D01*
X33286Y41049D01*
X33250Y41104D01*
X33195Y41141D01*
X33130Y41154D01*
D02*
G37*
G36*
X30531Y43409D02*
X30440Y43391D01*
X30362Y43339D01*
X30310Y43261D01*
X30292Y43169D01*
X30310Y43078D01*
X30362Y43000D01*
X30440Y42948D01*
X30531Y42930D01*
X30623Y42948D01*
X30701Y43000D01*
X30753Y43078D01*
X30771Y43169D01*
X30753Y43261D01*
X30701Y43339D01*
X30623Y43391D01*
X30531Y43409D01*
D02*
G37*
G36*
X31811Y42998D02*
X31749Y42985D01*
X31696Y42950D01*
X31660Y42897D01*
X31648Y42835D01*
X31652Y42813D01*
X31388Y42549D01*
X31367Y42517D01*
X31360Y42480D01*
Y41329D01*
X31341Y41316D01*
X31306Y41263D01*
X31294Y41201D01*
X31306Y41138D01*
X31341Y41085D01*
X31394Y41050D01*
X31457Y41038D01*
X31519Y41050D01*
X31572Y41085D01*
X31607Y41138D01*
X31620Y41201D01*
X31607Y41263D01*
X31572Y41316D01*
X31554Y41329D01*
Y42440D01*
X31789Y42676D01*
X31811Y42672D01*
X31873Y42684D01*
X31926Y42719D01*
X31962Y42772D01*
X31974Y42835D01*
X31962Y42897D01*
X31926Y42950D01*
X31873Y42985D01*
X31811Y42998D01*
D02*
G37*
G36*
X27854Y42210D02*
X27792Y42198D01*
X27739Y42163D01*
X27704Y42110D01*
X27691Y42047D01*
X27704Y41985D01*
X27739Y41932D01*
X27792Y41897D01*
X27854Y41884D01*
X27917Y41897D01*
X27970Y41932D01*
X28005Y41985D01*
X28017Y42047D01*
X28005Y42110D01*
X27970Y42163D01*
X27917Y42198D01*
X27854Y42210D01*
D02*
G37*
G36*
X37106Y40720D02*
X37042Y40708D01*
X36987Y40671D01*
X36950Y40616D01*
X36937Y40551D01*
X36950Y40486D01*
X36987Y40431D01*
X37042Y40395D01*
X37106Y40382D01*
X37171Y40395D01*
X37226Y40431D01*
X37263Y40486D01*
X37276Y40551D01*
X37263Y40616D01*
X37226Y40671D01*
X37171Y40708D01*
X37106Y40720D01*
D02*
G37*
G36*
X36713Y40327D02*
X36648Y40314D01*
X36593Y40277D01*
X36556Y40222D01*
X36543Y40157D01*
X36556Y40093D01*
X36593Y40038D01*
X36648Y40001D01*
X36713Y39988D01*
X36777Y40001D01*
X36832Y40038D01*
X36869Y40093D01*
X36882Y40157D01*
X36869Y40222D01*
X36832Y40277D01*
X36777Y40314D01*
X36713Y40327D01*
D02*
G37*
G36*
X36319D02*
X36254Y40314D01*
X36199Y40277D01*
X36163Y40222D01*
X36150Y40157D01*
X36163Y40093D01*
X36199Y40038D01*
X36254Y40001D01*
X36319Y39988D01*
X36384Y40001D01*
X36439Y40038D01*
X36475Y40093D01*
X36488Y40157D01*
X36475Y40222D01*
X36439Y40277D01*
X36384Y40314D01*
X36319Y40327D01*
D02*
G37*
G36*
X39488Y41016D02*
X39423Y41003D01*
X39369Y40966D01*
X39332Y40911D01*
X39319Y40846D01*
X39332Y40782D01*
X39369Y40727D01*
X39423Y40690D01*
X39488Y40677D01*
X39553Y40690D01*
X39608Y40727D01*
X39645Y40782D01*
X39657Y40846D01*
X39645Y40911D01*
X39608Y40966D01*
X39553Y41003D01*
X39488Y41016D01*
D02*
G37*
G36*
X30551Y40889D02*
X30459Y40871D01*
X30382Y40819D01*
X30330Y40741D01*
X30312Y40650D01*
X30330Y40558D01*
X30382Y40480D01*
X30459Y40428D01*
X30551Y40410D01*
X30643Y40428D01*
X30721Y40480D01*
X30773Y40558D01*
X30791Y40650D01*
X30773Y40741D01*
X30721Y40819D01*
X30643Y40871D01*
X30551Y40889D01*
D02*
G37*
G36*
X33563Y40720D02*
X33498Y40708D01*
X33443Y40671D01*
X33407Y40616D01*
X33394Y40551D01*
X33407Y40486D01*
X33443Y40431D01*
X33498Y40395D01*
X33563Y40382D01*
X33628Y40395D01*
X33683Y40431D01*
X33719Y40486D01*
X33732Y40551D01*
X33719Y40616D01*
X33683Y40671D01*
X33628Y40708D01*
X33563Y40720D01*
D02*
G37*
G36*
X36319Y38752D02*
X36254Y38739D01*
X36199Y38702D01*
X36163Y38647D01*
X36150Y38583D01*
X36163Y38518D01*
X36199Y38463D01*
X36254Y38426D01*
X36319Y38413D01*
X36384Y38426D01*
X36439Y38463D01*
X36475Y38518D01*
X36488Y38583D01*
X36475Y38647D01*
X36439Y38702D01*
X36384Y38739D01*
X36319Y38752D01*
D02*
G37*
G36*
X26220Y38254D02*
X26158Y38241D01*
X26105Y38206D01*
X26070Y38153D01*
X26057Y38091D01*
X26070Y38028D01*
X26105Y37975D01*
X26158Y37940D01*
X26220Y37927D01*
X26283Y37940D01*
X26336Y37975D01*
X26371Y38028D01*
X26384Y38091D01*
X26371Y38153D01*
X26336Y38206D01*
X26283Y38241D01*
X26220Y38254D01*
D02*
G37*
G36*
X40886Y38037D02*
X40823Y38025D01*
X40770Y37989D01*
X40735Y37936D01*
X40723Y37874D01*
X40735Y37812D01*
X40770Y37759D01*
X40823Y37723D01*
X40886Y37711D01*
X40948Y37723D01*
X41001Y37759D01*
X41037Y37812D01*
X41049Y37874D01*
X41037Y37936D01*
X41001Y37989D01*
X40948Y38025D01*
X40886Y38037D01*
D02*
G37*
G36*
X33563Y37965D02*
X33498Y37952D01*
X33443Y37915D01*
X33407Y37860D01*
X33394Y37795D01*
X33407Y37731D01*
X33443Y37676D01*
X33498Y37639D01*
X33563Y37626D01*
X33628Y37639D01*
X33683Y37676D01*
X33719Y37731D01*
X33732Y37795D01*
X33719Y37860D01*
X33683Y37915D01*
X33628Y37952D01*
X33563Y37965D01*
D02*
G37*
G36*
X35925Y38358D02*
X35860Y38345D01*
X35806Y38309D01*
X35769Y38254D01*
X35756Y38189D01*
X35769Y38124D01*
X35806Y38069D01*
X35860Y38033D01*
X35925Y38020D01*
X35990Y38033D01*
X36045Y38069D01*
X36082Y38124D01*
X36094Y38189D01*
X36082Y38254D01*
X36045Y38309D01*
X35990Y38345D01*
X35925Y38358D01*
D02*
G37*
G36*
X35138D02*
X35073Y38345D01*
X35018Y38309D01*
X34981Y38254D01*
X34969Y38189D01*
X34981Y38124D01*
X35018Y38069D01*
X35073Y38033D01*
X35138Y38020D01*
X35203Y38033D01*
X35257Y38069D01*
X35294Y38124D01*
X35307Y38189D01*
X35294Y38254D01*
X35257Y38309D01*
X35203Y38345D01*
X35138Y38358D01*
D02*
G37*
G36*
X34744D02*
X34679Y38345D01*
X34624Y38309D01*
X34588Y38254D01*
X34575Y38189D01*
X34588Y38124D01*
X34624Y38069D01*
X34679Y38033D01*
X34744Y38020D01*
X34809Y38033D01*
X34864Y38069D01*
X34900Y38124D01*
X34913Y38189D01*
X34900Y38254D01*
X34864Y38309D01*
X34809Y38345D01*
X34744Y38358D01*
D02*
G37*
G36*
X35925Y37965D02*
X35860Y37952D01*
X35806Y37915D01*
X35769Y37860D01*
X35756Y37795D01*
X35769Y37731D01*
X35806Y37676D01*
X35860Y37639D01*
X35925Y37626D01*
X35990Y37639D01*
X36045Y37676D01*
X36082Y37731D01*
X36094Y37795D01*
X36082Y37860D01*
X36045Y37915D01*
X35990Y37952D01*
X35925Y37965D01*
D02*
G37*
G36*
X35138D02*
X35073Y37952D01*
X35018Y37915D01*
X34981Y37860D01*
X34969Y37795D01*
X34981Y37731D01*
X35018Y37676D01*
X35073Y37639D01*
X35138Y37626D01*
X35203Y37639D01*
X35257Y37676D01*
X35294Y37731D01*
X35307Y37795D01*
X35294Y37860D01*
X35257Y37915D01*
X35203Y37952D01*
X35138Y37965D01*
D02*
G37*
G36*
X39518Y38077D02*
X39455Y38064D01*
X39402Y38029D01*
X39367Y37976D01*
X39355Y37913D01*
X39367Y37851D01*
X39402Y37798D01*
X39455Y37763D01*
X39500Y37754D01*
X39520Y37708D01*
X39515Y37700D01*
X39502Y37638D01*
X39515Y37575D01*
X39550Y37522D01*
X39603Y37487D01*
X39665Y37475D01*
X39728Y37487D01*
X39781Y37522D01*
X39816Y37575D01*
X39828Y37638D01*
X39816Y37700D01*
X39781Y37753D01*
X39728Y37789D01*
X39665Y37801D01*
D01*
X39665Y37801D01*
D01*
D01*
X39665D01*
X39658Y37836D01*
X39668Y37851D01*
X39681Y37913D01*
X39668Y37976D01*
X39633Y38029D01*
X39580Y38064D01*
X39518Y38077D01*
D02*
G37*
G36*
X38681Y37965D02*
X38616Y37952D01*
X38561Y37915D01*
X38525Y37860D01*
X38512Y37795D01*
X38525Y37731D01*
X38561Y37676D01*
X38616Y37639D01*
X38681Y37626D01*
X38746Y37639D01*
X38801Y37676D01*
X38837Y37731D01*
X38850Y37795D01*
X38837Y37860D01*
X38801Y37915D01*
X38746Y37952D01*
X38681Y37965D01*
D02*
G37*
G36*
X36713D02*
X36648Y37952D01*
X36593Y37915D01*
X36556Y37860D01*
X36543Y37795D01*
X36556Y37731D01*
X36593Y37676D01*
X36648Y37639D01*
X36713Y37626D01*
X36777Y37639D01*
X36832Y37676D01*
X36869Y37731D01*
X36882Y37795D01*
X36869Y37860D01*
X36832Y37915D01*
X36777Y37952D01*
X36713Y37965D01*
D02*
G37*
G36*
X36319D02*
X36254Y37952D01*
X36199Y37915D01*
X36163Y37860D01*
X36150Y37795D01*
X36163Y37731D01*
X36199Y37676D01*
X36254Y37639D01*
X36319Y37626D01*
X36384Y37639D01*
X36439Y37676D01*
X36475Y37731D01*
X36488Y37795D01*
X36475Y37860D01*
X36439Y37915D01*
X36384Y37952D01*
X36319Y37965D01*
D02*
G37*
G36*
X37500Y38752D02*
X37435Y38739D01*
X37380Y38702D01*
X37344Y38647D01*
X37331Y38583D01*
X37344Y38518D01*
X37380Y38463D01*
X37435Y38426D01*
X37500Y38413D01*
X37565Y38426D01*
X37620Y38463D01*
X37656Y38518D01*
X37669Y38583D01*
X37656Y38647D01*
X37620Y38702D01*
X37565Y38739D01*
X37500Y38752D01*
D02*
G37*
G36*
X37106D02*
X37042Y38739D01*
X36987Y38702D01*
X36950Y38647D01*
X36937Y38583D01*
X36950Y38518D01*
X36987Y38463D01*
X37042Y38426D01*
X37106Y38413D01*
X37171Y38426D01*
X37226Y38463D01*
X37263Y38518D01*
X37276Y38583D01*
X37263Y38647D01*
X37226Y38702D01*
X37171Y38739D01*
X37106Y38752D01*
D02*
G37*
G36*
X35138D02*
X35073Y38739D01*
X35018Y38702D01*
X34981Y38647D01*
X34969Y38583D01*
X34981Y38518D01*
X35018Y38463D01*
X35073Y38426D01*
X35138Y38413D01*
X35203Y38426D01*
X35257Y38463D01*
X35294Y38518D01*
X35307Y38583D01*
X35294Y38647D01*
X35257Y38702D01*
X35203Y38739D01*
X35138Y38752D01*
D02*
G37*
G36*
X35925Y38752D02*
X35860Y38739D01*
X35806Y38702D01*
X35769Y38647D01*
X35756Y38583D01*
X35769Y38518D01*
X35806Y38463D01*
X35860Y38426D01*
X35925Y38413D01*
X35990Y38426D01*
X36045Y38463D01*
X36082Y38518D01*
X36094Y38583D01*
X36082Y38647D01*
X36045Y38702D01*
X35990Y38739D01*
X35925Y38752D01*
D02*
G37*
G36*
X36713Y38752D02*
X36648Y38739D01*
X36593Y38702D01*
X36556Y38647D01*
X36543Y38583D01*
X36556Y38518D01*
X36593Y38463D01*
X36648Y38426D01*
X36713Y38413D01*
X36777Y38426D01*
X36832Y38463D01*
X36869Y38518D01*
X36882Y38583D01*
X36869Y38647D01*
X36832Y38702D01*
X36777Y38739D01*
X36713Y38752D01*
D02*
G37*
G36*
X33563Y38752D02*
X33498Y38739D01*
X33443Y38702D01*
X33407Y38647D01*
X33394Y38583D01*
X33407Y38518D01*
X33443Y38463D01*
X33498Y38426D01*
X33563Y38413D01*
X33628Y38426D01*
X33683Y38463D01*
X33719Y38518D01*
X33732Y38583D01*
X33719Y38647D01*
X33683Y38702D01*
X33628Y38739D01*
X33563Y38752D01*
D02*
G37*
G36*
X38681Y38352D02*
X38619Y38340D01*
X38566Y38304D01*
X38530Y38251D01*
X38518Y38189D01*
X38530Y38127D01*
X38566Y38074D01*
X38619Y38038D01*
X38681Y38026D01*
X38744Y38038D01*
X38796Y38074D01*
X38832Y38127D01*
X38844Y38189D01*
X38832Y38251D01*
X38796Y38304D01*
X38744Y38340D01*
X38681Y38352D01*
D02*
G37*
G36*
X36713Y38358D02*
X36648Y38345D01*
X36593Y38309D01*
X36556Y38254D01*
X36543Y38189D01*
X36556Y38124D01*
X36593Y38069D01*
X36648Y38033D01*
X36713Y38020D01*
X36777Y38033D01*
X36832Y38069D01*
X36869Y38124D01*
X36882Y38189D01*
X36869Y38254D01*
X36832Y38309D01*
X36777Y38345D01*
X36713Y38358D01*
D02*
G37*
G36*
X36319D02*
X36254Y38345D01*
X36199Y38309D01*
X36163Y38254D01*
X36150Y38189D01*
X36163Y38124D01*
X36199Y38069D01*
X36254Y38033D01*
X36319Y38020D01*
X36384Y38033D01*
X36439Y38069D01*
X36475Y38124D01*
X36488Y38189D01*
X36475Y38254D01*
X36439Y38309D01*
X36384Y38345D01*
X36319Y38358D01*
D02*
G37*
G36*
X27362Y38667D02*
X27300Y38655D01*
X27247Y38619D01*
X27211Y38566D01*
X27199Y38504D01*
X27211Y38442D01*
X27247Y38389D01*
X27300Y38353D01*
X27362Y38341D01*
X27425Y38353D01*
X27478Y38389D01*
X27513Y38442D01*
X27525Y38504D01*
X27513Y38566D01*
X27478Y38619D01*
X27425Y38655D01*
X27362Y38667D01*
D02*
G37*
G36*
X33051Y38555D02*
X32986Y38542D01*
X32931Y38506D01*
X32895Y38451D01*
X32882Y38386D01*
X32895Y38321D01*
X32931Y38266D01*
X32986Y38229D01*
X33051Y38217D01*
X33116Y38229D01*
X33171Y38266D01*
X33208Y38321D01*
X33220Y38386D01*
X33208Y38451D01*
X33171Y38506D01*
X33116Y38542D01*
X33051Y38555D01*
D02*
G37*
G36*
X40472Y38175D02*
X40410Y38163D01*
X40357Y38127D01*
X40322Y38074D01*
X40313Y38032D01*
X40263D01*
X40259Y38055D01*
X40224Y38107D01*
X40171Y38143D01*
X40108Y38155D01*
X40046Y38143D01*
X39993Y38107D01*
X39958Y38055D01*
X39945Y37992D01*
X39958Y37930D01*
X39993Y37877D01*
X40046Y37841D01*
X40108Y37829D01*
X40171Y37841D01*
X40224Y37877D01*
X40259Y37930D01*
X40267Y37972D01*
X40317D01*
X40322Y37949D01*
X40357Y37896D01*
X40410Y37861D01*
X40472Y37849D01*
X40535Y37861D01*
X40588Y37896D01*
X40623Y37949D01*
X40636Y38012D01*
X40623Y38074D01*
X40588Y38127D01*
X40535Y38163D01*
X40472Y38175D01*
D02*
G37*
%LPD*%
D34*
X61732Y33081D02*
D03*
X57559Y33976D02*
D03*
X61575Y32008D02*
D03*
X58858Y34941D02*
D03*
X31398Y32303D02*
D03*
X27008Y33770D02*
D03*
X28740Y34183D02*
D03*
X27626Y32783D02*
D03*
D37*
X33622Y43032D02*
X70000D01*
X76722Y36211D02*
X76752D01*
Y48209D01*
X74911Y30709D02*
X76309Y32106D01*
X38484Y30709D02*
X74911D01*
X76309Y35797D02*
X76722Y36211D01*
X76309Y32106D02*
Y35797D01*
X34094Y43504D02*
X70472D01*
X64508Y32874D02*
X67343D01*
X50591D02*
X60886D01*
X64252Y32618D02*
X64508Y32874D01*
X60886D02*
X61142Y32618D01*
X37480Y35827D02*
X37490Y35817D01*
X61142Y32618D02*
X64252D01*
X24262Y36250D02*
X25778Y34734D01*
X31476Y31614D02*
X36831D01*
X30531Y32559D02*
X31476Y31614D01*
X25778Y34734D02*
X26821D01*
X28996Y32559D01*
X30531D01*
X39291Y31358D02*
X40354D01*
X42008Y31575D02*
X42224Y31358D01*
X40354D02*
X40571Y31575D01*
X42224Y31358D02*
X49075D01*
X40571Y31575D02*
X42008D01*
X43995Y32164D02*
X45610Y33780D01*
X39824Y32164D02*
X43995D01*
X38917Y33071D02*
X39824Y32164D01*
X32953Y35630D02*
X33150Y35827D01*
X28976Y35630D02*
X32894Y35630D01*
Y35630D02*
X32953D01*
X39469Y40354D02*
X39862Y39961D01*
X45945D01*
X37264Y33740D02*
X37303D01*
X37028Y33976D02*
X37264Y33740D01*
X37028Y33976D02*
Y34429D01*
X37106Y34705D02*
Y35827D01*
X38976Y30846D02*
X73760D01*
X37106Y32736D02*
Y33681D01*
Y32736D02*
X38996Y30846D01*
X36870Y34469D02*
X37106Y34705D01*
X36870Y33917D02*
X37106Y33681D01*
X36870Y33917D02*
Y34469D01*
Y33484D02*
Y33622D01*
X36299Y34193D02*
X36870Y33622D01*
X36299Y34193D02*
Y34626D01*
X74921Y59075D02*
X76181Y57815D01*
X74350Y59075D02*
X74921D01*
X32264Y41516D02*
X33327D01*
X33957Y40886D01*
Y40551D02*
Y40886D01*
Y40551D02*
X34154Y40354D01*
X36102Y42087D02*
X69055D01*
X32913Y42323D02*
X69291D01*
X34520Y44658D02*
X34783Y44921D01*
X32047Y42165D02*
X34520Y44638D01*
Y44658D01*
X45610Y33780D02*
X48760D01*
X50295Y35315D01*
X49075Y31358D02*
X50591Y32874D01*
X37697Y32953D02*
X39291Y31358D01*
X32264Y36949D02*
X32756Y36457D01*
X32264Y36949D02*
Y38976D01*
X41693Y34488D02*
X46988D01*
X47165Y34665D01*
X43150Y34921D02*
X47480D01*
X37874Y33189D02*
Y35827D01*
Y33189D02*
X39390Y31673D01*
X38091Y33425D02*
X39390Y32126D01*
X67343Y32874D02*
X71043Y36575D01*
Y38957D01*
X71510Y39423D01*
X37500Y32776D02*
Y35433D01*
Y32776D02*
X39232Y31043D01*
X71457D01*
X74528Y34114D01*
Y38996D01*
X74961Y39429D01*
X74980Y32067D02*
Y37598D01*
X73760Y30846D02*
X74980Y32067D01*
X45945Y39961D02*
X46968Y40984D01*
X34331Y43740D02*
X70709D01*
X60472Y48819D02*
X60472Y48819D01*
X32047Y40118D02*
Y42165D01*
Y40118D02*
X32795Y39370D01*
X32776Y39350D02*
X32795Y39370D01*
X31105Y44491D02*
X33467D01*
X33839Y44862D01*
X32441Y41850D02*
X68819D01*
X34094D02*
X34744Y41201D01*
Y40157D02*
Y41201D01*
X33858Y43268D02*
X70236D01*
X33386Y42795D02*
X69764D01*
X33150Y42559D02*
X69528D01*
X32677Y42087D02*
X36102D01*
X70554Y44491D02*
X70787Y44724D01*
X67483Y44491D02*
X70554D01*
X67087Y44094D02*
X67483Y44491D01*
X64587Y44094D02*
X67087D01*
X68268Y48740D02*
X68268Y48740D01*
X67441Y46850D02*
X67559D01*
X68268Y45748D02*
X68268Y45748D01*
X66772Y54016D02*
X66890Y53898D01*
Y51929D02*
Y53898D01*
X66575Y49331D02*
Y49370D01*
X66299Y51339D02*
X66890Y51929D01*
X66299Y49606D02*
Y51339D01*
Y49606D02*
X66575Y49331D01*
X66969Y51064D02*
X67185Y51280D01*
X66850Y47402D02*
Y50945D01*
Y50945D02*
X66969Y51064D01*
X66496Y47047D02*
X66850Y47402D01*
X65709Y47047D02*
X66496D01*
X65512Y46850D02*
X65709Y47047D01*
X64567Y56339D02*
X65197Y56968D01*
X64567Y55197D02*
Y56339D01*
X65512Y55276D02*
Y57165D01*
X67941Y50461D02*
Y55937D01*
X67087Y49606D02*
X67941Y50461D01*
X66791Y57087D02*
X67941Y55937D01*
X67165Y51890D02*
Y56063D01*
X65901Y54326D02*
X66811Y55236D01*
X65901Y48224D02*
Y54326D01*
X65000Y47323D02*
X65901Y48224D01*
X65000Y44744D02*
Y47323D01*
X66102Y53740D02*
X66693Y54331D01*
X66102Y47874D02*
Y53740D01*
X65236Y47008D02*
X66102Y47874D01*
X65236Y45807D02*
Y47008D01*
Y45807D02*
X65571Y45472D01*
X67087Y46850D02*
Y49016D01*
X66693Y46457D02*
X67087Y46850D01*
X66693Y45591D02*
Y46457D01*
X65591Y44488D02*
X66693Y45591D01*
X68661Y54232D02*
Y57165D01*
X68169Y53740D02*
X68661Y54232D01*
X68169Y50295D02*
Y53740D01*
X67717Y49843D02*
X68169Y50295D01*
X67539Y49547D02*
Y49665D01*
X67717Y49843D01*
X67362Y49370D02*
X67539Y49547D01*
X67362Y47598D02*
Y49370D01*
Y47598D02*
X67480Y47480D01*
X69293Y57124D02*
X69350Y57067D01*
Y52559D02*
Y57067D01*
X69055Y52264D02*
X69350Y52559D01*
X69921Y57126D02*
X70236Y56811D01*
Y51181D02*
Y56811D01*
X68937Y49882D02*
X70236Y51181D01*
X68937Y49724D02*
Y49882D01*
X69941Y51870D02*
Y56201D01*
X67874Y49508D02*
Y49803D01*
X69941Y51870D01*
X68169Y49705D02*
X68268D01*
X56142Y48740D02*
X56142Y48740D01*
X55315Y46850D02*
X55433D01*
X56142Y45748D02*
X56142Y45748D01*
X54646Y54016D02*
X54764Y53898D01*
Y51929D02*
Y53898D01*
X54449Y49331D02*
Y49370D01*
X54173Y51339D02*
X54764Y51929D01*
X54173Y49606D02*
Y51339D01*
Y49606D02*
X54449Y49331D01*
X54843Y51064D02*
X55059Y51280D01*
X54724Y47402D02*
Y50945D01*
Y50945D02*
X54843Y51064D01*
X54370Y47047D02*
X54724Y47402D01*
X53583Y47047D02*
X54370D01*
X53386Y46850D02*
X53583Y47047D01*
X52441Y56339D02*
X53071Y56968D01*
X52441Y55197D02*
Y56339D01*
X53386Y55276D02*
Y57165D01*
X55815Y50461D02*
Y55937D01*
X54961Y49606D02*
X55815Y50461D01*
X54665Y57087D02*
X55815Y55937D01*
X55039Y51890D02*
Y56063D01*
X53775Y54326D02*
X54685Y55236D01*
X53775Y48224D02*
Y54326D01*
X52874Y47323D02*
X53775Y48224D01*
X52874Y44744D02*
Y47323D01*
X53976Y53740D02*
X54567Y54331D01*
X53976Y47874D02*
Y53740D01*
X53110Y47008D02*
X53976Y47874D01*
X53110Y45807D02*
Y47008D01*
Y45807D02*
X53445Y45472D01*
X54961Y46850D02*
Y49016D01*
X54567Y46457D02*
X54961Y46850D01*
X54567Y45591D02*
Y46457D01*
X53465Y44488D02*
X54567Y45591D01*
X56535Y54232D02*
Y57165D01*
X56043Y53740D02*
X56535Y54232D01*
X56043Y50295D02*
Y53740D01*
X55591Y49843D02*
X56043Y50295D01*
X55413Y49547D02*
Y49665D01*
X55591Y49843D01*
X55236Y49370D02*
X55413Y49547D01*
X55236Y47598D02*
Y49370D01*
Y47598D02*
X55354Y47480D01*
X57167Y57124D02*
X57224Y57067D01*
Y52559D02*
Y57067D01*
X56929Y52264D02*
X57224Y52559D01*
X57795Y57126D02*
X58110Y56811D01*
Y51181D02*
Y56811D01*
X56811Y49882D02*
X58110Y51181D01*
X56811Y49724D02*
Y49882D01*
X57815Y51870D02*
Y56201D01*
X55748Y49508D02*
Y49803D01*
X57815Y51870D01*
X56043Y49705D02*
X56142D01*
X41850Y53740D02*
X42441Y54331D01*
X41850Y47874D02*
Y53740D01*
X40984Y47008D02*
X41850Y47874D01*
X40984Y45807D02*
Y47008D01*
Y45807D02*
X41319Y45472D01*
X41649Y54326D02*
X42559Y55236D01*
X41649Y48224D02*
Y54326D01*
X40748Y47323D02*
X41649Y48224D01*
X40748Y44744D02*
Y47323D01*
X42835Y46850D02*
Y49016D01*
X42441Y46457D02*
X42835Y46850D01*
X42441Y45591D02*
Y46457D01*
X41339Y44488D02*
X42441Y45591D01*
X44409Y54232D02*
Y57165D01*
X43917Y53740D02*
X44409Y54232D01*
X43917Y50295D02*
Y53740D01*
X43465Y49843D02*
X43917Y50295D01*
X43287Y49547D02*
Y49665D01*
X43465Y49843D01*
X43110Y49370D02*
X43287Y49547D01*
X43110Y47598D02*
Y49370D01*
Y47598D02*
X43228Y47480D01*
X42717Y51064D02*
X42933Y51280D01*
X42598Y47402D02*
Y50945D01*
Y50945D02*
X42717Y51064D01*
X42244Y47047D02*
X42598Y47402D01*
X41457Y47047D02*
X42244D01*
X41260Y46850D02*
X41457Y47047D01*
X41260Y55276D02*
Y57165D01*
X40315Y56339D02*
X40945Y56968D01*
X40315Y55197D02*
Y56339D01*
X42520Y54016D02*
X42638Y53898D01*
Y51929D02*
Y53898D01*
X42323Y49331D02*
Y49370D01*
X42047Y51339D02*
X42638Y51929D01*
X42047Y49606D02*
Y51339D01*
Y49606D02*
X42323Y49331D01*
X45669Y57126D02*
X45984Y56811D01*
Y51181D02*
Y56811D01*
X44685Y49882D02*
X45984Y51181D01*
X44685Y49724D02*
Y49882D01*
X43917Y49705D02*
X44016D01*
X43689Y50461D02*
Y55937D01*
X42835Y49606D02*
X43689Y50461D01*
X42539Y57087D02*
X43689Y55937D01*
X45041Y57124D02*
X45098Y57067D01*
Y52559D02*
Y57067D01*
X44803Y52264D02*
X45098Y52559D01*
X45689Y51870D02*
Y56201D01*
X43622Y49508D02*
Y49803D01*
X45689Y51870D01*
X42913Y51890D02*
Y56063D01*
X44016Y48740D02*
X44016Y48740D01*
X43189Y46850D02*
X43307D01*
X44016Y45748D02*
X44016Y45748D01*
X46302Y44491D02*
X46535Y44724D01*
X43231Y44491D02*
X46302D01*
X42835Y44094D02*
X43231Y44491D01*
X40335Y44094D02*
X42835D01*
X28209D02*
X30709D01*
X31105Y44491D01*
X28858Y45807D02*
X29193Y45472D01*
X28858Y45807D02*
Y47008D01*
X28622Y44744D02*
Y47323D01*
X32677Y52264D02*
X32972Y52559D01*
X31791Y49705D02*
X31890D01*
X31496Y49508D02*
Y49803D01*
X33563Y51870D02*
Y56201D01*
X31496Y49803D02*
X33563Y51870D01*
X30709Y49606D02*
X31563Y50461D01*
Y55937D01*
X30413Y57087D02*
X31563Y55937D01*
X31791Y53740D02*
X32283Y54232D01*
X31791Y50295D02*
Y53740D01*
X29331Y47047D02*
X30118D01*
X29134Y46850D02*
X29331Y47047D01*
X30472Y50945D02*
X30591Y51064D01*
Y51064D02*
X30807Y51280D01*
X30472Y47402D02*
Y50945D01*
X30118Y47047D02*
X30472Y47402D01*
X30787Y51890D02*
Y56063D01*
X29213Y44488D02*
X30315Y45591D01*
X32283Y54232D02*
Y57165D01*
X32915Y57124D02*
X32972Y57067D01*
Y52559D02*
Y57067D01*
X33543Y57126D02*
X33858Y56811D01*
Y51181D02*
Y56811D01*
X30394Y54016D02*
X30512Y53898D01*
Y51929D02*
Y53898D01*
X28622Y47323D02*
X29523Y48224D01*
Y54326D01*
X30433Y55236D01*
X29724Y47874D02*
Y53740D01*
X28858Y47008D02*
X29724Y47874D01*
Y53740D02*
X30315Y54331D01*
X29921Y51339D02*
X30512Y51929D01*
X30197Y49331D02*
Y49370D01*
X29921Y49606D02*
X30197Y49331D01*
X29921Y49606D02*
Y51339D01*
X28189Y56339D02*
X28819Y56968D01*
X28189Y55197D02*
Y56339D01*
X29134Y55276D02*
Y57165D01*
X31339Y49843D02*
X31791Y50295D01*
X31890Y48740D02*
X31890Y48740D01*
X31890Y45748D02*
X31890Y45748D01*
X30984Y47598D02*
X31102Y47480D01*
X30984Y47598D02*
Y49370D01*
X31161Y49665D02*
X31339Y49843D01*
X31161Y49547D02*
Y49665D01*
X30984Y49370D02*
X31161Y49547D01*
X32559Y49724D02*
Y49882D01*
X33858Y51181D01*
X30315Y46457D02*
X30709Y46850D01*
X30315Y45591D02*
Y46457D01*
X30709Y46850D02*
Y49016D01*
X31063Y46850D02*
X31181D01*
X25807Y37933D02*
X26250Y37490D01*
X27362Y38504D02*
X27402Y38543D01*
X28041Y38258D02*
X28524Y37776D01*
X30433D01*
X32185Y36024D01*
X31457Y41201D02*
Y42480D01*
X31811Y42835D01*
X28839Y35236D02*
X32480D01*
X37028Y34429D02*
X37196Y34598D01*
X36299Y34626D02*
X36859Y35186D01*
X36292Y32900D02*
X38484Y30709D01*
X40728Y44370D02*
X40846Y44252D01*
X40492Y32441D02*
X41772Y33720D01*
X45177D01*
X40846Y44252D02*
X42224D01*
X43012Y45039D01*
X45177Y33720D02*
X45512Y34055D01*
X47953D01*
X48465Y34567D01*
X43012Y45039D02*
X43307D01*
X43445Y44902D02*
X43642D01*
X43307Y45039D02*
X43445Y44902D01*
X43642D02*
X43898Y45157D01*
X46732Y45079D02*
X48976D01*
X43898Y45157D02*
X46654D01*
X46732Y45079D01*
X39252Y33228D02*
X39705D01*
X42146Y35669D01*
X49016D01*
X35000Y32795D02*
X35876Y33671D01*
X49409Y36122D02*
X66929D01*
X73228Y42421D01*
Y45512D01*
X73071Y45669D02*
X73228Y45512D01*
X72539Y47244D02*
X72835Y46949D01*
Y46063D02*
Y46949D01*
X72539Y45768D02*
X72835Y46063D01*
X72539Y42323D02*
Y45768D01*
X66535Y36319D02*
X72539Y42323D01*
X38681Y35827D02*
X38878Y36024D01*
X49311D02*
X49409Y36122D01*
X38878Y36024D02*
X49311D01*
X38681Y36220D02*
X49311D01*
X49409Y36319D01*
X66535D01*
X38287Y36614D02*
X38681Y36220D01*
X34783Y44921D02*
Y45394D01*
X34518Y45492D02*
X35197Y46171D01*
X34518Y44941D02*
Y45492D01*
X31811Y42234D02*
X34518Y44941D01*
X32756Y39075D02*
X32982D01*
X31811Y40020D02*
X32756Y39075D01*
X31811Y40020D02*
Y42234D01*
X35620Y47372D02*
X36063Y47815D01*
X35457Y46067D02*
X35620Y46230D01*
X34783Y45394D02*
X35457Y46067D01*
X35620Y46230D02*
Y47372D01*
X50728Y41171D02*
X51073Y41516D01*
X48583Y41083D02*
X48671Y41171D01*
X50728D01*
X51073Y41516D02*
X52323D01*
X51368Y43976D02*
X57913D01*
X58661Y44724D01*
X50404Y44134D02*
X50522Y44252D01*
X57470D01*
X58799Y45581D01*
Y48937D01*
X59232Y49370D01*
X59813D01*
X60787Y50344D01*
X50846Y33986D02*
X51348Y34488D01*
X57047D01*
X57943Y35384D01*
X59833D01*
X57854Y35738D02*
X59675D01*
X56841Y34724D02*
X57854Y35738D01*
X51289Y34724D02*
X56841D01*
X50807Y34242D02*
X51289Y34724D01*
X49970Y34242D02*
X50807D01*
D38*
X61713Y33081D02*
X61732D01*
X57549Y33986D02*
X57559Y33976D01*
X61575Y32008D02*
X61713Y32146D01*
X58858Y34941D02*
X58927Y35010D01*
X27008Y33770D02*
X27057Y33819D01*
D39*
X53730Y33465D02*
X54429Y34163D01*
X46476Y33465D02*
X53799Y33524D01*
X50689Y31555D02*
X51919D01*
X52785Y32421D01*
D40*
X41024Y37303D02*
X55394D01*
X38681Y37008D02*
X38883Y37210D01*
X40532Y36811D02*
X41024Y37303D01*
X38883Y37210D02*
X39148D01*
X39547Y36811D02*
X40532D01*
X39148Y37210D02*
X39547Y36811D01*
X56811Y38720D02*
X56850D01*
X44941Y36654D02*
X45098Y36811D01*
X64508D01*
X39429Y36654D02*
X44941D01*
X39075Y37008D02*
X39429Y36654D01*
X27105Y48958D02*
X27283Y48780D01*
X27480Y50650D02*
X27559Y50571D01*
Y49350D02*
Y50571D01*
X27382Y49173D02*
X27559Y49350D01*
X71319Y43622D02*
Y44902D01*
X64508Y36811D02*
X71319Y43622D01*
X55394Y37303D02*
X56811Y38720D01*
X34941Y36024D02*
X35138Y36220D01*
X32185Y36024D02*
X34941D01*
X33760Y35236D02*
X33957Y35039D01*
X32480Y35236D02*
X33760D01*
X35335Y36417D02*
X35925Y35827D01*
X34941Y36417D02*
X35335D01*
X34154Y37205D02*
X34941Y36417D01*
X37106Y39370D02*
X37303Y39567D01*
Y40256D01*
X37402Y40354D02*
X39469D01*
X37303Y40256D02*
X37402Y40354D01*
X38484Y39567D02*
X38681Y39764D01*
X38091Y39567D02*
X38287Y39764D01*
X37697Y36004D02*
X37874Y35827D01*
X37500Y35827D02*
X37697Y35630D01*
Y32953D02*
Y35630D01*
X37106Y36220D02*
X37303Y36024D01*
Y34705D02*
Y36024D01*
X37196Y34598D02*
X37303Y34705D01*
X36909Y35236D02*
Y35630D01*
X36859Y35186D02*
X36909Y35236D01*
X36713Y35827D02*
X36909Y35630D01*
X36319Y35433D02*
X36713D01*
X36122Y35236D02*
X36319Y35433D01*
X36122Y33071D02*
X36292Y32900D01*
X36122Y33071D02*
Y35236D01*
X72146Y46457D02*
X72539Y46850D01*
X72146Y43504D02*
Y46457D01*
X65157Y36516D02*
X72146Y43504D01*
X38681Y36614D02*
X38878Y36417D01*
X44094D02*
X44193Y36516D01*
X65157D01*
X38878Y36417D02*
X44094D01*
X71811Y45394D02*
Y48760D01*
X71319Y44902D02*
X71811Y45394D01*
X71457Y49114D02*
X71811Y48760D01*
X71447Y47244D02*
X71447Y47244D01*
X60669Y46063D02*
X60709Y46102D01*
X34154Y37205D02*
Y40354D01*
X37697Y38081D02*
X38091Y38474D01*
X37697Y36004D02*
Y38081D01*
X38091Y38474D02*
Y39567D01*
Y38268D02*
X38209Y38386D01*
X38386D01*
X38484Y38484D01*
X38091Y33425D02*
Y38268D01*
X38484Y38484D02*
Y39567D01*
X35531Y38976D02*
X35728Y39173D01*
Y40354D01*
X35138Y38976D02*
X35335Y39173D01*
Y40344D01*
X36624Y41634D01*
X35728Y40354D02*
X36791Y41417D01*
X49921D01*
X36624Y41634D02*
X49400D01*
X64902Y39045D02*
X66772Y40915D01*
X62451Y39045D02*
X64902D01*
X62057Y38652D02*
X62451Y39045D01*
X60443Y38652D02*
X62057D01*
X60443Y38957D02*
X61939D01*
X62303Y39321D01*
X64783D01*
X66339Y40876D01*
Y41575D01*
D41*
X83583Y38986D02*
Y38386D01*
X83983D01*
X84282Y38786D02*
X84482D01*
X84582Y38686D01*
Y38386D01*
X84282D01*
X84182Y38486D01*
X84282Y38586D01*
X84582D01*
X84782Y38786D02*
Y38486D01*
X84882Y38386D01*
X85182D01*
Y38286D01*
X85082Y38186D01*
X84982D01*
X85182Y38386D02*
Y38786D01*
X85682Y38386D02*
X85482D01*
X85382Y38486D01*
Y38686D01*
X85482Y38786D01*
X85682D01*
X85782Y38686D01*
Y38586D01*
X85382D01*
X85982Y38786D02*
Y38386D01*
Y38586D01*
X86082Y38686D01*
X86182Y38786D01*
X86282D01*
X87182Y38886D02*
X87281Y38986D01*
X87481D01*
X87581Y38886D01*
Y38786D01*
X87481Y38686D01*
X87381D01*
X87481D01*
X87581Y38586D01*
Y38486D01*
X87481Y38386D01*
X87281D01*
X87182Y38486D01*
D46*
X26295Y52465D02*
D03*
Y54465D02*
D03*
D53*
X46476Y33465D02*
D03*
X71024Y49173D02*
D03*
X28425Y47677D02*
D03*
X27362Y47992D02*
D03*
X25768Y50492D02*
D03*
X25000Y48583D02*
D03*
X24961Y47874D02*
D03*
X25157Y46890D02*
D03*
X25492Y49921D02*
D03*
X24941Y48878D02*
D03*
X26494Y51179D02*
D03*
X27480Y50650D02*
D03*
X27382Y49173D02*
D03*
X27283Y48780D02*
D03*
X71457Y49114D02*
D03*
X38681Y37008D02*
D03*
X39075D02*
D03*
X56850Y38720D02*
D03*
X39823Y38780D02*
D03*
X76181Y57815D02*
D03*
X32264Y41516D02*
D03*
X64213Y57736D02*
D03*
X43760Y45374D02*
D03*
X48307Y51890D02*
D03*
X29016Y58622D02*
D03*
X34764Y48917D02*
D03*
X35315Y50669D02*
D03*
X34941Y50689D02*
D03*
X74350Y59075D02*
D03*
X38110D02*
D03*
X50295D02*
D03*
X62421D02*
D03*
X28248D02*
D03*
X24134Y42461D02*
D03*
X36831Y31614D02*
D03*
X38917Y33071D02*
D03*
X50295Y35315D02*
D03*
X36909Y33504D02*
D03*
X37303Y33740D02*
D03*
X32756Y36457D02*
D03*
X32264Y38976D02*
D03*
X41693Y34488D02*
D03*
X47165Y34665D02*
D03*
X47480Y34921D02*
D03*
X43150D02*
D03*
X71510Y39423D02*
D03*
X74961Y39429D02*
D03*
X76752Y48209D02*
D03*
X74980Y37598D02*
D03*
X39390Y31673D02*
D03*
Y32126D02*
D03*
X46968Y40984D02*
D03*
X35335Y41024D02*
D03*
X73071Y45669D02*
D03*
X39705Y37008D02*
D03*
X60472Y48819D02*
D03*
X37461Y41063D02*
D03*
X36063Y47815D02*
D03*
X32795Y39370D02*
D03*
X33839Y44862D02*
D03*
X26250Y37490D02*
D03*
X25807Y37933D02*
D03*
X27362Y38504D02*
D03*
X28839Y35236D02*
D03*
X28976Y35630D02*
D03*
X28041Y38258D02*
D03*
X31457Y41201D02*
D03*
X31811Y42835D02*
D03*
X40492Y32441D02*
D03*
X40728Y44370D02*
D03*
X48465Y34567D02*
D03*
X48976Y45079D02*
D03*
X39252Y33228D02*
D03*
X48583Y41083D02*
D03*
X49016Y35669D02*
D03*
X52323Y41516D02*
D03*
X35000Y32795D02*
D03*
X35866Y33681D02*
D03*
X72539Y46850D02*
D03*
X38681Y35827D02*
D03*
X72539Y47244D02*
D03*
X38287Y36614D02*
D03*
X38681D02*
D03*
X71447Y47244D02*
D03*
X60669Y46063D02*
D03*
X35197Y46171D02*
D03*
X32982Y39075D02*
D03*
X54429Y34163D02*
D03*
X50689Y31555D02*
D03*
X52785Y32421D02*
D03*
X60787Y50344D02*
D03*
X35138Y38976D02*
D03*
X35531D02*
D03*
X49921Y41417D02*
D03*
X49400Y41634D02*
D03*
X66772Y40915D02*
D03*
X60443Y38652D02*
D03*
X60443Y38957D02*
D03*
X66339Y41575D02*
D03*
X51368Y43976D02*
D03*
X50404Y44134D02*
D03*
X50846Y33986D02*
D03*
X59833Y35384D02*
D03*
X59675Y35738D02*
D03*
X49970Y34242D02*
D03*
D54*
X70472Y43504D02*
D03*
X70000Y43032D02*
D03*
X69528Y42559D02*
D03*
X69055Y42087D02*
D03*
X70787Y44724D02*
D03*
X64587Y44094D02*
D03*
X70709Y43740D02*
D03*
X70236Y43268D02*
D03*
X69764Y42795D02*
D03*
X69291Y42323D02*
D03*
X68819Y41850D02*
D03*
X68268Y48740D02*
D03*
X67559Y46850D02*
D03*
X68268Y45748D02*
D03*
X66772Y54016D02*
D03*
X66575Y49331D02*
D03*
X67185Y51280D02*
D03*
X65512Y46850D02*
D03*
X65197Y56968D02*
D03*
X64567Y55197D02*
D03*
X65512Y55276D02*
D03*
Y57165D02*
D03*
X67087Y49606D02*
D03*
X66791Y57087D02*
D03*
X67165Y56063D02*
D03*
Y51890D02*
D03*
X66811Y55236D02*
D03*
X65000Y44744D02*
D03*
X66693Y54331D02*
D03*
X65571Y45472D02*
D03*
X67087Y49016D02*
D03*
X65591Y44488D02*
D03*
X68661Y57165D02*
D03*
X67480Y47480D02*
D03*
X69293Y57124D02*
D03*
X69055Y52264D02*
D03*
X69921Y57126D02*
D03*
X68937Y49724D02*
D03*
X69941Y56201D02*
D03*
X67874Y49508D02*
D03*
X68169Y49705D02*
D03*
X58346Y43504D02*
D03*
X57874Y43032D02*
D03*
X57402Y42559D02*
D03*
X56929Y42087D02*
D03*
X58661Y44724D02*
D03*
X58583Y43740D02*
D03*
X58110Y43268D02*
D03*
X57638Y42795D02*
D03*
X57165Y42323D02*
D03*
X56693Y41850D02*
D03*
X56142Y48740D02*
D03*
X55433Y46850D02*
D03*
X56142Y45748D02*
D03*
X54646Y54016D02*
D03*
X54449Y49331D02*
D03*
X55059Y51280D02*
D03*
X53386Y46850D02*
D03*
X53071Y56968D02*
D03*
X52441Y55197D02*
D03*
X53386Y55276D02*
D03*
Y57165D02*
D03*
X54961Y49606D02*
D03*
X54665Y57087D02*
D03*
X55039Y56063D02*
D03*
Y51890D02*
D03*
X54685Y55236D02*
D03*
X52874Y44744D02*
D03*
X54567Y54331D02*
D03*
X53445Y45472D02*
D03*
X54961Y49016D02*
D03*
X53465Y44488D02*
D03*
X56535Y57165D02*
D03*
X55354Y47480D02*
D03*
X57167Y57124D02*
D03*
X56929Y52264D02*
D03*
X57795Y57126D02*
D03*
X56811Y49724D02*
D03*
X57815Y56201D02*
D03*
X55748Y49508D02*
D03*
X56043Y49705D02*
D03*
X46220Y43504D02*
D03*
X45748Y43032D02*
D03*
X45276Y42559D02*
D03*
X44803Y42087D02*
D03*
X42441Y54331D02*
D03*
X41319Y45472D02*
D03*
X42559Y55236D02*
D03*
X40748Y44744D02*
D03*
X46457Y43740D02*
D03*
X45984Y43268D02*
D03*
X45512Y42795D02*
D03*
X45039Y42323D02*
D03*
X44567Y41850D02*
D03*
X42835Y49016D02*
D03*
X41339Y44488D02*
D03*
X44409Y57165D02*
D03*
X43228Y47480D02*
D03*
X42933Y51280D02*
D03*
X41260Y46850D02*
D03*
Y55276D02*
D03*
Y57165D02*
D03*
X40945Y56968D02*
D03*
X40315Y55197D02*
D03*
X42520Y54016D02*
D03*
X42323Y49331D02*
D03*
X45669Y57126D02*
D03*
X44685Y49724D02*
D03*
X43917Y49705D02*
D03*
X42835Y49606D02*
D03*
X42539Y57087D02*
D03*
X45041Y57124D02*
D03*
X44803Y52264D02*
D03*
X45689Y56201D02*
D03*
X43622Y49508D02*
D03*
X42913Y56063D02*
D03*
Y51890D02*
D03*
X44016Y48740D02*
D03*
X43307Y46850D02*
D03*
X44016Y45748D02*
D03*
X46535Y44724D02*
D03*
X40335Y44094D02*
D03*
X28209D02*
D03*
X29193Y45472D02*
D03*
X28622Y44744D02*
D03*
X32441Y41850D02*
D03*
X32677Y52264D02*
D03*
X31791Y49705D02*
D03*
X31496Y49508D02*
D03*
X33563Y56201D02*
D03*
X30709Y49606D02*
D03*
X30413Y57087D02*
D03*
X30807Y51280D02*
D03*
X29134Y46850D02*
D03*
X30787Y51890D02*
D03*
Y56063D02*
D03*
X30315Y54331D02*
D03*
X30433Y55236D02*
D03*
X29213Y44488D02*
D03*
X30709Y49016D02*
D03*
X32283Y57165D02*
D03*
X32915Y57124D02*
D03*
X33543Y57126D02*
D03*
X30394Y54016D02*
D03*
X30197Y49331D02*
D03*
X28819Y56968D02*
D03*
X28189Y55197D02*
D03*
X29134Y55276D02*
D03*
Y57165D02*
D03*
X31102Y47480D02*
D03*
X31890Y48740D02*
D03*
Y45748D02*
D03*
X32559Y49724D02*
D03*
X31181Y46850D02*
D03*
X34331Y43740D02*
D03*
X34094Y43504D02*
D03*
X33858Y43268D02*
D03*
X33622Y43032D02*
D03*
X33386Y42795D02*
D03*
X33150Y42559D02*
D03*
X32913Y42323D02*
D03*
X32677Y42087D02*
D03*
D55*
X33150Y35827D02*
D03*
X33957Y35039D02*
D03*
X35138Y37008D02*
D03*
Y37402D02*
D03*
X34744D02*
D03*
X35925Y35827D02*
D03*
X36713D02*
D03*
X37106Y36220D02*
D03*
X37500Y35827D02*
D03*
Y35433D02*
D03*
X36713D02*
D03*
X37106Y35827D02*
D03*
Y39370D02*
D03*
X38681Y39764D02*
D03*
X38287D02*
D03*
X35335Y34587D02*
D03*
X33091Y38780D02*
D03*
X34744Y40157D02*
D03*
X35138Y36220D02*
D03*
X33091Y36811D02*
D03*
D57*
X24134Y36378D02*
Y42461D01*
Y36378D02*
X24262Y36250D01*
X26339Y52421D02*
X26732Y52815D01*
Y57165D01*
X27717Y58150D01*
X29429D01*
X30039Y58760D01*
X36535D01*
X37028Y58268D01*
X37697D01*
X38051Y58622D01*
X48465D01*
X48760Y58327D01*
X50374D01*
X50768Y58720D01*
X60768D01*
X61083Y58406D01*
X61870D01*
X62126Y58661D01*
X62776D01*
X62992Y58878D01*
X72795D01*
X73642Y58032D01*
Y52520D02*
Y58032D01*
X71024Y49902D02*
X73642Y52520D01*
X71024Y49173D02*
Y49902D01*
X27677Y47677D02*
X28425D01*
X27362Y47992D02*
X27677Y47677D01*
X27598Y44449D02*
X28327D01*
X25157Y46890D02*
X27598Y44449D01*
X27047Y52205D02*
Y56673D01*
X26142Y51299D02*
X27047Y52205D01*
X25768Y50492D02*
X26142Y50866D01*
Y51299D01*
X28110Y57736D02*
X35906D01*
X27047Y56673D02*
X28110Y57736D01*
X24744Y52126D02*
Y53622D01*
Y52126D02*
X25217Y51654D01*
Y49862D02*
Y51654D01*
X24213Y49606D02*
Y58425D01*
Y49606D02*
X24941Y48878D01*
X26494Y51179D02*
X26969Y50705D01*
Y49094D02*
Y50705D01*
Y49094D02*
X27283Y48780D01*
X25079Y47874D02*
X25571Y48366D01*
X25492Y49921D02*
X25571Y49843D01*
Y48366D02*
Y49843D01*
X25000Y48583D02*
X25315Y48898D01*
Y49764D01*
X25217Y49862D02*
X25315Y49764D01*
X24980Y48602D02*
X25000Y48583D01*
X24961Y47874D02*
X25079D01*
X35906Y57736D02*
X36319Y57323D01*
X37815D01*
X38484Y57992D01*
X49409D01*
X50098Y57303D01*
X51358D01*
X51929Y57874D01*
X60492D01*
X61161Y57205D01*
X63681D01*
X64213Y57736D01*
X43760Y45374D02*
X46142D01*
X46654Y45886D01*
Y50906D01*
X47638Y51890D01*
X48307D01*
X26634Y59311D02*
X27323Y58622D01*
X24213Y58425D02*
X25098Y59311D01*
X26634D01*
X27323Y58622D02*
X29016D01*
X34764Y48917D02*
Y50118D01*
X35315Y50669D01*
X34528Y46024D02*
Y50276D01*
X28327Y44449D02*
X28524Y44252D01*
X30039D01*
X31299Y45512D01*
X34016D01*
X34528Y46024D01*
Y50276D02*
X34941Y50689D01*
X26295Y54425D02*
Y54465D01*
X25807Y53937D02*
X26295Y54425D01*
X25059Y53937D02*
X25807D01*
X24744Y53622D02*
X25059Y53937D01*
X26295Y52465D02*
X26315D01*
X28248Y59075D02*
X74350D01*
M02*
